G04 Layer_Color=16711935*
%FSLAX23Y23*%
%MOIN*%
G70*
G01*
G75*
%ADD40C,0.008*%
%ADD82C,0.032*%
%ADD84C,0.042*%
%ADD111R,0.044X0.034*%
G04:AMPARAMS|DCode=113|XSize=47mil|YSize=16mil|CornerRadius=5mil|HoleSize=0mil|Usage=FLASHONLY|Rotation=90.000|XOffset=0mil|YOffset=0mil|HoleType=Round|Shape=RoundedRectangle|*
%AMROUNDEDRECTD113*
21,1,0.047,0.006,0,0,90.0*
21,1,0.037,0.016,0,0,90.0*
1,1,0.010,0.003,0.019*
1,1,0.010,0.003,-0.019*
1,1,0.010,-0.003,-0.019*
1,1,0.010,-0.003,0.019*
%
%ADD113ROUNDEDRECTD113*%
%ADD114R,0.189X0.189*%
%ADD119R,0.034X0.044*%
G04:AMPARAMS|DCode=120|XSize=44mil|YSize=34mil|CornerRadius=0mil|HoleSize=0mil|Usage=FLASHONLY|Rotation=45.000|XOffset=0mil|YOffset=0mil|HoleType=Round|Shape=Rectangle|*
%AMROTATEDRECTD120*
4,1,4,-0.004,-0.028,-0.028,-0.004,0.004,0.028,0.028,0.004,-0.004,-0.028,0.0*
%
%ADD120ROTATEDRECTD120*%

G04:AMPARAMS|DCode=121|XSize=44mil|YSize=34mil|CornerRadius=0mil|HoleSize=0mil|Usage=FLASHONLY|Rotation=135.000|XOffset=0mil|YOffset=0mil|HoleType=Round|Shape=Rectangle|*
%AMROTATEDRECTD121*
4,1,4,0.028,-0.004,0.004,-0.028,-0.028,0.004,-0.004,0.028,0.028,-0.004,0.0*
%
%ADD121ROTATEDRECTD121*%

%ADD124R,0.064X0.064*%
%ADD127R,0.047X0.016*%
G04:AMPARAMS|DCode=128|XSize=47mil|YSize=16mil|CornerRadius=5mil|HoleSize=0mil|Usage=FLASHONLY|Rotation=0.000|XOffset=0mil|YOffset=0mil|HoleType=Round|Shape=RoundedRectangle|*
%AMROUNDEDRECTD128*
21,1,0.047,0.006,0,0,0.0*
21,1,0.037,0.016,0,0,0.0*
1,1,0.010,0.019,-0.003*
1,1,0.010,-0.019,-0.003*
1,1,0.010,-0.019,0.003*
1,1,0.010,0.019,0.003*
%
%ADD128ROUNDEDRECTD128*%
%ADD129R,0.126X0.067*%
%ADD130R,0.016X0.047*%
%ADD131R,0.067X0.126*%
%ADD134R,0.063X0.063*%
%ADD135C,0.063*%
%ADD136R,0.063X0.063*%
%ADD137P,0.113X8X22.5*%
%ADD138C,0.062*%
%ADD139R,0.062X0.062*%
G04:AMPARAMS|DCode=140|XSize=217mil|YSize=258mil|CornerRadius=13mil|HoleSize=0mil|Usage=FLASHONLY|Rotation=90.000|XOffset=0mil|YOffset=0mil|HoleType=Round|Shape=RoundedRectangle|*
%AMROUNDEDRECTD140*
21,1,0.217,0.233,0,0,90.0*
21,1,0.192,0.258,0,0,90.0*
1,1,0.025,0.116,0.096*
1,1,0.025,0.116,-0.096*
1,1,0.025,-0.116,-0.096*
1,1,0.025,-0.116,0.096*
%
%ADD140ROUNDEDRECTD140*%
%ADD141C,0.124*%
%ADD142C,0.004*%
%ADD143C,0.064*%
%ADD144C,0.110*%
%ADD145C,0.022*%
%ADD146C,0.030*%
%ADD147C,0.040*%
%ADD148R,0.140X0.072*%
%ADD149R,0.290X0.085*%
%ADD150R,0.085X0.085*%
%ADD151O,0.051X0.016*%
%ADD152R,0.051X0.016*%
%ADD153O,0.064X0.019*%
%ADD154R,0.064X0.019*%
G04:AMPARAMS|DCode=155|XSize=51mil|YSize=16mil|CornerRadius=0mil|HoleSize=0mil|Usage=FLASHONLY|Rotation=315.000|XOffset=0mil|YOffset=0mil|HoleType=Round|Shape=Round|*
%AMOVALD155*
21,1,0.035,0.016,0.000,0.000,315.0*
1,1,0.016,-0.013,0.013*
1,1,0.016,0.013,-0.013*
%
%ADD155OVALD155*%

G04:AMPARAMS|DCode=156|XSize=51mil|YSize=16mil|CornerRadius=0mil|HoleSize=0mil|Usage=FLASHONLY|Rotation=315.000|XOffset=0mil|YOffset=0mil|HoleType=Round|Shape=Rectangle|*
%AMROTATEDRECTD156*
4,1,4,-0.024,0.013,-0.013,0.024,0.024,-0.013,0.013,-0.024,-0.024,0.013,0.0*
%
%ADD156ROTATEDRECTD156*%

%ADD157R,0.104X0.064*%
%ADD158R,0.054X0.064*%
%ADD159R,0.064X0.064*%
%ADD160R,0.064X0.054*%
D40*
X4000Y-0D02*
Y5500D01*
X1193D02*
X4000D01*
X0Y1681D02*
Y3650D01*
X753Y-0D02*
X4000D01*
X0D02*
Y1681D01*
Y-0D02*
X753D01*
X0Y5500D02*
X1193D01*
X0Y3650D02*
Y5500D01*
D82*
X2834Y1381D02*
D03*
X2823Y1328D02*
D03*
X1117Y1630D02*
D03*
X939Y4935D02*
D03*
X3458Y3767D02*
D03*
X2211Y727D02*
D03*
X2814Y4921D02*
D03*
X1135Y4988D02*
D03*
X1122Y5022D02*
D03*
X1351Y4990D02*
D03*
X1423Y5006D02*
D03*
X2761Y4997D02*
D03*
X2751Y5033D02*
D03*
X2974Y5015D02*
D03*
X3013Y5034D02*
D03*
X2789Y575D02*
D03*
X2822Y598D02*
D03*
X2233Y562D02*
D03*
X2231Y598D02*
D03*
X930Y1344D02*
D03*
X1345Y4816D02*
D03*
X1554Y4801D02*
D03*
X1389Y4772D02*
D03*
X609Y4303D02*
D03*
X819Y4302D02*
D03*
X2606Y822D02*
D03*
X2126Y841D02*
D03*
X2673Y4625D02*
D03*
X2971Y4624D02*
D03*
X1347Y4618D02*
D03*
X1049Y4619D02*
D03*
X972Y4630D02*
D03*
X966Y4515D02*
D03*
X436Y4393D02*
D03*
X1939Y4402D02*
D03*
X2581Y4635D02*
D03*
X2586Y4519D02*
D03*
X2726Y795D02*
D03*
X2725Y881D02*
D03*
X2780Y703D02*
D03*
X2972Y872D02*
D03*
X2992Y746D02*
D03*
X2261Y874D02*
D03*
X2266Y740D02*
D03*
X2474Y872D02*
D03*
X2509Y750D02*
D03*
X2256Y797D02*
D03*
X1028Y1237D02*
D03*
X1028Y1277D02*
D03*
X1078Y1237D02*
D03*
X1078Y1277D02*
D03*
X1128Y1237D02*
D03*
X1128Y1277D02*
D03*
X1178D02*
D03*
X1178Y1237D02*
D03*
X1228D02*
D03*
X1228Y1277D02*
D03*
X1028Y1329D02*
D03*
X1028Y1381D02*
D03*
X1028Y1421D02*
D03*
X1078Y1329D02*
D03*
X1078Y1381D02*
D03*
X1128D02*
D03*
X1078Y1421D02*
D03*
X1128D02*
D03*
X1178Y1329D02*
D03*
X1178Y1381D02*
D03*
X1178Y1421D02*
D03*
X1228Y1329D02*
D03*
X1228Y1381D02*
D03*
X1228Y1421D02*
D03*
X425Y4261D02*
D03*
X784Y4692D02*
D03*
X826Y4510D02*
D03*
X836Y4614D02*
D03*
X1058Y4519D02*
D03*
X1129Y4428D02*
D03*
Y4374D02*
D03*
X1183D02*
D03*
X1129Y4477D02*
D03*
X960Y4689D02*
D03*
X1129Y4526D02*
D03*
X1096Y4584D02*
D03*
X1183Y4526D02*
D03*
X1108Y4946D02*
D03*
X1161Y4863D02*
D03*
X1137Y5068D02*
D03*
X1232Y4374D02*
D03*
X1237Y4296D02*
D03*
X1232Y4526D02*
D03*
X1239Y4872D02*
D03*
X1281Y4477D02*
D03*
Y4374D02*
D03*
Y4428D02*
D03*
Y4526D02*
D03*
X1297Y4574D02*
D03*
X1351Y4522D02*
D03*
X1317Y4954D02*
D03*
X2106Y488D02*
D03*
X2174Y388D02*
D03*
X2128Y905D02*
D03*
X2233Y500D02*
D03*
X2309Y915D02*
D03*
X2329Y1110D02*
D03*
X2149Y1128D02*
D03*
X2290Y1346D02*
D03*
X2665Y514D02*
D03*
X2518Y811D02*
D03*
X2627Y721D02*
D03*
X2831Y391D02*
D03*
X2710Y721D02*
D03*
X2807Y497D02*
D03*
X2510Y921D02*
D03*
X2727Y916D02*
D03*
X2621Y961D02*
D03*
X3085Y500D02*
D03*
X3229Y485D02*
D03*
X3185Y681D02*
D03*
X2937Y916D02*
D03*
X2993Y820D02*
D03*
X2522Y1242D02*
D03*
X2522Y1282D02*
D03*
X2522Y1334D02*
D03*
X2572Y1242D02*
D03*
X2622D02*
D03*
X2572Y1282D02*
D03*
X2572Y1334D02*
D03*
X2622Y1282D02*
D03*
X2572Y1386D02*
D03*
X2522D02*
D03*
X2572Y1426D02*
D03*
X2522D02*
D03*
X2592Y1637D02*
D03*
X2622Y1386D02*
D03*
X2622Y1426D02*
D03*
X2672Y1242D02*
D03*
X2672Y1282D02*
D03*
X2722Y1242D02*
D03*
X2722Y1282D02*
D03*
X2672Y1334D02*
D03*
X2722D02*
D03*
X2672Y1386D02*
D03*
X2722D02*
D03*
X2722Y1426D02*
D03*
X2672D02*
D03*
X3867Y1587D02*
D03*
X4240Y1330D02*
D03*
X3589Y1632D02*
D03*
X3938Y1792D02*
D03*
X4204Y1748D02*
D03*
X1443Y4717D02*
D03*
X1517Y4966D02*
D03*
X1570Y4644D02*
D03*
X1651Y4688D02*
D03*
X1937Y4215D02*
D03*
Y4277D02*
D03*
Y4341D02*
D03*
X2807Y4380D02*
D03*
X2753Y4483D02*
D03*
Y4380D02*
D03*
Y4434D02*
D03*
X2485Y4500D02*
D03*
X2860Y4302D02*
D03*
X2856Y4380D02*
D03*
X2905D02*
D03*
Y4434D02*
D03*
Y4483D02*
D03*
X3157Y2327D02*
D03*
X3361Y1995D02*
D03*
X3304Y4335D02*
D03*
X3742Y4034D02*
D03*
X4242Y4084D02*
D03*
X3811Y4317D02*
D03*
X3863Y4522D02*
D03*
X4161Y4464D02*
D03*
X2682Y4525D02*
D03*
X2473Y4621D02*
D03*
X2753Y4532D02*
D03*
X2856D02*
D03*
X2807D02*
D03*
X2720Y4590D02*
D03*
X2414Y4699D02*
D03*
X2598Y4714D02*
D03*
X2769Y4879D02*
D03*
X2736Y4948D02*
D03*
X2884Y4879D02*
D03*
X2752Y5090D02*
D03*
X2905Y4532D02*
D03*
X2921Y4580D02*
D03*
X2975Y4528D02*
D03*
X3055Y4714D02*
D03*
X3176Y4650D02*
D03*
X3274Y4695D02*
D03*
X2924Y4955D02*
D03*
X3135Y4967D02*
D03*
X2722Y834D02*
D03*
X2171Y1036D02*
D03*
X2253Y832D02*
D03*
X2809Y4302D02*
D03*
X1185Y4296D02*
D03*
X1446Y4848D02*
D03*
X918Y4871D02*
D03*
X3092Y4846D02*
D03*
X2564Y4844D02*
D03*
X2541Y466D02*
D03*
X3132Y473D02*
D03*
X1392Y4899D02*
D03*
X1569Y4857D02*
D03*
X1088Y4975D02*
D03*
X2467Y4846D02*
D03*
X2700Y4974D02*
D03*
X3191Y4874D02*
D03*
X2411Y599D02*
D03*
X2741Y508D02*
D03*
X2191Y547D02*
D03*
X2957Y4977D02*
D03*
X2968Y607D02*
D03*
X4062Y1443D02*
D03*
X4021Y1442D02*
D03*
X3982D02*
D03*
X3940D02*
D03*
X3899Y1443D02*
D03*
X3860D02*
D03*
X3817Y1444D02*
D03*
X4059Y1393D02*
D03*
X4018Y1392D02*
D03*
X3979D02*
D03*
X3937D02*
D03*
X3896Y1393D02*
D03*
X3857D02*
D03*
X3814Y1394D02*
D03*
X3932Y1493D02*
D03*
X3989Y1490D02*
D03*
X4058Y1342D02*
D03*
X4017Y1341D02*
D03*
X3978D02*
D03*
X3936D02*
D03*
X3895Y1342D02*
D03*
X3856D02*
D03*
X3813Y1343D02*
D03*
X2680Y4467D02*
D03*
X2974Y4465D02*
D03*
X1350Y4459D02*
D03*
X1056Y4461D02*
D03*
X3407Y2164D02*
D03*
Y2114D02*
D03*
X3157Y2164D02*
D03*
Y2114D02*
D03*
X3357D02*
D03*
X3307D02*
D03*
X3257D02*
D03*
X3207D02*
D03*
X3357Y2164D02*
D03*
X3307D02*
D03*
X3257D02*
D03*
X3207D02*
D03*
X3239Y2220D02*
D03*
X3289D02*
D03*
X3339D02*
D03*
X2611Y1515D02*
D03*
X2883Y1326D02*
D03*
X1519Y4759D02*
D03*
X892Y4751D02*
D03*
X2966Y4829D02*
D03*
X3176Y4806D02*
D03*
X3006Y4785D02*
D03*
X2333Y4314D02*
D03*
X2524Y4753D02*
D03*
X3137Y4764D02*
D03*
D84*
X3723Y169D02*
D03*
X4185Y303D02*
D03*
X4609Y5270D02*
D03*
X4194Y516D02*
D03*
X4486Y4894D02*
D03*
X3670Y4233D02*
D03*
X3487Y4453D02*
D03*
X3307Y1743D02*
D03*
X3807Y90D02*
D03*
X3823Y762D02*
D03*
X3805Y905D02*
D03*
X3014Y2120D02*
D03*
X2799Y2507D02*
D03*
X3088Y2444D02*
D03*
X3250Y2530D02*
D03*
X3448Y2436D02*
D03*
X3637Y2453D02*
D03*
X4030Y4685D02*
D03*
X4143Y5066D02*
D03*
X3723Y1114D02*
D03*
X3755Y544D02*
D03*
X3976Y4900D02*
D03*
X4093Y5276D02*
D03*
X4195Y1115D02*
D03*
X4371Y1445D02*
D03*
X3665Y2190D02*
D03*
X4267Y4229D02*
D03*
X2969Y2512D02*
D03*
D111*
X1123Y692D02*
D03*
X1058D02*
D03*
X1499Y412D02*
D03*
X1564D02*
D03*
X1363D02*
D03*
X1428D02*
D03*
X1647Y496D02*
D03*
X1712D02*
D03*
X1673Y691D02*
D03*
X1608D02*
D03*
X847Y412D02*
D03*
X912D02*
D03*
X711D02*
D03*
X776D02*
D03*
X1267Y534D02*
D03*
X1202D02*
D03*
X1072Y490D02*
D03*
X1137D02*
D03*
X692Y513D02*
D03*
X627D02*
D03*
X1240Y4313D02*
D03*
X1175D02*
D03*
X869Y4640D02*
D03*
X934D02*
D03*
X863Y4511D02*
D03*
X928D02*
D03*
X3282Y2498D02*
D03*
X3347D02*
D03*
X2205Y417D02*
D03*
X2270D02*
D03*
X2341D02*
D03*
X2406D02*
D03*
X2617Y697D02*
D03*
X2552D02*
D03*
X2993Y417D02*
D03*
X3058D02*
D03*
X3167Y696D02*
D03*
X3102D02*
D03*
X2857Y417D02*
D03*
X2922D02*
D03*
X3282Y2436D02*
D03*
X3347D02*
D03*
X3346Y2372D02*
D03*
X3281D02*
D03*
X3599Y2428D02*
D03*
X3534D02*
D03*
X4033Y1771D02*
D03*
X3968D02*
D03*
X4180Y1724D02*
D03*
X4115D02*
D03*
X3968Y1708D02*
D03*
X4033D02*
D03*
X4032Y1642D02*
D03*
X3967D02*
D03*
X4149Y4429D02*
D03*
X4084D02*
D03*
X3462Y2992D02*
D03*
X3397D02*
D03*
X3263Y3095D02*
D03*
X3198D02*
D03*
X3264Y2972D02*
D03*
X3199D02*
D03*
X3198Y3035D02*
D03*
X3263D02*
D03*
X3401Y1977D02*
D03*
X3466D02*
D03*
X4196Y5048D02*
D03*
X4261D02*
D03*
X4088Y4669D02*
D03*
X4153D02*
D03*
X3864Y883D02*
D03*
X3929D02*
D03*
X3883Y4365D02*
D03*
X3948D02*
D03*
Y4427D02*
D03*
X3883D02*
D03*
X3948Y4490D02*
D03*
X3883D02*
D03*
X1833Y2452D02*
D03*
X1898D02*
D03*
X1693Y2381D02*
D03*
X1758D02*
D03*
X1833Y2322D02*
D03*
X1898D02*
D03*
Y2387D02*
D03*
X1833D02*
D03*
X2979Y2152D02*
D03*
X2914D02*
D03*
X2121Y518D02*
D03*
X2186D02*
D03*
X2631Y495D02*
D03*
X2566D02*
D03*
X2696Y539D02*
D03*
X2761D02*
D03*
X3206Y501D02*
D03*
X3141D02*
D03*
X3861Y85D02*
D03*
X3926D02*
D03*
X3872Y796D02*
D03*
X3937D02*
D03*
X2569Y4507D02*
D03*
X2504D02*
D03*
X2559Y4646D02*
D03*
X2494D02*
D03*
X2798Y4319D02*
D03*
X2863D02*
D03*
D113*
X972Y3411D02*
D03*
X992Y3615D02*
D03*
Y3411D02*
D03*
X1011Y3615D02*
D03*
Y3411D02*
D03*
X1031Y3615D02*
D03*
Y3411D02*
D03*
X1051Y3615D02*
D03*
Y3411D02*
D03*
X1070Y3615D02*
D03*
Y3411D02*
D03*
X1090Y3615D02*
D03*
Y3411D02*
D03*
X1110Y3615D02*
D03*
Y3411D02*
D03*
X1130Y3615D02*
D03*
Y3411D02*
D03*
X1149Y3615D02*
D03*
Y3411D02*
D03*
X1169Y3615D02*
D03*
Y3411D02*
D03*
X1189Y3615D02*
D03*
Y3411D02*
D03*
X1208Y3615D02*
D03*
Y3411D02*
D03*
X1228Y3615D02*
D03*
Y3411D02*
D03*
X1248Y3615D02*
D03*
Y3411D02*
D03*
X1267Y3615D02*
D03*
Y3411D02*
D03*
X1287Y3615D02*
D03*
Y3411D02*
D03*
X1307Y3615D02*
D03*
Y3411D02*
D03*
X1326Y3615D02*
D03*
Y3411D02*
D03*
X1346Y3615D02*
D03*
Y3411D02*
D03*
X1366Y3615D02*
D03*
Y3411D02*
D03*
X1385Y3615D02*
D03*
Y3411D02*
D03*
X1405Y3615D02*
D03*
Y3411D02*
D03*
X1425Y3615D02*
D03*
Y3411D02*
D03*
X1445Y3615D02*
D03*
Y3411D02*
D03*
X1464Y3615D02*
D03*
Y3411D02*
D03*
X1484Y3615D02*
D03*
Y3411D02*
D03*
X1504Y3615D02*
D03*
Y3411D02*
D03*
X1523Y3615D02*
D03*
Y3411D02*
D03*
X1543Y3615D02*
D03*
Y3411D02*
D03*
X1563Y3615D02*
D03*
Y3411D02*
D03*
X1582Y3615D02*
D03*
Y3411D02*
D03*
X1602Y3615D02*
D03*
Y3411D02*
D03*
X1622Y3615D02*
D03*
Y3411D02*
D03*
X1641Y3615D02*
D03*
Y3411D02*
D03*
X1661Y3615D02*
D03*
Y3411D02*
D03*
X1681Y3615D02*
D03*
Y3411D02*
D03*
X1700Y3615D02*
D03*
Y3411D02*
D03*
X1720Y3615D02*
D03*
Y3411D02*
D03*
X1740Y3615D02*
D03*
Y3411D02*
D03*
X1759Y3615D02*
D03*
Y3411D02*
D03*
X1779Y3615D02*
D03*
Y3411D02*
D03*
X1799Y3615D02*
D03*
Y3411D02*
D03*
X1819Y3615D02*
D03*
Y3411D02*
D03*
X1838Y3615D02*
D03*
Y3411D02*
D03*
X1858Y3615D02*
D03*
Y3411D02*
D03*
X1878Y3615D02*
D03*
Y3411D02*
D03*
X1897Y3615D02*
D03*
Y3411D02*
D03*
X1917Y3615D02*
D03*
Y3411D02*
D03*
X1937Y3615D02*
D03*
Y3411D02*
D03*
X1956Y3615D02*
D03*
Y3411D02*
D03*
X1976Y3615D02*
D03*
Y3411D02*
D03*
X1996Y3615D02*
D03*
Y3411D02*
D03*
X2015Y3615D02*
D03*
Y3411D02*
D03*
X2035Y3615D02*
D03*
Y3411D02*
D03*
X2055Y3615D02*
D03*
Y3411D02*
D03*
X2074Y3615D02*
D03*
Y3411D02*
D03*
X2094Y3615D02*
D03*
Y3411D02*
D03*
X2114Y3615D02*
D03*
Y3411D02*
D03*
X2133Y3615D02*
D03*
Y3411D02*
D03*
X2153Y3615D02*
D03*
Y3411D02*
D03*
X2173Y3615D02*
D03*
Y3411D02*
D03*
X2193Y3615D02*
D03*
Y3411D02*
D03*
X2212Y3615D02*
D03*
Y3411D02*
D03*
X2232Y3615D02*
D03*
Y3411D02*
D03*
X2252Y3615D02*
D03*
Y3411D02*
D03*
X2271Y3615D02*
D03*
Y3411D02*
D03*
X2291Y3615D02*
D03*
Y3411D02*
D03*
X2311Y3615D02*
D03*
Y3411D02*
D03*
X2330Y3615D02*
D03*
Y3411D02*
D03*
X2350Y3615D02*
D03*
Y3411D02*
D03*
X2370Y3615D02*
D03*
Y3411D02*
D03*
X2389Y3615D02*
D03*
Y3411D02*
D03*
X2409Y3615D02*
D03*
Y3411D02*
D03*
X2429Y3615D02*
D03*
Y3411D02*
D03*
X2448Y3615D02*
D03*
Y3411D02*
D03*
X2468Y3615D02*
D03*
Y3411D02*
D03*
X2488Y3615D02*
D03*
Y3411D02*
D03*
X2508Y3615D02*
D03*
Y3411D02*
D03*
X2527Y3615D02*
D03*
Y3411D02*
D03*
X2547Y3615D02*
D03*
Y3411D02*
D03*
X2567Y3615D02*
D03*
Y3411D02*
D03*
X2586Y3615D02*
D03*
Y3411D02*
D03*
X2606Y3615D02*
D03*
Y3411D02*
D03*
D114*
X1205Y4450D02*
D03*
X2829Y4456D02*
D03*
D119*
X522Y4994D02*
D03*
Y5059D02*
D03*
X520Y5305D02*
D03*
Y5240D02*
D03*
X2263Y5347D02*
D03*
Y5282D02*
D03*
X3467Y907D02*
D03*
Y842D02*
D03*
X2345Y5103D02*
D03*
Y5168D02*
D03*
X2264Y5105D02*
D03*
Y5170D02*
D03*
X2346Y5343D02*
D03*
Y5278D02*
D03*
X537Y98D02*
D03*
Y163D02*
D03*
X427Y100D02*
D03*
Y165D02*
D03*
X611Y5307D02*
D03*
Y5242D02*
D03*
X609Y4994D02*
D03*
Y5059D02*
D03*
X3386Y905D02*
D03*
Y840D02*
D03*
X3472Y605D02*
D03*
Y670D02*
D03*
X3396Y605D02*
D03*
Y670D02*
D03*
X538Y385D02*
D03*
Y320D02*
D03*
X439Y382D02*
D03*
Y317D02*
D03*
X2609Y1553D02*
D03*
Y1618D02*
D03*
X1138Y1607D02*
D03*
Y1542D02*
D03*
X1052Y558D02*
D03*
Y623D02*
D03*
X987Y624D02*
D03*
Y689D02*
D03*
X1539Y623D02*
D03*
Y688D02*
D03*
X1193Y771D02*
D03*
Y836D02*
D03*
X1129D02*
D03*
Y771D02*
D03*
X1067D02*
D03*
Y836D02*
D03*
X723Y772D02*
D03*
Y837D02*
D03*
X657D02*
D03*
Y772D02*
D03*
X1610Y557D02*
D03*
Y622D02*
D03*
X1546Y771D02*
D03*
Y836D02*
D03*
X1068Y4444D02*
D03*
Y4509D02*
D03*
X1341Y4444D02*
D03*
Y4509D02*
D03*
X2151Y842D02*
D03*
Y777D02*
D03*
X2687Y776D02*
D03*
Y841D02*
D03*
X2217Y777D02*
D03*
Y842D02*
D03*
X2561Y776D02*
D03*
Y841D02*
D03*
X2546Y563D02*
D03*
Y628D02*
D03*
X2481Y629D02*
D03*
Y694D02*
D03*
X3104Y562D02*
D03*
Y627D02*
D03*
X3033Y628D02*
D03*
Y693D02*
D03*
X3040Y776D02*
D03*
Y841D02*
D03*
X2623D02*
D03*
Y776D02*
D03*
X3502Y3625D02*
D03*
Y3560D02*
D03*
X3306Y4290D02*
D03*
Y4225D02*
D03*
X2965Y4515D02*
D03*
Y4450D02*
D03*
X2692Y4515D02*
D03*
Y4450D02*
D03*
D120*
X927Y1177D02*
D03*
X881Y1131D02*
D03*
X928Y4873D02*
D03*
X974Y4919D02*
D03*
X1054Y5010D02*
D03*
X1100Y5056D02*
D03*
X1360Y4618D02*
D03*
X1314Y4572D02*
D03*
X2375Y1136D02*
D03*
X2421Y1182D02*
D03*
X2938Y4578D02*
D03*
X2984Y4624D02*
D03*
X2552Y4879D02*
D03*
X2598Y4925D02*
D03*
X2678Y5016D02*
D03*
X2724Y5062D02*
D03*
D121*
X1329Y1181D02*
D03*
X1375Y1135D02*
D03*
X1087Y4576D02*
D03*
X1041Y4622D02*
D03*
X2869Y1140D02*
D03*
X2823Y1186D02*
D03*
X2665Y4628D02*
D03*
X2710Y4582D02*
D03*
D124*
X3437Y2246D02*
D03*
Y2381D02*
D03*
X3078Y2251D02*
D03*
Y2386D02*
D03*
X3052Y2841D02*
D03*
Y2706D02*
D03*
X3410Y1746D02*
D03*
Y1881D02*
D03*
X4172Y5139D02*
D03*
Y5274D02*
D03*
X4062Y4897D02*
D03*
Y4762D02*
D03*
X3831Y1113D02*
D03*
Y978D02*
D03*
X3740Y4223D02*
D03*
Y4088D02*
D03*
X2093Y2677D02*
D03*
Y2542D02*
D03*
X3824Y172D02*
D03*
Y307D02*
D03*
X3843Y549D02*
D03*
Y684D02*
D03*
D127*
X722Y3506D02*
D03*
D128*
X518D02*
D03*
X722Y3486D02*
D03*
X518D02*
D03*
X722Y3467D02*
D03*
X518D02*
D03*
X722Y3447D02*
D03*
X518D02*
D03*
X722Y3427D02*
D03*
X518D02*
D03*
X722Y3408D02*
D03*
X518D02*
D03*
X722Y3388D02*
D03*
X518D02*
D03*
X722Y3368D02*
D03*
X518D02*
D03*
X722Y3348D02*
D03*
X518D02*
D03*
X722Y3329D02*
D03*
X518D02*
D03*
X722Y3309D02*
D03*
X518D02*
D03*
X722Y3289D02*
D03*
X518D02*
D03*
X722Y3270D02*
D03*
X518D02*
D03*
X722Y3250D02*
D03*
X518D02*
D03*
X722Y3230D02*
D03*
X518D02*
D03*
X722Y3211D02*
D03*
X518D02*
D03*
X722Y3191D02*
D03*
X518D02*
D03*
X722Y3171D02*
D03*
X518D02*
D03*
X722Y3152D02*
D03*
X518D02*
D03*
X722Y3132D02*
D03*
X518D02*
D03*
X722Y3112D02*
D03*
X518D02*
D03*
X722Y3093D02*
D03*
X518D02*
D03*
X722Y3073D02*
D03*
X518D02*
D03*
X722Y3053D02*
D03*
X518D02*
D03*
X722Y3033D02*
D03*
X518D02*
D03*
X722Y3014D02*
D03*
X518D02*
D03*
X722Y2994D02*
D03*
X518D02*
D03*
X722Y2974D02*
D03*
X518D02*
D03*
X722Y2955D02*
D03*
X518D02*
D03*
X722Y2935D02*
D03*
X518D02*
D03*
X722Y2915D02*
D03*
X518D02*
D03*
X722Y2896D02*
D03*
X518D02*
D03*
X722Y2876D02*
D03*
X518D02*
D03*
X722Y2856D02*
D03*
X518D02*
D03*
X722Y2837D02*
D03*
X518D02*
D03*
X722Y2817D02*
D03*
X518D02*
D03*
X722Y2797D02*
D03*
X518D02*
D03*
X722Y2778D02*
D03*
X518D02*
D03*
X722Y2758D02*
D03*
X518D02*
D03*
X722Y2738D02*
D03*
X518D02*
D03*
X722Y2719D02*
D03*
X518D02*
D03*
X722Y2699D02*
D03*
X518D02*
D03*
X722Y2679D02*
D03*
X518D02*
D03*
X722Y2659D02*
D03*
X518D02*
D03*
X722Y2640D02*
D03*
X518D02*
D03*
X722Y2620D02*
D03*
X518D02*
D03*
X722Y2600D02*
D03*
X518D02*
D03*
X722Y2581D02*
D03*
X518D02*
D03*
X722Y2561D02*
D03*
X518D02*
D03*
X722Y2541D02*
D03*
X518D02*
D03*
X722Y2522D02*
D03*
X518D02*
D03*
X722Y2502D02*
D03*
X518D02*
D03*
X722Y2482D02*
D03*
X518D02*
D03*
X722Y2463D02*
D03*
X518D02*
D03*
X722Y2443D02*
D03*
X518D02*
D03*
X722Y2423D02*
D03*
X518D02*
D03*
X722Y2404D02*
D03*
X518D02*
D03*
X722Y2384D02*
D03*
X518D02*
D03*
X722Y2364D02*
D03*
X518D02*
D03*
X722Y2345D02*
D03*
X518D02*
D03*
X722Y2325D02*
D03*
X518D02*
D03*
X722Y2305D02*
D03*
X518D02*
D03*
X722Y2285D02*
D03*
X518D02*
D03*
X722Y2266D02*
D03*
X518D02*
D03*
X722Y2246D02*
D03*
X518D02*
D03*
X722Y2226D02*
D03*
X518D02*
D03*
X722Y2207D02*
D03*
X518D02*
D03*
X722Y2187D02*
D03*
X518D02*
D03*
X722Y2167D02*
D03*
X518D02*
D03*
X722Y2148D02*
D03*
X518D02*
D03*
X722Y2128D02*
D03*
X518D02*
D03*
X722Y2108D02*
D03*
X518D02*
D03*
X722Y2089D02*
D03*
X518D02*
D03*
X722Y2069D02*
D03*
X518D02*
D03*
X722Y2049D02*
D03*
X518D02*
D03*
X722Y2030D02*
D03*
X518D02*
D03*
X722Y2010D02*
D03*
X518D02*
D03*
X722Y1990D02*
D03*
X518D02*
D03*
X722Y1970D02*
D03*
X518D02*
D03*
X722Y1951D02*
D03*
X518D02*
D03*
X722Y1931D02*
D03*
X518D02*
D03*
X722Y1911D02*
D03*
X518D02*
D03*
X722Y1892D02*
D03*
X518D02*
D03*
X722Y1872D02*
D03*
X518D02*
D03*
D129*
X620Y1746D02*
D03*
Y3632D02*
D03*
D130*
X972Y3615D02*
D03*
D131*
X2732Y3513D02*
D03*
X846D02*
D03*
D134*
X411Y5291D02*
D03*
X2147Y5379D02*
D03*
X3273Y896D02*
D03*
X329Y404D02*
D03*
D135*
X411Y5191D02*
D03*
Y5091D02*
D03*
Y4991D02*
D03*
X711Y5291D02*
D03*
Y5191D02*
D03*
Y5091D02*
D03*
Y4991D02*
D03*
X2147Y5279D02*
D03*
Y5179D02*
D03*
Y5079D02*
D03*
X2447Y5379D02*
D03*
Y5279D02*
D03*
Y5179D02*
D03*
Y5079D02*
D03*
X3273Y796D02*
D03*
Y696D02*
D03*
Y596D02*
D03*
X3573Y896D02*
D03*
Y796D02*
D03*
Y696D02*
D03*
Y596D02*
D03*
X329Y304D02*
D03*
Y204D02*
D03*
Y104D02*
D03*
X629Y404D02*
D03*
Y304D02*
D03*
Y204D02*
D03*
Y104D02*
D03*
X208Y4238D02*
D03*
X308D02*
D03*
X208Y4338D02*
D03*
X308D02*
D03*
X208Y4438D02*
D03*
X308D02*
D03*
X208Y4538D02*
D03*
X308D02*
D03*
X208Y4638D02*
D03*
X308D02*
D03*
X208Y4738D02*
D03*
X181Y651D02*
D03*
X281D02*
D03*
X181Y751D02*
D03*
X281D02*
D03*
X181Y851D02*
D03*
X281D02*
D03*
X181Y951D02*
D03*
X281D02*
D03*
X181Y1051D02*
D03*
X281D02*
D03*
X181Y1151D02*
D03*
X281D02*
D03*
X181Y1251D02*
D03*
D136*
X308Y4738D02*
D03*
X281Y1251D02*
D03*
D137*
X1465Y284D02*
D03*
X812Y281D02*
D03*
X2959Y278D02*
D03*
X2309Y290D02*
D03*
X2460Y295D02*
D03*
X3110Y283D02*
D03*
X963Y286D02*
D03*
X1616Y289D02*
D03*
X1977Y5328D02*
D03*
X1794Y5329D02*
D03*
X1226Y5312D02*
D03*
X1038D02*
D03*
X2663Y5321D02*
D03*
X2851D02*
D03*
X3419Y5338D02*
D03*
X3602Y5337D02*
D03*
D138*
X4351Y425D02*
D03*
Y325D02*
D03*
Y225D02*
D03*
X1205Y4450D02*
D03*
X2829Y4456D02*
D03*
D139*
X4351Y525D02*
D03*
D140*
X1128Y1329D02*
D03*
X2622Y1334D02*
D03*
D141*
X150Y5350D02*
D03*
X4600Y150D02*
D03*
X3800Y5350D02*
D03*
X150Y150D02*
D03*
D142*
X620Y3563D02*
D03*
Y1815D02*
D03*
X940Y1862D02*
D03*
X2688D02*
D03*
X915Y3513D02*
D03*
X2663D02*
D03*
X620Y3563D02*
D03*
Y1815D02*
D03*
X915Y3513D02*
D03*
X2663D02*
D03*
D143*
X893Y3220D02*
D03*
X986Y2236D02*
D03*
X3211Y3220D02*
D03*
X2739Y2157D02*
D03*
D144*
X4468Y1889D02*
D03*
Y2389D02*
D03*
X4469Y2665D02*
D03*
Y3165D02*
D03*
D145*
X1314Y1342D02*
D03*
X1330Y1317D02*
D03*
X1661Y3366D02*
D03*
X1641Y3493D02*
D03*
X1602Y3490D02*
D03*
X1580Y3367D02*
D03*
X1549Y2018D02*
D03*
X1578Y2041D02*
D03*
X2350Y3686D02*
D03*
X2332Y3647D02*
D03*
X2391Y3343D02*
D03*
X2777Y4192D02*
D03*
X2354Y3351D02*
D03*
X2781Y4221D02*
D03*
X2330Y3314D02*
D03*
X1706Y1880D02*
D03*
X1746Y1709D02*
D03*
X1315Y2042D02*
D03*
X1288Y2030D02*
D03*
X1352Y2067D02*
D03*
X1391Y1703D02*
D03*
X1931Y2149D02*
D03*
X1435Y4518D02*
D03*
X1661Y4537D02*
D03*
X3110Y4075D02*
D03*
X3057Y4521D02*
D03*
X1459Y4534D02*
D03*
X1924Y2109D02*
D03*
X1613Y4555D02*
D03*
X3085Y4539D02*
D03*
X1712Y4515D02*
D03*
X1902Y2000D02*
D03*
X1435Y4554D02*
D03*
X3091Y4053D02*
D03*
X3061Y4561D02*
D03*
X1663Y1725D02*
D03*
X993Y3367D02*
D03*
X1011Y3491D02*
D03*
X1326D02*
D03*
X1366D02*
D03*
X1248D02*
D03*
X1287D02*
D03*
X1182Y3488D02*
D03*
X1208Y3491D02*
D03*
X1090D02*
D03*
X1116Y3495D02*
D03*
X1346Y3537D02*
D03*
X1386D02*
D03*
X1267D02*
D03*
X1307D02*
D03*
X1203D02*
D03*
X1228D02*
D03*
X1099Y3535D02*
D03*
X1182Y3517D02*
D03*
X1051Y3661D02*
D03*
X1071Y3537D02*
D03*
X992D02*
D03*
X1011Y3661D02*
D03*
X2158Y1718D02*
D03*
X2177Y1838D02*
D03*
X2139D02*
D03*
X2198Y1718D02*
D03*
X1523Y3491D02*
D03*
X1544Y3367D02*
D03*
X1465D02*
D03*
X1484Y3491D02*
D03*
X1405D02*
D03*
X1426Y3367D02*
D03*
X1602Y3661D02*
D03*
X1622Y3537D02*
D03*
X1543D02*
D03*
X1563Y3661D02*
D03*
X1484D02*
D03*
X1504Y3537D02*
D03*
X1425D02*
D03*
X1445Y3661D02*
D03*
X1032Y3367D02*
D03*
X1051Y3491D02*
D03*
X2100Y1838D02*
D03*
X2079Y1718D02*
D03*
X2118D02*
D03*
X2416Y2005D02*
D03*
X3861Y3037D02*
D03*
X2395Y2025D02*
D03*
X3862Y3088D02*
D03*
X2476Y2001D02*
D03*
X3859Y2936D02*
D03*
X2453Y2015D02*
D03*
X3852Y2994D02*
D03*
X2533Y2005D02*
D03*
X3855Y2838D02*
D03*
X2511Y2022D02*
D03*
X3855Y2897D02*
D03*
X2591Y2001D02*
D03*
X3850Y2737D02*
D03*
X2575Y2024D02*
D03*
X3858Y2791D02*
D03*
X2433Y1707D02*
D03*
X3835Y1963D02*
D03*
X2415Y1725D02*
D03*
X3841Y2013D02*
D03*
X2493Y1703D02*
D03*
X3836Y2053D02*
D03*
X2471Y1727D02*
D03*
X3838Y2117D02*
D03*
X2555Y1706D02*
D03*
X3836Y2170D02*
D03*
X2529Y1723D02*
D03*
X3831Y2211D02*
D03*
X2617Y1705D02*
D03*
X3794Y2285D02*
D03*
X2588Y1725D02*
D03*
X3843Y2310D02*
D03*
X2074Y3661D02*
D03*
X807Y4009D02*
D03*
X2193Y3965D02*
D03*
X2073Y3536D02*
D03*
X789Y4027D02*
D03*
X2224Y3942D02*
D03*
X1859Y3367D02*
D03*
X1155Y4216D02*
D03*
X1878Y3491D02*
D03*
X1180Y4202D02*
D03*
X1836Y3711D02*
D03*
X1878Y3536D02*
D03*
X953Y4457D02*
D03*
X1656Y2008D02*
D03*
X974Y4438D02*
D03*
X1699Y2033D02*
D03*
X949Y4421D02*
D03*
X1723Y2054D02*
D03*
X975Y4399D02*
D03*
X1755Y2070D02*
D03*
X955Y4380D02*
D03*
X1701Y3367D02*
D03*
X975Y4357D02*
D03*
X1720Y3491D02*
D03*
X1661Y3537D02*
D03*
X1681Y3661D02*
D03*
X961Y4309D02*
D03*
X1759Y3491D02*
D03*
X935Y4295D02*
D03*
X1780Y3367D02*
D03*
X1720Y3661D02*
D03*
X1755Y3536D02*
D03*
X1820Y3367D02*
D03*
X1079Y4216D02*
D03*
X1838Y3491D02*
D03*
X1101Y4202D02*
D03*
X1779Y3537D02*
D03*
X1799Y3661D02*
D03*
X1299Y4194D02*
D03*
X1917Y3491D02*
D03*
X1299Y4218D02*
D03*
X1938Y3367D02*
D03*
X1878Y3661D02*
D03*
X1911Y3536D02*
D03*
X1956Y3491D02*
D03*
X1351Y4218D02*
D03*
X1977Y3367D02*
D03*
X1379Y4205D02*
D03*
X1937Y3537D02*
D03*
X1956Y3661D02*
D03*
X1456Y4319D02*
D03*
X2016Y3367D02*
D03*
X1435Y4338D02*
D03*
X2035Y3491D02*
D03*
X1962Y3536D02*
D03*
X1996Y3696D02*
D03*
X2056Y3367D02*
D03*
X1456Y4421D02*
D03*
X2074Y3491D02*
D03*
X1432Y4420D02*
D03*
X2035Y3661D02*
D03*
X2042Y3536D02*
D03*
X1962Y2002D02*
D03*
X3061Y4600D02*
D03*
X2370Y3537D02*
D03*
X2174Y3367D02*
D03*
X2587Y4386D02*
D03*
X2193Y3491D02*
D03*
X2547Y4367D02*
D03*
X2159Y3536D02*
D03*
X2193Y3661D02*
D03*
X2232Y3491D02*
D03*
X2590Y4306D02*
D03*
X2253Y3367D02*
D03*
X2574Y4287D02*
D03*
X2232Y3661D02*
D03*
X2252Y3537D02*
D03*
X2271Y3491D02*
D03*
X2702Y4215D02*
D03*
X2292Y3367D02*
D03*
X2724Y4194D02*
D03*
X2279Y3540D02*
D03*
X2311Y3661D02*
D03*
X2389Y3491D02*
D03*
X2895Y4218D02*
D03*
X2410Y3367D02*
D03*
X2919Y4198D02*
D03*
X2406Y3538D02*
D03*
X2429Y3661D02*
D03*
X2450Y3367D02*
D03*
X2979Y4200D02*
D03*
X2468Y3491D02*
D03*
X3003Y4220D02*
D03*
X2468Y3661D02*
D03*
X2496Y3538D02*
D03*
X2508Y3491D02*
D03*
X3065Y4325D02*
D03*
X2528Y3367D02*
D03*
X3089Y4349D02*
D03*
X2527Y3536D02*
D03*
X2547Y3661D02*
D03*
X2568Y3367D02*
D03*
X3071Y4401D02*
D03*
X2586Y3491D02*
D03*
X3066Y4426D02*
D03*
X2581Y3536D02*
D03*
X2592Y3660D02*
D03*
X1939Y2018D02*
D03*
X3086Y4582D02*
D03*
X1160Y3987D02*
D03*
X1442Y4591D02*
D03*
X1871Y2063D02*
D03*
X1125Y3986D02*
D03*
X1847Y2024D02*
D03*
X1457Y4572D02*
D03*
X1072Y3367D02*
D03*
X1229D02*
D03*
X972Y3491D02*
D03*
X1268Y3367D02*
D03*
X1308D02*
D03*
X1347D02*
D03*
X1387D02*
D03*
X972Y3661D02*
D03*
X1090D02*
D03*
X1208D02*
D03*
X1248D02*
D03*
X1287D02*
D03*
X1326D02*
D03*
X1366D02*
D03*
X1445Y3491D02*
D03*
X1563D02*
D03*
X1681D02*
D03*
X1799D02*
D03*
X1996D02*
D03*
X2153D02*
D03*
X2311D02*
D03*
X2369Y3511D02*
D03*
X1405Y3661D02*
D03*
X1523D02*
D03*
X1627Y3662D02*
D03*
X1759Y3661D02*
D03*
X1917D02*
D03*
X2111Y3705D02*
D03*
X2273Y3716D02*
D03*
X2429Y3491D02*
D03*
X2547D02*
D03*
X1076Y2000D02*
D03*
X1415Y1372D02*
D03*
X2114Y3491D02*
D03*
X2574Y4464D02*
D03*
X2135Y3367D02*
D03*
X2593Y4443D02*
D03*
X2134Y3537D02*
D03*
X2153Y3661D02*
D03*
X633Y3340D02*
D03*
X624Y3315D02*
D03*
X630Y3272D02*
D03*
X628Y3184D02*
D03*
X631Y3147D02*
D03*
X638Y3119D02*
D03*
X604Y3357D02*
D03*
X601Y3331D02*
D03*
X609Y3287D02*
D03*
X608Y3260D02*
D03*
X612Y3162D02*
D03*
X608Y3124D02*
D03*
X613Y3094D02*
D03*
X1386Y2049D02*
D03*
X1366Y2027D02*
D03*
X1451Y2041D02*
D03*
X1428Y2021D02*
D03*
X1516Y2040D02*
D03*
X1487Y2023D02*
D03*
X848Y2972D02*
D03*
X824Y3002D02*
D03*
X1505Y3367D02*
D03*
X1898D02*
D03*
X1623D02*
D03*
X2213D02*
D03*
X1031Y3537D02*
D03*
X1582D02*
D03*
X1464D02*
D03*
X1805D02*
D03*
X1991Y3535D02*
D03*
X2345Y3537D02*
D03*
X2606Y3537D02*
D03*
X1528Y1836D02*
D03*
X1561Y1846D02*
D03*
D146*
X888Y1718D02*
D03*
X934D02*
D03*
X2302Y5079D02*
D03*
X2298Y5377D02*
D03*
X485Y410D02*
D03*
X464Y70D02*
D03*
X3428Y941D02*
D03*
Y566D02*
D03*
X569Y4989D02*
D03*
X564Y5309D02*
D03*
X1318Y1117D02*
D03*
X779Y1366D02*
D03*
X1637Y2617D02*
D03*
X1315Y561D02*
D03*
X1321Y596D02*
D03*
X729Y558D02*
D03*
X753Y591D02*
D03*
X1104Y844D02*
D03*
X632Y838D02*
D03*
X1256Y873D02*
D03*
X1288Y707D02*
D03*
X1494Y857D02*
D03*
X1486Y717D02*
D03*
X760Y868D02*
D03*
X769Y733D02*
D03*
X760Y791D02*
D03*
X1030Y850D02*
D03*
X1015Y736D02*
D03*
X3170Y91D02*
D03*
X3154Y159D02*
D03*
X3087Y90D02*
D03*
X3064Y159D02*
D03*
X2999Y92D02*
D03*
X2973Y159D02*
D03*
X2919Y88D02*
D03*
X2888Y159D02*
D03*
X2958Y418D02*
D03*
X2484Y98D02*
D03*
X2457Y162D02*
D03*
X2395Y96D02*
D03*
X2371Y161D02*
D03*
X2317Y103D02*
D03*
X2297Y160D02*
D03*
X2243Y97D02*
D03*
X2224Y162D02*
D03*
X2306Y418D02*
D03*
X2799Y1210D02*
D03*
X946Y1208D02*
D03*
X1310Y1213D02*
D03*
X480Y1991D02*
D03*
X596Y551D02*
D03*
X638Y919D02*
D03*
X639Y1129D02*
D03*
X594Y2049D02*
D03*
X642Y1871D02*
D03*
Y2028D02*
D03*
X594Y2206D02*
D03*
Y2401D02*
D03*
X690Y374D02*
D03*
X714Y729D02*
D03*
X739Y487D02*
D03*
X480Y2856D02*
D03*
Y2974D02*
D03*
Y3093D02*
D03*
X594Y2600D02*
D03*
Y2797D02*
D03*
X642Y2896D02*
D03*
X594Y2914D02*
D03*
X642Y3012D02*
D03*
X594Y3033D02*
D03*
X799Y921D02*
D03*
X846Y1111D02*
D03*
X1014Y499D02*
D03*
X1024Y813D02*
D03*
X1054Y933D02*
D03*
X1174Y512D02*
D03*
X1159Y706D02*
D03*
X1316Y493D02*
D03*
X1347Y382D02*
D03*
X1193Y930D02*
D03*
X766Y2676D02*
D03*
Y2283D02*
D03*
Y2483D02*
D03*
Y3070D02*
D03*
Y2841D02*
D03*
Y2953D02*
D03*
Y2089D02*
D03*
X1148Y1865D02*
D03*
X1271Y1867D02*
D03*
X480Y3289D02*
D03*
X766Y3268D02*
D03*
X480Y3328D02*
D03*
X1905Y2282D02*
D03*
X480Y3368D02*
D03*
Y3405D02*
D03*
X1677Y2343D02*
D03*
X2028Y2499D02*
D03*
X1598Y2723D02*
D03*
X594Y3508D02*
D03*
X766Y3314D02*
D03*
Y3351D02*
D03*
Y3384D02*
D03*
Y3505D02*
D03*
X1589Y500D02*
D03*
X1778Y577D02*
D03*
X1495Y815D02*
D03*
X1777Y635D02*
D03*
Y686D02*
D03*
X1775Y743D02*
D03*
X1799Y243D02*
D03*
X1899Y158D02*
D03*
X1852Y200D02*
D03*
X1779Y296D02*
D03*
X1854D02*
D03*
X1849Y352D02*
D03*
X1947Y115D02*
D03*
X2101Y98D02*
D03*
X2019Y100D02*
D03*
X1950Y207D02*
D03*
X1900Y252D02*
D03*
X2059Y164D02*
D03*
X1991Y166D02*
D03*
X1780Y356D02*
D03*
X1782Y409D02*
D03*
X1781Y463D02*
D03*
X1780Y524D02*
D03*
X1847Y739D02*
D03*
X1780Y798D02*
D03*
X1850Y521D02*
D03*
X1851Y408D02*
D03*
X1858Y460D02*
D03*
X1850Y634D02*
D03*
X1847Y683D02*
D03*
X1853Y577D02*
D03*
X1854Y799D02*
D03*
X1402Y1112D02*
D03*
X1445Y921D02*
D03*
X1555Y1474D02*
D03*
X1559Y1415D02*
D03*
X1632Y1528D02*
D03*
X1558Y1529D02*
D03*
Y1584D02*
D03*
X1632Y1641D02*
D03*
X1555Y1699D02*
D03*
X1558Y1642D02*
D03*
X1774Y1021D02*
D03*
X1781Y913D02*
D03*
X1775Y970D02*
D03*
X1671Y1132D02*
D03*
X1738Y1058D02*
D03*
X1707Y1095D02*
D03*
X1781Y860D02*
D03*
X1848Y859D02*
D03*
X1844Y911D02*
D03*
X1825Y1072D02*
D03*
X1794Y1104D02*
D03*
X1847Y965D02*
D03*
Y1017D02*
D03*
X1636Y1165D02*
D03*
X1696Y1198D02*
D03*
X1643Y1415D02*
D03*
X1632Y1583D02*
D03*
X1633Y1473D02*
D03*
X1635Y1698D02*
D03*
X1758Y1136D02*
D03*
X1725Y1170D02*
D03*
X2140Y165D02*
D03*
X2180Y96D02*
D03*
X1626Y1849D02*
D03*
X1444Y1857D02*
D03*
X2370Y1860D02*
D03*
X2155Y1867D02*
D03*
X2552Y163D02*
D03*
X2590Y93D02*
D03*
X2641Y162D02*
D03*
X2685Y91D02*
D03*
X2771D02*
D03*
X2733Y160D02*
D03*
X2813D02*
D03*
X2840Y91D02*
D03*
X2583Y923D02*
D03*
X2658D02*
D03*
X3237Y159D02*
D03*
X3265Y83D02*
D03*
X3345Y92D02*
D03*
X3322Y160D02*
D03*
X3401D02*
D03*
X3418Y93D02*
D03*
X3504Y95D02*
D03*
X3469Y162D02*
D03*
X3513Y200D02*
D03*
X3573Y254D02*
D03*
X3560Y144D02*
D03*
X3615Y198D02*
D03*
X3630Y318D02*
D03*
X3641Y373D02*
D03*
X3642Y441D02*
D03*
X3639Y566D02*
D03*
X3643Y502D02*
D03*
X3641Y633D02*
D03*
X3711Y355D02*
D03*
X3682Y265D02*
D03*
X3714Y567D02*
D03*
X3713Y637D02*
D03*
X3719Y442D02*
D03*
X3714Y507D02*
D03*
X3712Y702D02*
D03*
X3644Y705D02*
D03*
X3642Y761D02*
D03*
Y822D02*
D03*
Y882D02*
D03*
X3586Y946D02*
D03*
X3525Y1004D02*
D03*
X3712Y759D02*
D03*
Y821D02*
D03*
X3714Y879D02*
D03*
X3679Y959D02*
D03*
X2580Y1867D02*
D03*
X2879Y1091D02*
D03*
X3464Y1054D02*
D03*
X3622Y1021D02*
D03*
X3578Y1057D02*
D03*
X3419Y1101D02*
D03*
X3531Y1111D02*
D03*
X3290Y1235D02*
D03*
X3250Y1271D02*
D03*
X3220Y1306D02*
D03*
X3330Y1188D02*
D03*
X3368Y1143D02*
D03*
X3477Y1160D02*
D03*
X3358Y1290D02*
D03*
X3320Y1319D02*
D03*
X3431Y1206D02*
D03*
X3395Y1251D02*
D03*
X3171Y1329D02*
D03*
X3274Y1357D02*
D03*
X3236Y1392D02*
D03*
X3178Y1396D02*
D03*
X3086Y1397D02*
D03*
X3130Y1398D02*
D03*
X3138Y2927D02*
D03*
X3506Y2992D02*
D03*
X717Y1060D02*
D03*
X759Y826D02*
D03*
X1230Y822D02*
D03*
X1065Y457D02*
D03*
X1629Y469D02*
D03*
X696Y473D02*
D03*
X925Y594D02*
D03*
X1476Y603D02*
D03*
X1261Y507D02*
D03*
X1148Y1498D02*
D03*
X2090Y2728D02*
D03*
X642Y3489D02*
D03*
X766Y3464D02*
D03*
X640Y3448D02*
D03*
X766Y3426D02*
D03*
X642Y3411D02*
D03*
Y3367D02*
D03*
Y3091D02*
D03*
Y3053D02*
D03*
X766Y3030D02*
D03*
Y2997D02*
D03*
X642Y2977D02*
D03*
Y2935D02*
D03*
X766Y2915D02*
D03*
Y2874D02*
D03*
X642Y2856D02*
D03*
Y2817D02*
D03*
X766Y2798D02*
D03*
X642Y2775D02*
D03*
X766Y2759D02*
D03*
X642Y2736D02*
D03*
X766Y2720D02*
D03*
X642Y2696D02*
D03*
Y2659D02*
D03*
X766Y2639D02*
D03*
X642Y2614D02*
D03*
X766Y2598D02*
D03*
X642Y2582D02*
D03*
X766Y2560D02*
D03*
X642Y2540D02*
D03*
X766Y2522D02*
D03*
X642Y2498D02*
D03*
Y2459D02*
D03*
X766Y2443D02*
D03*
X642Y2425D02*
D03*
X766Y2406D02*
D03*
X642Y2384D02*
D03*
X766Y2366D02*
D03*
X642Y2345D02*
D03*
X766Y2325D02*
D03*
X642Y2304D02*
D03*
Y2266D02*
D03*
X766Y2248D02*
D03*
X642Y2225D02*
D03*
X766Y2207D02*
D03*
X642Y2187D02*
D03*
X766Y2166D02*
D03*
X642Y2150D02*
D03*
X766Y2126D02*
D03*
X642Y2105D02*
D03*
Y2069D02*
D03*
X766Y2049D02*
D03*
Y2007D02*
D03*
X642Y1987D02*
D03*
X766Y1967D02*
D03*
X642Y1950D02*
D03*
X766Y1930D02*
D03*
X642Y1911D02*
D03*
X766Y1892D02*
D03*
X479Y3486D02*
D03*
X594Y3466D02*
D03*
X480Y3446D02*
D03*
X594Y3427D02*
D03*
Y3387D02*
D03*
Y3072D02*
D03*
X480Y3053D02*
D03*
Y3014D02*
D03*
X594Y2993D02*
D03*
Y2954D02*
D03*
X480Y2935D02*
D03*
Y2897D02*
D03*
X594Y2876D02*
D03*
X595Y2837D02*
D03*
X480Y2817D02*
D03*
Y2777D02*
D03*
X594Y2757D02*
D03*
X480Y2739D02*
D03*
X594Y2718D02*
D03*
X480Y2698D02*
D03*
X594Y2678D02*
D03*
X480Y2659D02*
D03*
X594Y2639D02*
D03*
X480Y2621D02*
D03*
Y2581D02*
D03*
X594Y2561D02*
D03*
X480Y2543D02*
D03*
X594Y2521D02*
D03*
X480Y2502D02*
D03*
X594Y2482D02*
D03*
X480Y2463D02*
D03*
X594Y2439D02*
D03*
X480Y2421D02*
D03*
Y2382D02*
D03*
X594Y2362D02*
D03*
X480Y2344D02*
D03*
X594Y2324D02*
D03*
X480Y2304D02*
D03*
X594Y2285D02*
D03*
X480Y2263D02*
D03*
X594Y2248D02*
D03*
X480Y2225D02*
D03*
X481Y2187D02*
D03*
X594Y2166D02*
D03*
X480Y2146D02*
D03*
X594Y2128D02*
D03*
X480Y2110D02*
D03*
X594Y2088D02*
D03*
X480Y2069D02*
D03*
Y2031D02*
D03*
X594Y2009D02*
D03*
Y1968D02*
D03*
X481Y1950D02*
D03*
X594Y1930D02*
D03*
X480Y1911D02*
D03*
X594Y1893D02*
D03*
X480Y1870D02*
D03*
X2110Y4311D02*
D03*
X1898Y1863D02*
D03*
D147*
X3320Y3771D02*
D03*
X2056Y3308D02*
D03*
X3050Y2644D02*
D03*
X3555Y2635D02*
D03*
X3203Y3130D02*
D03*
X2972Y2847D02*
D03*
X3580Y2809D02*
D03*
D148*
X1648Y2443D02*
D03*
D149*
X1643Y2519D02*
D03*
D150*
X892Y804D02*
D03*
X1363D02*
D03*
X2857Y809D02*
D03*
X2386D02*
D03*
D151*
X786Y561D02*
D03*
X973D02*
D03*
Y541D02*
D03*
Y482D02*
D03*
X973Y521D02*
D03*
X786Y521D02*
D03*
Y502D02*
D03*
Y541D02*
D03*
X973Y502D02*
D03*
X1358Y561D02*
D03*
X1545D02*
D03*
Y541D02*
D03*
Y482D02*
D03*
X1545Y521D02*
D03*
X1358Y521D02*
D03*
Y502D02*
D03*
Y541D02*
D03*
X1545Y502D02*
D03*
X3039Y507D02*
D03*
X2852Y546D02*
D03*
Y507D02*
D03*
Y526D02*
D03*
X3039D02*
D03*
Y487D02*
D03*
Y546D02*
D03*
Y566D02*
D03*
X2852D02*
D03*
X2280D02*
D03*
X2467D02*
D03*
Y546D02*
D03*
Y487D02*
D03*
Y526D02*
D03*
X2280D02*
D03*
Y507D02*
D03*
Y546D02*
D03*
X2467Y507D02*
D03*
D152*
X786Y482D02*
D03*
X1358D02*
D03*
X2852Y487D02*
D03*
X2280D02*
D03*
D153*
X1447Y842D02*
D03*
X1277D02*
D03*
X1447Y816D02*
D03*
Y791D02*
D03*
Y765D02*
D03*
X1277Y816D02*
D03*
Y791D02*
D03*
X976Y842D02*
D03*
X806D02*
D03*
X976Y816D02*
D03*
Y791D02*
D03*
Y765D02*
D03*
X806Y816D02*
D03*
Y791D02*
D03*
X2771Y796D02*
D03*
Y821D02*
D03*
X2941Y770D02*
D03*
Y796D02*
D03*
Y821D02*
D03*
X2771Y847D02*
D03*
X2941D02*
D03*
X2300Y796D02*
D03*
Y821D02*
D03*
X2470Y770D02*
D03*
Y796D02*
D03*
Y821D02*
D03*
X2300Y847D02*
D03*
X2470D02*
D03*
X3342Y2296D02*
D03*
X3172D02*
D03*
X3342Y2270D02*
D03*
Y2245D02*
D03*
Y2219D02*
D03*
X3172Y2270D02*
D03*
Y2245D02*
D03*
X4039Y1568D02*
D03*
X3869D02*
D03*
X4039Y1542D02*
D03*
Y1517D02*
D03*
Y1491D02*
D03*
X3869Y1542D02*
D03*
Y1517D02*
D03*
X3317Y2901D02*
D03*
X3147D02*
D03*
X3317Y2875D02*
D03*
Y2850D02*
D03*
Y2824D02*
D03*
X3147Y2875D02*
D03*
Y2850D02*
D03*
X4001Y4294D02*
D03*
X3831D02*
D03*
X4001Y4268D02*
D03*
Y4243D02*
D03*
Y4217D02*
D03*
X3831Y4268D02*
D03*
Y4243D02*
D03*
X1828Y2525D02*
D03*
X1998D02*
D03*
X1828Y2551D02*
D03*
Y2576D02*
D03*
Y2602D02*
D03*
X1998Y2551D02*
D03*
Y2576D02*
D03*
D154*
X1277Y765D02*
D03*
X806D02*
D03*
X2771Y770D02*
D03*
X2300D02*
D03*
X3172Y2219D02*
D03*
X3869Y1491D02*
D03*
X3147Y2824D02*
D03*
X3831Y4217D02*
D03*
X1998Y2602D02*
D03*
D155*
X1484Y4795D02*
D03*
X1380Y4955D02*
D03*
X1352Y4927D02*
D03*
X1366Y4941D02*
D03*
X1498Y4809D02*
D03*
X1470Y4781D02*
D03*
X1512Y4823D02*
D03*
X1526Y4837D02*
D03*
X1394Y4969D02*
D03*
X3018Y4975D02*
D03*
X3150Y4843D02*
D03*
X3136Y4829D02*
D03*
X3094Y4787D02*
D03*
X3122Y4815D02*
D03*
X2990Y4947D02*
D03*
X2976Y4933D02*
D03*
X3004Y4961D02*
D03*
X3108Y4801D02*
D03*
D156*
X1338Y4913D02*
D03*
X2962Y4919D02*
D03*
D157*
X4317Y1633D02*
D03*
Y1498D02*
D03*
X4156D02*
D03*
Y1633D02*
D03*
X4125Y979D02*
D03*
Y1114D02*
D03*
X3968Y1113D02*
D03*
Y978D02*
D03*
X4365Y4762D02*
D03*
Y4897D02*
D03*
X4205D02*
D03*
Y4762D02*
D03*
X4469Y5137D02*
D03*
Y5272D02*
D03*
X4311Y5273D02*
D03*
Y5138D02*
D03*
X3708Y1879D02*
D03*
Y1744D02*
D03*
X3546Y1746D02*
D03*
Y1881D02*
D03*
X4116Y171D02*
D03*
Y306D02*
D03*
X4138Y682D02*
D03*
Y547D02*
D03*
X3980Y548D02*
D03*
Y683D02*
D03*
X3958Y306D02*
D03*
Y171D02*
D03*
D158*
X3661Y2247D02*
D03*
Y2337D02*
D03*
X3550D02*
D03*
Y2247D02*
D03*
X4211Y4252D02*
D03*
Y4342D02*
D03*
X4100Y4339D02*
D03*
Y4249D02*
D03*
X3518Y2813D02*
D03*
Y2903D02*
D03*
X3413D02*
D03*
Y2813D02*
D03*
X1640Y2558D02*
D03*
Y2468D02*
D03*
X1743D02*
D03*
Y2558D02*
D03*
D159*
X3751Y1602D02*
D03*
X3616D02*
D03*
X4141Y1380D02*
D03*
X4276D02*
D03*
X4105Y4130D02*
D03*
X4240D02*
D03*
X3418Y2698D02*
D03*
X3553D02*
D03*
X3322Y3720D02*
D03*
X3457D02*
D03*
X3486Y4385D02*
D03*
X3351D02*
D03*
X1783Y2722D02*
D03*
X1648D02*
D03*
X2963Y2454D02*
D03*
X2828D02*
D03*
D160*
X3322Y3505D02*
D03*
X3412D02*
D03*
Y3610D02*
D03*
X3322D02*
D03*
X3486Y4170D02*
D03*
X3396D02*
D03*
Y4275D02*
D03*
X3486D02*
D03*
X2962Y2240D02*
D03*
X2872D02*
D03*
Y2345D02*
D03*
X2962D02*
D03*
M02*
