G04 Layer_Color=2752767*
%FSLAX23Y23*%
%MOIN*%
G70*
G01*
G75*
%ADD40C,0.008*%
%ADD161C,0.002*%
%ADD162C,0.003*%
%ADD163C,0.001*%
D40*
X4000Y-0D02*
Y5500D01*
X1193D02*
X4000D01*
X0Y1681D02*
Y3650D01*
X753Y-0D02*
X4000D01*
X0D02*
Y1681D01*
Y-0D02*
X753D01*
X0Y5500D02*
X1193D01*
X0Y3650D02*
Y5500D01*
D161*
X403Y5283D02*
Y5299D01*
X419D01*
Y5283D01*
X403D01*
Y5183D02*
Y5199D01*
X419D01*
Y5183D01*
X403D01*
Y5083D02*
Y5099D01*
X419D01*
Y5083D01*
X403D01*
Y4983D02*
Y4999D01*
X419D01*
Y4983D01*
X403D01*
X703Y5283D02*
Y5299D01*
X719D01*
Y5283D01*
X703D01*
Y5183D02*
Y5199D01*
X719D01*
Y5183D01*
X703D01*
Y5083D02*
Y5099D01*
X719D01*
Y5083D01*
X703D01*
Y4983D02*
Y4999D01*
X719D01*
Y4983D01*
X703D01*
X2139Y5371D02*
Y5387D01*
X2155D01*
Y5371D01*
X2139D01*
Y5271D02*
Y5287D01*
X2155D01*
Y5271D01*
X2139D01*
Y5171D02*
Y5187D01*
X2155D01*
Y5171D01*
X2139D01*
Y5071D02*
Y5087D01*
X2155D01*
Y5071D01*
X2139D01*
X2439Y5371D02*
Y5387D01*
X2455D01*
Y5371D01*
X2439D01*
Y5271D02*
Y5287D01*
X2455D01*
Y5271D01*
X2439D01*
Y5171D02*
Y5187D01*
X2455D01*
Y5171D01*
X2439D01*
Y5071D02*
Y5087D01*
X2455D01*
Y5071D01*
X2439D01*
X3265Y888D02*
Y904D01*
X3281D01*
Y888D01*
X3265D01*
Y788D02*
Y804D01*
X3281D01*
Y788D01*
X3265D01*
Y688D02*
Y704D01*
X3281D01*
Y688D01*
X3265D01*
Y588D02*
Y604D01*
X3281D01*
Y588D01*
X3265D01*
X3565Y888D02*
Y904D01*
X3581D01*
Y888D01*
X3565D01*
Y788D02*
Y804D01*
X3581D01*
Y788D01*
X3565D01*
Y688D02*
Y704D01*
X3581D01*
Y688D01*
X3565D01*
Y588D02*
Y604D01*
X3581D01*
Y588D01*
X3565D01*
X321Y396D02*
Y412D01*
X337D01*
Y396D01*
X321D01*
Y296D02*
Y312D01*
X337D01*
Y296D01*
X321D01*
Y196D02*
Y212D01*
X337D01*
Y196D01*
X321D01*
Y96D02*
Y112D01*
X337D01*
Y96D01*
X321D01*
X621Y396D02*
Y412D01*
X637D01*
Y396D01*
X621D01*
Y296D02*
Y312D01*
X637D01*
Y296D01*
X621D01*
Y196D02*
Y212D01*
X637D01*
Y196D01*
X621D01*
Y96D02*
Y112D01*
X637D01*
Y96D01*
X621D01*
X200Y4230D02*
Y4246D01*
X216D01*
Y4230D01*
X200D01*
X300D02*
Y4246D01*
X316D01*
Y4230D01*
X300D01*
X200Y4330D02*
Y4346D01*
X216D01*
Y4330D01*
X200D01*
X300D02*
Y4346D01*
X316D01*
Y4330D01*
X300D01*
X200Y4430D02*
Y4446D01*
X216D01*
Y4430D01*
X200D01*
X300D02*
Y4446D01*
X316D01*
Y4430D01*
X300D01*
X200Y4530D02*
Y4546D01*
X216D01*
Y4530D01*
X200D01*
X300D02*
Y4546D01*
X316D01*
Y4530D01*
X300D01*
X200Y4630D02*
Y4646D01*
X216D01*
Y4630D01*
X200D01*
X300D02*
Y4646D01*
X316D01*
Y4630D01*
X300D01*
X200Y4730D02*
Y4746D01*
X216D01*
Y4730D01*
X200D01*
X300D02*
Y4746D01*
X316D01*
Y4730D01*
X300D01*
X4351Y417D02*
X4343Y433D01*
X4359D01*
X4351Y417D01*
Y517D02*
X4343Y533D01*
X4359D01*
X4351Y517D01*
Y317D02*
X4343Y333D01*
X4359D01*
X4351Y317D01*
Y217D02*
X4343Y233D01*
X4359D01*
X4351Y217D01*
X1128Y1321D02*
X1132Y1325D01*
X1136D01*
X1132Y1329D01*
X1136Y1333D01*
X1132D01*
X1128Y1337D01*
X1124Y1333D01*
X1120D01*
X1124Y1329D01*
X1120Y1325D01*
X1124D01*
X1128Y1321D01*
X142Y5342D02*
X146Y5350D01*
X142Y5358D01*
X150Y5354D01*
X158Y5358D01*
X154Y5350D01*
X158Y5342D01*
X150Y5346D01*
X142Y5342D01*
X4592Y142D02*
X4596Y150D01*
X4592Y158D01*
X4600Y154D01*
X4608Y158D01*
X4604Y150D01*
X4608Y142D01*
X4600Y146D01*
X4592Y142D01*
X2622Y1326D02*
X2626Y1330D01*
X2630D01*
X2626Y1334D01*
X2630Y1338D01*
X2626D01*
X2622Y1342D01*
X2618Y1338D01*
X2614D01*
X2618Y1334D01*
X2614Y1330D01*
X2618D01*
X2622Y1326D01*
X616Y3559D02*
Y3555D01*
X624D01*
Y3559D01*
X628D01*
Y3567D01*
X624D01*
Y3571D01*
X616D01*
Y3567D01*
X612D01*
Y3559D01*
X616D01*
X612Y1807D02*
X616D01*
X620Y1811D01*
X624Y1807D01*
X628D01*
Y1811D01*
X624Y1815D01*
X628Y1819D01*
Y1823D01*
X624D01*
X620Y1819D01*
X616Y1823D01*
X612D01*
Y1819D01*
X616Y1815D01*
X612Y1811D01*
Y1807D01*
X936Y1858D02*
Y1854D01*
X944D01*
Y1858D01*
X948D01*
Y1866D01*
X944D01*
Y1870D01*
X936D01*
Y1866D01*
X932D01*
Y1858D01*
X936D01*
X2680Y1854D02*
X2684D01*
X2688Y1858D01*
X2692Y1854D01*
X2696D01*
Y1858D01*
X2692Y1862D01*
X2696Y1866D01*
Y1870D01*
X2692D01*
X2688Y1866D01*
X2684Y1870D01*
X2680D01*
Y1866D01*
X2684Y1862D01*
X2680Y1858D01*
Y1854D01*
X911Y3509D02*
Y3505D01*
X919D01*
Y3509D01*
X923D01*
Y3517D01*
X919D01*
Y3521D01*
X911D01*
Y3517D01*
X907D01*
Y3509D01*
X911D01*
X2655Y3505D02*
X2659D01*
X2663Y3509D01*
X2667Y3505D01*
X2671D01*
Y3509D01*
X2667Y3513D01*
X2671Y3517D01*
Y3521D01*
X2667D01*
X2663Y3517D01*
X2659Y3521D01*
X2655D01*
Y3517D01*
X2659Y3513D01*
X2655Y3509D01*
Y3505D01*
X885Y3220D02*
X893Y3228D01*
X901Y3220D01*
X893Y3212D01*
X885Y3220D01*
X978Y2236D02*
X986Y2244D01*
X994Y2236D01*
X986Y2228D01*
X978Y2236D01*
X3203Y3220D02*
X3211Y3228D01*
X3219Y3220D01*
X3211Y3212D01*
X3203Y3220D01*
X2731Y2157D02*
X2739Y2165D01*
X2747Y2157D01*
X2739Y2149D01*
X2731Y2157D01*
X3792Y5342D02*
X3796Y5350D01*
X3792Y5358D01*
X3800Y5354D01*
X3808Y5358D01*
X3804Y5350D01*
X3808Y5342D01*
X3800Y5346D01*
X3792Y5342D01*
X142Y142D02*
X146Y150D01*
X142Y158D01*
X150Y154D01*
X158Y158D01*
X154Y150D01*
X158Y142D01*
X150Y146D01*
X142Y142D01*
X616Y3559D02*
Y3555D01*
X624D01*
Y3559D01*
X628D01*
Y3567D01*
X624D01*
Y3571D01*
X616D01*
Y3567D01*
X612D01*
Y3559D01*
X616D01*
X612Y1807D02*
X616D01*
X620Y1811D01*
X624Y1807D01*
X628D01*
Y1811D01*
X624Y1815D01*
X628Y1819D01*
Y1823D01*
X624D01*
X620Y1819D01*
X616Y1823D01*
X612D01*
Y1819D01*
X616Y1815D01*
X612Y1811D01*
Y1807D01*
X4460Y1881D02*
Y1897D01*
X4476D01*
Y1881D01*
X4460D01*
X4464Y1885D02*
Y1893D01*
X4472D01*
Y1885D01*
X4464D01*
X4460Y2381D02*
Y2397D01*
X4476D01*
Y2381D01*
X4460D01*
X4464Y2385D02*
Y2393D01*
X4472D01*
Y2385D01*
X4464D01*
X4461Y2657D02*
Y2673D01*
X4477D01*
Y2657D01*
X4461D01*
X4465Y2661D02*
Y2669D01*
X4473D01*
Y2661D01*
X4465D01*
X4461Y3157D02*
Y3173D01*
X4477D01*
Y3157D01*
X4461D01*
X4465Y3161D02*
Y3169D01*
X4473D01*
Y3161D01*
X4465D01*
X911Y3509D02*
Y3505D01*
X919D01*
Y3509D01*
X923D01*
Y3517D01*
X919D01*
Y3521D01*
X911D01*
Y3517D01*
X907D01*
Y3509D01*
X911D01*
X2655Y3505D02*
X2659D01*
X2663Y3509D01*
X2667Y3505D01*
X2671D01*
Y3509D01*
X2667Y3513D01*
X2671Y3517D01*
Y3521D01*
X2667D01*
X2663Y3517D01*
X2659Y3521D01*
X2655D01*
Y3517D01*
X2659Y3513D01*
X2655Y3509D01*
Y3505D01*
X173Y643D02*
Y659D01*
X189D01*
Y643D01*
X173D01*
X273D02*
Y659D01*
X289D01*
Y643D01*
X273D01*
X173Y743D02*
Y759D01*
X189D01*
Y743D01*
X173D01*
X273D02*
Y759D01*
X289D01*
Y743D01*
X273D01*
X173Y843D02*
Y859D01*
X189D01*
Y843D01*
X173D01*
X273D02*
Y859D01*
X289D01*
Y843D01*
X273D01*
X173Y943D02*
Y959D01*
X189D01*
Y943D01*
X173D01*
X273D02*
Y959D01*
X289D01*
Y943D01*
X273D01*
X173Y1043D02*
Y1059D01*
X189D01*
Y1043D01*
X173D01*
X273D02*
Y1059D01*
X289D01*
Y1043D01*
X273D01*
X173Y1143D02*
Y1159D01*
X189D01*
Y1143D01*
X173D01*
X273D02*
Y1159D01*
X289D01*
Y1143D01*
X273D01*
X173Y1243D02*
Y1259D01*
X189D01*
Y1243D01*
X173D01*
X273D02*
Y1259D01*
X289D01*
Y1243D01*
X273D01*
X888Y1710D02*
X880Y1726D01*
X896D01*
X888Y1710D01*
Y1714D02*
X884Y1722D01*
X892D01*
X888Y1714D01*
X2834Y1373D02*
X2826Y1389D01*
X2842D01*
X2834Y1373D01*
Y1377D02*
X2830Y1385D01*
X2838D01*
X2834Y1377D01*
X934Y1710D02*
X926Y1726D01*
X942D01*
X934Y1710D01*
Y1714D02*
X930Y1722D01*
X938D01*
X934Y1714D01*
X2823Y1320D02*
X2815Y1336D01*
X2831D01*
X2823Y1320D01*
Y1324D02*
X2819Y1332D01*
X2827D01*
X2823Y1324D01*
X1117Y1622D02*
X1109Y1638D01*
X1125D01*
X1117Y1622D01*
Y1626D02*
X1113Y1634D01*
X1121D01*
X1117Y1626D01*
X2302Y5071D02*
X2294Y5087D01*
X2310D01*
X2302Y5071D01*
Y5075D02*
X2298Y5083D01*
X2306D01*
X2302Y5075D01*
X2298Y5369D02*
X2290Y5385D01*
X2306D01*
X2298Y5369D01*
Y5373D02*
X2294Y5381D01*
X2302D01*
X2298Y5373D01*
X485Y402D02*
X477Y418D01*
X493D01*
X485Y402D01*
Y406D02*
X481Y414D01*
X489D01*
X485Y406D01*
X464Y62D02*
X456Y78D01*
X472D01*
X464Y62D01*
Y66D02*
X460Y74D01*
X468D01*
X464Y66D01*
X3428Y933D02*
X3420Y949D01*
X3436D01*
X3428Y933D01*
Y937D02*
X3424Y945D01*
X3432D01*
X3428Y937D01*
Y558D02*
X3420Y574D01*
X3436D01*
X3428Y558D01*
Y562D02*
X3424Y570D01*
X3432D01*
X3428Y562D01*
X569Y4981D02*
X561Y4997D01*
X577D01*
X569Y4981D01*
Y4985D02*
X565Y4993D01*
X573D01*
X569Y4985D01*
X564Y5301D02*
X556Y5317D01*
X572D01*
X564Y5301D01*
Y5305D02*
X560Y5313D01*
X568D01*
X564Y5305D01*
X939Y4927D02*
X943Y4931D01*
X947D01*
X943Y4935D01*
X947Y4939D01*
X943D01*
X939Y4943D01*
X935Y4939D01*
X931D01*
X935Y4935D01*
X931Y4931D01*
X935D01*
X939Y4927D01*
Y4931D02*
X941Y4933D01*
X943D01*
X941Y4935D01*
X943Y4937D01*
X941D01*
X939Y4939D01*
X937Y4937D01*
X935D01*
X937Y4935D01*
X935Y4933D01*
X937D01*
X939Y4931D01*
X3320Y3763D02*
X3324Y3767D01*
X3328D01*
X3324Y3771D01*
X3328Y3775D01*
X3324D01*
X3320Y3779D01*
X3316Y3775D01*
X3312D01*
X3316Y3771D01*
X3312Y3767D01*
X3316D01*
X3320Y3763D01*
Y3767D02*
X3322Y3769D01*
X3324D01*
X3322Y3771D01*
X3324Y3773D01*
X3322D01*
X3320Y3775D01*
X3318Y3773D01*
X3316D01*
X3318Y3771D01*
X3316Y3769D01*
X3318D01*
X3320Y3767D01*
X3458Y3759D02*
X3450Y3775D01*
X3466D01*
X3458Y3759D01*
Y3763D02*
X3454Y3771D01*
X3462D01*
X3458Y3763D01*
X2211Y719D02*
X2203Y735D01*
X2219D01*
X2211Y719D01*
Y723D02*
X2207Y731D01*
X2215D01*
X2211Y723D01*
X3723Y161D02*
X3727Y165D01*
X3731D01*
X3727Y169D01*
X3731Y173D01*
X3727D01*
X3723Y177D01*
X3719Y173D01*
X3715D01*
X3719Y169D01*
X3715Y165D01*
X3719D01*
X3723Y161D01*
Y165D02*
X3725Y167D01*
X3727D01*
X3725Y169D01*
X3727Y171D01*
X3725D01*
X3723Y173D01*
X3721Y171D01*
X3719D01*
X3721Y169D01*
X3719Y167D01*
X3721D01*
X3723Y165D01*
X1318Y1109D02*
X1310Y1125D01*
X1326D01*
X1318Y1109D01*
Y1113D02*
X1314Y1121D01*
X1322D01*
X1318Y1113D01*
X779Y1358D02*
X771Y1374D01*
X787D01*
X779Y1358D01*
Y1362D02*
X775Y1370D01*
X783D01*
X779Y1362D01*
X2814Y4913D02*
X2806Y4929D01*
X2822D01*
X2814Y4913D01*
Y4917D02*
X2810Y4925D01*
X2818D01*
X2814Y4917D01*
X1637Y2609D02*
X1629Y2625D01*
X1645D01*
X1637Y2609D01*
Y2613D02*
X1633Y2621D01*
X1641D01*
X1637Y2613D01*
X2056Y3300D02*
X2060Y3304D01*
X2064D01*
X2060Y3308D01*
X2064Y3312D01*
X2060D01*
X2056Y3316D01*
X2052Y3312D01*
X2048D01*
X2052Y3308D01*
X2048Y3304D01*
X2052D01*
X2056Y3300D01*
Y3304D02*
X2058Y3306D01*
X2060D01*
X2058Y3308D01*
X2060Y3310D01*
X2058D01*
X2056Y3312D01*
X2054Y3310D01*
X2052D01*
X2054Y3308D01*
X2052Y3306D01*
X2054D01*
X2056Y3304D01*
X1135Y4980D02*
X1139Y4984D01*
X1143D01*
X1139Y4988D01*
X1143Y4992D01*
X1139D01*
X1135Y4996D01*
X1131Y4992D01*
X1127D01*
X1131Y4988D01*
X1127Y4984D01*
X1131D01*
X1135Y4980D01*
Y4984D02*
X1137Y4986D01*
X1139D01*
X1137Y4988D01*
X1139Y4990D01*
X1137D01*
X1135Y4992D01*
X1133Y4990D01*
X1131D01*
X1133Y4988D01*
X1131Y4986D01*
X1133D01*
X1135Y4984D01*
X1122Y5014D02*
X1126Y5018D01*
X1130D01*
X1126Y5022D01*
X1130Y5026D01*
X1126D01*
X1122Y5030D01*
X1118Y5026D01*
X1114D01*
X1118Y5022D01*
X1114Y5018D01*
X1118D01*
X1122Y5014D01*
Y5018D02*
X1124Y5020D01*
X1126D01*
X1124Y5022D01*
X1126Y5024D01*
X1124D01*
X1122Y5026D01*
X1120Y5024D01*
X1118D01*
X1120Y5022D01*
X1118Y5020D01*
X1120D01*
X1122Y5018D01*
X1351Y4982D02*
X1355Y4986D01*
X1359D01*
X1355Y4990D01*
X1359Y4994D01*
X1355D01*
X1351Y4998D01*
X1347Y4994D01*
X1343D01*
X1347Y4990D01*
X1343Y4986D01*
X1347D01*
X1351Y4982D01*
Y4986D02*
X1353Y4988D01*
X1355D01*
X1353Y4990D01*
X1355Y4992D01*
X1353D01*
X1351Y4994D01*
X1349Y4992D01*
X1347D01*
X1349Y4990D01*
X1347Y4988D01*
X1349D01*
X1351Y4986D01*
X1423Y4998D02*
X1427Y5002D01*
X1431D01*
X1427Y5006D01*
X1431Y5010D01*
X1427D01*
X1423Y5014D01*
X1419Y5010D01*
X1415D01*
X1419Y5006D01*
X1415Y5002D01*
X1419D01*
X1423Y4998D01*
Y5002D02*
X1425Y5004D01*
X1427D01*
X1425Y5006D01*
X1427Y5008D01*
X1425D01*
X1423Y5010D01*
X1421Y5008D01*
X1419D01*
X1421Y5006D01*
X1419Y5004D01*
X1421D01*
X1423Y5002D01*
X2761Y4989D02*
X2765Y4993D01*
X2769D01*
X2765Y4997D01*
X2769Y5001D01*
X2765D01*
X2761Y5005D01*
X2757Y5001D01*
X2753D01*
X2757Y4997D01*
X2753Y4993D01*
X2757D01*
X2761Y4989D01*
Y4993D02*
X2763Y4995D01*
X2765D01*
X2763Y4997D01*
X2765Y4999D01*
X2763D01*
X2761Y5001D01*
X2759Y4999D01*
X2757D01*
X2759Y4997D01*
X2757Y4995D01*
X2759D01*
X2761Y4993D01*
X2751Y5025D02*
X2755Y5029D01*
X2759D01*
X2755Y5033D01*
X2759Y5037D01*
X2755D01*
X2751Y5041D01*
X2747Y5037D01*
X2743D01*
X2747Y5033D01*
X2743Y5029D01*
X2747D01*
X2751Y5025D01*
Y5029D02*
X2753Y5031D01*
X2755D01*
X2753Y5033D01*
X2755Y5035D01*
X2753D01*
X2751Y5037D01*
X2749Y5035D01*
X2747D01*
X2749Y5033D01*
X2747Y5031D01*
X2749D01*
X2751Y5029D01*
X2974Y5007D02*
X2978Y5011D01*
X2982D01*
X2978Y5015D01*
X2982Y5019D01*
X2978D01*
X2974Y5023D01*
X2970Y5019D01*
X2966D01*
X2970Y5015D01*
X2966Y5011D01*
X2970D01*
X2974Y5007D01*
Y5011D02*
X2976Y5013D01*
X2978D01*
X2976Y5015D01*
X2978Y5017D01*
X2976D01*
X2974Y5019D01*
X2972Y5017D01*
X2970D01*
X2972Y5015D01*
X2970Y5013D01*
X2972D01*
X2974Y5011D01*
X3013Y5026D02*
X3017Y5030D01*
X3021D01*
X3017Y5034D01*
X3021Y5038D01*
X3017D01*
X3013Y5042D01*
X3009Y5038D01*
X3005D01*
X3009Y5034D01*
X3005Y5030D01*
X3009D01*
X3013Y5026D01*
Y5030D02*
X3015Y5032D01*
X3017D01*
X3015Y5034D01*
X3017Y5036D01*
X3015D01*
X3013Y5038D01*
X3011Y5036D01*
X3009D01*
X3011Y5034D01*
X3009Y5032D01*
X3011D01*
X3013Y5030D01*
X1315Y553D02*
X1307Y569D01*
X1323D01*
X1315Y553D01*
Y557D02*
X1311Y565D01*
X1319D01*
X1315Y557D01*
X1321Y588D02*
X1313Y604D01*
X1329D01*
X1321Y588D01*
Y592D02*
X1317Y600D01*
X1325D01*
X1321Y592D01*
X729Y550D02*
X721Y566D01*
X737D01*
X729Y550D01*
Y554D02*
X725Y562D01*
X733D01*
X729Y554D01*
X753Y583D02*
X745Y599D01*
X761D01*
X753Y583D01*
Y587D02*
X749Y595D01*
X757D01*
X753Y587D01*
X2789Y567D02*
X2781Y583D01*
X2797D01*
X2789Y567D01*
Y571D02*
X2785Y579D01*
X2793D01*
X2789Y571D01*
X2822Y590D02*
X2814Y606D01*
X2830D01*
X2822Y590D01*
Y594D02*
X2818Y602D01*
X2826D01*
X2822Y594D01*
X2233Y554D02*
X2225Y570D01*
X2241D01*
X2233Y554D01*
Y558D02*
X2229Y566D01*
X2237D01*
X2233Y558D01*
X2231Y590D02*
X2223Y606D01*
X2239D01*
X2231Y590D01*
Y594D02*
X2227Y602D01*
X2235D01*
X2231Y594D01*
X4185Y295D02*
X4189Y299D01*
X4193D01*
X4189Y303D01*
X4193Y307D01*
X4189D01*
X4185Y311D01*
X4181Y307D01*
X4177D01*
X4181Y303D01*
X4177Y299D01*
X4181D01*
X4185Y295D01*
Y299D02*
X4187Y301D01*
X4189D01*
X4187Y303D01*
X4189Y305D01*
X4187D01*
X4185Y307D01*
X4183Y305D01*
X4181D01*
X4183Y303D01*
X4181Y301D01*
X4183D01*
X4185Y299D01*
X4609Y5262D02*
X4613Y5266D01*
X4617D01*
X4613Y5270D01*
X4617Y5274D01*
X4613D01*
X4609Y5278D01*
X4605Y5274D01*
X4601D01*
X4605Y5270D01*
X4601Y5266D01*
X4605D01*
X4609Y5262D01*
Y5266D02*
X4611Y5268D01*
X4613D01*
X4611Y5270D01*
X4613Y5272D01*
X4611D01*
X4609Y5274D01*
X4607Y5272D01*
X4605D01*
X4607Y5270D01*
X4605Y5268D01*
X4607D01*
X4609Y5266D01*
X4194Y508D02*
X4198Y512D01*
X4202D01*
X4198Y516D01*
X4202Y520D01*
X4198D01*
X4194Y524D01*
X4190Y520D01*
X4186D01*
X4190Y516D01*
X4186Y512D01*
X4190D01*
X4194Y508D01*
Y512D02*
X4196Y514D01*
X4198D01*
X4196Y516D01*
X4198Y518D01*
X4196D01*
X4194Y520D01*
X4192Y518D01*
X4190D01*
X4192Y516D01*
X4190Y514D01*
X4192D01*
X4194Y512D01*
X4486Y4886D02*
X4490Y4890D01*
X4494D01*
X4490Y4894D01*
X4494Y4898D01*
X4490D01*
X4486Y4902D01*
X4482Y4898D01*
X4478D01*
X4482Y4894D01*
X4478Y4890D01*
X4482D01*
X4486Y4886D01*
Y4890D02*
X4488Y4892D01*
X4490D01*
X4488Y4894D01*
X4490Y4896D01*
X4488D01*
X4486Y4898D01*
X4484Y4896D01*
X4482D01*
X4484Y4894D01*
X4482Y4892D01*
X4484D01*
X4486Y4890D01*
X930Y1336D02*
X922Y1352D01*
X938D01*
X930Y1336D01*
Y1340D02*
X926Y1348D01*
X934D01*
X930Y1340D01*
X1104Y836D02*
X1096Y852D01*
X1112D01*
X1104Y836D01*
Y840D02*
X1100Y848D01*
X1108D01*
X1104Y840D01*
X632Y830D02*
X624Y846D01*
X640D01*
X632Y830D01*
Y834D02*
X628Y842D01*
X636D01*
X632Y834D01*
X1256Y865D02*
X1248Y881D01*
X1264D01*
X1256Y865D01*
Y869D02*
X1252Y877D01*
X1260D01*
X1256Y869D01*
X1288Y699D02*
X1280Y715D01*
X1296D01*
X1288Y699D01*
Y703D02*
X1284Y711D01*
X1292D01*
X1288Y703D01*
X1494Y849D02*
X1486Y865D01*
X1502D01*
X1494Y849D01*
Y853D02*
X1490Y861D01*
X1498D01*
X1494Y853D01*
X1486Y709D02*
X1478Y725D01*
X1494D01*
X1486Y709D01*
Y713D02*
X1482Y721D01*
X1490D01*
X1486Y713D01*
X760Y860D02*
X752Y876D01*
X768D01*
X760Y860D01*
Y864D02*
X756Y872D01*
X764D01*
X760Y864D01*
X769Y725D02*
X761Y741D01*
X777D01*
X769Y725D01*
Y729D02*
X765Y737D01*
X773D01*
X769Y729D01*
X760Y783D02*
X752Y799D01*
X768D01*
X760Y783D01*
Y787D02*
X756Y795D01*
X764D01*
X760Y787D01*
X1030Y842D02*
X1022Y858D01*
X1038D01*
X1030Y842D01*
Y846D02*
X1026Y854D01*
X1034D01*
X1030Y846D01*
X1015Y728D02*
X1007Y744D01*
X1023D01*
X1015Y728D01*
Y732D02*
X1011Y740D01*
X1019D01*
X1015Y732D01*
X1345Y4808D02*
X1349Y4812D01*
X1353D01*
X1349Y4816D01*
X1353Y4820D01*
X1349D01*
X1345Y4824D01*
X1341Y4820D01*
X1337D01*
X1341Y4816D01*
X1337Y4812D01*
X1341D01*
X1345Y4808D01*
Y4812D02*
X1347Y4814D01*
X1349D01*
X1347Y4816D01*
X1349Y4818D01*
X1347D01*
X1345Y4820D01*
X1343Y4818D01*
X1341D01*
X1343Y4816D01*
X1341Y4814D01*
X1343D01*
X1345Y4812D01*
X1554Y4793D02*
X1558Y4797D01*
X1562D01*
X1558Y4801D01*
X1562Y4805D01*
X1558D01*
X1554Y4809D01*
X1550Y4805D01*
X1546D01*
X1550Y4801D01*
X1546Y4797D01*
X1550D01*
X1554Y4793D01*
Y4797D02*
X1556Y4799D01*
X1558D01*
X1556Y4801D01*
X1558Y4803D01*
X1556D01*
X1554Y4805D01*
X1552Y4803D01*
X1550D01*
X1552Y4801D01*
X1550Y4799D01*
X1552D01*
X1554Y4797D01*
X1389Y4764D02*
X1393Y4768D01*
X1397D01*
X1393Y4772D01*
X1397Y4776D01*
X1393D01*
X1389Y4780D01*
X1385Y4776D01*
X1381D01*
X1385Y4772D01*
X1381Y4768D01*
X1385D01*
X1389Y4764D01*
Y4768D02*
X1391Y4770D01*
X1393D01*
X1391Y4772D01*
X1393Y4774D01*
X1391D01*
X1389Y4776D01*
X1387Y4774D01*
X1385D01*
X1387Y4772D01*
X1385Y4770D01*
X1387D01*
X1389Y4768D01*
X609Y4295D02*
X613Y4299D01*
X617D01*
X613Y4303D01*
X617Y4307D01*
X613D01*
X609Y4311D01*
X605Y4307D01*
X601D01*
X605Y4303D01*
X601Y4299D01*
X605D01*
X609Y4295D01*
Y4299D02*
X611Y4301D01*
X613D01*
X611Y4303D01*
X613Y4305D01*
X611D01*
X609Y4307D01*
X607Y4305D01*
X605D01*
X607Y4303D01*
X605Y4301D01*
X607D01*
X609Y4299D01*
X819Y4294D02*
X823Y4298D01*
X827D01*
X823Y4302D01*
X827Y4306D01*
X823D01*
X819Y4310D01*
X815Y4306D01*
X811D01*
X815Y4302D01*
X811Y4298D01*
X815D01*
X819Y4294D01*
Y4298D02*
X821Y4300D01*
X823D01*
X821Y4302D01*
X823Y4304D01*
X821D01*
X819Y4306D01*
X817Y4304D01*
X815D01*
X817Y4302D01*
X815Y4300D01*
X817D01*
X819Y4298D01*
X2606Y814D02*
X2598Y830D01*
X2614D01*
X2606Y814D01*
Y818D02*
X2602Y826D01*
X2610D01*
X2606Y818D01*
X2126Y833D02*
X2118Y849D01*
X2134D01*
X2126Y833D01*
Y837D02*
X2122Y845D01*
X2130D01*
X2126Y837D01*
X2673Y4617D02*
X2665Y4633D01*
X2681D01*
X2673Y4617D01*
Y4621D02*
X2669Y4629D01*
X2677D01*
X2673Y4621D01*
X2971Y4616D02*
X2963Y4632D01*
X2979D01*
X2971Y4616D01*
Y4620D02*
X2967Y4628D01*
X2975D01*
X2971Y4620D01*
X1347Y4610D02*
X1339Y4626D01*
X1355D01*
X1347Y4610D01*
Y4614D02*
X1343Y4622D01*
X1351D01*
X1347Y4614D01*
X1049Y4611D02*
X1041Y4627D01*
X1057D01*
X1049Y4611D01*
Y4615D02*
X1045Y4623D01*
X1053D01*
X1049Y4615D01*
X3670Y4225D02*
X3674Y4229D01*
X3678D01*
X3674Y4233D01*
X3678Y4237D01*
X3674D01*
X3670Y4241D01*
X3666Y4237D01*
X3662D01*
X3666Y4233D01*
X3662Y4229D01*
X3666D01*
X3670Y4225D01*
Y4229D02*
X3672Y4231D01*
X3674D01*
X3672Y4233D01*
X3674Y4235D01*
X3672D01*
X3670Y4237D01*
X3668Y4235D01*
X3666D01*
X3668Y4233D01*
X3666Y4231D01*
X3668D01*
X3670Y4229D01*
X972Y4622D02*
X976Y4626D01*
X980D01*
X976Y4630D01*
X980Y4634D01*
X976D01*
X972Y4638D01*
X968Y4634D01*
X964D01*
X968Y4630D01*
X964Y4626D01*
X968D01*
X972Y4622D01*
Y4626D02*
X974Y4628D01*
X976D01*
X974Y4630D01*
X976Y4632D01*
X974D01*
X972Y4634D01*
X970Y4632D01*
X968D01*
X970Y4630D01*
X968Y4628D01*
X970D01*
X972Y4626D01*
X966Y4507D02*
X970Y4511D01*
X974D01*
X970Y4515D01*
X974Y4519D01*
X970D01*
X966Y4523D01*
X962Y4519D01*
X958D01*
X962Y4515D01*
X958Y4511D01*
X962D01*
X966Y4507D01*
Y4511D02*
X968Y4513D01*
X970D01*
X968Y4515D01*
X970Y4517D01*
X968D01*
X966Y4519D01*
X964Y4517D01*
X962D01*
X964Y4515D01*
X962Y4513D01*
X964D01*
X966Y4511D01*
X436Y4385D02*
X440Y4389D01*
X444D01*
X440Y4393D01*
X444Y4397D01*
X440D01*
X436Y4401D01*
X432Y4397D01*
X428D01*
X432Y4393D01*
X428Y4389D01*
X432D01*
X436Y4385D01*
Y4389D02*
X438Y4391D01*
X440D01*
X438Y4393D01*
X440Y4395D01*
X438D01*
X436Y4397D01*
X434Y4395D01*
X432D01*
X434Y4393D01*
X432Y4391D01*
X434D01*
X436Y4389D01*
X1939Y4394D02*
X1943Y4398D01*
X1947D01*
X1943Y4402D01*
X1947Y4406D01*
X1943D01*
X1939Y4410D01*
X1935Y4406D01*
X1931D01*
X1935Y4402D01*
X1931Y4398D01*
X1935D01*
X1939Y4394D01*
Y4398D02*
X1941Y4400D01*
X1943D01*
X1941Y4402D01*
X1943Y4404D01*
X1941D01*
X1939Y4406D01*
X1937Y4404D01*
X1935D01*
X1937Y4402D01*
X1935Y4400D01*
X1937D01*
X1939Y4398D01*
X2581Y4627D02*
X2573Y4643D01*
X2589D01*
X2581Y4627D01*
Y4631D02*
X2577Y4639D01*
X2585D01*
X2581Y4631D01*
X2586Y4511D02*
X2578Y4527D01*
X2594D01*
X2586Y4511D01*
Y4515D02*
X2582Y4523D01*
X2590D01*
X2586Y4515D01*
X3487Y4445D02*
X3491Y4449D01*
X3495D01*
X3491Y4453D01*
X3495Y4457D01*
X3491D01*
X3487Y4461D01*
X3483Y4457D01*
X3479D01*
X3483Y4453D01*
X3479Y4449D01*
X3483D01*
X3487Y4445D01*
Y4449D02*
X3489Y4451D01*
X3491D01*
X3489Y4453D01*
X3491Y4455D01*
X3489D01*
X3487Y4457D01*
X3485Y4455D01*
X3483D01*
X3485Y4453D01*
X3483Y4451D01*
X3485D01*
X3487Y4449D01*
X2726Y787D02*
X2718Y803D01*
X2734D01*
X2726Y787D01*
Y791D02*
X2722Y799D01*
X2730D01*
X2726Y791D01*
X2725Y873D02*
X2717Y889D01*
X2733D01*
X2725Y873D01*
Y877D02*
X2721Y885D01*
X2729D01*
X2725Y877D01*
X2780Y695D02*
X2772Y711D01*
X2788D01*
X2780Y695D01*
Y699D02*
X2776Y707D01*
X2784D01*
X2780Y699D01*
X2972Y864D02*
X2964Y880D01*
X2980D01*
X2972Y864D01*
Y868D02*
X2968Y876D01*
X2976D01*
X2972Y868D01*
X2992Y738D02*
X2984Y754D01*
X3000D01*
X2992Y738D01*
Y742D02*
X2988Y750D01*
X2996D01*
X2992Y742D01*
X2261Y866D02*
X2253Y882D01*
X2269D01*
X2261Y866D01*
Y870D02*
X2257Y878D01*
X2265D01*
X2261Y870D01*
X2266Y732D02*
X2258Y748D01*
X2274D01*
X2266Y732D01*
Y736D02*
X2262Y744D01*
X2270D01*
X2266Y736D01*
X2474Y864D02*
X2466Y880D01*
X2482D01*
X2474Y864D01*
Y868D02*
X2470Y876D01*
X2478D01*
X2474Y868D01*
X2509Y742D02*
X2501Y758D01*
X2517D01*
X2509Y742D01*
Y746D02*
X2505Y754D01*
X2513D01*
X2509Y746D01*
X3170Y83D02*
X3162Y99D01*
X3178D01*
X3170Y83D01*
Y87D02*
X3166Y95D01*
X3174D01*
X3170Y87D01*
X3154Y151D02*
X3146Y167D01*
X3162D01*
X3154Y151D01*
Y155D02*
X3150Y163D01*
X3158D01*
X3154Y155D01*
X3087Y82D02*
X3079Y98D01*
X3095D01*
X3087Y82D01*
Y86D02*
X3083Y94D01*
X3091D01*
X3087Y86D01*
X3064Y151D02*
X3056Y167D01*
X3072D01*
X3064Y151D01*
Y155D02*
X3060Y163D01*
X3068D01*
X3064Y155D01*
X2999Y84D02*
X2991Y100D01*
X3007D01*
X2999Y84D01*
Y88D02*
X2995Y96D01*
X3003D01*
X2999Y88D01*
X2973Y151D02*
X2965Y167D01*
X2981D01*
X2973Y151D01*
Y155D02*
X2969Y163D01*
X2977D01*
X2973Y155D01*
X2919Y80D02*
X2911Y96D01*
X2927D01*
X2919Y80D01*
Y84D02*
X2915Y92D01*
X2923D01*
X2919Y84D01*
X2888Y151D02*
X2880Y167D01*
X2896D01*
X2888Y151D01*
Y155D02*
X2884Y163D01*
X2892D01*
X2888Y155D01*
X2958Y410D02*
X2950Y426D01*
X2966D01*
X2958Y410D01*
Y414D02*
X2954Y422D01*
X2962D01*
X2958Y414D01*
X2484Y90D02*
X2476Y106D01*
X2492D01*
X2484Y90D01*
Y94D02*
X2480Y102D01*
X2488D01*
X2484Y94D01*
X2457Y154D02*
X2449Y170D01*
X2465D01*
X2457Y154D01*
Y158D02*
X2453Y166D01*
X2461D01*
X2457Y158D01*
X2395Y88D02*
X2387Y104D01*
X2403D01*
X2395Y88D01*
Y92D02*
X2391Y100D01*
X2399D01*
X2395Y92D01*
X2371Y153D02*
X2363Y169D01*
X2379D01*
X2371Y153D01*
Y157D02*
X2367Y165D01*
X2375D01*
X2371Y157D01*
X2317Y95D02*
X2309Y111D01*
X2325D01*
X2317Y95D01*
Y99D02*
X2313Y107D01*
X2321D01*
X2317Y99D01*
X2297Y152D02*
X2289Y168D01*
X2305D01*
X2297Y152D01*
Y156D02*
X2293Y164D01*
X2301D01*
X2297Y156D01*
X2243Y89D02*
X2235Y105D01*
X2251D01*
X2243Y89D01*
Y93D02*
X2239Y101D01*
X2247D01*
X2243Y93D01*
X2224Y154D02*
X2216Y170D01*
X2232D01*
X2224Y154D01*
Y158D02*
X2220Y166D01*
X2228D01*
X2224Y158D01*
X2306Y410D02*
X2298Y426D01*
X2314D01*
X2306Y410D01*
Y414D02*
X2302Y422D01*
X2310D01*
X2306Y414D01*
X2256Y789D02*
X2248Y805D01*
X2264D01*
X2256Y789D01*
Y793D02*
X2252Y801D01*
X2260D01*
X2256Y793D01*
X2442Y1202D02*
X2434Y1218D01*
X2450D01*
X2442Y1202D01*
Y1206D02*
X2438Y1214D01*
X2446D01*
X2442Y1206D01*
X2799Y1202D02*
X2791Y1218D01*
X2807D01*
X2799Y1202D01*
Y1206D02*
X2795Y1214D01*
X2803D01*
X2799Y1206D01*
X946Y1200D02*
X938Y1216D01*
X954D01*
X946Y1200D01*
Y1204D02*
X942Y1212D01*
X950D01*
X946Y1204D01*
X1310Y1205D02*
X1302Y1221D01*
X1318D01*
X1310Y1205D01*
Y1209D02*
X1306Y1217D01*
X1314D01*
X1310Y1209D01*
X3307Y1735D02*
X3311Y1739D01*
X3315D01*
X3311Y1743D01*
X3315Y1747D01*
X3311D01*
X3307Y1751D01*
X3303Y1747D01*
X3299D01*
X3303Y1743D01*
X3299Y1739D01*
X3303D01*
X3307Y1735D01*
Y1739D02*
X3309Y1741D01*
X3311D01*
X3309Y1743D01*
X3311Y1745D01*
X3309D01*
X3307Y1747D01*
X3305Y1745D01*
X3303D01*
X3305Y1743D01*
X3303Y1741D01*
X3305D01*
X3307Y1739D01*
X480Y1983D02*
X472Y1999D01*
X488D01*
X480Y1983D01*
Y1987D02*
X476Y1995D01*
X484D01*
X480Y1987D01*
X596Y543D02*
X588Y559D01*
X604D01*
X596Y543D01*
Y547D02*
X592Y555D01*
X600D01*
X596Y547D01*
X638Y911D02*
X630Y927D01*
X646D01*
X638Y911D01*
Y915D02*
X634Y923D01*
X642D01*
X638Y915D01*
X639Y1121D02*
X631Y1137D01*
X647D01*
X639Y1121D01*
Y1125D02*
X635Y1133D01*
X643D01*
X639Y1125D01*
X594Y2041D02*
X586Y2057D01*
X602D01*
X594Y2041D01*
Y2045D02*
X590Y2053D01*
X598D01*
X594Y2045D01*
X642Y1863D02*
X634Y1879D01*
X650D01*
X642Y1863D01*
Y1867D02*
X638Y1875D01*
X646D01*
X642Y1867D01*
Y2020D02*
X634Y2036D01*
X650D01*
X642Y2020D01*
Y2024D02*
X638Y2032D01*
X646D01*
X642Y2024D01*
X594Y2198D02*
X586Y2214D01*
X602D01*
X594Y2198D01*
Y2202D02*
X590Y2210D01*
X598D01*
X594Y2202D01*
Y2393D02*
X586Y2409D01*
X602D01*
X594Y2393D01*
Y2397D02*
X590Y2405D01*
X598D01*
X594Y2397D01*
X690Y366D02*
X682Y382D01*
X698D01*
X690Y366D01*
Y370D02*
X686Y378D01*
X694D01*
X690Y370D01*
X714Y721D02*
X706Y737D01*
X722D01*
X714Y721D01*
Y725D02*
X710Y733D01*
X718D01*
X714Y725D01*
X739Y479D02*
X731Y495D01*
X747D01*
X739Y479D01*
Y483D02*
X735Y491D01*
X743D01*
X739Y483D01*
X480Y2848D02*
X472Y2864D01*
X488D01*
X480Y2848D01*
Y2852D02*
X476Y2860D01*
X484D01*
X480Y2852D01*
Y2966D02*
X472Y2982D01*
X488D01*
X480Y2966D01*
Y2970D02*
X476Y2978D01*
X484D01*
X480Y2970D01*
Y3085D02*
X472Y3101D01*
X488D01*
X480Y3085D01*
Y3089D02*
X476Y3097D01*
X484D01*
X480Y3089D01*
X594Y2592D02*
X586Y2608D01*
X602D01*
X594Y2592D01*
Y2596D02*
X590Y2604D01*
X598D01*
X594Y2596D01*
Y2789D02*
X586Y2805D01*
X602D01*
X594Y2789D01*
Y2793D02*
X590Y2801D01*
X598D01*
X594Y2793D01*
X642Y2888D02*
X634Y2904D01*
X650D01*
X642Y2888D01*
Y2892D02*
X638Y2900D01*
X646D01*
X642Y2892D01*
X594Y2906D02*
X586Y2922D01*
X602D01*
X594Y2906D01*
Y2910D02*
X590Y2918D01*
X598D01*
X594Y2910D01*
X642Y3004D02*
X634Y3020D01*
X650D01*
X642Y3004D01*
Y3008D02*
X638Y3016D01*
X646D01*
X642Y3008D01*
X594Y3025D02*
X586Y3041D01*
X602D01*
X594Y3025D01*
Y3029D02*
X590Y3037D01*
X598D01*
X594Y3029D01*
X799Y913D02*
X791Y929D01*
X807D01*
X799Y913D01*
Y917D02*
X795Y925D01*
X803D01*
X799Y917D01*
X846Y1103D02*
X838Y1119D01*
X854D01*
X846Y1103D01*
Y1107D02*
X842Y1115D01*
X850D01*
X846Y1107D01*
X1014Y491D02*
X1006Y507D01*
X1022D01*
X1014Y491D01*
Y495D02*
X1010Y503D01*
X1018D01*
X1014Y495D01*
X1024Y805D02*
X1016Y821D01*
X1032D01*
X1024Y805D01*
Y809D02*
X1020Y817D01*
X1028D01*
X1024Y809D01*
X1054Y925D02*
X1046Y941D01*
X1062D01*
X1054Y925D01*
Y929D02*
X1050Y937D01*
X1058D01*
X1054Y929D01*
X1028Y1229D02*
X1032Y1233D01*
X1036D01*
X1032Y1237D01*
X1036Y1241D01*
X1032D01*
X1028Y1245D01*
X1024Y1241D01*
X1020D01*
X1024Y1237D01*
X1020Y1233D01*
X1024D01*
X1028Y1229D01*
Y1233D02*
X1030Y1235D01*
X1032D01*
X1030Y1237D01*
X1032Y1239D01*
X1030D01*
X1028Y1241D01*
X1026Y1239D01*
X1024D01*
X1026Y1237D01*
X1024Y1235D01*
X1026D01*
X1028Y1233D01*
X1028Y1269D02*
X1032Y1273D01*
X1036D01*
X1032Y1277D01*
X1036Y1281D01*
X1032D01*
X1028Y1285D01*
X1024Y1281D01*
X1020D01*
X1024Y1277D01*
X1020Y1273D01*
X1024D01*
X1028Y1269D01*
Y1273D02*
X1030Y1275D01*
X1032D01*
X1030Y1277D01*
X1032Y1279D01*
X1030D01*
X1028Y1281D01*
X1026Y1279D01*
X1024D01*
X1026Y1277D01*
X1024Y1275D01*
X1026D01*
X1028Y1273D01*
X1078Y1229D02*
X1082Y1233D01*
X1086D01*
X1082Y1237D01*
X1086Y1241D01*
X1082D01*
X1078Y1245D01*
X1074Y1241D01*
X1070D01*
X1074Y1237D01*
X1070Y1233D01*
X1074D01*
X1078Y1229D01*
Y1233D02*
X1080Y1235D01*
X1082D01*
X1080Y1237D01*
X1082Y1239D01*
X1080D01*
X1078Y1241D01*
X1076Y1239D01*
X1074D01*
X1076Y1237D01*
X1074Y1235D01*
X1076D01*
X1078Y1233D01*
X1078Y1269D02*
X1082Y1273D01*
X1086D01*
X1082Y1277D01*
X1086Y1281D01*
X1082D01*
X1078Y1285D01*
X1074Y1281D01*
X1070D01*
X1074Y1277D01*
X1070Y1273D01*
X1074D01*
X1078Y1269D01*
Y1273D02*
X1080Y1275D01*
X1082D01*
X1080Y1277D01*
X1082Y1279D01*
X1080D01*
X1078Y1281D01*
X1076Y1279D01*
X1074D01*
X1076Y1277D01*
X1074Y1275D01*
X1076D01*
X1078Y1273D01*
X1174Y504D02*
X1166Y520D01*
X1182D01*
X1174Y504D01*
Y508D02*
X1170Y516D01*
X1178D01*
X1174Y508D01*
X1159Y698D02*
X1151Y714D01*
X1167D01*
X1159Y698D01*
Y702D02*
X1155Y710D01*
X1163D01*
X1159Y702D01*
X1316Y485D02*
X1308Y501D01*
X1324D01*
X1316Y485D01*
Y489D02*
X1312Y497D01*
X1320D01*
X1316Y489D01*
X1347Y374D02*
X1339Y390D01*
X1355D01*
X1347Y374D01*
Y378D02*
X1343Y386D01*
X1351D01*
X1347Y378D01*
X1193Y922D02*
X1185Y938D01*
X1201D01*
X1193Y922D01*
Y926D02*
X1189Y934D01*
X1197D01*
X1193Y926D01*
X1128Y1229D02*
X1132Y1233D01*
X1136D01*
X1132Y1237D01*
X1136Y1241D01*
X1132D01*
X1128Y1245D01*
X1124Y1241D01*
X1120D01*
X1124Y1237D01*
X1120Y1233D01*
X1124D01*
X1128Y1229D01*
Y1233D02*
X1130Y1235D01*
X1132D01*
X1130Y1237D01*
X1132Y1239D01*
X1130D01*
X1128Y1241D01*
X1126Y1239D01*
X1124D01*
X1126Y1237D01*
X1124Y1235D01*
X1126D01*
X1128Y1233D01*
X1128Y1269D02*
X1132Y1273D01*
X1136D01*
X1132Y1277D01*
X1136Y1281D01*
X1132D01*
X1128Y1285D01*
X1124Y1281D01*
X1120D01*
X1124Y1277D01*
X1120Y1273D01*
X1124D01*
X1128Y1269D01*
Y1273D02*
X1130Y1275D01*
X1132D01*
X1130Y1277D01*
X1132Y1279D01*
X1130D01*
X1128Y1281D01*
X1126Y1279D01*
X1124D01*
X1126Y1277D01*
X1124Y1275D01*
X1126D01*
X1128Y1273D01*
X1178Y1269D02*
X1182Y1273D01*
X1186D01*
X1182Y1277D01*
X1186Y1281D01*
X1182D01*
X1178Y1285D01*
X1174Y1281D01*
X1170D01*
X1174Y1277D01*
X1170Y1273D01*
X1174D01*
X1178Y1269D01*
Y1273D02*
X1180Y1275D01*
X1182D01*
X1180Y1277D01*
X1182Y1279D01*
X1180D01*
X1178Y1281D01*
X1176Y1279D01*
X1174D01*
X1176Y1277D01*
X1174Y1275D01*
X1176D01*
X1178Y1273D01*
X1178Y1229D02*
X1182Y1233D01*
X1186D01*
X1182Y1237D01*
X1186Y1241D01*
X1182D01*
X1178Y1245D01*
X1174Y1241D01*
X1170D01*
X1174Y1237D01*
X1170Y1233D01*
X1174D01*
X1178Y1229D01*
Y1233D02*
X1180Y1235D01*
X1182D01*
X1180Y1237D01*
X1182Y1239D01*
X1180D01*
X1178Y1241D01*
X1176Y1239D01*
X1174D01*
X1176Y1237D01*
X1174Y1235D01*
X1176D01*
X1178Y1233D01*
X1228Y1229D02*
X1232Y1233D01*
X1236D01*
X1232Y1237D01*
X1236Y1241D01*
X1232D01*
X1228Y1245D01*
X1224Y1241D01*
X1220D01*
X1224Y1237D01*
X1220Y1233D01*
X1224D01*
X1228Y1229D01*
Y1233D02*
X1230Y1235D01*
X1232D01*
X1230Y1237D01*
X1232Y1239D01*
X1230D01*
X1228Y1241D01*
X1226Y1239D01*
X1224D01*
X1226Y1237D01*
X1224Y1235D01*
X1226D01*
X1228Y1233D01*
X1228Y1269D02*
X1232Y1273D01*
X1236D01*
X1232Y1277D01*
X1236Y1281D01*
X1232D01*
X1228Y1285D01*
X1224Y1281D01*
X1220D01*
X1224Y1277D01*
X1220Y1273D01*
X1224D01*
X1228Y1269D01*
Y1273D02*
X1230Y1275D01*
X1232D01*
X1230Y1277D01*
X1232Y1279D01*
X1230D01*
X1228Y1281D01*
X1226Y1279D01*
X1224D01*
X1226Y1277D01*
X1224Y1275D01*
X1226D01*
X1228Y1273D01*
X1028Y1321D02*
X1032Y1325D01*
X1036D01*
X1032Y1329D01*
X1036Y1333D01*
X1032D01*
X1028Y1337D01*
X1024Y1333D01*
X1020D01*
X1024Y1329D01*
X1020Y1325D01*
X1024D01*
X1028Y1321D01*
Y1325D02*
X1030Y1327D01*
X1032D01*
X1030Y1329D01*
X1032Y1331D01*
X1030D01*
X1028Y1333D01*
X1026Y1331D01*
X1024D01*
X1026Y1329D01*
X1024Y1327D01*
X1026D01*
X1028Y1325D01*
X1028Y1373D02*
X1032Y1377D01*
X1036D01*
X1032Y1381D01*
X1036Y1385D01*
X1032D01*
X1028Y1389D01*
X1024Y1385D01*
X1020D01*
X1024Y1381D01*
X1020Y1377D01*
X1024D01*
X1028Y1373D01*
Y1377D02*
X1030Y1379D01*
X1032D01*
X1030Y1381D01*
X1032Y1383D01*
X1030D01*
X1028Y1385D01*
X1026Y1383D01*
X1024D01*
X1026Y1381D01*
X1024Y1379D01*
X1026D01*
X1028Y1377D01*
X1028Y1413D02*
X1032Y1417D01*
X1036D01*
X1032Y1421D01*
X1036Y1425D01*
X1032D01*
X1028Y1429D01*
X1024Y1425D01*
X1020D01*
X1024Y1421D01*
X1020Y1417D01*
X1024D01*
X1028Y1413D01*
Y1417D02*
X1030Y1419D01*
X1032D01*
X1030Y1421D01*
X1032Y1423D01*
X1030D01*
X1028Y1425D01*
X1026Y1423D01*
X1024D01*
X1026Y1421D01*
X1024Y1419D01*
X1026D01*
X1028Y1417D01*
X1078Y1321D02*
X1082Y1325D01*
X1086D01*
X1082Y1329D01*
X1086Y1333D01*
X1082D01*
X1078Y1337D01*
X1074Y1333D01*
X1070D01*
X1074Y1329D01*
X1070Y1325D01*
X1074D01*
X1078Y1321D01*
Y1325D02*
X1080Y1327D01*
X1082D01*
X1080Y1329D01*
X1082Y1331D01*
X1080D01*
X1078Y1333D01*
X1076Y1331D01*
X1074D01*
X1076Y1329D01*
X1074Y1327D01*
X1076D01*
X1078Y1325D01*
X1078Y1373D02*
X1082Y1377D01*
X1086D01*
X1082Y1381D01*
X1086Y1385D01*
X1082D01*
X1078Y1389D01*
X1074Y1385D01*
X1070D01*
X1074Y1381D01*
X1070Y1377D01*
X1074D01*
X1078Y1373D01*
Y1377D02*
X1080Y1379D01*
X1082D01*
X1080Y1381D01*
X1082Y1383D01*
X1080D01*
X1078Y1385D01*
X1076Y1383D01*
X1074D01*
X1076Y1381D01*
X1074Y1379D01*
X1076D01*
X1078Y1377D01*
X1128Y1373D02*
X1132Y1377D01*
X1136D01*
X1132Y1381D01*
X1136Y1385D01*
X1132D01*
X1128Y1389D01*
X1124Y1385D01*
X1120D01*
X1124Y1381D01*
X1120Y1377D01*
X1124D01*
X1128Y1373D01*
Y1377D02*
X1130Y1379D01*
X1132D01*
X1130Y1381D01*
X1132Y1383D01*
X1130D01*
X1128Y1385D01*
X1126Y1383D01*
X1124D01*
X1126Y1381D01*
X1124Y1379D01*
X1126D01*
X1128Y1377D01*
X1078Y1413D02*
X1082Y1417D01*
X1086D01*
X1082Y1421D01*
X1086Y1425D01*
X1082D01*
X1078Y1429D01*
X1074Y1425D01*
X1070D01*
X1074Y1421D01*
X1070Y1417D01*
X1074D01*
X1078Y1413D01*
Y1417D02*
X1080Y1419D01*
X1082D01*
X1080Y1421D01*
X1082Y1423D01*
X1080D01*
X1078Y1425D01*
X1076Y1423D01*
X1074D01*
X1076Y1421D01*
X1074Y1419D01*
X1076D01*
X1078Y1417D01*
X1128Y1413D02*
X1132Y1417D01*
X1136D01*
X1132Y1421D01*
X1136Y1425D01*
X1132D01*
X1128Y1429D01*
X1124Y1425D01*
X1120D01*
X1124Y1421D01*
X1120Y1417D01*
X1124D01*
X1128Y1413D01*
Y1417D02*
X1130Y1419D01*
X1132D01*
X1130Y1421D01*
X1132Y1423D01*
X1130D01*
X1128Y1425D01*
X1126Y1423D01*
X1124D01*
X1126Y1421D01*
X1124Y1419D01*
X1126D01*
X1128Y1417D01*
X766Y2668D02*
X758Y2684D01*
X774D01*
X766Y2668D01*
Y2672D02*
X762Y2680D01*
X770D01*
X766Y2672D01*
Y2275D02*
X758Y2291D01*
X774D01*
X766Y2275D01*
Y2279D02*
X762Y2287D01*
X770D01*
X766Y2279D01*
Y2475D02*
X758Y2491D01*
X774D01*
X766Y2475D01*
Y2479D02*
X762Y2487D01*
X770D01*
X766Y2479D01*
Y3062D02*
X758Y3078D01*
X774D01*
X766Y3062D01*
Y3066D02*
X762Y3074D01*
X770D01*
X766Y3066D01*
Y2833D02*
X758Y2849D01*
X774D01*
X766Y2833D01*
Y2837D02*
X762Y2845D01*
X770D01*
X766Y2837D01*
Y2945D02*
X758Y2961D01*
X774D01*
X766Y2945D01*
Y2949D02*
X762Y2957D01*
X770D01*
X766Y2949D01*
Y2081D02*
X758Y2097D01*
X774D01*
X766Y2081D01*
Y2085D02*
X762Y2093D01*
X770D01*
X766Y2085D01*
X1178Y1321D02*
X1182Y1325D01*
X1186D01*
X1182Y1329D01*
X1186Y1333D01*
X1182D01*
X1178Y1337D01*
X1174Y1333D01*
X1170D01*
X1174Y1329D01*
X1170Y1325D01*
X1174D01*
X1178Y1321D01*
Y1325D02*
X1180Y1327D01*
X1182D01*
X1180Y1329D01*
X1182Y1331D01*
X1180D01*
X1178Y1333D01*
X1176Y1331D01*
X1174D01*
X1176Y1329D01*
X1174Y1327D01*
X1176D01*
X1178Y1325D01*
X1178Y1373D02*
X1182Y1377D01*
X1186D01*
X1182Y1381D01*
X1186Y1385D01*
X1182D01*
X1178Y1389D01*
X1174Y1385D01*
X1170D01*
X1174Y1381D01*
X1170Y1377D01*
X1174D01*
X1178Y1373D01*
Y1377D02*
X1180Y1379D01*
X1182D01*
X1180Y1381D01*
X1182Y1383D01*
X1180D01*
X1178Y1385D01*
X1176Y1383D01*
X1174D01*
X1176Y1381D01*
X1174Y1379D01*
X1176D01*
X1178Y1377D01*
X1178Y1413D02*
X1182Y1417D01*
X1186D01*
X1182Y1421D01*
X1186Y1425D01*
X1182D01*
X1178Y1429D01*
X1174Y1425D01*
X1170D01*
X1174Y1421D01*
X1170Y1417D01*
X1174D01*
X1178Y1413D01*
Y1417D02*
X1180Y1419D01*
X1182D01*
X1180Y1421D01*
X1182Y1423D01*
X1180D01*
X1178Y1425D01*
X1176Y1423D01*
X1174D01*
X1176Y1421D01*
X1174Y1419D01*
X1176D01*
X1178Y1417D01*
X1148Y1857D02*
X1140Y1873D01*
X1156D01*
X1148Y1857D01*
Y1861D02*
X1144Y1869D01*
X1152D01*
X1148Y1861D01*
X1228Y1321D02*
X1232Y1325D01*
X1236D01*
X1232Y1329D01*
X1236Y1333D01*
X1232D01*
X1228Y1337D01*
X1224Y1333D01*
X1220D01*
X1224Y1329D01*
X1220Y1325D01*
X1224D01*
X1228Y1321D01*
Y1325D02*
X1230Y1327D01*
X1232D01*
X1230Y1329D01*
X1232Y1331D01*
X1230D01*
X1228Y1333D01*
X1226Y1331D01*
X1224D01*
X1226Y1329D01*
X1224Y1327D01*
X1226D01*
X1228Y1325D01*
X1228Y1373D02*
X1232Y1377D01*
X1236D01*
X1232Y1381D01*
X1236Y1385D01*
X1232D01*
X1228Y1389D01*
X1224Y1385D01*
X1220D01*
X1224Y1381D01*
X1220Y1377D01*
X1224D01*
X1228Y1373D01*
Y1377D02*
X1230Y1379D01*
X1232D01*
X1230Y1381D01*
X1232Y1383D01*
X1230D01*
X1228Y1385D01*
X1226Y1383D01*
X1224D01*
X1226Y1381D01*
X1224Y1379D01*
X1226D01*
X1228Y1377D01*
X1228Y1413D02*
X1232Y1417D01*
X1236D01*
X1232Y1421D01*
X1236Y1425D01*
X1232D01*
X1228Y1429D01*
X1224Y1425D01*
X1220D01*
X1224Y1421D01*
X1220Y1417D01*
X1224D01*
X1228Y1413D01*
Y1417D02*
X1230Y1419D01*
X1232D01*
X1230Y1421D01*
X1232Y1423D01*
X1230D01*
X1228Y1425D01*
X1226Y1423D01*
X1224D01*
X1226Y1421D01*
X1224Y1419D01*
X1226D01*
X1228Y1417D01*
X1271Y1859D02*
X1263Y1875D01*
X1279D01*
X1271Y1859D01*
Y1863D02*
X1267Y1871D01*
X1275D01*
X1271Y1863D01*
X480Y3281D02*
X472Y3297D01*
X488D01*
X480Y3281D01*
Y3285D02*
X476Y3293D01*
X484D01*
X480Y3285D01*
X766Y3260D02*
X758Y3276D01*
X774D01*
X766Y3260D01*
Y3264D02*
X762Y3272D01*
X770D01*
X766Y3264D01*
X480Y3320D02*
X472Y3336D01*
X488D01*
X480Y3320D01*
Y3324D02*
X476Y3332D01*
X484D01*
X480Y3324D01*
X1905Y2274D02*
X1897Y2290D01*
X1913D01*
X1905Y2274D01*
Y2278D02*
X1901Y2286D01*
X1909D01*
X1905Y2278D01*
X480Y3360D02*
X472Y3376D01*
X488D01*
X480Y3360D01*
Y3364D02*
X476Y3372D01*
X484D01*
X480Y3364D01*
Y3397D02*
X472Y3413D01*
X488D01*
X480Y3397D01*
Y3401D02*
X476Y3409D01*
X484D01*
X480Y3401D01*
X1677Y2335D02*
X1669Y2351D01*
X1685D01*
X1677Y2335D01*
Y2339D02*
X1673Y2347D01*
X1681D01*
X1677Y2339D01*
X2028Y2491D02*
X2020Y2507D01*
X2036D01*
X2028Y2491D01*
Y2495D02*
X2024Y2503D01*
X2032D01*
X2028Y2495D01*
X1598Y2715D02*
X1590Y2731D01*
X1606D01*
X1598Y2715D01*
Y2719D02*
X1594Y2727D01*
X1602D01*
X1598Y2719D01*
X425Y4253D02*
X429Y4257D01*
X433D01*
X429Y4261D01*
X433Y4265D01*
X429D01*
X425Y4269D01*
X421Y4265D01*
X417D01*
X421Y4261D01*
X417Y4257D01*
X421D01*
X425Y4253D01*
Y4257D02*
X427Y4259D01*
X429D01*
X427Y4261D01*
X429Y4263D01*
X427D01*
X425Y4265D01*
X423Y4263D01*
X421D01*
X423Y4261D01*
X421Y4259D01*
X423D01*
X425Y4257D01*
X594Y3500D02*
X586Y3516D01*
X602D01*
X594Y3500D01*
Y3504D02*
X590Y3512D01*
X598D01*
X594Y3504D01*
X766Y3306D02*
X758Y3322D01*
X774D01*
X766Y3306D01*
Y3310D02*
X762Y3318D01*
X770D01*
X766Y3310D01*
Y3343D02*
X758Y3359D01*
X774D01*
X766Y3343D01*
Y3347D02*
X762Y3355D01*
X770D01*
X766Y3347D01*
Y3376D02*
X758Y3392D01*
X774D01*
X766Y3376D01*
Y3380D02*
X762Y3388D01*
X770D01*
X766Y3380D01*
Y3497D02*
X758Y3513D01*
X774D01*
X766Y3497D01*
Y3501D02*
X762Y3509D01*
X770D01*
X766Y3501D01*
X784Y4684D02*
X788Y4688D01*
X792D01*
X788Y4692D01*
X792Y4696D01*
X788D01*
X784Y4700D01*
X780Y4696D01*
X776D01*
X780Y4692D01*
X776Y4688D01*
X780D01*
X784Y4684D01*
Y4688D02*
X786Y4690D01*
X788D01*
X786Y4692D01*
X788Y4694D01*
X786D01*
X784Y4696D01*
X782Y4694D01*
X780D01*
X782Y4692D01*
X780Y4690D01*
X782D01*
X784Y4688D01*
X826Y4502D02*
X830Y4506D01*
X834D01*
X830Y4510D01*
X834Y4514D01*
X830D01*
X826Y4518D01*
X822Y4514D01*
X818D01*
X822Y4510D01*
X818Y4506D01*
X822D01*
X826Y4502D01*
Y4506D02*
X828Y4508D01*
X830D01*
X828Y4510D01*
X830Y4512D01*
X828D01*
X826Y4514D01*
X824Y4512D01*
X822D01*
X824Y4510D01*
X822Y4508D01*
X824D01*
X826Y4506D01*
X836Y4606D02*
X840Y4610D01*
X844D01*
X840Y4614D01*
X844Y4618D01*
X840D01*
X836Y4622D01*
X832Y4618D01*
X828D01*
X832Y4614D01*
X828Y4610D01*
X832D01*
X836Y4606D01*
Y4610D02*
X838Y4612D01*
X840D01*
X838Y4614D01*
X840Y4616D01*
X838D01*
X836Y4618D01*
X834Y4616D01*
X832D01*
X834Y4614D01*
X832Y4612D01*
X834D01*
X836Y4610D01*
X1058Y4511D02*
X1062Y4515D01*
X1066D01*
X1062Y4519D01*
X1066Y4523D01*
X1062D01*
X1058Y4527D01*
X1054Y4523D01*
X1050D01*
X1054Y4519D01*
X1050Y4515D01*
X1054D01*
X1058Y4511D01*
Y4515D02*
X1060Y4517D01*
X1062D01*
X1060Y4519D01*
X1062Y4521D01*
X1060D01*
X1058Y4523D01*
X1056Y4521D01*
X1054D01*
X1056Y4519D01*
X1054Y4517D01*
X1056D01*
X1058Y4515D01*
X1129Y4420D02*
X1121Y4436D01*
X1137D01*
X1129Y4420D01*
Y4424D02*
X1125Y4432D01*
X1133D01*
X1129Y4424D01*
Y4366D02*
X1121Y4382D01*
X1137D01*
X1129Y4366D01*
Y4370D02*
X1125Y4378D01*
X1133D01*
X1129Y4370D01*
X1183Y4366D02*
X1175Y4382D01*
X1191D01*
X1183Y4366D01*
Y4370D02*
X1179Y4378D01*
X1187D01*
X1183Y4370D01*
X1129Y4469D02*
X1121Y4485D01*
X1137D01*
X1129Y4469D01*
Y4473D02*
X1125Y4481D01*
X1133D01*
X1129Y4473D01*
X1205Y4442D02*
X1209Y4446D01*
X1213D01*
X1209Y4450D01*
X1213Y4454D01*
X1209D01*
X1205Y4458D01*
X1201Y4454D01*
X1197D01*
X1201Y4450D01*
X1197Y4446D01*
X1201D01*
X1205Y4442D01*
X960Y4681D02*
X964Y4685D01*
X968D01*
X964Y4689D01*
X968Y4693D01*
X964D01*
X960Y4697D01*
X956Y4693D01*
X952D01*
X956Y4689D01*
X952Y4685D01*
X956D01*
X960Y4681D01*
Y4685D02*
X962Y4687D01*
X964D01*
X962Y4689D01*
X964Y4691D01*
X962D01*
X960Y4693D01*
X958Y4691D01*
X956D01*
X958Y4689D01*
X956Y4687D01*
X958D01*
X960Y4685D01*
X1129Y4518D02*
X1121Y4534D01*
X1137D01*
X1129Y4518D01*
Y4522D02*
X1125Y4530D01*
X1133D01*
X1129Y4522D01*
X1096Y4576D02*
X1088Y4592D01*
X1104D01*
X1096Y4576D01*
Y4580D02*
X1092Y4588D01*
X1100D01*
X1096Y4580D01*
X1183Y4518D02*
X1175Y4534D01*
X1191D01*
X1183Y4518D01*
Y4522D02*
X1179Y4530D01*
X1187D01*
X1183Y4522D01*
X1108Y4938D02*
X1112Y4942D01*
X1116D01*
X1112Y4946D01*
X1116Y4950D01*
X1112D01*
X1108Y4954D01*
X1104Y4950D01*
X1100D01*
X1104Y4946D01*
X1100Y4942D01*
X1104D01*
X1108Y4938D01*
Y4942D02*
X1110Y4944D01*
X1112D01*
X1110Y4946D01*
X1112Y4948D01*
X1110D01*
X1108Y4950D01*
X1106Y4948D01*
X1104D01*
X1106Y4946D01*
X1104Y4944D01*
X1106D01*
X1108Y4942D01*
X1161Y4855D02*
X1165Y4859D01*
X1169D01*
X1165Y4863D01*
X1169Y4867D01*
X1165D01*
X1161Y4871D01*
X1157Y4867D01*
X1153D01*
X1157Y4863D01*
X1153Y4859D01*
X1157D01*
X1161Y4855D01*
Y4859D02*
X1163Y4861D01*
X1165D01*
X1163Y4863D01*
X1165Y4865D01*
X1163D01*
X1161Y4867D01*
X1159Y4865D01*
X1157D01*
X1159Y4863D01*
X1157Y4861D01*
X1159D01*
X1161Y4859D01*
X1137Y5060D02*
X1141Y5064D01*
X1145D01*
X1141Y5068D01*
X1145Y5072D01*
X1141D01*
X1137Y5076D01*
X1133Y5072D01*
X1129D01*
X1133Y5068D01*
X1129Y5064D01*
X1133D01*
X1137Y5060D01*
Y5064D02*
X1139Y5066D01*
X1141D01*
X1139Y5068D01*
X1141Y5070D01*
X1139D01*
X1137Y5072D01*
X1135Y5070D01*
X1133D01*
X1135Y5068D01*
X1133Y5066D01*
X1135D01*
X1137Y5064D01*
X1232Y4366D02*
X1224Y4382D01*
X1240D01*
X1232Y4366D01*
Y4370D02*
X1228Y4378D01*
X1236D01*
X1232Y4370D01*
X1237Y4288D02*
X1229Y4304D01*
X1245D01*
X1237Y4288D01*
Y4292D02*
X1233Y4300D01*
X1241D01*
X1237Y4292D01*
X1232Y4518D02*
X1224Y4534D01*
X1240D01*
X1232Y4518D01*
Y4522D02*
X1228Y4530D01*
X1236D01*
X1232Y4522D01*
X1239Y4864D02*
X1243Y4868D01*
X1247D01*
X1243Y4872D01*
X1247Y4876D01*
X1243D01*
X1239Y4880D01*
X1235Y4876D01*
X1231D01*
X1235Y4872D01*
X1231Y4868D01*
X1235D01*
X1239Y4864D01*
Y4868D02*
X1241Y4870D01*
X1243D01*
X1241Y4872D01*
X1243Y4874D01*
X1241D01*
X1239Y4876D01*
X1237Y4874D01*
X1235D01*
X1237Y4872D01*
X1235Y4870D01*
X1237D01*
X1239Y4868D01*
X1281Y4469D02*
X1273Y4485D01*
X1289D01*
X1281Y4469D01*
Y4473D02*
X1277Y4481D01*
X1285D01*
X1281Y4473D01*
Y4366D02*
X1273Y4382D01*
X1289D01*
X1281Y4366D01*
Y4370D02*
X1277Y4378D01*
X1285D01*
X1281Y4370D01*
Y4420D02*
X1273Y4436D01*
X1289D01*
X1281Y4420D01*
Y4424D02*
X1277Y4432D01*
X1285D01*
X1281Y4424D01*
Y4518D02*
X1273Y4534D01*
X1289D01*
X1281Y4518D01*
Y4522D02*
X1277Y4530D01*
X1285D01*
X1281Y4522D01*
X1297Y4566D02*
X1289Y4582D01*
X1305D01*
X1297Y4566D01*
Y4570D02*
X1293Y4578D01*
X1301D01*
X1297Y4570D01*
X1351Y4514D02*
X1343Y4530D01*
X1359D01*
X1351Y4514D01*
Y4518D02*
X1347Y4526D01*
X1355D01*
X1351Y4518D01*
X1317Y4946D02*
X1321Y4950D01*
X1325D01*
X1321Y4954D01*
X1325Y4958D01*
X1321D01*
X1317Y4962D01*
X1313Y4958D01*
X1309D01*
X1313Y4954D01*
X1309Y4950D01*
X1313D01*
X1317Y4946D01*
Y4950D02*
X1319Y4952D01*
X1321D01*
X1319Y4954D01*
X1321Y4956D01*
X1319D01*
X1317Y4958D01*
X1315Y4956D01*
X1313D01*
X1315Y4954D01*
X1313Y4952D01*
X1315D01*
X1317Y4950D01*
X1589Y492D02*
X1581Y508D01*
X1597D01*
X1589Y492D01*
Y496D02*
X1585Y504D01*
X1593D01*
X1589Y496D01*
X1778Y569D02*
X1770Y585D01*
X1786D01*
X1778Y569D01*
Y573D02*
X1774Y581D01*
X1782D01*
X1778Y573D01*
X1495Y807D02*
X1487Y823D01*
X1503D01*
X1495Y807D01*
Y811D02*
X1491Y819D01*
X1499D01*
X1495Y811D01*
X1777Y627D02*
X1769Y643D01*
X1785D01*
X1777Y627D01*
Y631D02*
X1773Y639D01*
X1781D01*
X1777Y631D01*
Y678D02*
X1769Y694D01*
X1785D01*
X1777Y678D01*
Y682D02*
X1773Y690D01*
X1781D01*
X1777Y682D01*
X1775Y735D02*
X1767Y751D01*
X1783D01*
X1775Y735D01*
Y739D02*
X1771Y747D01*
X1779D01*
X1775Y739D01*
X1799Y235D02*
X1791Y251D01*
X1807D01*
X1799Y235D01*
Y239D02*
X1795Y247D01*
X1803D01*
X1799Y239D01*
X1899Y150D02*
X1891Y166D01*
X1907D01*
X1899Y150D01*
Y154D02*
X1895Y162D01*
X1903D01*
X1899Y154D01*
X1852Y192D02*
X1844Y208D01*
X1860D01*
X1852Y192D01*
Y196D02*
X1848Y204D01*
X1856D01*
X1852Y196D01*
X1779Y288D02*
X1771Y304D01*
X1787D01*
X1779Y288D01*
Y292D02*
X1775Y300D01*
X1783D01*
X1779Y292D01*
X1854Y288D02*
X1846Y304D01*
X1862D01*
X1854Y288D01*
Y292D02*
X1850Y300D01*
X1858D01*
X1854Y292D01*
X1849Y344D02*
X1841Y360D01*
X1857D01*
X1849Y344D01*
Y348D02*
X1845Y356D01*
X1853D01*
X1849Y348D01*
X1947Y107D02*
X1939Y123D01*
X1955D01*
X1947Y107D01*
Y111D02*
X1943Y119D01*
X1951D01*
X1947Y111D01*
X2101Y90D02*
X2093Y106D01*
X2109D01*
X2101Y90D01*
Y94D02*
X2097Y102D01*
X2105D01*
X2101Y94D01*
X2019Y92D02*
X2011Y108D01*
X2027D01*
X2019Y92D01*
Y96D02*
X2015Y104D01*
X2023D01*
X2019Y96D01*
X1950Y199D02*
X1942Y215D01*
X1958D01*
X1950Y199D01*
Y203D02*
X1946Y211D01*
X1954D01*
X1950Y203D01*
X1900Y244D02*
X1892Y260D01*
X1908D01*
X1900Y244D01*
Y248D02*
X1896Y256D01*
X1904D01*
X1900Y248D01*
X2059Y156D02*
X2051Y172D01*
X2067D01*
X2059Y156D01*
Y160D02*
X2055Y168D01*
X2063D01*
X2059Y160D01*
X1991Y158D02*
X1983Y174D01*
X1999D01*
X1991Y158D01*
Y162D02*
X1987Y170D01*
X1995D01*
X1991Y162D01*
X1780Y348D02*
X1772Y364D01*
X1788D01*
X1780Y348D01*
Y352D02*
X1776Y360D01*
X1784D01*
X1780Y352D01*
X1782Y401D02*
X1774Y417D01*
X1790D01*
X1782Y401D01*
Y405D02*
X1778Y413D01*
X1786D01*
X1782Y405D01*
X1781Y455D02*
X1773Y471D01*
X1789D01*
X1781Y455D01*
Y459D02*
X1777Y467D01*
X1785D01*
X1781Y459D01*
X1780Y516D02*
X1772Y532D01*
X1788D01*
X1780Y516D01*
Y520D02*
X1776Y528D01*
X1784D01*
X1780Y520D01*
X1847Y731D02*
X1839Y747D01*
X1855D01*
X1847Y731D01*
Y735D02*
X1843Y743D01*
X1851D01*
X1847Y735D01*
X1780Y790D02*
X1772Y806D01*
X1788D01*
X1780Y790D01*
Y794D02*
X1776Y802D01*
X1784D01*
X1780Y794D01*
X1850Y513D02*
X1842Y529D01*
X1858D01*
X1850Y513D01*
Y517D02*
X1846Y525D01*
X1854D01*
X1850Y517D01*
X1851Y400D02*
X1843Y416D01*
X1859D01*
X1851Y400D01*
Y404D02*
X1847Y412D01*
X1855D01*
X1851Y404D01*
X1858Y452D02*
X1850Y468D01*
X1866D01*
X1858Y452D01*
Y456D02*
X1854Y464D01*
X1862D01*
X1858Y456D01*
X1850Y626D02*
X1842Y642D01*
X1858D01*
X1850Y626D01*
Y630D02*
X1846Y638D01*
X1854D01*
X1850Y630D01*
X1847Y675D02*
X1839Y691D01*
X1855D01*
X1847Y675D01*
Y679D02*
X1843Y687D01*
X1851D01*
X1847Y679D01*
X1853Y569D02*
X1845Y585D01*
X1861D01*
X1853Y569D01*
Y573D02*
X1849Y581D01*
X1857D01*
X1853Y573D01*
X1854Y791D02*
X1846Y807D01*
X1862D01*
X1854Y791D01*
Y795D02*
X1850Y803D01*
X1858D01*
X1854Y795D01*
X1402Y1104D02*
X1394Y1120D01*
X1410D01*
X1402Y1104D01*
Y1108D02*
X1398Y1116D01*
X1406D01*
X1402Y1108D01*
X1445Y913D02*
X1437Y929D01*
X1453D01*
X1445Y913D01*
Y917D02*
X1441Y925D01*
X1449D01*
X1445Y917D01*
X1555Y1466D02*
X1547Y1482D01*
X1563D01*
X1555Y1466D01*
Y1470D02*
X1551Y1478D01*
X1559D01*
X1555Y1470D01*
X1559Y1407D02*
X1551Y1423D01*
X1567D01*
X1559Y1407D01*
Y1411D02*
X1555Y1419D01*
X1563D01*
X1559Y1411D01*
X1632Y1520D02*
X1624Y1536D01*
X1640D01*
X1632Y1520D01*
Y1524D02*
X1628Y1532D01*
X1636D01*
X1632Y1524D01*
X1558Y1521D02*
X1550Y1537D01*
X1566D01*
X1558Y1521D01*
Y1525D02*
X1554Y1533D01*
X1562D01*
X1558Y1525D01*
Y1576D02*
X1550Y1592D01*
X1566D01*
X1558Y1576D01*
Y1580D02*
X1554Y1588D01*
X1562D01*
X1558Y1580D01*
X1632Y1633D02*
X1624Y1649D01*
X1640D01*
X1632Y1633D01*
Y1637D02*
X1628Y1645D01*
X1636D01*
X1632Y1637D01*
X1555Y1691D02*
X1547Y1707D01*
X1563D01*
X1555Y1691D01*
Y1695D02*
X1551Y1703D01*
X1559D01*
X1555Y1695D01*
X1558Y1634D02*
X1550Y1650D01*
X1566D01*
X1558Y1634D01*
Y1638D02*
X1554Y1646D01*
X1562D01*
X1558Y1638D01*
X1774Y1013D02*
X1766Y1029D01*
X1782D01*
X1774Y1013D01*
Y1017D02*
X1770Y1025D01*
X1778D01*
X1774Y1017D01*
X1781Y905D02*
X1773Y921D01*
X1789D01*
X1781Y905D01*
Y909D02*
X1777Y917D01*
X1785D01*
X1781Y909D01*
X1775Y962D02*
X1767Y978D01*
X1783D01*
X1775Y962D01*
Y966D02*
X1771Y974D01*
X1779D01*
X1775Y966D01*
X1671Y1124D02*
X1663Y1140D01*
X1679D01*
X1671Y1124D01*
Y1128D02*
X1667Y1136D01*
X1675D01*
X1671Y1128D01*
X1738Y1050D02*
X1730Y1066D01*
X1746D01*
X1738Y1050D01*
Y1054D02*
X1734Y1062D01*
X1742D01*
X1738Y1054D01*
X1707Y1087D02*
X1699Y1103D01*
X1715D01*
X1707Y1087D01*
Y1091D02*
X1703Y1099D01*
X1711D01*
X1707Y1091D01*
X1781Y852D02*
X1773Y868D01*
X1789D01*
X1781Y852D01*
Y856D02*
X1777Y864D01*
X1785D01*
X1781Y856D01*
X1848Y851D02*
X1840Y867D01*
X1856D01*
X1848Y851D01*
Y855D02*
X1844Y863D01*
X1852D01*
X1848Y855D01*
X1844Y903D02*
X1836Y919D01*
X1852D01*
X1844Y903D01*
Y907D02*
X1840Y915D01*
X1848D01*
X1844Y907D01*
X1825Y1064D02*
X1817Y1080D01*
X1833D01*
X1825Y1064D01*
Y1068D02*
X1821Y1076D01*
X1829D01*
X1825Y1068D01*
X1794Y1096D02*
X1786Y1112D01*
X1802D01*
X1794Y1096D01*
Y1100D02*
X1790Y1108D01*
X1798D01*
X1794Y1100D01*
X1847Y957D02*
X1839Y973D01*
X1855D01*
X1847Y957D01*
Y961D02*
X1843Y969D01*
X1851D01*
X1847Y961D01*
Y1009D02*
X1839Y1025D01*
X1855D01*
X1847Y1009D01*
Y1013D02*
X1843Y1021D01*
X1851D01*
X1847Y1013D01*
X1636Y1157D02*
X1628Y1173D01*
X1644D01*
X1636Y1157D01*
Y1161D02*
X1632Y1169D01*
X1640D01*
X1636Y1161D01*
X1696Y1190D02*
X1688Y1206D01*
X1704D01*
X1696Y1190D01*
Y1194D02*
X1692Y1202D01*
X1700D01*
X1696Y1194D01*
X1643Y1407D02*
X1635Y1423D01*
X1651D01*
X1643Y1407D01*
Y1411D02*
X1639Y1419D01*
X1647D01*
X1643Y1411D01*
X1632Y1575D02*
X1624Y1591D01*
X1640D01*
X1632Y1575D01*
Y1579D02*
X1628Y1587D01*
X1636D01*
X1632Y1579D01*
X1633Y1465D02*
X1625Y1481D01*
X1641D01*
X1633Y1465D01*
Y1469D02*
X1629Y1477D01*
X1637D01*
X1633Y1469D01*
X1635Y1690D02*
X1627Y1706D01*
X1643D01*
X1635Y1690D01*
Y1694D02*
X1631Y1702D01*
X1639D01*
X1635Y1694D01*
X1758Y1128D02*
X1750Y1144D01*
X1766D01*
X1758Y1128D01*
Y1132D02*
X1754Y1140D01*
X1762D01*
X1758Y1132D01*
X1725Y1162D02*
X1717Y1178D01*
X1733D01*
X1725Y1162D01*
Y1166D02*
X1721Y1174D01*
X1729D01*
X1725Y1166D01*
X2106Y480D02*
X2098Y496D01*
X2114D01*
X2106Y480D01*
Y484D02*
X2102Y492D01*
X2110D01*
X2106Y484D01*
X2140Y157D02*
X2132Y173D01*
X2148D01*
X2140Y157D01*
Y161D02*
X2136Y169D01*
X2144D01*
X2140Y161D01*
X2174Y380D02*
X2166Y396D01*
X2182D01*
X2174Y380D01*
Y384D02*
X2170Y392D01*
X2178D01*
X2174Y384D01*
X2128Y897D02*
X2120Y913D01*
X2136D01*
X2128Y897D01*
Y901D02*
X2124Y909D01*
X2132D01*
X2128Y901D01*
X2180Y88D02*
X2172Y104D01*
X2188D01*
X2180Y88D01*
Y92D02*
X2176Y100D01*
X2184D01*
X2180Y92D01*
X2233Y492D02*
X2225Y508D01*
X2241D01*
X2233Y492D01*
Y496D02*
X2229Y504D01*
X2237D01*
X2233Y496D01*
X2309Y907D02*
X2301Y923D01*
X2317D01*
X2309Y907D01*
Y911D02*
X2305Y919D01*
X2313D01*
X2309Y911D01*
X2329Y1102D02*
X2321Y1118D01*
X2337D01*
X2329Y1102D01*
Y1106D02*
X2325Y1114D01*
X2333D01*
X2329Y1106D01*
X2149Y1120D02*
X2141Y1136D01*
X2157D01*
X2149Y1120D01*
Y1124D02*
X2145Y1132D01*
X2153D01*
X2149Y1124D01*
X2290Y1338D02*
X2282Y1354D01*
X2298D01*
X2290Y1338D01*
Y1342D02*
X2286Y1350D01*
X2294D01*
X2290Y1342D01*
X1626Y1841D02*
X1618Y1857D01*
X1634D01*
X1626Y1841D01*
Y1845D02*
X1622Y1853D01*
X1630D01*
X1626Y1845D01*
X1444Y1849D02*
X1436Y1865D01*
X1452D01*
X1444Y1849D01*
Y1853D02*
X1440Y1861D01*
X1448D01*
X1444Y1853D01*
X2370Y1852D02*
X2362Y1868D01*
X2378D01*
X2370Y1852D01*
Y1856D02*
X2366Y1864D01*
X2374D01*
X2370Y1856D01*
X2155Y1859D02*
X2147Y1875D01*
X2163D01*
X2155Y1859D01*
Y1863D02*
X2151Y1871D01*
X2159D01*
X2155Y1863D01*
X2552Y155D02*
X2544Y171D01*
X2560D01*
X2552Y155D01*
Y159D02*
X2548Y167D01*
X2556D01*
X2552Y159D01*
X2590Y85D02*
X2582Y101D01*
X2598D01*
X2590Y85D01*
Y89D02*
X2586Y97D01*
X2594D01*
X2590Y89D01*
X2641Y154D02*
X2633Y170D01*
X2649D01*
X2641Y154D01*
Y158D02*
X2637Y166D01*
X2645D01*
X2641Y158D01*
X2665Y506D02*
X2657Y522D01*
X2673D01*
X2665Y506D01*
Y510D02*
X2661Y518D01*
X2669D01*
X2665Y510D01*
X2518Y803D02*
X2510Y819D01*
X2526D01*
X2518Y803D01*
Y807D02*
X2514Y815D01*
X2522D01*
X2518Y807D01*
X2627Y713D02*
X2619Y729D01*
X2635D01*
X2627Y713D01*
Y717D02*
X2623Y725D01*
X2631D01*
X2627Y717D01*
X2685Y83D02*
X2677Y99D01*
X2693D01*
X2685Y83D01*
Y87D02*
X2681Y95D01*
X2689D01*
X2685Y87D01*
X2771Y83D02*
X2763Y99D01*
X2779D01*
X2771Y83D01*
Y87D02*
X2767Y95D01*
X2775D01*
X2771Y87D01*
X2733Y152D02*
X2725Y168D01*
X2741D01*
X2733Y152D01*
Y156D02*
X2729Y164D01*
X2737D01*
X2733Y156D01*
X2813Y152D02*
X2805Y168D01*
X2821D01*
X2813Y152D01*
Y156D02*
X2809Y164D01*
X2817D01*
X2813Y156D01*
X2831Y383D02*
X2823Y399D01*
X2839D01*
X2831Y383D01*
Y387D02*
X2827Y395D01*
X2835D01*
X2831Y387D01*
X2840Y83D02*
X2832Y99D01*
X2848D01*
X2840Y83D01*
Y87D02*
X2836Y95D01*
X2844D01*
X2840Y87D01*
X2710Y713D02*
X2702Y729D01*
X2718D01*
X2710Y713D01*
Y717D02*
X2706Y725D01*
X2714D01*
X2710Y717D01*
X2807Y489D02*
X2799Y505D01*
X2815D01*
X2807Y489D01*
Y493D02*
X2803Y501D01*
X2811D01*
X2807Y493D01*
X2510Y913D02*
X2502Y929D01*
X2518D01*
X2510Y913D01*
Y917D02*
X2506Y925D01*
X2514D01*
X2510Y917D01*
X2583Y915D02*
X2575Y931D01*
X2591D01*
X2583Y915D01*
Y919D02*
X2579Y927D01*
X2587D01*
X2583Y919D01*
X2658Y915D02*
X2650Y931D01*
X2666D01*
X2658Y915D01*
Y919D02*
X2654Y927D01*
X2662D01*
X2658Y919D01*
X2727Y908D02*
X2719Y924D01*
X2735D01*
X2727Y908D01*
Y912D02*
X2723Y920D01*
X2731D01*
X2727Y912D01*
X2621Y953D02*
X2625Y957D01*
X2629D01*
X2625Y961D01*
X2629Y965D01*
X2625D01*
X2621Y969D01*
X2617Y965D01*
X2613D01*
X2617Y961D01*
X2613Y957D01*
X2617D01*
X2621Y953D01*
Y957D02*
X2623Y959D01*
X2625D01*
X2623Y961D01*
X2625Y963D01*
X2623D01*
X2621Y965D01*
X2619Y963D01*
X2617D01*
X2619Y961D01*
X2617Y959D01*
X2619D01*
X2621Y957D01*
X3237Y151D02*
X3229Y167D01*
X3245D01*
X3237Y151D01*
Y155D02*
X3233Y163D01*
X3241D01*
X3237Y155D01*
X3265Y75D02*
X3257Y91D01*
X3273D01*
X3265Y75D01*
Y79D02*
X3261Y87D01*
X3269D01*
X3265Y79D01*
X3345Y84D02*
X3337Y100D01*
X3353D01*
X3345Y84D01*
Y88D02*
X3341Y96D01*
X3349D01*
X3345Y88D01*
X3322Y152D02*
X3314Y168D01*
X3330D01*
X3322Y152D01*
Y156D02*
X3318Y164D01*
X3326D01*
X3322Y156D01*
X3401Y152D02*
X3393Y168D01*
X3409D01*
X3401Y152D01*
Y156D02*
X3397Y164D01*
X3405D01*
X3401Y156D01*
X3418Y85D02*
X3410Y101D01*
X3426D01*
X3418Y85D01*
Y89D02*
X3414Y97D01*
X3422D01*
X3418Y89D01*
X3504Y87D02*
X3496Y103D01*
X3512D01*
X3504Y87D01*
Y91D02*
X3500Y99D01*
X3508D01*
X3504Y91D01*
X3469Y154D02*
X3461Y170D01*
X3477D01*
X3469Y154D01*
Y158D02*
X3465Y166D01*
X3473D01*
X3469Y158D01*
X3513Y192D02*
X3505Y208D01*
X3521D01*
X3513Y192D01*
Y196D02*
X3509Y204D01*
X3517D01*
X3513Y196D01*
X3573Y246D02*
X3565Y262D01*
X3581D01*
X3573Y246D01*
Y250D02*
X3569Y258D01*
X3577D01*
X3573Y250D01*
X3085Y492D02*
X3077Y508D01*
X3093D01*
X3085Y492D01*
Y496D02*
X3081Y504D01*
X3089D01*
X3085Y496D01*
X3229Y477D02*
X3221Y493D01*
X3237D01*
X3229Y477D01*
Y481D02*
X3225Y489D01*
X3233D01*
X3229Y481D01*
X3807Y82D02*
X3811Y86D01*
X3815D01*
X3811Y90D01*
X3815Y94D01*
X3811D01*
X3807Y98D01*
X3803Y94D01*
X3799D01*
X3803Y90D01*
X3799Y86D01*
X3803D01*
X3807Y82D01*
Y86D02*
X3809Y88D01*
X3811D01*
X3809Y90D01*
X3811Y92D01*
X3809D01*
X3807Y94D01*
X3805Y92D01*
X3803D01*
X3805Y90D01*
X3803Y88D01*
X3805D01*
X3807Y86D01*
X3560Y136D02*
X3552Y152D01*
X3568D01*
X3560Y136D01*
Y140D02*
X3556Y148D01*
X3564D01*
X3560Y140D01*
X3615Y190D02*
X3607Y206D01*
X3623D01*
X3615Y190D01*
Y194D02*
X3611Y202D01*
X3619D01*
X3615Y194D01*
X3630Y310D02*
X3622Y326D01*
X3638D01*
X3630Y310D01*
Y314D02*
X3626Y322D01*
X3634D01*
X3630Y314D01*
X3641Y365D02*
X3633Y381D01*
X3649D01*
X3641Y365D01*
Y369D02*
X3637Y377D01*
X3645D01*
X3641Y369D01*
X3642Y433D02*
X3634Y449D01*
X3650D01*
X3642Y433D01*
Y437D02*
X3638Y445D01*
X3646D01*
X3642Y437D01*
X3639Y558D02*
X3631Y574D01*
X3647D01*
X3639Y558D01*
Y562D02*
X3635Y570D01*
X3643D01*
X3639Y562D01*
X3643Y494D02*
X3635Y510D01*
X3651D01*
X3643Y494D01*
Y498D02*
X3639Y506D01*
X3647D01*
X3643Y498D01*
X3641Y625D02*
X3633Y641D01*
X3649D01*
X3641Y625D01*
Y629D02*
X3637Y637D01*
X3645D01*
X3641Y629D01*
X3711Y347D02*
X3703Y363D01*
X3719D01*
X3711Y347D01*
Y351D02*
X3707Y359D01*
X3715D01*
X3711Y351D01*
X3682Y257D02*
X3674Y273D01*
X3690D01*
X3682Y257D01*
Y261D02*
X3678Y269D01*
X3686D01*
X3682Y261D01*
X3714Y559D02*
X3706Y575D01*
X3722D01*
X3714Y559D01*
Y563D02*
X3710Y571D01*
X3718D01*
X3714Y563D01*
X3713Y629D02*
X3705Y645D01*
X3721D01*
X3713Y629D01*
Y633D02*
X3709Y641D01*
X3717D01*
X3713Y633D01*
X3719Y434D02*
X3711Y450D01*
X3727D01*
X3719Y434D01*
Y438D02*
X3715Y446D01*
X3723D01*
X3719Y438D01*
X3714Y499D02*
X3706Y515D01*
X3722D01*
X3714Y499D01*
Y503D02*
X3710Y511D01*
X3718D01*
X3714Y503D01*
X3185Y673D02*
X3177Y689D01*
X3193D01*
X3185Y673D01*
Y677D02*
X3181Y685D01*
X3189D01*
X3185Y677D01*
X3712Y694D02*
X3704Y710D01*
X3720D01*
X3712Y694D01*
Y698D02*
X3708Y706D01*
X3716D01*
X3712Y698D01*
X3644Y697D02*
X3636Y713D01*
X3652D01*
X3644Y697D01*
Y701D02*
X3640Y709D01*
X3648D01*
X3644Y701D01*
X3642Y753D02*
X3634Y769D01*
X3650D01*
X3642Y753D01*
Y757D02*
X3638Y765D01*
X3646D01*
X3642Y757D01*
X2937Y908D02*
X2929Y924D01*
X2945D01*
X2937Y908D01*
Y912D02*
X2933Y920D01*
X2941D01*
X2937Y912D01*
X2993Y812D02*
X2985Y828D01*
X3001D01*
X2993Y812D01*
Y816D02*
X2989Y824D01*
X2997D01*
X2993Y816D01*
X3642Y814D02*
X3634Y830D01*
X3650D01*
X3642Y814D01*
Y818D02*
X3638Y826D01*
X3646D01*
X3642Y818D01*
Y874D02*
X3634Y890D01*
X3650D01*
X3642Y874D01*
Y878D02*
X3638Y886D01*
X3646D01*
X3642Y878D01*
X3586Y938D02*
X3578Y954D01*
X3594D01*
X3586Y938D01*
Y942D02*
X3582Y950D01*
X3590D01*
X3586Y942D01*
X3525Y996D02*
X3517Y1012D01*
X3533D01*
X3525Y996D01*
Y1000D02*
X3521Y1008D01*
X3529D01*
X3525Y1000D01*
X3712Y751D02*
X3704Y767D01*
X3720D01*
X3712Y751D01*
Y755D02*
X3708Y763D01*
X3716D01*
X3712Y755D01*
X3823Y754D02*
X3827Y758D01*
X3831D01*
X3827Y762D01*
X3831Y766D01*
X3827D01*
X3823Y770D01*
X3819Y766D01*
X3815D01*
X3819Y762D01*
X3815Y758D01*
X3819D01*
X3823Y754D01*
Y758D02*
X3825Y760D01*
X3827D01*
X3825Y762D01*
X3827Y764D01*
X3825D01*
X3823Y766D01*
X3821Y764D01*
X3819D01*
X3821Y762D01*
X3819Y760D01*
X3821D01*
X3823Y758D01*
X3712Y813D02*
X3704Y829D01*
X3720D01*
X3712Y813D01*
Y817D02*
X3708Y825D01*
X3716D01*
X3712Y817D01*
X3714Y871D02*
X3706Y887D01*
X3722D01*
X3714Y871D01*
Y875D02*
X3710Y883D01*
X3718D01*
X3714Y875D01*
X3805Y897D02*
X3809Y901D01*
X3813D01*
X3809Y905D01*
X3813Y909D01*
X3809D01*
X3805Y913D01*
X3801Y909D01*
X3797D01*
X3801Y905D01*
X3797Y901D01*
X3801D01*
X3805Y897D01*
Y901D02*
X3807Y903D01*
X3809D01*
X3807Y905D01*
X3809Y907D01*
X3807D01*
X3805Y909D01*
X3803Y907D01*
X3801D01*
X3803Y905D01*
X3801Y903D01*
X3803D01*
X3805Y901D01*
X3679Y951D02*
X3671Y967D01*
X3687D01*
X3679Y951D01*
Y955D02*
X3675Y963D01*
X3683D01*
X3679Y955D01*
X2522Y1234D02*
X2526Y1238D01*
X2530D01*
X2526Y1242D01*
X2530Y1246D01*
X2526D01*
X2522Y1250D01*
X2518Y1246D01*
X2514D01*
X2518Y1242D01*
X2514Y1238D01*
X2518D01*
X2522Y1234D01*
Y1238D02*
X2524Y1240D01*
X2526D01*
X2524Y1242D01*
X2526Y1244D01*
X2524D01*
X2522Y1246D01*
X2520Y1244D01*
X2518D01*
X2520Y1242D01*
X2518Y1240D01*
X2520D01*
X2522Y1238D01*
X2522Y1274D02*
X2526Y1278D01*
X2530D01*
X2526Y1282D01*
X2530Y1286D01*
X2526D01*
X2522Y1290D01*
X2518Y1286D01*
X2514D01*
X2518Y1282D01*
X2514Y1278D01*
X2518D01*
X2522Y1274D01*
Y1278D02*
X2524Y1280D01*
X2526D01*
X2524Y1282D01*
X2526Y1284D01*
X2524D01*
X2522Y1286D01*
X2520Y1284D01*
X2518D01*
X2520Y1282D01*
X2518Y1280D01*
X2520D01*
X2522Y1278D01*
X2522Y1326D02*
X2526Y1330D01*
X2530D01*
X2526Y1334D01*
X2530Y1338D01*
X2526D01*
X2522Y1342D01*
X2518Y1338D01*
X2514D01*
X2518Y1334D01*
X2514Y1330D01*
X2518D01*
X2522Y1326D01*
Y1330D02*
X2524Y1332D01*
X2526D01*
X2524Y1334D01*
X2526Y1336D01*
X2524D01*
X2522Y1338D01*
X2520Y1336D01*
X2518D01*
X2520Y1334D01*
X2518Y1332D01*
X2520D01*
X2522Y1330D01*
X2572Y1234D02*
X2576Y1238D01*
X2580D01*
X2576Y1242D01*
X2580Y1246D01*
X2576D01*
X2572Y1250D01*
X2568Y1246D01*
X2564D01*
X2568Y1242D01*
X2564Y1238D01*
X2568D01*
X2572Y1234D01*
Y1238D02*
X2574Y1240D01*
X2576D01*
X2574Y1242D01*
X2576Y1244D01*
X2574D01*
X2572Y1246D01*
X2570Y1244D01*
X2568D01*
X2570Y1242D01*
X2568Y1240D01*
X2570D01*
X2572Y1238D01*
X2622Y1234D02*
X2626Y1238D01*
X2630D01*
X2626Y1242D01*
X2630Y1246D01*
X2626D01*
X2622Y1250D01*
X2618Y1246D01*
X2614D01*
X2618Y1242D01*
X2614Y1238D01*
X2618D01*
X2622Y1234D01*
Y1238D02*
X2624Y1240D01*
X2626D01*
X2624Y1242D01*
X2626Y1244D01*
X2624D01*
X2622Y1246D01*
X2620Y1244D01*
X2618D01*
X2620Y1242D01*
X2618Y1240D01*
X2620D01*
X2622Y1238D01*
X2572Y1274D02*
X2576Y1278D01*
X2580D01*
X2576Y1282D01*
X2580Y1286D01*
X2576D01*
X2572Y1290D01*
X2568Y1286D01*
X2564D01*
X2568Y1282D01*
X2564Y1278D01*
X2568D01*
X2572Y1274D01*
Y1278D02*
X2574Y1280D01*
X2576D01*
X2574Y1282D01*
X2576Y1284D01*
X2574D01*
X2572Y1286D01*
X2570Y1284D01*
X2568D01*
X2570Y1282D01*
X2568Y1280D01*
X2570D01*
X2572Y1278D01*
X2572Y1326D02*
X2576Y1330D01*
X2580D01*
X2576Y1334D01*
X2580Y1338D01*
X2576D01*
X2572Y1342D01*
X2568Y1338D01*
X2564D01*
X2568Y1334D01*
X2564Y1330D01*
X2568D01*
X2572Y1326D01*
Y1330D02*
X2574Y1332D01*
X2576D01*
X2574Y1334D01*
X2576Y1336D01*
X2574D01*
X2572Y1338D01*
X2570Y1336D01*
X2568D01*
X2570Y1334D01*
X2568Y1332D01*
X2570D01*
X2572Y1330D01*
X2622Y1274D02*
X2626Y1278D01*
X2630D01*
X2626Y1282D01*
X2630Y1286D01*
X2626D01*
X2622Y1290D01*
X2618Y1286D01*
X2614D01*
X2618Y1282D01*
X2614Y1278D01*
X2618D01*
X2622Y1274D01*
Y1278D02*
X2624Y1280D01*
X2626D01*
X2624Y1282D01*
X2626Y1284D01*
X2624D01*
X2622Y1286D01*
X2620Y1284D01*
X2618D01*
X2620Y1282D01*
X2618Y1280D01*
X2620D01*
X2622Y1278D01*
X2572Y1378D02*
X2576Y1382D01*
X2580D01*
X2576Y1386D01*
X2580Y1390D01*
X2576D01*
X2572Y1394D01*
X2568Y1390D01*
X2564D01*
X2568Y1386D01*
X2564Y1382D01*
X2568D01*
X2572Y1378D01*
Y1382D02*
X2574Y1384D01*
X2576D01*
X2574Y1386D01*
X2576Y1388D01*
X2574D01*
X2572Y1390D01*
X2570Y1388D01*
X2568D01*
X2570Y1386D01*
X2568Y1384D01*
X2570D01*
X2572Y1382D01*
X2522Y1378D02*
X2526Y1382D01*
X2530D01*
X2526Y1386D01*
X2530Y1390D01*
X2526D01*
X2522Y1394D01*
X2518Y1390D01*
X2514D01*
X2518Y1386D01*
X2514Y1382D01*
X2518D01*
X2522Y1378D01*
Y1382D02*
X2524Y1384D01*
X2526D01*
X2524Y1386D01*
X2526Y1388D01*
X2524D01*
X2522Y1390D01*
X2520Y1388D01*
X2518D01*
X2520Y1386D01*
X2518Y1384D01*
X2520D01*
X2522Y1382D01*
X2572Y1418D02*
X2576Y1422D01*
X2580D01*
X2576Y1426D01*
X2580Y1430D01*
X2576D01*
X2572Y1434D01*
X2568Y1430D01*
X2564D01*
X2568Y1426D01*
X2564Y1422D01*
X2568D01*
X2572Y1418D01*
Y1422D02*
X2574Y1424D01*
X2576D01*
X2574Y1426D01*
X2576Y1428D01*
X2574D01*
X2572Y1430D01*
X2570Y1428D01*
X2568D01*
X2570Y1426D01*
X2568Y1424D01*
X2570D01*
X2572Y1422D01*
X2522Y1418D02*
X2526Y1422D01*
X2530D01*
X2526Y1426D01*
X2530Y1430D01*
X2526D01*
X2522Y1434D01*
X2518Y1430D01*
X2514D01*
X2518Y1426D01*
X2514Y1422D01*
X2518D01*
X2522Y1418D01*
Y1422D02*
X2524Y1424D01*
X2526D01*
X2524Y1426D01*
X2526Y1428D01*
X2524D01*
X2522Y1430D01*
X2520Y1428D01*
X2518D01*
X2520Y1426D01*
X2518Y1424D01*
X2520D01*
X2522Y1422D01*
X2580Y1859D02*
X2572Y1875D01*
X2588D01*
X2580Y1859D01*
Y1863D02*
X2576Y1871D01*
X2584D01*
X2580Y1863D01*
X2592Y1629D02*
X2584Y1645D01*
X2600D01*
X2592Y1629D01*
Y1633D02*
X2588Y1641D01*
X2596D01*
X2592Y1633D01*
X2622Y1378D02*
X2626Y1382D01*
X2630D01*
X2626Y1386D01*
X2630Y1390D01*
X2626D01*
X2622Y1394D01*
X2618Y1390D01*
X2614D01*
X2618Y1386D01*
X2614Y1382D01*
X2618D01*
X2622Y1378D01*
Y1382D02*
X2624Y1384D01*
X2626D01*
X2624Y1386D01*
X2626Y1388D01*
X2624D01*
X2622Y1390D01*
X2620Y1388D01*
X2618D01*
X2620Y1386D01*
X2618Y1384D01*
X2620D01*
X2622Y1382D01*
X2622Y1418D02*
X2626Y1422D01*
X2630D01*
X2626Y1426D01*
X2630Y1430D01*
X2626D01*
X2622Y1434D01*
X2618Y1430D01*
X2614D01*
X2618Y1426D01*
X2614Y1422D01*
X2618D01*
X2622Y1418D01*
Y1422D02*
X2624Y1424D01*
X2626D01*
X2624Y1426D01*
X2626Y1428D01*
X2624D01*
X2622Y1430D01*
X2620Y1428D01*
X2618D01*
X2620Y1426D01*
X2618Y1424D01*
X2620D01*
X2622Y1422D01*
X2672Y1234D02*
X2676Y1238D01*
X2680D01*
X2676Y1242D01*
X2680Y1246D01*
X2676D01*
X2672Y1250D01*
X2668Y1246D01*
X2664D01*
X2668Y1242D01*
X2664Y1238D01*
X2668D01*
X2672Y1234D01*
Y1238D02*
X2674Y1240D01*
X2676D01*
X2674Y1242D01*
X2676Y1244D01*
X2674D01*
X2672Y1246D01*
X2670Y1244D01*
X2668D01*
X2670Y1242D01*
X2668Y1240D01*
X2670D01*
X2672Y1238D01*
X2672Y1274D02*
X2676Y1278D01*
X2680D01*
X2676Y1282D01*
X2680Y1286D01*
X2676D01*
X2672Y1290D01*
X2668Y1286D01*
X2664D01*
X2668Y1282D01*
X2664Y1278D01*
X2668D01*
X2672Y1274D01*
Y1278D02*
X2674Y1280D01*
X2676D01*
X2674Y1282D01*
X2676Y1284D01*
X2674D01*
X2672Y1286D01*
X2670Y1284D01*
X2668D01*
X2670Y1282D01*
X2668Y1280D01*
X2670D01*
X2672Y1278D01*
X2879Y1083D02*
X2871Y1099D01*
X2887D01*
X2879Y1083D01*
Y1087D02*
X2875Y1095D01*
X2883D01*
X2879Y1087D01*
X3464Y1046D02*
X3456Y1062D01*
X3472D01*
X3464Y1046D01*
Y1050D02*
X3460Y1058D01*
X3468D01*
X3464Y1050D01*
X3622Y1013D02*
X3614Y1029D01*
X3630D01*
X3622Y1013D01*
Y1017D02*
X3618Y1025D01*
X3626D01*
X3622Y1017D01*
X3578Y1049D02*
X3570Y1065D01*
X3586D01*
X3578Y1049D01*
Y1053D02*
X3574Y1061D01*
X3582D01*
X3578Y1053D01*
X3419Y1093D02*
X3411Y1109D01*
X3427D01*
X3419Y1093D01*
Y1097D02*
X3415Y1105D01*
X3423D01*
X3419Y1097D01*
X3531Y1103D02*
X3523Y1119D01*
X3539D01*
X3531Y1103D01*
Y1107D02*
X3527Y1115D01*
X3535D01*
X3531Y1107D01*
X2722Y1234D02*
X2726Y1238D01*
X2730D01*
X2726Y1242D01*
X2730Y1246D01*
X2726D01*
X2722Y1250D01*
X2718Y1246D01*
X2714D01*
X2718Y1242D01*
X2714Y1238D01*
X2718D01*
X2722Y1234D01*
Y1238D02*
X2724Y1240D01*
X2726D01*
X2724Y1242D01*
X2726Y1244D01*
X2724D01*
X2722Y1246D01*
X2720Y1244D01*
X2718D01*
X2720Y1242D01*
X2718Y1240D01*
X2720D01*
X2722Y1238D01*
X3290Y1227D02*
X3282Y1243D01*
X3298D01*
X3290Y1227D01*
Y1231D02*
X3286Y1239D01*
X3294D01*
X3290Y1231D01*
X2722Y1274D02*
X2726Y1278D01*
X2730D01*
X2726Y1282D01*
X2730Y1286D01*
X2726D01*
X2722Y1290D01*
X2718Y1286D01*
X2714D01*
X2718Y1282D01*
X2714Y1278D01*
X2718D01*
X2722Y1274D01*
Y1278D02*
X2724Y1280D01*
X2726D01*
X2724Y1282D01*
X2726Y1284D01*
X2724D01*
X2722Y1286D01*
X2720Y1284D01*
X2718D01*
X2720Y1282D01*
X2718Y1280D01*
X2720D01*
X2722Y1278D01*
X3250Y1263D02*
X3242Y1279D01*
X3258D01*
X3250Y1263D01*
Y1267D02*
X3246Y1275D01*
X3254D01*
X3250Y1267D01*
X3220Y1298D02*
X3212Y1314D01*
X3228D01*
X3220Y1298D01*
Y1302D02*
X3216Y1310D01*
X3224D01*
X3220Y1302D01*
X3330Y1180D02*
X3322Y1196D01*
X3338D01*
X3330Y1180D01*
Y1184D02*
X3326Y1192D01*
X3334D01*
X3330Y1184D01*
X3368Y1135D02*
X3360Y1151D01*
X3376D01*
X3368Y1135D01*
Y1139D02*
X3364Y1147D01*
X3372D01*
X3368Y1139D01*
X3477Y1152D02*
X3469Y1168D01*
X3485D01*
X3477Y1152D01*
Y1156D02*
X3473Y1164D01*
X3481D01*
X3477Y1156D01*
X3358Y1282D02*
X3350Y1298D01*
X3366D01*
X3358Y1282D01*
Y1286D02*
X3354Y1294D01*
X3362D01*
X3358Y1286D01*
X3320Y1311D02*
X3312Y1327D01*
X3328D01*
X3320Y1311D01*
Y1315D02*
X3316Y1323D01*
X3324D01*
X3320Y1315D01*
X3431Y1198D02*
X3423Y1214D01*
X3439D01*
X3431Y1198D01*
Y1202D02*
X3427Y1210D01*
X3435D01*
X3431Y1202D01*
X3395Y1243D02*
X3387Y1259D01*
X3403D01*
X3395Y1243D01*
Y1247D02*
X3391Y1255D01*
X3399D01*
X3395Y1247D01*
X2672Y1326D02*
X2676Y1330D01*
X2680D01*
X2676Y1334D01*
X2680Y1338D01*
X2676D01*
X2672Y1342D01*
X2668Y1338D01*
X2664D01*
X2668Y1334D01*
X2664Y1330D01*
X2668D01*
X2672Y1326D01*
Y1330D02*
X2674Y1332D01*
X2676D01*
X2674Y1334D01*
X2676Y1336D01*
X2674D01*
X2672Y1338D01*
X2670Y1336D01*
X2668D01*
X2670Y1334D01*
X2668Y1332D01*
X2670D01*
X2672Y1330D01*
X2722Y1326D02*
X2726Y1330D01*
X2730D01*
X2726Y1334D01*
X2730Y1338D01*
X2726D01*
X2722Y1342D01*
X2718Y1338D01*
X2714D01*
X2718Y1334D01*
X2714Y1330D01*
X2718D01*
X2722Y1326D01*
Y1330D02*
X2724Y1332D01*
X2726D01*
X2724Y1334D01*
X2726Y1336D01*
X2724D01*
X2722Y1338D01*
X2720Y1336D01*
X2718D01*
X2720Y1334D01*
X2718Y1332D01*
X2720D01*
X2722Y1330D01*
X2672Y1378D02*
X2676Y1382D01*
X2680D01*
X2676Y1386D01*
X2680Y1390D01*
X2676D01*
X2672Y1394D01*
X2668Y1390D01*
X2664D01*
X2668Y1386D01*
X2664Y1382D01*
X2668D01*
X2672Y1378D01*
Y1382D02*
X2674Y1384D01*
X2676D01*
X2674Y1386D01*
X2676Y1388D01*
X2674D01*
X2672Y1390D01*
X2670Y1388D01*
X2668D01*
X2670Y1386D01*
X2668Y1384D01*
X2670D01*
X2672Y1382D01*
X2722Y1378D02*
X2726Y1382D01*
X2730D01*
X2726Y1386D01*
X2730Y1390D01*
X2726D01*
X2722Y1394D01*
X2718Y1390D01*
X2714D01*
X2718Y1386D01*
X2714Y1382D01*
X2718D01*
X2722Y1378D01*
Y1382D02*
X2724Y1384D01*
X2726D01*
X2724Y1386D01*
X2726Y1388D01*
X2724D01*
X2722Y1390D01*
X2720Y1388D01*
X2718D01*
X2720Y1386D01*
X2718Y1384D01*
X2720D01*
X2722Y1382D01*
X3171Y1321D02*
X3163Y1337D01*
X3179D01*
X3171Y1321D01*
Y1325D02*
X3167Y1333D01*
X3175D01*
X3171Y1325D01*
X3274Y1349D02*
X3266Y1365D01*
X3282D01*
X3274Y1349D01*
Y1353D02*
X3270Y1361D01*
X3278D01*
X3274Y1353D01*
X3236Y1384D02*
X3228Y1400D01*
X3244D01*
X3236Y1384D01*
Y1388D02*
X3232Y1396D01*
X3240D01*
X3236Y1388D01*
X3178D02*
X3170Y1404D01*
X3186D01*
X3178Y1388D01*
Y1392D02*
X3174Y1400D01*
X3182D01*
X3178Y1392D01*
X2722Y1418D02*
X2726Y1422D01*
X2730D01*
X2726Y1426D01*
X2730Y1430D01*
X2726D01*
X2722Y1434D01*
X2718Y1430D01*
X2714D01*
X2718Y1426D01*
X2714Y1422D01*
X2718D01*
X2722Y1418D01*
Y1422D02*
X2724Y1424D01*
X2726D01*
X2724Y1426D01*
X2726Y1428D01*
X2724D01*
X2722Y1430D01*
X2720Y1428D01*
X2718D01*
X2720Y1426D01*
X2718Y1424D01*
X2720D01*
X2722Y1422D01*
X3086Y1389D02*
X3078Y1405D01*
X3094D01*
X3086Y1389D01*
Y1393D02*
X3082Y1401D01*
X3090D01*
X3086Y1393D01*
X3130Y1390D02*
X3122Y1406D01*
X3138D01*
X3130Y1390D01*
Y1394D02*
X3126Y1402D01*
X3134D01*
X3130Y1394D01*
X2672Y1418D02*
X2676Y1422D01*
X2680D01*
X2676Y1426D01*
X2680Y1430D01*
X2676D01*
X2672Y1434D01*
X2668Y1430D01*
X2664D01*
X2668Y1426D01*
X2664Y1422D01*
X2668D01*
X2672Y1418D01*
Y1422D02*
X2674Y1424D01*
X2676D01*
X2674Y1426D01*
X2676Y1428D01*
X2674D01*
X2672Y1430D01*
X2670Y1428D01*
X2668D01*
X2670Y1426D01*
X2668Y1424D01*
X2670D01*
X2672Y1422D01*
X3867Y1579D02*
X3871Y1583D01*
X3875D01*
X3871Y1587D01*
X3875Y1591D01*
X3871D01*
X3867Y1595D01*
X3863Y1591D01*
X3859D01*
X3863Y1587D01*
X3859Y1583D01*
X3863D01*
X3867Y1579D01*
Y1583D02*
X3869Y1585D01*
X3871D01*
X3869Y1587D01*
X3871Y1589D01*
X3869D01*
X3867Y1591D01*
X3865Y1589D01*
X3863D01*
X3865Y1587D01*
X3863Y1585D01*
X3865D01*
X3867Y1583D01*
X4240Y1322D02*
X4244Y1326D01*
X4248D01*
X4244Y1330D01*
X4248Y1334D01*
X4244D01*
X4240Y1338D01*
X4236Y1334D01*
X4232D01*
X4236Y1330D01*
X4232Y1326D01*
X4236D01*
X4240Y1322D01*
Y1326D02*
X4242Y1328D01*
X4244D01*
X4242Y1330D01*
X4244Y1332D01*
X4242D01*
X4240Y1334D01*
X4238Y1332D01*
X4236D01*
X4238Y1330D01*
X4236Y1328D01*
X4238D01*
X4240Y1326D01*
X3589Y1624D02*
X3593Y1628D01*
X3597D01*
X3593Y1632D01*
X3597Y1636D01*
X3593D01*
X3589Y1640D01*
X3585Y1636D01*
X3581D01*
X3585Y1632D01*
X3581Y1628D01*
X3585D01*
X3589Y1624D01*
Y1628D02*
X3591Y1630D01*
X3593D01*
X3591Y1632D01*
X3593Y1634D01*
X3591D01*
X3589Y1636D01*
X3587Y1634D01*
X3585D01*
X3587Y1632D01*
X3585Y1630D01*
X3587D01*
X3589Y1628D01*
X3938Y1784D02*
X3942Y1788D01*
X3946D01*
X3942Y1792D01*
X3946Y1796D01*
X3942D01*
X3938Y1800D01*
X3934Y1796D01*
X3930D01*
X3934Y1792D01*
X3930Y1788D01*
X3934D01*
X3938Y1784D01*
Y1788D02*
X3940Y1790D01*
X3942D01*
X3940Y1792D01*
X3942Y1794D01*
X3940D01*
X3938Y1796D01*
X3936Y1794D01*
X3934D01*
X3936Y1792D01*
X3934Y1790D01*
X3936D01*
X3938Y1788D01*
X4204Y1740D02*
X4208Y1744D01*
X4212D01*
X4208Y1748D01*
X4212Y1752D01*
X4208D01*
X4204Y1756D01*
X4200Y1752D01*
X4196D01*
X4200Y1748D01*
X4196Y1744D01*
X4200D01*
X4204Y1740D01*
Y1744D02*
X4206Y1746D01*
X4208D01*
X4206Y1748D01*
X4208Y1750D01*
X4206D01*
X4204Y1752D01*
X4202Y1750D01*
X4200D01*
X4202Y1748D01*
X4200Y1746D01*
X4202D01*
X4204Y1744D01*
X1443Y4709D02*
X1447Y4713D01*
X1451D01*
X1447Y4717D01*
X1451Y4721D01*
X1447D01*
X1443Y4725D01*
X1439Y4721D01*
X1435D01*
X1439Y4717D01*
X1435Y4713D01*
X1439D01*
X1443Y4709D01*
Y4713D02*
X1445Y4715D01*
X1447D01*
X1445Y4717D01*
X1447Y4719D01*
X1445D01*
X1443Y4721D01*
X1441Y4719D01*
X1439D01*
X1441Y4717D01*
X1439Y4715D01*
X1441D01*
X1443Y4713D01*
X1517Y4958D02*
X1521Y4962D01*
X1525D01*
X1521Y4966D01*
X1525Y4970D01*
X1521D01*
X1517Y4974D01*
X1513Y4970D01*
X1509D01*
X1513Y4966D01*
X1509Y4962D01*
X1513D01*
X1517Y4958D01*
Y4962D02*
X1519Y4964D01*
X1521D01*
X1519Y4966D01*
X1521Y4968D01*
X1519D01*
X1517Y4970D01*
X1515Y4968D01*
X1513D01*
X1515Y4966D01*
X1513Y4964D01*
X1515D01*
X1517Y4962D01*
X1570Y4636D02*
X1574Y4640D01*
X1578D01*
X1574Y4644D01*
X1578Y4648D01*
X1574D01*
X1570Y4652D01*
X1566Y4648D01*
X1562D01*
X1566Y4644D01*
X1562Y4640D01*
X1566D01*
X1570Y4636D01*
Y4640D02*
X1572Y4642D01*
X1574D01*
X1572Y4644D01*
X1574Y4646D01*
X1572D01*
X1570Y4648D01*
X1568Y4646D01*
X1566D01*
X1568Y4644D01*
X1566Y4642D01*
X1568D01*
X1570Y4640D01*
X1651Y4680D02*
X1655Y4684D01*
X1659D01*
X1655Y4688D01*
X1659Y4692D01*
X1655D01*
X1651Y4696D01*
X1647Y4692D01*
X1643D01*
X1647Y4688D01*
X1643Y4684D01*
X1647D01*
X1651Y4680D01*
Y4684D02*
X1653Y4686D01*
X1655D01*
X1653Y4688D01*
X1655Y4690D01*
X1653D01*
X1651Y4692D01*
X1649Y4690D01*
X1647D01*
X1649Y4688D01*
X1647Y4686D01*
X1649D01*
X1651Y4684D01*
X1937Y4207D02*
X1941Y4211D01*
X1945D01*
X1941Y4215D01*
X1945Y4219D01*
X1941D01*
X1937Y4223D01*
X1933Y4219D01*
X1929D01*
X1933Y4215D01*
X1929Y4211D01*
X1933D01*
X1937Y4207D01*
Y4211D02*
X1939Y4213D01*
X1941D01*
X1939Y4215D01*
X1941Y4217D01*
X1939D01*
X1937Y4219D01*
X1935Y4217D01*
X1933D01*
X1935Y4215D01*
X1933Y4213D01*
X1935D01*
X1937Y4211D01*
Y4269D02*
X1941Y4273D01*
X1945D01*
X1941Y4277D01*
X1945Y4281D01*
X1941D01*
X1937Y4285D01*
X1933Y4281D01*
X1929D01*
X1933Y4277D01*
X1929Y4273D01*
X1933D01*
X1937Y4269D01*
Y4273D02*
X1939Y4275D01*
X1941D01*
X1939Y4277D01*
X1941Y4279D01*
X1939D01*
X1937Y4281D01*
X1935Y4279D01*
X1933D01*
X1935Y4277D01*
X1933Y4275D01*
X1935D01*
X1937Y4273D01*
Y4333D02*
X1941Y4337D01*
X1945D01*
X1941Y4341D01*
X1945Y4345D01*
X1941D01*
X1937Y4349D01*
X1933Y4345D01*
X1929D01*
X1933Y4341D01*
X1929Y4337D01*
X1933D01*
X1937Y4333D01*
Y4337D02*
X1939Y4339D01*
X1941D01*
X1939Y4341D01*
X1941Y4343D01*
X1939D01*
X1937Y4345D01*
X1935Y4343D01*
X1933D01*
X1935Y4341D01*
X1933Y4339D01*
X1935D01*
X1937Y4337D01*
X3014Y2112D02*
X3018Y2116D01*
X3022D01*
X3018Y2120D01*
X3022Y2124D01*
X3018D01*
X3014Y2128D01*
X3010Y2124D01*
X3006D01*
X3010Y2120D01*
X3006Y2116D01*
X3010D01*
X3014Y2112D01*
Y2116D02*
X3016Y2118D01*
X3018D01*
X3016Y2120D01*
X3018Y2122D01*
X3016D01*
X3014Y2124D01*
X3012Y2122D01*
X3010D01*
X3012Y2120D01*
X3010Y2118D01*
X3012D01*
X3014Y2116D01*
X2799Y2499D02*
X2803Y2503D01*
X2807D01*
X2803Y2507D01*
X2807Y2511D01*
X2803D01*
X2799Y2515D01*
X2795Y2511D01*
X2791D01*
X2795Y2507D01*
X2791Y2503D01*
X2795D01*
X2799Y2499D01*
Y2503D02*
X2801Y2505D01*
X2803D01*
X2801Y2507D01*
X2803Y2509D01*
X2801D01*
X2799Y2511D01*
X2797Y2509D01*
X2795D01*
X2797Y2507D01*
X2795Y2505D01*
X2797D01*
X2799Y2503D01*
X3042Y2636D02*
X3046Y2644D01*
X3042Y2652D01*
X3050Y2648D01*
X3058Y2652D01*
X3054Y2644D01*
X3058Y2636D01*
X3050Y2640D01*
X3042Y2636D01*
X3046Y2640D02*
X3048Y2644D01*
X3046Y2648D01*
X3050Y2646D01*
X3054Y2648D01*
X3052Y2644D01*
X3054Y2640D01*
X3050Y2642D01*
X3046Y2640D01*
X2807Y4372D02*
X2799Y4388D01*
X2815D01*
X2807Y4372D01*
Y4376D02*
X2803Y4384D01*
X2811D01*
X2807Y4376D01*
X2753Y4475D02*
X2745Y4491D01*
X2761D01*
X2753Y4475D01*
Y4479D02*
X2749Y4487D01*
X2757D01*
X2753Y4479D01*
Y4372D02*
X2745Y4388D01*
X2761D01*
X2753Y4372D01*
Y4376D02*
X2749Y4384D01*
X2757D01*
X2753Y4376D01*
Y4426D02*
X2745Y4442D01*
X2761D01*
X2753Y4426D01*
Y4430D02*
X2749Y4438D01*
X2757D01*
X2753Y4430D01*
X2485Y4492D02*
X2477Y4508D01*
X2493D01*
X2485Y4492D01*
Y4496D02*
X2481Y4504D01*
X2489D01*
X2485Y4496D01*
X2860Y4294D02*
X2852Y4310D01*
X2868D01*
X2860Y4294D01*
Y4298D02*
X2856Y4306D01*
X2864D01*
X2860Y4298D01*
X2856Y4372D02*
X2848Y4388D01*
X2864D01*
X2856Y4372D01*
Y4376D02*
X2852Y4384D01*
X2860D01*
X2856Y4376D01*
X2905Y4372D02*
X2897Y4388D01*
X2913D01*
X2905Y4372D01*
Y4376D02*
X2901Y4384D01*
X2909D01*
X2905Y4376D01*
X2829Y4448D02*
X2833Y4452D01*
X2837D01*
X2833Y4456D01*
X2837Y4460D01*
X2833D01*
X2829Y4464D01*
X2825Y4460D01*
X2821D01*
X2825Y4456D01*
X2821Y4452D01*
X2825D01*
X2829Y4448D01*
X2905Y4426D02*
X2897Y4442D01*
X2913D01*
X2905Y4426D01*
Y4430D02*
X2901Y4438D01*
X2909D01*
X2905Y4430D01*
Y4475D02*
X2897Y4491D01*
X2913D01*
X2905Y4475D01*
Y4479D02*
X2901Y4487D01*
X2909D01*
X2905Y4479D01*
X3157Y2319D02*
X3149Y2335D01*
X3165D01*
X3157Y2319D01*
Y2323D02*
X3153Y2331D01*
X3161D01*
X3157Y2323D01*
X3088Y2436D02*
X3092Y2440D01*
X3096D01*
X3092Y2444D01*
X3096Y2448D01*
X3092D01*
X3088Y2452D01*
X3084Y2448D01*
X3080D01*
X3084Y2444D01*
X3080Y2440D01*
X3084D01*
X3088Y2436D01*
Y2440D02*
X3090Y2442D01*
X3092D01*
X3090Y2444D01*
X3092Y2446D01*
X3090D01*
X3088Y2448D01*
X3086Y2446D01*
X3084D01*
X3086Y2444D01*
X3084Y2442D01*
X3086D01*
X3088Y2440D01*
X3138Y2919D02*
X3142Y2923D01*
X3146D01*
X3142Y2927D01*
X3146Y2931D01*
X3142D01*
X3138Y2935D01*
X3134Y2931D01*
X3130D01*
X3134Y2927D01*
X3130Y2923D01*
X3134D01*
X3138Y2919D01*
Y2923D02*
X3140Y2925D01*
X3142D01*
X3140Y2927D01*
X3142Y2929D01*
X3140D01*
X3138Y2931D01*
X3136Y2929D01*
X3134D01*
X3136Y2927D01*
X3134Y2925D01*
X3136D01*
X3138Y2923D01*
X3250Y2522D02*
X3254Y2526D01*
X3258D01*
X3254Y2530D01*
X3258Y2534D01*
X3254D01*
X3250Y2538D01*
X3246Y2534D01*
X3242D01*
X3246Y2530D01*
X3242Y2526D01*
X3246D01*
X3250Y2522D01*
Y2526D02*
X3252Y2528D01*
X3254D01*
X3252Y2530D01*
X3254Y2532D01*
X3252D01*
X3250Y2534D01*
X3248Y2532D01*
X3246D01*
X3248Y2530D01*
X3246Y2528D01*
X3248D01*
X3250Y2526D01*
X3361Y1987D02*
X3365Y1991D01*
X3369D01*
X3365Y1995D01*
X3369Y1999D01*
X3365D01*
X3361Y2003D01*
X3357Y1999D01*
X3353D01*
X3357Y1995D01*
X3353Y1991D01*
X3357D01*
X3361Y1987D01*
Y1991D02*
X3363Y1993D01*
X3365D01*
X3363Y1995D01*
X3365Y1997D01*
X3363D01*
X3361Y1999D01*
X3359Y1997D01*
X3357D01*
X3359Y1995D01*
X3357Y1993D01*
X3359D01*
X3361Y1991D01*
X3448Y2428D02*
X3452Y2432D01*
X3456D01*
X3452Y2436D01*
X3456Y2440D01*
X3452D01*
X3448Y2444D01*
X3444Y2440D01*
X3440D01*
X3444Y2436D01*
X3440Y2432D01*
X3444D01*
X3448Y2428D01*
Y2432D02*
X3450Y2434D01*
X3452D01*
X3450Y2436D01*
X3452Y2438D01*
X3450D01*
X3448Y2440D01*
X3446Y2438D01*
X3444D01*
X3446Y2436D01*
X3444Y2434D01*
X3446D01*
X3448Y2432D01*
X3547Y2627D02*
X3551Y2635D01*
X3547Y2643D01*
X3555Y2639D01*
X3563Y2643D01*
X3559Y2635D01*
X3563Y2627D01*
X3555Y2631D01*
X3547Y2627D01*
X3551Y2631D02*
X3553Y2635D01*
X3551Y2639D01*
X3555Y2637D01*
X3559Y2639D01*
X3557Y2635D01*
X3559Y2631D01*
X3555Y2633D01*
X3551Y2631D01*
X3637Y2445D02*
X3641Y2449D01*
X3645D01*
X3641Y2453D01*
X3645Y2457D01*
X3641D01*
X3637Y2461D01*
X3633Y2457D01*
X3629D01*
X3633Y2453D01*
X3629Y2449D01*
X3633D01*
X3637Y2445D01*
Y2449D02*
X3639Y2451D01*
X3641D01*
X3639Y2453D01*
X3641Y2455D01*
X3639D01*
X3637Y2457D01*
X3635Y2455D01*
X3633D01*
X3635Y2453D01*
X3633Y2451D01*
X3635D01*
X3637Y2449D01*
X3195Y3122D02*
X3199Y3130D01*
X3195Y3138D01*
X3203Y3134D01*
X3211Y3138D01*
X3207Y3130D01*
X3211Y3122D01*
X3203Y3126D01*
X3195Y3122D01*
X3199Y3126D02*
X3201Y3130D01*
X3199Y3134D01*
X3203Y3132D01*
X3207Y3134D01*
X3205Y3130D01*
X3207Y3126D01*
X3203Y3128D01*
X3199Y3126D01*
X3506Y2984D02*
X3510Y2988D01*
X3514D01*
X3510Y2992D01*
X3514Y2996D01*
X3510D01*
X3506Y3000D01*
X3502Y2996D01*
X3498D01*
X3502Y2992D01*
X3498Y2988D01*
X3502D01*
X3506Y2984D01*
Y2988D02*
X3508Y2990D01*
X3510D01*
X3508Y2992D01*
X3510Y2994D01*
X3508D01*
X3506Y2996D01*
X3504Y2994D01*
X3502D01*
X3504Y2992D01*
X3502Y2990D01*
X3504D01*
X3506Y2988D01*
X3304Y4327D02*
X3308Y4331D01*
X3312D01*
X3308Y4335D01*
X3312Y4339D01*
X3308D01*
X3304Y4343D01*
X3300Y4339D01*
X3296D01*
X3300Y4335D01*
X3296Y4331D01*
X3300D01*
X3304Y4327D01*
Y4331D02*
X3306Y4333D01*
X3308D01*
X3306Y4335D01*
X3308Y4337D01*
X3306D01*
X3304Y4339D01*
X3302Y4337D01*
X3300D01*
X3302Y4335D01*
X3300Y4333D01*
X3302D01*
X3304Y4331D01*
X3742Y4026D02*
X3746Y4030D01*
X3750D01*
X3746Y4034D01*
X3750Y4038D01*
X3746D01*
X3742Y4042D01*
X3738Y4038D01*
X3734D01*
X3738Y4034D01*
X3734Y4030D01*
X3738D01*
X3742Y4026D01*
Y4030D02*
X3744Y4032D01*
X3746D01*
X3744Y4034D01*
X3746Y4036D01*
X3744D01*
X3742Y4038D01*
X3740Y4036D01*
X3738D01*
X3740Y4034D01*
X3738Y4032D01*
X3740D01*
X3742Y4030D01*
X4242Y4076D02*
X4246Y4080D01*
X4250D01*
X4246Y4084D01*
X4250Y4088D01*
X4246D01*
X4242Y4092D01*
X4238Y4088D01*
X4234D01*
X4238Y4084D01*
X4234Y4080D01*
X4238D01*
X4242Y4076D01*
Y4080D02*
X4244Y4082D01*
X4246D01*
X4244Y4084D01*
X4246Y4086D01*
X4244D01*
X4242Y4088D01*
X4240Y4086D01*
X4238D01*
X4240Y4084D01*
X4238Y4082D01*
X4240D01*
X4242Y4080D01*
X3811Y4309D02*
X3815Y4313D01*
X3819D01*
X3815Y4317D01*
X3819Y4321D01*
X3815D01*
X3811Y4325D01*
X3807Y4321D01*
X3803D01*
X3807Y4317D01*
X3803Y4313D01*
X3807D01*
X3811Y4309D01*
Y4313D02*
X3813Y4315D01*
X3815D01*
X3813Y4317D01*
X3815Y4319D01*
X3813D01*
X3811Y4321D01*
X3809Y4319D01*
X3807D01*
X3809Y4317D01*
X3807Y4315D01*
X3809D01*
X3811Y4313D01*
X3863Y4514D02*
X3867Y4518D01*
X3871D01*
X3867Y4522D01*
X3871Y4526D01*
X3867D01*
X3863Y4530D01*
X3859Y4526D01*
X3855D01*
X3859Y4522D01*
X3855Y4518D01*
X3859D01*
X3863Y4514D01*
Y4518D02*
X3865Y4520D01*
X3867D01*
X3865Y4522D01*
X3867Y4524D01*
X3865D01*
X3863Y4526D01*
X3861Y4524D01*
X3859D01*
X3861Y4522D01*
X3859Y4520D01*
X3861D01*
X3863Y4518D01*
X4161Y4456D02*
X4165Y4460D01*
X4169D01*
X4165Y4464D01*
X4169Y4468D01*
X4165D01*
X4161Y4472D01*
X4157Y4468D01*
X4153D01*
X4157Y4464D01*
X4153Y4460D01*
X4157D01*
X4161Y4456D01*
Y4460D02*
X4163Y4462D01*
X4165D01*
X4163Y4464D01*
X4165Y4466D01*
X4163D01*
X4161Y4468D01*
X4159Y4466D01*
X4157D01*
X4159Y4464D01*
X4157Y4462D01*
X4159D01*
X4161Y4460D01*
X2682Y4517D02*
X2674Y4533D01*
X2690D01*
X2682Y4517D01*
Y4521D02*
X2678Y4529D01*
X2686D01*
X2682Y4521D01*
X2473Y4613D02*
X2465Y4629D01*
X2481D01*
X2473Y4613D01*
Y4617D02*
X2469Y4625D01*
X2477D01*
X2473Y4617D01*
X2753Y4524D02*
X2745Y4540D01*
X2761D01*
X2753Y4524D01*
Y4528D02*
X2749Y4536D01*
X2757D01*
X2753Y4528D01*
X2856Y4524D02*
X2848Y4540D01*
X2864D01*
X2856Y4524D01*
Y4528D02*
X2852Y4536D01*
X2860D01*
X2856Y4528D01*
X2807Y4524D02*
X2799Y4540D01*
X2815D01*
X2807Y4524D01*
Y4528D02*
X2803Y4536D01*
X2811D01*
X2807Y4528D01*
X2720Y4582D02*
X2712Y4598D01*
X2728D01*
X2720Y4582D01*
Y4586D02*
X2716Y4594D01*
X2724D01*
X2720Y4586D01*
X2414Y4691D02*
X2406Y4707D01*
X2422D01*
X2414Y4691D01*
Y4695D02*
X2410Y4703D01*
X2418D01*
X2414Y4695D01*
X2598Y4706D02*
X2590Y4722D01*
X2606D01*
X2598Y4706D01*
Y4710D02*
X2594Y4718D01*
X2602D01*
X2598Y4710D01*
X2769Y4871D02*
X2761Y4887D01*
X2777D01*
X2769Y4871D01*
Y4875D02*
X2765Y4883D01*
X2773D01*
X2769Y4875D01*
X2736Y4940D02*
X2728Y4956D01*
X2744D01*
X2736Y4940D01*
Y4944D02*
X2732Y4952D01*
X2740D01*
X2736Y4944D01*
X2884Y4871D02*
X2876Y4887D01*
X2892D01*
X2884Y4871D01*
Y4875D02*
X2880Y4883D01*
X2888D01*
X2884Y4875D01*
X2752Y5082D02*
X2744Y5098D01*
X2760D01*
X2752Y5082D01*
Y5086D02*
X2748Y5094D01*
X2756D01*
X2752Y5086D01*
X2905Y4524D02*
X2897Y4540D01*
X2913D01*
X2905Y4524D01*
Y4528D02*
X2901Y4536D01*
X2909D01*
X2905Y4528D01*
X2921Y4572D02*
X2913Y4588D01*
X2929D01*
X2921Y4572D01*
Y4576D02*
X2917Y4584D01*
X2925D01*
X2921Y4576D01*
X2975Y4520D02*
X2967Y4536D01*
X2983D01*
X2975Y4520D01*
Y4524D02*
X2971Y4532D01*
X2979D01*
X2975Y4524D01*
X3055Y4706D02*
X3047Y4722D01*
X3063D01*
X3055Y4706D01*
Y4710D02*
X3051Y4718D01*
X3059D01*
X3055Y4710D01*
X3176Y4642D02*
X3168Y4658D01*
X3184D01*
X3176Y4642D01*
Y4646D02*
X3172Y4654D01*
X3180D01*
X3176Y4646D01*
X3274Y4687D02*
X3266Y4703D01*
X3282D01*
X3274Y4687D01*
Y4691D02*
X3270Y4699D01*
X3278D01*
X3274Y4691D01*
X4030Y4677D02*
X4034Y4681D01*
X4038D01*
X4034Y4685D01*
X4038Y4689D01*
X4034D01*
X4030Y4693D01*
X4026Y4689D01*
X4022D01*
X4026Y4685D01*
X4022Y4681D01*
X4026D01*
X4030Y4677D01*
Y4681D02*
X4032Y4683D01*
X4034D01*
X4032Y4685D01*
X4034Y4687D01*
X4032D01*
X4030Y4689D01*
X4028Y4687D01*
X4026D01*
X4028Y4685D01*
X4026Y4683D01*
X4028D01*
X4030Y4681D01*
X2924Y4947D02*
X2916Y4963D01*
X2932D01*
X2924Y4947D01*
Y4951D02*
X2920Y4959D01*
X2928D01*
X2924Y4951D01*
X3135Y4959D02*
X3127Y4975D01*
X3143D01*
X3135Y4959D01*
Y4963D02*
X3131Y4971D01*
X3139D01*
X3135Y4963D01*
X4143Y5058D02*
X4147Y5062D01*
X4151D01*
X4147Y5066D01*
X4151Y5070D01*
X4147D01*
X4143Y5074D01*
X4139Y5070D01*
X4135D01*
X4139Y5066D01*
X4135Y5062D01*
X4139D01*
X4143Y5058D01*
Y5062D02*
X4145Y5064D01*
X4147D01*
X4145Y5066D01*
X4147Y5068D01*
X4145D01*
X4143Y5070D01*
X4141Y5068D01*
X4139D01*
X4141Y5066D01*
X4139Y5064D01*
X4141D01*
X4143Y5062D01*
X717Y1052D02*
X709Y1068D01*
X725D01*
X717Y1052D01*
Y1056D02*
X713Y1064D01*
X721D01*
X717Y1056D01*
X759Y818D02*
X751Y834D01*
X767D01*
X759Y818D01*
Y822D02*
X755Y830D01*
X763D01*
X759Y822D01*
X1230Y814D02*
X1222Y830D01*
X1238D01*
X1230Y814D01*
Y818D02*
X1226Y826D01*
X1234D01*
X1230Y818D01*
X2722Y826D02*
X2714Y842D01*
X2730D01*
X2722Y826D01*
Y830D02*
X2718Y838D01*
X2726D01*
X2722Y830D01*
X2171Y1028D02*
X2163Y1044D01*
X2179D01*
X2171Y1028D01*
Y1032D02*
X2167Y1040D01*
X2175D01*
X2171Y1032D01*
X2253Y824D02*
X2245Y840D01*
X2261D01*
X2253Y824D01*
Y828D02*
X2249Y836D01*
X2257D01*
X2253Y828D01*
X3723Y1106D02*
X3727Y1110D01*
X3731D01*
X3727Y1114D01*
X3731Y1118D01*
X3727D01*
X3723Y1122D01*
X3719Y1118D01*
X3715D01*
X3719Y1114D01*
X3715Y1110D01*
X3719D01*
X3723Y1106D01*
Y1110D02*
X3725Y1112D01*
X3727D01*
X3725Y1114D01*
X3727Y1116D01*
X3725D01*
X3723Y1118D01*
X3721Y1116D01*
X3719D01*
X3721Y1114D01*
X3719Y1112D01*
X3721D01*
X3723Y1110D01*
X2809Y4294D02*
X2801Y4310D01*
X2817D01*
X2809Y4294D01*
Y4298D02*
X2805Y4306D01*
X2813D01*
X2809Y4298D01*
X1185Y4288D02*
X1177Y4304D01*
X1193D01*
X1185Y4288D01*
Y4292D02*
X1181Y4300D01*
X1189D01*
X1185Y4292D01*
X2964Y2839D02*
X2968Y2847D01*
X2964Y2855D01*
X2972Y2851D01*
X2980Y2855D01*
X2976Y2847D01*
X2980Y2839D01*
X2972Y2843D01*
X2964Y2839D01*
X2968Y2843D02*
X2970Y2847D01*
X2968Y2851D01*
X2972Y2849D01*
X2976Y2851D01*
X2974Y2847D01*
X2976Y2843D01*
X2972Y2845D01*
X2968Y2843D01*
X1446Y4840D02*
X1450Y4844D01*
X1454D01*
X1450Y4848D01*
X1454Y4852D01*
X1450D01*
X1446Y4856D01*
X1442Y4852D01*
X1438D01*
X1442Y4848D01*
X1438Y4844D01*
X1442D01*
X1446Y4840D01*
Y4844D02*
X1448Y4846D01*
X1450D01*
X1448Y4848D01*
X1450Y4850D01*
X1448D01*
X1446Y4852D01*
X1444Y4850D01*
X1442D01*
X1444Y4848D01*
X1442Y4846D01*
X1444D01*
X1446Y4844D01*
X918Y4863D02*
X922Y4867D01*
X926D01*
X922Y4871D01*
X926Y4875D01*
X922D01*
X918Y4879D01*
X914Y4875D01*
X910D01*
X914Y4871D01*
X910Y4867D01*
X914D01*
X918Y4863D01*
Y4867D02*
X920Y4869D01*
X922D01*
X920Y4871D01*
X922Y4873D01*
X920D01*
X918Y4875D01*
X916Y4873D01*
X914D01*
X916Y4871D01*
X914Y4869D01*
X916D01*
X918Y4867D01*
X1065Y449D02*
X1057Y465D01*
X1073D01*
X1065Y449D01*
Y453D02*
X1061Y461D01*
X1069D01*
X1065Y453D01*
X1629Y461D02*
X1621Y477D01*
X1637D01*
X1629Y461D01*
Y465D02*
X1625Y473D01*
X1633D01*
X1629Y465D01*
X3092Y4838D02*
X3096Y4842D01*
X3100D01*
X3096Y4846D01*
X3100Y4850D01*
X3096D01*
X3092Y4854D01*
X3088Y4850D01*
X3084D01*
X3088Y4846D01*
X3084Y4842D01*
X3088D01*
X3092Y4838D01*
Y4842D02*
X3094Y4844D01*
X3096D01*
X3094Y4846D01*
X3096Y4848D01*
X3094D01*
X3092Y4850D01*
X3090Y4848D01*
X3088D01*
X3090Y4846D01*
X3088Y4844D01*
X3090D01*
X3092Y4842D01*
X2564Y4836D02*
X2556Y4852D01*
X2572D01*
X2564Y4836D01*
Y4840D02*
X2560Y4848D01*
X2568D01*
X2564Y4840D01*
X2541Y458D02*
X2533Y474D01*
X2549D01*
X2541Y458D01*
Y462D02*
X2537Y470D01*
X2545D01*
X2541Y462D01*
X3755Y536D02*
X3759Y540D01*
X3763D01*
X3759Y544D01*
X3763Y548D01*
X3759D01*
X3755Y552D01*
X3751Y548D01*
X3747D01*
X3751Y544D01*
X3747Y540D01*
X3751D01*
X3755Y536D01*
Y540D02*
X3757Y542D01*
X3759D01*
X3757Y544D01*
X3759Y546D01*
X3757D01*
X3755Y548D01*
X3753Y546D01*
X3751D01*
X3753Y544D01*
X3751Y542D01*
X3753D01*
X3755Y540D01*
X3976Y4892D02*
X3980Y4896D01*
X3984D01*
X3980Y4900D01*
X3984Y4904D01*
X3980D01*
X3976Y4908D01*
X3972Y4904D01*
X3968D01*
X3972Y4900D01*
X3968Y4896D01*
X3972D01*
X3976Y4892D01*
Y4896D02*
X3978Y4898D01*
X3980D01*
X3978Y4900D01*
X3980Y4902D01*
X3978D01*
X3976Y4904D01*
X3974Y4902D01*
X3972D01*
X3974Y4900D01*
X3972Y4898D01*
X3974D01*
X3976Y4896D01*
X3132Y465D02*
X3124Y481D01*
X3140D01*
X3132Y465D01*
Y469D02*
X3128Y477D01*
X3136D01*
X3132Y469D01*
X1392Y4891D02*
X1396Y4895D01*
X1400D01*
X1396Y4899D01*
X1400Y4903D01*
X1396D01*
X1392Y4907D01*
X1388Y4903D01*
X1384D01*
X1388Y4899D01*
X1384Y4895D01*
X1388D01*
X1392Y4891D01*
Y4895D02*
X1394Y4897D01*
X1396D01*
X1394Y4899D01*
X1396Y4901D01*
X1394D01*
X1392Y4903D01*
X1390Y4901D01*
X1388D01*
X1390Y4899D01*
X1388Y4897D01*
X1390D01*
X1392Y4895D01*
X1569Y4849D02*
X1573Y4853D01*
X1577D01*
X1573Y4857D01*
X1577Y4861D01*
X1573D01*
X1569Y4865D01*
X1565Y4861D01*
X1561D01*
X1565Y4857D01*
X1561Y4853D01*
X1565D01*
X1569Y4849D01*
Y4853D02*
X1571Y4855D01*
X1573D01*
X1571Y4857D01*
X1573Y4859D01*
X1571D01*
X1569Y4861D01*
X1567Y4859D01*
X1565D01*
X1567Y4857D01*
X1565Y4855D01*
X1567D01*
X1569Y4853D01*
X1088Y4967D02*
X1092Y4971D01*
X1096D01*
X1092Y4975D01*
X1096Y4979D01*
X1092D01*
X1088Y4983D01*
X1084Y4979D01*
X1080D01*
X1084Y4975D01*
X1080Y4971D01*
X1084D01*
X1088Y4967D01*
Y4971D02*
X1090Y4973D01*
X1092D01*
X1090Y4975D01*
X1092Y4977D01*
X1090D01*
X1088Y4979D01*
X1086Y4977D01*
X1084D01*
X1086Y4975D01*
X1084Y4973D01*
X1086D01*
X1088Y4971D01*
X2467Y4838D02*
X2471Y4842D01*
X2475D01*
X2471Y4846D01*
X2475Y4850D01*
X2471D01*
X2467Y4854D01*
X2463Y4850D01*
X2459D01*
X2463Y4846D01*
X2459Y4842D01*
X2463D01*
X2467Y4838D01*
Y4842D02*
X2469Y4844D01*
X2471D01*
X2469Y4846D01*
X2471Y4848D01*
X2469D01*
X2467Y4850D01*
X2465Y4848D01*
X2463D01*
X2465Y4846D01*
X2463Y4844D01*
X2465D01*
X2467Y4842D01*
X2700Y4966D02*
X2704Y4970D01*
X2708D01*
X2704Y4974D01*
X2708Y4978D01*
X2704D01*
X2700Y4982D01*
X2696Y4978D01*
X2692D01*
X2696Y4974D01*
X2692Y4970D01*
X2696D01*
X2700Y4966D01*
Y4970D02*
X2702Y4972D01*
X2704D01*
X2702Y4974D01*
X2704Y4976D01*
X2702D01*
X2700Y4978D01*
X2698Y4976D01*
X2696D01*
X2698Y4974D01*
X2696Y4972D01*
X2698D01*
X2700Y4970D01*
X3191Y4866D02*
X3195Y4870D01*
X3199D01*
X3195Y4874D01*
X3199Y4878D01*
X3195D01*
X3191Y4882D01*
X3187Y4878D01*
X3183D01*
X3187Y4874D01*
X3183Y4870D01*
X3187D01*
X3191Y4866D01*
Y4870D02*
X3193Y4872D01*
X3195D01*
X3193Y4874D01*
X3195Y4876D01*
X3193D01*
X3191Y4878D01*
X3189Y4876D01*
X3187D01*
X3189Y4874D01*
X3187Y4872D01*
X3189D01*
X3191Y4870D01*
X696Y465D02*
X688Y481D01*
X704D01*
X696Y465D01*
Y469D02*
X692Y477D01*
X700D01*
X696Y469D01*
X925Y586D02*
X917Y602D01*
X933D01*
X925Y586D01*
Y590D02*
X921Y598D01*
X929D01*
X925Y590D01*
X1476Y595D02*
X1468Y611D01*
X1484D01*
X1476Y595D01*
Y599D02*
X1472Y607D01*
X1480D01*
X1476Y599D01*
X1261Y499D02*
X1253Y515D01*
X1269D01*
X1261Y499D01*
Y503D02*
X1257Y511D01*
X1265D01*
X1261Y503D01*
X2411Y591D02*
X2403Y607D01*
X2419D01*
X2411Y591D01*
Y595D02*
X2407Y603D01*
X2415D01*
X2411Y595D01*
X2741Y500D02*
X2733Y516D01*
X2749D01*
X2741Y500D01*
Y504D02*
X2737Y512D01*
X2745D01*
X2741Y504D01*
X2191Y539D02*
X2183Y555D01*
X2199D01*
X2191Y539D01*
Y543D02*
X2187Y551D01*
X2195D01*
X2191Y543D01*
X2957Y4969D02*
X2961Y4973D01*
X2965D01*
X2961Y4977D01*
X2965Y4981D01*
X2961D01*
X2957Y4985D01*
X2953Y4981D01*
X2949D01*
X2953Y4977D01*
X2949Y4973D01*
X2953D01*
X2957Y4969D01*
Y4973D02*
X2959Y4975D01*
X2961D01*
X2959Y4977D01*
X2961Y4979D01*
X2959D01*
X2957Y4981D01*
X2955Y4979D01*
X2953D01*
X2955Y4977D01*
X2953Y4975D01*
X2955D01*
X2957Y4973D01*
X2968Y599D02*
X2960Y615D01*
X2976D01*
X2968Y599D01*
Y603D02*
X2964Y611D01*
X2972D01*
X2968Y603D01*
X4093Y5268D02*
X4097Y5272D01*
X4101D01*
X4097Y5276D01*
X4101Y5280D01*
X4097D01*
X4093Y5284D01*
X4089Y5280D01*
X4085D01*
X4089Y5276D01*
X4085Y5272D01*
X4089D01*
X4093Y5268D01*
Y5272D02*
X4095Y5274D01*
X4097D01*
X4095Y5276D01*
X4097Y5278D01*
X4095D01*
X4093Y5280D01*
X4091Y5278D01*
X4089D01*
X4091Y5276D01*
X4089Y5274D01*
X4091D01*
X4093Y5272D01*
X4062Y1435D02*
X4066Y1439D01*
X4070D01*
X4066Y1443D01*
X4070Y1447D01*
X4066D01*
X4062Y1451D01*
X4058Y1447D01*
X4054D01*
X4058Y1443D01*
X4054Y1439D01*
X4058D01*
X4062Y1435D01*
Y1439D02*
X4064Y1441D01*
X4066D01*
X4064Y1443D01*
X4066Y1445D01*
X4064D01*
X4062Y1447D01*
X4060Y1445D01*
X4058D01*
X4060Y1443D01*
X4058Y1441D01*
X4060D01*
X4062Y1439D01*
X4021Y1434D02*
X4025Y1438D01*
X4029D01*
X4025Y1442D01*
X4029Y1446D01*
X4025D01*
X4021Y1450D01*
X4017Y1446D01*
X4013D01*
X4017Y1442D01*
X4013Y1438D01*
X4017D01*
X4021Y1434D01*
Y1438D02*
X4023Y1440D01*
X4025D01*
X4023Y1442D01*
X4025Y1444D01*
X4023D01*
X4021Y1446D01*
X4019Y1444D01*
X4017D01*
X4019Y1442D01*
X4017Y1440D01*
X4019D01*
X4021Y1438D01*
X3982Y1434D02*
X3986Y1438D01*
X3990D01*
X3986Y1442D01*
X3990Y1446D01*
X3986D01*
X3982Y1450D01*
X3978Y1446D01*
X3974D01*
X3978Y1442D01*
X3974Y1438D01*
X3978D01*
X3982Y1434D01*
Y1438D02*
X3984Y1440D01*
X3986D01*
X3984Y1442D01*
X3986Y1444D01*
X3984D01*
X3982Y1446D01*
X3980Y1444D01*
X3978D01*
X3980Y1442D01*
X3978Y1440D01*
X3980D01*
X3982Y1438D01*
X3940Y1434D02*
X3944Y1438D01*
X3948D01*
X3944Y1442D01*
X3948Y1446D01*
X3944D01*
X3940Y1450D01*
X3936Y1446D01*
X3932D01*
X3936Y1442D01*
X3932Y1438D01*
X3936D01*
X3940Y1434D01*
Y1438D02*
X3942Y1440D01*
X3944D01*
X3942Y1442D01*
X3944Y1444D01*
X3942D01*
X3940Y1446D01*
X3938Y1444D01*
X3936D01*
X3938Y1442D01*
X3936Y1440D01*
X3938D01*
X3940Y1438D01*
X3899Y1435D02*
X3903Y1439D01*
X3907D01*
X3903Y1443D01*
X3907Y1447D01*
X3903D01*
X3899Y1451D01*
X3895Y1447D01*
X3891D01*
X3895Y1443D01*
X3891Y1439D01*
X3895D01*
X3899Y1435D01*
Y1439D02*
X3901Y1441D01*
X3903D01*
X3901Y1443D01*
X3903Y1445D01*
X3901D01*
X3899Y1447D01*
X3897Y1445D01*
X3895D01*
X3897Y1443D01*
X3895Y1441D01*
X3897D01*
X3899Y1439D01*
X3860Y1435D02*
X3864Y1439D01*
X3868D01*
X3864Y1443D01*
X3868Y1447D01*
X3864D01*
X3860Y1451D01*
X3856Y1447D01*
X3852D01*
X3856Y1443D01*
X3852Y1439D01*
X3856D01*
X3860Y1435D01*
Y1439D02*
X3862Y1441D01*
X3864D01*
X3862Y1443D01*
X3864Y1445D01*
X3862D01*
X3860Y1447D01*
X3858Y1445D01*
X3856D01*
X3858Y1443D01*
X3856Y1441D01*
X3858D01*
X3860Y1439D01*
X3817Y1436D02*
X3821Y1440D01*
X3825D01*
X3821Y1444D01*
X3825Y1448D01*
X3821D01*
X3817Y1452D01*
X3813Y1448D01*
X3809D01*
X3813Y1444D01*
X3809Y1440D01*
X3813D01*
X3817Y1436D01*
Y1440D02*
X3819Y1442D01*
X3821D01*
X3819Y1444D01*
X3821Y1446D01*
X3819D01*
X3817Y1448D01*
X3815Y1446D01*
X3813D01*
X3815Y1444D01*
X3813Y1442D01*
X3815D01*
X3817Y1440D01*
X4059Y1385D02*
X4063Y1389D01*
X4067D01*
X4063Y1393D01*
X4067Y1397D01*
X4063D01*
X4059Y1401D01*
X4055Y1397D01*
X4051D01*
X4055Y1393D01*
X4051Y1389D01*
X4055D01*
X4059Y1385D01*
Y1389D02*
X4061Y1391D01*
X4063D01*
X4061Y1393D01*
X4063Y1395D01*
X4061D01*
X4059Y1397D01*
X4057Y1395D01*
X4055D01*
X4057Y1393D01*
X4055Y1391D01*
X4057D01*
X4059Y1389D01*
X4018Y1384D02*
X4022Y1388D01*
X4026D01*
X4022Y1392D01*
X4026Y1396D01*
X4022D01*
X4018Y1400D01*
X4014Y1396D01*
X4010D01*
X4014Y1392D01*
X4010Y1388D01*
X4014D01*
X4018Y1384D01*
Y1388D02*
X4020Y1390D01*
X4022D01*
X4020Y1392D01*
X4022Y1394D01*
X4020D01*
X4018Y1396D01*
X4016Y1394D01*
X4014D01*
X4016Y1392D01*
X4014Y1390D01*
X4016D01*
X4018Y1388D01*
X3979Y1384D02*
X3983Y1388D01*
X3987D01*
X3983Y1392D01*
X3987Y1396D01*
X3983D01*
X3979Y1400D01*
X3975Y1396D01*
X3971D01*
X3975Y1392D01*
X3971Y1388D01*
X3975D01*
X3979Y1384D01*
Y1388D02*
X3981Y1390D01*
X3983D01*
X3981Y1392D01*
X3983Y1394D01*
X3981D01*
X3979Y1396D01*
X3977Y1394D01*
X3975D01*
X3977Y1392D01*
X3975Y1390D01*
X3977D01*
X3979Y1388D01*
X3937Y1384D02*
X3941Y1388D01*
X3945D01*
X3941Y1392D01*
X3945Y1396D01*
X3941D01*
X3937Y1400D01*
X3933Y1396D01*
X3929D01*
X3933Y1392D01*
X3929Y1388D01*
X3933D01*
X3937Y1384D01*
Y1388D02*
X3939Y1390D01*
X3941D01*
X3939Y1392D01*
X3941Y1394D01*
X3939D01*
X3937Y1396D01*
X3935Y1394D01*
X3933D01*
X3935Y1392D01*
X3933Y1390D01*
X3935D01*
X3937Y1388D01*
X3896Y1385D02*
X3900Y1389D01*
X3904D01*
X3900Y1393D01*
X3904Y1397D01*
X3900D01*
X3896Y1401D01*
X3892Y1397D01*
X3888D01*
X3892Y1393D01*
X3888Y1389D01*
X3892D01*
X3896Y1385D01*
Y1389D02*
X3898Y1391D01*
X3900D01*
X3898Y1393D01*
X3900Y1395D01*
X3898D01*
X3896Y1397D01*
X3894Y1395D01*
X3892D01*
X3894Y1393D01*
X3892Y1391D01*
X3894D01*
X3896Y1389D01*
X3857Y1385D02*
X3861Y1389D01*
X3865D01*
X3861Y1393D01*
X3865Y1397D01*
X3861D01*
X3857Y1401D01*
X3853Y1397D01*
X3849D01*
X3853Y1393D01*
X3849Y1389D01*
X3853D01*
X3857Y1385D01*
Y1389D02*
X3859Y1391D01*
X3861D01*
X3859Y1393D01*
X3861Y1395D01*
X3859D01*
X3857Y1397D01*
X3855Y1395D01*
X3853D01*
X3855Y1393D01*
X3853Y1391D01*
X3855D01*
X3857Y1389D01*
X3814Y1386D02*
X3818Y1390D01*
X3822D01*
X3818Y1394D01*
X3822Y1398D01*
X3818D01*
X3814Y1402D01*
X3810Y1398D01*
X3806D01*
X3810Y1394D01*
X3806Y1390D01*
X3810D01*
X3814Y1386D01*
Y1390D02*
X3816Y1392D01*
X3818D01*
X3816Y1394D01*
X3818Y1396D01*
X3816D01*
X3814Y1398D01*
X3812Y1396D01*
X3810D01*
X3812Y1394D01*
X3810Y1392D01*
X3812D01*
X3814Y1390D01*
X3932Y1485D02*
X3936Y1489D01*
X3940D01*
X3936Y1493D01*
X3940Y1497D01*
X3936D01*
X3932Y1501D01*
X3928Y1497D01*
X3924D01*
X3928Y1493D01*
X3924Y1489D01*
X3928D01*
X3932Y1485D01*
Y1489D02*
X3934Y1491D01*
X3936D01*
X3934Y1493D01*
X3936Y1495D01*
X3934D01*
X3932Y1497D01*
X3930Y1495D01*
X3928D01*
X3930Y1493D01*
X3928Y1491D01*
X3930D01*
X3932Y1489D01*
X3989Y1482D02*
X3993Y1486D01*
X3997D01*
X3993Y1490D01*
X3997Y1494D01*
X3993D01*
X3989Y1498D01*
X3985Y1494D01*
X3981D01*
X3985Y1490D01*
X3981Y1486D01*
X3985D01*
X3989Y1482D01*
Y1486D02*
X3991Y1488D01*
X3993D01*
X3991Y1490D01*
X3993Y1492D01*
X3991D01*
X3989Y1494D01*
X3987Y1492D01*
X3985D01*
X3987Y1490D01*
X3985Y1488D01*
X3987D01*
X3989Y1486D01*
X4058Y1334D02*
X4062Y1338D01*
X4066D01*
X4062Y1342D01*
X4066Y1346D01*
X4062D01*
X4058Y1350D01*
X4054Y1346D01*
X4050D01*
X4054Y1342D01*
X4050Y1338D01*
X4054D01*
X4058Y1334D01*
Y1338D02*
X4060Y1340D01*
X4062D01*
X4060Y1342D01*
X4062Y1344D01*
X4060D01*
X4058Y1346D01*
X4056Y1344D01*
X4054D01*
X4056Y1342D01*
X4054Y1340D01*
X4056D01*
X4058Y1338D01*
X4017Y1333D02*
X4021Y1337D01*
X4025D01*
X4021Y1341D01*
X4025Y1345D01*
X4021D01*
X4017Y1349D01*
X4013Y1345D01*
X4009D01*
X4013Y1341D01*
X4009Y1337D01*
X4013D01*
X4017Y1333D01*
Y1337D02*
X4019Y1339D01*
X4021D01*
X4019Y1341D01*
X4021Y1343D01*
X4019D01*
X4017Y1345D01*
X4015Y1343D01*
X4013D01*
X4015Y1341D01*
X4013Y1339D01*
X4015D01*
X4017Y1337D01*
X3978Y1333D02*
X3982Y1337D01*
X3986D01*
X3982Y1341D01*
X3986Y1345D01*
X3982D01*
X3978Y1349D01*
X3974Y1345D01*
X3970D01*
X3974Y1341D01*
X3970Y1337D01*
X3974D01*
X3978Y1333D01*
Y1337D02*
X3980Y1339D01*
X3982D01*
X3980Y1341D01*
X3982Y1343D01*
X3980D01*
X3978Y1345D01*
X3976Y1343D01*
X3974D01*
X3976Y1341D01*
X3974Y1339D01*
X3976D01*
X3978Y1337D01*
X3936Y1333D02*
X3940Y1337D01*
X3944D01*
X3940Y1341D01*
X3944Y1345D01*
X3940D01*
X3936Y1349D01*
X3932Y1345D01*
X3928D01*
X3932Y1341D01*
X3928Y1337D01*
X3932D01*
X3936Y1333D01*
Y1337D02*
X3938Y1339D01*
X3940D01*
X3938Y1341D01*
X3940Y1343D01*
X3938D01*
X3936Y1345D01*
X3934Y1343D01*
X3932D01*
X3934Y1341D01*
X3932Y1339D01*
X3934D01*
X3936Y1337D01*
X3895Y1334D02*
X3899Y1338D01*
X3903D01*
X3899Y1342D01*
X3903Y1346D01*
X3899D01*
X3895Y1350D01*
X3891Y1346D01*
X3887D01*
X3891Y1342D01*
X3887Y1338D01*
X3891D01*
X3895Y1334D01*
Y1338D02*
X3897Y1340D01*
X3899D01*
X3897Y1342D01*
X3899Y1344D01*
X3897D01*
X3895Y1346D01*
X3893Y1344D01*
X3891D01*
X3893Y1342D01*
X3891Y1340D01*
X3893D01*
X3895Y1338D01*
X3856Y1334D02*
X3860Y1338D01*
X3864D01*
X3860Y1342D01*
X3864Y1346D01*
X3860D01*
X3856Y1350D01*
X3852Y1346D01*
X3848D01*
X3852Y1342D01*
X3848Y1338D01*
X3852D01*
X3856Y1334D01*
Y1338D02*
X3858Y1340D01*
X3860D01*
X3858Y1342D01*
X3860Y1344D01*
X3858D01*
X3856Y1346D01*
X3854Y1344D01*
X3852D01*
X3854Y1342D01*
X3852Y1340D01*
X3854D01*
X3856Y1338D01*
X3813Y1335D02*
X3817Y1339D01*
X3821D01*
X3817Y1343D01*
X3821Y1347D01*
X3817D01*
X3813Y1351D01*
X3809Y1347D01*
X3805D01*
X3809Y1343D01*
X3805Y1339D01*
X3809D01*
X3813Y1335D01*
Y1339D02*
X3815Y1341D01*
X3817D01*
X3815Y1343D01*
X3817Y1345D01*
X3815D01*
X3813Y1347D01*
X3811Y1345D01*
X3809D01*
X3811Y1343D01*
X3809Y1341D01*
X3811D01*
X3813Y1339D01*
X4195Y1107D02*
X4199Y1111D01*
X4203D01*
X4199Y1115D01*
X4203Y1119D01*
X4199D01*
X4195Y1123D01*
X4191Y1119D01*
X4187D01*
X4191Y1115D01*
X4187Y1111D01*
X4191D01*
X4195Y1107D01*
Y1111D02*
X4197Y1113D01*
X4199D01*
X4197Y1115D01*
X4199Y1117D01*
X4197D01*
X4195Y1119D01*
X4193Y1117D01*
X4191D01*
X4193Y1115D01*
X4191Y1113D01*
X4193D01*
X4195Y1111D01*
X4371Y1437D02*
X4375Y1441D01*
X4379D01*
X4375Y1445D01*
X4379Y1449D01*
X4375D01*
X4371Y1453D01*
X4367Y1449D01*
X4363D01*
X4367Y1445D01*
X4363Y1441D01*
X4367D01*
X4371Y1437D01*
Y1441D02*
X4373Y1443D01*
X4375D01*
X4373Y1445D01*
X4375Y1447D01*
X4373D01*
X4371Y1449D01*
X4369Y1447D01*
X4367D01*
X4369Y1445D01*
X4367Y1443D01*
X4369D01*
X4371Y1441D01*
X3665Y2182D02*
X3669Y2186D01*
X3673D01*
X3669Y2190D01*
X3673Y2194D01*
X3669D01*
X3665Y2198D01*
X3661Y2194D01*
X3657D01*
X3661Y2190D01*
X3657Y2186D01*
X3661D01*
X3665Y2182D01*
Y2186D02*
X3667Y2188D01*
X3669D01*
X3667Y2190D01*
X3669Y2192D01*
X3667D01*
X3665Y2194D01*
X3663Y2192D01*
X3661D01*
X3663Y2190D01*
X3661Y2188D01*
X3663D01*
X3665Y2186D01*
X4267Y4221D02*
X4271Y4225D01*
X4275D01*
X4271Y4229D01*
X4275Y4233D01*
X4271D01*
X4267Y4237D01*
X4263Y4233D01*
X4259D01*
X4263Y4229D01*
X4259Y4225D01*
X4263D01*
X4267Y4221D01*
Y4225D02*
X4269Y4227D01*
X4271D01*
X4269Y4229D01*
X4271Y4231D01*
X4269D01*
X4267Y4233D01*
X4265Y4231D01*
X4263D01*
X4265Y4229D01*
X4263Y4227D01*
X4265D01*
X4267Y4225D01*
X3572Y2801D02*
X3576Y2809D01*
X3572Y2817D01*
X3580Y2813D01*
X3588Y2817D01*
X3584Y2809D01*
X3588Y2801D01*
X3580Y2805D01*
X3572Y2801D01*
X3576Y2805D02*
X3578Y2809D01*
X3576Y2813D01*
X3580Y2811D01*
X3584Y2813D01*
X3582Y2809D01*
X3584Y2805D01*
X3580Y2807D01*
X3576Y2805D01*
X2680Y4459D02*
X2672Y4475D01*
X2688D01*
X2680Y4459D01*
Y4463D02*
X2676Y4471D01*
X2684D01*
X2680Y4463D01*
X2974Y4457D02*
X2966Y4473D01*
X2982D01*
X2974Y4457D01*
Y4461D02*
X2970Y4469D01*
X2978D01*
X2974Y4461D01*
X1350Y4451D02*
X1342Y4467D01*
X1358D01*
X1350Y4451D01*
Y4455D02*
X1346Y4463D01*
X1354D01*
X1350Y4455D01*
X1056Y4453D02*
X1048Y4469D01*
X1064D01*
X1056Y4453D01*
Y4457D02*
X1052Y4465D01*
X1060D01*
X1056Y4457D01*
X3407Y2156D02*
X3411Y2160D01*
X3415D01*
X3411Y2164D01*
X3415Y2168D01*
X3411D01*
X3407Y2172D01*
X3403Y2168D01*
X3399D01*
X3403Y2164D01*
X3399Y2160D01*
X3403D01*
X3407Y2156D01*
Y2160D02*
X3409Y2162D01*
X3411D01*
X3409Y2164D01*
X3411Y2166D01*
X3409D01*
X3407Y2168D01*
X3405Y2166D01*
X3403D01*
X3405Y2164D01*
X3403Y2162D01*
X3405D01*
X3407Y2160D01*
Y2106D02*
X3411Y2110D01*
X3415D01*
X3411Y2114D01*
X3415Y2118D01*
X3411D01*
X3407Y2122D01*
X3403Y2118D01*
X3399D01*
X3403Y2114D01*
X3399Y2110D01*
X3403D01*
X3407Y2106D01*
Y2110D02*
X3409Y2112D01*
X3411D01*
X3409Y2114D01*
X3411Y2116D01*
X3409D01*
X3407Y2118D01*
X3405Y2116D01*
X3403D01*
X3405Y2114D01*
X3403Y2112D01*
X3405D01*
X3407Y2110D01*
X3157Y2156D02*
X3161Y2160D01*
X3165D01*
X3161Y2164D01*
X3165Y2168D01*
X3161D01*
X3157Y2172D01*
X3153Y2168D01*
X3149D01*
X3153Y2164D01*
X3149Y2160D01*
X3153D01*
X3157Y2156D01*
Y2160D02*
X3159Y2162D01*
X3161D01*
X3159Y2164D01*
X3161Y2166D01*
X3159D01*
X3157Y2168D01*
X3155Y2166D01*
X3153D01*
X3155Y2164D01*
X3153Y2162D01*
X3155D01*
X3157Y2160D01*
Y2106D02*
X3161Y2110D01*
X3165D01*
X3161Y2114D01*
X3165Y2118D01*
X3161D01*
X3157Y2122D01*
X3153Y2118D01*
X3149D01*
X3153Y2114D01*
X3149Y2110D01*
X3153D01*
X3157Y2106D01*
Y2110D02*
X3159Y2112D01*
X3161D01*
X3159Y2114D01*
X3161Y2116D01*
X3159D01*
X3157Y2118D01*
X3155Y2116D01*
X3153D01*
X3155Y2114D01*
X3153Y2112D01*
X3155D01*
X3157Y2110D01*
X3357Y2106D02*
X3361Y2110D01*
X3365D01*
X3361Y2114D01*
X3365Y2118D01*
X3361D01*
X3357Y2122D01*
X3353Y2118D01*
X3349D01*
X3353Y2114D01*
X3349Y2110D01*
X3353D01*
X3357Y2106D01*
Y2110D02*
X3359Y2112D01*
X3361D01*
X3359Y2114D01*
X3361Y2116D01*
X3359D01*
X3357Y2118D01*
X3355Y2116D01*
X3353D01*
X3355Y2114D01*
X3353Y2112D01*
X3355D01*
X3357Y2110D01*
X3307Y2106D02*
X3311Y2110D01*
X3315D01*
X3311Y2114D01*
X3315Y2118D01*
X3311D01*
X3307Y2122D01*
X3303Y2118D01*
X3299D01*
X3303Y2114D01*
X3299Y2110D01*
X3303D01*
X3307Y2106D01*
Y2110D02*
X3309Y2112D01*
X3311D01*
X3309Y2114D01*
X3311Y2116D01*
X3309D01*
X3307Y2118D01*
X3305Y2116D01*
X3303D01*
X3305Y2114D01*
X3303Y2112D01*
X3305D01*
X3307Y2110D01*
X3257Y2106D02*
X3261Y2110D01*
X3265D01*
X3261Y2114D01*
X3265Y2118D01*
X3261D01*
X3257Y2122D01*
X3253Y2118D01*
X3249D01*
X3253Y2114D01*
X3249Y2110D01*
X3253D01*
X3257Y2106D01*
Y2110D02*
X3259Y2112D01*
X3261D01*
X3259Y2114D01*
X3261Y2116D01*
X3259D01*
X3257Y2118D01*
X3255Y2116D01*
X3253D01*
X3255Y2114D01*
X3253Y2112D01*
X3255D01*
X3257Y2110D01*
X3207Y2106D02*
X3211Y2110D01*
X3215D01*
X3211Y2114D01*
X3215Y2118D01*
X3211D01*
X3207Y2122D01*
X3203Y2118D01*
X3199D01*
X3203Y2114D01*
X3199Y2110D01*
X3203D01*
X3207Y2106D01*
Y2110D02*
X3209Y2112D01*
X3211D01*
X3209Y2114D01*
X3211Y2116D01*
X3209D01*
X3207Y2118D01*
X3205Y2116D01*
X3203D01*
X3205Y2114D01*
X3203Y2112D01*
X3205D01*
X3207Y2110D01*
X3357Y2156D02*
X3361Y2160D01*
X3365D01*
X3361Y2164D01*
X3365Y2168D01*
X3361D01*
X3357Y2172D01*
X3353Y2168D01*
X3349D01*
X3353Y2164D01*
X3349Y2160D01*
X3353D01*
X3357Y2156D01*
Y2160D02*
X3359Y2162D01*
X3361D01*
X3359Y2164D01*
X3361Y2166D01*
X3359D01*
X3357Y2168D01*
X3355Y2166D01*
X3353D01*
X3355Y2164D01*
X3353Y2162D01*
X3355D01*
X3357Y2160D01*
X3307Y2156D02*
X3311Y2160D01*
X3315D01*
X3311Y2164D01*
X3315Y2168D01*
X3311D01*
X3307Y2172D01*
X3303Y2168D01*
X3299D01*
X3303Y2164D01*
X3299Y2160D01*
X3303D01*
X3307Y2156D01*
Y2160D02*
X3309Y2162D01*
X3311D01*
X3309Y2164D01*
X3311Y2166D01*
X3309D01*
X3307Y2168D01*
X3305Y2166D01*
X3303D01*
X3305Y2164D01*
X3303Y2162D01*
X3305D01*
X3307Y2160D01*
X3257Y2156D02*
X3261Y2160D01*
X3265D01*
X3261Y2164D01*
X3265Y2168D01*
X3261D01*
X3257Y2172D01*
X3253Y2168D01*
X3249D01*
X3253Y2164D01*
X3249Y2160D01*
X3253D01*
X3257Y2156D01*
Y2160D02*
X3259Y2162D01*
X3261D01*
X3259Y2164D01*
X3261Y2166D01*
X3259D01*
X3257Y2168D01*
X3255Y2166D01*
X3253D01*
X3255Y2164D01*
X3253Y2162D01*
X3255D01*
X3257Y2160D01*
X3207Y2156D02*
X3211Y2160D01*
X3215D01*
X3211Y2164D01*
X3215Y2168D01*
X3211D01*
X3207Y2172D01*
X3203Y2168D01*
X3199D01*
X3203Y2164D01*
X3199Y2160D01*
X3203D01*
X3207Y2156D01*
Y2160D02*
X3209Y2162D01*
X3211D01*
X3209Y2164D01*
X3211Y2166D01*
X3209D01*
X3207Y2168D01*
X3205Y2166D01*
X3203D01*
X3205Y2164D01*
X3203Y2162D01*
X3205D01*
X3207Y2160D01*
X3239Y2212D02*
X3243Y2216D01*
X3247D01*
X3243Y2220D01*
X3247Y2224D01*
X3243D01*
X3239Y2228D01*
X3235Y2224D01*
X3231D01*
X3235Y2220D01*
X3231Y2216D01*
X3235D01*
X3239Y2212D01*
Y2216D02*
X3241Y2218D01*
X3243D01*
X3241Y2220D01*
X3243Y2222D01*
X3241D01*
X3239Y2224D01*
X3237Y2222D01*
X3235D01*
X3237Y2220D01*
X3235Y2218D01*
X3237D01*
X3239Y2216D01*
X3289Y2212D02*
X3293Y2216D01*
X3297D01*
X3293Y2220D01*
X3297Y2224D01*
X3293D01*
X3289Y2228D01*
X3285Y2224D01*
X3281D01*
X3285Y2220D01*
X3281Y2216D01*
X3285D01*
X3289Y2212D01*
Y2216D02*
X3291Y2218D01*
X3293D01*
X3291Y2220D01*
X3293Y2222D01*
X3291D01*
X3289Y2224D01*
X3287Y2222D01*
X3285D01*
X3287Y2220D01*
X3285Y2218D01*
X3287D01*
X3289Y2216D01*
X3339Y2212D02*
X3343Y2216D01*
X3347D01*
X3343Y2220D01*
X3347Y2224D01*
X3343D01*
X3339Y2228D01*
X3335Y2224D01*
X3331D01*
X3335Y2220D01*
X3331Y2216D01*
X3335D01*
X3339Y2212D01*
Y2216D02*
X3341Y2218D01*
X3343D01*
X3341Y2220D01*
X3343Y2222D01*
X3341D01*
X3339Y2224D01*
X3337Y2222D01*
X3335D01*
X3337Y2220D01*
X3335Y2218D01*
X3337D01*
X3339Y2216D01*
X2611Y1507D02*
X2603Y1523D01*
X2619D01*
X2611Y1507D01*
Y1511D02*
X2607Y1519D01*
X2615D01*
X2611Y1511D01*
X1148Y1490D02*
X1140Y1506D01*
X1156D01*
X1148Y1490D01*
Y1494D02*
X1144Y1502D01*
X1152D01*
X1148Y1494D01*
X2969Y2504D02*
X2973Y2508D01*
X2977D01*
X2973Y2512D01*
X2977Y2516D01*
X2973D01*
X2969Y2520D01*
X2965Y2516D01*
X2961D01*
X2965Y2512D01*
X2961Y2508D01*
X2965D01*
X2969Y2504D01*
Y2508D02*
X2971Y2510D01*
X2973D01*
X2971Y2512D01*
X2973Y2514D01*
X2971D01*
X2969Y2516D01*
X2967Y2514D01*
X2965D01*
X2967Y2512D01*
X2965Y2510D01*
X2967D01*
X2969Y2508D01*
X2090Y2720D02*
X2082Y2736D01*
X2098D01*
X2090Y2720D01*
Y2724D02*
X2086Y2732D01*
X2094D01*
X2090Y2724D01*
X2883Y1318D02*
X2875Y1334D01*
X2891D01*
X2883Y1318D01*
Y1322D02*
X2879Y1330D01*
X2887D01*
X2883Y1322D01*
X642Y3481D02*
X634Y3497D01*
X650D01*
X642Y3481D01*
Y3485D02*
X638Y3493D01*
X646D01*
X642Y3485D01*
X766Y3456D02*
X758Y3472D01*
X774D01*
X766Y3456D01*
Y3460D02*
X762Y3468D01*
X770D01*
X766Y3460D01*
X640Y3440D02*
X632Y3456D01*
X648D01*
X640Y3440D01*
Y3444D02*
X636Y3452D01*
X644D01*
X640Y3444D01*
X766Y3418D02*
X758Y3434D01*
X774D01*
X766Y3418D01*
Y3422D02*
X762Y3430D01*
X770D01*
X766Y3422D01*
X642Y3403D02*
X634Y3419D01*
X650D01*
X642Y3403D01*
Y3407D02*
X638Y3415D01*
X646D01*
X642Y3407D01*
Y3359D02*
X634Y3375D01*
X650D01*
X642Y3359D01*
Y3363D02*
X638Y3371D01*
X646D01*
X642Y3363D01*
Y3083D02*
X634Y3099D01*
X650D01*
X642Y3083D01*
Y3087D02*
X638Y3095D01*
X646D01*
X642Y3087D01*
Y3045D02*
X634Y3061D01*
X650D01*
X642Y3045D01*
Y3049D02*
X638Y3057D01*
X646D01*
X642Y3049D01*
X766Y3022D02*
X758Y3038D01*
X774D01*
X766Y3022D01*
Y3026D02*
X762Y3034D01*
X770D01*
X766Y3026D01*
Y2989D02*
X758Y3005D01*
X774D01*
X766Y2989D01*
Y2993D02*
X762Y3001D01*
X770D01*
X766Y2993D01*
X642Y2969D02*
X634Y2985D01*
X650D01*
X642Y2969D01*
Y2973D02*
X638Y2981D01*
X646D01*
X642Y2973D01*
Y2927D02*
X634Y2943D01*
X650D01*
X642Y2927D01*
Y2931D02*
X638Y2939D01*
X646D01*
X642Y2931D01*
X766Y2907D02*
X758Y2923D01*
X774D01*
X766Y2907D01*
Y2911D02*
X762Y2919D01*
X770D01*
X766Y2911D01*
Y2866D02*
X758Y2882D01*
X774D01*
X766Y2866D01*
Y2870D02*
X762Y2878D01*
X770D01*
X766Y2870D01*
X642Y2848D02*
X634Y2864D01*
X650D01*
X642Y2848D01*
Y2852D02*
X638Y2860D01*
X646D01*
X642Y2852D01*
Y2809D02*
X634Y2825D01*
X650D01*
X642Y2809D01*
Y2813D02*
X638Y2821D01*
X646D01*
X642Y2813D01*
X766Y2790D02*
X758Y2806D01*
X774D01*
X766Y2790D01*
Y2794D02*
X762Y2802D01*
X770D01*
X766Y2794D01*
X642Y2767D02*
X634Y2783D01*
X650D01*
X642Y2767D01*
Y2771D02*
X638Y2779D01*
X646D01*
X642Y2771D01*
X766Y2751D02*
X758Y2767D01*
X774D01*
X766Y2751D01*
Y2755D02*
X762Y2763D01*
X770D01*
X766Y2755D01*
X642Y2728D02*
X634Y2744D01*
X650D01*
X642Y2728D01*
Y2732D02*
X638Y2740D01*
X646D01*
X642Y2732D01*
X766Y2712D02*
X758Y2728D01*
X774D01*
X766Y2712D01*
Y2716D02*
X762Y2724D01*
X770D01*
X766Y2716D01*
X642Y2688D02*
X634Y2704D01*
X650D01*
X642Y2688D01*
Y2692D02*
X638Y2700D01*
X646D01*
X642Y2692D01*
Y2651D02*
X634Y2667D01*
X650D01*
X642Y2651D01*
Y2655D02*
X638Y2663D01*
X646D01*
X642Y2655D01*
X766Y2631D02*
X758Y2647D01*
X774D01*
X766Y2631D01*
Y2635D02*
X762Y2643D01*
X770D01*
X766Y2635D01*
X642Y2606D02*
X634Y2622D01*
X650D01*
X642Y2606D01*
Y2610D02*
X638Y2618D01*
X646D01*
X642Y2610D01*
X766Y2590D02*
X758Y2606D01*
X774D01*
X766Y2590D01*
Y2594D02*
X762Y2602D01*
X770D01*
X766Y2594D01*
X642Y2574D02*
X634Y2590D01*
X650D01*
X642Y2574D01*
Y2578D02*
X638Y2586D01*
X646D01*
X642Y2578D01*
X766Y2552D02*
X758Y2568D01*
X774D01*
X766Y2552D01*
Y2556D02*
X762Y2564D01*
X770D01*
X766Y2556D01*
X642Y2532D02*
X634Y2548D01*
X650D01*
X642Y2532D01*
Y2536D02*
X638Y2544D01*
X646D01*
X642Y2536D01*
X766Y2514D02*
X758Y2530D01*
X774D01*
X766Y2514D01*
Y2518D02*
X762Y2526D01*
X770D01*
X766Y2518D01*
X642Y2490D02*
X634Y2506D01*
X650D01*
X642Y2490D01*
Y2494D02*
X638Y2502D01*
X646D01*
X642Y2494D01*
Y2451D02*
X634Y2467D01*
X650D01*
X642Y2451D01*
Y2455D02*
X638Y2463D01*
X646D01*
X642Y2455D01*
X766Y2435D02*
X758Y2451D01*
X774D01*
X766Y2435D01*
Y2439D02*
X762Y2447D01*
X770D01*
X766Y2439D01*
X642Y2417D02*
X634Y2433D01*
X650D01*
X642Y2417D01*
Y2421D02*
X638Y2429D01*
X646D01*
X642Y2421D01*
X766Y2398D02*
X758Y2414D01*
X774D01*
X766Y2398D01*
Y2402D02*
X762Y2410D01*
X770D01*
X766Y2402D01*
X642Y2376D02*
X634Y2392D01*
X650D01*
X642Y2376D01*
Y2380D02*
X638Y2388D01*
X646D01*
X642Y2380D01*
X766Y2358D02*
X758Y2374D01*
X774D01*
X766Y2358D01*
Y2362D02*
X762Y2370D01*
X770D01*
X766Y2362D01*
X642Y2337D02*
X634Y2353D01*
X650D01*
X642Y2337D01*
Y2341D02*
X638Y2349D01*
X646D01*
X642Y2341D01*
X766Y2317D02*
X758Y2333D01*
X774D01*
X766Y2317D01*
Y2321D02*
X762Y2329D01*
X770D01*
X766Y2321D01*
X642Y2296D02*
X634Y2312D01*
X650D01*
X642Y2296D01*
Y2300D02*
X638Y2308D01*
X646D01*
X642Y2300D01*
Y2258D02*
X634Y2274D01*
X650D01*
X642Y2258D01*
Y2262D02*
X638Y2270D01*
X646D01*
X642Y2262D01*
X766Y2240D02*
X758Y2256D01*
X774D01*
X766Y2240D01*
Y2244D02*
X762Y2252D01*
X770D01*
X766Y2244D01*
X642Y2217D02*
X634Y2233D01*
X650D01*
X642Y2217D01*
Y2221D02*
X638Y2229D01*
X646D01*
X642Y2221D01*
X766Y2199D02*
X758Y2215D01*
X774D01*
X766Y2199D01*
Y2203D02*
X762Y2211D01*
X770D01*
X766Y2203D01*
X642Y2179D02*
X634Y2195D01*
X650D01*
X642Y2179D01*
Y2183D02*
X638Y2191D01*
X646D01*
X642Y2183D01*
X766Y2158D02*
X758Y2174D01*
X774D01*
X766Y2158D01*
Y2162D02*
X762Y2170D01*
X770D01*
X766Y2162D01*
X642Y2142D02*
X634Y2158D01*
X650D01*
X642Y2142D01*
Y2146D02*
X638Y2154D01*
X646D01*
X642Y2146D01*
X766Y2118D02*
X758Y2134D01*
X774D01*
X766Y2118D01*
Y2122D02*
X762Y2130D01*
X770D01*
X766Y2122D01*
X642Y2097D02*
X634Y2113D01*
X650D01*
X642Y2097D01*
Y2101D02*
X638Y2109D01*
X646D01*
X642Y2101D01*
Y2061D02*
X634Y2077D01*
X650D01*
X642Y2061D01*
Y2065D02*
X638Y2073D01*
X646D01*
X642Y2065D01*
X766Y2041D02*
X758Y2057D01*
X774D01*
X766Y2041D01*
Y2045D02*
X762Y2053D01*
X770D01*
X766Y2045D01*
Y1999D02*
X758Y2015D01*
X774D01*
X766Y1999D01*
Y2003D02*
X762Y2011D01*
X770D01*
X766Y2003D01*
X642Y1979D02*
X634Y1995D01*
X650D01*
X642Y1979D01*
Y1983D02*
X638Y1991D01*
X646D01*
X642Y1983D01*
X766Y1959D02*
X758Y1975D01*
X774D01*
X766Y1959D01*
Y1963D02*
X762Y1971D01*
X770D01*
X766Y1963D01*
X642Y1942D02*
X634Y1958D01*
X650D01*
X642Y1942D01*
Y1946D02*
X638Y1954D01*
X646D01*
X642Y1946D01*
X766Y1922D02*
X758Y1938D01*
X774D01*
X766Y1922D01*
Y1926D02*
X762Y1934D01*
X770D01*
X766Y1926D01*
X642Y1903D02*
X634Y1919D01*
X650D01*
X642Y1903D01*
Y1907D02*
X638Y1915D01*
X646D01*
X642Y1907D01*
X766Y1884D02*
X758Y1900D01*
X774D01*
X766Y1884D01*
Y1888D02*
X762Y1896D01*
X770D01*
X766Y1888D01*
X479Y3478D02*
X471Y3494D01*
X487D01*
X479Y3478D01*
Y3482D02*
X475Y3490D01*
X483D01*
X479Y3482D01*
X594Y3458D02*
X586Y3474D01*
X602D01*
X594Y3458D01*
Y3462D02*
X590Y3470D01*
X598D01*
X594Y3462D01*
X480Y3438D02*
X472Y3454D01*
X488D01*
X480Y3438D01*
Y3442D02*
X476Y3450D01*
X484D01*
X480Y3442D01*
X594Y3419D02*
X586Y3435D01*
X602D01*
X594Y3419D01*
Y3423D02*
X590Y3431D01*
X598D01*
X594Y3423D01*
Y3379D02*
X586Y3395D01*
X602D01*
X594Y3379D01*
Y3383D02*
X590Y3391D01*
X598D01*
X594Y3383D01*
Y3064D02*
X586Y3080D01*
X602D01*
X594Y3064D01*
Y3068D02*
X590Y3076D01*
X598D01*
X594Y3068D01*
X480Y3045D02*
X472Y3061D01*
X488D01*
X480Y3045D01*
Y3049D02*
X476Y3057D01*
X484D01*
X480Y3049D01*
Y3006D02*
X472Y3022D01*
X488D01*
X480Y3006D01*
Y3010D02*
X476Y3018D01*
X484D01*
X480Y3010D01*
X594Y2985D02*
X586Y3001D01*
X602D01*
X594Y2985D01*
Y2989D02*
X590Y2997D01*
X598D01*
X594Y2989D01*
Y2946D02*
X586Y2962D01*
X602D01*
X594Y2946D01*
Y2950D02*
X590Y2958D01*
X598D01*
X594Y2950D01*
X480Y2927D02*
X472Y2943D01*
X488D01*
X480Y2927D01*
Y2931D02*
X476Y2939D01*
X484D01*
X480Y2931D01*
Y2889D02*
X472Y2905D01*
X488D01*
X480Y2889D01*
Y2893D02*
X476Y2901D01*
X484D01*
X480Y2893D01*
X594Y2868D02*
X586Y2884D01*
X602D01*
X594Y2868D01*
Y2872D02*
X590Y2880D01*
X598D01*
X594Y2872D01*
X595Y2829D02*
X587Y2845D01*
X603D01*
X595Y2829D01*
Y2833D02*
X591Y2841D01*
X599D01*
X595Y2833D01*
X480Y2809D02*
X472Y2825D01*
X488D01*
X480Y2809D01*
Y2813D02*
X476Y2821D01*
X484D01*
X480Y2813D01*
Y2769D02*
X472Y2785D01*
X488D01*
X480Y2769D01*
Y2773D02*
X476Y2781D01*
X484D01*
X480Y2773D01*
X594Y2749D02*
X586Y2765D01*
X602D01*
X594Y2749D01*
Y2753D02*
X590Y2761D01*
X598D01*
X594Y2753D01*
X480Y2731D02*
X472Y2747D01*
X488D01*
X480Y2731D01*
Y2735D02*
X476Y2743D01*
X484D01*
X480Y2735D01*
X594Y2710D02*
X586Y2726D01*
X602D01*
X594Y2710D01*
Y2714D02*
X590Y2722D01*
X598D01*
X594Y2714D01*
X480Y2690D02*
X472Y2706D01*
X488D01*
X480Y2690D01*
Y2694D02*
X476Y2702D01*
X484D01*
X480Y2694D01*
X594Y2670D02*
X586Y2686D01*
X602D01*
X594Y2670D01*
Y2674D02*
X590Y2682D01*
X598D01*
X594Y2674D01*
X480Y2651D02*
X472Y2667D01*
X488D01*
X480Y2651D01*
Y2655D02*
X476Y2663D01*
X484D01*
X480Y2655D01*
X594Y2631D02*
X586Y2647D01*
X602D01*
X594Y2631D01*
Y2635D02*
X590Y2643D01*
X598D01*
X594Y2635D01*
X480Y2613D02*
X472Y2629D01*
X488D01*
X480Y2613D01*
Y2617D02*
X476Y2625D01*
X484D01*
X480Y2617D01*
Y2573D02*
X472Y2589D01*
X488D01*
X480Y2573D01*
Y2577D02*
X476Y2585D01*
X484D01*
X480Y2577D01*
X594Y2553D02*
X586Y2569D01*
X602D01*
X594Y2553D01*
Y2557D02*
X590Y2565D01*
X598D01*
X594Y2557D01*
X480Y2535D02*
X472Y2551D01*
X488D01*
X480Y2535D01*
Y2539D02*
X476Y2547D01*
X484D01*
X480Y2539D01*
X594Y2513D02*
X586Y2529D01*
X602D01*
X594Y2513D01*
Y2517D02*
X590Y2525D01*
X598D01*
X594Y2517D01*
X480Y2494D02*
X472Y2510D01*
X488D01*
X480Y2494D01*
Y2498D02*
X476Y2506D01*
X484D01*
X480Y2498D01*
X594Y2474D02*
X586Y2490D01*
X602D01*
X594Y2474D01*
Y2478D02*
X590Y2486D01*
X598D01*
X594Y2478D01*
X480Y2455D02*
X472Y2471D01*
X488D01*
X480Y2455D01*
Y2459D02*
X476Y2467D01*
X484D01*
X480Y2459D01*
X594Y2431D02*
X586Y2447D01*
X602D01*
X594Y2431D01*
Y2435D02*
X590Y2443D01*
X598D01*
X594Y2435D01*
X480Y2413D02*
X472Y2429D01*
X488D01*
X480Y2413D01*
Y2417D02*
X476Y2425D01*
X484D01*
X480Y2417D01*
Y2374D02*
X472Y2390D01*
X488D01*
X480Y2374D01*
Y2378D02*
X476Y2386D01*
X484D01*
X480Y2378D01*
X594Y2354D02*
X586Y2370D01*
X602D01*
X594Y2354D01*
Y2358D02*
X590Y2366D01*
X598D01*
X594Y2358D01*
X480Y2336D02*
X472Y2352D01*
X488D01*
X480Y2336D01*
Y2340D02*
X476Y2348D01*
X484D01*
X480Y2340D01*
X594Y2316D02*
X586Y2332D01*
X602D01*
X594Y2316D01*
Y2320D02*
X590Y2328D01*
X598D01*
X594Y2320D01*
X480Y2296D02*
X472Y2312D01*
X488D01*
X480Y2296D01*
Y2300D02*
X476Y2308D01*
X484D01*
X480Y2300D01*
X594Y2277D02*
X586Y2293D01*
X602D01*
X594Y2277D01*
Y2281D02*
X590Y2289D01*
X598D01*
X594Y2281D01*
X480Y2255D02*
X472Y2271D01*
X488D01*
X480Y2255D01*
Y2259D02*
X476Y2267D01*
X484D01*
X480Y2259D01*
X594Y2240D02*
X586Y2256D01*
X602D01*
X594Y2240D01*
Y2244D02*
X590Y2252D01*
X598D01*
X594Y2244D01*
X480Y2217D02*
X472Y2233D01*
X488D01*
X480Y2217D01*
Y2221D02*
X476Y2229D01*
X484D01*
X480Y2221D01*
X481Y2179D02*
X473Y2195D01*
X489D01*
X481Y2179D01*
Y2183D02*
X477Y2191D01*
X485D01*
X481Y2183D01*
X594Y2158D02*
X586Y2174D01*
X602D01*
X594Y2158D01*
Y2162D02*
X590Y2170D01*
X598D01*
X594Y2162D01*
X480Y2138D02*
X472Y2154D01*
X488D01*
X480Y2138D01*
Y2142D02*
X476Y2150D01*
X484D01*
X480Y2142D01*
X594Y2120D02*
X586Y2136D01*
X602D01*
X594Y2120D01*
Y2124D02*
X590Y2132D01*
X598D01*
X594Y2124D01*
X480Y2102D02*
X472Y2118D01*
X488D01*
X480Y2102D01*
Y2106D02*
X476Y2114D01*
X484D01*
X480Y2106D01*
X594Y2080D02*
X586Y2096D01*
X602D01*
X594Y2080D01*
Y2084D02*
X590Y2092D01*
X598D01*
X594Y2084D01*
X480Y2061D02*
X472Y2077D01*
X488D01*
X480Y2061D01*
Y2065D02*
X476Y2073D01*
X484D01*
X480Y2065D01*
Y2023D02*
X472Y2039D01*
X488D01*
X480Y2023D01*
Y2027D02*
X476Y2035D01*
X484D01*
X480Y2027D01*
X594Y2001D02*
X586Y2017D01*
X602D01*
X594Y2001D01*
Y2005D02*
X590Y2013D01*
X598D01*
X594Y2005D01*
Y1960D02*
X586Y1976D01*
X602D01*
X594Y1960D01*
Y1964D02*
X590Y1972D01*
X598D01*
X594Y1964D01*
X481Y1942D02*
X473Y1958D01*
X489D01*
X481Y1942D01*
Y1946D02*
X477Y1954D01*
X485D01*
X481Y1946D01*
X594Y1922D02*
X586Y1938D01*
X602D01*
X594Y1922D01*
Y1926D02*
X590Y1934D01*
X598D01*
X594Y1926D01*
X480Y1903D02*
X472Y1919D01*
X488D01*
X480Y1903D01*
Y1907D02*
X476Y1915D01*
X484D01*
X480Y1907D01*
X594Y1885D02*
X586Y1901D01*
X602D01*
X594Y1885D01*
Y1889D02*
X590Y1897D01*
X598D01*
X594Y1889D01*
X480Y1862D02*
X472Y1878D01*
X488D01*
X480Y1862D01*
Y1866D02*
X476Y1874D01*
X484D01*
X480Y1866D01*
X1519Y4751D02*
X1511Y4767D01*
X1527D01*
X1519Y4751D01*
Y4755D02*
X1515Y4763D01*
X1523D01*
X1519Y4755D01*
X892Y4743D02*
X884Y4759D01*
X900D01*
X892Y4743D01*
Y4747D02*
X888Y4755D01*
X896D01*
X892Y4747D01*
X2966Y4821D02*
X2970Y4825D01*
X2974D01*
X2970Y4829D01*
X2974Y4833D01*
X2970D01*
X2966Y4837D01*
X2962Y4833D01*
X2958D01*
X2962Y4829D01*
X2958Y4825D01*
X2962D01*
X2966Y4821D01*
Y4825D02*
X2968Y4827D01*
X2970D01*
X2968Y4829D01*
X2970Y4831D01*
X2968D01*
X2966Y4833D01*
X2964Y4831D01*
X2962D01*
X2964Y4829D01*
X2962Y4827D01*
X2964D01*
X2966Y4825D01*
X3176Y4798D02*
X3180Y4802D01*
X3184D01*
X3180Y4806D01*
X3184Y4810D01*
X3180D01*
X3176Y4814D01*
X3172Y4810D01*
X3168D01*
X3172Y4806D01*
X3168Y4802D01*
X3172D01*
X3176Y4798D01*
Y4802D02*
X3178Y4804D01*
X3180D01*
X3178Y4806D01*
X3180Y4808D01*
X3178D01*
X3176Y4810D01*
X3174Y4808D01*
X3172D01*
X3174Y4806D01*
X3172Y4804D01*
X3174D01*
X3176Y4802D01*
X3006Y4777D02*
X3010Y4781D01*
X3014D01*
X3010Y4785D01*
X3014Y4789D01*
X3010D01*
X3006Y4793D01*
X3002Y4789D01*
X2998D01*
X3002Y4785D01*
X2998Y4781D01*
X3002D01*
X3006Y4777D01*
Y4781D02*
X3008Y4783D01*
X3010D01*
X3008Y4785D01*
X3010Y4787D01*
X3008D01*
X3006Y4789D01*
X3004Y4787D01*
X3002D01*
X3004Y4785D01*
X3002Y4783D01*
X3004D01*
X3006Y4781D01*
X2333Y4306D02*
X2337Y4310D01*
X2341D01*
X2337Y4314D01*
X2341Y4318D01*
X2337D01*
X2333Y4322D01*
X2329Y4318D01*
X2325D01*
X2329Y4314D01*
X2325Y4310D01*
X2329D01*
X2333Y4306D01*
Y4310D02*
X2335Y4312D01*
X2337D01*
X2335Y4314D01*
X2337Y4316D01*
X2335D01*
X2333Y4318D01*
X2331Y4316D01*
X2329D01*
X2331Y4314D01*
X2329Y4312D01*
X2331D01*
X2333Y4310D01*
X2110Y4303D02*
X2102Y4319D01*
X2118D01*
X2110Y4303D01*
Y4307D02*
X2106Y4315D01*
X2114D01*
X2110Y4307D01*
X2524Y4745D02*
X2516Y4761D01*
X2532D01*
X2524Y4745D01*
Y4749D02*
X2520Y4757D01*
X2528D01*
X2524Y4749D01*
X3137Y4756D02*
X3141Y4760D01*
X3145D01*
X3141Y4764D01*
X3145Y4768D01*
X3141D01*
X3137Y4772D01*
X3133Y4768D01*
X3129D01*
X3133Y4764D01*
X3129Y4760D01*
X3133D01*
X3137Y4756D01*
Y4760D02*
X3139Y4762D01*
X3141D01*
X3139Y4764D01*
X3141Y4766D01*
X3139D01*
X3137Y4768D01*
X3135Y4766D01*
X3133D01*
X3135Y4764D01*
X3133Y4762D01*
X3135D01*
X3137Y4760D01*
X1898Y1855D02*
X1890Y1871D01*
X1906D01*
X1898Y1855D01*
Y1859D02*
X1894Y1867D01*
X1902D01*
X1898Y1859D01*
D162*
X1473Y284D02*
G03*
X1473Y284I-8J0D01*
G01*
X820Y281D02*
G03*
X820Y281I-8J0D01*
G01*
X2967Y278D02*
G03*
X2967Y278I-8J0D01*
G01*
X2317Y290D02*
G03*
X2317Y290I-8J0D01*
G01*
X2468Y295D02*
G03*
X2468Y295I-8J0D01*
G01*
X3118Y283D02*
G03*
X3118Y283I-8J0D01*
G01*
X971Y286D02*
G03*
X971Y286I-8J0D01*
G01*
X1624Y289D02*
G03*
X1624Y289I-8J0D01*
G01*
X1985Y5328D02*
G03*
X1985Y5328I-8J0D01*
G01*
X1802Y5329D02*
G03*
X1802Y5329I-8J0D01*
G01*
X1234Y5312D02*
G03*
X1234Y5312I-8J0D01*
G01*
X1046D02*
G03*
X1046Y5312I-8J0D01*
G01*
X2671Y5321D02*
G03*
X2671Y5321I-8J0D01*
G01*
X2859D02*
G03*
X2859Y5321I-8J0D01*
G01*
X3427Y5338D02*
G03*
X3427Y5338I-8J0D01*
G01*
X3610Y5337D02*
G03*
X3610Y5337I-8J0D01*
G01*
X1322Y1342D02*
G03*
X1322Y1342I-8J0D01*
G01*
X1338Y1317D02*
G03*
X1338Y1317I-8J0D01*
G01*
X1669Y3366D02*
G03*
X1669Y3366I-8J0D01*
G01*
X1649Y3493D02*
G03*
X1649Y3493I-8J0D01*
G01*
X1610Y3490D02*
G03*
X1610Y3490I-8J0D01*
G01*
X1588Y3367D02*
G03*
X1588Y3367I-8J0D01*
G01*
X1557Y2018D02*
G03*
X1557Y2018I-8J0D01*
G01*
X1586Y2041D02*
G03*
X1586Y2041I-8J0D01*
G01*
X2358Y3686D02*
G03*
X2358Y3686I-8J0D01*
G01*
X2340Y3647D02*
G03*
X2340Y3647I-8J0D01*
G01*
X2399Y3343D02*
G03*
X2399Y3343I-8J0D01*
G01*
X2785Y4192D02*
G03*
X2785Y4192I-8J0D01*
G01*
X2362Y3351D02*
G03*
X2362Y3351I-8J0D01*
G01*
X2789Y4221D02*
G03*
X2789Y4221I-8J0D01*
G01*
X2338Y3314D02*
G03*
X2338Y3314I-8J0D01*
G01*
X1714Y1880D02*
G03*
X1714Y1880I-8J0D01*
G01*
X1754Y1709D02*
G03*
X1754Y1709I-8J0D01*
G01*
X1323Y2042D02*
G03*
X1323Y2042I-8J0D01*
G01*
X1296Y2030D02*
G03*
X1296Y2030I-8J0D01*
G01*
X1360Y2067D02*
G03*
X1360Y2067I-8J0D01*
G01*
X1399Y1703D02*
G03*
X1399Y1703I-8J0D01*
G01*
X1939Y2149D02*
G03*
X1939Y2149I-8J0D01*
G01*
X1443Y4518D02*
G03*
X1443Y4518I-8J0D01*
G01*
X1669Y4537D02*
G03*
X1669Y4537I-8J0D01*
G01*
X3118Y4075D02*
G03*
X3118Y4075I-8J0D01*
G01*
X3065Y4521D02*
G03*
X3065Y4521I-8J0D01*
G01*
X1467Y4534D02*
G03*
X1467Y4534I-8J0D01*
G01*
X1932Y2109D02*
G03*
X1932Y2109I-8J0D01*
G01*
X1621Y4555D02*
G03*
X1621Y4555I-8J0D01*
G01*
X3093Y4539D02*
G03*
X3093Y4539I-8J0D01*
G01*
X1720Y4515D02*
G03*
X1720Y4515I-8J0D01*
G01*
X1910Y2000D02*
G03*
X1910Y2000I-8J0D01*
G01*
X1443Y4554D02*
G03*
X1443Y4554I-8J0D01*
G01*
X3099Y4053D02*
G03*
X3099Y4053I-8J0D01*
G01*
X3069Y4561D02*
G03*
X3069Y4561I-8J0D01*
G01*
X1671Y1725D02*
G03*
X1671Y1725I-8J0D01*
G01*
X1001Y3367D02*
G03*
X1001Y3367I-8J0D01*
G01*
X1019Y3491D02*
G03*
X1019Y3491I-8J0D01*
G01*
X1334D02*
G03*
X1334Y3491I-8J0D01*
G01*
X1374D02*
G03*
X1374Y3491I-8J0D01*
G01*
X1256D02*
G03*
X1256Y3491I-8J0D01*
G01*
X1295D02*
G03*
X1295Y3491I-8J0D01*
G01*
X1190Y3488D02*
G03*
X1190Y3488I-8J0D01*
G01*
X1216Y3491D02*
G03*
X1216Y3491I-8J0D01*
G01*
X1098D02*
G03*
X1098Y3491I-8J0D01*
G01*
X1124Y3495D02*
G03*
X1124Y3495I-8J0D01*
G01*
X1354Y3537D02*
G03*
X1354Y3537I-8J0D01*
G01*
X1394D02*
G03*
X1394Y3537I-8J0D01*
G01*
X1275D02*
G03*
X1275Y3537I-8J0D01*
G01*
X1315D02*
G03*
X1315Y3537I-8J0D01*
G01*
X1211D02*
G03*
X1211Y3537I-8J0D01*
G01*
X1236D02*
G03*
X1236Y3537I-8J0D01*
G01*
X1107Y3535D02*
G03*
X1107Y3535I-8J0D01*
G01*
X1190Y3517D02*
G03*
X1190Y3517I-8J0D01*
G01*
X1059Y3661D02*
G03*
X1059Y3661I-8J0D01*
G01*
X1079Y3537D02*
G03*
X1079Y3537I-8J0D01*
G01*
X1000D02*
G03*
X1000Y3537I-8J0D01*
G01*
X1019Y3661D02*
G03*
X1019Y3661I-8J0D01*
G01*
X2166Y1718D02*
G03*
X2166Y1718I-8J0D01*
G01*
X2185Y1838D02*
G03*
X2185Y1838I-8J0D01*
G01*
X2147D02*
G03*
X2147Y1838I-8J0D01*
G01*
X2206Y1718D02*
G03*
X2206Y1718I-8J0D01*
G01*
X1531Y3491D02*
G03*
X1531Y3491I-8J0D01*
G01*
X1552Y3367D02*
G03*
X1552Y3367I-8J0D01*
G01*
X1473D02*
G03*
X1473Y3367I-8J0D01*
G01*
X1492Y3491D02*
G03*
X1492Y3491I-8J0D01*
G01*
X1413D02*
G03*
X1413Y3491I-8J0D01*
G01*
X1434Y3367D02*
G03*
X1434Y3367I-8J0D01*
G01*
X1610Y3661D02*
G03*
X1610Y3661I-8J0D01*
G01*
X1630Y3537D02*
G03*
X1630Y3537I-8J0D01*
G01*
X1551D02*
G03*
X1551Y3537I-8J0D01*
G01*
X1571Y3661D02*
G03*
X1571Y3661I-8J0D01*
G01*
X1492D02*
G03*
X1492Y3661I-8J0D01*
G01*
X1512Y3537D02*
G03*
X1512Y3537I-8J0D01*
G01*
X1433D02*
G03*
X1433Y3537I-8J0D01*
G01*
X1453Y3661D02*
G03*
X1453Y3661I-8J0D01*
G01*
X1040Y3367D02*
G03*
X1040Y3367I-8J0D01*
G01*
X1059Y3491D02*
G03*
X1059Y3491I-8J0D01*
G01*
X2108Y1838D02*
G03*
X2108Y1838I-8J0D01*
G01*
X2087Y1718D02*
G03*
X2087Y1718I-8J0D01*
G01*
X2126D02*
G03*
X2126Y1718I-8J0D01*
G01*
X2424Y2005D02*
G03*
X2424Y2005I-8J0D01*
G01*
X3869Y3037D02*
G03*
X3869Y3037I-8J0D01*
G01*
X2403Y2025D02*
G03*
X2403Y2025I-8J0D01*
G01*
X3870Y3088D02*
G03*
X3870Y3088I-8J0D01*
G01*
X2484Y2001D02*
G03*
X2484Y2001I-8J0D01*
G01*
X3867Y2936D02*
G03*
X3867Y2936I-8J0D01*
G01*
X2461Y2015D02*
G03*
X2461Y2015I-8J0D01*
G01*
X3860Y2994D02*
G03*
X3860Y2994I-8J0D01*
G01*
X2541Y2005D02*
G03*
X2541Y2005I-8J0D01*
G01*
X3863Y2838D02*
G03*
X3863Y2838I-8J0D01*
G01*
X2519Y2022D02*
G03*
X2519Y2022I-8J0D01*
G01*
X3863Y2897D02*
G03*
X3863Y2897I-8J0D01*
G01*
X2599Y2001D02*
G03*
X2599Y2001I-8J0D01*
G01*
X3858Y2737D02*
G03*
X3858Y2737I-8J0D01*
G01*
X2583Y2024D02*
G03*
X2583Y2024I-8J0D01*
G01*
X3866Y2791D02*
G03*
X3866Y2791I-8J0D01*
G01*
X2441Y1707D02*
G03*
X2441Y1707I-8J0D01*
G01*
X3843Y1963D02*
G03*
X3843Y1963I-8J0D01*
G01*
X2423Y1725D02*
G03*
X2423Y1725I-8J0D01*
G01*
X3849Y2013D02*
G03*
X3849Y2013I-8J0D01*
G01*
X2501Y1703D02*
G03*
X2501Y1703I-8J0D01*
G01*
X3844Y2053D02*
G03*
X3844Y2053I-8J0D01*
G01*
X2479Y1727D02*
G03*
X2479Y1727I-8J0D01*
G01*
X3846Y2117D02*
G03*
X3846Y2117I-8J0D01*
G01*
X2563Y1706D02*
G03*
X2563Y1706I-8J0D01*
G01*
X3844Y2170D02*
G03*
X3844Y2170I-8J0D01*
G01*
X2537Y1723D02*
G03*
X2537Y1723I-8J0D01*
G01*
X3839Y2211D02*
G03*
X3839Y2211I-8J0D01*
G01*
X2625Y1705D02*
G03*
X2625Y1705I-8J0D01*
G01*
X3802Y2285D02*
G03*
X3802Y2285I-8J0D01*
G01*
X2596Y1725D02*
G03*
X2596Y1725I-8J0D01*
G01*
X3851Y2310D02*
G03*
X3851Y2310I-8J0D01*
G01*
X2082Y3661D02*
G03*
X2082Y3661I-8J0D01*
G01*
X815Y4009D02*
G03*
X815Y4009I-8J0D01*
G01*
X2201Y3965D02*
G03*
X2201Y3965I-8J0D01*
G01*
X2081Y3536D02*
G03*
X2081Y3536I-8J0D01*
G01*
X797Y4027D02*
G03*
X797Y4027I-8J0D01*
G01*
X2232Y3942D02*
G03*
X2232Y3942I-8J0D01*
G01*
X1867Y3367D02*
G03*
X1867Y3367I-8J0D01*
G01*
X1163Y4216D02*
G03*
X1163Y4216I-8J0D01*
G01*
X1886Y3491D02*
G03*
X1886Y3491I-8J0D01*
G01*
X1188Y4202D02*
G03*
X1188Y4202I-8J0D01*
G01*
X1844Y3711D02*
G03*
X1844Y3711I-8J0D01*
G01*
X1886Y3536D02*
G03*
X1886Y3536I-8J0D01*
G01*
X961Y4457D02*
G03*
X961Y4457I-8J0D01*
G01*
X1664Y2008D02*
G03*
X1664Y2008I-8J0D01*
G01*
X982Y4438D02*
G03*
X982Y4438I-8J0D01*
G01*
X1707Y2033D02*
G03*
X1707Y2033I-8J0D01*
G01*
X957Y4421D02*
G03*
X957Y4421I-8J0D01*
G01*
X1731Y2054D02*
G03*
X1731Y2054I-8J0D01*
G01*
X983Y4399D02*
G03*
X983Y4399I-8J0D01*
G01*
X1763Y2070D02*
G03*
X1763Y2070I-8J0D01*
G01*
X963Y4380D02*
G03*
X963Y4380I-8J0D01*
G01*
X1709Y3367D02*
G03*
X1709Y3367I-8J0D01*
G01*
X983Y4357D02*
G03*
X983Y4357I-8J0D01*
G01*
X1728Y3491D02*
G03*
X1728Y3491I-8J0D01*
G01*
X1669Y3537D02*
G03*
X1669Y3537I-8J0D01*
G01*
X1689Y3661D02*
G03*
X1689Y3661I-8J0D01*
G01*
X969Y4309D02*
G03*
X969Y4309I-8J0D01*
G01*
X1767Y3491D02*
G03*
X1767Y3491I-8J0D01*
G01*
X943Y4295D02*
G03*
X943Y4295I-8J0D01*
G01*
X1788Y3367D02*
G03*
X1788Y3367I-8J0D01*
G01*
X1728Y3661D02*
G03*
X1728Y3661I-8J0D01*
G01*
X1763Y3536D02*
G03*
X1763Y3536I-8J0D01*
G01*
X1828Y3367D02*
G03*
X1828Y3367I-8J0D01*
G01*
X1087Y4216D02*
G03*
X1087Y4216I-8J0D01*
G01*
X1846Y3491D02*
G03*
X1846Y3491I-8J0D01*
G01*
X1109Y4202D02*
G03*
X1109Y4202I-8J0D01*
G01*
X1787Y3537D02*
G03*
X1787Y3537I-8J0D01*
G01*
X1807Y3661D02*
G03*
X1807Y3661I-8J0D01*
G01*
X1307Y4194D02*
G03*
X1307Y4194I-8J0D01*
G01*
X1925Y3491D02*
G03*
X1925Y3491I-8J0D01*
G01*
X1307Y4218D02*
G03*
X1307Y4218I-8J0D01*
G01*
X1946Y3367D02*
G03*
X1946Y3367I-8J0D01*
G01*
X1886Y3661D02*
G03*
X1886Y3661I-8J0D01*
G01*
X1919Y3536D02*
G03*
X1919Y3536I-8J0D01*
G01*
X1964Y3491D02*
G03*
X1964Y3491I-8J0D01*
G01*
X1359Y4218D02*
G03*
X1359Y4218I-8J0D01*
G01*
X1985Y3367D02*
G03*
X1985Y3367I-8J0D01*
G01*
X1387Y4205D02*
G03*
X1387Y4205I-8J0D01*
G01*
X1945Y3537D02*
G03*
X1945Y3537I-8J0D01*
G01*
X1964Y3661D02*
G03*
X1964Y3661I-8J0D01*
G01*
X1464Y4319D02*
G03*
X1464Y4319I-8J0D01*
G01*
X2024Y3367D02*
G03*
X2024Y3367I-8J0D01*
G01*
X1443Y4338D02*
G03*
X1443Y4338I-8J0D01*
G01*
X2043Y3491D02*
G03*
X2043Y3491I-8J0D01*
G01*
X1970Y3536D02*
G03*
X1970Y3536I-8J0D01*
G01*
X2004Y3696D02*
G03*
X2004Y3696I-8J0D01*
G01*
X2064Y3367D02*
G03*
X2064Y3367I-8J0D01*
G01*
X1464Y4421D02*
G03*
X1464Y4421I-8J0D01*
G01*
X2082Y3491D02*
G03*
X2082Y3491I-8J0D01*
G01*
X1440Y4420D02*
G03*
X1440Y4420I-8J0D01*
G01*
X2043Y3661D02*
G03*
X2043Y3661I-8J0D01*
G01*
X2050Y3536D02*
G03*
X2050Y3536I-8J0D01*
G01*
X1970Y2002D02*
G03*
X1970Y2002I-8J0D01*
G01*
X3069Y4600D02*
G03*
X3069Y4600I-8J0D01*
G01*
X2378Y3537D02*
G03*
X2378Y3537I-8J0D01*
G01*
X2182Y3367D02*
G03*
X2182Y3367I-8J0D01*
G01*
X2595Y4386D02*
G03*
X2595Y4386I-8J0D01*
G01*
X2201Y3491D02*
G03*
X2201Y3491I-8J0D01*
G01*
X2555Y4367D02*
G03*
X2555Y4367I-8J0D01*
G01*
X2167Y3536D02*
G03*
X2167Y3536I-8J0D01*
G01*
X2201Y3661D02*
G03*
X2201Y3661I-8J0D01*
G01*
X2240Y3491D02*
G03*
X2240Y3491I-8J0D01*
G01*
X2598Y4306D02*
G03*
X2598Y4306I-8J0D01*
G01*
X2261Y3367D02*
G03*
X2261Y3367I-8J0D01*
G01*
X2582Y4287D02*
G03*
X2582Y4287I-8J0D01*
G01*
X2240Y3661D02*
G03*
X2240Y3661I-8J0D01*
G01*
X2260Y3537D02*
G03*
X2260Y3537I-8J0D01*
G01*
X2279Y3491D02*
G03*
X2279Y3491I-8J0D01*
G01*
X2710Y4215D02*
G03*
X2710Y4215I-8J0D01*
G01*
X2300Y3367D02*
G03*
X2300Y3367I-8J0D01*
G01*
X2732Y4194D02*
G03*
X2732Y4194I-8J0D01*
G01*
X2287Y3540D02*
G03*
X2287Y3540I-8J0D01*
G01*
X2319Y3661D02*
G03*
X2319Y3661I-8J0D01*
G01*
X2397Y3491D02*
G03*
X2397Y3491I-8J0D01*
G01*
X2903Y4218D02*
G03*
X2903Y4218I-8J0D01*
G01*
X2418Y3367D02*
G03*
X2418Y3367I-8J0D01*
G01*
X2927Y4198D02*
G03*
X2927Y4198I-8J0D01*
G01*
X2414Y3538D02*
G03*
X2414Y3538I-8J0D01*
G01*
X2437Y3661D02*
G03*
X2437Y3661I-8J0D01*
G01*
X2458Y3367D02*
G03*
X2458Y3367I-8J0D01*
G01*
X2987Y4200D02*
G03*
X2987Y4200I-8J0D01*
G01*
X2476Y3491D02*
G03*
X2476Y3491I-8J0D01*
G01*
X3011Y4220D02*
G03*
X3011Y4220I-8J0D01*
G01*
X2476Y3661D02*
G03*
X2476Y3661I-8J0D01*
G01*
X2504Y3538D02*
G03*
X2504Y3538I-8J0D01*
G01*
X2516Y3491D02*
G03*
X2516Y3491I-8J0D01*
G01*
X3073Y4325D02*
G03*
X3073Y4325I-8J0D01*
G01*
X2536Y3367D02*
G03*
X2536Y3367I-8J0D01*
G01*
X3097Y4349D02*
G03*
X3097Y4349I-8J0D01*
G01*
X2535Y3536D02*
G03*
X2535Y3536I-8J0D01*
G01*
X2555Y3661D02*
G03*
X2555Y3661I-8J0D01*
G01*
X2576Y3367D02*
G03*
X2576Y3367I-8J0D01*
G01*
X3079Y4401D02*
G03*
X3079Y4401I-8J0D01*
G01*
X2594Y3491D02*
G03*
X2594Y3491I-8J0D01*
G01*
X3074Y4426D02*
G03*
X3074Y4426I-8J0D01*
G01*
X2589Y3536D02*
G03*
X2589Y3536I-8J0D01*
G01*
X2600Y3660D02*
G03*
X2600Y3660I-8J0D01*
G01*
X1947Y2018D02*
G03*
X1947Y2018I-8J0D01*
G01*
X3094Y4582D02*
G03*
X3094Y4582I-8J0D01*
G01*
X1168Y3987D02*
G03*
X1168Y3987I-8J0D01*
G01*
X1450Y4591D02*
G03*
X1450Y4591I-8J0D01*
G01*
X1879Y2063D02*
G03*
X1879Y2063I-8J0D01*
G01*
X1133Y3986D02*
G03*
X1133Y3986I-8J0D01*
G01*
X1855Y2024D02*
G03*
X1855Y2024I-8J0D01*
G01*
X1465Y4572D02*
G03*
X1465Y4572I-8J0D01*
G01*
X1080Y3367D02*
G03*
X1080Y3367I-8J0D01*
G01*
X1237D02*
G03*
X1237Y3367I-8J0D01*
G01*
X980Y3491D02*
G03*
X980Y3491I-8J0D01*
G01*
X1276Y3367D02*
G03*
X1276Y3367I-8J0D01*
G01*
X1316D02*
G03*
X1316Y3367I-8J0D01*
G01*
X1355D02*
G03*
X1355Y3367I-8J0D01*
G01*
X1395D02*
G03*
X1395Y3367I-8J0D01*
G01*
X980Y3661D02*
G03*
X980Y3661I-8J0D01*
G01*
X1098D02*
G03*
X1098Y3661I-8J0D01*
G01*
X1216D02*
G03*
X1216Y3661I-8J0D01*
G01*
X1256D02*
G03*
X1256Y3661I-8J0D01*
G01*
X1295D02*
G03*
X1295Y3661I-8J0D01*
G01*
X1334D02*
G03*
X1334Y3661I-8J0D01*
G01*
X1374D02*
G03*
X1374Y3661I-8J0D01*
G01*
X1453Y3491D02*
G03*
X1453Y3491I-8J0D01*
G01*
X1571D02*
G03*
X1571Y3491I-8J0D01*
G01*
X1689D02*
G03*
X1689Y3491I-8J0D01*
G01*
X1807D02*
G03*
X1807Y3491I-8J0D01*
G01*
X2004D02*
G03*
X2004Y3491I-8J0D01*
G01*
X2161D02*
G03*
X2161Y3491I-8J0D01*
G01*
X2319D02*
G03*
X2319Y3491I-8J0D01*
G01*
X2377Y3511D02*
G03*
X2377Y3511I-8J0D01*
G01*
X1413Y3661D02*
G03*
X1413Y3661I-8J0D01*
G01*
X1531D02*
G03*
X1531Y3661I-8J0D01*
G01*
X1635Y3662D02*
G03*
X1635Y3662I-8J0D01*
G01*
X1767Y3661D02*
G03*
X1767Y3661I-8J0D01*
G01*
X1925D02*
G03*
X1925Y3661I-8J0D01*
G01*
X2119Y3705D02*
G03*
X2119Y3705I-8J0D01*
G01*
X2281Y3716D02*
G03*
X2281Y3716I-8J0D01*
G01*
X2437Y3491D02*
G03*
X2437Y3491I-8J0D01*
G01*
X2555D02*
G03*
X2555Y3491I-8J0D01*
G01*
X1084Y2000D02*
G03*
X1084Y2000I-8J0D01*
G01*
X1423Y1372D02*
G03*
X1423Y1372I-8J0D01*
G01*
X2122Y3491D02*
G03*
X2122Y3491I-8J0D01*
G01*
X2582Y4464D02*
G03*
X2582Y4464I-8J0D01*
G01*
X2143Y3367D02*
G03*
X2143Y3367I-8J0D01*
G01*
X2601Y4443D02*
G03*
X2601Y4443I-8J0D01*
G01*
X2142Y3537D02*
G03*
X2142Y3537I-8J0D01*
G01*
X2161Y3661D02*
G03*
X2161Y3661I-8J0D01*
G01*
X641Y3340D02*
G03*
X641Y3340I-8J0D01*
G01*
X632Y3315D02*
G03*
X632Y3315I-8J0D01*
G01*
X638Y3272D02*
G03*
X638Y3272I-8J0D01*
G01*
X636Y3184D02*
G03*
X636Y3184I-8J0D01*
G01*
X639Y3147D02*
G03*
X639Y3147I-8J0D01*
G01*
X646Y3119D02*
G03*
X646Y3119I-8J0D01*
G01*
X612Y3357D02*
G03*
X612Y3357I-8J0D01*
G01*
X609Y3331D02*
G03*
X609Y3331I-8J0D01*
G01*
X617Y3287D02*
G03*
X617Y3287I-8J0D01*
G01*
X616Y3260D02*
G03*
X616Y3260I-8J0D01*
G01*
X620Y3162D02*
G03*
X620Y3162I-8J0D01*
G01*
X616Y3124D02*
G03*
X616Y3124I-8J0D01*
G01*
X621Y3094D02*
G03*
X621Y3094I-8J0D01*
G01*
X1394Y2049D02*
G03*
X1394Y2049I-8J0D01*
G01*
X1374Y2027D02*
G03*
X1374Y2027I-8J0D01*
G01*
X1459Y2041D02*
G03*
X1459Y2041I-8J0D01*
G01*
X1436Y2021D02*
G03*
X1436Y2021I-8J0D01*
G01*
X1524Y2040D02*
G03*
X1524Y2040I-8J0D01*
G01*
X1495Y2023D02*
G03*
X1495Y2023I-8J0D01*
G01*
X856Y2972D02*
G03*
X856Y2972I-8J0D01*
G01*
X832Y3002D02*
G03*
X832Y3002I-8J0D01*
G01*
X1513Y3367D02*
G03*
X1513Y3367I-8J0D01*
G01*
X1906D02*
G03*
X1906Y3367I-8J0D01*
G01*
X1631D02*
G03*
X1631Y3367I-8J0D01*
G01*
X2221D02*
G03*
X2221Y3367I-8J0D01*
G01*
X1039Y3537D02*
G03*
X1039Y3537I-8J0D01*
G01*
X1590D02*
G03*
X1590Y3537I-8J0D01*
G01*
X1472D02*
G03*
X1472Y3537I-8J0D01*
G01*
X1813D02*
G03*
X1813Y3537I-8J0D01*
G01*
X1999Y3535D02*
G03*
X1999Y3535I-8J0D01*
G01*
X2353Y3537D02*
G03*
X2353Y3537I-8J0D01*
G01*
X2614Y3537D02*
G03*
X2614Y3537I-8J0D01*
G01*
X1536Y1836D02*
G03*
X1536Y1836I-8J0D01*
G01*
X1569Y1846D02*
G03*
X1569Y1846I-8J0D01*
G01*
D163*
X1318Y1342D02*
G03*
X1318Y1342I-4J0D01*
G01*
X1334Y1317D02*
G03*
X1334Y1317I-4J0D01*
G01*
X1665Y3366D02*
G03*
X1665Y3366I-4J0D01*
G01*
X1645Y3493D02*
G03*
X1645Y3493I-4J0D01*
G01*
X1606Y3490D02*
G03*
X1606Y3490I-4J0D01*
G01*
X1584Y3367D02*
G03*
X1584Y3367I-4J0D01*
G01*
X1553Y2018D02*
G03*
X1553Y2018I-4J0D01*
G01*
X1582Y2041D02*
G03*
X1582Y2041I-4J0D01*
G01*
X2354Y3686D02*
G03*
X2354Y3686I-4J0D01*
G01*
X2336Y3647D02*
G03*
X2336Y3647I-4J0D01*
G01*
X2395Y3343D02*
G03*
X2395Y3343I-4J0D01*
G01*
X2781Y4192D02*
G03*
X2781Y4192I-4J0D01*
G01*
X2358Y3351D02*
G03*
X2358Y3351I-4J0D01*
G01*
X2785Y4221D02*
G03*
X2785Y4221I-4J0D01*
G01*
X2334Y3314D02*
G03*
X2334Y3314I-4J0D01*
G01*
X1710Y1880D02*
G03*
X1710Y1880I-4J0D01*
G01*
X1750Y1709D02*
G03*
X1750Y1709I-4J0D01*
G01*
X1319Y2042D02*
G03*
X1319Y2042I-4J0D01*
G01*
X1292Y2030D02*
G03*
X1292Y2030I-4J0D01*
G01*
X1356Y2067D02*
G03*
X1356Y2067I-4J0D01*
G01*
X1395Y1703D02*
G03*
X1395Y1703I-4J0D01*
G01*
X1935Y2149D02*
G03*
X1935Y2149I-4J0D01*
G01*
X1439Y4518D02*
G03*
X1439Y4518I-4J0D01*
G01*
X1665Y4537D02*
G03*
X1665Y4537I-4J0D01*
G01*
X3114Y4075D02*
G03*
X3114Y4075I-4J0D01*
G01*
X3061Y4521D02*
G03*
X3061Y4521I-4J0D01*
G01*
X1463Y4534D02*
G03*
X1463Y4534I-4J0D01*
G01*
X1928Y2109D02*
G03*
X1928Y2109I-4J0D01*
G01*
X1617Y4555D02*
G03*
X1617Y4555I-4J0D01*
G01*
X3089Y4539D02*
G03*
X3089Y4539I-4J0D01*
G01*
X1716Y4515D02*
G03*
X1716Y4515I-4J0D01*
G01*
X1906Y2000D02*
G03*
X1906Y2000I-4J0D01*
G01*
X1439Y4554D02*
G03*
X1439Y4554I-4J0D01*
G01*
X3095Y4053D02*
G03*
X3095Y4053I-4J0D01*
G01*
X3065Y4561D02*
G03*
X3065Y4561I-4J0D01*
G01*
X1667Y1725D02*
G03*
X1667Y1725I-4J0D01*
G01*
X997Y3367D02*
G03*
X997Y3367I-4J0D01*
G01*
X1015Y3491D02*
G03*
X1015Y3491I-4J0D01*
G01*
X1330D02*
G03*
X1330Y3491I-4J0D01*
G01*
X1370D02*
G03*
X1370Y3491I-4J0D01*
G01*
X1252D02*
G03*
X1252Y3491I-4J0D01*
G01*
X1291D02*
G03*
X1291Y3491I-4J0D01*
G01*
X1186Y3488D02*
G03*
X1186Y3488I-4J0D01*
G01*
X1212Y3491D02*
G03*
X1212Y3491I-4J0D01*
G01*
X1094D02*
G03*
X1094Y3491I-4J0D01*
G01*
X1120Y3495D02*
G03*
X1120Y3495I-4J0D01*
G01*
X1350Y3537D02*
G03*
X1350Y3537I-4J0D01*
G01*
X1390D02*
G03*
X1390Y3537I-4J0D01*
G01*
X1271D02*
G03*
X1271Y3537I-4J0D01*
G01*
X1311D02*
G03*
X1311Y3537I-4J0D01*
G01*
X1207D02*
G03*
X1207Y3537I-4J0D01*
G01*
X1232D02*
G03*
X1232Y3537I-4J0D01*
G01*
X1103Y3535D02*
G03*
X1103Y3535I-4J0D01*
G01*
X1186Y3517D02*
G03*
X1186Y3517I-4J0D01*
G01*
X1055Y3661D02*
G03*
X1055Y3661I-4J0D01*
G01*
X1075Y3537D02*
G03*
X1075Y3537I-4J0D01*
G01*
X996D02*
G03*
X996Y3537I-4J0D01*
G01*
X1015Y3661D02*
G03*
X1015Y3661I-4J0D01*
G01*
X2162Y1718D02*
G03*
X2162Y1718I-4J0D01*
G01*
X2181Y1838D02*
G03*
X2181Y1838I-4J0D01*
G01*
X2143D02*
G03*
X2143Y1838I-4J0D01*
G01*
X2202Y1718D02*
G03*
X2202Y1718I-4J0D01*
G01*
X1527Y3491D02*
G03*
X1527Y3491I-4J0D01*
G01*
X1548Y3367D02*
G03*
X1548Y3367I-4J0D01*
G01*
X1469D02*
G03*
X1469Y3367I-4J0D01*
G01*
X1488Y3491D02*
G03*
X1488Y3491I-4J0D01*
G01*
X1409D02*
G03*
X1409Y3491I-4J0D01*
G01*
X1430Y3367D02*
G03*
X1430Y3367I-4J0D01*
G01*
X1606Y3661D02*
G03*
X1606Y3661I-4J0D01*
G01*
X1626Y3537D02*
G03*
X1626Y3537I-4J0D01*
G01*
X1547D02*
G03*
X1547Y3537I-4J0D01*
G01*
X1567Y3661D02*
G03*
X1567Y3661I-4J0D01*
G01*
X1488D02*
G03*
X1488Y3661I-4J0D01*
G01*
X1508Y3537D02*
G03*
X1508Y3537I-4J0D01*
G01*
X1429D02*
G03*
X1429Y3537I-4J0D01*
G01*
X1449Y3661D02*
G03*
X1449Y3661I-4J0D01*
G01*
X1036Y3367D02*
G03*
X1036Y3367I-4J0D01*
G01*
X1055Y3491D02*
G03*
X1055Y3491I-4J0D01*
G01*
X2104Y1838D02*
G03*
X2104Y1838I-4J0D01*
G01*
X2083Y1718D02*
G03*
X2083Y1718I-4J0D01*
G01*
X2122D02*
G03*
X2122Y1718I-4J0D01*
G01*
X2420Y2005D02*
G03*
X2420Y2005I-4J0D01*
G01*
X3865Y3037D02*
G03*
X3865Y3037I-4J0D01*
G01*
X2399Y2025D02*
G03*
X2399Y2025I-4J0D01*
G01*
X3866Y3088D02*
G03*
X3866Y3088I-4J0D01*
G01*
X2480Y2001D02*
G03*
X2480Y2001I-4J0D01*
G01*
X3863Y2936D02*
G03*
X3863Y2936I-4J0D01*
G01*
X2457Y2015D02*
G03*
X2457Y2015I-4J0D01*
G01*
X3856Y2994D02*
G03*
X3856Y2994I-4J0D01*
G01*
X2537Y2005D02*
G03*
X2537Y2005I-4J0D01*
G01*
X3859Y2838D02*
G03*
X3859Y2838I-4J0D01*
G01*
X2515Y2022D02*
G03*
X2515Y2022I-4J0D01*
G01*
X3859Y2897D02*
G03*
X3859Y2897I-4J0D01*
G01*
X2595Y2001D02*
G03*
X2595Y2001I-4J0D01*
G01*
X3854Y2737D02*
G03*
X3854Y2737I-4J0D01*
G01*
X2579Y2024D02*
G03*
X2579Y2024I-4J0D01*
G01*
X3862Y2791D02*
G03*
X3862Y2791I-4J0D01*
G01*
X2437Y1707D02*
G03*
X2437Y1707I-4J0D01*
G01*
X3839Y1963D02*
G03*
X3839Y1963I-4J0D01*
G01*
X2419Y1725D02*
G03*
X2419Y1725I-4J0D01*
G01*
X3845Y2013D02*
G03*
X3845Y2013I-4J0D01*
G01*
X2497Y1703D02*
G03*
X2497Y1703I-4J0D01*
G01*
X3840Y2053D02*
G03*
X3840Y2053I-4J0D01*
G01*
X2475Y1727D02*
G03*
X2475Y1727I-4J0D01*
G01*
X3842Y2117D02*
G03*
X3842Y2117I-4J0D01*
G01*
X2559Y1706D02*
G03*
X2559Y1706I-4J0D01*
G01*
X3840Y2170D02*
G03*
X3840Y2170I-4J0D01*
G01*
X2533Y1723D02*
G03*
X2533Y1723I-4J0D01*
G01*
X3835Y2211D02*
G03*
X3835Y2211I-4J0D01*
G01*
X2621Y1705D02*
G03*
X2621Y1705I-4J0D01*
G01*
X3798Y2285D02*
G03*
X3798Y2285I-4J0D01*
G01*
X2592Y1725D02*
G03*
X2592Y1725I-4J0D01*
G01*
X3847Y2310D02*
G03*
X3847Y2310I-4J0D01*
G01*
X2078Y3661D02*
G03*
X2078Y3661I-4J0D01*
G01*
X811Y4009D02*
G03*
X811Y4009I-4J0D01*
G01*
X2197Y3965D02*
G03*
X2197Y3965I-4J0D01*
G01*
X2077Y3536D02*
G03*
X2077Y3536I-4J0D01*
G01*
X793Y4027D02*
G03*
X793Y4027I-4J0D01*
G01*
X2228Y3942D02*
G03*
X2228Y3942I-4J0D01*
G01*
X1863Y3367D02*
G03*
X1863Y3367I-4J0D01*
G01*
X1159Y4216D02*
G03*
X1159Y4216I-4J0D01*
G01*
X1882Y3491D02*
G03*
X1882Y3491I-4J0D01*
G01*
X1184Y4202D02*
G03*
X1184Y4202I-4J0D01*
G01*
X1840Y3711D02*
G03*
X1840Y3711I-4J0D01*
G01*
X1882Y3536D02*
G03*
X1882Y3536I-4J0D01*
G01*
X957Y4457D02*
G03*
X957Y4457I-4J0D01*
G01*
X1660Y2008D02*
G03*
X1660Y2008I-4J0D01*
G01*
X978Y4438D02*
G03*
X978Y4438I-4J0D01*
G01*
X1703Y2033D02*
G03*
X1703Y2033I-4J0D01*
G01*
X953Y4421D02*
G03*
X953Y4421I-4J0D01*
G01*
X1727Y2054D02*
G03*
X1727Y2054I-4J0D01*
G01*
X979Y4399D02*
G03*
X979Y4399I-4J0D01*
G01*
X1759Y2070D02*
G03*
X1759Y2070I-4J0D01*
G01*
X959Y4380D02*
G03*
X959Y4380I-4J0D01*
G01*
X1705Y3367D02*
G03*
X1705Y3367I-4J0D01*
G01*
X979Y4357D02*
G03*
X979Y4357I-4J0D01*
G01*
X1724Y3491D02*
G03*
X1724Y3491I-4J0D01*
G01*
X1665Y3537D02*
G03*
X1665Y3537I-4J0D01*
G01*
X1685Y3661D02*
G03*
X1685Y3661I-4J0D01*
G01*
X965Y4309D02*
G03*
X965Y4309I-4J0D01*
G01*
X1763Y3491D02*
G03*
X1763Y3491I-4J0D01*
G01*
X939Y4295D02*
G03*
X939Y4295I-4J0D01*
G01*
X1784Y3367D02*
G03*
X1784Y3367I-4J0D01*
G01*
X1724Y3661D02*
G03*
X1724Y3661I-4J0D01*
G01*
X1759Y3536D02*
G03*
X1759Y3536I-4J0D01*
G01*
X1824Y3367D02*
G03*
X1824Y3367I-4J0D01*
G01*
X1083Y4216D02*
G03*
X1083Y4216I-4J0D01*
G01*
X1842Y3491D02*
G03*
X1842Y3491I-4J0D01*
G01*
X1105Y4202D02*
G03*
X1105Y4202I-4J0D01*
G01*
X1783Y3537D02*
G03*
X1783Y3537I-4J0D01*
G01*
X1803Y3661D02*
G03*
X1803Y3661I-4J0D01*
G01*
X1303Y4194D02*
G03*
X1303Y4194I-4J0D01*
G01*
X1921Y3491D02*
G03*
X1921Y3491I-4J0D01*
G01*
X1303Y4218D02*
G03*
X1303Y4218I-4J0D01*
G01*
X1942Y3367D02*
G03*
X1942Y3367I-4J0D01*
G01*
X1882Y3661D02*
G03*
X1882Y3661I-4J0D01*
G01*
X1915Y3536D02*
G03*
X1915Y3536I-4J0D01*
G01*
X1960Y3491D02*
G03*
X1960Y3491I-4J0D01*
G01*
X1355Y4218D02*
G03*
X1355Y4218I-4J0D01*
G01*
X1981Y3367D02*
G03*
X1981Y3367I-4J0D01*
G01*
X1383Y4205D02*
G03*
X1383Y4205I-4J0D01*
G01*
X1941Y3537D02*
G03*
X1941Y3537I-4J0D01*
G01*
X1960Y3661D02*
G03*
X1960Y3661I-4J0D01*
G01*
X1460Y4319D02*
G03*
X1460Y4319I-4J0D01*
G01*
X2020Y3367D02*
G03*
X2020Y3367I-4J0D01*
G01*
X1439Y4338D02*
G03*
X1439Y4338I-4J0D01*
G01*
X2039Y3491D02*
G03*
X2039Y3491I-4J0D01*
G01*
X1966Y3536D02*
G03*
X1966Y3536I-4J0D01*
G01*
X2000Y3696D02*
G03*
X2000Y3696I-4J0D01*
G01*
X2060Y3367D02*
G03*
X2060Y3367I-4J0D01*
G01*
X1460Y4421D02*
G03*
X1460Y4421I-4J0D01*
G01*
X2078Y3491D02*
G03*
X2078Y3491I-4J0D01*
G01*
X1436Y4420D02*
G03*
X1436Y4420I-4J0D01*
G01*
X2039Y3661D02*
G03*
X2039Y3661I-4J0D01*
G01*
X2046Y3536D02*
G03*
X2046Y3536I-4J0D01*
G01*
X1966Y2002D02*
G03*
X1966Y2002I-4J0D01*
G01*
X3065Y4600D02*
G03*
X3065Y4600I-4J0D01*
G01*
X2374Y3537D02*
G03*
X2374Y3537I-4J0D01*
G01*
X2178Y3367D02*
G03*
X2178Y3367I-4J0D01*
G01*
X2591Y4386D02*
G03*
X2591Y4386I-4J0D01*
G01*
X2197Y3491D02*
G03*
X2197Y3491I-4J0D01*
G01*
X2551Y4367D02*
G03*
X2551Y4367I-4J0D01*
G01*
X2163Y3536D02*
G03*
X2163Y3536I-4J0D01*
G01*
X2197Y3661D02*
G03*
X2197Y3661I-4J0D01*
G01*
X2236Y3491D02*
G03*
X2236Y3491I-4J0D01*
G01*
X2594Y4306D02*
G03*
X2594Y4306I-4J0D01*
G01*
X2257Y3367D02*
G03*
X2257Y3367I-4J0D01*
G01*
X2578Y4287D02*
G03*
X2578Y4287I-4J0D01*
G01*
X2236Y3661D02*
G03*
X2236Y3661I-4J0D01*
G01*
X2256Y3537D02*
G03*
X2256Y3537I-4J0D01*
G01*
X2275Y3491D02*
G03*
X2275Y3491I-4J0D01*
G01*
X2706Y4215D02*
G03*
X2706Y4215I-4J0D01*
G01*
X2296Y3367D02*
G03*
X2296Y3367I-4J0D01*
G01*
X2728Y4194D02*
G03*
X2728Y4194I-4J0D01*
G01*
X2283Y3540D02*
G03*
X2283Y3540I-4J0D01*
G01*
X2315Y3661D02*
G03*
X2315Y3661I-4J0D01*
G01*
X2393Y3491D02*
G03*
X2393Y3491I-4J0D01*
G01*
X2899Y4218D02*
G03*
X2899Y4218I-4J0D01*
G01*
X2414Y3367D02*
G03*
X2414Y3367I-4J0D01*
G01*
X2923Y4198D02*
G03*
X2923Y4198I-4J0D01*
G01*
X2410Y3538D02*
G03*
X2410Y3538I-4J0D01*
G01*
X2433Y3661D02*
G03*
X2433Y3661I-4J0D01*
G01*
X2454Y3367D02*
G03*
X2454Y3367I-4J0D01*
G01*
X2983Y4200D02*
G03*
X2983Y4200I-4J0D01*
G01*
X2472Y3491D02*
G03*
X2472Y3491I-4J0D01*
G01*
X3007Y4220D02*
G03*
X3007Y4220I-4J0D01*
G01*
X2472Y3661D02*
G03*
X2472Y3661I-4J0D01*
G01*
X2500Y3538D02*
G03*
X2500Y3538I-4J0D01*
G01*
X2512Y3491D02*
G03*
X2512Y3491I-4J0D01*
G01*
X3069Y4325D02*
G03*
X3069Y4325I-4J0D01*
G01*
X2532Y3367D02*
G03*
X2532Y3367I-4J0D01*
G01*
X3093Y4349D02*
G03*
X3093Y4349I-4J0D01*
G01*
X2531Y3536D02*
G03*
X2531Y3536I-4J0D01*
G01*
X2551Y3661D02*
G03*
X2551Y3661I-4J0D01*
G01*
X2572Y3367D02*
G03*
X2572Y3367I-4J0D01*
G01*
X3075Y4401D02*
G03*
X3075Y4401I-4J0D01*
G01*
X2590Y3491D02*
G03*
X2590Y3491I-4J0D01*
G01*
X3070Y4426D02*
G03*
X3070Y4426I-4J0D01*
G01*
X2585Y3536D02*
G03*
X2585Y3536I-4J0D01*
G01*
X2596Y3660D02*
G03*
X2596Y3660I-4J0D01*
G01*
X1943Y2018D02*
G03*
X1943Y2018I-4J0D01*
G01*
X3090Y4582D02*
G03*
X3090Y4582I-4J0D01*
G01*
X1164Y3987D02*
G03*
X1164Y3987I-4J0D01*
G01*
X1446Y4591D02*
G03*
X1446Y4591I-4J0D01*
G01*
X1875Y2063D02*
G03*
X1875Y2063I-4J0D01*
G01*
X1129Y3986D02*
G03*
X1129Y3986I-4J0D01*
G01*
X1851Y2024D02*
G03*
X1851Y2024I-4J0D01*
G01*
X1461Y4572D02*
G03*
X1461Y4572I-4J0D01*
G01*
X1076Y3367D02*
G03*
X1076Y3367I-4J0D01*
G01*
X1233D02*
G03*
X1233Y3367I-4J0D01*
G01*
X976Y3491D02*
G03*
X976Y3491I-4J0D01*
G01*
X1272Y3367D02*
G03*
X1272Y3367I-4J0D01*
G01*
X1312D02*
G03*
X1312Y3367I-4J0D01*
G01*
X1351D02*
G03*
X1351Y3367I-4J0D01*
G01*
X1391D02*
G03*
X1391Y3367I-4J0D01*
G01*
X976Y3661D02*
G03*
X976Y3661I-4J0D01*
G01*
X1094D02*
G03*
X1094Y3661I-4J0D01*
G01*
X1212D02*
G03*
X1212Y3661I-4J0D01*
G01*
X1252D02*
G03*
X1252Y3661I-4J0D01*
G01*
X1291D02*
G03*
X1291Y3661I-4J0D01*
G01*
X1330D02*
G03*
X1330Y3661I-4J0D01*
G01*
X1370D02*
G03*
X1370Y3661I-4J0D01*
G01*
X1449Y3491D02*
G03*
X1449Y3491I-4J0D01*
G01*
X1567D02*
G03*
X1567Y3491I-4J0D01*
G01*
X1685D02*
G03*
X1685Y3491I-4J0D01*
G01*
X1803D02*
G03*
X1803Y3491I-4J0D01*
G01*
X2000D02*
G03*
X2000Y3491I-4J0D01*
G01*
X2157D02*
G03*
X2157Y3491I-4J0D01*
G01*
X2315D02*
G03*
X2315Y3491I-4J0D01*
G01*
X2373Y3511D02*
G03*
X2373Y3511I-4J0D01*
G01*
X1409Y3661D02*
G03*
X1409Y3661I-4J0D01*
G01*
X1527D02*
G03*
X1527Y3661I-4J0D01*
G01*
X1631Y3662D02*
G03*
X1631Y3662I-4J0D01*
G01*
X1763Y3661D02*
G03*
X1763Y3661I-4J0D01*
G01*
X1921D02*
G03*
X1921Y3661I-4J0D01*
G01*
X2115Y3705D02*
G03*
X2115Y3705I-4J0D01*
G01*
X2277Y3716D02*
G03*
X2277Y3716I-4J0D01*
G01*
X2433Y3491D02*
G03*
X2433Y3491I-4J0D01*
G01*
X2551D02*
G03*
X2551Y3491I-4J0D01*
G01*
X1080Y2000D02*
G03*
X1080Y2000I-4J0D01*
G01*
X1419Y1372D02*
G03*
X1419Y1372I-4J0D01*
G01*
X2118Y3491D02*
G03*
X2118Y3491I-4J0D01*
G01*
X2578Y4464D02*
G03*
X2578Y4464I-4J0D01*
G01*
X2139Y3367D02*
G03*
X2139Y3367I-4J0D01*
G01*
X2597Y4443D02*
G03*
X2597Y4443I-4J0D01*
G01*
X2138Y3537D02*
G03*
X2138Y3537I-4J0D01*
G01*
X2157Y3661D02*
G03*
X2157Y3661I-4J0D01*
G01*
X637Y3340D02*
G03*
X637Y3340I-4J0D01*
G01*
X628Y3315D02*
G03*
X628Y3315I-4J0D01*
G01*
X634Y3272D02*
G03*
X634Y3272I-4J0D01*
G01*
X632Y3184D02*
G03*
X632Y3184I-4J0D01*
G01*
X635Y3147D02*
G03*
X635Y3147I-4J0D01*
G01*
X642Y3119D02*
G03*
X642Y3119I-4J0D01*
G01*
X608Y3357D02*
G03*
X608Y3357I-4J0D01*
G01*
X605Y3331D02*
G03*
X605Y3331I-4J0D01*
G01*
X613Y3287D02*
G03*
X613Y3287I-4J0D01*
G01*
X612Y3260D02*
G03*
X612Y3260I-4J0D01*
G01*
X616Y3162D02*
G03*
X616Y3162I-4J0D01*
G01*
X612Y3124D02*
G03*
X612Y3124I-4J0D01*
G01*
X617Y3094D02*
G03*
X617Y3094I-4J0D01*
G01*
X1390Y2049D02*
G03*
X1390Y2049I-4J0D01*
G01*
X1370Y2027D02*
G03*
X1370Y2027I-4J0D01*
G01*
X1455Y2041D02*
G03*
X1455Y2041I-4J0D01*
G01*
X1432Y2021D02*
G03*
X1432Y2021I-4J0D01*
G01*
X1520Y2040D02*
G03*
X1520Y2040I-4J0D01*
G01*
X1491Y2023D02*
G03*
X1491Y2023I-4J0D01*
G01*
X852Y2972D02*
G03*
X852Y2972I-4J0D01*
G01*
X828Y3002D02*
G03*
X828Y3002I-4J0D01*
G01*
X1509Y3367D02*
G03*
X1509Y3367I-4J0D01*
G01*
X1902D02*
G03*
X1902Y3367I-4J0D01*
G01*
X1627D02*
G03*
X1627Y3367I-4J0D01*
G01*
X2217D02*
G03*
X2217Y3367I-4J0D01*
G01*
X1035Y3537D02*
G03*
X1035Y3537I-4J0D01*
G01*
X1586D02*
G03*
X1586Y3537I-4J0D01*
G01*
X1468D02*
G03*
X1468Y3537I-4J0D01*
G01*
X1809D02*
G03*
X1809Y3537I-4J0D01*
G01*
X1995Y3535D02*
G03*
X1995Y3535I-4J0D01*
G01*
X2349Y3537D02*
G03*
X2349Y3537I-4J0D01*
G01*
X2610Y3537D02*
G03*
X2610Y3537I-4J0D01*
G01*
X1532Y1836D02*
G03*
X1532Y1836I-4J0D01*
G01*
X1565Y1846D02*
G03*
X1565Y1846I-4J0D01*
G01*
M02*
