G04 Layer_Color=8388736*
%FSLAX23Y23*%
%MOIN*%
G70*
G01*
G75*
%ADD40C,0.008*%
%ADD82C,0.032*%
%ADD84C,0.042*%
%ADD111R,0.044X0.034*%
%ADD112R,0.021X0.039*%
G04:AMPARAMS|DCode=113|XSize=47mil|YSize=16mil|CornerRadius=5mil|HoleSize=0mil|Usage=FLASHONLY|Rotation=90.000|XOffset=0mil|YOffset=0mil|HoleType=Round|Shape=RoundedRectangle|*
%AMROUNDEDRECTD113*
21,1,0.047,0.006,0,0,90.0*
21,1,0.037,0.016,0,0,90.0*
1,1,0.010,0.003,0.019*
1,1,0.010,0.003,-0.019*
1,1,0.010,-0.003,-0.019*
1,1,0.010,-0.003,0.019*
%
%ADD113ROUNDEDRECTD113*%
%ADD114R,0.189X0.189*%
%ADD115R,0.014X0.024*%
%ADD116R,0.024X0.014*%
%ADD117R,0.015X0.035*%
%ADD118R,0.035X0.015*%
%ADD119R,0.034X0.044*%
G04:AMPARAMS|DCode=120|XSize=44mil|YSize=34mil|CornerRadius=0mil|HoleSize=0mil|Usage=FLASHONLY|Rotation=45.000|XOffset=0mil|YOffset=0mil|HoleType=Round|Shape=Rectangle|*
%AMROTATEDRECTD120*
4,1,4,-0.004,-0.028,-0.028,-0.004,0.004,0.028,0.028,0.004,-0.004,-0.028,0.0*
%
%ADD120ROTATEDRECTD120*%

G04:AMPARAMS|DCode=121|XSize=44mil|YSize=34mil|CornerRadius=0mil|HoleSize=0mil|Usage=FLASHONLY|Rotation=135.000|XOffset=0mil|YOffset=0mil|HoleType=Round|Shape=Rectangle|*
%AMROTATEDRECTD121*
4,1,4,0.028,-0.004,0.004,-0.028,-0.028,0.004,-0.004,0.028,0.028,-0.004,0.0*
%
%ADD121ROTATEDRECTD121*%

G04:AMPARAMS|DCode=122|XSize=51mil|YSize=16mil|CornerRadius=0mil|HoleSize=0mil|Usage=FLASHONLY|Rotation=225.000|XOffset=0mil|YOffset=0mil|HoleType=Round|Shape=Round|*
%AMOVALD122*
21,1,0.035,0.016,0.000,0.000,225.0*
1,1,0.016,0.013,0.013*
1,1,0.016,-0.013,-0.013*
%
%ADD122OVALD122*%

G04:AMPARAMS|DCode=123|XSize=51mil|YSize=16mil|CornerRadius=0mil|HoleSize=0mil|Usage=FLASHONLY|Rotation=225.000|XOffset=0mil|YOffset=0mil|HoleType=Round|Shape=Rectangle|*
%AMROTATEDRECTD123*
4,1,4,0.013,0.024,0.024,0.013,-0.013,-0.024,-0.024,-0.013,0.013,0.024,0.0*
%
%ADD123ROTATEDRECTD123*%

%ADD124R,0.064X0.064*%
%ADD125P,0.091X4X90.0*%
G04:AMPARAMS|DCode=126|XSize=43mil|YSize=24mil|CornerRadius=0mil|HoleSize=0mil|Usage=FLASHONLY|Rotation=45.000|XOffset=0mil|YOffset=0mil|HoleType=Round|Shape=Rectangle|*
%AMROTATEDRECTD126*
4,1,4,-0.007,-0.024,-0.024,-0.007,0.007,0.024,0.024,0.007,-0.007,-0.024,0.0*
%
%ADD126ROTATEDRECTD126*%

%ADD127R,0.047X0.016*%
G04:AMPARAMS|DCode=128|XSize=47mil|YSize=16mil|CornerRadius=5mil|HoleSize=0mil|Usage=FLASHONLY|Rotation=0.000|XOffset=0mil|YOffset=0mil|HoleType=Round|Shape=RoundedRectangle|*
%AMROUNDEDRECTD128*
21,1,0.047,0.006,0,0,0.0*
21,1,0.037,0.016,0,0,0.0*
1,1,0.010,0.019,-0.003*
1,1,0.010,-0.019,-0.003*
1,1,0.010,-0.019,0.003*
1,1,0.010,0.019,0.003*
%
%ADD128ROUNDEDRECTD128*%
%ADD129R,0.126X0.067*%
%ADD130R,0.016X0.047*%
%ADD131R,0.067X0.126*%
%ADD132R,0.134X0.249*%
%ADD133R,0.104X0.026*%
%ADD134R,0.063X0.063*%
%ADD135C,0.063*%
%ADD136R,0.063X0.063*%
%ADD137P,0.113X8X22.5*%
%ADD138C,0.062*%
%ADD139R,0.062X0.062*%
G04:AMPARAMS|DCode=140|XSize=217mil|YSize=258mil|CornerRadius=13mil|HoleSize=0mil|Usage=FLASHONLY|Rotation=90.000|XOffset=0mil|YOffset=0mil|HoleType=Round|Shape=RoundedRectangle|*
%AMROUNDEDRECTD140*
21,1,0.217,0.233,0,0,90.0*
21,1,0.192,0.258,0,0,90.0*
1,1,0.025,0.116,0.096*
1,1,0.025,0.116,-0.096*
1,1,0.025,-0.116,-0.096*
1,1,0.025,-0.116,0.096*
%
%ADD140ROUNDEDRECTD140*%
%ADD141C,0.124*%
%ADD142C,0.004*%
%ADD143C,0.064*%
%ADD144C,0.110*%
%ADD145C,0.022*%
%ADD146C,0.030*%
%ADD147C,0.040*%
D40*
X4000Y-0D02*
Y5500D01*
X1193D02*
X4000D01*
X0Y1681D02*
Y3650D01*
X753Y-0D02*
X4000D01*
X0D02*
Y1681D01*
Y-0D02*
X753D01*
X0Y5500D02*
X1193D01*
X0Y3650D02*
Y5500D01*
D82*
X2834Y1381D02*
D03*
X2823Y1328D02*
D03*
X1117Y1630D02*
D03*
X939Y4935D02*
D03*
X3458Y3767D02*
D03*
X2211Y727D02*
D03*
X2814Y4921D02*
D03*
X1135Y4988D02*
D03*
X1122Y5022D02*
D03*
X1351Y4990D02*
D03*
X1423Y5006D02*
D03*
X2761Y4997D02*
D03*
X2751Y5033D02*
D03*
X2974Y5015D02*
D03*
X3013Y5034D02*
D03*
X2789Y575D02*
D03*
X2822Y598D02*
D03*
X2233Y562D02*
D03*
X2231Y598D02*
D03*
X930Y1344D02*
D03*
X1345Y4816D02*
D03*
X1554Y4801D02*
D03*
X1389Y4772D02*
D03*
X609Y4303D02*
D03*
X819Y4302D02*
D03*
X2606Y822D02*
D03*
X2126Y841D02*
D03*
X2673Y4625D02*
D03*
X2971Y4624D02*
D03*
X1347Y4618D02*
D03*
X1049Y4619D02*
D03*
X972Y4630D02*
D03*
X966Y4515D02*
D03*
X436Y4393D02*
D03*
X1939Y4402D02*
D03*
X2581Y4635D02*
D03*
X2586Y4519D02*
D03*
X2726Y795D02*
D03*
X2725Y881D02*
D03*
X2780Y703D02*
D03*
X2972Y872D02*
D03*
X2992Y746D02*
D03*
X2261Y874D02*
D03*
X2266Y740D02*
D03*
X2474Y872D02*
D03*
X2509Y750D02*
D03*
X2256Y797D02*
D03*
X1028Y1237D02*
D03*
X1028Y1277D02*
D03*
X1078Y1237D02*
D03*
X1078Y1277D02*
D03*
X1128Y1237D02*
D03*
X1128Y1277D02*
D03*
X1178D02*
D03*
X1178Y1237D02*
D03*
X1228D02*
D03*
X1228Y1277D02*
D03*
X1028Y1329D02*
D03*
X1028Y1381D02*
D03*
X1028Y1421D02*
D03*
X1078Y1329D02*
D03*
X1078Y1381D02*
D03*
X1128D02*
D03*
X1078Y1421D02*
D03*
X1128D02*
D03*
X1178Y1329D02*
D03*
X1178Y1381D02*
D03*
X1178Y1421D02*
D03*
X1228Y1329D02*
D03*
X1228Y1381D02*
D03*
X1228Y1421D02*
D03*
X425Y4261D02*
D03*
X784Y4692D02*
D03*
X826Y4510D02*
D03*
X836Y4614D02*
D03*
X1058Y4519D02*
D03*
X1129Y4428D02*
D03*
Y4374D02*
D03*
X1183D02*
D03*
X1129Y4477D02*
D03*
X960Y4689D02*
D03*
X1129Y4526D02*
D03*
X1096Y4584D02*
D03*
X1183Y4526D02*
D03*
X1108Y4946D02*
D03*
X1161Y4863D02*
D03*
X1137Y5068D02*
D03*
X1232Y4374D02*
D03*
X1237Y4296D02*
D03*
X1232Y4526D02*
D03*
X1239Y4872D02*
D03*
X1281Y4477D02*
D03*
Y4374D02*
D03*
Y4428D02*
D03*
Y4526D02*
D03*
X1297Y4574D02*
D03*
X1351Y4522D02*
D03*
X1317Y4954D02*
D03*
X2106Y488D02*
D03*
X2174Y388D02*
D03*
X2128Y905D02*
D03*
X2233Y500D02*
D03*
X2309Y915D02*
D03*
X2329Y1110D02*
D03*
X2149Y1128D02*
D03*
X2290Y1346D02*
D03*
X2665Y514D02*
D03*
X2518Y811D02*
D03*
X2627Y721D02*
D03*
X2831Y391D02*
D03*
X2710Y721D02*
D03*
X2807Y497D02*
D03*
X2510Y921D02*
D03*
X2727Y916D02*
D03*
X2621Y961D02*
D03*
X3085Y500D02*
D03*
X3229Y485D02*
D03*
X3185Y681D02*
D03*
X2937Y916D02*
D03*
X2993Y820D02*
D03*
X2522Y1242D02*
D03*
X2522Y1282D02*
D03*
X2522Y1334D02*
D03*
X2572Y1242D02*
D03*
X2622D02*
D03*
X2572Y1282D02*
D03*
X2572Y1334D02*
D03*
X2622Y1282D02*
D03*
X2572Y1386D02*
D03*
X2522D02*
D03*
X2572Y1426D02*
D03*
X2522D02*
D03*
X2592Y1637D02*
D03*
X2622Y1386D02*
D03*
X2622Y1426D02*
D03*
X2672Y1242D02*
D03*
X2672Y1282D02*
D03*
X2722Y1242D02*
D03*
X2722Y1282D02*
D03*
X2672Y1334D02*
D03*
X2722D02*
D03*
X2672Y1386D02*
D03*
X2722D02*
D03*
X2722Y1426D02*
D03*
X2672D02*
D03*
X3867Y1587D02*
D03*
X4240Y1330D02*
D03*
X3589Y1632D02*
D03*
X3938Y1792D02*
D03*
X4204Y1748D02*
D03*
X1443Y4717D02*
D03*
X1517Y4966D02*
D03*
X1570Y4644D02*
D03*
X1651Y4688D02*
D03*
X1937Y4215D02*
D03*
Y4277D02*
D03*
Y4341D02*
D03*
X2807Y4380D02*
D03*
X2753Y4483D02*
D03*
Y4380D02*
D03*
Y4434D02*
D03*
X2485Y4500D02*
D03*
X2860Y4302D02*
D03*
X2856Y4380D02*
D03*
X2905D02*
D03*
Y4434D02*
D03*
Y4483D02*
D03*
X3157Y2327D02*
D03*
X3361Y1995D02*
D03*
X3304Y4335D02*
D03*
X3742Y4034D02*
D03*
X4242Y4084D02*
D03*
X3811Y4317D02*
D03*
X3863Y4522D02*
D03*
X4161Y4464D02*
D03*
X2682Y4525D02*
D03*
X2473Y4621D02*
D03*
X2753Y4532D02*
D03*
X2856D02*
D03*
X2807D02*
D03*
X2720Y4590D02*
D03*
X2414Y4699D02*
D03*
X2598Y4714D02*
D03*
X2769Y4879D02*
D03*
X2736Y4948D02*
D03*
X2884Y4879D02*
D03*
X2752Y5090D02*
D03*
X2905Y4532D02*
D03*
X2921Y4580D02*
D03*
X2975Y4528D02*
D03*
X3055Y4714D02*
D03*
X3176Y4650D02*
D03*
X3274Y4695D02*
D03*
X2924Y4955D02*
D03*
X3135Y4967D02*
D03*
X2722Y834D02*
D03*
X2171Y1036D02*
D03*
X2253Y832D02*
D03*
X2809Y4302D02*
D03*
X1185Y4296D02*
D03*
X1446Y4848D02*
D03*
X918Y4871D02*
D03*
X3092Y4846D02*
D03*
X2564Y4844D02*
D03*
X2541Y466D02*
D03*
X3132Y473D02*
D03*
X1392Y4899D02*
D03*
X1569Y4857D02*
D03*
X1088Y4975D02*
D03*
X2467Y4846D02*
D03*
X2700Y4974D02*
D03*
X3191Y4874D02*
D03*
X2411Y599D02*
D03*
X2741Y508D02*
D03*
X2191Y547D02*
D03*
X2957Y4977D02*
D03*
X2968Y607D02*
D03*
X4062Y1443D02*
D03*
X4021Y1442D02*
D03*
X3982D02*
D03*
X3940D02*
D03*
X3899Y1443D02*
D03*
X3860D02*
D03*
X3817Y1444D02*
D03*
X4059Y1393D02*
D03*
X4018Y1392D02*
D03*
X3979D02*
D03*
X3937D02*
D03*
X3896Y1393D02*
D03*
X3857D02*
D03*
X3814Y1394D02*
D03*
X3932Y1493D02*
D03*
X3989Y1490D02*
D03*
X4058Y1342D02*
D03*
X4017Y1341D02*
D03*
X3978D02*
D03*
X3936D02*
D03*
X3895Y1342D02*
D03*
X3856D02*
D03*
X3813Y1343D02*
D03*
X2680Y4467D02*
D03*
X2974Y4465D02*
D03*
X1350Y4459D02*
D03*
X1056Y4461D02*
D03*
X3407Y2164D02*
D03*
Y2114D02*
D03*
X3157Y2164D02*
D03*
Y2114D02*
D03*
X3357D02*
D03*
X3307D02*
D03*
X3257D02*
D03*
X3207D02*
D03*
X3357Y2164D02*
D03*
X3307D02*
D03*
X3257D02*
D03*
X3207D02*
D03*
X3239Y2220D02*
D03*
X3289D02*
D03*
X3339D02*
D03*
X2611Y1515D02*
D03*
X2883Y1326D02*
D03*
X1519Y4759D02*
D03*
X892Y4751D02*
D03*
X2966Y4829D02*
D03*
X3176Y4806D02*
D03*
X3006Y4785D02*
D03*
X2333Y4314D02*
D03*
X2524Y4753D02*
D03*
X3137Y4764D02*
D03*
D84*
X3723Y169D02*
D03*
X4185Y303D02*
D03*
X4609Y5270D02*
D03*
X4194Y516D02*
D03*
X4486Y4894D02*
D03*
X3670Y4233D02*
D03*
X3487Y4453D02*
D03*
X3307Y1743D02*
D03*
X3807Y90D02*
D03*
X3823Y762D02*
D03*
X3805Y905D02*
D03*
X3014Y2120D02*
D03*
X2799Y2507D02*
D03*
X3088Y2444D02*
D03*
X3250Y2530D02*
D03*
X3448Y2436D02*
D03*
X3637Y2453D02*
D03*
X4030Y4685D02*
D03*
X4143Y5066D02*
D03*
X3723Y1114D02*
D03*
X3755Y544D02*
D03*
X3976Y4900D02*
D03*
X4093Y5276D02*
D03*
X4195Y1115D02*
D03*
X4371Y1445D02*
D03*
X3665Y2190D02*
D03*
X4267Y4229D02*
D03*
X2969Y2512D02*
D03*
D111*
X820Y4331D02*
D03*
X755D02*
D03*
X610Y4331D02*
D03*
X675D02*
D03*
X474Y4390D02*
D03*
X539D02*
D03*
X1537Y4672D02*
D03*
X1472D02*
D03*
Y4618D02*
D03*
X1537D02*
D03*
X474Y4266D02*
D03*
X539D02*
D03*
X474Y4204D02*
D03*
X539D02*
D03*
X539Y4331D02*
D03*
X474D02*
D03*
X3096Y4624D02*
D03*
X3161D02*
D03*
X2326Y4344D02*
D03*
X2118Y4342D02*
D03*
X2047Y4340D02*
D03*
X1982D02*
D03*
Y4401D02*
D03*
X2047D02*
D03*
X3161Y4678D02*
D03*
X3096D02*
D03*
X1982Y4277D02*
D03*
X2047D02*
D03*
X1982Y4215D02*
D03*
X2047D02*
D03*
X2261Y4344D02*
D03*
X2183Y4342D02*
D03*
D112*
X2666Y1091D02*
D03*
X2635D02*
D03*
X2603D02*
D03*
X2572D02*
D03*
Y1147D02*
D03*
X2603D02*
D03*
X2635D02*
D03*
X2666D02*
D03*
X1173Y1088D02*
D03*
X1142D02*
D03*
X1110D02*
D03*
X1079D02*
D03*
Y1144D02*
D03*
X1110D02*
D03*
X1142D02*
D03*
X1173D02*
D03*
D113*
X2330Y3411D02*
D03*
X2350D02*
D03*
X1725Y1964D02*
D03*
X1745D02*
D03*
X1666D02*
D03*
X1686D02*
D03*
X2572D02*
D03*
X2592D02*
D03*
X2513D02*
D03*
X2533D02*
D03*
X2454D02*
D03*
X2473D02*
D03*
X2395D02*
D03*
X2414D02*
D03*
X2592Y1760D02*
D03*
X2611D02*
D03*
X2533D02*
D03*
X2552D02*
D03*
X2473D02*
D03*
X2493D02*
D03*
X2414D02*
D03*
X2434D02*
D03*
X1588D02*
D03*
X1607D02*
D03*
X1922D02*
D03*
X1942D02*
D03*
X1765D02*
D03*
X1784D02*
D03*
X1858Y3411D02*
D03*
X1878D02*
D03*
X1956D02*
D03*
X1976D02*
D03*
X1917D02*
D03*
X1937D02*
D03*
X2055D02*
D03*
X2074D02*
D03*
X1661Y3615D02*
D03*
X1681D02*
D03*
X1720D02*
D03*
X1740D02*
D03*
X1779D02*
D03*
X1799D02*
D03*
X1838D02*
D03*
X1858D02*
D03*
X1878D02*
D03*
X1897D02*
D03*
X1937D02*
D03*
X1956D02*
D03*
X1976D02*
D03*
X1996D02*
D03*
X2114Y3411D02*
D03*
X2133D02*
D03*
X2173Y3615D02*
D03*
X2193D02*
D03*
X2074D02*
D03*
X2094D02*
D03*
X2133D02*
D03*
X2153D02*
D03*
X2232D02*
D03*
X2252D02*
D03*
X2291D02*
D03*
X2311D02*
D03*
X2350D02*
D03*
X2370D02*
D03*
X2468D02*
D03*
X2488D02*
D03*
X1706Y1760D02*
D03*
X1725D02*
D03*
X1883D02*
D03*
X1903D02*
D03*
X1981D02*
D03*
X2001D02*
D03*
X1292D02*
D03*
X1312D02*
D03*
X1410D02*
D03*
X1430D02*
D03*
X2021D02*
D03*
X2040D02*
D03*
X997Y1964D02*
D03*
X1017Y1760D02*
D03*
Y1964D02*
D03*
X1036Y1760D02*
D03*
Y1964D02*
D03*
X1056Y1760D02*
D03*
Y1964D02*
D03*
X1076Y1760D02*
D03*
Y1964D02*
D03*
X1095Y1760D02*
D03*
Y1964D02*
D03*
X1115Y1760D02*
D03*
Y1964D02*
D03*
X1135Y1760D02*
D03*
X1155D02*
D03*
X1174D02*
D03*
Y1964D02*
D03*
X1194Y1760D02*
D03*
X1214D02*
D03*
X1233D02*
D03*
Y1964D02*
D03*
X1253Y1760D02*
D03*
Y1964D02*
D03*
X1273Y1760D02*
D03*
Y1964D02*
D03*
X1292D02*
D03*
X1332Y1760D02*
D03*
X1351D02*
D03*
Y1964D02*
D03*
X1371Y1760D02*
D03*
X1391D02*
D03*
X1410Y1964D02*
D03*
X1450Y1760D02*
D03*
X1470D02*
D03*
Y1964D02*
D03*
X1489Y1760D02*
D03*
X1509D02*
D03*
X1529Y1964D02*
D03*
X1568Y1760D02*
D03*
X1588Y1964D02*
D03*
X1627Y1760D02*
D03*
X1647D02*
D03*
Y1964D02*
D03*
X1666Y1760D02*
D03*
X1686D02*
D03*
X1706Y1964D02*
D03*
X1745Y1760D02*
D03*
X1765Y1964D02*
D03*
X1804Y1760D02*
D03*
X1824D02*
D03*
Y1964D02*
D03*
X1844Y1760D02*
D03*
Y1964D02*
D03*
X1863Y1760D02*
D03*
Y1964D02*
D03*
X1883D02*
D03*
X1903D02*
D03*
X1922D02*
D03*
X1942D02*
D03*
X1962Y1760D02*
D03*
Y1964D02*
D03*
X1981D02*
D03*
X2040D02*
D03*
X2060Y1760D02*
D03*
Y1964D02*
D03*
X2080Y1760D02*
D03*
Y1964D02*
D03*
X2099Y1760D02*
D03*
Y1964D02*
D03*
X2119Y1760D02*
D03*
Y1964D02*
D03*
X2139Y1760D02*
D03*
Y1964D02*
D03*
X2158Y1760D02*
D03*
Y1964D02*
D03*
X2178Y1760D02*
D03*
Y1964D02*
D03*
X2198Y1760D02*
D03*
Y1964D02*
D03*
X2218Y1760D02*
D03*
Y1964D02*
D03*
X2237Y1760D02*
D03*
Y1964D02*
D03*
X2257Y1760D02*
D03*
Y1964D02*
D03*
X2277Y1760D02*
D03*
Y1964D02*
D03*
X2296Y1760D02*
D03*
Y1964D02*
D03*
X2316Y1760D02*
D03*
Y1964D02*
D03*
X2336Y1760D02*
D03*
Y1964D02*
D03*
X2355Y1760D02*
D03*
Y1964D02*
D03*
X2375Y1760D02*
D03*
Y1964D02*
D03*
X2395Y1760D02*
D03*
X2434Y1964D02*
D03*
X2454Y1760D02*
D03*
X2493Y1964D02*
D03*
X2513Y1760D02*
D03*
X2552Y1964D02*
D03*
X2572Y1760D02*
D03*
X2611Y1964D02*
D03*
X2631Y1760D02*
D03*
Y1964D02*
D03*
X972Y3615D02*
D03*
X992Y3411D02*
D03*
Y3615D02*
D03*
X1011Y3411D02*
D03*
Y3615D02*
D03*
X1031Y3411D02*
D03*
Y3615D02*
D03*
X1051Y3411D02*
D03*
Y3615D02*
D03*
X1070Y3411D02*
D03*
Y3615D02*
D03*
X1090Y3411D02*
D03*
Y3615D02*
D03*
X1110Y3411D02*
D03*
Y3615D02*
D03*
X1130Y3411D02*
D03*
Y3615D02*
D03*
X1149Y3411D02*
D03*
Y3615D02*
D03*
X1169Y3411D02*
D03*
Y3615D02*
D03*
X1189Y3411D02*
D03*
Y3615D02*
D03*
X1208Y3411D02*
D03*
Y3615D02*
D03*
X1228Y3411D02*
D03*
Y3615D02*
D03*
X1248Y3411D02*
D03*
Y3615D02*
D03*
X1267Y3411D02*
D03*
Y3615D02*
D03*
X1287Y3411D02*
D03*
Y3615D02*
D03*
X1307Y3411D02*
D03*
Y3615D02*
D03*
X1326Y3411D02*
D03*
Y3615D02*
D03*
X1346Y3411D02*
D03*
Y3615D02*
D03*
X1366Y3411D02*
D03*
Y3615D02*
D03*
X1385Y3411D02*
D03*
Y3615D02*
D03*
X1405Y3411D02*
D03*
Y3615D02*
D03*
X1425Y3411D02*
D03*
Y3615D02*
D03*
X1445Y3411D02*
D03*
Y3615D02*
D03*
X1464Y3411D02*
D03*
Y3615D02*
D03*
X1484Y3411D02*
D03*
Y3615D02*
D03*
X1504Y3411D02*
D03*
Y3615D02*
D03*
X1523Y3411D02*
D03*
Y3615D02*
D03*
X1543Y3411D02*
D03*
Y3615D02*
D03*
X1563Y3411D02*
D03*
Y3615D02*
D03*
X1582Y3411D02*
D03*
Y3615D02*
D03*
X1602Y3411D02*
D03*
Y3615D02*
D03*
X1622Y3411D02*
D03*
Y3615D02*
D03*
X1641Y3411D02*
D03*
Y3615D02*
D03*
X1661Y3411D02*
D03*
X1681D02*
D03*
X1700D02*
D03*
Y3615D02*
D03*
X1720Y3411D02*
D03*
X1740D02*
D03*
X1759D02*
D03*
Y3615D02*
D03*
X1779Y3411D02*
D03*
X1799D02*
D03*
X1819D02*
D03*
Y3615D02*
D03*
X1838Y3411D02*
D03*
X1897D02*
D03*
X1917Y3615D02*
D03*
X1996Y3411D02*
D03*
X2015D02*
D03*
Y3615D02*
D03*
X2035Y3411D02*
D03*
Y3615D02*
D03*
X2055D02*
D03*
X2094Y3411D02*
D03*
X2114Y3615D02*
D03*
X2153Y3411D02*
D03*
X2173D02*
D03*
X2193D02*
D03*
X2212D02*
D03*
Y3615D02*
D03*
X2232Y3411D02*
D03*
X2252D02*
D03*
X2271D02*
D03*
Y3615D02*
D03*
X2291Y3411D02*
D03*
X2311D02*
D03*
X2330Y3615D02*
D03*
X2389D02*
D03*
X2409D02*
D03*
X2429Y3411D02*
D03*
Y3615D02*
D03*
X2448D02*
D03*
X2488Y3411D02*
D03*
X2508Y3615D02*
D03*
X2547Y3411D02*
D03*
X2606D02*
D03*
Y3615D02*
D03*
X2586Y3411D02*
D03*
X2567D02*
D03*
X2527D02*
D03*
X2508D02*
D03*
X2370D02*
D03*
X2409D02*
D03*
X2389D02*
D03*
X2586Y3615D02*
D03*
X2567D02*
D03*
X2547D02*
D03*
X2527D02*
D03*
X2468Y3411D02*
D03*
X2448D02*
D03*
X1155Y1964D02*
D03*
X1135D02*
D03*
X1214D02*
D03*
X1194D02*
D03*
X1548Y1760D02*
D03*
X1529D02*
D03*
X1804Y1964D02*
D03*
X1784D02*
D03*
X1391D02*
D03*
X1371D02*
D03*
X1450D02*
D03*
X1430D02*
D03*
X1509D02*
D03*
X1489D02*
D03*
X1568D02*
D03*
X1548D02*
D03*
X1332D02*
D03*
X1312D02*
D03*
X1627D02*
D03*
X1607D02*
D03*
X2021D02*
D03*
X2001D02*
D03*
D114*
X1205Y4450D02*
D03*
X2829Y4456D02*
D03*
D115*
X2730Y1473D02*
D03*
X2750D02*
D03*
X2691D02*
D03*
X2711D02*
D03*
X2573D02*
D03*
X2592D02*
D03*
X1197Y1190D02*
D03*
X1217D02*
D03*
X1039D02*
D03*
X1059D02*
D03*
X1079Y1468D02*
D03*
X1098D02*
D03*
X1157D02*
D03*
X1177D02*
D03*
X1236D02*
D03*
X1256D02*
D03*
X1197D02*
D03*
X1217D02*
D03*
X2651Y1473D02*
D03*
X2671D02*
D03*
X2533Y1195D02*
D03*
X2553D02*
D03*
X1000Y1190D02*
D03*
X1020D02*
D03*
X1079D02*
D03*
X1098D02*
D03*
X1118D02*
D03*
X1138D02*
D03*
X1157D02*
D03*
X1177D02*
D03*
X1236D02*
D03*
X1256D02*
D03*
X1138Y1468D02*
D03*
X1118D02*
D03*
X1059D02*
D03*
X1039D02*
D03*
X1020D02*
D03*
X1000D02*
D03*
X2494Y1195D02*
D03*
X2514D02*
D03*
X2573D02*
D03*
X2592D02*
D03*
X2612D02*
D03*
X2632D02*
D03*
X2651D02*
D03*
X2671D02*
D03*
X2691D02*
D03*
X2711D02*
D03*
X2730D02*
D03*
X2750D02*
D03*
X2632Y1473D02*
D03*
X2612D02*
D03*
X2553D02*
D03*
X2533D02*
D03*
X2514D02*
D03*
X2494D02*
D03*
D116*
X2463Y1383D02*
D03*
Y1403D02*
D03*
X969Y1378D02*
D03*
Y1398D02*
D03*
Y1417D02*
D03*
Y1437D02*
D03*
X2463Y1422D02*
D03*
Y1442D02*
D03*
X1286Y1221D02*
D03*
Y1240D02*
D03*
Y1260D02*
D03*
Y1280D02*
D03*
Y1299D02*
D03*
Y1319D02*
D03*
Y1339D02*
D03*
Y1358D02*
D03*
Y1378D02*
D03*
Y1398D02*
D03*
Y1417D02*
D03*
Y1437D02*
D03*
X969Y1358D02*
D03*
Y1339D02*
D03*
Y1319D02*
D03*
Y1299D02*
D03*
Y1280D02*
D03*
Y1260D02*
D03*
Y1240D02*
D03*
Y1221D02*
D03*
X2780Y1226D02*
D03*
Y1245D02*
D03*
Y1265D02*
D03*
Y1285D02*
D03*
Y1304D02*
D03*
Y1324D02*
D03*
Y1344D02*
D03*
Y1363D02*
D03*
Y1383D02*
D03*
Y1403D02*
D03*
Y1422D02*
D03*
Y1442D02*
D03*
X2463Y1363D02*
D03*
Y1344D02*
D03*
Y1324D02*
D03*
Y1304D02*
D03*
Y1285D02*
D03*
Y1265D02*
D03*
Y1245D02*
D03*
Y1226D02*
D03*
D117*
X1040Y4248D02*
D03*
X1059D02*
D03*
X1315D02*
D03*
X1335D02*
D03*
X1315Y4650D02*
D03*
X1296D02*
D03*
X1276D02*
D03*
X1374D02*
D03*
X1355D02*
D03*
X1335D02*
D03*
X1197Y4248D02*
D03*
X1217D02*
D03*
X1197Y4650D02*
D03*
X1217D02*
D03*
X1237D02*
D03*
X1256D02*
D03*
X1099D02*
D03*
X1079D02*
D03*
X1059D02*
D03*
X1040D02*
D03*
X1178D02*
D03*
X1119D02*
D03*
X1138D02*
D03*
X1158D02*
D03*
X2703Y4254D02*
D03*
X2723D02*
D03*
X2900D02*
D03*
X2919D02*
D03*
X2979D02*
D03*
X2998D02*
D03*
X2782Y4656D02*
D03*
X2762D02*
D03*
X2742D02*
D03*
X2801D02*
D03*
X2664D02*
D03*
X2683D02*
D03*
X2703D02*
D03*
X2723D02*
D03*
X2880D02*
D03*
X2860D02*
D03*
X2841D02*
D03*
X2821D02*
D03*
X2841Y4254D02*
D03*
X2821D02*
D03*
X2959Y4656D02*
D03*
X2979D02*
D03*
X2998D02*
D03*
X2900D02*
D03*
X2919D02*
D03*
X2939D02*
D03*
X2959Y4254D02*
D03*
X2939D02*
D03*
X2880D02*
D03*
X2860D02*
D03*
X2762D02*
D03*
X2742D02*
D03*
X2683D02*
D03*
X2664D02*
D03*
X2801D02*
D03*
X2782D02*
D03*
X1256Y4248D02*
D03*
X1237D02*
D03*
X1138D02*
D03*
X1119D02*
D03*
X1099D02*
D03*
X1079D02*
D03*
X1178D02*
D03*
X1158D02*
D03*
X1296D02*
D03*
X1276D02*
D03*
X1374D02*
D03*
X1355D02*
D03*
D118*
X1403Y4360D02*
D03*
Y4380D02*
D03*
Y4596D02*
D03*
Y4616D02*
D03*
X1006Y4498D02*
D03*
Y4537D02*
D03*
Y4518D02*
D03*
Y4478D02*
D03*
Y4596D02*
D03*
Y4616D02*
D03*
X1403Y4498D02*
D03*
Y4478D02*
D03*
Y4577D02*
D03*
Y4557D02*
D03*
Y4537D02*
D03*
Y4518D02*
D03*
X2630Y4563D02*
D03*
Y4583D02*
D03*
Y4327D02*
D03*
Y4346D02*
D03*
X3027Y4524D02*
D03*
Y4543D02*
D03*
Y4563D02*
D03*
Y4583D02*
D03*
Y4484D02*
D03*
Y4504D02*
D03*
X2630Y4622D02*
D03*
Y4602D02*
D03*
Y4484D02*
D03*
Y4524D02*
D03*
Y4543D02*
D03*
Y4504D02*
D03*
X3027Y4622D02*
D03*
Y4602D02*
D03*
Y4465D02*
D03*
Y4445D02*
D03*
Y4386D02*
D03*
Y4366D02*
D03*
Y4307D02*
D03*
Y4287D02*
D03*
Y4346D02*
D03*
Y4327D02*
D03*
Y4425D02*
D03*
Y4405D02*
D03*
X2630Y4386D02*
D03*
Y4366D02*
D03*
Y4307D02*
D03*
Y4287D02*
D03*
Y4465D02*
D03*
Y4445D02*
D03*
Y4425D02*
D03*
Y4405D02*
D03*
X1403Y4459D02*
D03*
Y4439D02*
D03*
Y4301D02*
D03*
Y4281D02*
D03*
X1006Y4340D02*
D03*
Y4321D02*
D03*
Y4459D02*
D03*
Y4439D02*
D03*
Y4419D02*
D03*
Y4399D02*
D03*
Y4380D02*
D03*
Y4360D02*
D03*
X1403Y4340D02*
D03*
Y4321D02*
D03*
Y4419D02*
D03*
Y4399D02*
D03*
X1006Y4301D02*
D03*
Y4281D02*
D03*
Y4577D02*
D03*
Y4557D02*
D03*
D119*
X2381Y1011D02*
D03*
X2447D02*
D03*
X2797D02*
D03*
X2864D02*
D03*
X1303Y1006D02*
D03*
X1370D02*
D03*
X1242D02*
D03*
X887D02*
D03*
X953D02*
D03*
X2469Y751D02*
D03*
Y816D02*
D03*
X2302Y751D02*
D03*
Y816D02*
D03*
X2946Y751D02*
D03*
Y816D02*
D03*
X2776Y751D02*
D03*
Y816D02*
D03*
X2157Y907D02*
D03*
Y842D02*
D03*
X2104Y907D02*
D03*
Y842D02*
D03*
X2583Y751D02*
D03*
Y816D02*
D03*
X2636Y751D02*
D03*
Y816D02*
D03*
X2447Y946D02*
D03*
X2318Y1010D02*
D03*
Y945D02*
D03*
X2381Y946D02*
D03*
X2588Y1025D02*
D03*
Y960D02*
D03*
X2651Y1025D02*
D03*
Y960D02*
D03*
X2864Y946D02*
D03*
X2928D02*
D03*
Y1011D02*
D03*
X2736D02*
D03*
Y946D02*
D03*
X2797D02*
D03*
X2510D02*
D03*
Y1011D02*
D03*
X2690Y751D02*
D03*
Y816D02*
D03*
X2222Y762D02*
D03*
Y827D02*
D03*
X975Y746D02*
D03*
Y811D02*
D03*
X808Y746D02*
D03*
Y811D02*
D03*
X1094Y1020D02*
D03*
Y955D02*
D03*
X1157Y1020D02*
D03*
Y955D02*
D03*
X1016Y941D02*
D03*
Y1006D02*
D03*
X953Y941D02*
D03*
X887D02*
D03*
X824Y1005D02*
D03*
Y940D02*
D03*
X1242Y941D02*
D03*
X1303D02*
D03*
X1370D02*
D03*
X1434D02*
D03*
Y1006D02*
D03*
X1282Y746D02*
D03*
Y811D02*
D03*
X1452Y746D02*
D03*
Y811D02*
D03*
X1196Y811D02*
D03*
Y746D02*
D03*
X1142Y746D02*
D03*
Y811D02*
D03*
X1089Y746D02*
D03*
Y811D02*
D03*
X728Y822D02*
D03*
Y757D02*
D03*
X610Y902D02*
D03*
Y837D02*
D03*
X663Y902D02*
D03*
Y837D02*
D03*
D120*
X872Y4729D02*
D03*
X826Y4683D02*
D03*
X1088Y4797D02*
D03*
X1134Y4843D02*
D03*
X999Y4708D02*
D03*
X1045Y4754D02*
D03*
X1427Y4924D02*
D03*
X1473Y4970D02*
D03*
X1473Y4877D02*
D03*
X1519Y4923D02*
D03*
X1645Y4852D02*
D03*
X1599Y4806D02*
D03*
X1643Y4760D02*
D03*
X1689Y4806D02*
D03*
X2334Y1151D02*
D03*
X2380Y1197D02*
D03*
X2419Y1159D02*
D03*
X2373Y1113D02*
D03*
X925Y1154D02*
D03*
X879Y1108D02*
D03*
X840Y1146D02*
D03*
X886Y1192D02*
D03*
X2496Y4735D02*
D03*
X2450Y4689D02*
D03*
X2712Y4803D02*
D03*
X2758Y4849D02*
D03*
X2623Y4714D02*
D03*
X2669Y4760D02*
D03*
X3269Y4858D02*
D03*
X3223Y4812D02*
D03*
X3097Y4883D02*
D03*
X3143Y4929D02*
D03*
X3051Y4930D02*
D03*
X3097Y4976D02*
D03*
X3267Y4766D02*
D03*
X3313Y4812D02*
D03*
D121*
X1563Y4746D02*
D03*
X1609Y4700D02*
D03*
X1317Y4797D02*
D03*
X1271Y4843D02*
D03*
X1406Y4708D02*
D03*
X1360Y4754D02*
D03*
X775Y4736D02*
D03*
X729Y4782D02*
D03*
X773Y4828D02*
D03*
X819Y4782D02*
D03*
X2813Y1157D02*
D03*
X2859Y1111D02*
D03*
X2316Y1371D02*
D03*
X2362Y1325D02*
D03*
X2268Y1324D02*
D03*
X2314Y1278D02*
D03*
X2128Y1102D02*
D03*
X2174Y1056D02*
D03*
X2218Y1100D02*
D03*
X2172Y1146D02*
D03*
X1319Y1152D02*
D03*
X1365Y1106D02*
D03*
X820Y1273D02*
D03*
X774Y1319D02*
D03*
X868Y1320D02*
D03*
X822Y1366D02*
D03*
X678Y1141D02*
D03*
X724Y1095D02*
D03*
X680Y1051D02*
D03*
X634Y1097D02*
D03*
X2397Y4834D02*
D03*
X2443Y4788D02*
D03*
X3187Y4752D02*
D03*
X3233Y4706D02*
D03*
X2941Y4803D02*
D03*
X2895Y4849D02*
D03*
X3030Y4714D02*
D03*
X2984Y4760D02*
D03*
X2399Y4742D02*
D03*
X2353Y4788D02*
D03*
D122*
X923Y4793D02*
D03*
X1027Y4953D02*
D03*
X1055Y4925D02*
D03*
X1041Y4939D02*
D03*
X909Y4807D02*
D03*
X937Y4779D02*
D03*
X895Y4821D02*
D03*
X881Y4835D02*
D03*
X1013Y4967D02*
D03*
X2637Y4973D02*
D03*
X2505Y4841D02*
D03*
X2519Y4827D02*
D03*
X2561Y4785D02*
D03*
X2533Y4813D02*
D03*
X2665Y4945D02*
D03*
X2679Y4931D02*
D03*
X2651Y4959D02*
D03*
X2547Y4799D02*
D03*
D123*
X1069Y4911D02*
D03*
X2693Y4917D02*
D03*
D124*
X813Y4249D02*
D03*
X715D02*
D03*
X2294Y4252D02*
D03*
X2178D02*
D03*
X2294Y4117D02*
D03*
X2178D02*
D03*
X813Y4114D02*
D03*
X715D02*
D03*
D125*
X3101Y1277D02*
D03*
X3006Y1182D02*
D03*
X2994Y1312D02*
D03*
X2899Y1217D02*
D03*
X1500Y1307D02*
D03*
X1405Y1212D02*
D03*
X1607Y1272D02*
D03*
X1512Y1177D02*
D03*
D126*
X2181Y1215D02*
D03*
X2207Y1189D02*
D03*
X2234Y1162D02*
D03*
X2240Y1274D02*
D03*
X2266Y1247D02*
D03*
X2292Y1221D02*
D03*
X687Y1210D02*
D03*
X713Y1184D02*
D03*
X740Y1157D02*
D03*
X746Y1269D02*
D03*
X772Y1242D02*
D03*
X798Y1216D02*
D03*
D127*
X518Y3506D02*
D03*
D128*
X722D02*
D03*
X518Y3486D02*
D03*
X722D02*
D03*
X518Y3467D02*
D03*
X722D02*
D03*
X518Y3447D02*
D03*
X722D02*
D03*
X518Y3427D02*
D03*
X722D02*
D03*
X518Y3408D02*
D03*
X722D02*
D03*
X518Y3388D02*
D03*
X722D02*
D03*
X518Y3368D02*
D03*
X722D02*
D03*
X518Y3348D02*
D03*
X722D02*
D03*
X518Y3329D02*
D03*
X722D02*
D03*
X518Y3309D02*
D03*
X722D02*
D03*
X518Y3289D02*
D03*
X722D02*
D03*
X518Y3270D02*
D03*
X722D02*
D03*
X518Y3250D02*
D03*
X722D02*
D03*
X518Y3230D02*
D03*
X722D02*
D03*
X518Y3211D02*
D03*
X722D02*
D03*
X518Y3191D02*
D03*
X722D02*
D03*
X518Y3171D02*
D03*
X722D02*
D03*
X518Y3152D02*
D03*
X722D02*
D03*
X518Y3132D02*
D03*
X722D02*
D03*
X518Y3112D02*
D03*
X722D02*
D03*
X518Y3093D02*
D03*
X722D02*
D03*
X518Y3073D02*
D03*
X722D02*
D03*
X518Y3053D02*
D03*
X722D02*
D03*
X518Y3033D02*
D03*
X722D02*
D03*
X518Y3014D02*
D03*
X722D02*
D03*
X518Y2994D02*
D03*
X722D02*
D03*
X518Y2974D02*
D03*
X722D02*
D03*
X518Y2955D02*
D03*
X722D02*
D03*
X518Y2935D02*
D03*
X722D02*
D03*
X518Y2915D02*
D03*
X722D02*
D03*
X518Y2896D02*
D03*
X722D02*
D03*
X518Y2876D02*
D03*
X722D02*
D03*
X518Y2856D02*
D03*
X722D02*
D03*
X518Y2837D02*
D03*
X722D02*
D03*
X518Y2817D02*
D03*
X722D02*
D03*
X518Y2797D02*
D03*
X722D02*
D03*
X518Y2778D02*
D03*
X722D02*
D03*
X518Y2758D02*
D03*
X722D02*
D03*
X518Y2738D02*
D03*
X722D02*
D03*
X518Y2719D02*
D03*
X722D02*
D03*
X518Y2699D02*
D03*
X722D02*
D03*
X518Y2679D02*
D03*
X722D02*
D03*
X518Y2659D02*
D03*
X722D02*
D03*
X518Y2640D02*
D03*
X722D02*
D03*
X518Y2620D02*
D03*
X722D02*
D03*
X518Y2600D02*
D03*
X722D02*
D03*
X518Y2581D02*
D03*
X722D02*
D03*
X518Y2561D02*
D03*
X722D02*
D03*
X518Y2541D02*
D03*
X722D02*
D03*
X518Y2522D02*
D03*
X722D02*
D03*
X518Y2502D02*
D03*
X722D02*
D03*
X518Y2482D02*
D03*
X722D02*
D03*
X518Y2463D02*
D03*
X722D02*
D03*
X518Y2443D02*
D03*
X722D02*
D03*
X518Y2423D02*
D03*
X722D02*
D03*
X518Y2404D02*
D03*
X722D02*
D03*
X518Y2384D02*
D03*
X722D02*
D03*
X518Y2364D02*
D03*
X722D02*
D03*
X518Y2345D02*
D03*
X722D02*
D03*
X518Y2325D02*
D03*
X722D02*
D03*
X518Y2305D02*
D03*
X722D02*
D03*
X518Y2285D02*
D03*
X722D02*
D03*
X518Y2266D02*
D03*
X722D02*
D03*
X518Y2246D02*
D03*
X722D02*
D03*
X518Y2226D02*
D03*
X722D02*
D03*
X518Y2207D02*
D03*
X722D02*
D03*
X518Y2187D02*
D03*
X722D02*
D03*
X518Y2167D02*
D03*
X722D02*
D03*
X518Y2148D02*
D03*
X722D02*
D03*
X518Y2128D02*
D03*
X722D02*
D03*
X518Y2108D02*
D03*
X722D02*
D03*
X518Y2089D02*
D03*
X722D02*
D03*
X518Y2069D02*
D03*
X722D02*
D03*
X518Y2049D02*
D03*
X722D02*
D03*
X518Y2030D02*
D03*
X722D02*
D03*
X518Y2010D02*
D03*
X722D02*
D03*
X518Y1990D02*
D03*
X722D02*
D03*
X518Y1970D02*
D03*
X722D02*
D03*
X518Y1951D02*
D03*
X722D02*
D03*
X518Y1931D02*
D03*
X722D02*
D03*
X518Y1911D02*
D03*
X722D02*
D03*
X518Y1892D02*
D03*
X722D02*
D03*
X518Y1872D02*
D03*
X722D02*
D03*
D129*
X620Y1746D02*
D03*
Y3632D02*
D03*
D130*
X997Y1760D02*
D03*
X972Y3411D02*
D03*
D131*
X2757Y1862D02*
D03*
X871D02*
D03*
X2732Y3513D02*
D03*
X846D02*
D03*
D132*
X4287Y1936D02*
D03*
Y2342D02*
D03*
X4288Y2713D02*
D03*
Y3118D02*
D03*
D133*
X3954Y1964D02*
D03*
Y2014D02*
D03*
Y2064D02*
D03*
Y2114D02*
D03*
Y2314D02*
D03*
Y2264D02*
D03*
Y2214D02*
D03*
Y2164D02*
D03*
X3955Y2740D02*
D03*
Y2790D02*
D03*
Y2840D02*
D03*
Y2890D02*
D03*
Y3090D02*
D03*
Y3040D02*
D03*
Y2990D02*
D03*
Y2940D02*
D03*
D134*
X411Y5291D02*
D03*
X2147Y5379D02*
D03*
X3273Y896D02*
D03*
X329Y404D02*
D03*
D135*
X411Y5191D02*
D03*
Y5091D02*
D03*
Y4991D02*
D03*
X711Y5291D02*
D03*
Y5191D02*
D03*
Y5091D02*
D03*
Y4991D02*
D03*
X2147Y5279D02*
D03*
Y5179D02*
D03*
Y5079D02*
D03*
X2447Y5379D02*
D03*
Y5279D02*
D03*
Y5179D02*
D03*
Y5079D02*
D03*
X3273Y796D02*
D03*
Y696D02*
D03*
Y596D02*
D03*
X3573Y896D02*
D03*
Y796D02*
D03*
Y696D02*
D03*
Y596D02*
D03*
X329Y304D02*
D03*
Y204D02*
D03*
Y104D02*
D03*
X629Y404D02*
D03*
Y304D02*
D03*
Y204D02*
D03*
Y104D02*
D03*
X208Y4238D02*
D03*
X308D02*
D03*
X208Y4338D02*
D03*
X308D02*
D03*
X208Y4438D02*
D03*
X308D02*
D03*
X208Y4538D02*
D03*
X308D02*
D03*
X208Y4638D02*
D03*
X308D02*
D03*
X208Y4738D02*
D03*
X181Y651D02*
D03*
X281D02*
D03*
X181Y751D02*
D03*
X281D02*
D03*
X181Y851D02*
D03*
X281D02*
D03*
X181Y951D02*
D03*
X281D02*
D03*
X181Y1051D02*
D03*
X281D02*
D03*
X181Y1151D02*
D03*
X281D02*
D03*
X181Y1251D02*
D03*
D136*
X308Y4738D02*
D03*
X281Y1251D02*
D03*
D137*
X1465Y284D02*
D03*
X812Y281D02*
D03*
X2959Y278D02*
D03*
X2309Y290D02*
D03*
X2460Y295D02*
D03*
X3110Y283D02*
D03*
X963Y286D02*
D03*
X1616Y289D02*
D03*
X1977Y5328D02*
D03*
X1794Y5329D02*
D03*
X1226Y5312D02*
D03*
X1038D02*
D03*
X2663Y5321D02*
D03*
X2851D02*
D03*
X3419Y5338D02*
D03*
X3602Y5337D02*
D03*
D138*
X4351Y425D02*
D03*
Y325D02*
D03*
Y225D02*
D03*
X1205Y4450D02*
D03*
X2829Y4456D02*
D03*
D139*
X4351Y525D02*
D03*
D140*
X1128Y1329D02*
D03*
X2622Y1334D02*
D03*
D141*
X150Y5350D02*
D03*
X4600Y150D02*
D03*
X3800Y5350D02*
D03*
X150Y150D02*
D03*
D142*
X620Y3563D02*
D03*
Y1815D02*
D03*
X940Y1862D02*
D03*
X2688D02*
D03*
X915Y3513D02*
D03*
X2663D02*
D03*
X620Y3563D02*
D03*
Y1815D02*
D03*
X915Y3513D02*
D03*
X2663D02*
D03*
D143*
X893Y3220D02*
D03*
X986Y2236D02*
D03*
X3211Y3220D02*
D03*
X2739Y2157D02*
D03*
D144*
X4468Y1889D02*
D03*
Y2389D02*
D03*
X4469Y2665D02*
D03*
Y3165D02*
D03*
D145*
X1314Y1342D02*
D03*
X1330Y1317D02*
D03*
X1661Y3366D02*
D03*
X1641Y3493D02*
D03*
X1602Y3490D02*
D03*
X1580Y3367D02*
D03*
X1549Y2018D02*
D03*
X1578Y2041D02*
D03*
X2350Y3686D02*
D03*
X2332Y3647D02*
D03*
X2391Y3343D02*
D03*
X2777Y4192D02*
D03*
X2354Y3351D02*
D03*
X2781Y4221D02*
D03*
X2330Y3314D02*
D03*
X1706Y1880D02*
D03*
X1746Y1709D02*
D03*
X1315Y2042D02*
D03*
X1288Y2030D02*
D03*
X1352Y2067D02*
D03*
X1391Y1703D02*
D03*
X1931Y2149D02*
D03*
X1435Y4518D02*
D03*
X1661Y4537D02*
D03*
X3110Y4075D02*
D03*
X3057Y4521D02*
D03*
X1459Y4534D02*
D03*
X1924Y2109D02*
D03*
X1613Y4555D02*
D03*
X3085Y4539D02*
D03*
X1712Y4515D02*
D03*
X1902Y2000D02*
D03*
X1435Y4554D02*
D03*
X3091Y4053D02*
D03*
X3061Y4561D02*
D03*
X1663Y1725D02*
D03*
X993Y3367D02*
D03*
X1011Y3491D02*
D03*
X1326D02*
D03*
X1366D02*
D03*
X1248D02*
D03*
X1287D02*
D03*
X1182Y3488D02*
D03*
X1208Y3491D02*
D03*
X1090D02*
D03*
X1116Y3495D02*
D03*
X1346Y3537D02*
D03*
X1386D02*
D03*
X1267D02*
D03*
X1307D02*
D03*
X1203D02*
D03*
X1228D02*
D03*
X1099Y3535D02*
D03*
X1182Y3517D02*
D03*
X1051Y3661D02*
D03*
X1071Y3537D02*
D03*
X992D02*
D03*
X1011Y3661D02*
D03*
X2158Y1718D02*
D03*
X2177Y1838D02*
D03*
X2139D02*
D03*
X2198Y1718D02*
D03*
X1523Y3491D02*
D03*
X1544Y3367D02*
D03*
X1465D02*
D03*
X1484Y3491D02*
D03*
X1405D02*
D03*
X1426Y3367D02*
D03*
X1602Y3661D02*
D03*
X1622Y3537D02*
D03*
X1543D02*
D03*
X1563Y3661D02*
D03*
X1484D02*
D03*
X1504Y3537D02*
D03*
X1425D02*
D03*
X1445Y3661D02*
D03*
X1032Y3367D02*
D03*
X1051Y3491D02*
D03*
X2100Y1838D02*
D03*
X2079Y1718D02*
D03*
X2118D02*
D03*
X2416Y2005D02*
D03*
X3861Y3037D02*
D03*
X2395Y2025D02*
D03*
X3862Y3088D02*
D03*
X2476Y2001D02*
D03*
X3859Y2936D02*
D03*
X2453Y2015D02*
D03*
X3852Y2994D02*
D03*
X2533Y2005D02*
D03*
X3855Y2838D02*
D03*
X2511Y2022D02*
D03*
X3855Y2897D02*
D03*
X2591Y2001D02*
D03*
X3850Y2737D02*
D03*
X2575Y2024D02*
D03*
X3858Y2791D02*
D03*
X2433Y1707D02*
D03*
X3835Y1963D02*
D03*
X2415Y1725D02*
D03*
X3841Y2013D02*
D03*
X2493Y1703D02*
D03*
X3836Y2053D02*
D03*
X2471Y1727D02*
D03*
X3838Y2117D02*
D03*
X2555Y1706D02*
D03*
X3836Y2170D02*
D03*
X2529Y1723D02*
D03*
X3831Y2211D02*
D03*
X2617Y1705D02*
D03*
X3794Y2285D02*
D03*
X2588Y1725D02*
D03*
X3843Y2310D02*
D03*
X2074Y3661D02*
D03*
X807Y4009D02*
D03*
X2193Y3965D02*
D03*
X2073Y3536D02*
D03*
X789Y4027D02*
D03*
X2224Y3942D02*
D03*
X1859Y3367D02*
D03*
X1155Y4216D02*
D03*
X1878Y3491D02*
D03*
X1180Y4202D02*
D03*
X1836Y3711D02*
D03*
X1878Y3536D02*
D03*
X953Y4457D02*
D03*
X1656Y2008D02*
D03*
X974Y4438D02*
D03*
X1699Y2033D02*
D03*
X949Y4421D02*
D03*
X1723Y2054D02*
D03*
X975Y4399D02*
D03*
X1755Y2070D02*
D03*
X955Y4380D02*
D03*
X1701Y3367D02*
D03*
X975Y4357D02*
D03*
X1720Y3491D02*
D03*
X1661Y3537D02*
D03*
X1681Y3661D02*
D03*
X961Y4309D02*
D03*
X1759Y3491D02*
D03*
X935Y4295D02*
D03*
X1780Y3367D02*
D03*
X1720Y3661D02*
D03*
X1755Y3536D02*
D03*
X1820Y3367D02*
D03*
X1079Y4216D02*
D03*
X1838Y3491D02*
D03*
X1101Y4202D02*
D03*
X1779Y3537D02*
D03*
X1799Y3661D02*
D03*
X1299Y4194D02*
D03*
X1917Y3491D02*
D03*
X1299Y4218D02*
D03*
X1938Y3367D02*
D03*
X1878Y3661D02*
D03*
X1911Y3536D02*
D03*
X1956Y3491D02*
D03*
X1351Y4218D02*
D03*
X1977Y3367D02*
D03*
X1379Y4205D02*
D03*
X1937Y3537D02*
D03*
X1956Y3661D02*
D03*
X1456Y4319D02*
D03*
X2016Y3367D02*
D03*
X1435Y4338D02*
D03*
X2035Y3491D02*
D03*
X1962Y3536D02*
D03*
X1996Y3696D02*
D03*
X2056Y3367D02*
D03*
X1456Y4421D02*
D03*
X2074Y3491D02*
D03*
X1432Y4420D02*
D03*
X2035Y3661D02*
D03*
X2042Y3536D02*
D03*
X1962Y2002D02*
D03*
X3061Y4600D02*
D03*
X2370Y3537D02*
D03*
X2174Y3367D02*
D03*
X2587Y4386D02*
D03*
X2193Y3491D02*
D03*
X2547Y4367D02*
D03*
X2159Y3536D02*
D03*
X2193Y3661D02*
D03*
X2232Y3491D02*
D03*
X2590Y4306D02*
D03*
X2253Y3367D02*
D03*
X2574Y4287D02*
D03*
X2232Y3661D02*
D03*
X2252Y3537D02*
D03*
X2271Y3491D02*
D03*
X2702Y4215D02*
D03*
X2292Y3367D02*
D03*
X2724Y4194D02*
D03*
X2279Y3540D02*
D03*
X2311Y3661D02*
D03*
X2389Y3491D02*
D03*
X2895Y4218D02*
D03*
X2410Y3367D02*
D03*
X2919Y4198D02*
D03*
X2406Y3538D02*
D03*
X2429Y3661D02*
D03*
X2450Y3367D02*
D03*
X2979Y4200D02*
D03*
X2468Y3491D02*
D03*
X3003Y4220D02*
D03*
X2468Y3661D02*
D03*
X2496Y3538D02*
D03*
X2508Y3491D02*
D03*
X3065Y4325D02*
D03*
X2528Y3367D02*
D03*
X3089Y4349D02*
D03*
X2527Y3536D02*
D03*
X2547Y3661D02*
D03*
X2568Y3367D02*
D03*
X3071Y4401D02*
D03*
X2586Y3491D02*
D03*
X3066Y4426D02*
D03*
X2581Y3536D02*
D03*
X2592Y3660D02*
D03*
X1939Y2018D02*
D03*
X3086Y4582D02*
D03*
X1160Y3987D02*
D03*
X1442Y4591D02*
D03*
X1871Y2063D02*
D03*
X1125Y3986D02*
D03*
X1847Y2024D02*
D03*
X1457Y4572D02*
D03*
X1072Y3367D02*
D03*
X1229D02*
D03*
X972Y3491D02*
D03*
X1268Y3367D02*
D03*
X1308D02*
D03*
X1347D02*
D03*
X1387D02*
D03*
X972Y3661D02*
D03*
X1090D02*
D03*
X1208D02*
D03*
X1248D02*
D03*
X1287D02*
D03*
X1326D02*
D03*
X1366D02*
D03*
X1445Y3491D02*
D03*
X1563D02*
D03*
X1681D02*
D03*
X1799D02*
D03*
X1996D02*
D03*
X2153D02*
D03*
X2311D02*
D03*
X2369Y3511D02*
D03*
X1405Y3661D02*
D03*
X1523D02*
D03*
X1627Y3662D02*
D03*
X1759Y3661D02*
D03*
X1917D02*
D03*
X2111Y3705D02*
D03*
X2273Y3716D02*
D03*
X2429Y3491D02*
D03*
X2547D02*
D03*
X1076Y2000D02*
D03*
X1415Y1372D02*
D03*
X2114Y3491D02*
D03*
X2574Y4464D02*
D03*
X2135Y3367D02*
D03*
X2593Y4443D02*
D03*
X2134Y3537D02*
D03*
X2153Y3661D02*
D03*
X633Y3340D02*
D03*
X624Y3315D02*
D03*
X630Y3272D02*
D03*
X628Y3184D02*
D03*
X631Y3147D02*
D03*
X638Y3119D02*
D03*
X604Y3357D02*
D03*
X601Y3331D02*
D03*
X609Y3287D02*
D03*
X608Y3260D02*
D03*
X612Y3162D02*
D03*
X608Y3124D02*
D03*
X613Y3094D02*
D03*
X1386Y2049D02*
D03*
X1366Y2027D02*
D03*
X1451Y2041D02*
D03*
X1428Y2021D02*
D03*
X1516Y2040D02*
D03*
X1487Y2023D02*
D03*
X848Y2972D02*
D03*
X824Y3002D02*
D03*
X1505Y3367D02*
D03*
X1898D02*
D03*
X1623D02*
D03*
X2213D02*
D03*
X1031Y3537D02*
D03*
X1582D02*
D03*
X1464D02*
D03*
X1805D02*
D03*
X1991Y3535D02*
D03*
X2345Y3537D02*
D03*
X2606Y3537D02*
D03*
X1528Y1836D02*
D03*
X1561Y1846D02*
D03*
D146*
X888Y1718D02*
D03*
X934D02*
D03*
X2302Y5079D02*
D03*
X2298Y5377D02*
D03*
X485Y410D02*
D03*
X464Y70D02*
D03*
X3428Y941D02*
D03*
Y566D02*
D03*
X569Y4989D02*
D03*
X564Y5309D02*
D03*
X1318Y1117D02*
D03*
X779Y1366D02*
D03*
X1637Y2617D02*
D03*
X1315Y561D02*
D03*
X1321Y596D02*
D03*
X729Y558D02*
D03*
X753Y591D02*
D03*
X1104Y844D02*
D03*
X632Y838D02*
D03*
X1256Y873D02*
D03*
X1288Y707D02*
D03*
X1494Y857D02*
D03*
X1486Y717D02*
D03*
X760Y868D02*
D03*
X769Y733D02*
D03*
X760Y791D02*
D03*
X1030Y850D02*
D03*
X1015Y736D02*
D03*
X3170Y91D02*
D03*
X3154Y159D02*
D03*
X3087Y90D02*
D03*
X3064Y159D02*
D03*
X2999Y92D02*
D03*
X2973Y159D02*
D03*
X2919Y88D02*
D03*
X2888Y159D02*
D03*
X2958Y418D02*
D03*
X2484Y98D02*
D03*
X2457Y162D02*
D03*
X2395Y96D02*
D03*
X2371Y161D02*
D03*
X2317Y103D02*
D03*
X2297Y160D02*
D03*
X2243Y97D02*
D03*
X2224Y162D02*
D03*
X2306Y418D02*
D03*
X2442Y1210D02*
D03*
X2799D02*
D03*
X946Y1208D02*
D03*
X1310Y1213D02*
D03*
X480Y1991D02*
D03*
X596Y551D02*
D03*
X638Y919D02*
D03*
X639Y1129D02*
D03*
X594Y2049D02*
D03*
X642Y1871D02*
D03*
Y2028D02*
D03*
X594Y2206D02*
D03*
Y2401D02*
D03*
X690Y374D02*
D03*
X714Y729D02*
D03*
X739Y487D02*
D03*
X480Y2856D02*
D03*
Y2974D02*
D03*
Y3093D02*
D03*
X594Y2600D02*
D03*
Y2797D02*
D03*
X642Y2896D02*
D03*
X594Y2914D02*
D03*
X642Y3012D02*
D03*
X594Y3033D02*
D03*
X799Y921D02*
D03*
X846Y1111D02*
D03*
X1014Y499D02*
D03*
X1024Y813D02*
D03*
X1054Y933D02*
D03*
X1174Y512D02*
D03*
X1159Y706D02*
D03*
X1316Y493D02*
D03*
X1347Y382D02*
D03*
X1193Y930D02*
D03*
X766Y2676D02*
D03*
Y2283D02*
D03*
Y2483D02*
D03*
Y3070D02*
D03*
Y2841D02*
D03*
Y2953D02*
D03*
Y2089D02*
D03*
X1148Y1865D02*
D03*
X1271Y1867D02*
D03*
X480Y3289D02*
D03*
X766Y3268D02*
D03*
X480Y3328D02*
D03*
X1905Y2282D02*
D03*
X480Y3368D02*
D03*
Y3405D02*
D03*
X1677Y2343D02*
D03*
X2028Y2499D02*
D03*
X1598Y2723D02*
D03*
X594Y3508D02*
D03*
X766Y3314D02*
D03*
Y3351D02*
D03*
Y3384D02*
D03*
Y3505D02*
D03*
X1589Y500D02*
D03*
X1778Y577D02*
D03*
X1495Y815D02*
D03*
X1777Y635D02*
D03*
Y686D02*
D03*
X1775Y743D02*
D03*
X1799Y243D02*
D03*
X1899Y158D02*
D03*
X1852Y200D02*
D03*
X1779Y296D02*
D03*
X1854D02*
D03*
X1849Y352D02*
D03*
X1947Y115D02*
D03*
X2101Y98D02*
D03*
X2019Y100D02*
D03*
X1950Y207D02*
D03*
X1900Y252D02*
D03*
X2059Y164D02*
D03*
X1991Y166D02*
D03*
X1780Y356D02*
D03*
X1782Y409D02*
D03*
X1781Y463D02*
D03*
X1780Y524D02*
D03*
X1847Y739D02*
D03*
X1780Y798D02*
D03*
X1850Y521D02*
D03*
X1851Y408D02*
D03*
X1858Y460D02*
D03*
X1850Y634D02*
D03*
X1847Y683D02*
D03*
X1853Y577D02*
D03*
X1854Y799D02*
D03*
X1402Y1112D02*
D03*
X1445Y921D02*
D03*
X1555Y1474D02*
D03*
X1559Y1415D02*
D03*
X1632Y1528D02*
D03*
X1558Y1529D02*
D03*
Y1584D02*
D03*
X1632Y1641D02*
D03*
X1555Y1699D02*
D03*
X1558Y1642D02*
D03*
X1774Y1021D02*
D03*
X1781Y913D02*
D03*
X1775Y970D02*
D03*
X1671Y1132D02*
D03*
X1738Y1058D02*
D03*
X1707Y1095D02*
D03*
X1781Y860D02*
D03*
X1848Y859D02*
D03*
X1844Y911D02*
D03*
X1825Y1072D02*
D03*
X1794Y1104D02*
D03*
X1847Y965D02*
D03*
Y1017D02*
D03*
X1636Y1165D02*
D03*
X1696Y1198D02*
D03*
X1643Y1415D02*
D03*
X1632Y1583D02*
D03*
X1633Y1473D02*
D03*
X1635Y1698D02*
D03*
X1758Y1136D02*
D03*
X1725Y1170D02*
D03*
X2140Y165D02*
D03*
X2180Y96D02*
D03*
X1626Y1849D02*
D03*
X1444Y1857D02*
D03*
X2370Y1860D02*
D03*
X2155Y1867D02*
D03*
X2552Y163D02*
D03*
X2590Y93D02*
D03*
X2641Y162D02*
D03*
X2685Y91D02*
D03*
X2771D02*
D03*
X2733Y160D02*
D03*
X2813D02*
D03*
X2840Y91D02*
D03*
X2583Y923D02*
D03*
X2658D02*
D03*
X3237Y159D02*
D03*
X3265Y83D02*
D03*
X3345Y92D02*
D03*
X3322Y160D02*
D03*
X3401D02*
D03*
X3418Y93D02*
D03*
X3504Y95D02*
D03*
X3469Y162D02*
D03*
X3513Y200D02*
D03*
X3573Y254D02*
D03*
X3560Y144D02*
D03*
X3615Y198D02*
D03*
X3630Y318D02*
D03*
X3641Y373D02*
D03*
X3642Y441D02*
D03*
X3639Y566D02*
D03*
X3643Y502D02*
D03*
X3641Y633D02*
D03*
X3711Y355D02*
D03*
X3682Y265D02*
D03*
X3714Y567D02*
D03*
X3713Y637D02*
D03*
X3719Y442D02*
D03*
X3714Y507D02*
D03*
X3712Y702D02*
D03*
X3644Y705D02*
D03*
X3642Y761D02*
D03*
Y822D02*
D03*
Y882D02*
D03*
X3586Y946D02*
D03*
X3525Y1004D02*
D03*
X3712Y759D02*
D03*
Y821D02*
D03*
X3714Y879D02*
D03*
X3679Y959D02*
D03*
X2580Y1867D02*
D03*
X2879Y1091D02*
D03*
X3464Y1054D02*
D03*
X3622Y1021D02*
D03*
X3578Y1057D02*
D03*
X3419Y1101D02*
D03*
X3531Y1111D02*
D03*
X3290Y1235D02*
D03*
X3250Y1271D02*
D03*
X3220Y1306D02*
D03*
X3330Y1188D02*
D03*
X3368Y1143D02*
D03*
X3477Y1160D02*
D03*
X3358Y1290D02*
D03*
X3320Y1319D02*
D03*
X3431Y1206D02*
D03*
X3395Y1251D02*
D03*
X3171Y1329D02*
D03*
X3274Y1357D02*
D03*
X3236Y1392D02*
D03*
X3178Y1396D02*
D03*
X3086Y1397D02*
D03*
X3130Y1398D02*
D03*
X3138Y2927D02*
D03*
X3506Y2992D02*
D03*
X717Y1060D02*
D03*
X759Y826D02*
D03*
X1230Y822D02*
D03*
X1065Y457D02*
D03*
X1629Y469D02*
D03*
X696Y473D02*
D03*
X925Y594D02*
D03*
X1476Y603D02*
D03*
X1261Y507D02*
D03*
X1148Y1498D02*
D03*
X2090Y2728D02*
D03*
X642Y3489D02*
D03*
X766Y3464D02*
D03*
X640Y3448D02*
D03*
X766Y3426D02*
D03*
X642Y3411D02*
D03*
Y3367D02*
D03*
Y3091D02*
D03*
Y3053D02*
D03*
X766Y3030D02*
D03*
Y2997D02*
D03*
X642Y2977D02*
D03*
Y2935D02*
D03*
X766Y2915D02*
D03*
Y2874D02*
D03*
X642Y2856D02*
D03*
Y2817D02*
D03*
X766Y2798D02*
D03*
X642Y2775D02*
D03*
X766Y2759D02*
D03*
X642Y2736D02*
D03*
X766Y2720D02*
D03*
X642Y2696D02*
D03*
Y2659D02*
D03*
X766Y2639D02*
D03*
X642Y2614D02*
D03*
X766Y2598D02*
D03*
X642Y2582D02*
D03*
X766Y2560D02*
D03*
X642Y2540D02*
D03*
X766Y2522D02*
D03*
X642Y2498D02*
D03*
Y2459D02*
D03*
X766Y2443D02*
D03*
X642Y2425D02*
D03*
X766Y2406D02*
D03*
X642Y2384D02*
D03*
X766Y2366D02*
D03*
X642Y2345D02*
D03*
X766Y2325D02*
D03*
X642Y2304D02*
D03*
Y2266D02*
D03*
X766Y2248D02*
D03*
X642Y2225D02*
D03*
X766Y2207D02*
D03*
X642Y2187D02*
D03*
X766Y2166D02*
D03*
X642Y2150D02*
D03*
X766Y2126D02*
D03*
X642Y2105D02*
D03*
Y2069D02*
D03*
X766Y2049D02*
D03*
Y2007D02*
D03*
X642Y1987D02*
D03*
X766Y1967D02*
D03*
X642Y1950D02*
D03*
X766Y1930D02*
D03*
X642Y1911D02*
D03*
X766Y1892D02*
D03*
X479Y3486D02*
D03*
X594Y3466D02*
D03*
X480Y3446D02*
D03*
X594Y3427D02*
D03*
Y3387D02*
D03*
Y3072D02*
D03*
X480Y3053D02*
D03*
Y3014D02*
D03*
X594Y2993D02*
D03*
Y2954D02*
D03*
X480Y2935D02*
D03*
Y2897D02*
D03*
X594Y2876D02*
D03*
X595Y2837D02*
D03*
X480Y2817D02*
D03*
Y2777D02*
D03*
X594Y2757D02*
D03*
X480Y2739D02*
D03*
X594Y2718D02*
D03*
X480Y2698D02*
D03*
X594Y2678D02*
D03*
X480Y2659D02*
D03*
X594Y2639D02*
D03*
X480Y2621D02*
D03*
Y2581D02*
D03*
X594Y2561D02*
D03*
X480Y2543D02*
D03*
X594Y2521D02*
D03*
X480Y2502D02*
D03*
X594Y2482D02*
D03*
X480Y2463D02*
D03*
X594Y2439D02*
D03*
X480Y2421D02*
D03*
Y2382D02*
D03*
X594Y2362D02*
D03*
X480Y2344D02*
D03*
X594Y2324D02*
D03*
X480Y2304D02*
D03*
X594Y2285D02*
D03*
X480Y2263D02*
D03*
X594Y2248D02*
D03*
X480Y2225D02*
D03*
X481Y2187D02*
D03*
X594Y2166D02*
D03*
X480Y2146D02*
D03*
X594Y2128D02*
D03*
X480Y2110D02*
D03*
X594Y2088D02*
D03*
X480Y2069D02*
D03*
Y2031D02*
D03*
X594Y2009D02*
D03*
Y1968D02*
D03*
X481Y1950D02*
D03*
X594Y1930D02*
D03*
X480Y1911D02*
D03*
X594Y1893D02*
D03*
X480Y1870D02*
D03*
X2110Y4311D02*
D03*
X1898Y1863D02*
D03*
D147*
X3320Y3771D02*
D03*
X2056Y3308D02*
D03*
X3050Y2644D02*
D03*
X3555Y2635D02*
D03*
X3203Y3130D02*
D03*
X2972Y2847D02*
D03*
X3580Y2809D02*
D03*
M02*
