G04 Layer_Physical_Order=5*
G04 Layer_Color=128*
%FSLAX23Y23*%
%MOIN*%
G70*
G01*
G75*
%ADD40C,0.008*%
%ADD41C,0.010*%
%ADD61C,0.036*%
%ADD64C,0.020*%
%ADD65C,0.040*%
%ADD74C,0.059*%
%ADD75C,0.074*%
%ADD76C,0.066*%
%ADD77C,0.144*%
%ADD78C,0.067*%
%ADD79C,0.071*%
%ADD80C,0.115*%
%ADD81C,0.130*%
%ADD82C,0.032*%
%ADD83C,0.039*%
%ADD84C,0.042*%
%ADD85C,0.068*%
D40*
X4000Y-0D02*
Y5500D01*
X1193D02*
X4000D01*
X0Y1681D02*
Y3650D01*
X753Y-0D02*
X4000D01*
X0D02*
Y1681D01*
Y-0D02*
X753D01*
X0Y5500D02*
X1193D01*
X0Y3650D02*
Y5500D01*
D41*
X247Y996D02*
X248D01*
X247Y-1D02*
X252D01*
X3520Y2580D02*
Y2583D01*
X1434Y2781D02*
X1485D01*
X1720Y1580D02*
Y1582D01*
Y1833D02*
X1721D01*
X4418Y4971D02*
X4424D01*
X4418Y1525D02*
Y1528D01*
X4101Y2266D02*
X4103D01*
X2924Y3002D02*
X2924D01*
X373Y4362D02*
X376D01*
X3222Y4376D02*
X3225D01*
X1836Y4500D02*
X1855D01*
X1005D02*
X1012D01*
X3412Y4505D02*
X3415D01*
X881Y4731D02*
X882D01*
X1003Y4732D02*
X1004D01*
X1418Y4882D02*
X1420D01*
X3053Y1784D02*
X3055D01*
X3352D02*
X3353D01*
X645Y996D02*
X656D01*
X3760Y1145D02*
X3777D01*
X676Y192D02*
X680Y188D01*
X2924Y2897D02*
X2924D01*
X4402Y380D02*
X4405Y377D01*
D61*
X888Y1718D02*
D03*
X2834Y1381D02*
D03*
X934Y1718D02*
D03*
X2823Y1328D02*
D03*
X1117Y1630D02*
D03*
X2302Y5079D02*
D03*
X2298Y5377D02*
D03*
X485Y410D02*
D03*
X464Y70D02*
D03*
X3428Y941D02*
D03*
Y566D02*
D03*
X569Y4989D02*
D03*
X564Y5309D02*
D03*
X3458Y3767D02*
D03*
X2211Y727D02*
D03*
X1318Y1117D02*
D03*
X779Y1366D02*
D03*
X2814Y4921D02*
D03*
X1315Y561D02*
D03*
X1321Y596D02*
D03*
X729Y558D02*
D03*
X753Y591D02*
D03*
X2789Y575D02*
D03*
X2822Y598D02*
D03*
X2233Y562D02*
D03*
X2231Y598D02*
D03*
X930Y1344D02*
D03*
X1104Y844D02*
D03*
X632Y838D02*
D03*
X1256Y873D02*
D03*
X1288Y707D02*
D03*
X1494Y857D02*
D03*
X1486Y717D02*
D03*
X760Y868D02*
D03*
X769Y733D02*
D03*
X760Y791D02*
D03*
X1030Y850D02*
D03*
X1015Y736D02*
D03*
X2606Y822D02*
D03*
X2126Y841D02*
D03*
X2726Y795D02*
D03*
X2725Y881D02*
D03*
X2780Y703D02*
D03*
X2972Y872D02*
D03*
X2992Y746D02*
D03*
X2261Y874D02*
D03*
X2266Y740D02*
D03*
X2474Y872D02*
D03*
X2509Y750D02*
D03*
X3170Y91D02*
D03*
X3154Y159D02*
D03*
X3087Y90D02*
D03*
X3064Y159D02*
D03*
X2999Y92D02*
D03*
X2973Y159D02*
D03*
X2919Y88D02*
D03*
X2888Y159D02*
D03*
X2958Y418D02*
D03*
X2484Y98D02*
D03*
X2457Y162D02*
D03*
X2395Y96D02*
D03*
X2371Y161D02*
D03*
X2317Y103D02*
D03*
X2297Y160D02*
D03*
X2243Y97D02*
D03*
X2224Y162D02*
D03*
X2306Y418D02*
D03*
X2256Y797D02*
D03*
X480Y1991D02*
D03*
X596Y551D02*
D03*
X638Y919D02*
D03*
X639Y1129D02*
D03*
X594Y2049D02*
D03*
X642Y1871D02*
D03*
Y2028D02*
D03*
X594Y2206D02*
D03*
Y2401D02*
D03*
X690Y374D02*
D03*
X714Y729D02*
D03*
X739Y487D02*
D03*
X480Y2856D02*
D03*
Y2974D02*
D03*
Y3093D02*
D03*
X594Y2600D02*
D03*
Y2797D02*
D03*
X642Y2896D02*
D03*
X594Y2914D02*
D03*
X642Y3012D02*
D03*
X594Y3033D02*
D03*
X799Y921D02*
D03*
X846Y1111D02*
D03*
X1014Y499D02*
D03*
X1024Y813D02*
D03*
X1054Y933D02*
D03*
X1174Y512D02*
D03*
X1159Y706D02*
D03*
X1316Y493D02*
D03*
X1347Y382D02*
D03*
X1193Y930D02*
D03*
X766Y2676D02*
D03*
Y2283D02*
D03*
Y2483D02*
D03*
Y3070D02*
D03*
Y2841D02*
D03*
Y2953D02*
D03*
Y2089D02*
D03*
X1148Y1865D02*
D03*
X1271Y1867D02*
D03*
X480Y3289D02*
D03*
X766Y3268D02*
D03*
X480Y3328D02*
D03*
X1905Y2282D02*
D03*
X480Y3368D02*
D03*
Y3405D02*
D03*
X1677Y2343D02*
D03*
X2028Y2499D02*
D03*
X1598Y2723D02*
D03*
X594Y3508D02*
D03*
X766Y3314D02*
D03*
Y3351D02*
D03*
Y3384D02*
D03*
Y3505D02*
D03*
X1129Y4428D02*
D03*
Y4374D02*
D03*
X1183D02*
D03*
X1129Y4477D02*
D03*
Y4526D02*
D03*
X1096Y4584D02*
D03*
X1183Y4526D02*
D03*
X1232Y4374D02*
D03*
X1237Y4296D02*
D03*
X1232Y4526D02*
D03*
X1281Y4477D02*
D03*
Y4374D02*
D03*
Y4428D02*
D03*
Y4526D02*
D03*
X1297Y4574D02*
D03*
X1351Y4522D02*
D03*
X1589Y500D02*
D03*
X1778Y577D02*
D03*
X1495Y815D02*
D03*
X1777Y635D02*
D03*
Y686D02*
D03*
X1775Y743D02*
D03*
X1799Y243D02*
D03*
X1899Y158D02*
D03*
X1852Y200D02*
D03*
X1779Y296D02*
D03*
X1854D02*
D03*
X1849Y352D02*
D03*
X1947Y115D02*
D03*
X2101Y98D02*
D03*
X2019Y100D02*
D03*
X1950Y207D02*
D03*
X1900Y252D02*
D03*
X2059Y164D02*
D03*
X1991Y166D02*
D03*
X1780Y356D02*
D03*
X1782Y409D02*
D03*
X1781Y463D02*
D03*
X1780Y524D02*
D03*
X1847Y739D02*
D03*
X1780Y798D02*
D03*
X1850Y521D02*
D03*
X1851Y408D02*
D03*
X1858Y460D02*
D03*
X1850Y634D02*
D03*
X1847Y683D02*
D03*
X1853Y577D02*
D03*
X1854Y799D02*
D03*
X1402Y1112D02*
D03*
X1445Y921D02*
D03*
X1555Y1474D02*
D03*
X1559Y1415D02*
D03*
X1632Y1528D02*
D03*
X1558Y1529D02*
D03*
Y1584D02*
D03*
X1632Y1641D02*
D03*
X1555Y1699D02*
D03*
X1558Y1642D02*
D03*
X1774Y1021D02*
D03*
X1781Y913D02*
D03*
X1775Y970D02*
D03*
X1671Y1132D02*
D03*
X1738Y1058D02*
D03*
X1707Y1095D02*
D03*
X1781Y860D02*
D03*
X1848Y859D02*
D03*
X1844Y911D02*
D03*
X1825Y1072D02*
D03*
X1794Y1104D02*
D03*
X1847Y965D02*
D03*
Y1017D02*
D03*
X1636Y1165D02*
D03*
X1696Y1198D02*
D03*
X1643Y1415D02*
D03*
X1632Y1583D02*
D03*
X1633Y1473D02*
D03*
X1635Y1698D02*
D03*
X1758Y1136D02*
D03*
X1725Y1170D02*
D03*
X2106Y488D02*
D03*
X2140Y165D02*
D03*
X2174Y388D02*
D03*
X2128Y905D02*
D03*
X2180Y96D02*
D03*
X2233Y500D02*
D03*
X2309Y915D02*
D03*
X2329Y1110D02*
D03*
X2149Y1128D02*
D03*
X2290Y1346D02*
D03*
X1626Y1849D02*
D03*
X1444Y1857D02*
D03*
X2370Y1860D02*
D03*
X2155Y1867D02*
D03*
X2552Y163D02*
D03*
X2590Y93D02*
D03*
X2641Y162D02*
D03*
X2665Y514D02*
D03*
X2518Y811D02*
D03*
X2627Y721D02*
D03*
X2685Y91D02*
D03*
X2771D02*
D03*
X2733Y160D02*
D03*
X2813D02*
D03*
X2831Y391D02*
D03*
X2840Y91D02*
D03*
X2710Y721D02*
D03*
X2807Y497D02*
D03*
X2510Y921D02*
D03*
X2583Y923D02*
D03*
X2658D02*
D03*
X2727Y916D02*
D03*
X3237Y159D02*
D03*
X3265Y83D02*
D03*
X3345Y92D02*
D03*
X3322Y160D02*
D03*
X3401D02*
D03*
X3418Y93D02*
D03*
X3504Y95D02*
D03*
X3469Y162D02*
D03*
X3513Y200D02*
D03*
X3573Y254D02*
D03*
X3085Y500D02*
D03*
X3229Y485D02*
D03*
X3560Y144D02*
D03*
X3615Y198D02*
D03*
X3630Y318D02*
D03*
X3641Y373D02*
D03*
X3642Y441D02*
D03*
X3639Y566D02*
D03*
X3643Y502D02*
D03*
X3641Y633D02*
D03*
X3711Y355D02*
D03*
X3682Y265D02*
D03*
X3714Y567D02*
D03*
X3713Y637D02*
D03*
X3719Y442D02*
D03*
X3714Y507D02*
D03*
X3185Y681D02*
D03*
X3712Y702D02*
D03*
X3644Y705D02*
D03*
X3642Y761D02*
D03*
X2937Y916D02*
D03*
X2993Y820D02*
D03*
X3642Y822D02*
D03*
Y882D02*
D03*
X3586Y946D02*
D03*
X3525Y1004D02*
D03*
X3712Y759D02*
D03*
Y821D02*
D03*
X3714Y879D02*
D03*
X3679Y959D02*
D03*
X2580Y1867D02*
D03*
X2592Y1637D02*
D03*
X2879Y1091D02*
D03*
X3464Y1054D02*
D03*
X3622Y1021D02*
D03*
X3578Y1057D02*
D03*
X3419Y1101D02*
D03*
X3531Y1111D02*
D03*
X3290Y1235D02*
D03*
X3250Y1271D02*
D03*
X3220Y1306D02*
D03*
X3330Y1188D02*
D03*
X3368Y1143D02*
D03*
X3477Y1160D02*
D03*
X3358Y1290D02*
D03*
X3320Y1319D02*
D03*
X3431Y1206D02*
D03*
X3395Y1251D02*
D03*
X3171Y1329D02*
D03*
X3274Y1357D02*
D03*
X3236Y1392D02*
D03*
X3178Y1396D02*
D03*
X3086Y1397D02*
D03*
X3130Y1398D02*
D03*
X2807Y4380D02*
D03*
X2753Y4483D02*
D03*
Y4380D02*
D03*
Y4434D02*
D03*
X2485Y4500D02*
D03*
X2860Y4302D02*
D03*
X2856Y4380D02*
D03*
X2905D02*
D03*
Y4434D02*
D03*
Y4483D02*
D03*
X3157Y2327D02*
D03*
X2682Y4525D02*
D03*
X2473Y4621D02*
D03*
X2753Y4532D02*
D03*
X2856D02*
D03*
X2807D02*
D03*
X2720Y4590D02*
D03*
X2414Y4699D02*
D03*
X2598Y4714D02*
D03*
X2769Y4879D02*
D03*
X2736Y4948D02*
D03*
X2884Y4879D02*
D03*
X2752Y5090D02*
D03*
X2905Y4532D02*
D03*
X2921Y4580D02*
D03*
X2975Y4528D02*
D03*
X3055Y4714D02*
D03*
X3176Y4650D02*
D03*
X3274Y4695D02*
D03*
X2924Y4955D02*
D03*
X3135Y4967D02*
D03*
X2090Y2728D02*
D03*
X2883Y1326D02*
D03*
X642Y3489D02*
D03*
X766Y3464D02*
D03*
X640Y3448D02*
D03*
X766Y3426D02*
D03*
X642Y3411D02*
D03*
Y3367D02*
D03*
Y3091D02*
D03*
Y3053D02*
D03*
X766Y3030D02*
D03*
Y2997D02*
D03*
X642Y2977D02*
D03*
Y2935D02*
D03*
X766Y2915D02*
D03*
Y2874D02*
D03*
X642Y2856D02*
D03*
Y2817D02*
D03*
X766Y2798D02*
D03*
X642Y2775D02*
D03*
X766Y2759D02*
D03*
X642Y2736D02*
D03*
X766Y2720D02*
D03*
X642Y2696D02*
D03*
Y2659D02*
D03*
X766Y2639D02*
D03*
X642Y2614D02*
D03*
X766Y2598D02*
D03*
X642Y2582D02*
D03*
X766Y2560D02*
D03*
X642Y2540D02*
D03*
X766Y2522D02*
D03*
X642Y2498D02*
D03*
Y2459D02*
D03*
X766Y2443D02*
D03*
X642Y2425D02*
D03*
X766Y2406D02*
D03*
X642Y2384D02*
D03*
X766Y2366D02*
D03*
X642Y2345D02*
D03*
X766Y2325D02*
D03*
X642Y2304D02*
D03*
Y2266D02*
D03*
X766Y2248D02*
D03*
X642Y2225D02*
D03*
X766Y2207D02*
D03*
X642Y2187D02*
D03*
X766Y2166D02*
D03*
X642Y2150D02*
D03*
X766Y2126D02*
D03*
X642Y2105D02*
D03*
Y2069D02*
D03*
X766Y2049D02*
D03*
Y2007D02*
D03*
X642Y1987D02*
D03*
X766Y1967D02*
D03*
X642Y1950D02*
D03*
X766Y1930D02*
D03*
X642Y1911D02*
D03*
X766Y1892D02*
D03*
X479Y3486D02*
D03*
X594Y3466D02*
D03*
X480Y3446D02*
D03*
X594Y3427D02*
D03*
Y3387D02*
D03*
Y3072D02*
D03*
X480Y3053D02*
D03*
Y3014D02*
D03*
X594Y2993D02*
D03*
Y2954D02*
D03*
X480Y2935D02*
D03*
Y2897D02*
D03*
X594Y2876D02*
D03*
X595Y2837D02*
D03*
X480Y2817D02*
D03*
Y2777D02*
D03*
X594Y2757D02*
D03*
X480Y2739D02*
D03*
X594Y2718D02*
D03*
X480Y2698D02*
D03*
X594Y2678D02*
D03*
X480Y2659D02*
D03*
X594Y2639D02*
D03*
X480Y2621D02*
D03*
Y2581D02*
D03*
X594Y2561D02*
D03*
X480Y2543D02*
D03*
X594Y2521D02*
D03*
X480Y2502D02*
D03*
X594Y2482D02*
D03*
X480Y2463D02*
D03*
X594Y2439D02*
D03*
X480Y2421D02*
D03*
Y2382D02*
D03*
X594Y2362D02*
D03*
X480Y2344D02*
D03*
X594Y2324D02*
D03*
X480Y2304D02*
D03*
X594Y2285D02*
D03*
X480Y2263D02*
D03*
X594Y2248D02*
D03*
X480Y2225D02*
D03*
X481Y2187D02*
D03*
X594Y2166D02*
D03*
X480Y2146D02*
D03*
X594Y2128D02*
D03*
X480Y2110D02*
D03*
X594Y2088D02*
D03*
X480Y2069D02*
D03*
Y2031D02*
D03*
X594Y2009D02*
D03*
Y1968D02*
D03*
X481Y1950D02*
D03*
X594Y1930D02*
D03*
X480Y1911D02*
D03*
X594Y1893D02*
D03*
X480Y1870D02*
D03*
X1519Y4759D02*
D03*
X892Y4751D02*
D03*
X2110Y4311D02*
D03*
X2524Y4753D02*
D03*
X1898Y1863D02*
D03*
D64*
X1316Y1579D02*
Y1787D01*
X1318Y1789D01*
X1419D01*
X527Y996D02*
Y3848D01*
Y4590D02*
Y5409D01*
X248D02*
X527D01*
X248Y996D02*
Y5409D01*
X247Y-1D02*
Y996D01*
X3520Y2266D02*
Y2583D01*
Y2781D02*
Y2949D01*
X3128Y2781D02*
X3520D01*
X3053Y2580D02*
X3520D01*
X1485D02*
X2899D01*
X1485D02*
Y2781D01*
X1013Y3278D02*
X2831D01*
Y3678D01*
X922D02*
X2831D01*
X922Y3278D02*
Y3678D01*
Y3278D02*
X1013D01*
X1771Y1579D02*
X2730D01*
X1419Y1582D02*
X1720D01*
X1062Y1579D02*
X1316D01*
X1419Y1582D02*
Y1789D01*
X1720Y1580D02*
Y1833D01*
X1771Y1579D02*
Y1833D01*
X1721D02*
X1771D01*
X4129Y4338D02*
X4418D01*
X4129Y4164D02*
Y4338D01*
X3810Y4164D02*
X4129D01*
X3810Y2949D02*
Y4164D01*
X3520Y2949D02*
X3810D01*
X3520Y2266D02*
X3602D01*
X4418Y473D02*
Y1525D01*
Y3882D02*
Y4971D01*
X4103Y1525D02*
X4418D01*
X4103D02*
Y2266D01*
X4418Y4966D02*
X4429Y4977D01*
X3875Y1453D02*
X4134Y1194D01*
X4101Y3882D02*
X4418D01*
X4101Y2266D02*
Y3882D01*
X3128Y3659D02*
X3225D01*
X3128Y2781D02*
Y3659D01*
X2924Y2781D02*
X3128D01*
X373Y3848D02*
X2924D01*
X373D02*
Y4362D01*
X3392Y4367D02*
X3415D01*
X3392Y3659D02*
Y4367D01*
X3225Y3659D02*
X3392D01*
X3225D02*
Y4376D01*
X3056D02*
X3222D01*
X3056Y4358D02*
Y4376D01*
X2662Y4358D02*
X3056D01*
X2662Y4176D02*
Y4358D01*
X1699Y4176D02*
X2662D01*
X1699D02*
Y4398D01*
X1012D02*
X1699D01*
X881Y4590D02*
Y4731D01*
X508Y4409D02*
X846D01*
Y4500D01*
X881D01*
X376Y4590D02*
X881D01*
X376Y4362D02*
Y4590D01*
Y4362D02*
X508D01*
Y4409D01*
X2010Y4500D02*
X2454D01*
X881D02*
X1855D01*
X2010Y4371D02*
Y4500D01*
X1855Y4371D02*
X2010D01*
X1855D02*
Y4500D01*
X1012Y4398D02*
Y4500D01*
X3415Y4367D02*
X3622D01*
X3415D02*
Y4505D01*
X2655D02*
X3415D01*
X2655Y4481D02*
Y4505D01*
X2454Y4481D02*
X2655D01*
X2454D02*
Y4500D01*
X3622Y4169D02*
X3710D01*
X3622D02*
Y4619D01*
X3030D02*
X3622D01*
X3030Y4557D02*
Y4619D01*
X2628Y4557D02*
X3030D01*
X2628D02*
Y4685D01*
X2442D02*
X2628D01*
X2442Y4613D02*
Y4685D01*
X1425Y4613D02*
X2442D01*
X1425Y4560D02*
Y4613D01*
X1004Y4560D02*
X1425D01*
X1004D02*
Y4732D01*
X3710Y4169D02*
Y4733D01*
X4024Y4973D02*
Y5162D01*
X4127D01*
Y5309D01*
X4104D02*
X4127D01*
X882Y4896D02*
Y5120D01*
X3924D01*
Y5309D01*
X4104D01*
X3873Y4846D02*
Y4973D01*
X4024D01*
Y4741D02*
Y4973D01*
X2970Y4741D02*
X4024D01*
X2970Y4731D02*
Y4741D01*
X1523Y4731D02*
X2970D01*
X882D02*
X1523D01*
X882D02*
Y4896D01*
X974D01*
Y4840D02*
Y4896D01*
Y4840D02*
X1418D01*
Y4882D01*
X1420D02*
X1487D01*
Y4822D02*
Y4882D01*
Y4822D02*
X1499D01*
X2525D01*
Y4895D01*
X3130D01*
Y4846D02*
Y4895D01*
Y4846D02*
X3873D01*
X2730Y1579D02*
Y1891D01*
X2899D01*
Y2580D01*
X3053D01*
Y1784D02*
Y2580D01*
X1061Y1449D02*
X2927D01*
X1061D02*
Y1579D01*
X3602Y2081D02*
Y2266D01*
Y2081D02*
X3875D01*
Y1453D02*
Y2081D01*
X3531Y1145D02*
Y1581D01*
X3353D02*
X3531D01*
X3353D02*
Y1784D01*
X699Y1097D02*
Y1228D01*
X983D01*
Y1209D02*
Y1228D01*
Y1209D02*
X1271D01*
Y1235D01*
X2472D01*
Y1218D02*
Y1235D01*
Y1218D02*
X2757D01*
Y1230D01*
X2927D01*
Y1784D01*
X3352D01*
X778Y996D02*
X1890D01*
X527D02*
X656D01*
X778D02*
Y1098D01*
X656D02*
X778D01*
X656Y996D02*
Y1098D01*
X1890Y996D02*
Y1078D01*
X3496D01*
Y1145D01*
X3760D01*
X3777Y595D02*
Y1145D01*
X676Y192D02*
X1829D01*
X490Y3D02*
Y192D01*
X680Y351D02*
X973D01*
X680Y188D02*
Y351D01*
X3782Y1D02*
Y228D01*
X3788D01*
Y406D01*
X1829Y228D02*
X3788D01*
X1829Y192D02*
Y228D01*
X490Y192D02*
Y658D01*
X1878D01*
Y648D02*
Y658D01*
Y648D02*
X3338D01*
Y597D02*
Y648D01*
Y597D02*
X3509D01*
X942Y382D02*
Y479D01*
Y382D02*
X973Y351D01*
X942Y479D02*
X1099D01*
X1101Y477D01*
X1271D01*
X1315Y521D01*
X1626D01*
X1711Y436D01*
X1879D01*
X1901Y458D01*
X2238D01*
X2269Y489D01*
X959Y365D02*
X3226D01*
X3267Y406D01*
X3789D01*
Y597D01*
X3509D02*
X3789D01*
X3509Y501D02*
Y597D01*
X3457Y501D02*
X3509D01*
X3116D02*
X3457D01*
X3116Y489D02*
Y501D01*
X2518Y489D02*
X3116D01*
X2269D02*
X2518D01*
X4134Y1051D02*
Y1194D01*
Y1051D02*
X4208D01*
Y593D02*
Y1051D01*
X4429Y4977D02*
X4572D01*
X4300Y144D02*
X4746D01*
X4188Y256D02*
X4300Y144D01*
X4573Y5320D02*
X4750D01*
X4279Y378D02*
X4573D01*
X4136Y521D02*
X4279Y378D01*
X4136Y521D02*
Y586D01*
X4142Y592D01*
X4202D01*
X4210Y584D01*
Y548D02*
Y584D01*
Y548D02*
X4285Y473D01*
X4294D01*
X4418D01*
X4125Y256D02*
X4188D01*
X4125D02*
Y371D01*
X4204D01*
X4298Y277D01*
X1110Y2781D02*
X2924D01*
X1110Y1978D02*
Y2781D01*
X1045Y1978D02*
X1110D01*
X1045D02*
Y2897D01*
X2924D01*
X2924D02*
Y3848D01*
Y3002D02*
Y3848D01*
X4405Y277D02*
Y377D01*
X4573Y378D02*
Y5320D01*
X4298Y277D02*
X4405D01*
D65*
X0Y5500D02*
X4750D01*
Y0D02*
Y5500D01*
X0Y0D02*
X4750D01*
X0D02*
Y5500D01*
D74*
X711Y5291D02*
D03*
Y5191D02*
D03*
Y5091D02*
D03*
Y4991D02*
D03*
X2147Y5379D02*
D03*
Y5279D02*
D03*
Y5179D02*
D03*
Y5079D02*
D03*
X2447Y5379D02*
D03*
Y5279D02*
D03*
Y5179D02*
D03*
Y5079D02*
D03*
X3273Y596D02*
D03*
X3573Y896D02*
D03*
Y796D02*
D03*
Y696D02*
D03*
Y596D02*
D03*
X629Y404D02*
D03*
Y304D02*
D03*
Y204D02*
D03*
Y104D02*
D03*
X208Y4238D02*
D03*
X308D02*
D03*
X208Y4338D02*
D03*
X308D02*
D03*
X208Y4438D02*
D03*
X308D02*
D03*
X208Y4538D02*
D03*
X308D02*
D03*
X208Y4638D02*
D03*
X308D02*
D03*
X208Y4738D02*
D03*
X308D02*
D03*
X181Y651D02*
D03*
X281D02*
D03*
X181Y751D02*
D03*
X281D02*
D03*
X181Y851D02*
D03*
X281D02*
D03*
X181Y951D02*
D03*
X281D02*
D03*
X181Y1051D02*
D03*
X281D02*
D03*
X181Y1151D02*
D03*
X281D02*
D03*
X181Y1251D02*
D03*
X281D02*
D03*
D75*
X1465Y284D02*
D03*
X812Y281D02*
D03*
X2959Y278D02*
D03*
X2309Y290D02*
D03*
X2460Y295D02*
D03*
X3110Y283D02*
D03*
X963Y286D02*
D03*
X1616Y289D02*
D03*
X1977Y5328D02*
D03*
X1794Y5329D02*
D03*
X1226Y5312D02*
D03*
X1038D02*
D03*
X2663Y5321D02*
D03*
X2851D02*
D03*
X3419Y5338D02*
D03*
X3602Y5337D02*
D03*
D76*
X4351Y325D02*
D03*
D77*
X150Y5350D02*
D03*
X4600Y150D02*
D03*
X3800Y5350D02*
D03*
X150Y150D02*
D03*
D78*
X620Y3563D02*
D03*
X940Y1862D02*
D03*
X915Y3513D02*
D03*
X620Y3563D02*
D03*
X915Y3513D02*
D03*
D79*
X620Y1815D02*
D03*
X2688Y1862D02*
D03*
X2663Y3513D02*
D03*
X620Y1815D02*
D03*
X2663Y3513D02*
D03*
D80*
X893Y3220D02*
D03*
X986Y2236D02*
D03*
X3211Y3220D02*
D03*
X2739Y2157D02*
D03*
D81*
X4468Y1889D02*
D03*
Y2389D02*
D03*
X4469Y2665D02*
D03*
Y3165D02*
D03*
D82*
X1314Y1342D02*
D03*
X1330Y1317D02*
D03*
X1661Y3366D02*
D03*
X1641Y3493D02*
D03*
X1602Y3490D02*
D03*
X1580Y3367D02*
D03*
X1549Y2018D02*
D03*
X1578Y2041D02*
D03*
X2350Y3686D02*
D03*
X2777Y4192D02*
D03*
X2354Y3351D02*
D03*
X2781Y4221D02*
D03*
X2330Y3314D02*
D03*
X1706Y1880D02*
D03*
X1315Y2042D02*
D03*
X1288Y2030D02*
D03*
X1352Y2067D02*
D03*
X1931Y2149D02*
D03*
X1435Y4518D02*
D03*
X1661Y4537D02*
D03*
X3110Y4075D02*
D03*
X3057Y4521D02*
D03*
X1459Y4534D02*
D03*
X1924Y2109D02*
D03*
X1613Y4555D02*
D03*
X3085Y4539D02*
D03*
X1712Y4515D02*
D03*
X1902Y2000D02*
D03*
X1435Y4554D02*
D03*
X3091Y4053D02*
D03*
X3061Y4561D02*
D03*
X1663Y1725D02*
D03*
X993Y3367D02*
D03*
X1011Y3491D02*
D03*
X1326D02*
D03*
X1366D02*
D03*
X1248D02*
D03*
X1287D02*
D03*
X1182Y3488D02*
D03*
X1208Y3491D02*
D03*
X1090D02*
D03*
X1116Y3495D02*
D03*
X1346Y3537D02*
D03*
X1386D02*
D03*
X1267D02*
D03*
X1307D02*
D03*
X1203D02*
D03*
X1228D02*
D03*
X1099Y3535D02*
D03*
X1182Y3517D02*
D03*
X1051Y3661D02*
D03*
X1071Y3537D02*
D03*
X992D02*
D03*
X1011Y3661D02*
D03*
X2158Y1718D02*
D03*
X2177Y1838D02*
D03*
X2139D02*
D03*
X2198Y1718D02*
D03*
X1523Y3491D02*
D03*
X1544Y3367D02*
D03*
X1465D02*
D03*
X1484Y3491D02*
D03*
X1405D02*
D03*
X1426Y3367D02*
D03*
X1602Y3661D02*
D03*
X1622Y3537D02*
D03*
X1543D02*
D03*
X1563Y3661D02*
D03*
X1484D02*
D03*
X1504Y3537D02*
D03*
X1425D02*
D03*
X1445Y3661D02*
D03*
X1032Y3367D02*
D03*
X1051Y3491D02*
D03*
X2100Y1838D02*
D03*
X2079Y1718D02*
D03*
X2118D02*
D03*
X2416Y2005D02*
D03*
X3861Y3037D02*
D03*
X2395Y2025D02*
D03*
X3862Y3088D02*
D03*
X2476Y2001D02*
D03*
X3859Y2936D02*
D03*
X2453Y2015D02*
D03*
X3852Y2994D02*
D03*
X2533Y2005D02*
D03*
X3855Y2838D02*
D03*
X2511Y2022D02*
D03*
X3855Y2897D02*
D03*
X2591Y2001D02*
D03*
X3850Y2737D02*
D03*
X2575Y2024D02*
D03*
X3858Y2791D02*
D03*
X2433Y1707D02*
D03*
X3835Y1963D02*
D03*
X2415Y1725D02*
D03*
X3841Y2013D02*
D03*
X2493Y1703D02*
D03*
X3836Y2053D02*
D03*
X2471Y1727D02*
D03*
X3838Y2117D02*
D03*
X2555Y1706D02*
D03*
X3836Y2170D02*
D03*
X2529Y1723D02*
D03*
X3831Y2211D02*
D03*
X2617Y1705D02*
D03*
X3794Y2285D02*
D03*
X2588Y1725D02*
D03*
X3843Y2310D02*
D03*
X2074Y3661D02*
D03*
X807Y4009D02*
D03*
X2193Y3965D02*
D03*
X2073Y3536D02*
D03*
X789Y4027D02*
D03*
X2224Y3942D02*
D03*
X1859Y3367D02*
D03*
X1155Y4216D02*
D03*
X1878Y3491D02*
D03*
X1180Y4202D02*
D03*
X1836Y3711D02*
D03*
X1878Y3536D02*
D03*
X953Y4457D02*
D03*
X1656Y2008D02*
D03*
X974Y4438D02*
D03*
X1699Y2033D02*
D03*
X949Y4421D02*
D03*
X1723Y2054D02*
D03*
X975Y4399D02*
D03*
X1755Y2070D02*
D03*
X955Y4380D02*
D03*
X1701Y3367D02*
D03*
X975Y4357D02*
D03*
X1720Y3491D02*
D03*
X1661Y3537D02*
D03*
X1681Y3661D02*
D03*
X961Y4309D02*
D03*
X1759Y3491D02*
D03*
X935Y4295D02*
D03*
X1780Y3367D02*
D03*
X1720Y3661D02*
D03*
X1755Y3536D02*
D03*
X1820Y3367D02*
D03*
X1079Y4216D02*
D03*
X1838Y3491D02*
D03*
X1101Y4202D02*
D03*
X1779Y3537D02*
D03*
X1799Y3661D02*
D03*
X1299Y4194D02*
D03*
X1917Y3491D02*
D03*
X1299Y4218D02*
D03*
X1938Y3367D02*
D03*
X1878Y3661D02*
D03*
X1911Y3536D02*
D03*
X1956Y3491D02*
D03*
X1351Y4218D02*
D03*
X1977Y3367D02*
D03*
X1379Y4205D02*
D03*
X1937Y3537D02*
D03*
X1956Y3661D02*
D03*
X1456Y4319D02*
D03*
X2016Y3367D02*
D03*
X1435Y4338D02*
D03*
X2035Y3491D02*
D03*
X1962Y3536D02*
D03*
X1996Y3696D02*
D03*
X2056Y3367D02*
D03*
X1456Y4421D02*
D03*
X2074Y3491D02*
D03*
X1432Y4420D02*
D03*
X2035Y3661D02*
D03*
X2042Y3536D02*
D03*
X1962Y2002D02*
D03*
X3061Y4600D02*
D03*
X2370Y3537D02*
D03*
X2174Y3367D02*
D03*
X2587Y4386D02*
D03*
X2193Y3491D02*
D03*
X2547Y4367D02*
D03*
X2159Y3536D02*
D03*
X2193Y3661D02*
D03*
X2232Y3491D02*
D03*
X2590Y4306D02*
D03*
X2253Y3367D02*
D03*
X2574Y4287D02*
D03*
X2232Y3661D02*
D03*
X2252Y3537D02*
D03*
X2271Y3491D02*
D03*
X2702Y4215D02*
D03*
X2292Y3367D02*
D03*
X2724Y4194D02*
D03*
X2279Y3540D02*
D03*
X2311Y3661D02*
D03*
X2389Y3491D02*
D03*
X2895Y4218D02*
D03*
X2410Y3367D02*
D03*
X2919Y4198D02*
D03*
X2406Y3538D02*
D03*
X2429Y3661D02*
D03*
X2450Y3367D02*
D03*
X2979Y4200D02*
D03*
X2468Y3491D02*
D03*
X3003Y4220D02*
D03*
X2468Y3661D02*
D03*
X2496Y3538D02*
D03*
X2508Y3491D02*
D03*
X3065Y4325D02*
D03*
X2528Y3367D02*
D03*
X3089Y4349D02*
D03*
X2527Y3536D02*
D03*
X2547Y3661D02*
D03*
X2568Y3367D02*
D03*
X3071Y4401D02*
D03*
X2586Y3491D02*
D03*
X3066Y4426D02*
D03*
X2581Y3536D02*
D03*
X2592Y3660D02*
D03*
X1939Y2018D02*
D03*
X3086Y4582D02*
D03*
X1160Y3987D02*
D03*
X1442Y4591D02*
D03*
X1871Y2063D02*
D03*
X1125Y3986D02*
D03*
X1847Y2024D02*
D03*
X1457Y4572D02*
D03*
X1072Y3367D02*
D03*
X1229D02*
D03*
X972Y3491D02*
D03*
X1268Y3367D02*
D03*
X1308D02*
D03*
X1347D02*
D03*
X1387D02*
D03*
X972Y3661D02*
D03*
X1090D02*
D03*
X1208D02*
D03*
X1248D02*
D03*
X1287D02*
D03*
X1326D02*
D03*
X1366D02*
D03*
X1445Y3491D02*
D03*
X1563D02*
D03*
X1681D02*
D03*
X1799D02*
D03*
X1996D02*
D03*
X2153D02*
D03*
X2311D02*
D03*
X2369Y3511D02*
D03*
X1405Y3661D02*
D03*
X1523D02*
D03*
X1627Y3662D02*
D03*
X1759Y3661D02*
D03*
X1917D02*
D03*
X2111Y3705D02*
D03*
X2273Y3716D02*
D03*
X2429Y3491D02*
D03*
X2547D02*
D03*
X1415Y1372D02*
D03*
X2114Y3491D02*
D03*
X2574Y4464D02*
D03*
X2135Y3367D02*
D03*
X2593Y4443D02*
D03*
X2134Y3537D02*
D03*
X2153Y3661D02*
D03*
X633Y3340D02*
D03*
X624Y3315D02*
D03*
X630Y3272D02*
D03*
X628Y3184D02*
D03*
X631Y3147D02*
D03*
X638Y3119D02*
D03*
X604Y3357D02*
D03*
X601Y3331D02*
D03*
X609Y3287D02*
D03*
X608Y3260D02*
D03*
X612Y3162D02*
D03*
X608Y3124D02*
D03*
X613Y3094D02*
D03*
X1386Y2049D02*
D03*
X1366Y2027D02*
D03*
X1451Y2041D02*
D03*
X1428Y2021D02*
D03*
X1516Y2040D02*
D03*
X1487Y2023D02*
D03*
X848Y2972D02*
D03*
X824Y3002D02*
D03*
X1505Y3367D02*
D03*
X2213D02*
D03*
X1031Y3537D02*
D03*
X1464D02*
D03*
X1991Y3535D02*
D03*
X2345Y3537D02*
D03*
X2606Y3537D02*
D03*
X1528Y1836D02*
D03*
X1561Y1846D02*
D03*
D83*
X1135Y4988D02*
D03*
X1122Y5022D02*
D03*
X1351Y4990D02*
D03*
X1423Y5006D02*
D03*
X2761Y4997D02*
D03*
X2751Y5033D02*
D03*
X2974Y5015D02*
D03*
X3013Y5034D02*
D03*
X1345Y4816D02*
D03*
X1554Y4801D02*
D03*
X1389Y4772D02*
D03*
X609Y4303D02*
D03*
X819Y4302D02*
D03*
X1028Y1237D02*
D03*
X1028Y1277D02*
D03*
X1078Y1237D02*
D03*
X1078Y1277D02*
D03*
X1128Y1237D02*
D03*
X1128Y1277D02*
D03*
X1178D02*
D03*
X1178Y1237D02*
D03*
X1228D02*
D03*
X1228Y1277D02*
D03*
X1028Y1329D02*
D03*
X1028Y1381D02*
D03*
X1028Y1421D02*
D03*
X1078Y1329D02*
D03*
X1078Y1381D02*
D03*
X1128D02*
D03*
X1078Y1421D02*
D03*
X1128D02*
D03*
X1178Y1329D02*
D03*
X1178Y1381D02*
D03*
X1178Y1421D02*
D03*
X1228Y1329D02*
D03*
X1228Y1381D02*
D03*
X1228Y1421D02*
D03*
X425Y4261D02*
D03*
X784Y4692D02*
D03*
X826Y4510D02*
D03*
X836Y4614D02*
D03*
X1058Y4519D02*
D03*
X960Y4689D02*
D03*
X1108Y4946D02*
D03*
X1161Y4863D02*
D03*
X1137Y5068D02*
D03*
X1239Y4872D02*
D03*
X1317Y4954D02*
D03*
X2621Y961D02*
D03*
X3807Y90D02*
D03*
X3823Y762D02*
D03*
X3805Y905D02*
D03*
X2522Y1242D02*
D03*
X2522Y1282D02*
D03*
X2522Y1334D02*
D03*
X2572Y1242D02*
D03*
X2622D02*
D03*
X2572Y1282D02*
D03*
X2572Y1334D02*
D03*
X2622Y1282D02*
D03*
X2572Y1386D02*
D03*
X2522D02*
D03*
X2572Y1426D02*
D03*
X2522D02*
D03*
X2622Y1386D02*
D03*
X2622Y1426D02*
D03*
X2672Y1242D02*
D03*
X2672Y1282D02*
D03*
X2722Y1242D02*
D03*
X2722Y1282D02*
D03*
X2672Y1334D02*
D03*
X2722D02*
D03*
X2672Y1386D02*
D03*
X2722D02*
D03*
X2722Y1426D02*
D03*
X2672D02*
D03*
X3867Y1587D02*
D03*
X4240Y1330D02*
D03*
X3589Y1632D02*
D03*
X3938Y1792D02*
D03*
X4204Y1748D02*
D03*
X1443Y4717D02*
D03*
X1517Y4966D02*
D03*
X1570Y4644D02*
D03*
X1651Y4688D02*
D03*
X1937Y4215D02*
D03*
Y4277D02*
D03*
Y4341D02*
D03*
X3014Y2120D02*
D03*
X2799Y2507D02*
D03*
X3088Y2444D02*
D03*
X3138Y2927D02*
D03*
X3250Y2530D02*
D03*
X3361Y1995D02*
D03*
X3448Y2436D02*
D03*
X3637Y2453D02*
D03*
X3506Y2992D02*
D03*
X3304Y4335D02*
D03*
X3742Y4034D02*
D03*
X4242Y4084D02*
D03*
X3811Y4317D02*
D03*
X3863Y4522D02*
D03*
X4161Y4464D02*
D03*
X4030Y4685D02*
D03*
X4143Y5066D02*
D03*
X4062Y1443D02*
D03*
X4021Y1442D02*
D03*
X3982D02*
D03*
X3940D02*
D03*
X3899Y1443D02*
D03*
X3860D02*
D03*
X3817Y1444D02*
D03*
X4059Y1393D02*
D03*
X4018Y1392D02*
D03*
X3979D02*
D03*
X3937D02*
D03*
X3896Y1393D02*
D03*
X3857D02*
D03*
X3814Y1394D02*
D03*
X3932Y1493D02*
D03*
X3989Y1490D02*
D03*
X4058Y1342D02*
D03*
X4017Y1341D02*
D03*
X3978D02*
D03*
X3936D02*
D03*
X3895Y1342D02*
D03*
X3856D02*
D03*
X3813Y1343D02*
D03*
X3407Y2164D02*
D03*
Y2114D02*
D03*
X3157Y2164D02*
D03*
Y2114D02*
D03*
X3357D02*
D03*
X3307D02*
D03*
X3257D02*
D03*
X3207D02*
D03*
X3357Y2164D02*
D03*
X3307D02*
D03*
X3257D02*
D03*
X3207D02*
D03*
X3239Y2220D02*
D03*
X3289D02*
D03*
X3339D02*
D03*
X2966Y4829D02*
D03*
X3176Y4806D02*
D03*
X3006Y4785D02*
D03*
X2333Y4314D02*
D03*
X3137Y4764D02*
D03*
D84*
X3050Y2644D02*
D03*
X3555Y2635D02*
D03*
X3203Y3130D02*
D03*
D85*
X1128Y1329D02*
D03*
X2622Y1334D02*
D03*
X1205Y4450D02*
D03*
X2829Y4456D02*
D03*
M02*
