G04 Layer_Color=255*
%FSLAX23Y23*%
%MOIN*%
G70*
G01*
G75*
%ADD15R,0.040X0.030*%
%ADD16R,0.017X0.035*%
G04:AMPARAMS|DCode=17|XSize=43mil|YSize=12mil|CornerRadius=3mil|HoleSize=0mil|Usage=FLASHONLY|Rotation=90.000|XOffset=0mil|YOffset=0mil|HoleType=Round|Shape=RoundedRectangle|*
%AMROUNDEDRECTD17*
21,1,0.043,0.006,0,0,90.0*
21,1,0.037,0.012,0,0,90.0*
1,1,0.006,0.003,0.019*
1,1,0.006,0.003,-0.019*
1,1,0.006,-0.003,-0.019*
1,1,0.006,-0.003,0.019*
%
%ADD17ROUNDEDRECTD17*%
%ADD18R,0.185X0.185*%
%ADD19R,0.010X0.020*%
%ADD20R,0.020X0.010*%
%ADD21R,0.011X0.031*%
%ADD22R,0.031X0.011*%
%ADD23R,0.030X0.040*%
G04:AMPARAMS|DCode=24|XSize=40mil|YSize=30mil|CornerRadius=0mil|HoleSize=0mil|Usage=FLASHONLY|Rotation=45.000|XOffset=0mil|YOffset=0mil|HoleType=Round|Shape=Rectangle|*
%AMROTATEDRECTD24*
4,1,4,-0.004,-0.025,-0.025,-0.004,0.004,0.025,0.025,0.004,-0.004,-0.025,0.0*
%
%ADD24ROTATEDRECTD24*%

G04:AMPARAMS|DCode=25|XSize=40mil|YSize=30mil|CornerRadius=0mil|HoleSize=0mil|Usage=FLASHONLY|Rotation=135.000|XOffset=0mil|YOffset=0mil|HoleType=Round|Shape=Rectangle|*
%AMROTATEDRECTD25*
4,1,4,0.025,-0.004,0.004,-0.025,-0.025,0.004,-0.004,0.025,0.025,-0.004,0.0*
%
%ADD25ROTATEDRECTD25*%

G04:AMPARAMS|DCode=26|XSize=47mil|YSize=12mil|CornerRadius=0mil|HoleSize=0mil|Usage=FLASHONLY|Rotation=225.000|XOffset=0mil|YOffset=0mil|HoleType=Round|Shape=Round|*
%AMOVALD26*
21,1,0.035,0.012,0.000,0.000,225.0*
1,1,0.012,0.013,0.013*
1,1,0.012,-0.013,-0.013*
%
%ADD26OVALD26*%

G04:AMPARAMS|DCode=27|XSize=47mil|YSize=12mil|CornerRadius=0mil|HoleSize=0mil|Usage=FLASHONLY|Rotation=225.000|XOffset=0mil|YOffset=0mil|HoleType=Round|Shape=Rectangle|*
%AMROTATEDRECTD27*
4,1,4,0.013,0.021,0.021,0.013,-0.013,-0.021,-0.021,-0.013,0.013,0.021,0.0*
%
%ADD27ROTATEDRECTD27*%

%ADD28R,0.060X0.060*%
%ADD29P,0.085X4X90.0*%
G04:AMPARAMS|DCode=30|XSize=39mil|YSize=20mil|CornerRadius=0mil|HoleSize=0mil|Usage=FLASHONLY|Rotation=45.000|XOffset=0mil|YOffset=0mil|HoleType=Round|Shape=Rectangle|*
%AMROTATEDRECTD30*
4,1,4,-0.007,-0.021,-0.021,-0.007,0.007,0.021,0.021,0.007,-0.007,-0.021,0.0*
%
%ADD30ROTATEDRECTD30*%

%ADD31R,0.043X0.012*%
G04:AMPARAMS|DCode=32|XSize=43mil|YSize=12mil|CornerRadius=3mil|HoleSize=0mil|Usage=FLASHONLY|Rotation=0.000|XOffset=0mil|YOffset=0mil|HoleType=Round|Shape=RoundedRectangle|*
%AMROUNDEDRECTD32*
21,1,0.043,0.006,0,0,0.0*
21,1,0.037,0.012,0,0,0.0*
1,1,0.006,0.019,-0.003*
1,1,0.006,-0.019,-0.003*
1,1,0.006,-0.019,0.003*
1,1,0.006,0.019,0.003*
%
%ADD32ROUNDEDRECTD32*%
%ADD33R,0.122X0.063*%
%ADD34R,0.012X0.043*%
%ADD35R,0.063X0.122*%
%ADD36R,0.130X0.245*%
%ADD37R,0.100X0.022*%
%ADD40C,0.008*%
%ADD48R,0.059X0.059*%
%ADD49C,0.059*%
%ADD50R,0.059X0.059*%
%ADD51P,0.108X8X22.5*%
%ADD52C,0.058*%
%ADD53R,0.058X0.058*%
G04:AMPARAMS|DCode=54|XSize=213mil|YSize=254mil|CornerRadius=11mil|HoleSize=0mil|Usage=FLASHONLY|Rotation=90.000|XOffset=0mil|YOffset=0mil|HoleType=Round|Shape=RoundedRectangle|*
%AMROUNDEDRECTD54*
21,1,0.213,0.233,0,0,90.0*
21,1,0.192,0.254,0,0,90.0*
1,1,0.021,0.116,0.096*
1,1,0.021,0.116,-0.096*
1,1,0.021,-0.116,-0.096*
1,1,0.021,-0.116,0.096*
%
%ADD54ROUNDEDRECTD54*%
%ADD55C,0.120*%
%ADD56C,0.060*%
%ADD57C,0.106*%
D15*
X820Y4331D02*
D03*
X755D02*
D03*
X610Y4331D02*
D03*
X675D02*
D03*
X474Y4390D02*
D03*
X539D02*
D03*
X1537Y4672D02*
D03*
X1472D02*
D03*
Y4618D02*
D03*
X1537D02*
D03*
X474Y4266D02*
D03*
X539D02*
D03*
X474Y4204D02*
D03*
X539D02*
D03*
X539Y4331D02*
D03*
X474D02*
D03*
X3096Y4624D02*
D03*
X3161D02*
D03*
X2326Y4344D02*
D03*
X2118Y4342D02*
D03*
X2047Y4340D02*
D03*
X1982D02*
D03*
Y4401D02*
D03*
X2047D02*
D03*
X3161Y4678D02*
D03*
X3096D02*
D03*
X1982Y4277D02*
D03*
X2047D02*
D03*
X1982Y4215D02*
D03*
X2047D02*
D03*
X2261Y4344D02*
D03*
X2183Y4342D02*
D03*
D16*
X2666Y1091D02*
D03*
X2635D02*
D03*
X2603D02*
D03*
X2572D02*
D03*
Y1147D02*
D03*
X2603D02*
D03*
X2635D02*
D03*
X2666D02*
D03*
X1173Y1088D02*
D03*
X1142D02*
D03*
X1110D02*
D03*
X1079D02*
D03*
Y1144D02*
D03*
X1110D02*
D03*
X1142D02*
D03*
X1173D02*
D03*
D17*
X2330Y3411D02*
D03*
X2350D02*
D03*
X1725Y1964D02*
D03*
X1745D02*
D03*
X1666D02*
D03*
X1686D02*
D03*
X2572D02*
D03*
X2592D02*
D03*
X2513D02*
D03*
X2533D02*
D03*
X2454D02*
D03*
X2473D02*
D03*
X2395D02*
D03*
X2414D02*
D03*
X2592Y1760D02*
D03*
X2611D02*
D03*
X2533D02*
D03*
X2552D02*
D03*
X2473D02*
D03*
X2493D02*
D03*
X2414D02*
D03*
X2434D02*
D03*
X1588D02*
D03*
X1607D02*
D03*
X1922D02*
D03*
X1942D02*
D03*
X1765D02*
D03*
X1784D02*
D03*
X1858Y3411D02*
D03*
X1878D02*
D03*
X1956D02*
D03*
X1976D02*
D03*
X1917D02*
D03*
X1937D02*
D03*
X2055D02*
D03*
X2074D02*
D03*
X1661Y3615D02*
D03*
X1681D02*
D03*
X1720D02*
D03*
X1740D02*
D03*
X1779D02*
D03*
X1799D02*
D03*
X1838D02*
D03*
X1858D02*
D03*
X1878D02*
D03*
X1897D02*
D03*
X1937D02*
D03*
X1956D02*
D03*
X1976D02*
D03*
X1996D02*
D03*
X2114Y3411D02*
D03*
X2133D02*
D03*
X2173Y3615D02*
D03*
X2193D02*
D03*
X2074D02*
D03*
X2094D02*
D03*
X2133D02*
D03*
X2153D02*
D03*
X2232D02*
D03*
X2252D02*
D03*
X2291D02*
D03*
X2311D02*
D03*
X2350D02*
D03*
X2370D02*
D03*
X2468D02*
D03*
X2488D02*
D03*
X1706Y1760D02*
D03*
X1725D02*
D03*
X1883D02*
D03*
X1903D02*
D03*
X1981D02*
D03*
X2001D02*
D03*
X1292D02*
D03*
X1312D02*
D03*
X1410D02*
D03*
X1430D02*
D03*
X2021D02*
D03*
X2040D02*
D03*
X997Y1964D02*
D03*
X1017Y1760D02*
D03*
Y1964D02*
D03*
X1036Y1760D02*
D03*
Y1964D02*
D03*
X1056Y1760D02*
D03*
Y1964D02*
D03*
X1076Y1760D02*
D03*
Y1964D02*
D03*
X1095Y1760D02*
D03*
Y1964D02*
D03*
X1115Y1760D02*
D03*
Y1964D02*
D03*
X1135Y1760D02*
D03*
X1155D02*
D03*
X1174D02*
D03*
Y1964D02*
D03*
X1194Y1760D02*
D03*
X1214D02*
D03*
X1233D02*
D03*
Y1964D02*
D03*
X1253Y1760D02*
D03*
Y1964D02*
D03*
X1273Y1760D02*
D03*
Y1964D02*
D03*
X1292D02*
D03*
X1332Y1760D02*
D03*
X1351D02*
D03*
Y1964D02*
D03*
X1371Y1760D02*
D03*
X1391D02*
D03*
X1410Y1964D02*
D03*
X1450Y1760D02*
D03*
X1470D02*
D03*
Y1964D02*
D03*
X1489Y1760D02*
D03*
X1509D02*
D03*
X1529Y1964D02*
D03*
X1568Y1760D02*
D03*
X1588Y1964D02*
D03*
X1627Y1760D02*
D03*
X1647D02*
D03*
Y1964D02*
D03*
X1666Y1760D02*
D03*
X1686D02*
D03*
X1706Y1964D02*
D03*
X1745Y1760D02*
D03*
X1765Y1964D02*
D03*
X1804Y1760D02*
D03*
X1824D02*
D03*
Y1964D02*
D03*
X1844Y1760D02*
D03*
Y1964D02*
D03*
X1863Y1760D02*
D03*
Y1964D02*
D03*
X1883D02*
D03*
X1903D02*
D03*
X1922D02*
D03*
X1942D02*
D03*
X1962Y1760D02*
D03*
Y1964D02*
D03*
X1981D02*
D03*
X2040D02*
D03*
X2060Y1760D02*
D03*
Y1964D02*
D03*
X2080Y1760D02*
D03*
Y1964D02*
D03*
X2099Y1760D02*
D03*
Y1964D02*
D03*
X2119Y1760D02*
D03*
Y1964D02*
D03*
X2139Y1760D02*
D03*
Y1964D02*
D03*
X2158Y1760D02*
D03*
Y1964D02*
D03*
X2178Y1760D02*
D03*
Y1964D02*
D03*
X2198Y1760D02*
D03*
Y1964D02*
D03*
X2218Y1760D02*
D03*
Y1964D02*
D03*
X2237Y1760D02*
D03*
Y1964D02*
D03*
X2257Y1760D02*
D03*
Y1964D02*
D03*
X2277Y1760D02*
D03*
Y1964D02*
D03*
X2296Y1760D02*
D03*
Y1964D02*
D03*
X2316Y1760D02*
D03*
Y1964D02*
D03*
X2336Y1760D02*
D03*
Y1964D02*
D03*
X2355Y1760D02*
D03*
Y1964D02*
D03*
X2375Y1760D02*
D03*
Y1964D02*
D03*
X2395Y1760D02*
D03*
X2434Y1964D02*
D03*
X2454Y1760D02*
D03*
X2493Y1964D02*
D03*
X2513Y1760D02*
D03*
X2552Y1964D02*
D03*
X2572Y1760D02*
D03*
X2611Y1964D02*
D03*
X2631Y1760D02*
D03*
Y1964D02*
D03*
X972Y3615D02*
D03*
X992Y3411D02*
D03*
Y3615D02*
D03*
X1011Y3411D02*
D03*
Y3615D02*
D03*
X1031Y3411D02*
D03*
Y3615D02*
D03*
X1051Y3411D02*
D03*
Y3615D02*
D03*
X1070Y3411D02*
D03*
Y3615D02*
D03*
X1090Y3411D02*
D03*
Y3615D02*
D03*
X1110Y3411D02*
D03*
Y3615D02*
D03*
X1130Y3411D02*
D03*
Y3615D02*
D03*
X1149Y3411D02*
D03*
Y3615D02*
D03*
X1169Y3411D02*
D03*
Y3615D02*
D03*
X1189Y3411D02*
D03*
Y3615D02*
D03*
X1208Y3411D02*
D03*
Y3615D02*
D03*
X1228Y3411D02*
D03*
Y3615D02*
D03*
X1248Y3411D02*
D03*
Y3615D02*
D03*
X1267Y3411D02*
D03*
Y3615D02*
D03*
X1287Y3411D02*
D03*
Y3615D02*
D03*
X1307Y3411D02*
D03*
Y3615D02*
D03*
X1326Y3411D02*
D03*
Y3615D02*
D03*
X1346Y3411D02*
D03*
Y3615D02*
D03*
X1366Y3411D02*
D03*
Y3615D02*
D03*
X1385Y3411D02*
D03*
Y3615D02*
D03*
X1405Y3411D02*
D03*
Y3615D02*
D03*
X1425Y3411D02*
D03*
Y3615D02*
D03*
X1445Y3411D02*
D03*
Y3615D02*
D03*
X1464Y3411D02*
D03*
Y3615D02*
D03*
X1484Y3411D02*
D03*
Y3615D02*
D03*
X1504Y3411D02*
D03*
Y3615D02*
D03*
X1523Y3411D02*
D03*
Y3615D02*
D03*
X1543Y3411D02*
D03*
Y3615D02*
D03*
X1563Y3411D02*
D03*
Y3615D02*
D03*
X1582Y3411D02*
D03*
Y3615D02*
D03*
X1602Y3411D02*
D03*
Y3615D02*
D03*
X1622Y3411D02*
D03*
Y3615D02*
D03*
X1641Y3411D02*
D03*
Y3615D02*
D03*
X1661Y3411D02*
D03*
X1681D02*
D03*
X1700D02*
D03*
Y3615D02*
D03*
X1720Y3411D02*
D03*
X1740D02*
D03*
X1759D02*
D03*
Y3615D02*
D03*
X1779Y3411D02*
D03*
X1799D02*
D03*
X1819D02*
D03*
Y3615D02*
D03*
X1838Y3411D02*
D03*
X1897D02*
D03*
X1917Y3615D02*
D03*
X1996Y3411D02*
D03*
X2015D02*
D03*
Y3615D02*
D03*
X2035Y3411D02*
D03*
Y3615D02*
D03*
X2055D02*
D03*
X2094Y3411D02*
D03*
X2114Y3615D02*
D03*
X2153Y3411D02*
D03*
X2173D02*
D03*
X2193D02*
D03*
X2212D02*
D03*
Y3615D02*
D03*
X2232Y3411D02*
D03*
X2252D02*
D03*
X2271D02*
D03*
Y3615D02*
D03*
X2291Y3411D02*
D03*
X2311D02*
D03*
X2330Y3615D02*
D03*
X2389D02*
D03*
X2409D02*
D03*
X2429Y3411D02*
D03*
Y3615D02*
D03*
X2448D02*
D03*
X2488Y3411D02*
D03*
X2508Y3615D02*
D03*
X2547Y3411D02*
D03*
X2606D02*
D03*
Y3615D02*
D03*
X2586Y3411D02*
D03*
X2567D02*
D03*
X2527D02*
D03*
X2508D02*
D03*
X2370D02*
D03*
X2409D02*
D03*
X2389D02*
D03*
X2586Y3615D02*
D03*
X2567D02*
D03*
X2547D02*
D03*
X2527D02*
D03*
X2468Y3411D02*
D03*
X2448D02*
D03*
X1155Y1964D02*
D03*
X1135D02*
D03*
X1214D02*
D03*
X1194D02*
D03*
X1548Y1760D02*
D03*
X1529D02*
D03*
X1804Y1964D02*
D03*
X1784D02*
D03*
X1391D02*
D03*
X1371D02*
D03*
X1450D02*
D03*
X1430D02*
D03*
X1509D02*
D03*
X1489D02*
D03*
X1568D02*
D03*
X1548D02*
D03*
X1332D02*
D03*
X1312D02*
D03*
X1627D02*
D03*
X1607D02*
D03*
X2021D02*
D03*
X2001D02*
D03*
D18*
X1205Y4450D02*
D03*
X2829Y4456D02*
D03*
D19*
X2730Y1473D02*
D03*
X2750D02*
D03*
X2691D02*
D03*
X2711D02*
D03*
X2573D02*
D03*
X2592D02*
D03*
X1197Y1190D02*
D03*
X1217D02*
D03*
X1039D02*
D03*
X1059D02*
D03*
X1079Y1468D02*
D03*
X1098D02*
D03*
X1157D02*
D03*
X1177D02*
D03*
X1236D02*
D03*
X1256D02*
D03*
X1197D02*
D03*
X1217D02*
D03*
X2651Y1473D02*
D03*
X2671D02*
D03*
X2533Y1195D02*
D03*
X2553D02*
D03*
X1000Y1190D02*
D03*
X1020D02*
D03*
X1079D02*
D03*
X1098D02*
D03*
X1118D02*
D03*
X1138D02*
D03*
X1157D02*
D03*
X1177D02*
D03*
X1236D02*
D03*
X1256D02*
D03*
X1138Y1468D02*
D03*
X1118D02*
D03*
X1059D02*
D03*
X1039D02*
D03*
X1020D02*
D03*
X1000D02*
D03*
X2494Y1195D02*
D03*
X2514D02*
D03*
X2573D02*
D03*
X2592D02*
D03*
X2612D02*
D03*
X2632D02*
D03*
X2651D02*
D03*
X2671D02*
D03*
X2691D02*
D03*
X2711D02*
D03*
X2730D02*
D03*
X2750D02*
D03*
X2632Y1473D02*
D03*
X2612D02*
D03*
X2553D02*
D03*
X2533D02*
D03*
X2514D02*
D03*
X2494D02*
D03*
D20*
X2463Y1383D02*
D03*
Y1403D02*
D03*
X969Y1378D02*
D03*
Y1398D02*
D03*
Y1417D02*
D03*
Y1437D02*
D03*
X2463Y1422D02*
D03*
Y1442D02*
D03*
X1286Y1221D02*
D03*
Y1240D02*
D03*
Y1260D02*
D03*
Y1280D02*
D03*
Y1299D02*
D03*
Y1319D02*
D03*
Y1339D02*
D03*
Y1358D02*
D03*
Y1378D02*
D03*
Y1398D02*
D03*
Y1417D02*
D03*
Y1437D02*
D03*
X969Y1358D02*
D03*
Y1339D02*
D03*
Y1319D02*
D03*
Y1299D02*
D03*
Y1280D02*
D03*
Y1260D02*
D03*
Y1240D02*
D03*
Y1221D02*
D03*
X2780Y1226D02*
D03*
Y1245D02*
D03*
Y1265D02*
D03*
Y1285D02*
D03*
Y1304D02*
D03*
Y1324D02*
D03*
Y1344D02*
D03*
Y1363D02*
D03*
Y1383D02*
D03*
Y1403D02*
D03*
Y1422D02*
D03*
Y1442D02*
D03*
X2463Y1363D02*
D03*
Y1344D02*
D03*
Y1324D02*
D03*
Y1304D02*
D03*
Y1285D02*
D03*
Y1265D02*
D03*
Y1245D02*
D03*
Y1226D02*
D03*
D21*
X1040Y4248D02*
D03*
X1059D02*
D03*
X1315D02*
D03*
X1335D02*
D03*
X1315Y4650D02*
D03*
X1296D02*
D03*
X1276D02*
D03*
X1374D02*
D03*
X1355D02*
D03*
X1335D02*
D03*
X1197Y4248D02*
D03*
X1217D02*
D03*
X1197Y4650D02*
D03*
X1217D02*
D03*
X1237D02*
D03*
X1256D02*
D03*
X1099D02*
D03*
X1079D02*
D03*
X1059D02*
D03*
X1040D02*
D03*
X1178D02*
D03*
X1119D02*
D03*
X1138D02*
D03*
X1158D02*
D03*
X2703Y4254D02*
D03*
X2723D02*
D03*
X2900D02*
D03*
X2919D02*
D03*
X2979D02*
D03*
X2998D02*
D03*
X2782Y4656D02*
D03*
X2762D02*
D03*
X2742D02*
D03*
X2801D02*
D03*
X2664D02*
D03*
X2683D02*
D03*
X2703D02*
D03*
X2723D02*
D03*
X2880D02*
D03*
X2860D02*
D03*
X2841D02*
D03*
X2821D02*
D03*
X2841Y4254D02*
D03*
X2821D02*
D03*
X2959Y4656D02*
D03*
X2979D02*
D03*
X2998D02*
D03*
X2900D02*
D03*
X2919D02*
D03*
X2939D02*
D03*
X2959Y4254D02*
D03*
X2939D02*
D03*
X2880D02*
D03*
X2860D02*
D03*
X2762D02*
D03*
X2742D02*
D03*
X2683D02*
D03*
X2664D02*
D03*
X2801D02*
D03*
X2782D02*
D03*
X1256Y4248D02*
D03*
X1237D02*
D03*
X1138D02*
D03*
X1119D02*
D03*
X1099D02*
D03*
X1079D02*
D03*
X1178D02*
D03*
X1158D02*
D03*
X1296D02*
D03*
X1276D02*
D03*
X1374D02*
D03*
X1355D02*
D03*
D22*
X1403Y4360D02*
D03*
Y4380D02*
D03*
Y4596D02*
D03*
Y4616D02*
D03*
X1006Y4498D02*
D03*
Y4537D02*
D03*
Y4518D02*
D03*
Y4478D02*
D03*
Y4596D02*
D03*
Y4616D02*
D03*
X1403Y4498D02*
D03*
Y4478D02*
D03*
Y4577D02*
D03*
Y4557D02*
D03*
Y4537D02*
D03*
Y4518D02*
D03*
X2630Y4563D02*
D03*
Y4583D02*
D03*
Y4327D02*
D03*
Y4346D02*
D03*
X3027Y4524D02*
D03*
Y4543D02*
D03*
Y4563D02*
D03*
Y4583D02*
D03*
Y4484D02*
D03*
Y4504D02*
D03*
X2630Y4622D02*
D03*
Y4602D02*
D03*
Y4484D02*
D03*
Y4524D02*
D03*
Y4543D02*
D03*
Y4504D02*
D03*
X3027Y4622D02*
D03*
Y4602D02*
D03*
Y4465D02*
D03*
Y4445D02*
D03*
Y4386D02*
D03*
Y4366D02*
D03*
Y4307D02*
D03*
Y4287D02*
D03*
Y4346D02*
D03*
Y4327D02*
D03*
Y4425D02*
D03*
Y4405D02*
D03*
X2630Y4386D02*
D03*
Y4366D02*
D03*
Y4307D02*
D03*
Y4287D02*
D03*
Y4465D02*
D03*
Y4445D02*
D03*
Y4425D02*
D03*
Y4405D02*
D03*
X1403Y4459D02*
D03*
Y4439D02*
D03*
Y4301D02*
D03*
Y4281D02*
D03*
X1006Y4340D02*
D03*
Y4321D02*
D03*
Y4459D02*
D03*
Y4439D02*
D03*
Y4419D02*
D03*
Y4399D02*
D03*
Y4380D02*
D03*
Y4360D02*
D03*
X1403Y4340D02*
D03*
Y4321D02*
D03*
Y4419D02*
D03*
Y4399D02*
D03*
X1006Y4301D02*
D03*
Y4281D02*
D03*
Y4577D02*
D03*
Y4557D02*
D03*
D23*
X2381Y1011D02*
D03*
X2447D02*
D03*
X2797D02*
D03*
X2864D02*
D03*
X1303Y1006D02*
D03*
X1370D02*
D03*
X1242D02*
D03*
X887D02*
D03*
X953D02*
D03*
X2469Y751D02*
D03*
Y816D02*
D03*
X2302Y751D02*
D03*
Y816D02*
D03*
X2946Y751D02*
D03*
Y816D02*
D03*
X2776Y751D02*
D03*
Y816D02*
D03*
X2157Y907D02*
D03*
Y842D02*
D03*
X2104Y907D02*
D03*
Y842D02*
D03*
X2583Y751D02*
D03*
Y816D02*
D03*
X2636Y751D02*
D03*
Y816D02*
D03*
X2447Y946D02*
D03*
X2318Y1010D02*
D03*
Y945D02*
D03*
X2381Y946D02*
D03*
X2588Y1025D02*
D03*
Y960D02*
D03*
X2651Y1025D02*
D03*
Y960D02*
D03*
X2864Y946D02*
D03*
X2928D02*
D03*
Y1011D02*
D03*
X2736D02*
D03*
Y946D02*
D03*
X2797D02*
D03*
X2510D02*
D03*
Y1011D02*
D03*
X2690Y751D02*
D03*
Y816D02*
D03*
X2222Y762D02*
D03*
Y827D02*
D03*
X975Y746D02*
D03*
Y811D02*
D03*
X808Y746D02*
D03*
Y811D02*
D03*
X1094Y1020D02*
D03*
Y955D02*
D03*
X1157Y1020D02*
D03*
Y955D02*
D03*
X1016Y941D02*
D03*
Y1006D02*
D03*
X953Y941D02*
D03*
X887D02*
D03*
X824Y1005D02*
D03*
Y940D02*
D03*
X1242Y941D02*
D03*
X1303D02*
D03*
X1370D02*
D03*
X1434D02*
D03*
Y1006D02*
D03*
X1282Y746D02*
D03*
Y811D02*
D03*
X1452Y746D02*
D03*
Y811D02*
D03*
X1196Y811D02*
D03*
Y746D02*
D03*
X1142Y746D02*
D03*
Y811D02*
D03*
X1089Y746D02*
D03*
Y811D02*
D03*
X728Y822D02*
D03*
Y757D02*
D03*
X610Y902D02*
D03*
Y837D02*
D03*
X663Y902D02*
D03*
Y837D02*
D03*
D24*
X872Y4729D02*
D03*
X826Y4683D02*
D03*
X1088Y4797D02*
D03*
X1134Y4843D02*
D03*
X999Y4708D02*
D03*
X1045Y4754D02*
D03*
X1427Y4924D02*
D03*
X1473Y4970D02*
D03*
X1473Y4877D02*
D03*
X1519Y4923D02*
D03*
X1645Y4852D02*
D03*
X1599Y4806D02*
D03*
X1643Y4760D02*
D03*
X1689Y4806D02*
D03*
X2334Y1151D02*
D03*
X2380Y1197D02*
D03*
X2419Y1159D02*
D03*
X2373Y1113D02*
D03*
X925Y1154D02*
D03*
X879Y1108D02*
D03*
X840Y1146D02*
D03*
X886Y1192D02*
D03*
X2496Y4735D02*
D03*
X2450Y4689D02*
D03*
X2712Y4803D02*
D03*
X2758Y4849D02*
D03*
X2623Y4714D02*
D03*
X2669Y4760D02*
D03*
X3269Y4858D02*
D03*
X3223Y4812D02*
D03*
X3097Y4883D02*
D03*
X3143Y4929D02*
D03*
X3051Y4930D02*
D03*
X3097Y4976D02*
D03*
X3267Y4766D02*
D03*
X3313Y4812D02*
D03*
D25*
X1563Y4746D02*
D03*
X1609Y4700D02*
D03*
X1317Y4797D02*
D03*
X1271Y4843D02*
D03*
X1406Y4708D02*
D03*
X1360Y4754D02*
D03*
X775Y4736D02*
D03*
X729Y4782D02*
D03*
X773Y4828D02*
D03*
X819Y4782D02*
D03*
X2813Y1157D02*
D03*
X2859Y1111D02*
D03*
X2316Y1371D02*
D03*
X2362Y1325D02*
D03*
X2268Y1324D02*
D03*
X2314Y1278D02*
D03*
X2128Y1102D02*
D03*
X2174Y1056D02*
D03*
X2218Y1100D02*
D03*
X2172Y1146D02*
D03*
X1319Y1152D02*
D03*
X1365Y1106D02*
D03*
X820Y1273D02*
D03*
X774Y1319D02*
D03*
X868Y1320D02*
D03*
X822Y1366D02*
D03*
X678Y1141D02*
D03*
X724Y1095D02*
D03*
X680Y1051D02*
D03*
X634Y1097D02*
D03*
X2397Y4834D02*
D03*
X2443Y4788D02*
D03*
X3187Y4752D02*
D03*
X3233Y4706D02*
D03*
X2941Y4803D02*
D03*
X2895Y4849D02*
D03*
X3030Y4714D02*
D03*
X2984Y4760D02*
D03*
X2399Y4742D02*
D03*
X2353Y4788D02*
D03*
D26*
X923Y4793D02*
D03*
X1027Y4953D02*
D03*
X1055Y4925D02*
D03*
X1041Y4939D02*
D03*
X909Y4807D02*
D03*
X937Y4779D02*
D03*
X895Y4821D02*
D03*
X881Y4835D02*
D03*
X1013Y4967D02*
D03*
X2637Y4973D02*
D03*
X2505Y4841D02*
D03*
X2519Y4827D02*
D03*
X2561Y4785D02*
D03*
X2533Y4813D02*
D03*
X2665Y4945D02*
D03*
X2679Y4931D02*
D03*
X2651Y4959D02*
D03*
X2547Y4799D02*
D03*
D27*
X1069Y4911D02*
D03*
X2693Y4917D02*
D03*
D28*
X813Y4249D02*
D03*
X715D02*
D03*
X2294Y4252D02*
D03*
X2178D02*
D03*
X2294Y4117D02*
D03*
X2178D02*
D03*
X813Y4114D02*
D03*
X715D02*
D03*
D29*
X3101Y1277D02*
D03*
X3006Y1182D02*
D03*
X2994Y1312D02*
D03*
X2899Y1217D02*
D03*
X1500Y1307D02*
D03*
X1405Y1212D02*
D03*
X1607Y1272D02*
D03*
X1512Y1177D02*
D03*
D30*
X2181Y1215D02*
D03*
X2207Y1189D02*
D03*
X2234Y1162D02*
D03*
X2240Y1274D02*
D03*
X2266Y1247D02*
D03*
X2292Y1221D02*
D03*
X687Y1210D02*
D03*
X713Y1184D02*
D03*
X740Y1157D02*
D03*
X746Y1269D02*
D03*
X772Y1242D02*
D03*
X798Y1216D02*
D03*
D31*
X518Y3506D02*
D03*
D32*
X722D02*
D03*
X518Y3486D02*
D03*
X722D02*
D03*
X518Y3467D02*
D03*
X722D02*
D03*
X518Y3447D02*
D03*
X722D02*
D03*
X518Y3427D02*
D03*
X722D02*
D03*
X518Y3408D02*
D03*
X722D02*
D03*
X518Y3388D02*
D03*
X722D02*
D03*
X518Y3368D02*
D03*
X722D02*
D03*
X518Y3348D02*
D03*
X722D02*
D03*
X518Y3329D02*
D03*
X722D02*
D03*
X518Y3309D02*
D03*
X722D02*
D03*
X518Y3289D02*
D03*
X722D02*
D03*
X518Y3270D02*
D03*
X722D02*
D03*
X518Y3250D02*
D03*
X722D02*
D03*
X518Y3230D02*
D03*
X722D02*
D03*
X518Y3211D02*
D03*
X722D02*
D03*
X518Y3191D02*
D03*
X722D02*
D03*
X518Y3171D02*
D03*
X722D02*
D03*
X518Y3152D02*
D03*
X722D02*
D03*
X518Y3132D02*
D03*
X722D02*
D03*
X518Y3112D02*
D03*
X722D02*
D03*
X518Y3093D02*
D03*
X722D02*
D03*
X518Y3073D02*
D03*
X722D02*
D03*
X518Y3053D02*
D03*
X722D02*
D03*
X518Y3033D02*
D03*
X722D02*
D03*
X518Y3014D02*
D03*
X722D02*
D03*
X518Y2994D02*
D03*
X722D02*
D03*
X518Y2974D02*
D03*
X722D02*
D03*
X518Y2955D02*
D03*
X722D02*
D03*
X518Y2935D02*
D03*
X722D02*
D03*
X518Y2915D02*
D03*
X722D02*
D03*
X518Y2896D02*
D03*
X722D02*
D03*
X518Y2876D02*
D03*
X722D02*
D03*
X518Y2856D02*
D03*
X722D02*
D03*
X518Y2837D02*
D03*
X722D02*
D03*
X518Y2817D02*
D03*
X722D02*
D03*
X518Y2797D02*
D03*
X722D02*
D03*
X518Y2778D02*
D03*
X722D02*
D03*
X518Y2758D02*
D03*
X722D02*
D03*
X518Y2738D02*
D03*
X722D02*
D03*
X518Y2719D02*
D03*
X722D02*
D03*
X518Y2699D02*
D03*
X722D02*
D03*
X518Y2679D02*
D03*
X722D02*
D03*
X518Y2659D02*
D03*
X722D02*
D03*
X518Y2640D02*
D03*
X722D02*
D03*
X518Y2620D02*
D03*
X722D02*
D03*
X518Y2600D02*
D03*
X722D02*
D03*
X518Y2581D02*
D03*
X722D02*
D03*
X518Y2561D02*
D03*
X722D02*
D03*
X518Y2541D02*
D03*
X722D02*
D03*
X518Y2522D02*
D03*
X722D02*
D03*
X518Y2502D02*
D03*
X722D02*
D03*
X518Y2482D02*
D03*
X722D02*
D03*
X518Y2463D02*
D03*
X722D02*
D03*
X518Y2443D02*
D03*
X722D02*
D03*
X518Y2423D02*
D03*
X722D02*
D03*
X518Y2404D02*
D03*
X722D02*
D03*
X518Y2384D02*
D03*
X722D02*
D03*
X518Y2364D02*
D03*
X722D02*
D03*
X518Y2345D02*
D03*
X722D02*
D03*
X518Y2325D02*
D03*
X722D02*
D03*
X518Y2305D02*
D03*
X722D02*
D03*
X518Y2285D02*
D03*
X722D02*
D03*
X518Y2266D02*
D03*
X722D02*
D03*
X518Y2246D02*
D03*
X722D02*
D03*
X518Y2226D02*
D03*
X722D02*
D03*
X518Y2207D02*
D03*
X722D02*
D03*
X518Y2187D02*
D03*
X722D02*
D03*
X518Y2167D02*
D03*
X722D02*
D03*
X518Y2148D02*
D03*
X722D02*
D03*
X518Y2128D02*
D03*
X722D02*
D03*
X518Y2108D02*
D03*
X722D02*
D03*
X518Y2089D02*
D03*
X722D02*
D03*
X518Y2069D02*
D03*
X722D02*
D03*
X518Y2049D02*
D03*
X722D02*
D03*
X518Y2030D02*
D03*
X722D02*
D03*
X518Y2010D02*
D03*
X722D02*
D03*
X518Y1990D02*
D03*
X722D02*
D03*
X518Y1970D02*
D03*
X722D02*
D03*
X518Y1951D02*
D03*
X722D02*
D03*
X518Y1931D02*
D03*
X722D02*
D03*
X518Y1911D02*
D03*
X722D02*
D03*
X518Y1892D02*
D03*
X722D02*
D03*
X518Y1872D02*
D03*
X722D02*
D03*
D33*
X620Y1746D02*
D03*
Y3632D02*
D03*
D34*
X997Y1760D02*
D03*
X972Y3411D02*
D03*
D35*
X2757Y1862D02*
D03*
X871D02*
D03*
X2732Y3513D02*
D03*
X846D02*
D03*
D36*
X4287Y1936D02*
D03*
Y2342D02*
D03*
X4288Y2713D02*
D03*
Y3118D02*
D03*
D37*
X3954Y1964D02*
D03*
Y2014D02*
D03*
Y2064D02*
D03*
Y2114D02*
D03*
Y2314D02*
D03*
Y2264D02*
D03*
Y2214D02*
D03*
Y2164D02*
D03*
X3955Y2740D02*
D03*
Y2790D02*
D03*
Y2840D02*
D03*
Y2890D02*
D03*
Y3090D02*
D03*
Y3040D02*
D03*
Y2990D02*
D03*
Y2940D02*
D03*
D40*
X4000Y-0D02*
Y5500D01*
X1193D02*
X4000D01*
X0Y1681D02*
Y3650D01*
X753Y-0D02*
X4000D01*
X0D02*
Y1681D01*
Y-0D02*
X753D01*
X0Y5500D02*
X1193D01*
X0Y3650D02*
Y5500D01*
D48*
X411Y5291D02*
D03*
X2147Y5379D02*
D03*
X3273Y896D02*
D03*
X329Y404D02*
D03*
D49*
X411Y5191D02*
D03*
Y5091D02*
D03*
Y4991D02*
D03*
X711Y5291D02*
D03*
Y5191D02*
D03*
Y5091D02*
D03*
Y4991D02*
D03*
X2147Y5279D02*
D03*
Y5179D02*
D03*
Y5079D02*
D03*
X2447Y5379D02*
D03*
Y5279D02*
D03*
Y5179D02*
D03*
Y5079D02*
D03*
X3273Y796D02*
D03*
Y696D02*
D03*
Y596D02*
D03*
X3573Y896D02*
D03*
Y796D02*
D03*
Y696D02*
D03*
Y596D02*
D03*
X329Y304D02*
D03*
Y204D02*
D03*
Y104D02*
D03*
X629Y404D02*
D03*
Y304D02*
D03*
Y204D02*
D03*
Y104D02*
D03*
X208Y4238D02*
D03*
X308D02*
D03*
X208Y4338D02*
D03*
X308D02*
D03*
X208Y4438D02*
D03*
X308D02*
D03*
X208Y4538D02*
D03*
X308D02*
D03*
X208Y4638D02*
D03*
X308D02*
D03*
X208Y4738D02*
D03*
X181Y651D02*
D03*
X281D02*
D03*
X181Y751D02*
D03*
X281D02*
D03*
X181Y851D02*
D03*
X281D02*
D03*
X181Y951D02*
D03*
X281D02*
D03*
X181Y1051D02*
D03*
X281D02*
D03*
X181Y1151D02*
D03*
X281D02*
D03*
X181Y1251D02*
D03*
D50*
X308Y4738D02*
D03*
X281Y1251D02*
D03*
D51*
X1465Y284D02*
D03*
X812Y281D02*
D03*
X2959Y278D02*
D03*
X2309Y290D02*
D03*
X2460Y295D02*
D03*
X3110Y283D02*
D03*
X963Y286D02*
D03*
X1616Y289D02*
D03*
X1977Y5328D02*
D03*
X1794Y5329D02*
D03*
X1226Y5312D02*
D03*
X1038D02*
D03*
X2663Y5321D02*
D03*
X2851D02*
D03*
X3419Y5338D02*
D03*
X3602Y5337D02*
D03*
D52*
X4351Y425D02*
D03*
Y325D02*
D03*
Y225D02*
D03*
D53*
Y525D02*
D03*
D54*
X1128Y1329D02*
D03*
X2622Y1334D02*
D03*
D55*
X150Y5350D02*
D03*
X4600Y150D02*
D03*
X3800Y5350D02*
D03*
X150Y150D02*
D03*
D56*
X893Y3220D02*
D03*
X986Y2236D02*
D03*
X3211Y3220D02*
D03*
X2739Y2157D02*
D03*
D57*
X4468Y1889D02*
D03*
Y2389D02*
D03*
X4469Y2665D02*
D03*
Y3165D02*
D03*
M02*
