%FSTAX23Y23*%
%MOIN*%
%SFA1B1*%

%IPPOS*%
%ADD51C,0.008000*%
%ADD78C,0.040000*%
%ADD87C,0.076000*%
%ADD88C,0.064000*%
%ADD89C,0.066000*%
%ADD90C,0.130000*%
%ADD91C,0.062000*%
%ADD92C,0.144000*%
%ADD93C,0.149000*%
%ADD94C,0.036000*%
%ADD95C,0.039000*%
%ADD96C,0.094000*%
%ADD97C,0.068000*%
G54D51*
X00637Y03492D02*
Y04256D01*
X00379D02*
X00637D01*
X0D02*
X00379D01*
Y04361*
X00114Y04626D02*
X00379Y04361D01*
X00114Y04626D02*
Y04872D01*
X0023*
Y055*
X02Y03153D02*
Y0348D01*
Y03153D02*
X02495D01*
X022Y03025D02*
X02723D01*
Y04277*
X02595D02*
X02723D01*
X02595Y04216D02*
Y04277D01*
Y03954D02*
Y04216D01*
X00675Y02581D02*
Y03347D01*
X00693Y03365*
X00002Y03173D02*
X00318D01*
X00569Y03424*
X00318Y02903D02*
Y03173D01*
Y02635D02*
X00372Y02581D01*
X00318Y02635D02*
Y02903D01*
X00332Y01282D02*
Y02182D01*
X00449Y02581D02*
X00835D01*
X01081D02*
X0115Y0265D01*
X00835Y02581D02*
X01081D01*
X00058Y027D02*
X00109D01*
X00332Y02477*
Y02182D02*
Y02477D01*
X00372Y02581D02*
X00449D01*
X02225Y04462D02*
X02326Y04361D01*
X02395Y0443D02*
Y04731D01*
X02326Y04361D02*
X02395Y0443D01*
X01495Y04731D02*
X02395D01*
X012Y04298D02*
Y04614D01*
X01584Y04298D02*
X01665Y04379D01*
X012Y04298D02*
X01584D01*
X01858Y04572D02*
X01903Y04617D01*
X01858Y04442D02*
Y04572D01*
X01796Y0438D02*
X01858Y04442D01*
X01666Y0438D02*
X01796D01*
X01716Y04216D02*
X01739Y04239D01*
X01833*
X01531Y04031D02*
X01724Y04224D01*
X01529Y04031D02*
X01531D01*
X02166Y04462D02*
X02225D01*
X01833Y04239D02*
X02056Y04462D01*
X02166*
X02225D02*
Y04507D01*
X01399Y04031D02*
X01529D01*
X01903Y04617D02*
X02225D01*
Y04507D02*
Y04617D01*
X00828Y04731D02*
X01495D01*
X00828Y04554D02*
Y04731D01*
X01059Y04614D02*
X012D01*
X01059Y0397D02*
Y04614D01*
X00977Y03888D02*
X01059Y0397D01*
X00977Y03649D02*
Y03888D01*
X00693Y03365D02*
X00977Y03649D01*
X00828Y03854D02*
Y04554D01*
Y03683D02*
Y03854D01*
X00569Y03424D02*
X00828Y03683D01*
X00817Y02833D02*
Y0333D01*
Y02833D02*
X0095Y027D01*
X00817Y0333D02*
X00852Y03365D01*
X00817Y0333D02*
X00845Y03302D01*
X00972Y03176D02*
X01032Y03236D01*
X00845Y03302D02*
X01122Y03025D01*
X01165Y03068*
X0095Y02581D02*
Y027D01*
X0D02*
X00073D01*
X00321Y01271D02*
X00332Y01282D01*
X01833Y04239D02*
X01872Y042D01*
X012Y04031D02*
X01476D01*
X012Y03713D02*
Y04031D01*
X00845Y03358D02*
X012Y03713D01*
X01165Y03068D02*
X0199Y03893D01*
X0103Y03234D02*
X01824Y04028D01*
X02105Y03876D02*
Y03893D01*
X0199D02*
X02105D01*
X0199Y03876D02*
Y03893D01*
X02105Y03848D02*
Y03876D01*
X0199Y03845D02*
Y03876D01*
X01872Y04161D02*
Y042D01*
X02139*
X02203Y04136*
X01872Y04177D02*
Y04076D01*
X01824Y04028D02*
X01872Y04076D01*
X02271Y04068D02*
X02283Y04056D01*
Y03893D02*
Y04056D01*
Y03862D02*
Y03893D01*
X02105Y03862D02*
X02283D01*
X02105Y03784D02*
Y03863D01*
X0199Y03782D02*
Y03863D01*
X02495Y03773D02*
Y03844D01*
X02139Y042D02*
X02495Y03844D01*
Y03738D02*
Y03773D01*
X01911Y04316D02*
X02233D01*
X02595Y03954*
Y03608D02*
Y03954D01*
X02495Y03153D02*
X02595D01*
Y03608*
X02495Y03153D02*
Y03738D01*
X019Y03025D02*
Y0361D01*
X0199Y037*
Y03861*
X02105Y03857D02*
Y03585D01*
X02Y0348D02*
X02105Y03585D01*
X022Y029D02*
Y03025D01*
X0115D02*
X022D01*
X02075Y01735D02*
Y02175D01*
X01995Y01655D02*
X02075Y01735D01*
X01995Y0147D02*
Y01655D01*
X01875Y0147D02*
X01995D01*
X01875D02*
Y01725D01*
X0195Y018*
Y02175*
X02075*
X01225Y01425D02*
X015D01*
X01675Y0125*
X02175*
Y01125D02*
Y0125D01*
X01625Y01125D02*
X02175D01*
X0144Y0131D02*
X01625Y01125D01*
X01225Y0131D02*
X0144D01*
X01225D02*
Y01425D01*
X01705Y0085D02*
X01775D01*
X01477Y01078D02*
X01705Y0085D01*
X01423Y01078D02*
X01477D01*
X01345Y01D02*
X01423Y01078D01*
X01345Y0082D02*
X0154Y00625D01*
X01225Y0082D02*
X01345D01*
X01225D02*
Y01D01*
X0214Y00625D02*
Y0085D01*
X01709D02*
X0214D01*
X01225Y01D02*
X01345D01*
X00875Y00415D02*
X0124D01*
X02255Y00489D02*
X02281Y00515D01*
X0251*
Y0033D02*
Y00515D01*
X01505Y0033D02*
X0251D01*
X01505Y00275D02*
Y0033D01*
X0065Y00275D02*
X01505D01*
X0065D02*
Y00562D01*
X0124Y00415D02*
Y0055D01*
X0135*
X01425Y00625*
X0218*
Y00485D02*
Y00625D01*
X0203Y00485D02*
X02255D01*
X0198Y00535D02*
X0203Y00485D01*
X01735Y00535D02*
X0198D01*
X01685Y00485D02*
X01735Y00535D01*
X01495Y00485D02*
X01685D01*
X01425Y00415D02*
X01495Y00485D01*
X0124Y00415D02*
X01425D01*
X00875D02*
Y00575D01*
X00775Y00478D02*
Y00488D01*
X00755Y005D02*
X00775Y00488D01*
Y00415D02*
Y00478D01*
Y00415D02*
X00875D01*
X0087Y008D02*
X01025D01*
X00575Y0136D02*
Y0156D01*
Y0136D02*
X01025Y0091D01*
Y008D02*
Y0091D01*
X00625Y01045D02*
X0087Y008D01*
X0047Y01045D02*
X00625D01*
X00375Y00845D02*
X0042D01*
X00875Y00575*
X00375Y00725D02*
X00755Y005D01*
X00225Y00725D02*
X00375D01*
X00225Y00845D02*
X00375D01*
X0Y0035D02*
X00325D01*
Y00525*
X00225D02*
X00325D01*
X00225D02*
Y0094D01*
X00375*
Y01045*
X0022D02*
Y0117D01*
X00326Y01276*
X0115Y0265D02*
Y03025D01*
X014Y029D02*
X022D01*
X014Y02325D02*
Y029D01*
X01115Y02325D02*
X014D01*
X00575Y01785D02*
X01115Y02325D01*
X00575Y01555D02*
Y01785D01*
X0022Y01045D02*
X0051D01*
X04Y0D02*
Y055D01*
X01193D02*
X04D01*
X0Y01681D02*
Y0365D01*
X00753Y0D02*
X04D01*
X0D02*
Y01681D01*
Y0D02*
X00753D01*
X0Y055D02*
X01193D01*
X0Y0365D02*
Y055D01*
G54D78*
X0Y0D02*
X04D01*
Y055*
X0D02*
X04D01*
X0Y0D02*
Y055D01*
G54D87*
X02405Y00174D03*
X01655D03*
X00492Y0488D03*
X01992Y04882D03*
X02742D03*
X01242Y0488D03*
G54D88*
X00714Y00877D03*
Y01271D03*
X02619Y03533D03*
X01262D03*
X02619Y01957D03*
X01262D03*
G54D89*
X00289Y00898D03*
X00155Y04832D03*
G54D90*
X0363Y0329D03*
X0313D03*
X0363Y0024D03*
X0313D03*
G54D91*
X0378Y01666D03*
Y01866D03*
Y01766D03*
X0348Y01666D03*
Y01866D03*
Y01766D03*
X0318Y01666D03*
Y01866D03*
Y01766D03*
G54D92*
X0016Y05285D03*
Y00585D03*
X02795D03*
Y05285D03*
G54D93*
X00118Y01799D03*
X02835D03*
Y03531D03*
X00118D03*
G54D94*
X0375Y0321D03*
Y0518D03*
Y042D03*
Y0223D03*
X0225Y0224D03*
X0228Y0221D03*
X02334Y0209D03*
X02208D03*
X0224Y0206D03*
X02271Y0209D03*
X02303Y0206D03*
X0366Y0234D03*
X035D03*
X0334D03*
X0318D03*
X02366Y0206D03*
X02397Y0209D03*
X02429Y0206D03*
X0246Y0209D03*
X02491Y0206D03*
X02523Y0209D03*
X02555Y0206D03*
X02152Y01705D03*
X0375Y01305D03*
Y0032D03*
X0358Y0119D03*
X0342D03*
X0326D03*
X031D03*
X02491Y017D03*
X031Y0262D03*
X0326D03*
X0343D03*
X0359D03*
X031Y024D03*
X0326D03*
X0343D03*
X0359D03*
X03205Y0272D03*
X03305D03*
X03405D03*
X03505D03*
X0366Y0091D03*
X035D03*
X0333D03*
X0317D03*
X0366Y0113D03*
X035D03*
X0333D03*
X0317D03*
X03255Y0081D03*
X03355D03*
X03455D03*
X03555D03*
X0375Y00119D03*
Y00459D03*
Y01104D03*
Y01444D03*
Y02088D03*
Y02428D03*
Y03072D03*
Y03412D03*
Y04056D03*
Y04396D03*
Y05041D03*
Y05381D03*
X02546Y02751D03*
X0251D03*
X02365Y0406D03*
X02472Y0283D03*
X02366Y04096D03*
X02474Y02789D03*
X02402Y04094D03*
X0251Y0279D03*
X02032Y0466D03*
X02016Y04621D03*
X02629Y02752D03*
X01985Y0459D03*
X02631Y02788D03*
X0253Y04291D03*
X02595Y02789D03*
X01811Y03722D03*
X018Y03267D03*
X01823Y03759D03*
X01835Y03267D03*
X0246Y01675D03*
X02397D03*
X02428Y017D03*
X02365D03*
X01539Y02071D03*
X02093Y00566D03*
X01502Y00551D03*
X01574Y02071D03*
X0212Y00601D03*
X01466Y00581D03*
X01609Y02071D03*
X0165D03*
X02146Y00631D03*
X015Y0063D03*
X01466Y02054D03*
X01452Y01702D03*
X01325D03*
X01452Y03634D03*
X01357D03*
X01353Y03275D03*
X01392D03*
X01428D03*
X01463D03*
X01435Y00805D03*
X01467Y00933D03*
X01435Y04455D03*
X02498Y04261D03*
X01977Y04D03*
Y04049D03*
X02129Y04D03*
Y04049D03*
Y03946D03*
X01977D03*
X02031D03*
X0208D03*
X01596Y00783D03*
X01997Y00912D03*
X0254Y01701D03*
X02192Y01705D03*
X01859Y01701D03*
X01498D03*
X015Y02054D03*
X01309D03*
X02541Y03268D03*
X01309Y03276D03*
X01498D03*
X01353Y03111D03*
X02165Y0364D03*
X0219Y03759D03*
X02178Y03722D03*
X01847Y03638D03*
X00579Y00251D03*
X01143D03*
X01237Y00651D03*
X01231Y01102D03*
X01285Y01516D03*
X00591Y01341D03*
X00411Y01699D03*
X00056Y03155D03*
X00512Y0292D03*
X00138Y02765D03*
X00394Y02706D03*
X00342Y02337D03*
X00851Y02339D03*
X01707Y02129D03*
X01481Y02231D03*
X01328Y02209D03*
X0212Y02125D03*
X01811Y02345D03*
X02044Y02507D03*
X01706Y02717D03*
X02381Y02722D03*
X02138Y02767D03*
X02513Y0292D03*
X02069Y03114D03*
X01793Y02912D03*
X01548Y02767D03*
X01161Y0361D03*
X01372Y0468D03*
X01748Y04319D03*
X00697Y04038D03*
X01994Y03249D03*
X01941Y03722D03*
X01968Y03272D03*
X01953Y03759D03*
X02032D03*
X02053Y03251D03*
X02024Y03234D03*
X0202Y03722D03*
X01913Y03272D03*
X02468Y03266D03*
X02327Y03995D03*
X02292Y03977D03*
X02433Y03266D03*
X02399Y03267D03*
X02364D03*
X0233Y03891D03*
X02294D03*
X02297Y00407D03*
X01645D03*
X01949Y01672D03*
X01713Y04028D03*
X01697Y04187D03*
X024Y04216D03*
X02075Y03858D03*
X01822Y0428D03*
X02279D03*
X02108Y04445D03*
X01993D03*
X02157Y0417D03*
X02098Y0418D03*
X0208Y04098D03*
X02031D03*
X01977D03*
X02129D03*
X02213Y0408D03*
X01892D03*
X02039Y0418D03*
X0198D03*
X01933Y0417D03*
X01813Y04105D03*
Y04175D03*
X02218Y0108D03*
X01683Y01093D03*
X0145Y03872D03*
X02075Y00851D03*
X02065Y00783D03*
X01922Y00912D03*
X01848Y00852D03*
X01604D03*
X01888Y03247D03*
X02111Y03759D03*
X02099Y03722D03*
X02118Y03267D03*
X02083D03*
X02152D03*
X02208D03*
X02276D03*
X02241D03*
X02249Y03759D03*
X02237Y03722D03*
X01893D03*
X01881Y03759D03*
X01971Y015D03*
X0196Y04514D03*
X01638Y04265D03*
X02148Y04521D03*
X02359Y04533D03*
X01976Y04656D03*
X01164Y0373D03*
X0116Y04215D03*
X0112Y04365D03*
X0118Y0453D03*
X01395Y04529D03*
X00625Y0461D03*
X0057Y045D03*
X00865Y0394D03*
X0185Y03238D03*
X0218D03*
X0075Y042D03*
X009Y046D03*
X0096Y04595D03*
X0106Y03825D03*
X0091Y0382D03*
X00843Y04321D03*
X0123Y0424D03*
X00835Y04085D03*
X0079Y0414D03*
X01026Y04036D03*
X00697Y04109D03*
X0184Y00905D03*
X01648Y00904D03*
X02066Y00905D03*
X02276D03*
X0217Y0038D03*
X01518D03*
X02049Y0071D03*
X01585Y0072D03*
X0201Y0054D03*
X01995Y00474D03*
X01445Y00477D03*
X0257Y0047D03*
X0073Y0316D03*
X0126Y0297D03*
X01942Y00855D03*
X01835Y0224D03*
X02875Y033D03*
Y032D03*
Y031D03*
Y03D03*
Y029D03*
Y028D03*
Y023D03*
Y024D03*
Y025D03*
Y026D03*
Y027D03*
Y021D03*
Y022D03*
X02825Y01975D03*
X0275Y019D03*
Y021D03*
Y022D03*
Y023D03*
Y024D03*
Y025D03*
Y026D03*
Y027D03*
Y031D03*
Y03D03*
Y029D03*
Y028D03*
Y032D03*
Y033D03*
X02675Y02025D03*
X0282Y034D03*
X02523Y01566D03*
X02598Y01641D03*
X02708Y01594D03*
X0274Y018D03*
Y017D03*
X02622Y01505D03*
X02536Y01416D03*
X02437Y01477D03*
X02632Y0178D03*
X02635Y019D03*
X02519Y01271D03*
X02439Y01136D03*
X02352Y01388D03*
X01967Y02077D03*
X01934D03*
X019D03*
X0219Y01305D03*
X0215Y01315D03*
X02168Y01347D03*
X0233Y00755D03*
X0162Y0072D03*
X0183D03*
X0214Y0073D03*
X0129Y0213D03*
X0125Y0164D03*
X0115Y0161D03*
G54D95*
X00315Y0448D03*
X02439Y04128D03*
X02403Y0413D03*
X02665Y02751D03*
X01835Y00575D03*
X0223Y04351D03*
X02061Y01323D03*
X02011D03*
X01861D03*
X01911D03*
X01861Y01375D03*
X02061D03*
X02011D03*
X01961D03*
X01911D03*
Y01271D03*
X01961D03*
X02011D03*
X02061D03*
X01861D03*
X01911Y01231D03*
X01961D03*
X02011D03*
X02061D03*
X01861D03*
Y01415D03*
X02061D03*
X02011D03*
X01961D03*
X01911D03*
X01765Y02543D03*
Y02493D03*
X0091Y02901D03*
X0108Y02711D03*
X00597Y02625D03*
X01277Y03776D03*
Y03838D03*
Y03902D03*
X02427Y00482D03*
X02144Y00488D03*
X01854Y00481D03*
X02329Y00806D03*
X0196Y0095D03*
X024Y04372D03*
X02361Y0433D03*
X0219Y04395D03*
X0157Y00483D03*
X01673Y03875D03*
X0005Y04085D03*
X001D03*
X0015D03*
X002D03*
X0025D03*
X003D03*
X0035D03*
X004D03*
X0045D03*
X005D03*
X0055D03*
Y04035D03*
X005D03*
X0045D03*
X004D03*
X0035D03*
X003D03*
X0025D03*
X002D03*
X0015D03*
X001D03*
X0005D03*
X0055Y03985D03*
X005D03*
X0045D03*
X004D03*
X0035D03*
X003D03*
X0025D03*
X002D03*
X0015D03*
X001D03*
X0005D03*
X0055Y03935D03*
X005D03*
X0045D03*
X004D03*
X0035D03*
X003D03*
X0025D03*
X002D03*
X0015D03*
X001D03*
X0005D03*
X0055Y03885D03*
X005D03*
X0045D03*
X004D03*
X0035D03*
X003D03*
X0025D03*
X002D03*
X0015D03*
X001D03*
X0005D03*
X0055Y03835D03*
X005D03*
X0045D03*
X004D03*
X0035D03*
X003D03*
X0025D03*
X002D03*
X0015D03*
X001D03*
X0005D03*
X0055Y03785D03*
X005D03*
X0045D03*
X004D03*
X0035D03*
X003D03*
X0025D03*
X002D03*
X0015D03*
X001D03*
X0005D03*
X0055Y03735D03*
X005D03*
X0045D03*
X004D03*
X0035D03*
X003D03*
X0025D03*
X002D03*
X0015D03*
X001D03*
X0005D03*
X0055Y03685D03*
X005D03*
X0045D03*
X004D03*
X0035D03*
X003D03*
X0025D03*
X002D03*
X0015D03*
X001D03*
X0005D03*
X0055Y03635D03*
X005D03*
X0045D03*
X004D03*
X0035D03*
X003D03*
X0025D03*
X002D03*
X0015D03*
X001D03*
X0005D03*
X01485Y01116D03*
X0163Y01335D03*
X01857Y00805D03*
X01965Y00715D03*
X02515Y00714D03*
X00965Y01506D03*
X00745Y01805D03*
X00795D03*
X00845D03*
X00895D03*
X00945D03*
X00995D03*
X00745Y01755D03*
X00795D03*
X00845D03*
X00895D03*
X00945D03*
X00995D03*
X00745Y01705D03*
X00795D03*
X00845D03*
X00895D03*
X00945D03*
X00995D03*
X00745Y01655D03*
X00795D03*
X00845D03*
X00895D03*
X00945D03*
X00995D03*
X00695D03*
Y01705D03*
Y01755D03*
Y01805D03*
X0088Y01605D03*
X0083D03*
X0078D03*
X00895Y01295D03*
X00569Y03234D03*
X016Y02443D03*
X0165D03*
X017D03*
X01515Y02543D03*
Y02493D03*
X01715D03*
X01665D03*
X01615D03*
X01565D03*
X01715Y02543D03*
X01665D03*
X01615D03*
X01565D03*
X0102Y0159D03*
X02312Y00851D03*
G54D96*
X02505Y00074D03*
Y00274D03*
X02305D03*
Y00074D03*
X01755D03*
Y00274D03*
X01555D03*
Y00074D03*
X00592Y0478D03*
Y0498D03*
X00392D03*
Y0478D03*
X02092Y04782D03*
Y04982D03*
X01892D03*
Y04782D03*
X02842D03*
Y04982D03*
X02642D03*
Y04782D03*
X01342Y0478D03*
Y0498D03*
X01142D03*
Y0478D03*
G54D97*
X01961Y01323D03*
X02053Y04022D03*
M02*