%FSTAX23Y23*%
%MOIN*%
%SFA1B1*%

%IPPOS*%
%AMD47*
4,1,4,0.003500,0.024700,-0.024700,-0.003500,-0.003500,-0.024700,0.024700,0.003500,0.003500,0.024700,0.0*
%
%AMD49*
4,1,4,-0.024700,0.003500,0.003500,-0.024700,0.024700,-0.003500,-0.003500,0.024700,-0.024700,0.003500,0.0*
%
%AMD67*
4,1,8,-0.127000,0.095500,-0.127000,-0.095500,-0.116000,-0.106500,0.116000,-0.106500,0.127000,-0.095500,0.127000,0.095500,0.116000,0.106500,-0.116000,0.106500,-0.127000,0.095500,0.0*
1,1,0.022000,-0.116000,0.095500*
1,1,0.022000,-0.116000,-0.095500*
1,1,0.022000,0.116000,-0.095500*
1,1,0.022000,0.116000,0.095500*
%
%AMD104*
4,1,4,0.016600,-0.008100,-0.008100,0.016600,-0.016600,0.008100,0.008100,-0.016600,0.016600,-0.008100,0.0*
1,1,0.012000,-0.012400,0.012400*
1,1,0.012000,0.012400,-0.012400*
%
%AMD105*
4,1,4,0.020900,-0.012400,-0.012400,0.020900,-0.020900,0.012400,0.012400,-0.020900,0.020900,-0.012400,0.0*
%
%ADD10C,0.010000*%
%ADD12C,0.009000*%
%ADD14C,0.015000*%
%ADD17C,0.010000*%
%ADD19C,0.014000*%
%ADD21R,0.300000X0.300000*%
%ADD32R,0.060000X0.050000*%
%ADD35O,0.060000X0.015000*%
%ADD36R,0.060000X0.015000*%
%ADD40R,0.060000X0.060000*%
%ADD41R,0.200000X0.090000*%
%ADD44R,0.030000X0.040000*%
%ADD45R,0.040000X0.030000*%
%ADD46R,0.060000X0.060000*%
G04~CAMADD=47~9~0.0~0.0~400.0~300.0~0.0~0.0~0~0.0~0.0~0.0~0.0~0~0.0~0.0~0.0~0.0~0~0.0~0.0~0.0~45.0~494.0~493.0*
%ADD47D47*%
G04~CAMADD=49~9~0.0~0.0~400.0~300.0~0.0~0.0~0~0.0~0.0~0.0~0.0~0~0.0~0.0~0.0~0.0~0~0.0~0.0~0.0~135.0~494.0~493.0*
%ADD49D49*%
%ADD50R,0.185000X0.185000*%
%ADD51C,0.008000*%
%ADD52C,0.006000*%
%ADD53C,0.028000*%
%ADD54C,0.020000*%
%ADD55C,0.012000*%
%ADD58R,0.550000X0.490000*%
%ADD60R,0.285000X0.080000*%
%ADD61R,0.135000X0.075000*%
%ADD62C,0.080000*%
%ADD63R,0.100000X0.100000*%
%ADD64C,0.040000*%
%ADD65C,0.058000*%
%ADD66R,0.058000X0.058000*%
G04~CAMADD=67~8~0.0~0.0~2130.0~2540.0~110.0~0.0~15~0.0~0.0~0.0~0.0~0~0.0~0.0~0.0~0.0~0~0.0~0.0~0.0~90.0~2540.0~2130.0*
%ADD67D67*%
%ADD68C,0.020000*%
%ADD69C,0.106000*%
%ADD70C,0.120000*%
%ADD71C,0.125000*%
%ADD72C,0.028000*%
%ADD73C,0.038000*%
%ADD74C,0.035000*%
%ADD75C,0.026000*%
%ADD98C,0.009000*%
%ADD99C,0.012000*%
%ADD100C,0.014000*%
%ADD101R,0.100000X0.154000*%
%ADD102R,0.100000X0.060000*%
%ADD103R,0.081000X0.081000*%
G04~CAMADD=104~3~0.0~0.0~470.0~120.0~0.0~0.0~0~0.0~0.0~0.0~0.0~0~0.0~0.0~0.0~0.0~0~0.0~0.0~0.0~315.0~366.0~366.0*
%ADD104D104*%
G04~CAMADD=105~9~0.0~0.0~470.0~120.0~0.0~0.0~0~0.0~0.0~0.0~0.0~0~0.0~0.0~0.0~0.0~0~0.0~0.0~0.0~315.0~418.0~417.0*
%ADD105D105*%
%ADD106O,0.047000X0.012000*%
%ADD107R,0.047000X0.012000*%
%ADD108R,0.050000X0.060000*%
%ADD109C,0.030000*%
%ADD110R,0.155000X0.085000*%
%ADD111R,0.225000X0.170000*%
%ADD112R,0.120000X0.190000*%
G54D10*
X0238Y0083D02*
D01*
D01*
G75*
G03X02364Y00837I-00017J-00018D01*
G74*G01*
X02029Y00836D02*
D01*
D01*
G75*
G03X02026Y0083I00010J-00009D01*
G74*G01*
X02075Y00851D02*
D01*
D01*
G75*
G03X02109Y00837I00033J00033D01*
G74*G01*
X02075Y00851D02*
D01*
D01*
G75*
G03X02109Y00837I00033J00033D01*
G74*G01*
X02075Y00851D02*
D01*
D01*
G75*
G03X02109Y00837I00033J00033D01*
G74*G01*
X02075Y00851D02*
D01*
D01*
G75*
G03X02109Y00837I00033J00033D01*
G74*G01*
X02075Y00851D02*
D01*
D01*
G75*
G03X02109Y00837I00033J00033D01*
G74*G01*
X02075Y00851D02*
D01*
D01*
G75*
G03X02109Y00837I00033J00033D01*
G74*G01*
X02075Y00851D02*
D01*
D01*
G75*
G03X02109Y00837I00033J00033D01*
G74*G01*
X02075Y00851D02*
D01*
D01*
G75*
G03X02109Y00837I00033J00033D01*
G74*G01*
X01559D02*
D01*
D01*
G75*
G03X01556Y00831I00010J-00009D01*
G74*G01*
X01604Y00851D02*
D01*
D01*
G75*
G03X01638Y00837I00033J00033D01*
G74*G01*
X01604Y00851D02*
D01*
D01*
G75*
G03X01638Y00837I00033J00033D01*
G74*G01*
X01604Y00851D02*
D01*
D01*
G75*
G03X01638Y00837I00033J00033D01*
G74*G01*
X01604Y00851D02*
D01*
D01*
G75*
G03X01638Y00837I00033J00033D01*
G74*G01*
X01604Y00851D02*
D01*
D01*
G75*
G03X01638Y00837I00033J00033D01*
G74*G01*
X01604Y00851D02*
D01*
D01*
G75*
G03X01638Y00837I00033J00033D01*
G74*G01*
X01604Y00851D02*
D01*
D01*
G75*
G03X01638Y00837I00033J00033D01*
G74*G01*
X01604Y00851D02*
D01*
D01*
G75*
G03X01638Y00837I00033J00033D01*
G74*G01*
X02493Y02927D02*
X02525D01*
X02384Y02722D02*
X02408Y02746D01*
X02044Y02507D02*
X02066Y02485D01*
X01481Y02251D02*
X0151Y0228D01*
X01155Y04455D02*
X01175Y04422D01*
X00773Y01699D02*
X00798Y01724D01*
X00726Y01699D02*
X00773D01*
X01253Y01516D02*
X01285D01*
X01381Y03107D02*
X01411Y03137D01*
X01357Y03107D02*
X01381D01*
X01353Y03111D02*
X01357Y03107D01*
X00579Y00251D02*
X00616Y00288D01*
Y00318*
X00553Y00225D02*
X00579Y00251D01*
X00513Y00225D02*
X00553D01*
X01143Y00251D02*
X01187Y00295D01*
Y00319*
X01118Y00226D02*
X01143Y00251D01*
X01084Y00226D02*
X01118D01*
X01237Y00651D02*
X01274Y00688D01*
Y00719*
X01212Y00626D02*
X01237Y00651D01*
X01171Y00626D02*
X01212D01*
X01231Y01102D02*
X01275Y01146D01*
Y01169*
X01205Y01076D02*
X01231Y01102D01*
X01176Y01076D02*
X01205D01*
X01223Y01486D02*
X01253Y01516D01*
X00591Y01341D02*
X00628Y01378D01*
X00633*
X00411Y01699D02*
X00458D01*
X00483Y01724*
X00056Y03155D02*
X00108D01*
X00124Y03139*
X0053Y0292D02*
X00569Y02959D01*
X00512Y0292D02*
X0053D01*
X00511Y02919D02*
X00512Y0292D01*
X00497Y02919D02*
X00511D01*
X00474Y02942D02*
X00497Y02919D01*
X00138Y02765D02*
Y02767D01*
X00169Y02798*
X00374Y02726D02*
X00394Y02706D01*
X00374Y02726D02*
Y02739D01*
X00342Y02337D02*
X00387Y02382D01*
Y02401*
X00311Y02306D02*
X00342Y02337D01*
X00284Y02306D02*
X00311D01*
X00851Y02339D02*
X00887Y02375D01*
Y02401*
X00814Y02302D02*
X00851Y02339D01*
X00787Y02302D02*
X00814D01*
X01684Y02152D02*
X01707Y02129D01*
X01684Y02152D02*
Y02161D01*
X01481Y02231D02*
Y02251D01*
X01328Y02209D02*
X01354Y02235D01*
Y02236*
X0212Y02125D02*
X02156Y02161D01*
X02154D02*
Y02181D01*
X01791Y02365D02*
X01811Y02345D01*
X01763Y02365D02*
X01791D01*
X02055Y02485D02*
X02069D01*
X01706Y02717D02*
Y02722D01*
X01681Y02747D02*
X01706Y02722D01*
X02381D02*
X02384D01*
X02138Y02767D02*
X02141D01*
X0217Y02796*
X02525Y02927D02*
X02565Y02967D01*
X02478Y02942D02*
X02493Y02927D01*
X02475Y02942D02*
X02478D01*
X02069Y03114D02*
X02102D01*
X0213Y03142*
X01841Y02912D02*
X01861Y02932D01*
X01793Y02912D02*
X01841D01*
X01763Y02942D02*
X01793Y02912D01*
X01548Y02767D02*
Y02768D01*
X01521Y02795D02*
X01548Y02768D01*
X01599Y0081D02*
X01639D01*
X01559Y00837D02*
X01573Y00852D01*
X02062Y00818D02*
X0207Y0081D01*
X0211*
X02029Y00836D02*
X02043Y00851D01*
X0213Y01193D02*
X02144D01*
X02162Y01175*
X02208Y01129D02*
X02218Y01119D01*
Y0108D02*
Y01119D01*
X01688Y01099D02*
X01714Y01125D01*
X0176Y01171D02*
X01769D01*
X01791Y01193*
X01875Y0224D02*
X01895Y0226D01*
X01835Y0224D02*
X01875D01*
X02043Y00851D02*
X02075D01*
X02109Y00837D02*
X0211D01*
X01591Y00818D02*
X01599Y0081D01*
X01559Y00837D02*
D01*
X01572Y00851D02*
X01604D01*
X01638Y00837D02*
X01639D01*
X01809D02*
X01888D01*
G54D12*
X02316Y04412D02*
D01*
D01*
G75*
G03X02314Y04413I-00003J-00003D01*
G74*G01*
X01277Y03964D02*
D01*
D01*
G75*
G03X01279Y03963I00003J00003D01*
G74*G01*
X0192Y04542D02*
D01*
D01*
G75*
G02X01921Y04543I00002J-00001D01*
G74*G01*
X02182Y04545D02*
D01*
D01*
G75*
G03X02183Y04544I0J-0D01*
G74*G01*
X02545Y00482D02*
X02558D01*
X0197Y00485D02*
X01983D01*
X01462Y00494D02*
Y00507D01*
X01822Y04491D02*
X01937D01*
X0196Y04514*
X0145Y03872D02*
X01671D01*
X01673Y03875*
X00809Y03994D02*
Y04071D01*
X01435Y00805D02*
X01461Y00831D01*
X01475*
X005Y0456D02*
X0056Y045D01*
X0057*
X02316Y04412D02*
D01*
D01*
X02347Y04382D01*
X02465Y00464D02*
X0249Y00489D01*
X02183Y04544D02*
D01*
X02214Y04513*
X01134Y0361D02*
X01161D01*
X01109Y03635D02*
X01134Y0361D01*
X0069Y03995D02*
Y04031D01*
X00697Y04038*
X02328Y02805D02*
Y02865D01*
Y02745D02*
Y02805D01*
X02303Y0289D02*
X02328Y02865D01*
X02393Y02807D02*
Y02926D01*
X02435Y02968*
X02475*
X02182Y04516D02*
X022Y04499D01*
X0215Y04522D02*
X02156Y04516D01*
X02182*
X01924Y0454D02*
Y0456D01*
X01902Y04582D02*
X01924Y0456D01*
X01788Y0441D02*
Y04433D01*
X01776Y04445D02*
X01788Y04433D01*
X01948Y04628D02*
X01976Y04656D01*
X0119Y03704D02*
X01223D01*
X01164Y0373D02*
X0119Y03704D01*
X01199Y03815D02*
X01223Y03839D01*
X01183Y04527D02*
X0122D01*
X0118Y0453D02*
X01183Y04527D01*
X00238Y04212D02*
X00258D01*
X02305Y02892D02*
Y0294D01*
Y02892D02*
X0233Y02867D01*
X01591Y02892D02*
Y0294D01*
Y02892D02*
X01616Y02867D01*
X01595Y02315D02*
X01619Y02291D01*
X0087Y0459D02*
X0088Y046D01*
X009*
X0096Y04595D02*
X00999D01*
X00843Y04321D02*
X00887D01*
X00798Y04276D02*
X00843Y04321D01*
X01186Y04276D02*
X01222Y0424D01*
X0123*
X00947Y04042D02*
Y04063D01*
X01012D02*
X01026Y04049D01*
Y04036D02*
Y04049D01*
X00684Y04122D02*
Y04145D01*
Y04122D02*
X00697Y04109D01*
X00725Y04081D02*
X00734D01*
X00697Y04109D02*
X00725Y04081D01*
X01072Y03973D02*
Y0399D01*
X01026Y04036D02*
X01072Y0399D01*
X00937Y03973D02*
X00947Y03983D01*
X01058Y0379D02*
Y03823D01*
X0106Y03825*
X0091Y0382D02*
Y03826D01*
X00862Y03874D02*
X0091Y03826D01*
X01956Y00686D02*
X01965Y00695D01*
Y00715*
X0217Y0038D02*
X02196Y00406D01*
X01518Y0038D02*
X01544Y00406D01*
X02515Y00694D02*
Y00714D01*
X02506Y00685D02*
X02515Y00694D01*
X02378Y00515D02*
X02435D01*
X0245Y005*
X0247*
X0248Y0049*
X01806Y00515D02*
X01873D01*
X01905Y00484*
X02022Y00528D02*
X02035D01*
X0201Y0054D02*
X02022Y00528D01*
X01983Y00485D02*
X01995Y00474D01*
X0145Y00482D02*
X01462Y00494D01*
X02558Y00482D02*
X0257Y0047D01*
X0188Y00459D02*
X01905Y00484D01*
X0188Y00455D02*
Y00459D01*
X02465Y0046D02*
Y00464D01*
X01723Y02968D02*
X01763D01*
X01681Y02926D02*
X01723Y02968D01*
X01681Y02807D02*
Y02867D01*
Y02926*
X01616Y02747D02*
Y02807D01*
Y02867*
X01595Y02315D02*
Y02365D01*
X0181Y03019D02*
X01813D01*
X02136Y0073D02*
X0214D01*
X0211Y00756D02*
X02136Y0073D01*
X0162Y0072D02*
Y00744D01*
G54D14*
X02318Y04352D02*
D01*
D01*
G75*
G03X02231Y0435I-00042J-00045D01*
G74*G01*
X02189Y04396D02*
D01*
D01*
G75*
G03X02186Y04485I-00046J00043D01*
G74*G01*
X00794Y042D02*
X00824Y0417D01*
X01115*
X0075Y042D02*
X00794D01*
X01115Y0417D02*
X0116Y04215D01*
X01175Y04422D02*
X01186Y04411D01*
G54D17*
X02029Y00836D03*
D03*
D03*
D03*
D03*
D03*
D03*
D03*
X01559Y00837D03*
D03*
D03*
D03*
D03*
D03*
D03*
D03*
G54D19*
X01857Y00805D02*
D01*
D01*
G75*
G03X01845Y0081I-00012J-00012D01*
G74*G01*
X02329Y00806D02*
D01*
D01*
G75*
G03X02316Y00811I-00012J-00012D01*
G74*G01*
X01609Y00407D02*
D01*
D01*
G75*
G03X01619Y00431I-00024J00024D01*
G74*G01*
X01609Y00407D02*
D01*
D01*
G75*
G03X01619Y00431I-00024J00024D01*
G74*G01*
X01609Y00407D02*
D01*
D01*
G75*
G03X01619Y00431I-00024J00024D01*
G74*G01*
X01609Y00407D02*
D01*
D01*
G75*
G03X01619Y00431I-00024J00024D01*
G74*G01*
X01684Y00346D02*
D01*
D01*
G75*
G03X01655Y00275I00068J-00069D01*
G74*G01*
X018Y00461D02*
D01*
D01*
G75*
G03X01806Y00474I-00014J00014D01*
G74*G01*
X02405Y00413D02*
D01*
D01*
G75*
G03X02381Y00474I-00090J-0D01*
G74*G01*
X0182Y00733D02*
D01*
D01*
G75*
G03X01809Y0076I-00039J-0D01*
G74*G01*
X0182Y00733D02*
D01*
D01*
G75*
G03X01809Y0076I-00039J-0D01*
G74*G01*
X0182Y00733D02*
D01*
D01*
G75*
G03X01809Y0076I-00039J-0D01*
G74*G01*
X0182Y00733D02*
D01*
D01*
G75*
G03X01809Y0076I-00039J-0D01*
G74*G01*
X01872D02*
D01*
D01*
G75*
G03X01889Y0077I-0J00020D01*
G74*G01*
X01872Y0076D02*
D01*
D01*
G75*
G03X01889Y0077I-0J00020D01*
G74*G01*
X01872Y0076D02*
D01*
D01*
G75*
G03X01889Y0077I-0J00020D01*
G74*G01*
X01872Y0076D02*
D01*
D01*
G75*
G03X01889Y0077I-0J00020D01*
G74*G01*
X0182Y00619D02*
D01*
D01*
G75*
G03X0186Y00603I00038J00038D01*
G74*G01*
X01892Y00686D02*
D01*
D01*
G75*
G03X01886Y00672I00015J-00014D01*
G74*G01*
X02373Y00618D02*
D01*
D01*
G75*
G03X02411Y00602I00038J00039D01*
G74*G01*
X02373Y00618D02*
D01*
D01*
G75*
G03X02411Y00602I00038J00039D01*
G74*G01*
X02373Y00618D02*
D01*
D01*
G75*
G03X02411Y00602I00038J00039D01*
G74*G01*
X02373Y00618D02*
D01*
D01*
G75*
G03X02411Y00602I00038J00039D01*
G74*G01*
X02443Y00682D02*
D01*
D01*
G75*
G03X02442Y00686I-00027J-00004D01*
G74*G01*
X02443Y00682D02*
D01*
D01*
G75*
G03X02442Y00686I-00027J-00004D01*
G74*G01*
X02443Y00682D02*
D01*
D01*
G75*
G03X02442Y00686I-00027J-00004D01*
G74*G01*
X02443Y00682D02*
D01*
D01*
G75*
G03X02442Y00686I-00027J-00004D01*
G74*G01*
X02443Y00682D02*
D01*
D01*
G75*
G03X02442Y00686I-00027J-00004D01*
G74*G01*
X02443Y00682D02*
D01*
D01*
G75*
G03X02442Y00686I-00027J-00004D01*
G74*G01*
X02443Y00682D02*
D01*
D01*
G75*
G03X02442Y00686I-00027J-00004D01*
G74*G01*
X02443Y00682D02*
D01*
D01*
G75*
G03X02442Y00686I-00027J-00004D01*
G74*G01*
X02373Y00618D02*
D01*
D01*
G75*
G03X02411Y00602I00038J00039D01*
G74*G01*
X02373Y00618D02*
D01*
D01*
G75*
G03X02411Y00602I00038J00039D01*
G74*G01*
X02373Y00618D02*
D01*
D01*
G75*
G03X02411Y00602I00038J00039D01*
G74*G01*
X02373Y00618D02*
D01*
D01*
G75*
G03X02411Y00602I00038J00039D01*
G74*G01*
X01872Y0076D02*
D01*
D01*
G75*
G03X01889Y0077I-0J00020D01*
G74*G01*
X01872Y0076D02*
D01*
D01*
G75*
G03X01889Y0077I-0J00020D01*
G74*G01*
X01872Y0076D02*
D01*
D01*
G75*
G03X01889Y0077I-0J00020D01*
G74*G01*
X01872Y0076D02*
D01*
D01*
G75*
G03X01889Y0077I-0J00020D01*
G74*G01*
X0182Y00733D02*
D01*
D01*
G75*
G03X01809Y0076I-00039J-0D01*
G74*G01*
X0182Y00733D02*
D01*
D01*
G75*
G03X01809Y0076I-00039J-0D01*
G74*G01*
X0182Y00733D02*
D01*
D01*
G75*
G03X01809Y0076I-00039J-0D01*
G74*G01*
X0182Y00733D02*
D01*
D01*
G75*
G03X01809Y0076I-00039J-0D01*
G74*G01*
X01609Y00407D02*
D01*
D01*
G75*
G03X01619Y00431I-00024J00024D01*
G74*G01*
X01609Y00407D02*
D01*
D01*
G75*
G03X01619Y00431I-00024J00024D01*
G74*G01*
X01609Y00407D02*
D01*
D01*
G75*
G03X01619Y00431I-00024J00024D01*
G74*G01*
X01609Y00407D02*
D01*
D01*
G75*
G03X01619Y00431I-00024J00024D01*
G74*G01*
X02367Y0076D02*
D01*
D01*
G75*
G03X02373Y00761I-0J00019D01*
G74*G01*
X02367Y0076D02*
D01*
D01*
G75*
G03X02373Y00761I-0J00019D01*
G74*G01*
X02367Y0076D02*
D01*
D01*
G75*
G03X02373Y00761I-0J00019D01*
G74*G01*
X02367Y0076D02*
D01*
D01*
G75*
G03X02373Y00761I-0J00019D01*
G74*G01*
X02367Y0076D02*
D01*
D01*
G75*
G03X02373Y00761I-0J00019D01*
G74*G01*
X02367Y0076D02*
D01*
D01*
G75*
G03X02373Y00761I-0J00019D01*
G74*G01*
X02367Y0076D02*
D01*
D01*
G75*
G03X02373Y00761I-0J00019D01*
G74*G01*
X02367Y0076D02*
D01*
D01*
G75*
G03X02373Y00761I-0J00019D01*
G74*G01*
D01*
D01*
G75*
G03X0238Y00765I-00011J00027D01*
G74*G01*
X02373Y00761D02*
D01*
D01*
G75*
G03X0238Y00765I-00011J00027D01*
G74*G01*
X02373Y00761D02*
D01*
D01*
G75*
G03X0238Y00765I-00011J00027D01*
G74*G01*
X02373Y00761D02*
D01*
D01*
G75*
G03X0238Y00765I-00011J00027D01*
G74*G01*
X02373Y00761D02*
D01*
D01*
G75*
G03X0238Y00765I-00011J00027D01*
G74*G01*
X02373Y00761D02*
D01*
D01*
G75*
G03X0238Y00765I-00011J00027D01*
G74*G01*
X02373Y00761D02*
D01*
D01*
G75*
G03X0238Y00765I-00011J00027D01*
G74*G01*
D01*
D01*
G75*
G03X02379Y00763I00003J-00003D01*
G74*G01*
X0238Y00765D02*
D01*
D01*
G75*
G03X02379Y00763I00003J-00003D01*
G74*G01*
X0238Y00765D02*
D01*
D01*
G75*
G03X02379Y00763I00003J-00003D01*
G74*G01*
X02373Y00761D02*
D01*
D01*
G75*
G03X0238Y00765I-00011J00027D01*
G74*G01*
D01*
D01*
G75*
G03X02379Y00763I00003J-00003D01*
G74*G01*
X0238Y00765D02*
D01*
D01*
G75*
G03X02379Y00763I00003J-00003D01*
G74*G01*
X0238Y00765D02*
D01*
D01*
G75*
G03X02379Y00763I00003J-00003D01*
G74*G01*
X0238Y00765D02*
D01*
D01*
G75*
G03X02379Y00763I00003J-00003D01*
G74*G01*
X0238Y00765D02*
D01*
D01*
G75*
G03X02379Y00763I00003J-00003D01*
G74*G01*
X01967Y00761D02*
D01*
D01*
G75*
G03X0199Y00752I00021J00021D01*
G74*G01*
X01967Y00761D02*
D01*
D01*
G75*
G03X0199Y00752I00021J00021D01*
G74*G01*
X01967Y00761D02*
D01*
D01*
G75*
G03X0199Y00752I00021J00021D01*
G74*G01*
X01967Y00761D02*
D01*
D01*
G75*
G03X0199Y00752I00021J00021D01*
G74*G01*
X01967Y00761D02*
D01*
D01*
G75*
G03X0199Y00752I00021J00021D01*
G74*G01*
X01967Y00761D02*
D01*
D01*
G75*
G03X0199Y00752I00021J00021D01*
G74*G01*
X01967Y00761D02*
D01*
D01*
G75*
G03X0199Y00752I00021J00021D01*
G74*G01*
X01967Y00761D02*
D01*
D01*
G75*
G03X0199Y00752I00021J00021D01*
G74*G01*
X02101D02*
D01*
D01*
G75*
G03X0211Y00756I0J00010D01*
G74*G01*
X02101Y00752D02*
D01*
D01*
G75*
G03X0211Y00756I0J00010D01*
G74*G01*
X02101Y00752D02*
D01*
D01*
G75*
G03X0211Y00756I0J00010D01*
G74*G01*
X02101Y00752D02*
D01*
D01*
G75*
G03X0211Y00756I0J00010D01*
G74*G01*
X02101Y00752D02*
D01*
D01*
G75*
G03X0211Y00756I0J00010D01*
G74*G01*
X02101Y00752D02*
D01*
D01*
G75*
G03X0211Y00756I0J00010D01*
G74*G01*
X02101Y00752D02*
D01*
D01*
G75*
G03X0211Y00756I0J00010D01*
G74*G01*
X02101Y00752D02*
D01*
D01*
G75*
G03X0211Y00756I0J00010D01*
G74*G01*
X0149Y00766D02*
D01*
D01*
G75*
G03X01496Y00762I00011J00011D01*
G74*G01*
D01*
D01*
G75*
G03X01505Y0076I00008J00018D01*
G74*G01*
X0149Y00766D02*
D01*
D01*
G75*
G03X01496Y00762I00011J00011D01*
G74*G01*
X0149Y00766D02*
D01*
D01*
G75*
G03X01496Y00762I00011J00011D01*
G74*G01*
X0149Y00766D02*
D01*
D01*
G75*
G03X01496Y00762I00011J00011D01*
G74*G01*
D01*
D01*
G75*
G03X01505Y0076I00008J00018D01*
G74*G01*
X01496Y00762D02*
D01*
D01*
G75*
G03X01505Y0076I00008J00018D01*
G74*G01*
X01496Y00762D02*
D01*
D01*
G75*
G03X01505Y0076I00008J00018D01*
G74*G01*
X01496Y00762D02*
D01*
D01*
G75*
G03X01518Y00753I00022J00024D01*
G74*G01*
X01496Y00762D02*
D01*
D01*
G75*
G03X01518Y00753I00022J00024D01*
G74*G01*
X01496Y00762D02*
D01*
D01*
G75*
G03X01518Y00753I00022J00024D01*
G74*G01*
X0149Y00766D02*
D01*
D01*
G75*
G03X01496Y00762I00011J00011D01*
G74*G01*
X01495D02*
D01*
D01*
G75*
G03X01496I0J0D01*
G74*G01*
X01495D02*
D01*
D01*
G75*
G03X01496I0J0D01*
G74*G01*
X0149Y00766D02*
D01*
D01*
G75*
G03X01496Y00762I00011J00011D01*
G74*G01*
X0149Y00766D02*
D01*
D01*
G75*
G03X01496Y00762I00011J00011D01*
G74*G01*
X0149Y00766D02*
D01*
D01*
G75*
G03X01496Y00762I00011J00011D01*
G74*G01*
X01495D02*
D01*
D01*
G75*
G03X01496I0J0D01*
G74*G01*
X01495D02*
D01*
D01*
G75*
G03X01496I0J0D01*
G74*G01*
X01495D02*
D01*
D01*
G75*
G03X01496I0J0D01*
G74*G01*
X01495D02*
D01*
D01*
G75*
G03X01496I0J0D01*
G74*G01*
X01495D02*
D01*
D01*
G75*
G03X01496I0J0D01*
G74*G01*
X01495D02*
D01*
D01*
G75*
G03X01496I0J0D01*
G74*G01*
D01*
D01*
G75*
G03X01518Y00753I00022J00024D01*
G74*G01*
X01496Y00762D02*
D01*
D01*
G75*
G03X01518Y00753I00022J00024D01*
G74*G01*
X01496Y00762D02*
D01*
D01*
G75*
G03X01518Y00753I00022J00024D01*
G74*G01*
X01629D02*
D01*
D01*
G75*
G03X01638Y00757I0J00010D01*
G74*G01*
X01629Y00753D02*
D01*
D01*
G75*
G03X01638Y00757I0J00010D01*
G74*G01*
X01496Y00762D02*
D01*
D01*
G75*
G03X01505Y0076I00008J00018D01*
G74*G01*
X01496Y00762D02*
D01*
D01*
G75*
G03X01505Y0076I00008J00018D01*
G74*G01*
X01496Y00762D02*
D01*
D01*
G75*
G03X01505Y0076I00008J00018D01*
G74*G01*
X01496Y00762D02*
D01*
D01*
G75*
G03X01518Y00753I00022J00024D01*
G74*G01*
X01496Y00762D02*
D01*
D01*
G75*
G03X01518Y00753I00022J00024D01*
G74*G01*
X01496Y00762D02*
D01*
D01*
G75*
G03X01505Y0076I00008J00018D01*
G74*G01*
X01629Y00753D02*
D01*
D01*
G75*
G03X01638Y00757I0J00010D01*
G74*G01*
X01629Y00753D02*
D01*
D01*
G75*
G03X01638Y00757I0J00010D01*
G74*G01*
X01629Y00753D02*
D01*
D01*
G75*
G03X01638Y00757I0J00010D01*
G74*G01*
X01629Y00753D02*
D01*
D01*
G75*
G03X01638Y00757I0J00010D01*
G74*G01*
X01629Y00753D02*
D01*
D01*
G75*
G03X01638Y00757I0J00010D01*
G74*G01*
X01629Y00753D02*
D01*
D01*
G75*
G03X01638Y00757I0J00010D01*
G74*G01*
X02405Y00181D02*
Y00413D01*
X01684Y00346D02*
X01745Y00406D01*
X02192Y00476D02*
X02261Y00407D01*
X0182Y00684D02*
Y00733D01*
X01745Y00406D02*
X018Y00461D01*
X01655Y00181D02*
Y00275D01*
X01809Y0081D02*
X01845D01*
X0228Y00811D02*
X02316D01*
X02443Y00602D02*
Y00682D01*
X02411Y00602D02*
X02443D01*
X01886Y00603D02*
Y00672D01*
X0186Y00603D02*
X01886D01*
X01809Y0076D02*
X01872D01*
X02261Y00407D02*
X02332D01*
X01619Y00431D02*
Y00476D01*
X01609Y00407D02*
X01681D01*
X00474Y02968D02*
X0052D01*
X00474Y03019D02*
X0052D01*
Y02968D02*
Y02993D01*
Y03019*
X00474Y02993D02*
X0052D01*
Y03019D02*
X00569Y03068D01*
Y03094*
X00418Y02968D02*
X00474D01*
X00374Y02924D02*
X00418Y02968D01*
X00374Y02804D02*
Y02869D01*
Y02924*
X00309Y02739D02*
Y02804D01*
Y02869*
Y02937*
X00116Y02885D02*
X00219D01*
X00234Y02798D02*
Y0287D01*
X00219Y02885D02*
X00234Y0287D01*
X00259Y03139D02*
X00263Y03135D01*
X00219Y02968D02*
Y02975D01*
X00235*
Y02993D02*
Y03019D01*
Y02993D02*
X00304D01*
X00263Y03019D02*
Y03135D01*
X00235Y03019D02*
X00263D01*
X00304*
X00219Y02968D02*
X00304D01*
X00235Y02975D02*
Y02993D01*
X0228Y00837D02*
X02364D01*
X02068Y00786D02*
X0211D01*
X0228Y0076D02*
X02365D01*
X02373Y00683D02*
Y00761D01*
Y00763*
X0199Y00752D02*
X02101D01*
X01518Y00753D02*
X01629D01*
G54D21*
X00314Y03967D03*
G54D32*
X0108Y028D03*
X0117D03*
Y02905D03*
X0108D03*
X0091Y0299D03*
X0082D03*
Y03095D03*
X0091D03*
X02024Y02398D03*
X02114D03*
X02111Y0229D03*
X02021D03*
G54D35*
X0211Y00785D03*
Y0081D03*
X0228Y00759D03*
Y00785D03*
Y0081D03*
X0211Y00836D03*
X0228D03*
X01639Y00785D03*
Y0081D03*
X01809Y00759D03*
Y00785D03*
Y0081D03*
X01639Y00836D03*
X01809D03*
X01593Y02365D03*
X01763D03*
X01593Y02391D03*
Y02416D03*
Y02442D03*
X01763Y02391D03*
Y02416D03*
X00773Y01527D03*
X00943D03*
X00773Y01553D03*
Y01578D03*
Y01604D03*
X00943Y01553D03*
Y01578D03*
X01593Y02942D03*
X01763D03*
X01593Y02968D03*
Y02993D03*
Y03019D03*
X01763Y02968D03*
Y02993D03*
X02305Y02942D03*
X02475D03*
X02305Y02968D03*
Y02993D03*
Y03019D03*
X02475Y02968D03*
Y02993D03*
X00304Y02942D03*
X00474D03*
X00304Y02968D03*
Y02993D03*
Y03019D03*
X00474Y02968D03*
Y02993D03*
G54D36*
X0211Y00759D03*
X01639D03*
X01763Y02442D03*
X00943Y01604D03*
X01763Y03019D03*
X02475D03*
X00474D03*
G54D40*
X00937Y03973D03*
X01072D03*
X00825Y03995D03*
X0069D03*
X01088Y01486D03*
X01223D03*
X00618Y01724D03*
X00483D03*
X02265Y03142D03*
X0213D03*
X01546Y03137D03*
X01411D03*
X0108Y03015D03*
X01215D03*
X0091Y03205D03*
X00775D03*
X0122Y04527D03*
X01355D03*
X00259Y03139D03*
X00124D03*
X02019Y02181D03*
X02154D03*
X00974Y03635D03*
X01109D03*
X00862Y03874D03*
X00997D03*
G54D41*
X03852Y05041D03*
Y05381D03*
Y04056D03*
Y04396D03*
Y03072D03*
Y03412D03*
Y02088D03*
Y02428D03*
Y01104D03*
Y01444D03*
Y00119D03*
Y00459D03*
G54D44*
X0029Y0452D03*
Y04585D03*
X01916Y04081D03*
Y04016D03*
X02189Y04081D03*
Y04016D03*
X0149Y00831D03*
Y00766D03*
X02026Y00765D03*
Y0083D03*
X01556Y00766D03*
Y00831D03*
X019Y00765D03*
Y0083D03*
X01885Y00552D03*
Y00617D03*
X0182Y00618D03*
Y00683D03*
X02443Y00551D03*
Y00616D03*
X02372Y00617D03*
Y00682D03*
X02379Y00765D03*
Y0083D03*
X01962D03*
Y00765D03*
X0126Y0292D03*
Y02855D03*
X0073Y0311D03*
Y03045D03*
X00903Y03788D03*
Y03723D03*
X01137D03*
Y03788D03*
X0087Y0459D03*
Y04525D03*
X01096Y04386D03*
Y04321D03*
X00887D03*
Y04256D03*
G54D45*
X0378Y0157D03*
X03715D03*
X0378Y0196D03*
X03715D03*
X01683Y02164D03*
X01618D03*
X0318Y0196D03*
X03115D03*
X0318Y0157D03*
X03115D03*
X0348Y0196D03*
X03415D03*
X0348Y0157D03*
X03415D03*
X01012Y04063D03*
X00947D03*
X01783Y04212D03*
X01718D03*
X01791Y04054D03*
X01726D03*
X02022Y03885D03*
X02087D03*
X01544Y00406D03*
X01609D03*
X0168D03*
X01745D03*
X01956Y00686D03*
X01891D03*
X02332Y00406D03*
X02397D03*
X02506Y00685D03*
X02441D03*
X02196Y00406D03*
X02261D03*
X01684Y02226D03*
X01619D03*
Y02291D03*
X01684D03*
X01354Y02236D03*
X01419D03*
X00798Y01324D03*
X00863D03*
X00633Y01378D03*
X00698D03*
X00863Y01389D03*
X00798D03*
Y01454D03*
X00863D03*
X0217Y02796D03*
X02235D03*
X01521Y02795D03*
X01456D03*
X01616Y02747D03*
X01681D03*
X01616Y02867D03*
X01681D03*
Y02807D03*
X01616D03*
X01176Y01076D03*
X01111D03*
X01084Y00226D03*
X01019D03*
X00513Y00225D03*
X00448D03*
X01171Y00626D03*
X01106D03*
X02395Y02807D03*
X0233D03*
Y02867D03*
X02395D03*
X0233Y02747D03*
X02395D03*
X00309Y02869D03*
X00374D03*
X00169Y02798D03*
X00234D03*
X00309Y02739D03*
X00374D03*
Y02804D03*
X00309D03*
X0207Y02485D03*
X02135D03*
X00684Y04145D03*
X00749D03*
X00999Y04595D03*
X01064D03*
X00734Y04081D03*
X00799D03*
X01058Y0379D03*
X00993D03*
X0146Y00507D03*
X01525D03*
X0197Y00484D03*
X01905D03*
X02035Y00528D03*
X021D03*
X02545Y0049D03*
X0248D03*
X00787Y02302D03*
X00722D03*
X00284Y02306D03*
X00219D03*
G54D46*
X01505Y02415D03*
Y0228D03*
X01895Y02395D03*
Y0226D03*
X01861Y03067D03*
Y02932D03*
X01275Y01304D03*
Y01169D03*
X01187Y00319D03*
Y00454D03*
X00616Y00453D03*
Y00318D03*
X01274Y00854D03*
Y00719D03*
X02565Y03102D03*
Y02967D03*
X00569Y03094D03*
Y02959D03*
X01223Y03704D03*
Y03839D03*
X00798Y04411D03*
Y04276D03*
X01186D03*
Y04411D03*
X00887Y02401D03*
Y02536D03*
X00387D03*
Y02401D03*
G54D47*
X02162Y04144D03*
X02208Y0419D03*
X01902Y04582D03*
X01948Y04628D03*
X01776Y04445D03*
X01822Y04491D03*
X01714Y01125D03*
X0176Y01171D03*
G54D49*
X01889Y04194D03*
X01934Y04148D03*
X02208Y01129D03*
X02162Y01175D03*
X02662Y04257D03*
X02616Y04303D03*
X0261Y04207D03*
X02564Y04252D03*
G54D50*
X02053Y04022D03*
G54D51*
X0347Y0321D02*
X0375D01*
X0306Y028D02*
X0347Y0321D01*
X0302Y0445D02*
X0375Y0518D01*
X0302Y026D02*
Y0445D01*
X0304Y0349D02*
X0375Y042D01*
X0304Y0259D02*
Y0349D01*
X0289Y0247D02*
X0302Y026D01*
X029Y0245D02*
X0304Y0259D01*
X0306Y0258D02*
Y028D01*
X0291Y0243D02*
X0306Y0258D01*
X0254Y0243D02*
X0291D01*
X0253Y0245D02*
X029D01*
X0252Y0247D02*
X0289D01*
X0295Y0233D02*
X0317D01*
X0291Y0237D02*
X0295Y0233D01*
X029Y0235D02*
X0294Y0231D01*
X0253Y0233D02*
X0289D01*
X0293Y0229*
X0317Y0233D02*
X0318Y0234D01*
X0359Y0227D02*
X0366Y0234D01*
X0251Y0227D02*
X0359D01*
X0345Y0229D02*
X035Y0234D01*
X0293Y0229D02*
X0345D01*
X0331Y0231D02*
X0334Y0234D01*
X0294Y0231D02*
X0331D01*
X0252Y0235D02*
X029D01*
X0251Y0237D02*
X0291D01*
X0363Y0211D02*
X0375Y0223D01*
X0229Y0224D02*
X0252Y0247D01*
X0225Y0224D02*
X0229D01*
Y0221D02*
X0253Y0245D01*
X0228Y0221D02*
X0229D01*
X02208Y02098D02*
X0254Y0243D01*
X0224Y021D02*
X0251Y0237D01*
X02271Y02101D02*
X0252Y0235D01*
X02303Y02102D02*
X0253Y0233D01*
X02208Y0209D02*
Y02098D01*
X0224Y0206D02*
Y021D01*
X02271Y0209D02*
Y02101D01*
X02303Y0206D02*
Y02102D01*
X03585Y0209D02*
X03715Y0196D01*
X0304Y0209D02*
X03585D01*
X0305Y0211D02*
X0363D01*
X0291Y0225D02*
X0305Y0211D01*
X0252Y0225D02*
X0291D01*
X029Y0223D02*
X0304Y0209D01*
X0253Y0223D02*
X029D01*
X03715Y0157D02*
Y01885D01*
X0353Y0207D02*
X03715Y01885D01*
X0285Y0207D02*
X0353D01*
X03325Y0205D02*
X03415Y0196D01*
X0284Y0205D02*
X03325D01*
X0275Y0214D02*
X0284Y0205D01*
X03415Y0157D02*
Y01885D01*
X0327Y0203D02*
X03415Y01885D01*
X0278Y0203D02*
X0327D01*
X0269Y0212D02*
X0278Y0203D01*
X03065Y0201D02*
X03115Y0196D01*
X0277Y0201D02*
X03065D01*
X0269Y0209D02*
X0277Y0201D01*
X03115Y0157D02*
Y01635D01*
X0269Y0206D02*
X03115Y01635D01*
X02334Y02094D02*
X0251Y0227D01*
X02334Y0209D02*
Y02094D01*
X02366Y02096D02*
X0252Y0225D01*
X02366Y0206D02*
Y02096D01*
X02397Y02097D02*
X0253Y0223D01*
X02397Y0209D02*
Y02097D01*
X0276Y0216D02*
X0285Y0207D01*
X0249Y0216D02*
X0276D01*
X02429Y02099D02*
X0249Y0216D01*
X02429Y0206D02*
Y02099D01*
X025Y0214D02*
X0275D01*
X0246Y02099D02*
X025Y0214D01*
X0246Y0209D02*
Y02099D01*
X0251Y0212D02*
X0269D01*
X02491Y02102D02*
X0251Y0212D01*
X02491Y0206D02*
Y02102D01*
X02523Y0209D02*
X0269D01*
X02555Y0206D02*
X0269D01*
X0378Y0157D02*
Y01666D01*
Y01866D02*
Y0196D01*
X0348Y01866D02*
Y0196D01*
Y0157D02*
Y01666D01*
X0318Y0157D02*
Y01666D01*
Y01866D02*
Y0196D01*
X0282Y012D02*
X0309D01*
X02365Y01655D02*
X0282Y012D01*
X02365Y01655D02*
Y017D01*
X0283Y0122D02*
X0323D01*
X02397Y01653D02*
X0283Y0122D01*
X02397Y01653D02*
Y01675D01*
X0254Y0163D02*
X0293Y0124D01*
X0246Y0163D02*
X0254D01*
X02428Y01662D02*
X0246Y0163D01*
X02428Y01662D02*
Y017D01*
X0255Y0165D02*
X0294Y0126D01*
X02484Y0165D02*
X0255D01*
X0246Y01675D02*
X02484Y0165D01*
X03045Y01305D02*
X0375D01*
X0268Y0167D02*
X03045Y01305D01*
X02522Y0167D02*
X0268D01*
X02491Y017D02*
X02522Y0167D01*
X03537Y0032D02*
X0375D01*
X02152Y01705D02*
X03537Y0032D01*
X0351Y0126D02*
X0358Y0119D01*
X0294Y0126D02*
X0351D01*
X0337Y0124D02*
X0342Y0119D01*
X0293Y0124D02*
X0337D01*
X0323Y0122D02*
X0326Y0119D01*
X0309Y012D02*
X031Y0119D01*
X0123Y0207D02*
X0129Y0213D01*
X0123Y0166D02*
Y0207D01*
Y0166D02*
X0125Y0164D01*
X01325Y01675D02*
Y01702D01*
X0126Y0161D02*
X01325Y01675D01*
X0115Y0161D02*
X0126D01*
X04Y0D02*
Y055D01*
X01193D02*
X04D01*
X0Y01681D02*
Y0365D01*
X00753Y0D02*
X04D01*
X0D02*
Y01681D01*
Y0D02*
X00753D01*
X0Y055D02*
X01193D01*
X0Y0365D02*
Y055D01*
G54D52*
X01931Y01853D02*
Y02046D01*
X01943Y01858D02*
Y02067D01*
X02262Y01418D02*
Y01522D01*
X01931Y01853D02*
X02262Y01522D01*
X02274Y01413D02*
Y01527D01*
X01943Y01858D02*
X02274Y01527D01*
X02286Y01407D02*
Y01532D01*
X01955Y01863D02*
X02286Y01532D01*
X01955Y01863D02*
Y02065D01*
X02408Y04071D02*
X0266Y03819D01*
X02393Y04071D02*
X02408D01*
X02365Y0406D02*
X02366Y04059D01*
X024*
X02648Y03811*
X02402Y04094D02*
X02404D01*
X02366Y04096D02*
X02368D01*
X02393Y04071*
X02439Y04099D02*
X02696Y03842D01*
Y03414D02*
Y03842D01*
X02668Y03386D02*
X02696Y03414D01*
X02668Y02901D02*
Y03386D01*
X02554Y02787D02*
X02668Y02901D01*
X02554Y02759D02*
Y02787D01*
X02546Y02751D02*
X02554Y02759D01*
X02425Y04093D02*
X02684Y03834D01*
Y03422D02*
Y03834D01*
X02654Y03392D02*
X02684Y03422D01*
X02654Y02911D02*
Y03392D01*
X02537Y0278D02*
Y02794D01*
X02654Y02911*
X0251Y02753D02*
X02537Y0278D01*
X0251Y02751D02*
Y02753D01*
X02648Y03445D02*
Y03811D01*
X02612Y03409D02*
X02648Y03445D01*
X02612Y02938D02*
Y03409D01*
X02504Y0283D02*
X02612Y02938D01*
X02472Y0283D02*
X02504D01*
X0266Y03437D02*
Y03819D01*
X02626Y03403D02*
X0266Y03437D01*
X02626Y02929D02*
Y03403D01*
X0251Y02813D02*
X02626Y02929D01*
X02499Y02813D02*
X0251D01*
X02474Y02789D02*
X02499Y02813D01*
X02404Y04094D02*
X02672Y03827D01*
Y0343D02*
Y03827D01*
X0264Y03398D02*
X02672Y0343D01*
X0264Y0292D02*
Y03398D01*
X0251Y0279D02*
X0264Y0292D01*
X02403Y04126D02*
Y0413D01*
X02439Y04099D02*
Y04128D01*
X02403Y04126D02*
X02425Y04104D01*
Y04093D02*
Y04104D01*
X02727Y03354D02*
X0276Y03387D01*
X02713Y0336D02*
X02746Y03393D01*
X02382Y04523D02*
Y04545D01*
X02267Y0466D02*
X02382Y04545D01*
X02565Y0434D02*
X0262D01*
X02382Y04523D02*
X02565Y0434D01*
X02032Y0466D02*
X02267D01*
X02727Y02814D02*
Y03354D01*
X02665Y02751D02*
X02727Y02814D01*
X02372Y0451D02*
X02675Y04207D01*
X02273Y0451D02*
X02372D01*
X02616Y04268D02*
Y04303D01*
X02016Y04621D02*
X02162D01*
X02273Y0451*
X02713Y02836D02*
Y0336D01*
X02629Y02752D02*
X02713Y02836D01*
X02257Y04498D02*
X02362D01*
X02228Y04527D02*
X02257Y04498D01*
X02564Y04252D02*
X02603D01*
X02166Y0459D02*
X02191Y04566D01*
X02228Y04528*
X01985Y0459D02*
X02166D01*
X02228Y04527D02*
Y04528D01*
X02699Y0285D02*
Y03366D01*
X02637Y02788D02*
X02699Y0285D01*
X02631Y02788D02*
X02637D01*
X0253Y04245D02*
Y04307D01*
X02428Y04409D02*
X0253Y04307D01*
X02374Y04409D02*
X02428D01*
X02685Y02859D02*
Y03371D01*
X02637Y02811D02*
X02685Y02859D01*
X02621Y02811D02*
X02637D01*
X02599Y02789D02*
X02621Y02811D01*
X02595Y02789D02*
X02599D01*
X0262Y0434D02*
X0276Y042D01*
Y03387D02*
Y042D01*
X02675Y04207D02*
X02746Y04136D01*
Y03393D02*
Y04136D01*
X02362Y04498D02*
X02732Y04128D01*
Y03399D02*
Y04128D01*
X0253Y04245D02*
X02718Y04057D01*
Y03404D02*
Y04057D01*
X02685Y03371D02*
X02718Y03404D01*
X02699Y03366D02*
X02732Y03399D01*
X01833Y03267D02*
X01835Y03265D01*
X01833Y03267D02*
D01*
X01823Y03762D02*
X01824Y0376D01*
Y037D02*
X01833Y0371D01*
X01824Y03279D02*
Y037D01*
X01823Y03759D02*
Y03762D01*
Y03749D02*
Y03759D01*
Y03749D02*
X01833Y03739D01*
Y0371D02*
Y03739D01*
X01811Y03722D02*
Y03721D01*
X018Y03267D02*
X01811Y03279D01*
Y03721*
X01824Y03279D02*
X01835Y03267D01*
X01137Y03738D02*
X01145Y0373D01*
X01815Y00555D02*
X01835Y00575D01*
X01806Y00555D02*
X01815D01*
X02165Y00535D02*
X02192D01*
X01352Y00636D02*
X01436Y00551D01*
X02164Y00555D02*
X02192D01*
X01367Y0064D02*
X01374Y00634D01*
X01426Y00581*
X01422Y00605D02*
X01756D01*
X01375Y00651D02*
X01422Y00605D01*
X02341Y00593D02*
X02379Y00555D01*
X01539Y01986D02*
Y02071D01*
X01352Y01798D02*
X01539Y01986D01*
X02093Y00566D02*
X02134D01*
X02165Y00535*
X01576Y00551D02*
X01592Y00535D01*
X01619*
X01502Y00551D02*
X01576D01*
X01436D02*
X01502D01*
X01574Y02001D02*
Y02071D01*
X01363Y0179D02*
X01574Y02001D01*
X0212Y006D02*
Y00601D01*
X01566Y00581D02*
X01587Y00559D01*
X0212Y006D02*
X02164Y00555D01*
X01587Y00559D02*
X01592Y00555D01*
X01587Y00559D02*
D01*
X01592Y00555D02*
X01619D01*
X01466Y00581D02*
X01566D01*
X01426D02*
X01466D01*
X01609Y02016D02*
Y02071D01*
X01375Y01783D02*
X01609Y02016D01*
X01756Y00605D02*
X01806Y00555D01*
X0165Y02038D02*
Y02071D01*
X01394Y01782D02*
X0165Y02038D01*
X02146Y00641D02*
X02194Y00593D01*
X02341*
X01418Y0063D02*
X015D01*
X01352Y00636D02*
Y01798D01*
X01363Y00644D02*
Y0179D01*
Y00644D02*
X01374Y00634D01*
X01375Y00651D02*
Y01783D01*
X01388Y0066D02*
Y01776D01*
X01394Y01782*
X01388Y0066D02*
X01418Y0063D01*
X02178Y03722D02*
X02198Y03702D01*
Y03313D02*
Y03702D01*
X0219Y03759D02*
X0221Y03739D01*
Y0327D02*
Y03739D01*
X02152Y03267D02*
X02198Y03313D01*
X02208Y03267D02*
X0221Y0327D01*
X01876Y03281D02*
Y03708D01*
Y03281D02*
X01888Y03269D01*
Y03247D02*
Y03269D01*
Y03296D02*
Y03711D01*
Y03296D02*
X01913Y03272D01*
X01958Y03319D02*
X01994Y03283D01*
X01958Y03319D02*
Y03708D01*
X01994Y03247D02*
Y03283D01*
X0194Y03714D02*
X01941Y03716D01*
X01946Y03711*
Y03294D02*
X01968Y03272D01*
X01946Y03294D02*
Y03711D01*
X01941Y03716D02*
Y03722D01*
X01963Y03713D02*
Y03731D01*
X01958Y03708D02*
X01963Y03713D01*
X01953Y03741D02*
Y03759D01*
Y03741D02*
X01963Y03731D01*
X02039Y03261D02*
Y0371D01*
Y03261D02*
X02051Y0325D01*
X02027Y03239D02*
Y03708D01*
X02021Y03232D02*
X02027Y03239D01*
X02042Y03713D02*
Y03731D01*
X02039Y0371D02*
X02042Y03713D01*
X02032Y03741D02*
Y03759D01*
Y03741D02*
X02042Y03731D01*
X0202Y03716D02*
X02027Y03708D01*
X0202Y03716D02*
Y03722D01*
X02019Y03714D02*
X0202Y03716D01*
X02292Y03977D02*
X0241Y03859D01*
X02329Y03957D02*
Y03993D01*
Y03957D02*
X02419Y03868D01*
X02422Y03864*
X02456Y03275D02*
Y03421D01*
X02465Y03266D02*
X02468D01*
X02456Y03275D02*
X02465Y03266D01*
X02422Y03455D02*
Y03864D01*
Y03455D02*
X02456Y03421D01*
X02327Y03995D02*
X02329Y03993D01*
X02444Y03275D02*
Y03416D01*
X02435Y03266D02*
X02444Y03275D01*
X02433Y03266D02*
X02435D01*
X0241Y0345D02*
X02444Y03416D01*
X0241Y0345D02*
Y03859D01*
X02362Y03417D02*
Y03859D01*
X02388Y03279D02*
Y03391D01*
Y03279D02*
X02399Y03267D01*
X02362Y03417D02*
X02388Y03391D01*
X02376Y0328D02*
Y03386D01*
X02364Y03267D02*
X02376Y0328D01*
X0235Y03412D02*
Y03835D01*
Y03412D02*
X02376Y03386D01*
X0233Y03891D02*
X02362Y03859D01*
X02294Y03891D02*
X0235Y03835D01*
X01871Y03731D02*
X01881Y03741D01*
Y03759*
X01888Y03711D02*
X01893Y03716D01*
Y03722*
Y03716D02*
X01894Y03714D01*
X02111Y03741D02*
Y03759D01*
Y03741D02*
X02121Y03731D01*
Y03713D02*
Y03731D01*
X02111Y03703D02*
X02121Y03713D01*
X02111Y03275D02*
X02118Y03267D01*
X02111Y03275D02*
Y03703D01*
X02083Y03267D02*
X02099Y03283D01*
Y03722*
X02249Y03299D02*
Y03703D01*
Y03741D02*
X02259Y03731D01*
X02249Y03703D02*
X02259Y03713D01*
X02249Y03741D02*
Y03759D01*
X02259Y03713D02*
Y03731D01*
X02237Y03294D02*
X02243Y03288D01*
X02237Y03294D02*
Y03722D01*
X02249Y03299D02*
X02276Y03272D01*
X02243Y0327D02*
Y03288D01*
X02241Y03267D02*
X02243Y0327D01*
X01871Y03713D02*
Y03731D01*
Y03713D02*
X01876Y03708D01*
X01145Y0373D02*
X01164D01*
X01955Y02065D02*
X01967Y02077D01*
X01934D02*
X01943Y02067D01*
X019Y02077D02*
X01931Y02046D01*
X0219Y01305D02*
Y01311D01*
X02286Y01407*
X0215Y01315D02*
X02194Y01333D01*
X02274Y01413*
X0217Y01345D02*
D01*
X02168Y01347D02*
X02191D01*
X02262Y01418*
X019Y02074D02*
Y02077D01*
G54D53*
X01068Y01638D02*
Y02596D01*
X0091Y02754D02*
X01068Y02596D01*
X0091Y02754D02*
Y02901D01*
X0102Y0159D02*
X01068Y01638D01*
X00686Y04208D02*
X00749Y04145D01*
X00625Y04208D02*
X00686D01*
X00625Y03873D02*
Y04208D01*
Y03873D02*
X00701Y03797D01*
Y03366D02*
Y03797D01*
X01144Y03199D02*
X02141D01*
X0185Y03205D02*
Y03238D01*
X02141Y03199D02*
X0218Y03238D01*
X00977Y03366D02*
X01144Y03199D01*
X00701Y03366D02*
X00977D01*
X00569Y03234D02*
X00701Y03366D01*
X00569Y03119D02*
Y03234D01*
G54D54*
X00238Y04212D02*
X00256Y0423D01*
X0029*
X00475Y04585D02*
X005Y0456D01*
X0029Y04585D02*
X00475D01*
X0029Y04505D02*
Y0452D01*
Y04505D02*
X00315Y0448D01*
X00833Y04085D02*
X00858Y0411D01*
X01554D02*
X01806Y03858D01*
X02036*
X00858Y0411D02*
X01554D01*
X00238Y04302D02*
X0029D01*
X00468*
X00382Y02536D02*
Y02631D01*
X00252Y02532D02*
X00387D01*
X00882Y02536D02*
Y02631D01*
X00752Y02536D02*
X00887D01*
X01895Y02395D02*
X02024D01*
X01825Y02414D02*
X01895D01*
X02019Y02181D02*
Y02288D01*
X00382Y02631D02*
D01*
X00882D02*
D01*
X00984Y00719D02*
X01106D01*
X01139*
X01106Y00626D02*
Y00719D01*
X01139Y00854D02*
X01274D01*
X00326Y00318D02*
X00448D01*
Y00225D02*
Y00318D01*
X00481Y00453D02*
X00616D01*
X01052Y00454D02*
X01187D01*
X00897Y00319D02*
X01019D01*
Y00226D02*
Y00319D01*
X01111Y01076D02*
Y01155D01*
X00985D02*
Y01169D01*
X00618Y01644D02*
Y01724D01*
Y01644D02*
X00658Y01604D01*
X0108Y02905D02*
Y03015D01*
X0117Y02855D02*
X0126D01*
X0117Y028D02*
Y02905D01*
X0108Y03015D02*
Y0311D01*
D01*
X0091Y03095D02*
Y03205D01*
X0073Y03045D02*
X00815D01*
X0082Y0299D02*
Y03095D01*
X00569Y03119D02*
D01*
X0091Y03205D02*
Y03286D01*
X00911Y03287*
X0213Y02314D02*
Y02485D01*
X01301Y02325D02*
X01404D01*
X01419*
Y02236D02*
Y02325D01*
X01404Y02415D02*
X0151D01*
X02024Y02395D02*
Y02398D01*
X00219Y02304D02*
Y02397D01*
X00097D02*
X00219D01*
X00719Y02308D02*
Y02401D01*
X00597D02*
X00719D01*
G54D55*
X01591Y00496D02*
D01*
D01*
G75*
G03X01571Y00488I0J-00029D01*
G74*G01*
Y00524D02*
D01*
D01*
G75*
G03X01591Y00515I00023J00024D01*
G74*G01*
X02144Y00524D02*
D01*
D01*
G75*
G03X02163Y00516I00018J00018D01*
G74*G01*
X01854Y00491D02*
D01*
D01*
G75*
G03X01842Y00496I-00012J-00012D01*
G74*G01*
X02427Y00488D02*
D01*
D01*
G75*
G03X02407Y00496I-00019J-00018D01*
G74*G01*
X02163D02*
D01*
D01*
G75*
G03X02144Y00488I-0J-00025D01*
G74*G01*
X01881Y00535D02*
D01*
D01*
G75*
G03X01886Y00538I0J00004D01*
G74*G01*
X01881Y00535D02*
D01*
D01*
G75*
G03X01886Y00538I0J00004D01*
G74*G01*
X01881Y00535D02*
D01*
D01*
G75*
G03X01886Y00538I0J00004D01*
G74*G01*
X01881Y00535D02*
D01*
D01*
G75*
G03X01886Y00538I0J00004D01*
G74*G01*
X02439Y00535D02*
D01*
D01*
G75*
G03X02443Y00537I0J00005D01*
G74*G01*
X02439Y00535D02*
D01*
D01*
G75*
G03X02443Y00537I0J00005D01*
G74*G01*
X02439Y00535D02*
D01*
D01*
G75*
G03X02443Y00537I0J00005D01*
G74*G01*
X02439Y00535D02*
D01*
D01*
G75*
G03X02443Y00537I0J00005D01*
G74*G01*
X02439Y00535D02*
D01*
D01*
G75*
G03X02443Y00537I0J00005D01*
G74*G01*
X02439Y00535D02*
D01*
D01*
G75*
G03X02443Y00537I0J00005D01*
G74*G01*
X02439Y00535D02*
D01*
D01*
G75*
G03X02443Y00537I0J00005D01*
G74*G01*
X02439Y00535D02*
D01*
D01*
G75*
G03X02443Y00537I0J00005D01*
G74*G01*
X01881Y00535D02*
D01*
D01*
G75*
G03X01886Y00538I0J00004D01*
G74*G01*
X01881Y00535D02*
D01*
D01*
G75*
G03X01886Y00538I0J00004D01*
G74*G01*
X01881Y00535D02*
D01*
D01*
G75*
G03X01886Y00538I0J00004D01*
G74*G01*
X01881Y00535D02*
D01*
D01*
G75*
G03X01886Y00538I0J00004D01*
G74*G01*
X02163Y00496D02*
X02192D01*
X01591D02*
X01619D01*
X02163Y00516D02*
X02192D01*
X01541Y00524D02*
X01571D01*
X01591Y00515D02*
X01619D01*
X01596Y00788D02*
X01598Y00786D01*
X00702Y01553D02*
Y01604D01*
Y01553D02*
X00773D01*
X00688Y01388D02*
Y01439D01*
X00658Y01469D02*
X00688Y01439D01*
X0102Y0149D02*
X01088D01*
X01825Y02416D02*
Y02442D01*
X00803Y04085D02*
X00833D01*
X00799Y04081D02*
X00803Y04085D01*
X00833D02*
X00835D01*
X00749Y04145D02*
X00754Y0414D01*
X0079*
X0222Y02811D02*
X02235Y02796D01*
X0222Y02811D02*
Y02882D01*
X02128D02*
X0222D01*
X02127Y02883D02*
X02128Y02882D01*
X02218Y02968D02*
X02305D01*
X02237Y03116D02*
X02258Y03137D01*
X02237Y03019D02*
Y03116D01*
X02218Y02968D02*
Y02972D01*
X02237Y02993D02*
X02305D01*
X02237D02*
Y03019D01*
X02305*
X02522Y03059D02*
X02565Y03102D01*
X02522Y03019D02*
Y03059D01*
Y02993D02*
Y03019D01*
X02475Y02968D02*
X02522D01*
Y02993*
X02475D02*
X02522D01*
X02475Y03019D02*
X02522D01*
X02221Y04194D02*
Y04251D01*
X02212Y0426D02*
X02221Y04251D01*
X01889D02*
X01898Y0426D01*
X01889Y04194D02*
Y04251D01*
X0236Y04395D02*
X02383Y04372D01*
X024*
X02359Y04332D02*
Y0434D01*
X02332Y04367D02*
X02359Y0434D01*
X01105Y0382D02*
X0112D01*
X01137Y03803*
X01149Y03815D02*
X01199D01*
X01137Y03803D02*
X01149Y03815D01*
X0086Y0449D02*
Y04515D01*
X0087Y04525*
X0082Y0445D02*
X0086Y0449D01*
X0082Y04433D02*
Y0445D01*
X00798Y04411D02*
X0082Y04433D01*
X0087Y03725D02*
X0089D01*
X00964Y0366D02*
X00974Y0365D01*
X0092Y0366D02*
X00964D01*
X00887Y04222D02*
Y04256D01*
X0087Y04205D02*
X00887Y04222D01*
X0108Y04595D02*
X011Y04575D01*
X01064Y04595D02*
X0108D01*
X01102Y04315D02*
X0113D01*
X00947Y03983D02*
Y04036D01*
X01015Y0381D02*
Y03856D01*
X01806Y00496D02*
X01842D01*
X02379D02*
X02407D01*
X01525Y00507D02*
X01541Y00524D01*
X02104D02*
X02144D01*
X02379Y00535D02*
X02439D01*
X01806D02*
X01881D01*
X00773Y01527D02*
X00798D01*
Y01324D02*
Y01389D01*
Y01454*
X00863Y01389D02*
Y01454D01*
X00943Y01527D02*
X00965Y01506D01*
X00658Y01604D02*
X00701D01*
X00943Y01578D02*
X0101D01*
X00943Y01604D02*
X0101D01*
X00798Y01454D02*
Y01527D01*
X00863Y01454D02*
Y01516D01*
X009Y01553D02*
X00943D01*
X00863Y01516D02*
X009Y01553D01*
X00943D02*
X0102D01*
X01088Y01486D02*
Y0149D01*
X00863Y01324D02*
X00892Y01295D01*
X00895*
X01525Y03019D02*
X01593D01*
X01525Y02993D02*
Y03019D01*
Y02993D02*
X01593D01*
X01506Y02968D02*
Y02972D01*
X0073Y0311D02*
Y0316D01*
X00775Y03205*
X0126Y0292D02*
Y0297D01*
X01215Y03015D02*
X0126Y0297D01*
X01525Y03019D02*
Y03116D01*
X01546Y03137*
X01506Y02968D02*
X01593D01*
X01413Y02883D02*
X01414Y02882D01*
X01456Y02795D02*
Y02876D01*
X01414Y02882D02*
X0145D01*
X01506*
X0145D02*
X01456Y02876D01*
X02111Y0229D02*
X0213Y02314D01*
X02019Y02288D02*
X02021Y0229D01*
X01763Y02391D02*
X01825D01*
X01763Y02442D02*
X01825D01*
Y02414D02*
Y02416D01*
X01684Y02226D02*
Y02291D01*
X01619Y02161D02*
Y02226D01*
Y02291*
X01515Y02391D02*
X01593D01*
X0151Y02442D02*
X01593D01*
X0151Y02416D02*
X01593D01*
X01763Y03019D02*
X0181D01*
X01763Y02993D02*
X0181D01*
Y02968D02*
Y02993D01*
X01763Y02968D02*
X0181D01*
Y02993D02*
Y03019D01*
X01813D02*
X01861Y03067D01*
X01725Y02391D02*
X01763D01*
X01684Y02291D02*
Y0235D01*
X01725Y02391*
X01825D02*
Y02414D01*
X01763Y02416D02*
X01825D01*
X01598Y00786D02*
X01639D01*
G54D58*
X003Y03855D03*
G54D60*
X01643Y0252D03*
G54D61*
X01648Y02447D03*
G54D62*
X02405Y00174D03*
X01655D03*
X00492Y0488D03*
X01992Y04882D03*
X02742D03*
X01242Y0488D03*
G54D63*
X02505Y00074D03*
Y00274D03*
X02305D03*
Y00074D03*
X01755D03*
Y00274D03*
X01555D03*
Y00074D03*
X00592Y0478D03*
Y0498D03*
X00392D03*
Y0478D03*
X02092Y04782D03*
Y04982D03*
X01892D03*
Y04782D03*
X02842D03*
Y04982D03*
X02642D03*
Y04782D03*
X01342Y0478D03*
Y0498D03*
X01142D03*
Y0478D03*
G54D64*
X00714Y00877D03*
Y01271D03*
G54D65*
X00289Y00998D03*
Y00898D03*
Y00798D03*
X00155Y04832D03*
X0378Y01666D03*
Y01766D03*
X0348Y01666D03*
Y01766D03*
X0318Y01666D03*
Y01766D03*
X02053Y04022D03*
G54D66*
X00289Y01098D03*
X00155Y04932D03*
X0378Y01866D03*
X0348D03*
X0318D03*
G54D67*
X01961Y01323D03*
G54D68*
X02619Y03533D03*
X01262D03*
X02619Y01957D03*
X01262D03*
G54D69*
X0363Y0329D03*
X0313D03*
X0363Y0024D03*
X0313D03*
G54D70*
X0016Y05285D03*
Y00585D03*
X02795D03*
Y05285D03*
G54D71*
X00118Y01799D03*
X02835D03*
Y03531D03*
X00118D03*
G54D72*
X0029Y0423D03*
X0375Y0321D03*
Y0518D03*
Y042D03*
Y0223D03*
X0225Y0224D03*
X0228Y0221D03*
X02334Y0209D03*
X02208D03*
X0224Y0206D03*
X02271Y0209D03*
X02303Y0206D03*
X0366Y0234D03*
X035D03*
X0334D03*
X0318D03*
X02366Y0206D03*
X02397Y0209D03*
X02429Y0206D03*
X0246Y0209D03*
X02491Y0206D03*
X02523Y0209D03*
X02555Y0206D03*
X02152Y01705D03*
X0375Y01305D03*
Y0032D03*
X0358Y0119D03*
X0342D03*
X0326D03*
X031D03*
X02491Y017D03*
X031Y0262D03*
X0326D03*
X0343D03*
X0359D03*
X031Y024D03*
X0326D03*
X0343D03*
X0359D03*
X03205Y0272D03*
X03305D03*
X03405D03*
X03505D03*
X0366Y0091D03*
X035D03*
X0333D03*
X0317D03*
X0366Y0113D03*
X035D03*
X0333D03*
X0317D03*
X03255Y0081D03*
X03355D03*
X03455D03*
X03555D03*
X0375Y00119D03*
Y00459D03*
Y01104D03*
Y01444D03*
Y02088D03*
Y02428D03*
Y03072D03*
Y03412D03*
Y04056D03*
Y04396D03*
Y05041D03*
Y05381D03*
X02439Y04128D03*
X02546Y02751D03*
X02403Y0413D03*
X0251Y02751D03*
X02365Y0406D03*
X02472Y0283D03*
X02366Y04096D03*
X02474Y02789D03*
X02402Y04094D03*
X0251Y0279D03*
X02032Y0466D03*
X02665Y02751D03*
X02016Y04621D03*
X02629Y02752D03*
X01985Y0459D03*
X02631Y02788D03*
X0253Y04291D03*
X02595Y02789D03*
X0246Y01675D03*
X02397D03*
X02428Y017D03*
X02365D03*
X01835Y00575D03*
X01502Y00551D03*
X01466Y00581D03*
X015Y0063D03*
X01466Y02054D03*
X01452Y01702D03*
X01325D03*
X01452Y03634D03*
X01357D03*
X01353Y03275D03*
X01392D03*
X01428D03*
X01463D03*
X01435Y00805D03*
X01467Y00933D03*
X01474Y00719D03*
X0145Y04338D03*
X01435Y04455D03*
X02498Y04261D03*
X0223Y04351D03*
X01977Y04D03*
Y04049D03*
X02129Y04D03*
Y04049D03*
Y03946D03*
X01977D03*
X02031D03*
X0208D03*
X02061Y01323D03*
X02011D03*
X01861D03*
X01911D03*
X01861Y01375D03*
X02061D03*
X02011D03*
X01961D03*
X01911D03*
Y01271D03*
X01961D03*
X02011D03*
X02061D03*
X01861D03*
X01911Y01231D03*
X01961D03*
X02011D03*
X02061D03*
X01861D03*
Y01415D03*
X02061D03*
X02011D03*
X01961D03*
X01911D03*
X01765Y02543D03*
Y02493D03*
X0254Y01701D03*
X02192Y01705D03*
X01859Y01701D03*
X01498D03*
X015Y02054D03*
X01309D03*
X02541Y03268D03*
X01309Y03276D03*
X01498D03*
X01353Y03111D03*
X02165Y0364D03*
X01847Y03638D03*
X00579Y00251D03*
X01143D03*
X01237Y00651D03*
X01231Y01102D03*
X01285Y01516D03*
X00591Y01341D03*
X00411Y01699D03*
X00056Y03155D03*
X00512Y0292D03*
X00138Y02765D03*
X00394Y02706D03*
X00342Y02337D03*
X00851Y02339D03*
X01707Y02129D03*
X01481Y02231D03*
X01328Y02209D03*
X0212Y02125D03*
X01811Y02345D03*
X02044Y02507D03*
X01706Y02717D03*
X02381Y02722D03*
X02138Y02767D03*
X02513Y0292D03*
X02069Y03114D03*
X01793Y02912D03*
X01548Y02767D03*
X01161Y0361D03*
X01372Y0468D03*
X01748Y04319D03*
X00697Y04038D03*
X015Y0102D03*
X01949Y01672D03*
X01713Y04028D03*
X01697Y04187D03*
X02036Y03858D03*
X024Y04216D03*
X02075Y03858D03*
X01813Y04211D03*
Y0407D03*
X01822Y0428D03*
X02279D03*
X02108Y04445D03*
X01993D03*
X02212Y0426D03*
X01898D03*
X02157Y0417D03*
X02098Y0418D03*
X0208Y04098D03*
X02031D03*
X01977D03*
X02129D03*
X02208Y04035D03*
X02213Y0408D03*
X01892D03*
X01897Y04035D03*
X02039Y0418D03*
X0198D03*
X01933Y0417D03*
X01813Y04105D03*
Y04175D03*
X01279Y03963D03*
X01277Y03776D03*
Y03838D03*
Y03902D03*
X02427Y00482D03*
X02144Y00524D03*
Y00488D03*
X01854Y00481D03*
X02329Y00806D03*
X0196Y0095D03*
X024Y04372D03*
X02361Y0433D03*
X0219Y04395D03*
X0157Y00483D03*
Y00522D03*
X01971Y015D03*
X01673Y03875D03*
X01924Y0454D03*
X0196Y04514D03*
X01638Y04265D03*
X02148Y04521D03*
X02181Y04543D03*
X02316Y04412D03*
X02359Y04533D03*
X01788Y0441D03*
X01976Y04656D03*
X01942Y01541D03*
X01105Y0382D03*
X01164Y0373D03*
X0086Y0449D03*
X011Y04575D03*
X0113Y04315D03*
X0116Y04215D03*
X0112Y04365D03*
X0118Y0453D03*
X01395Y04529D03*
X00625Y0461D03*
X0057Y045D03*
X00865Y0394D03*
X0087Y03725D03*
X0185Y03238D03*
X0218D03*
X0075Y042D03*
X009Y046D03*
X0096Y04595D03*
X0092Y0366D03*
X01015Y0381D03*
X0106Y03825D03*
X0091Y0382D03*
X0087Y04205D03*
X01155Y04455D03*
X00843Y04321D03*
X0123Y0424D03*
X00835Y04085D03*
X0079Y0414D03*
X00947Y04036D03*
X01026D03*
X00697Y04109D03*
X0005Y04085D03*
X001D03*
X0015D03*
X002D03*
X0025D03*
X003D03*
X0035D03*
X004D03*
X0045D03*
X005D03*
X0055D03*
Y04035D03*
X005D03*
X0045D03*
X004D03*
X0035D03*
X003D03*
X0025D03*
X002D03*
X0015D03*
X001D03*
X0005D03*
X0055Y03985D03*
X005D03*
X0045D03*
X004D03*
X0035D03*
X003D03*
X0025D03*
X002D03*
X0015D03*
X001D03*
X0005D03*
X0055Y03935D03*
X005D03*
X0045D03*
X004D03*
X0035D03*
X003D03*
X0025D03*
X002D03*
X0015D03*
X001D03*
X0005D03*
X0055Y03885D03*
X005D03*
X0045D03*
X004D03*
X0035D03*
X003D03*
X0025D03*
X002D03*
X0015D03*
X001D03*
X0005D03*
X0055Y03835D03*
X005D03*
X0045D03*
X004D03*
X0035D03*
X003D03*
X0025D03*
X002D03*
X0015D03*
X001D03*
X0005D03*
X0055Y03785D03*
X005D03*
X0045D03*
X004D03*
X0035D03*
X003D03*
X0025D03*
X002D03*
X0015D03*
X001D03*
X0005D03*
X0055Y03735D03*
X005D03*
X0045D03*
X004D03*
X0035D03*
X003D03*
X0025D03*
X002D03*
X0015D03*
X001D03*
X0005D03*
X0055Y03685D03*
X005D03*
X0045D03*
X004D03*
X0035D03*
X003D03*
X0025D03*
X002D03*
X0015D03*
X001D03*
X0005D03*
X0055Y03635D03*
X005D03*
X0045D03*
X004D03*
X0035D03*
X003D03*
X0025D03*
X002D03*
X0015D03*
X001D03*
X0005D03*
X01485Y01116D03*
X0163Y01335D03*
X0184Y00905D03*
X01648Y00904D03*
X02066Y00905D03*
X02276D03*
X01857Y00805D03*
X01965Y00715D03*
X0217Y0038D03*
X01518D03*
X02515Y00714D03*
X02685Y04235D03*
X02633Y04185D03*
X02049Y0071D03*
X01585Y0072D03*
X0201Y0054D03*
X01995Y00474D03*
X01445Y00477D03*
X0257Y0047D03*
X0188Y00455D03*
X02465Y0046D03*
X00965Y01506D03*
X00745Y01805D03*
X00795D03*
X00845D03*
X00895D03*
X00945D03*
X00995D03*
X00745Y01755D03*
X00795D03*
X00845D03*
X00895D03*
X00945D03*
X00995D03*
X00745Y01705D03*
X00795D03*
X00845D03*
X00895D03*
X00945D03*
X00995D03*
X00745Y01655D03*
X00795D03*
X00845D03*
X00895D03*
X00945D03*
X00995D03*
X00695D03*
Y01705D03*
Y01755D03*
Y01805D03*
X0088Y01605D03*
X0083D03*
X0078D03*
X00895Y01295D03*
X0073Y0316D03*
X0126Y0297D03*
X016Y02443D03*
X0165D03*
X017D03*
X01515Y02543D03*
Y02493D03*
X01715D03*
X01665D03*
X01615D03*
X01565D03*
X01715Y02543D03*
X01665D03*
X01615D03*
X01565D03*
X01942Y00855D03*
X01835Y0224D03*
X02875Y033D03*
Y032D03*
Y031D03*
Y03D03*
Y029D03*
Y028D03*
Y023D03*
Y024D03*
Y025D03*
Y026D03*
Y027D03*
Y021D03*
Y022D03*
X02825Y01975D03*
X0275Y019D03*
Y021D03*
Y022D03*
Y023D03*
Y024D03*
Y025D03*
Y026D03*
Y027D03*
Y031D03*
Y03D03*
Y029D03*
Y028D03*
Y032D03*
Y033D03*
X02675Y02025D03*
X0282Y034D03*
X02523Y01566D03*
X02598Y01641D03*
X02708Y01594D03*
X0274Y018D03*
Y017D03*
X02622Y01505D03*
X02536Y01416D03*
X02437Y01477D03*
X02632Y0178D03*
X02635Y019D03*
X02519Y01271D03*
X02439Y01136D03*
X02352Y01388D03*
X02312Y00851D03*
X0233Y00755D03*
X0162Y0072D03*
X0183D03*
X0214Y0073D03*
X0129Y0213D03*
X0125Y0164D03*
X0115Y0161D03*
G54D73*
X0078Y0341D03*
X00824Y00455D03*
X00274Y004D03*
X00895Y00854D03*
X0011Y03049D03*
X02038Y02973D03*
X0091Y02901D03*
X0108Y02711D03*
X01331Y0297D03*
X00597Y02625D03*
X00097D03*
X01212Y02415D03*
X00411Y01605D03*
X02565Y03191D03*
X0195Y03067D03*
X02019Y02116D03*
X01276Y00454D03*
X00705Y00453D03*
X01274Y00943D03*
X00382Y02631D03*
X00882D03*
X01275Y01393D03*
X00911Y03287D03*
X0108Y0311D03*
X00569Y03234D03*
X0102Y0159D03*
G54D74*
X00315Y0448D03*
X0029Y04302D03*
G54D75*
X01811Y03722D03*
X018Y03267D03*
X01823Y03759D03*
X01835Y03267D03*
X01539Y02071D03*
X02093Y00566D03*
X01574Y02071D03*
X0212Y00601D03*
X01609Y02071D03*
X0165D03*
X02146Y00631D03*
X01596Y00783D03*
X01997Y00912D03*
X0219Y03759D03*
X02178Y03722D03*
X01994Y03249D03*
X01941Y03722D03*
X01968Y03272D03*
X01953Y03759D03*
X02032D03*
X02053Y03251D03*
X02024Y03234D03*
X0202Y03722D03*
X01913Y03272D03*
X02468Y03266D03*
X02327Y03995D03*
X02292Y03977D03*
X02433Y03266D03*
X02399Y03267D03*
X02364D03*
X0233Y03891D03*
X02294D03*
X02297Y00407D03*
X01645D03*
X01596Y00818D03*
X02218Y0108D03*
X01683Y01093D03*
X0145Y03872D03*
X02062Y00818D03*
X02075Y00851D03*
X02065Y00783D03*
X01922Y00912D03*
X01848Y00852D03*
X01604D03*
X0213Y01193D03*
X01784Y012D03*
X01888Y03247D03*
X02111Y03759D03*
X02099Y03722D03*
X02118Y03267D03*
X02083D03*
X02152D03*
X02208D03*
X02276D03*
X02241D03*
X02249Y03759D03*
X02237Y03722D03*
X01893D03*
X01881Y03759D03*
X01967Y02077D03*
X01934D03*
X019D03*
X0219Y01305D03*
X0215Y01315D03*
X02168Y01347D03*
G54D98*
X02316Y04412D03*
D03*
D03*
D03*
D03*
D03*
D03*
D03*
D03*
D03*
D03*
D03*
D03*
D03*
D03*
D03*
D03*
D03*
D03*
D03*
D03*
D03*
D03*
D03*
X02183Y04544D03*
D03*
D03*
D03*
D03*
D03*
D03*
D03*
X0192Y04542D03*
G54D99*
X02439Y00535D03*
D03*
D03*
D03*
D03*
D03*
D03*
G54D100*
X0238Y00765D03*
D03*
D03*
D03*
D03*
D03*
D03*
D03*
G54D101*
X005Y0456D03*
Y0427D03*
G54D102*
X005Y0147D03*
Y01605D03*
X00658Y01604D03*
Y01469D03*
X00984Y00719D03*
Y00854D03*
X01139D03*
Y00719D03*
X00326Y00318D03*
Y00453D03*
X00481D03*
Y00318D03*
X00897Y00319D03*
Y00454D03*
X01052D03*
Y00319D03*
X00985Y01169D03*
Y01304D03*
X0114D03*
Y01169D03*
X00597Y02401D03*
Y02536D03*
X00752D03*
Y02401D03*
X00097D03*
Y02536D03*
X00252D03*
Y02401D03*
G54D103*
X02196Y00798D03*
X01725D03*
G54D104*
X02242Y04541D03*
X02374Y04409D03*
X0236Y04395D03*
X02318Y04353D03*
X02346Y04381D03*
X02214Y04513D03*
X022Y04499D03*
X02228Y04527D03*
X02332Y04367D03*
G54D105*
X02186Y04485D03*
G54D106*
X02378Y00496D03*
X02191Y00535D03*
Y00496D03*
Y00515D03*
X02378D03*
Y00476D03*
Y00535D03*
Y00555D03*
X02191D03*
X01619D03*
X01806D03*
Y00535D03*
Y00476D03*
Y00515D03*
X01619D03*
Y00496D03*
Y00535D03*
X01806Y00496D03*
G54D107*
X02191Y00476D03*
X01619D03*
G54D108*
X01301Y02415D03*
Y02325D03*
X01404D03*
Y02415D03*
X02127Y02973D03*
Y02883D03*
X0222Y02882D03*
Y02972D03*
X01413Y02973D03*
Y02883D03*
X01506Y02882D03*
Y02972D03*
X00238Y04302D03*
Y04212D03*
X00116Y02975D03*
Y02885D03*
X00219D03*
Y02975D03*
G54D109*
X00274Y004D02*
Y00401D01*
X00326Y00453*
X00702Y01604D02*
X00773D01*
X00701D02*
X00702D01*
X01837Y0243D02*
Y02631D01*
X0116D02*
X01837D01*
X0108Y02711D02*
X0116Y02631D01*
X00824Y00455D02*
X00913D01*
X00159Y00798D02*
X00289D01*
X00159D02*
Y01544D01*
X00498Y01883*
Y02468*
X00566Y02536*
X00597*
X02019Y02116D02*
Y02181D01*
X00895Y00854D02*
X00984D01*
X0011Y0296D02*
Y03049D01*
X02038Y02973D02*
X02127D01*
X0091Y02901D02*
Y0299D01*
X0108Y02711D02*
Y028D01*
X01331Y0297D02*
X0142D01*
X00597Y02536D02*
Y02625D01*
X00097Y02536D02*
Y02625D01*
X01212Y02415D02*
X01301D01*
X00411Y01605D02*
X005D01*
X02565Y03102D02*
Y03191D01*
X01861Y03067D02*
X0195D01*
X01187Y00454D02*
X01276D01*
X00616Y00453D02*
X00705D01*
X01274Y00854D02*
Y00943D01*
X01275Y01304D02*
Y01393D01*
X00985Y01155D02*
X01111D01*
X0114Y01304D02*
X01275D01*
X00985D02*
X0102Y01339D01*
Y01553D02*
Y0159D01*
Y01339D02*
Y0149D01*
Y01553*
X00501Y01469D02*
X00658D01*
G54D110*
X00817Y01612D03*
G54D111*
X00788Y0174D03*
G54D112*
X00955Y0173D03*
M02*