G04 Layer_Color=16711935*
%FSLAX23Y23*%
%MOIN*%
G70*
G01*
G75*
D15*
X4000Y-0D02*
Y5500D01*
X1193D02*
X4000D01*
X0Y1681D02*
Y3650D01*
X753Y-0D02*
X4000D01*
X0D02*
Y1681D01*
Y-0D02*
X753D01*
X0Y5500D02*
X1193D01*
X0Y3650D02*
Y5500D01*
D31*
X1811Y3722D02*
D03*
X1800Y3267D02*
D03*
X1823Y3759D02*
D03*
X1835Y3267D02*
D03*
X1539Y2071D02*
D03*
X2093Y566D02*
D03*
X1574Y2071D02*
D03*
X2120Y601D02*
D03*
X1609Y2071D02*
D03*
X1650D02*
D03*
X2146Y631D02*
D03*
X1596Y783D02*
D03*
X1997Y912D02*
D03*
X2190Y3759D02*
D03*
X2178Y3722D02*
D03*
X1994Y3249D02*
D03*
X1941Y3722D02*
D03*
X1968Y3272D02*
D03*
X1953Y3759D02*
D03*
X2032D02*
D03*
X2053Y3251D02*
D03*
X2024Y3234D02*
D03*
X2020Y3722D02*
D03*
X1913Y3272D02*
D03*
X2468Y3266D02*
D03*
X2327Y3995D02*
D03*
X2292Y3977D02*
D03*
X2433Y3266D02*
D03*
X2399Y3267D02*
D03*
X2364D02*
D03*
X2330Y3891D02*
D03*
X2294D02*
D03*
X2297Y407D02*
D03*
X1645D02*
D03*
X1596Y818D02*
D03*
X2218Y1080D02*
D03*
X1683Y1093D02*
D03*
X1450Y3872D02*
D03*
X2062Y818D02*
D03*
X2075Y851D02*
D03*
X2065Y783D02*
D03*
X1922Y912D02*
D03*
X1848Y852D02*
D03*
X1604D02*
D03*
X1784Y1200D02*
D03*
X1888Y3247D02*
D03*
X2111Y3759D02*
D03*
X2099Y3722D02*
D03*
X2118Y3267D02*
D03*
X2083D02*
D03*
X2152D02*
D03*
X2208D02*
D03*
X2276D02*
D03*
X2241D02*
D03*
X2249Y3759D02*
D03*
X2237Y3722D02*
D03*
X1893D02*
D03*
X1881Y3759D02*
D03*
X1967Y2077D02*
D03*
X1934D02*
D03*
X1900D02*
D03*
X2190Y1305D02*
D03*
X2150Y1315D02*
D03*
X2168Y1347D02*
D03*
D33*
X290Y4230D02*
D03*
X3750Y3210D02*
D03*
Y5180D02*
D03*
Y4200D02*
D03*
Y2230D02*
D03*
X2250Y2240D02*
D03*
X2280Y2210D02*
D03*
X2334Y2090D02*
D03*
X2208D02*
D03*
X2240Y2060D02*
D03*
X2271Y2090D02*
D03*
X2303Y2060D02*
D03*
X3660Y2340D02*
D03*
X3500D02*
D03*
X3340D02*
D03*
X3180D02*
D03*
X2366Y2060D02*
D03*
X2397Y2090D02*
D03*
X2429Y2060D02*
D03*
X2460Y2090D02*
D03*
X2491Y2060D02*
D03*
X2523Y2090D02*
D03*
X2555Y2060D02*
D03*
X2152Y1705D02*
D03*
X3750Y1305D02*
D03*
Y320D02*
D03*
X3580Y1190D02*
D03*
X3420D02*
D03*
X3260D02*
D03*
X3100D02*
D03*
X2491Y1700D02*
D03*
X3100Y2620D02*
D03*
X3260D02*
D03*
X3430D02*
D03*
X3590D02*
D03*
X3100Y2400D02*
D03*
X3260D02*
D03*
X3430D02*
D03*
X3590D02*
D03*
X3205Y2720D02*
D03*
X3305D02*
D03*
X3405D02*
D03*
X3505D02*
D03*
X3660Y910D02*
D03*
X3500D02*
D03*
X3330D02*
D03*
X3170D02*
D03*
X3660Y1130D02*
D03*
X3500D02*
D03*
X3330D02*
D03*
X3170D02*
D03*
X3255Y810D02*
D03*
X3355D02*
D03*
X3455D02*
D03*
X3555D02*
D03*
X3750Y119D02*
D03*
Y459D02*
D03*
Y1104D02*
D03*
Y1444D02*
D03*
Y2088D02*
D03*
Y2428D02*
D03*
Y3072D02*
D03*
Y3412D02*
D03*
Y4056D02*
D03*
Y4396D02*
D03*
Y5041D02*
D03*
Y5381D02*
D03*
X2439Y4128D02*
D03*
X2546Y2751D02*
D03*
X2403Y4130D02*
D03*
X2510Y2751D02*
D03*
X2365Y4060D02*
D03*
X2472Y2830D02*
D03*
X2366Y4096D02*
D03*
X2474Y2789D02*
D03*
X2402Y4094D02*
D03*
X2510Y2790D02*
D03*
X2032Y4660D02*
D03*
X2665Y2751D02*
D03*
X2016Y4621D02*
D03*
X2629Y2752D02*
D03*
X1985Y4590D02*
D03*
X2631Y2788D02*
D03*
X2530Y4291D02*
D03*
X2595Y2789D02*
D03*
X2460Y1675D02*
D03*
X2397D02*
D03*
X2428Y1700D02*
D03*
X2365D02*
D03*
X1835Y575D02*
D03*
X1502Y551D02*
D03*
X1466Y581D02*
D03*
X1500Y630D02*
D03*
X1466Y2054D02*
D03*
X1452Y1702D02*
D03*
X1325D02*
D03*
X1452Y3634D02*
D03*
X1357D02*
D03*
X1353Y3275D02*
D03*
X1392D02*
D03*
X1428D02*
D03*
X1463D02*
D03*
X1435Y805D02*
D03*
X1467Y933D02*
D03*
X1474Y719D02*
D03*
X1450Y4338D02*
D03*
X1435Y4455D02*
D03*
X2498Y4261D02*
D03*
X2230Y4351D02*
D03*
X1977Y4000D02*
D03*
Y4049D02*
D03*
X2129Y4000D02*
D03*
Y4049D02*
D03*
Y3946D02*
D03*
X1977D02*
D03*
X2031D02*
D03*
X2080D02*
D03*
X2061Y1323D02*
D03*
X2011D02*
D03*
X1861D02*
D03*
X1911D02*
D03*
X1861Y1375D02*
D03*
X2061D02*
D03*
X2011D02*
D03*
X1961D02*
D03*
X1911D02*
D03*
Y1271D02*
D03*
X1961D02*
D03*
X2011D02*
D03*
X2061D02*
D03*
X1861D02*
D03*
X1911Y1231D02*
D03*
X1961D02*
D03*
X2011D02*
D03*
X2061D02*
D03*
X1861D02*
D03*
Y1415D02*
D03*
X2061D02*
D03*
X2011D02*
D03*
X1961D02*
D03*
X1911D02*
D03*
X1765Y2543D02*
D03*
Y2493D02*
D03*
X2540Y1701D02*
D03*
X2192Y1705D02*
D03*
X1859Y1701D02*
D03*
X1498D02*
D03*
X1500Y2054D02*
D03*
X1309D02*
D03*
X2541Y3268D02*
D03*
X1309Y3276D02*
D03*
X1498D02*
D03*
X1353Y3111D02*
D03*
X2165Y3640D02*
D03*
X1847Y3638D02*
D03*
X579Y251D02*
D03*
X1143D02*
D03*
X1237Y651D02*
D03*
X1231Y1102D02*
D03*
X1285Y1516D02*
D03*
X591Y1341D02*
D03*
X411Y1699D02*
D03*
X56Y3155D02*
D03*
X512Y2920D02*
D03*
X138Y2765D02*
D03*
X394Y2706D02*
D03*
X342Y2337D02*
D03*
X851Y2339D02*
D03*
X1707Y2129D02*
D03*
X1481Y2231D02*
D03*
X1328Y2209D02*
D03*
X2120Y2125D02*
D03*
X1811Y2345D02*
D03*
X2044Y2507D02*
D03*
X1706Y2717D02*
D03*
X2381Y2722D02*
D03*
X2138Y2767D02*
D03*
X2513Y2920D02*
D03*
X2069Y3114D02*
D03*
X1793Y2912D02*
D03*
X1548Y2767D02*
D03*
X1161Y3610D02*
D03*
X1372Y4680D02*
D03*
X1748Y4319D02*
D03*
X697Y4038D02*
D03*
X1500Y1020D02*
D03*
X1949Y1672D02*
D03*
X1713Y4028D02*
D03*
X1697Y4187D02*
D03*
X2036Y3858D02*
D03*
X2400Y4216D02*
D03*
X2075Y3858D02*
D03*
X1813Y4211D02*
D03*
Y4070D02*
D03*
X1822Y4280D02*
D03*
X2279Y4280D02*
D03*
X2108Y4445D02*
D03*
X1993D02*
D03*
X2212Y4260D02*
D03*
X1898D02*
D03*
X2157Y4170D02*
D03*
X2098Y4180D02*
D03*
X2080Y4098D02*
D03*
X2031D02*
D03*
X1977D02*
D03*
X2129D02*
D03*
X2208Y4035D02*
D03*
X2213Y4080D02*
D03*
X1892D02*
D03*
X1897Y4035D02*
D03*
X2039Y4180D02*
D03*
X1980D02*
D03*
X1933Y4170D02*
D03*
X1813Y4105D02*
D03*
Y4175D02*
D03*
X1279Y3963D02*
D03*
X1277Y3776D02*
D03*
Y3838D02*
D03*
Y3902D02*
D03*
X2427Y482D02*
D03*
X2144Y524D02*
D03*
Y488D02*
D03*
X1854Y481D02*
D03*
X2329Y806D02*
D03*
X1960Y950D02*
D03*
X2400Y4372D02*
D03*
X2361Y4330D02*
D03*
X2190Y4395D02*
D03*
X1570Y483D02*
D03*
Y522D02*
D03*
X1971Y1500D02*
D03*
X1673Y3875D02*
D03*
X1924Y4540D02*
D03*
X1960Y4514D02*
D03*
X1638Y4265D02*
D03*
X2148Y4521D02*
D03*
X2181Y4543D02*
D03*
X2316Y4412D02*
D03*
X2359Y4533D02*
D03*
X1788Y4410D02*
D03*
X1976Y4656D02*
D03*
X1942Y1541D02*
D03*
X1105Y3820D02*
D03*
X1164Y3730D02*
D03*
X860Y4490D02*
D03*
X1100Y4575D02*
D03*
X1130Y4315D02*
D03*
X1160Y4215D02*
D03*
X1120Y4365D02*
D03*
X1180Y4530D02*
D03*
X1395Y4529D02*
D03*
X625Y4610D02*
D03*
X570Y4500D02*
D03*
X865Y3940D02*
D03*
X870Y3725D02*
D03*
X1850Y3238D02*
D03*
X2180D02*
D03*
X750Y4200D02*
D03*
X900Y4600D02*
D03*
X960Y4595D02*
D03*
X920Y3660D02*
D03*
X1015Y3810D02*
D03*
X1060Y3825D02*
D03*
X910Y3820D02*
D03*
X870Y4205D02*
D03*
X1155Y4455D02*
D03*
X843Y4321D02*
D03*
X1230Y4240D02*
D03*
X835Y4085D02*
D03*
X790Y4140D02*
D03*
X947Y4036D02*
D03*
X1026D02*
D03*
X697Y4109D02*
D03*
X50Y4085D02*
D03*
X100D02*
D03*
X150D02*
D03*
X200D02*
D03*
X250D02*
D03*
X300D02*
D03*
X350D02*
D03*
X400D02*
D03*
X450D02*
D03*
X500D02*
D03*
X550D02*
D03*
Y4035D02*
D03*
X500D02*
D03*
X450D02*
D03*
X400D02*
D03*
X350D02*
D03*
X300D02*
D03*
X250D02*
D03*
X200D02*
D03*
X150D02*
D03*
X100D02*
D03*
X50D02*
D03*
X550Y3985D02*
D03*
X500D02*
D03*
X450D02*
D03*
X400D02*
D03*
X350D02*
D03*
X300D02*
D03*
X250D02*
D03*
X200D02*
D03*
X150D02*
D03*
X100D02*
D03*
X50D02*
D03*
X550Y3935D02*
D03*
X500D02*
D03*
X450D02*
D03*
X400D02*
D03*
X350D02*
D03*
X300D02*
D03*
X250D02*
D03*
X200D02*
D03*
X150D02*
D03*
X100D02*
D03*
X50D02*
D03*
X550Y3885D02*
D03*
X500D02*
D03*
X450D02*
D03*
X400D02*
D03*
X350D02*
D03*
X300D02*
D03*
X250D02*
D03*
X200D02*
D03*
X150D02*
D03*
X100D02*
D03*
X50D02*
D03*
X550Y3835D02*
D03*
X500D02*
D03*
X450D02*
D03*
X400D02*
D03*
X350D02*
D03*
X300D02*
D03*
X250D02*
D03*
X200D02*
D03*
X150D02*
D03*
X100D02*
D03*
X50D02*
D03*
X550Y3785D02*
D03*
X500D02*
D03*
X450D02*
D03*
X400D02*
D03*
X350D02*
D03*
X300D02*
D03*
X250D02*
D03*
X200D02*
D03*
X150D02*
D03*
X100D02*
D03*
X50D02*
D03*
X550Y3735D02*
D03*
X500D02*
D03*
X450D02*
D03*
X400D02*
D03*
X350D02*
D03*
X300D02*
D03*
X250D02*
D03*
X200D02*
D03*
X150D02*
D03*
X100D02*
D03*
X50D02*
D03*
X550Y3685D02*
D03*
X500D02*
D03*
X450D02*
D03*
X400D02*
D03*
X350D02*
D03*
X300D02*
D03*
X250D02*
D03*
X200D02*
D03*
X150D02*
D03*
X100D02*
D03*
X50D02*
D03*
X550Y3635D02*
D03*
X500D02*
D03*
X450D02*
D03*
X400D02*
D03*
X350D02*
D03*
X300D02*
D03*
X250D02*
D03*
X200D02*
D03*
X150D02*
D03*
X100D02*
D03*
X50D02*
D03*
X1485Y1116D02*
D03*
X1630Y1335D02*
D03*
X1840Y905D02*
D03*
X1648Y904D02*
D03*
X2066Y905D02*
D03*
X2276D02*
D03*
X1857Y805D02*
D03*
X1965Y715D02*
D03*
X2170Y380D02*
D03*
X1518D02*
D03*
X2515Y714D02*
D03*
X2685Y4235D02*
D03*
X2633Y4185D02*
D03*
X2049Y710D02*
D03*
X1585Y720D02*
D03*
X2010Y540D02*
D03*
X1995Y474D02*
D03*
X1445Y477D02*
D03*
X2570Y470D02*
D03*
X1880Y455D02*
D03*
X2465Y460D02*
D03*
X965Y1506D02*
D03*
X745Y1805D02*
D03*
X795D02*
D03*
X845D02*
D03*
X895D02*
D03*
X945D02*
D03*
X995D02*
D03*
X745Y1755D02*
D03*
X795D02*
D03*
X845D02*
D03*
X895D02*
D03*
X945D02*
D03*
X995D02*
D03*
X745Y1705D02*
D03*
X795D02*
D03*
X845D02*
D03*
X895D02*
D03*
X945D02*
D03*
X995D02*
D03*
X745Y1655D02*
D03*
X795D02*
D03*
X845D02*
D03*
X895D02*
D03*
X945D02*
D03*
X995D02*
D03*
X695D02*
D03*
Y1705D02*
D03*
Y1755D02*
D03*
Y1805D02*
D03*
X880Y1605D02*
D03*
X830D02*
D03*
X780D02*
D03*
X895Y1295D02*
D03*
X730Y3160D02*
D03*
X1260Y2970D02*
D03*
X1600Y2443D02*
D03*
X1650D02*
D03*
X1700D02*
D03*
X1515Y2543D02*
D03*
Y2493D02*
D03*
X1715D02*
D03*
X1665D02*
D03*
X1615D02*
D03*
X1565D02*
D03*
X1715Y2543D02*
D03*
X1665D02*
D03*
X1615D02*
D03*
X1565D02*
D03*
X1942Y855D02*
D03*
X1835Y2240D02*
D03*
X2875Y3300D02*
D03*
Y3200D02*
D03*
Y3100D02*
D03*
Y3000D02*
D03*
Y2900D02*
D03*
Y2800D02*
D03*
Y2300D02*
D03*
Y2400D02*
D03*
Y2500D02*
D03*
Y2600D02*
D03*
Y2700D02*
D03*
Y2100D02*
D03*
Y2200D02*
D03*
X2825Y1975D02*
D03*
X2750Y1900D02*
D03*
Y2100D02*
D03*
Y2200D02*
D03*
Y2300D02*
D03*
Y2400D02*
D03*
Y2500D02*
D03*
Y2600D02*
D03*
Y2700D02*
D03*
Y3100D02*
D03*
Y3000D02*
D03*
Y2900D02*
D03*
Y2800D02*
D03*
Y3200D02*
D03*
Y3300D02*
D03*
X2675Y2025D02*
D03*
X2820Y3400D02*
D03*
X2523Y1566D02*
D03*
X2598Y1641D02*
D03*
X2708Y1594D02*
D03*
X2740Y1800D02*
D03*
Y1700D02*
D03*
X2622Y1505D02*
D03*
X2536Y1416D02*
D03*
X2437Y1477D02*
D03*
X2632Y1780D02*
D03*
X2635Y1900D02*
D03*
X2519Y1271D02*
D03*
X2439Y1136D02*
D03*
X2352Y1388D02*
D03*
X2312Y851D02*
D03*
X2330Y755D02*
D03*
X1620Y720D02*
D03*
X1830D02*
D03*
X2140Y730D02*
D03*
X1290Y2130D02*
D03*
X1250Y1640D02*
D03*
X1150Y1610D02*
D03*
D40*
X315Y4480D02*
D03*
X290Y4302D02*
D03*
D43*
X780Y3410D02*
D03*
X824Y455D02*
D03*
X274Y400D02*
D03*
X895Y854D02*
D03*
X110Y3049D02*
D03*
X2038Y2973D02*
D03*
X910Y2901D02*
D03*
X1080Y2711D02*
D03*
X1331Y2970D02*
D03*
X597Y2625D02*
D03*
X97D02*
D03*
X1212Y2415D02*
D03*
X411Y1605D02*
D03*
X2565Y3191D02*
D03*
X1950Y3067D02*
D03*
X2019Y2116D02*
D03*
X1276Y454D02*
D03*
X705Y453D02*
D03*
X1274Y943D02*
D03*
X382Y2631D02*
D03*
X882D02*
D03*
X1275Y1393D02*
D03*
X911Y3287D02*
D03*
X1080Y3110D02*
D03*
X569Y3234D02*
D03*
X1020Y1590D02*
D03*
D44*
X714Y877D02*
D03*
Y1271D02*
D03*
D48*
X2242Y4541D02*
D03*
X2374Y4409D02*
D03*
X2360Y4395D02*
D03*
X2318Y4353D02*
D03*
X2346Y4381D02*
D03*
X2214Y4513D02*
D03*
X2200Y4499D02*
D03*
X2228Y4527D02*
D03*
X2332Y4367D02*
D03*
D56*
X2619Y3533D02*
D03*
X1262D02*
D03*
X2619Y1957D02*
D03*
X1262D02*
D03*
D57*
X289Y998D02*
D03*
Y898D02*
D03*
Y798D02*
D03*
X155Y4832D02*
D03*
X3780Y1666D02*
D03*
Y1766D02*
D03*
X3480Y1666D02*
D03*
Y1766D02*
D03*
X3180Y1666D02*
D03*
Y1766D02*
D03*
X2053Y4022D02*
D03*
D59*
X2110Y785D02*
D03*
Y810D02*
D03*
X2280Y759D02*
D03*
Y785D02*
D03*
Y810D02*
D03*
X2110Y836D02*
D03*
X2280D02*
D03*
X1639Y785D02*
D03*
Y810D02*
D03*
X1809Y759D02*
D03*
Y785D02*
D03*
Y810D02*
D03*
X1639Y836D02*
D03*
X1809D02*
D03*
X1593Y2365D02*
D03*
X1763D02*
D03*
X1593Y2391D02*
D03*
Y2416D02*
D03*
Y2442D02*
D03*
X1763Y2391D02*
D03*
Y2416D02*
D03*
X773Y1527D02*
D03*
X943D02*
D03*
X773Y1553D02*
D03*
Y1578D02*
D03*
Y1604D02*
D03*
X943Y1553D02*
D03*
Y1578D02*
D03*
X1593Y2942D02*
D03*
X1763D02*
D03*
X1593Y2968D02*
D03*
Y2993D02*
D03*
Y3019D02*
D03*
X1763Y2968D02*
D03*
Y2993D02*
D03*
X2305Y2942D02*
D03*
X2475D02*
D03*
X2305Y2968D02*
D03*
Y2993D02*
D03*
Y3019D02*
D03*
X2475Y2968D02*
D03*
Y2993D02*
D03*
X304Y2942D02*
D03*
X474D02*
D03*
X304Y2968D02*
D03*
Y2993D02*
D03*
Y3019D02*
D03*
X474Y2968D02*
D03*
Y2993D02*
D03*
D67*
X2405Y174D02*
D03*
X1655D02*
D03*
X492Y4880D02*
D03*
X1992Y4882D02*
D03*
X2742D02*
D03*
X1242Y4880D02*
D03*
D70*
X3630Y3290D02*
D03*
X3130D02*
D03*
X3630Y240D02*
D03*
X3130D02*
D03*
D72*
X160Y5285D02*
D03*
Y585D02*
D03*
X2795D02*
D03*
Y5285D02*
D03*
D74*
X118Y1799D02*
D03*
X2835D02*
D03*
Y3531D02*
D03*
X118D02*
D03*
D103*
X1889Y4194D02*
D03*
X1934Y4148D02*
D03*
X2208Y1129D02*
D03*
X2162Y1175D02*
D03*
X2662Y4257D02*
D03*
X2616Y4303D02*
D03*
X2610Y4207D02*
D03*
X2564Y4252D02*
D03*
D104*
X3780Y1570D02*
D03*
X3715D02*
D03*
X3780Y1960D02*
D03*
X3715D02*
D03*
X1683Y2164D02*
D03*
X1618D02*
D03*
X3180Y1960D02*
D03*
X3115D02*
D03*
X3180Y1570D02*
D03*
X3115D02*
D03*
X3480Y1960D02*
D03*
X3415D02*
D03*
X3480Y1570D02*
D03*
X3415D02*
D03*
X1012Y4063D02*
D03*
X947D02*
D03*
X1783Y4212D02*
D03*
X1718D02*
D03*
X1791Y4054D02*
D03*
X1726D02*
D03*
X2022Y3885D02*
D03*
X2087D02*
D03*
X1544Y406D02*
D03*
X1609D02*
D03*
X1680D02*
D03*
X1745D02*
D03*
X1956Y686D02*
D03*
X1891D02*
D03*
X2332Y406D02*
D03*
X2397D02*
D03*
X2506Y685D02*
D03*
X2441D02*
D03*
X2196Y406D02*
D03*
X2261D02*
D03*
X1684Y2226D02*
D03*
X1619D02*
D03*
Y2291D02*
D03*
X1684D02*
D03*
X1354Y2236D02*
D03*
X1419D02*
D03*
X798Y1324D02*
D03*
X863D02*
D03*
X633Y1378D02*
D03*
X698D02*
D03*
X863Y1389D02*
D03*
X798D02*
D03*
Y1454D02*
D03*
X863D02*
D03*
X2170Y2796D02*
D03*
X2235D02*
D03*
X1521Y2795D02*
D03*
X1456D02*
D03*
X1616Y2747D02*
D03*
X1681D02*
D03*
X1616Y2867D02*
D03*
X1681D02*
D03*
Y2807D02*
D03*
X1616D02*
D03*
X1176Y1076D02*
D03*
X1111D02*
D03*
X1084Y226D02*
D03*
X1019D02*
D03*
X513Y225D02*
D03*
X448D02*
D03*
X1171Y626D02*
D03*
X1106D02*
D03*
X2395Y2807D02*
D03*
X2330D02*
D03*
Y2867D02*
D03*
X2395D02*
D03*
X2330Y2747D02*
D03*
X2395D02*
D03*
X309Y2869D02*
D03*
X374D02*
D03*
X169Y2798D02*
D03*
X234D02*
D03*
X309Y2739D02*
D03*
X374D02*
D03*
Y2804D02*
D03*
X309D02*
D03*
X2070Y2485D02*
D03*
X2135D02*
D03*
X684Y4145D02*
D03*
X749D02*
D03*
X999Y4595D02*
D03*
X1064D02*
D03*
X734Y4081D02*
D03*
X799D02*
D03*
X1058Y3790D02*
D03*
X993D02*
D03*
X1460Y507D02*
D03*
X1525D02*
D03*
X1970Y484D02*
D03*
X1905D02*
D03*
X2035Y528D02*
D03*
X2100D02*
D03*
X2545Y490D02*
D03*
X2480D02*
D03*
X787Y2302D02*
D03*
X722D02*
D03*
X284Y2306D02*
D03*
X219D02*
D03*
D106*
X290Y4520D02*
D03*
Y4585D02*
D03*
X1916Y4081D02*
D03*
Y4016D02*
D03*
X2189Y4081D02*
D03*
Y4016D02*
D03*
X1490Y831D02*
D03*
Y766D02*
D03*
X2026Y765D02*
D03*
Y830D02*
D03*
X1556Y766D02*
D03*
Y831D02*
D03*
X1900Y765D02*
D03*
Y830D02*
D03*
X1885Y552D02*
D03*
Y617D02*
D03*
X1820Y618D02*
D03*
Y683D02*
D03*
X2443Y551D02*
D03*
Y616D02*
D03*
X2372Y617D02*
D03*
Y682D02*
D03*
X2379Y765D02*
D03*
Y830D02*
D03*
X1962D02*
D03*
Y765D02*
D03*
X1260Y2920D02*
D03*
Y2855D02*
D03*
X730Y3110D02*
D03*
Y3045D02*
D03*
X903Y3788D02*
D03*
Y3723D02*
D03*
X1137D02*
D03*
Y3788D02*
D03*
X870Y4590D02*
D03*
Y4525D02*
D03*
X1096Y4386D02*
D03*
Y4321D02*
D03*
X887D02*
D03*
Y4256D02*
D03*
D107*
X2162Y4144D02*
D03*
X2208Y4190D02*
D03*
X1902Y4582D02*
D03*
X1948Y4628D02*
D03*
X1776Y4445D02*
D03*
X1822Y4491D02*
D03*
X1714Y1125D02*
D03*
X1760Y1171D02*
D03*
D114*
X2186Y4485D02*
D03*
D127*
X289Y1098D02*
D03*
X155Y4932D02*
D03*
X3780Y1866D02*
D03*
X3480D02*
D03*
X3180D02*
D03*
D131*
X2110Y759D02*
D03*
X1639D02*
D03*
X1763Y2442D02*
D03*
X943Y1604D02*
D03*
X1763Y3019D02*
D03*
X2475D02*
D03*
X474D02*
D03*
D133*
X1301Y2415D02*
D03*
Y2325D02*
D03*
X1404D02*
D03*
Y2415D02*
D03*
X2127Y2973D02*
D03*
Y2883D02*
D03*
X2220Y2882D02*
D03*
Y2972D02*
D03*
X1413Y2973D02*
D03*
Y2883D02*
D03*
X1506Y2882D02*
D03*
Y2972D02*
D03*
X238Y4302D02*
D03*
Y4212D02*
D03*
X116Y2975D02*
D03*
Y2885D02*
D03*
X219D02*
D03*
Y2975D02*
D03*
D134*
X1080Y2800D02*
D03*
X1170D02*
D03*
Y2905D02*
D03*
X1080D02*
D03*
X910Y2990D02*
D03*
X820D02*
D03*
Y3095D02*
D03*
X910D02*
D03*
X2024Y2398D02*
D03*
X2114D02*
D03*
X2111Y2290D02*
D03*
X2021D02*
D03*
D136*
X1505Y2415D02*
D03*
Y2280D02*
D03*
X1895Y2395D02*
D03*
Y2260D02*
D03*
X1861Y3067D02*
D03*
Y2932D02*
D03*
X1275Y1304D02*
D03*
Y1169D02*
D03*
X1187Y319D02*
D03*
Y454D02*
D03*
X616Y453D02*
D03*
Y318D02*
D03*
X1274Y854D02*
D03*
Y719D02*
D03*
X2565Y3102D02*
D03*
Y2967D02*
D03*
X569Y3094D02*
D03*
Y2959D02*
D03*
X1223Y3704D02*
D03*
Y3839D02*
D03*
X798Y4411D02*
D03*
Y4276D02*
D03*
X1186D02*
D03*
Y4411D02*
D03*
X887Y2401D02*
D03*
Y2536D02*
D03*
X387D02*
D03*
Y2401D02*
D03*
D137*
X937Y3973D02*
D03*
X1072D02*
D03*
X825Y3995D02*
D03*
X690D02*
D03*
X1088Y1486D02*
D03*
X1223D02*
D03*
X618Y1724D02*
D03*
X483D02*
D03*
X2265Y3142D02*
D03*
X2130D02*
D03*
X1546Y3137D02*
D03*
X1411D02*
D03*
X1080Y3015D02*
D03*
X1215D02*
D03*
X910Y3205D02*
D03*
X775D02*
D03*
X1220Y4527D02*
D03*
X1355D02*
D03*
X259Y3139D02*
D03*
X124D02*
D03*
X2019Y2181D02*
D03*
X2154D02*
D03*
X974Y3635D02*
D03*
X1109D02*
D03*
X862Y3874D02*
D03*
X997D02*
D03*
D138*
X500Y1470D02*
D03*
Y1605D02*
D03*
X658Y1604D02*
D03*
Y1469D02*
D03*
X984Y719D02*
D03*
Y854D02*
D03*
X1139D02*
D03*
Y719D02*
D03*
X326Y318D02*
D03*
Y453D02*
D03*
X481D02*
D03*
Y318D02*
D03*
X897Y319D02*
D03*
Y454D02*
D03*
X1052D02*
D03*
Y319D02*
D03*
X985Y1169D02*
D03*
Y1304D02*
D03*
X1140D02*
D03*
Y1169D02*
D03*
X597Y2401D02*
D03*
Y2536D02*
D03*
X752D02*
D03*
Y2401D02*
D03*
X97D02*
D03*
Y2536D02*
D03*
X252D02*
D03*
Y2401D02*
D03*
D145*
X2196Y798D02*
D03*
X1725D02*
D03*
D149*
X2505Y74D02*
D03*
Y274D02*
D03*
X2305D02*
D03*
Y74D02*
D03*
X1755D02*
D03*
Y274D02*
D03*
X1555D02*
D03*
Y74D02*
D03*
X592Y4780D02*
D03*
Y4980D02*
D03*
X392D02*
D03*
Y4780D02*
D03*
X2092Y4782D02*
D03*
Y4982D02*
D03*
X1892D02*
D03*
Y4782D02*
D03*
X2842D02*
D03*
Y4982D02*
D03*
X2642D02*
D03*
Y4782D02*
D03*
X1342Y4780D02*
D03*
Y4980D02*
D03*
X1142D02*
D03*
Y4780D02*
D03*
D157*
X500Y4560D02*
D03*
Y4270D02*
D03*
D163*
X3852Y5041D02*
D03*
Y5381D02*
D03*
Y4056D02*
D03*
Y4396D02*
D03*
Y3072D02*
D03*
Y3412D02*
D03*
Y2088D02*
D03*
Y2428D02*
D03*
Y1104D02*
D03*
Y1444D02*
D03*
Y119D02*
D03*
Y459D02*
D03*
D166*
X314Y3967D02*
D03*
D170*
X1961Y1323D02*
D03*
D177*
X300Y3855D02*
D03*
D198*
X845Y1730D02*
D03*
D199*
X788Y1602D02*
D03*
D202*
X2053Y4022D02*
D03*
D203*
X1648Y2443D02*
D03*
D204*
X1643Y2519D02*
D03*
D205*
X2378Y496D02*
D03*
X2191Y535D02*
D03*
Y496D02*
D03*
Y515D02*
D03*
X2378D02*
D03*
Y476D02*
D03*
Y535D02*
D03*
Y555D02*
D03*
X2191D02*
D03*
X1619D02*
D03*
X1806D02*
D03*
Y535D02*
D03*
Y476D02*
D03*
Y515D02*
D03*
X1619D02*
D03*
Y496D02*
D03*
Y535D02*
D03*
X1806Y496D02*
D03*
D206*
X2191Y476D02*
D03*
X1619D02*
D03*
M02*
