%FSTAX23Y23*%
%MOIN*%
%SFA1B1*%

%IPPOS*%
%AMD24*
4,1,4,-0.008100,-0.016600,0.016600,0.008100,0.008100,0.016600,-0.016600,-0.008100,-0.008100,-0.016600,0.0*
1,1,0.012000,0.012400,0.012400*
1,1,0.012000,-0.012400,-0.012400*
%
%AMD25*
4,1,4,-0.012400,-0.020900,0.020900,0.012400,0.012400,0.020900,-0.020900,-0.012400,-0.012400,-0.020900,0.0*
%
%AMD26*
4,1,4,0.006700,0.020900,-0.020900,-0.006700,-0.006700,-0.020900,0.020900,0.006700,0.006700,0.020900,0.0*
%
%AMD47*
4,1,4,0.003500,0.024700,-0.024700,-0.003500,-0.003500,-0.024700,0.024700,0.003500,0.003500,0.024700,0.0*
%
%AMD48*
4,1,4,-0.042400,0.000000,0.000000,-0.042400,0.042400,0.000000,0.000000,0.042400,-0.042400,0.000000,0.0*
%
%AMD49*
4,1,4,-0.024700,0.003500,0.003500,-0.024700,0.024700,-0.003500,-0.003500,0.024700,-0.024700,0.003500,0.0*
%
%AMD67*
4,1,8,-0.127000,0.095500,-0.127000,-0.095500,-0.116000,-0.106500,0.116000,-0.106500,0.127000,-0.095500,0.127000,0.095500,0.116000,0.106500,-0.116000,0.106500,-0.127000,0.095500,0.0*
1,1,0.022000,-0.116000,0.095500*
1,1,0.022000,-0.116000,-0.095500*
1,1,0.022000,0.116000,-0.095500*
1,1,0.022000,0.116000,0.095500*
%
%ADD10C,0.010000*%
%ADD11C,0.011000*%
%ADD12C,0.009000*%
%ADD13C,0.011000*%
%ADD14C,0.015000*%
%ADD15C,0.016000*%
%ADD16C,0.011000*%
%ADD17C,0.010000*%
%ADD18C,0.011000*%
%ADD19C,0.014000*%
%ADD20R,0.035000X0.100000*%
%ADD21R,0.300000X0.300000*%
%ADD22R,0.108000X0.039000*%
%ADD23R,0.020000X0.052000*%
G04~CAMADD=24~3~0.0~0.0~470.0~120.0~0.0~0.0~0~0.0~0.0~0.0~0.0~0~0.0~0.0~0.0~0.0~0~0.0~0.0~0.0~225.0~366.0~366.0*
%ADD24D24*%
G04~CAMADD=25~9~0.0~0.0~470.0~120.0~0.0~0.0~0~0.0~0.0~0.0~0.0~0~0.0~0.0~0.0~0.0~0~0.0~0.0~0.0~225.0~418.0~417.0*
%ADD25D25*%
G04~CAMADD=26~9~0.0~0.0~390.0~200.0~0.0~0.0~0~0.0~0.0~0.0~0.0~0~0.0~0.0~0.0~0.0~0~0.0~0.0~0.0~45.0~418.0~417.0*
%ADD26D26*%
%ADD27R,0.020000X0.010000*%
%ADD28R,0.010000X0.020000*%
%ADD29R,0.011000X0.031000*%
%ADD30R,0.031000X0.011000*%
%ADD31R,0.012000X0.024000*%
%ADD32R,0.060000X0.050000*%
%ADD33R,0.060000X0.020000*%
%ADD34O,0.060000X0.020000*%
%ADD35O,0.060000X0.015000*%
%ADD36R,0.060000X0.015000*%
%ADD37R,0.012000X0.060000*%
%ADD38O,0.012000X0.060000*%
%ADD39R,0.018000X0.057000*%
%ADD40R,0.060000X0.060000*%
%ADD41R,0.200000X0.090000*%
%ADD42R,0.245000X0.130000*%
%ADD43R,0.022000X0.100000*%
%ADD44R,0.030000X0.040000*%
%ADD45R,0.040000X0.030000*%
%ADD46R,0.060000X0.060000*%
G04~CAMADD=47~9~0.0~0.0~400.0~300.0~0.0~0.0~0~0.0~0.0~0.0~0.0~0~0.0~0.0~0.0~0.0~0~0.0~0.0~0.0~45.0~494.0~493.0*
%ADD47D47*%
G04~CAMADD=48~10~0.0~601.0~0.0~0.0~0.0~0.0~0~0.0~0.0~0.0~0.0~0~0.0~0.0~0.0~0.0~0~0.0~0.0~0.0~135.0~601.0~0.0*
%ADD48D48*%
G04~CAMADD=49~9~0.0~0.0~400.0~300.0~0.0~0.0~0~0.0~0.0~0.0~0.0~0~0.0~0.0~0.0~0.0~0~0.0~0.0~0.0~135.0~494.0~493.0*
%ADD49D49*%
%ADD50R,0.185000X0.185000*%
%ADD51C,0.008000*%
%ADD52C,0.006000*%
%ADD53C,0.028000*%
%ADD54C,0.020000*%
%ADD55C,0.012000*%
%ADD56C,0.007000*%
%ADD57R,0.225000X0.255000*%
%ADD58R,0.550000X0.490000*%
%ADD59R,0.145000X0.190000*%
%ADD60R,0.285000X0.080000*%
%ADD61R,0.135000X0.075000*%
%ADD62C,0.080000*%
%ADD63R,0.100000X0.100000*%
%ADD64C,0.040000*%
%ADD65C,0.058000*%
%ADD66R,0.058000X0.058000*%
G04~CAMADD=67~8~0.0~0.0~2130.0~2540.0~110.0~0.0~15~0.0~0.0~0.0~0.0~0~0.0~0.0~0.0~0.0~0~0.0~0.0~0.0~90.0~2540.0~2130.0*
%ADD67D67*%
%ADD68C,0.020000*%
%ADD69C,0.106000*%
%ADD70C,0.120000*%
%ADD71C,0.125000*%
%ADD72C,0.028000*%
%ADD73C,0.038000*%
%ADD74C,0.035000*%
%ADD75C,0.026000*%
G54D10*
X0222Y01224D02*
D01*
D01*
G75*
G03X02149Y01254I-00073J-00074D01*
G74*G01*
X02301Y01244D02*
D01*
D01*
G75*
G03X0223Y01273I-00069J-00068D01*
G74*G01*
X02345Y01171D02*
D01*
D01*
G75*
G03X02324Y01221I-00070J-0D01*
G74*G01*
X02147Y04252D02*
D01*
D01*
G75*
G03X02143Y04222I00102J-00028D01*
G74*G01*
X0197Y01132D02*
D01*
D01*
G75*
G03Y01134I-0J00001D01*
G74*G01*
X0195Y01132D02*
D01*
D01*
G75*
G03X01951Y01134I-00003J00003D01*
G74*G01*
X01989Y01132D02*
D01*
D01*
G75*
G03X0199Y01134I-00003J00003D01*
G74*G01*
X0193Y01132D02*
D01*
D01*
G75*
G03X01931Y01134I-00003J00003D01*
G74*G01*
X01971Y01479D02*
D01*
D01*
G75*
G03X01965Y01494I-00022J-0D01*
G74*G01*
X01977D02*
D01*
D01*
G75*
G03X01971Y01478I00013J-00014D01*
G74*G01*
X0196Y0095D02*
X01991D01*
X0194Y0074D02*
X01965Y00715D01*
X01683Y01093D02*
Y0113D01*
X02119Y01254D02*
X02149D01*
X02301Y01244D02*
X02324Y01221D01*
X02119Y01273D02*
X0223D01*
X0145Y00824D02*
X01489D01*
X01496Y00831*
X01443Y00909D02*
X01467Y00933D01*
X01443Y00896D02*
Y00909D01*
X01467Y00933D02*
X01496Y00904D01*
Y00896D02*
Y00904D01*
X01418Y00714D02*
X0143Y00725D01*
X01463Y0067D02*
X0148Y00686D01*
X01418Y00714D02*
X01419D01*
X01922Y00912D02*
X01927Y00917D01*
Y00949*
X0199Y00919D02*
X01997Y00912D01*
X0199Y00919D02*
Y00949D01*
X015Y0102D02*
Y01032D01*
X01513Y01045*
X01933Y01577D02*
X01942Y01568D01*
Y01541D02*
Y01568D01*
Y01494D02*
Y01541D01*
Y01494D02*
X01951Y01485D01*
Y01462D02*
Y01485D01*
X02119Y01234D02*
X02127D01*
Y01201D02*
Y01234D01*
X01794Y01201D02*
Y01234D01*
X01928Y0095D02*
X0196D01*
X0193Y01015D02*
Y01051D01*
X01941Y01109D02*
X01951Y01119D01*
X0194Y01109D02*
X01941D01*
X0193Y011D02*
X0194Y01109D01*
X0193Y01051D02*
X01953D01*
X0197Y01067*
X0199Y01134D02*
Y01184D01*
X01951Y01134D02*
Y01184D01*
X01931Y01134D02*
Y01184D01*
X01657Y01D02*
X01719D01*
X01794Y01234D02*
X01802D01*
X01971Y01462D02*
Y015D01*
X01573Y01105D02*
Y01151D01*
X02032Y00818D02*
X02062D01*
X02072Y01001D02*
X02137D01*
X02203D02*
X02268D01*
X01951Y01119D02*
Y01134D01*
X0197Y01067D02*
Y01081D01*
X0193D02*
Y011D01*
Y01051D02*
Y01081D01*
X01786Y01001D02*
X01849D01*
X01774Y01254D02*
X01802D01*
X01719Y01186D02*
Y01199D01*
X0173Y0121D02*
X01774Y01254D01*
X01631Y0121D02*
X0171D01*
X01719Y01201*
X01653Y01267D02*
X0171Y0121D01*
X01719Y01199D02*
X0173Y0121D01*
X0171D02*
X0173D01*
X01922Y00805D02*
X01975D01*
X01922Y0074D02*
X0194D01*
X01975Y00805D02*
Y00822D01*
X01942Y00855D02*
X01975Y00822D01*
X01673Y0114D02*
X01683Y0113D01*
X01563Y00818D02*
X01596D01*
X0148Y00686D02*
Y00725D01*
X0143D02*
X0148D01*
X01513Y01045D02*
X01573Y01105D01*
X01561Y00744D02*
X01585Y0072D01*
X01641Y00805D02*
Y00824D01*
X01615Y00851D02*
X01641Y00824D01*
X01808Y00805D02*
Y00812D01*
X01848Y00852*
G54D11*
X022Y04326D03*
D03*
D03*
D03*
D03*
D03*
D03*
G54D12*
X02204Y04329D02*
D01*
D01*
G75*
G03X022Y04326I00008J-00015D01*
G74*G01*
X02204Y04329D02*
D01*
D01*
G75*
G03X022Y04326I00008J-00015D01*
G74*G01*
X02204Y04329D02*
D01*
D01*
G75*
G03X022Y04326I00008J-00015D01*
G74*G01*
X02208Y04331D02*
D01*
D01*
G75*
G02X02204Y04329I-00009J00013D01*
G74*G01*
X02208Y04331D02*
D01*
D01*
G75*
G02X02204Y04329I-00009J00013D01*
G74*G01*
X02208Y04331D02*
D01*
D01*
G75*
G02X02204Y04329I-00009J00013D01*
G74*G01*
X02208Y04331D02*
D01*
D01*
G75*
G02X02204Y04329I-00009J00013D01*
G74*G01*
X02208Y04331D02*
D01*
D01*
G75*
G02X02204Y04329I-00009J00013D01*
G74*G01*
X02208Y04331D02*
D01*
D01*
G75*
G02X02204Y04329I-00009J00013D01*
G74*G01*
X02208Y04331D02*
D01*
D01*
G75*
G02X02204Y04329I-00009J00013D01*
G74*G01*
D01*
D01*
G75*
G03X022Y04326I00008J-00015D01*
G74*G01*
X02204Y04329D02*
D01*
D01*
G75*
G03X022Y04326I00008J-00015D01*
G74*G01*
X02204Y04329D02*
D01*
D01*
G75*
G03X022Y04326I00008J-00015D01*
G74*G01*
X02204Y04329D02*
D01*
D01*
G75*
G03X022Y04326I00008J-00015D01*
G74*G01*
X0366Y0234D02*
Y0237D01*
X035Y0234D02*
Y0237D01*
X03335Y02345D02*
X0334Y0234D01*
X03335Y02345D02*
Y0237D01*
X03175Y02345D02*
X0318Y0234D01*
X03175Y02345D02*
Y0237D01*
X0358Y0119D02*
X03585Y01185D01*
Y0116D02*
Y01185D01*
X0342Y0119D02*
X03425Y01185D01*
Y0116D02*
Y01185D01*
X0326Y0116D02*
Y0119D01*
X031Y0116D02*
Y0119D01*
X03555Y02745D02*
Y02776D01*
Y02745D02*
X0366Y0264D01*
Y0259D02*
Y0264D01*
X03455Y02685D02*
Y02776D01*
Y02685D02*
X035Y0264D01*
Y0259D02*
Y0264D01*
X03175Y0259D02*
X03255Y0267D01*
Y02776*
X03335Y0259D02*
X03355Y0261D01*
Y02776*
X0317Y02585D02*
X03175Y0259D01*
X0317Y02515D02*
Y02585D01*
Y02375D02*
X03175Y0237D01*
X0317Y02375D02*
Y0245D01*
X0333Y02585D02*
X03335Y0259D01*
X0333Y02515D02*
Y02585D01*
Y02375D02*
X03335Y0237D01*
X0333Y02375D02*
Y0245D01*
X035Y0237D02*
Y0245D01*
Y02515D02*
Y0259D01*
X0366Y02515D02*
Y0259D01*
Y0237D02*
Y0245D01*
X031Y026D02*
Y0262D01*
Y026D02*
X0311Y0259D01*
X0326Y0262D02*
X0327Y0261D01*
Y0259D02*
Y0261D01*
X0343Y0262D02*
X03435Y02615D01*
Y0259D02*
Y02615D01*
X0359Y0262D02*
X03595Y02615D01*
Y0259D02*
Y02615D01*
X031Y024D02*
X0311Y0239D01*
Y0237D02*
Y0239D01*
X0326Y0238D02*
Y024D01*
Y0238D02*
X0327Y0237D01*
X0343Y024D02*
X03435Y02395D01*
Y0237D02*
Y02395D01*
X0359Y02375D02*
Y024D01*
Y02375D02*
X03595Y0237D01*
X03205Y00754D02*
Y00785D01*
X031Y0089D02*
X03205Y00785D01*
X031Y0089D02*
Y0094D01*
X03305Y00754D02*
Y00845D01*
X0326Y0089D02*
X03305Y00845D01*
X0326Y0089D02*
Y0094D01*
X03405Y0092D02*
X03425Y0094D01*
X03405Y00754D02*
Y0092D01*
X03505Y0085D02*
X03595Y0094D01*
X03505Y00754D02*
Y0085D01*
X03585Y0116D02*
X0359Y01155D01*
Y0108D02*
Y01155D01*
Y00945D02*
X03595Y0094D01*
X0359Y00945D02*
Y01015D01*
X03425Y0094D02*
X0343Y00945D01*
Y01015*
X03425Y0116D02*
X0343Y01155D01*
Y0108D02*
Y01155D01*
X0326Y0094D02*
Y01015D01*
Y0108D02*
Y0116D01*
X031Y0094D02*
Y01015D01*
Y0108D02*
Y0116D01*
X0365Y0092D02*
X0366Y0091D01*
X0365Y0092D02*
Y0094D01*
X0349Y0092D02*
X035Y0091D01*
X0349Y0092D02*
Y0094D01*
X03325Y00915D02*
X0333Y0091D01*
X03325Y00915D02*
Y0094D01*
X03165Y00915D02*
X0317Y0091D01*
X03165Y00915D02*
Y0094D01*
X0366Y0113D02*
Y0115D01*
X0365Y0116D02*
X0366Y0115D01*
X0349Y0114D02*
X035Y0113D01*
X0349Y0114D02*
Y0116D01*
X03325Y01135D02*
X0333Y0113D01*
X03325Y01135D02*
Y0116D01*
X03165Y01135D02*
X0317Y0113D01*
X03165Y01135D02*
Y0116D01*
X01875Y04525D02*
Y04526D01*
X01642Y0363D02*
X01673Y03599D01*
Y03574D02*
Y03599D01*
X01704Y03574D02*
Y03606D01*
X01661Y03649D02*
X01704Y03606D01*
X01619Y0363D02*
X01642D01*
X01563Y03686D02*
X01619Y0363D01*
X01661Y03649D02*
Y03686D01*
X01766Y0415D02*
X01854D01*
X01523Y03903D02*
X01563Y03863D01*
Y03821D02*
Y03863D01*
X01773Y0413D02*
X01854D01*
X01587Y03905D02*
X01661Y03831D01*
X01587Y03905D02*
X01601D01*
X01586Y03906D02*
X01587Y03905D01*
X01661Y03821D02*
Y03831D01*
X02555Y03282D02*
Y03334D01*
X02523Y0328D02*
Y03334D01*
X01862Y01701D02*
Y01771D01*
X01094Y04365D02*
X0112D01*
X01277Y03902D02*
X01323D01*
X01277Y03838D02*
X01323D01*
X01277Y03776D02*
X01323D01*
X01508Y01139D02*
X01546Y01178D01*
X01485Y01116D02*
X01508Y01139D01*
X02523Y01717D02*
Y01771D01*
X02177Y01717D02*
Y01771D01*
X01425Y04455D02*
X01466D01*
X01515Y03292D02*
Y03346D01*
Y01984D02*
Y02038D01*
Y01717D02*
Y01771D01*
X01326Y03292D02*
Y03346D01*
Y01984D02*
Y02038D01*
X01388Y03776D02*
Y03963D01*
X0139Y03903D02*
X01458D01*
X0145Y03872D02*
Y03895D01*
X01458Y03903*
X01666Y03882D02*
Y03905D01*
Y03882D02*
X01673Y03875D01*
X01523Y03907D02*
X01766Y0415D01*
X01523Y03903D02*
Y03907D01*
X01586Y03906D02*
Y03943D01*
X01672Y04029D02*
X01773Y0413D01*
X01586Y03943D02*
X01672Y04029D01*
X01265Y045D02*
X01301D01*
X01228D02*
X01265D01*
Y04382D02*
Y045D01*
X01202Y04382D02*
X01265D01*
X01466Y04455D02*
X01478Y04443D01*
X01402Y04432D02*
X01425Y04455D01*
X01444Y04332D02*
X01478Y04366D01*
X00895Y04205D02*
X00938Y04162D01*
X01402Y04332D02*
X01444D01*
X02491Y04268D02*
Y0432D01*
Y04268D02*
X02498Y04261D01*
X02457Y04272D02*
X02468Y04261D01*
X02498*
X02385Y04244D02*
X024Y04229D01*
Y04216D02*
Y04229D01*
X02491Y0432D02*
D01*
Y04332*
X0164Y0105D02*
X01715D01*
X01767Y01102*
X01796Y01147D02*
X01833Y01184D01*
X0178Y01147D02*
X01796D01*
X01767Y01102D02*
Y01134D01*
X01833Y0118D02*
Y01184D01*
X01758Y01149D02*
X01762Y01153D01*
X02555Y01716D02*
Y01756D01*
X0254Y01701D02*
X02555Y01716D01*
X02523Y01717D02*
X02535Y01705D01*
X02177Y01717D02*
X02188Y01705D01*
X01503D02*
X01515Y01717D01*
X01503Y0205D02*
X01515Y02038D01*
X01314Y0205D02*
X01326Y02038D01*
X02541Y03268D02*
X02555Y03282D01*
X02523Y0328D02*
X02535Y03268D01*
X01314Y0328D02*
X01326Y03292D01*
X01503Y0328D02*
X01515Y03292D01*
X02177Y03574D02*
Y03628D01*
X02165Y0364D02*
X02177Y03628D01*
X0185Y0364D02*
X01862Y03628D01*
Y03574D02*
Y03628D01*
X02085Y01352D02*
X02111D01*
X01337Y04645D02*
X01372Y0468D01*
X0133Y04645D02*
X01337D01*
X01088Y04215D02*
X0116D01*
X01862Y0325D02*
Y03331D01*
X0185Y03238D02*
X01862Y0325D01*
X02134Y0111D02*
Y01138D01*
Y0111D02*
X02191Y01053D01*
X02265*
X0236Y00735D02*
Y00958D01*
X02011Y01194D02*
Y0122D01*
X01758Y04379D02*
X01788Y0441D01*
X02265Y01053D02*
X0236Y00958D01*
X0197Y01106D02*
X01978D01*
X01961D02*
X0197D01*
X01978D02*
X01991Y01093D01*
X0195Y01095D02*
X01961Y01106D01*
X0197Y01134D02*
Y01184D01*
X01803Y01313D02*
X01839D01*
X01803Y01352D02*
X0185D01*
X01852Y01194D02*
Y0122D01*
X02069Y01194D02*
Y0122D01*
X01911Y01194D02*
Y0122D01*
X02251Y04189D02*
X02317D01*
X02223Y04222D02*
X02298D01*
X02441Y04372D02*
X02447Y04378D01*
X01889Y04511D02*
X0192Y04542D01*
X01921Y04514D02*
X01947D01*
X01953Y0452*
X01648Y04255D02*
X01674D01*
X01638Y04265D02*
X01648Y04255D01*
X01626Y04305D02*
X01638Y04293D01*
Y04265D02*
Y04293D01*
X01903Y04497D02*
X01921Y04514D01*
X02316Y04412D02*
X02321Y04417D01*
Y04449*
X02231Y04496D02*
X02275D01*
X02183Y04544D02*
X02231Y04496D01*
X02367Y04495D02*
Y04525D01*
X02359Y04533D02*
X02367Y04525D01*
X02321Y04542D02*
X0235D01*
X02359Y04533*
X01088Y03753D02*
X01141D01*
X01164Y0373*
X01058Y03728D02*
X01088D01*
X00963Y03823D02*
X01058Y03728D01*
X00963Y03823D02*
Y03874D01*
X00918Y03753D02*
X00975D01*
Y03778*
X00938Y03815D02*
X00975Y03778D01*
X00938Y03815D02*
Y03874D01*
Y04126D02*
Y04162D01*
X00915Y04214D02*
X00918Y04217D01*
X0104Y04126D02*
Y04243D01*
X01088*
X01014Y04126D02*
Y04268D01*
X01088*
X00989Y04126D02*
Y04268D01*
X00918D02*
X00989D01*
X00963Y04126D02*
Y04243D01*
X00918D02*
X00963D01*
X00918Y04294D02*
X00972D01*
X01088Y04215D02*
Y04217D01*
X01094Y04365D02*
Y04367D01*
X01224Y045D02*
X01228D01*
X01163D02*
X0118Y04517D01*
Y0453*
X01366Y045D02*
X01395Y04529D01*
X0104Y03898D02*
X01096Y03955D01*
X0104Y03874D02*
Y03898D01*
Y04076D02*
X01096Y0402D01*
X0104Y04076D02*
Y04126D01*
X01096Y03955D02*
X0116Y04018D01*
Y04215*
X00581Y04645D02*
X0059D01*
X00625Y0461*
X00524Y04541D02*
X00565Y045D01*
X0057*
X00912Y03874D02*
Y03908D01*
X0088Y0394D02*
X00912Y03908D01*
X00865Y0394D02*
X0088D01*
X0087Y03725D02*
X00873Y03728D01*
X02177Y03331D02*
X0218Y03328D01*
Y0324D02*
Y03328D01*
X01147Y04517D02*
X01163Y045D01*
X01088Y04517D02*
X01147D01*
X01053Y04491D02*
X01088D01*
X01033Y04471D02*
X01053Y04491D01*
X00918Y04517D02*
X00952D01*
X00972Y04497*
X00861Y04491D02*
X00918D01*
X0086Y0449D02*
X00861Y04491D01*
X01014Y03851D02*
Y03874D01*
Y03851D02*
X0104Y03825D01*
X0106*
X00897Y04217D02*
X00918D01*
X00885Y04205D02*
X00897Y04217D01*
X0087Y04205D02*
X00885D01*
X00895*
X0079Y0414D02*
X00795D01*
X0081Y04126*
X00835Y04085D02*
Y04126D01*
Y04085D02*
D01*
X00938Y04051D02*
X00947Y04042D01*
X00938Y04051D02*
Y04126D01*
X01654Y0136D02*
X01655D01*
X01467Y01098D02*
X01485Y01116D01*
X01607Y01313D02*
X01608D01*
X01849Y00914D02*
Y00935D01*
X0184Y00905D02*
X01849Y00914D01*
X01608Y01313D02*
X0163Y01335D01*
X01655Y0136*
X01648Y00904D02*
X01657Y00913D01*
Y00934*
X02066Y00905D02*
X02075Y00914D01*
Y00935*
X02267Y00914D02*
X02276Y00905D01*
X02267Y00914D02*
Y00935D01*
X0204Y00719D02*
Y0074D01*
Y00719D02*
X02049Y0071D01*
X02298Y04222D02*
X02321Y04245D01*
X01803Y01273D02*
X0184D01*
X01991Y01015D02*
Y01093D01*
X0197Y01106D02*
Y01132D01*
X0195Y01081D02*
Y01095D01*
X01033Y04367D02*
Y04471D01*
X00972Y04294D02*
Y04367D01*
Y04497*
X01279Y03963D02*
X01323D01*
X02065Y00735D02*
X02095Y00705D01*
X02065Y00735D02*
Y00783D01*
X0233Y00705D02*
X0236Y00735D01*
X02095Y00705D02*
X0233D01*
X02089Y01184D02*
D01*
X02134Y01138D01*
X02285Y0074D02*
X02315D01*
X0233Y00755*
X02115Y00805D02*
Y00841D01*
X02098Y00858D02*
X02115Y00841D01*
X0153Y00783D02*
Y0094D01*
Y00783D02*
X01596D01*
X0153Y0094D02*
X0164Y0105D01*
X01767Y01134D02*
X0178Y01147D01*
G54D13*
X02204Y04329D02*
D01*
D01*
G75*
G03X022Y04326I00004J-00010D01*
G74*G01*
X02209Y0433D02*
D01*
D01*
G75*
G03X022Y04326I0J-00012D01*
G74*G01*
X02204Y04329D02*
D01*
D01*
G75*
G03X022Y04326I00004J-00010D01*
G74*G01*
X02204Y04329D02*
D01*
D01*
G75*
G03X022Y04326I00004J-00010D01*
G74*G01*
X02205Y04329D02*
D01*
D01*
G75*
G02X02204I-0J0D01*
G74*G01*
X02205D02*
D01*
D01*
G75*
G02X02204I-0J0D01*
G74*G01*
X02205D02*
D01*
D01*
G75*
G02X02204I-0J0D01*
G74*G01*
X02209Y0433D02*
D01*
D01*
G75*
G03X02205Y04329I-0J-00006D01*
G74*G01*
X02209Y0433D02*
D01*
D01*
G75*
G03X02205Y04329I-0J-00006D01*
G74*G01*
X02209Y0433D02*
D01*
D01*
G75*
G03X02205Y04329I-0J-00006D01*
G74*G01*
X02209Y0433D02*
D01*
D01*
G75*
G03X02205Y04329I-0J-00006D01*
G74*G01*
X02209Y0433D02*
D01*
D01*
G75*
G03X02205Y04329I-0J-00006D01*
G74*G01*
X02209Y0433D02*
D01*
D01*
G75*
G03X02205Y04329I-0J-00006D01*
G74*G01*
X02209Y0433D02*
D01*
D01*
G75*
G03X02205Y04329I-0J-00006D01*
G74*G01*
D01*
D01*
G75*
G02X02204I-0J0D01*
G74*G01*
X02205D02*
D01*
D01*
G75*
G02X02204I-0J0D01*
G74*G01*
X02205D02*
D01*
D01*
G75*
G02X02204I-0J0D01*
G74*G01*
X02205D02*
D01*
D01*
G75*
G02X02204I-0J0D01*
G74*G01*
D01*
D01*
G75*
G03X022Y04326I00004J-00010D01*
G74*G01*
X02204Y04329D02*
D01*
D01*
G75*
G03X022Y04326I00004J-00010D01*
G74*G01*
X02204Y04329D02*
D01*
D01*
G75*
G03X022Y04326I00004J-00010D01*
G74*G01*
X02204Y04329D02*
D01*
D01*
G75*
G03X022Y04326I00004J-00010D01*
G74*G01*
G54D14*
X02208Y04331D02*
D01*
D01*
G75*
G03X02205Y04329I00006J-00013D01*
G74*G01*
X02208Y04331D02*
D01*
D01*
G75*
G03X02205Y04329I00006J-00013D01*
G74*G01*
X02208Y04331D02*
D01*
D01*
G75*
G03X02205Y04329I00006J-00013D01*
G74*G01*
X02208Y04331D02*
D01*
D01*
G75*
G03X02205Y04329I00006J-00013D01*
G74*G01*
X02208Y04331D02*
D01*
D01*
G75*
G03X02205Y04329I00006J-00013D01*
G74*G01*
X02208Y04331D02*
D01*
D01*
G75*
G03X02205Y04329I00006J-00013D01*
G74*G01*
X02208Y04331D02*
D01*
D01*
G75*
G03X02205Y04329I00006J-00013D01*
G74*G01*
D01*
D01*
G75*
G03X02148Y04252I00068J-00109D01*
G74*G01*
X02165Y0437D02*
D01*
D01*
G75*
G03X02125Y04248I00221J-00140D01*
G74*G01*
X01963Y04725D02*
D01*
D01*
G75*
G03X01981Y04749I-00080J00078D01*
G74*G01*
X01991Y04781D02*
D01*
D01*
G75*
G03X01992Y04795I-00102J00014D01*
G74*G01*
X01981Y04749D02*
D01*
D01*
G75*
G03X01991Y04781I-00082J00043D01*
G74*G01*
X01581Y04351D02*
D01*
D01*
G75*
G03X01584Y04352I0J00005D01*
G74*G01*
X02713Y04644D02*
D01*
D01*
G75*
G03X02741Y047I-00068J00069D01*
G74*G01*
D01*
D01*
G75*
G03X02742Y04714I-00102J00014D01*
G74*G01*
X01898Y04325D02*
D01*
D01*
G75*
G03X01894Y04327I-00006J-00007D01*
G74*G01*
X01892Y04326D02*
D01*
D01*
G75*
G03X01786Y0435I-00065J-00041D01*
G74*G01*
X01919Y04483D02*
D01*
D01*
G75*
G03X01938Y04371I00066J-00046D01*
G74*G01*
X01946Y04257D02*
D01*
D01*
G75*
G03X01934Y04287I-00046J-00001D01*
G74*G01*
X01968Y04298D02*
D01*
D01*
G75*
G03X01938Y04369I-00098J0D01*
G74*G01*
X01968Y04298D02*
D01*
D01*
G75*
G03X01938Y04369I-00098J0D01*
G74*G01*
X01968Y04298D02*
D01*
D01*
G75*
G03X01938Y04369I-00098J0D01*
G74*G01*
X01968Y04298D02*
D01*
D01*
G75*
G03X01938Y04369I-00098J0D01*
G74*G01*
X01968Y04298D02*
D01*
D01*
G75*
G03X01938Y04369I-00098J0D01*
G74*G01*
X01968Y04298D02*
D01*
D01*
G75*
G03X01938Y04369I-00098J0D01*
G74*G01*
X01968Y04298D02*
D01*
D01*
G75*
G03X01938Y04369I-00098J0D01*
G74*G01*
X01968Y04298D02*
D01*
D01*
G75*
G03X01938Y04369I-00098J0D01*
G74*G01*
X02209Y0432D02*
Y04327D01*
X01928Y0469D02*
X01963Y04725D01*
X0158Y04351D02*
Y04356D01*
X01587Y04349D02*
X01928Y0469D01*
X01992Y04795D02*
Y04882D01*
X02613Y04544D02*
X02713Y04644D01*
X0249Y04425D02*
X02537Y04378D01*
X02613Y04544D02*
X02642Y04573D01*
X02493Y04424D02*
X02613Y04544D01*
X02742Y04714D02*
Y04882D01*
X01927Y04293D02*
X01934Y04287D01*
X01241Y0464D02*
Y0485D01*
X0124Y04635D02*
Y0464D01*
X00465Y04417D02*
X00643D01*
X00876Y0465*
X00991*
X00643Y04307D02*
X0075Y042D01*
X00643Y04307D02*
Y04417D01*
X01968Y04248D02*
Y04298D01*
X01937Y0437D02*
X01938Y04369D01*
X01894Y04327D02*
X01927Y04293D01*
X01171Y0464D02*
X0124D01*
X01126D02*
X01171D01*
G54D15*
X0222Y04341D02*
D01*
D01*
G75*
G03X02224Y04351I-00009J00009D01*
G74*G01*
X0223Y04345D02*
D01*
D01*
G75*
G03X0222Y04341I0J-00014D01*
G74*G01*
X0219Y04389D02*
D01*
D01*
G75*
G03X0218Y04384I-0J-00011D01*
G74*G01*
D01*
D01*
G75*
G03X02184Y04395I-00009J00009D01*
G74*G01*
X02209Y04327D02*
Y0433D01*
X02165Y0437D02*
X0219Y04395D01*
G54D16*
X02126Y04252D02*
D01*
D01*
G75*
G03X02124Y04222I00678J-00060D01*
G74*G01*
X01969Y04246D02*
D01*
D01*
G75*
G03X01967Y0424I00004J-00004D01*
G74*G01*
X01968Y04248D02*
D01*
D01*
G75*
G03X01967Y04246I00003J-00003D01*
G74*G01*
X01968Y04248D02*
D01*
D01*
G75*
G03X01967Y04246I00003J-00003D01*
G74*G01*
X01968Y04248D02*
D01*
D01*
G75*
G03X01967Y04246I00003J-00003D01*
G74*G01*
X01968Y04248D02*
D01*
D01*
G75*
G03X01967Y04246I00003J-00003D01*
G74*G01*
X01968Y04248D02*
D01*
D01*
G75*
G03X01967Y04246I00003J-00003D01*
G74*G01*
X01968Y04248D02*
D01*
D01*
G75*
G03X01967Y04246I00003J-00003D01*
G74*G01*
X01968Y04248D02*
D01*
D01*
G75*
G03X01967Y04246I00003J-00003D01*
G74*G01*
X01968Y04248D02*
D01*
D01*
G75*
G03X01967Y04246I00003J-00003D01*
G74*G01*
X0229Y00851D02*
D01*
D01*
G75*
G03X02312I00011J00118D01*
G74*G01*
X02203Y00936D02*
D01*
D01*
G75*
G03X0229Y00851I00096J00011D01*
G74*G01*
X02075D02*
D01*
D01*
G75*
G03X02098Y00858I-00022J00115D01*
G74*G01*
D01*
D01*
G75*
G03X02137Y00936I-00035J00066D01*
G74*G01*
X01604Y00852D02*
D01*
D01*
G75*
G03X01615Y00851I00011J00066D01*
G74*G01*
D01*
D01*
G75*
G03X0172Y00936I00005J00100D01*
G74*G01*
X01786D02*
D01*
D01*
G75*
G03X01848Y00852I00073J-00011D01*
G74*G01*
X01967Y04222D02*
Y04246D01*
X01947Y04222D02*
Y04256D01*
X02285Y00805D02*
Y00846D01*
G54D17*
X0197Y01132D03*
G54D18*
X01968Y04248D03*
D03*
D03*
D03*
D03*
D03*
D03*
G54D19*
X02663Y01608D02*
D01*
D01*
G75*
G03X027Y01698I-00087J00088D01*
G74*G01*
X02786Y01996D02*
D01*
D01*
G75*
G03X02823Y02086I-00087J00088D01*
G74*G01*
X02345Y0133D02*
D01*
D01*
G75*
G03X02333Y01301I00028J-00028D01*
G74*G01*
X0246Y01405D02*
D01*
D01*
G75*
G03X0244Y01359I00050J-00049D01*
G74*G01*
X02729Y0194D02*
D01*
D01*
G75*
G03X027Y01869I00068J-00069D01*
G74*G01*
X02736Y03429D02*
D01*
D01*
G75*
G03X02645Y03466I-00088J-00087D01*
G74*G01*
X02823Y03289D02*
D01*
D01*
G75*
G03X02786Y03379I-00127J0D01*
G74*G01*
X02643Y01628D02*
D01*
D01*
G75*
G03X02672Y01698I-00068J00069D01*
G74*G01*
X02709Y01959D02*
D01*
D01*
G75*
G03X02672Y01869I00087J-00088D01*
G74*G01*
X02766Y02016D02*
D01*
D01*
G75*
G03X02795Y02086I-00068J00069D01*
G74*G01*
X02716Y03409D02*
D01*
D01*
G75*
G03X02645Y03438I-00069J-00068D01*
G74*G01*
X02795Y03289D02*
D01*
D01*
G75*
G03X02766Y03359I-00098J0D01*
G74*G01*
X02491Y0354D02*
D01*
D01*
G75*
G03X02565Y03466I00074J0D01*
G74*G01*
Y03438D02*
D01*
D01*
G75*
G03X02491Y03365I0J-00074D01*
G74*G01*
X0246Y01405D02*
X02663Y01608D01*
X02491Y0354D02*
Y03574D01*
X02736Y03429D02*
X02786Y03379D01*
X02491Y03331D02*
Y03365D01*
X0244Y01266D02*
Y01359D01*
X02565Y03466D02*
X02645D01*
X027Y01698D02*
Y01869D01*
X02729Y0194D02*
X02786Y01996D01*
X02823Y02086D02*
Y03289D01*
X02345Y0133D02*
X02643Y01628D01*
X02565Y03438D02*
X02645D01*
X02672Y01698D02*
Y01869D01*
X02709Y01959D02*
X02766Y02016D01*
X02716Y03409D02*
X02766Y03359D01*
X02795Y02086D02*
Y03289D01*
G54D20*
X00465Y04417D03*
X00415D03*
X00365D03*
X00315D03*
X00265D03*
X00215D03*
X00165D03*
G54D21*
X00315Y04017D03*
G54D22*
X0063Y0131D03*
Y00916D03*
X00797D03*
X0063Y00838D03*
X00797D03*
X0063Y01074D03*
X00797D03*
X0063Y00995D03*
X00797D03*
Y0131D03*
X0063Y01231D03*
X00797D03*
X0063Y01153D03*
X00797D03*
G54D23*
X01094Y04382D03*
X01033D03*
X00972D03*
G54D24*
X01861Y04539D03*
X01729Y04407D03*
X01743Y04393D03*
X01785Y04351D03*
X01757Y04379D03*
X01889Y04511D03*
X01903Y04497D03*
X01875Y04525D03*
X01771Y04365D03*
G54D25*
X01917Y04483D03*
G54D26*
X0152Y01204D03*
X01546Y01178D03*
X01573Y01151D03*
X01579Y01263D03*
X01605Y01236D03*
X01631Y0121D03*
G54D27*
X02119Y01215D03*
Y01234D03*
Y01254D03*
Y01274D03*
Y01293D03*
Y01313D03*
Y01333D03*
Y01352D03*
Y01372D03*
Y01392D03*
Y01411D03*
Y01431D03*
X01802D03*
Y01411D03*
Y01392D03*
Y01372D03*
Y01352D03*
Y01333D03*
Y01313D03*
Y01293D03*
Y01274D03*
Y01254D03*
Y01234D03*
Y01215D03*
G54D28*
X01833Y01184D03*
X01853D03*
X01872D03*
X01892D03*
X01912D03*
X01931D03*
X01951D03*
X01971D03*
X0199D03*
X0201D03*
X0203D03*
X0205D03*
X02069D03*
X02089D03*
Y01462D03*
X02069D03*
X0205D03*
X0203D03*
X0201D03*
X0199D03*
X01971D03*
X01951D03*
X01931D03*
X01912D03*
X01892D03*
X01872D03*
X01853D03*
X01833D03*
G54D29*
X02006Y04222D03*
X01986D03*
X01966D03*
X02025D03*
X01888D03*
X01907D03*
X01927D03*
X01947D03*
X02163Y0382D03*
X02183D03*
X02222D03*
X02203D03*
X02104Y04222D03*
X02084D03*
X02065D03*
X02045D03*
X01888Y0382D03*
X01907D03*
X02104D03*
X02124D03*
X02143D03*
X01966D03*
X01947D03*
X01927D03*
X02025D03*
X02006D03*
X01986D03*
X02084D03*
X02065D03*
X02045D03*
X02183Y04222D03*
X02203D03*
X02222D03*
X02124D03*
X02143D03*
X02163D03*
G54D30*
X01854Y03873D03*
Y03853D03*
X02251Y0409D03*
Y04109D03*
Y04129D03*
Y04149D03*
Y03893D03*
Y03912D03*
Y03932D03*
Y04011D03*
Y04031D03*
Y0405D03*
Y0407D03*
X01854Y04188D03*
Y04168D03*
Y04149D03*
Y04129D03*
Y0405D03*
Y04031D03*
Y04011D03*
Y03893D03*
Y0409D03*
Y04109D03*
Y0407D03*
Y03971D03*
Y03991D03*
Y03932D03*
Y03952D03*
Y03912D03*
X02251Y03873D03*
Y03853D03*
Y03991D03*
Y03971D03*
Y03952D03*
Y04188D03*
Y04168D03*
G54D31*
X01989Y01081D03*
X01969D03*
X0195D03*
X0193D03*
Y01132D03*
X0195D03*
X01969D03*
X01989D03*
G54D32*
X00524Y04541D03*
X00434D03*
X00332D03*
X00242D03*
X00581Y04645D03*
X00491D03*
X0133D03*
X0124D03*
G54D33*
X01402Y04282D03*
G54D34*
X01402Y04332D03*
Y04382D03*
Y04432D03*
X01202Y04282D03*
Y04332D03*
Y04382D03*
Y04432D03*
G54D35*
X00918Y04542D03*
X01088D03*
X00918Y04517D03*
Y04491D03*
Y04466D03*
X01088Y04517D03*
Y04491D03*
X00918Y04294D03*
X01088D03*
X00918Y04268D03*
Y04243D03*
Y04217D03*
X01088Y04268D03*
Y04243D03*
X00918Y03779D03*
X01088D03*
X00918Y03753D03*
Y03728D03*
Y03702D03*
X01088Y03753D03*
Y03728D03*
G54D36*
X01088Y04466D03*
Y04217D03*
Y03702D03*
G54D37*
X0104Y04126D03*
G54D38*
X01014Y04126D03*
X00989D03*
X00963D03*
X00938D03*
X00912D03*
X00886D03*
X00861D03*
X00835D03*
X0081D03*
X0104Y03874D03*
X01014D03*
X00989D03*
X00963D03*
X00938D03*
X00912D03*
X00886D03*
X00861D03*
X00835D03*
X0081D03*
G54D39*
X01326Y03574D03*
Y03331D03*
X01357Y03574D03*
Y03331D03*
X01389Y03574D03*
Y03331D03*
X01421Y03574D03*
Y03331D03*
X01452Y03574D03*
Y03331D03*
X01484Y03574D03*
Y03331D03*
X01515Y03574D03*
Y03331D03*
X01546Y03574D03*
Y03331D03*
X01578Y03574D03*
Y03331D03*
X0161Y03574D03*
Y03331D03*
X01641Y03574D03*
Y03331D03*
X01673Y03574D03*
Y03331D03*
X01704Y03574D03*
Y03331D03*
X01735Y03574D03*
Y03331D03*
X01767Y03574D03*
Y03331D03*
X01798Y03574D03*
Y03331D03*
X0183Y03574D03*
Y03331D03*
X01862Y03574D03*
Y03331D03*
X01893Y03574D03*
Y03331D03*
X01924Y03574D03*
Y03331D03*
X01956Y03574D03*
Y03331D03*
X01987Y03574D03*
Y03331D03*
X02019Y03574D03*
Y03331D03*
X0205Y03574D03*
Y03331D03*
X02082Y03574D03*
Y03331D03*
X02114Y03574D03*
Y03331D03*
X02145Y03574D03*
Y03331D03*
X02177Y03574D03*
Y03331D03*
X02208Y03574D03*
Y03331D03*
X0224Y03574D03*
Y03331D03*
X02271Y03574D03*
Y03331D03*
X02303Y03574D03*
Y03331D03*
X02334Y03574D03*
Y03331D03*
X02365Y03574D03*
Y03331D03*
X02397Y03574D03*
Y03331D03*
X02428Y03574D03*
Y03331D03*
X0246Y03574D03*
Y03331D03*
X02491Y03574D03*
Y03331D03*
X02523Y03574D03*
Y03331D03*
X02555Y03574D03*
Y03331D03*
X01326Y01999D03*
Y01756D03*
X01357Y01999D03*
Y01756D03*
X01389Y01999D03*
Y01756D03*
X01421Y01999D03*
Y01756D03*
X01452Y01999D03*
Y01756D03*
X01484Y01999D03*
Y01756D03*
X01515Y01999D03*
Y01756D03*
X01546Y01999D03*
Y01756D03*
X01578Y01999D03*
Y01756D03*
X0161Y01999D03*
Y01756D03*
X01641Y01999D03*
Y01756D03*
X01673Y01999D03*
Y01756D03*
X01704Y01999D03*
Y01756D03*
X01735Y01999D03*
Y01756D03*
X01767Y01999D03*
Y01756D03*
X01798Y01999D03*
Y01756D03*
X0183Y01999D03*
Y01756D03*
X01862Y01999D03*
Y01756D03*
X01893Y01999D03*
Y01756D03*
X01924Y01999D03*
Y01756D03*
X01956Y01999D03*
Y01756D03*
X01987Y01999D03*
Y01756D03*
X02019Y01999D03*
Y01756D03*
X0205Y01999D03*
Y01756D03*
X02082Y01999D03*
Y01756D03*
X02114Y01999D03*
Y01756D03*
X02145Y01999D03*
Y01756D03*
X02177Y01999D03*
Y01756D03*
X02208Y01999D03*
Y01756D03*
X0224Y01999D03*
Y01756D03*
X02271Y01999D03*
Y01756D03*
X02303Y01999D03*
Y01756D03*
X02334Y01999D03*
Y01756D03*
X02365Y01999D03*
Y01756D03*
X02397Y01999D03*
Y01756D03*
X02428Y01999D03*
Y01756D03*
X0246Y01999D03*
Y01756D03*
X02491Y01999D03*
Y01756D03*
X02523Y01999D03*
Y01756D03*
X02555Y01999D03*
Y01756D03*
G54D40*
X00241Y0465D03*
X00376D03*
X00991D03*
X01126D03*
G54D41*
X03852Y05211D03*
Y04226D03*
Y03242D03*
Y02258D03*
Y01274D03*
Y00289D03*
Y05041D03*
Y05381D03*
Y04056D03*
Y04396D03*
Y03072D03*
Y03412D03*
Y02088D03*
Y02428D03*
Y01104D03*
Y01444D03*
Y00119D03*
Y00459D03*
G54D42*
X03582Y03109D03*
X03178D03*
X03582Y00421D03*
X03178D03*
G54D43*
X03555Y02776D03*
X03505D03*
X03455D03*
X03405D03*
X03205D03*
X03255D03*
X03305D03*
X03355D03*
X03405Y00754D03*
X03455D03*
X03505D03*
X03555D03*
X03355D03*
X03305D03*
X03255D03*
X03205D03*
G54D44*
X0366Y0245D03*
Y02515D03*
X0317Y0245D03*
Y02515D03*
X0333Y0245D03*
Y02515D03*
X035Y0245D03*
Y02515D03*
X0359Y0108D03*
Y01015D03*
X0343Y0108D03*
Y01015D03*
X0326Y0108D03*
Y01015D03*
X031Y0108D03*
Y01015D03*
X01808Y0074D03*
Y00805D03*
X01641Y0074D03*
Y00805D03*
X02285Y0074D03*
Y00805D03*
X02115Y0074D03*
Y00805D03*
X01496Y00896D03*
Y00831D03*
X01443Y00896D03*
Y00831D03*
X01922Y0074D03*
Y00805D03*
X01975Y0074D03*
Y00805D03*
X01786Y00935D03*
Y01D03*
X01657Y00999D03*
Y00934D03*
X0172Y00935D03*
Y01D03*
X01927Y01014D03*
Y00949D03*
X0199Y01014D03*
Y00949D03*
X02203Y00935D03*
Y01D03*
X02267Y00935D03*
Y01D03*
X02075D03*
Y00935D03*
X02136D03*
Y01D03*
X01849Y00935D03*
Y01D03*
X01478Y04378D03*
Y04443D03*
X01933Y01577D03*
Y01642D03*
X02029Y0074D03*
Y00805D03*
X01561Y00751D03*
Y00816D03*
X01096Y0402D03*
Y03955D03*
G54D45*
X0311Y0237D03*
X03175D03*
X0327D03*
X03335D03*
X035D03*
X03435D03*
X0366D03*
X03595D03*
X0311Y0259D03*
X03175D03*
X0327D03*
X03335D03*
X035D03*
X03435D03*
X0366D03*
X03595D03*
X0365Y0116D03*
X03585D03*
X0349D03*
X03425D03*
X0326D03*
X03325D03*
X031D03*
X03165D03*
X0365Y0094D03*
X03585D03*
X0349D03*
X03425D03*
X0326D03*
X03325D03*
X031D03*
X03165D03*
X02385Y04244D03*
X0232D03*
X01163Y045D03*
X01228D03*
X0232Y0419D03*
X02385D03*
X01666Y03905D03*
X01601D03*
X01458Y03903D03*
X01523D03*
X01387Y03901D03*
X01322D03*
Y03962D03*
X01387D03*
X01322Y03838D03*
X01387D03*
X01322Y03776D03*
X01387D03*
X01301Y045D03*
X01366D03*
G54D46*
X01661Y03821D03*
Y03686D03*
X01563Y03821D03*
Y03686D03*
G54D47*
X01673Y0114D03*
X01719Y01186D03*
X01372Y00668D03*
X01418Y00714D03*
X01417Y00624D03*
X01463Y0067D03*
X01758Y01148D03*
X01712Y01102D03*
X02493Y04424D03*
X02447Y04378D03*
X01847Y0428D03*
X01893Y04326D03*
X01936Y04369D03*
X01982Y04415D03*
X0172Y04301D03*
X01674Y04255D03*
X02491Y04332D03*
X02537Y04378D03*
X02275Y04496D03*
X02321Y04542D03*
Y04449D03*
X02367Y04495D03*
G54D48*
X0244Y01266D03*
X02345Y01171D03*
X02333Y01301D03*
X02238Y01206D03*
G54D49*
X02411Y04318D03*
X02457Y04272D03*
X02152Y01146D03*
X02198Y011D03*
X02254Y0428D03*
X02208Y04326D03*
X02165Y04369D03*
X02119Y04415D03*
X01621Y044D03*
X01667Y04354D03*
X01623Y04308D03*
X01577Y04354D03*
X01655Y0136D03*
X01701Y01314D03*
X01607Y01313D03*
X01653Y01267D03*
X01557Y01089D03*
X01511Y01135D03*
X01467Y01091D03*
X01513Y01045D03*
G54D50*
X02053Y04022D03*
G54D51*
X0225Y022D02*
Y0224D01*
X02114Y02063D02*
X0225Y022D01*
X0228D02*
Y0221D01*
X02145Y02065D02*
X0228Y022D01*
X02334Y01999D02*
Y0209D01*
X02114Y01999D02*
Y02063D01*
X02145Y01999D02*
Y02065D01*
X02208Y01999D02*
Y0209D01*
X0224Y02059D02*
Y0206D01*
Y01999D02*
Y02059D01*
X02271Y01999D02*
Y0209D01*
X02303Y01999D02*
Y0206D01*
X02365D02*
X02366D01*
X02365Y01999D02*
Y0206D01*
X02397Y01999D02*
Y0209D01*
X02428Y0206D02*
X02429D01*
X02428Y01999D02*
Y0206D01*
X0246Y01999D02*
Y02089D01*
X02491Y01999D02*
Y0206D01*
X02523Y01999D02*
Y0209D01*
X02555Y01999D02*
Y0206D01*
X02145Y0171D02*
X02152Y01703D01*
X02145Y0171D02*
Y01756D01*
X03821Y01305D02*
X03852Y01274D01*
X0375Y01305D02*
X03821D01*
X02491Y017D02*
Y01756D01*
X0246Y01676D02*
Y01731D01*
X02397Y01676D02*
Y01731D01*
X02428Y01701D02*
Y01756D01*
X02365Y017D02*
Y01701D01*
Y01756*
X02209Y0433D02*
X0223Y04351D01*
X00797Y01074D02*
X00894D01*
X0137Y0208D02*
X01389Y02061D01*
X0122Y0208D02*
X0137D01*
X012Y0206D02*
X0122Y0208D01*
X012Y0141D02*
Y0206D01*
X00943Y01153D02*
X012Y0141D01*
X00797Y01153D02*
X00943D01*
X01389Y01999D02*
Y02061D01*
X0138Y021D02*
X01421Y02059D01*
X0121Y021D02*
X0138D01*
X0118Y0207D02*
X0121Y021D01*
X0118Y0142D02*
Y0207D01*
X00991Y01231D02*
X0118Y0142D01*
X00797Y01231D02*
X00991D01*
X01421Y02024D02*
Y02059D01*
X00894Y01074D02*
X0122Y014D01*
Y0165*
X0124Y0167*
X014*
X01421Y01691*
Y01756*
X01452Y01999D02*
Y02028D01*
X0144Y0204D02*
X01452Y02028D01*
X0144Y0204D02*
Y0207D01*
X0138Y0213D02*
X0144Y0207D01*
X0129Y0213D02*
X0138D01*
X0124Y0163D02*
X0125Y0164D01*
X0124Y0139D02*
Y0163D01*
X00845Y00995D02*
X0124Y0139D01*
X00797Y00995D02*
X00845D01*
X0115Y0161D02*
X0116Y016D01*
Y0143D02*
Y016D01*
X0105Y0132D02*
X0116Y0143D01*
X00807Y0132D02*
X0105D01*
X00797Y0131D02*
X00807Y0132D01*
X04Y0D02*
Y055D01*
X01193D02*
X04D01*
X0Y01681D02*
Y0365D01*
X00753Y0D02*
X04D01*
X0D02*
Y01681D01*
Y0D02*
X00753D01*
X0Y055D02*
X01193D01*
X0Y0365D02*
Y055D01*
G54D52*
X0246Y0209D02*
Y02089D01*
X02402Y04166D02*
X02439Y04128D01*
D01*
X02251Y04168D02*
X02253Y04166D01*
X02402*
X02542Y02751D02*
X02546D01*
X02505Y02714D02*
X02542Y02751D01*
X02498Y02714D02*
X02505D01*
X0241Y02627D02*
X02498Y02714D01*
X02293Y02627D02*
X0241D01*
X02007Y02286D02*
Y02341D01*
X02293Y02627*
X02003Y02282D02*
D01*
X02007Y02286*
X01999Y02278D02*
D01*
X02003Y02282*
X01995Y02274D02*
X01999Y02278D01*
X01995Y02274D02*
D01*
X01991Y0227D02*
X01995Y02274D01*
X01991Y0227D02*
D01*
X01878Y02157D02*
X01991Y0227D01*
X01856Y02157D02*
X01878D01*
X01798Y02099D02*
X01856Y02157D01*
X01798Y01999D02*
Y02099D01*
X02384Y04149D02*
X02403Y0413D01*
X02251Y04149D02*
X02384D01*
X0251Y02746D02*
Y02751D01*
X02405Y02641D02*
X0251Y02746D01*
X02287Y02641D02*
X02405D01*
X02063Y02416D02*
X02287Y02641D01*
X01993Y02347D02*
X02063Y02416D01*
X01993Y02292D02*
Y02347D01*
X01989Y02288D02*
X01993Y02292D01*
X01989Y02288D02*
D01*
X01985Y02284D02*
X01989Y02288D01*
X01985Y02284D02*
D01*
X01981Y0228D02*
X01985Y02284D01*
X01981Y0228D02*
D01*
X01872Y02171D02*
X01981Y0228D01*
X0185Y02171D02*
X01872D01*
X01846Y02167D02*
X0185Y02171D01*
X01846Y02167D02*
D01*
X01767Y02088D02*
X01846Y02167D01*
X01767Y01999D02*
Y02088D01*
X02335Y0409D02*
X02365Y0406D01*
X02251Y0409D02*
X02335D01*
X02447Y02747D02*
Y02805D01*
X02472Y0283*
X02383Y02683D02*
X02447Y02747D01*
X0227Y02683D02*
X02383D01*
X01951Y02364D02*
X0227Y02683D01*
X01951Y0231D02*
Y02364D01*
X01855Y02213D02*
X01951Y0231D01*
X01833Y02213D02*
X01855D01*
X01829Y02209D02*
X01833Y02213D01*
X01829Y02209D02*
D01*
X01825Y02205D02*
X01829Y02209D01*
X01825Y02205D02*
D01*
X01821Y02201D02*
X01825Y02205D01*
X01821Y02201D02*
D01*
X01816Y02197D02*
X01821Y02201D01*
X01816Y02197D02*
D01*
X01673Y02053D02*
X01816Y02197D01*
X01673Y01999D02*
Y02053D01*
X02251Y04109D02*
X02352D01*
X02366Y04096*
X02474Y0275D02*
Y02789D01*
X02393Y02669D02*
X02474Y0275D01*
X02276Y02669D02*
X02393D01*
X01965Y02359D02*
X02276Y02669D01*
X01965Y02304D02*
Y02359D01*
X01961Y023D02*
X01965Y02304D01*
X01961Y023D02*
D01*
X01861Y02199D02*
X01961Y023D01*
X01839Y02199D02*
X01861D01*
X01835Y02195D02*
X01839Y02199D01*
X01835Y02195D02*
D01*
X0183Y02191D02*
X01835Y02195D01*
X0183Y02191D02*
D01*
X01826Y02187D02*
X0183Y02191D01*
X01826Y02187D02*
D01*
X01704Y02064D02*
X01826Y02187D01*
X01704Y01999D02*
Y02064D01*
X02367Y04129D02*
X02402Y04094D01*
X02251Y04129D02*
X02367D01*
X0251Y02785D02*
Y0279D01*
X02487Y02743D02*
Y02761D01*
X0251Y02785*
X02399Y02655D02*
X02487Y02743D01*
X02282Y02655D02*
X02399D01*
X01979Y02353D02*
X02282Y02655D01*
X01979Y02298D02*
Y02353D01*
X01975Y02294D02*
X01979Y02298D01*
X01975Y02294D02*
D01*
X01971Y0229D02*
X01975Y02294D01*
X01971Y0229D02*
D01*
X01866Y02185D02*
X01971Y0229D01*
X01844Y02185D02*
X01866D01*
X0184Y02181D02*
X01844Y02185D01*
X0184Y02181D02*
D01*
X01836Y02177D02*
X0184Y02181D01*
X01836Y02177D02*
D01*
X01735Y02076D02*
X01836Y02177D01*
X01735Y01999D02*
Y02076D01*
X0202Y0466D02*
X02032D01*
X01993Y04633D02*
X0202Y0466D01*
X01934Y04633D02*
X01993D01*
X01818Y04517D02*
X01934Y04633D01*
X01818Y04517D02*
D01*
Y04496D02*
Y04517D01*
X01797Y04475D02*
X01818Y04496D01*
X01729Y04407D02*
X01797Y04475D01*
X02661Y02751D02*
X02665D01*
X02625Y02715D02*
X02661Y02751D01*
X02619Y02715D02*
X02625D01*
X02439Y02535D02*
X02619Y02715D01*
X02297Y02535D02*
X02439D01*
X02085Y02002D02*
Y02323D01*
X02297Y02535*
X02082Y01999D02*
X02085Y02002D01*
X01943Y04621D02*
X02016D01*
X01861Y04539D02*
X01943Y04621D01*
X02629Y02748D02*
Y02752D01*
X0243Y02549D02*
X02629Y02748D01*
X02291Y02549D02*
X0243D01*
X02071Y02329D02*
X02291Y02549D01*
X02071Y02051D02*
Y02329D01*
X0205Y01999D02*
Y0203D01*
X02071Y02051*
X0194Y0459D02*
X01985D01*
X01875Y04526D02*
X0194Y0459D01*
X02631Y02786D02*
Y02788D01*
X02606Y02748D02*
Y02761D01*
X02631Y02786*
X02429Y0257D02*
X02606Y02748D01*
X02285Y0257D02*
X02429D01*
X02053Y0226D02*
Y02338D01*
X02285Y0257*
X01878Y02086D02*
X02053Y0226D01*
X01878Y02045D02*
Y02086D01*
X01893Y01999D02*
Y0203D01*
X01878Y02045D02*
X01893Y0203D01*
X02585Y02779D02*
X02595Y02789D01*
X02585Y02749D02*
Y02779D01*
X0242Y02584D02*
X02585Y02749D01*
X02279Y02584D02*
X0242D01*
X02039Y02344D02*
X02279Y02584D01*
X02039Y02266D02*
Y02344D01*
X01912Y02139D02*
X02039Y02266D01*
X01912Y02139D02*
D01*
X0183Y01999D02*
Y02057D01*
X01912Y02139*
X01831Y03302D02*
Y03331D01*
X01824Y03277D02*
X01835Y03266D01*
X01817Y03759D02*
X01823D01*
X01986Y03802D02*
Y03821D01*
X0199Y03717D02*
X02114Y03593D01*
Y03574D02*
Y03593D01*
X01967Y03802D02*
Y03821D01*
X01978Y03712D02*
X02082Y03608D01*
Y03574D02*
Y03608D01*
X01967Y03802D02*
X01978Y03791D01*
X01986Y03802D02*
X0199Y03798D01*
X01978Y03712D02*
Y03791D01*
X0199Y03717D02*
Y03798D01*
X01841Y03838D02*
Y03853D01*
X0205Y03574D02*
Y03595D01*
X01948Y03698D02*
X0205Y03595D01*
X02025Y0358D02*
Y03604D01*
X01943Y03686D02*
X02025Y03604D01*
X01875Y03686D02*
X01943D01*
X01859Y03719D02*
X0188Y03698D01*
X01859Y03719D02*
Y0382D01*
X01845Y03853D02*
X01854D01*
X01841Y03838D02*
X01859Y0382D01*
X01847Y03714D02*
X01875Y03686D01*
X01847Y03714D02*
Y03815D01*
X01837Y03873D02*
X01854D01*
X01829Y03865D02*
X01837Y03873D01*
X01829Y03833D02*
X01847Y03815D01*
X01829Y03833D02*
Y03865D01*
X0188Y03698D02*
X01948D01*
X018Y03266D02*
X01811Y03277D01*
X01799Y03307D02*
Y03331D01*
X01798Y03746D02*
Y03878D01*
X01811Y03722D02*
Y03733D01*
X01798Y03746D02*
X01811Y03733D01*
X0181Y03766D02*
X01817Y03759D01*
X01893Y03574D02*
X01898Y03579D01*
X0187Y03674D02*
X0192Y03624D01*
Y03579D02*
Y03624D01*
X01865Y03662D02*
X01898Y03629D01*
X01852Y03934D02*
X01854Y03932D01*
X01825Y03934D02*
X01852D01*
X01783Y03892D02*
X01825Y03934D01*
X01783Y03715D02*
Y03892D01*
Y03715D02*
X01824Y03674D01*
X01839Y03948D02*
X01843Y03952D01*
X01854*
X01822Y03948D02*
X01839D01*
X01771Y03897D02*
X01822Y03948D01*
X01771Y0371D02*
Y03897D01*
X01824Y03674D02*
X0187D01*
X01898Y03579D02*
Y03629D01*
X01819Y03662D02*
X01865D01*
X01771Y0371D02*
X01819Y03662D01*
X01839Y04031D02*
X01854D01*
X01835Y04027D02*
X01839Y04031D01*
X01815Y04027D02*
X01835D01*
X0171Y03922D02*
X01815Y04027D01*
X01817Y04012D02*
X01854D01*
X01722Y03917D02*
X01817Y04012D01*
X0182Y03989D02*
X01852D01*
X01795Y03963D02*
X0182Y03989D01*
X01852D02*
X01854Y03991D01*
X01821Y03973D02*
X01852D01*
X01854Y03971*
X01755Y03907D02*
X01821Y03973D01*
X01831Y03894D02*
X01853D01*
X01854Y03893*
X0181Y03873D02*
X01831Y03894D01*
Y03911D02*
X01853D01*
X01798Y03878D02*
X01831Y03911D01*
X01811Y03277D02*
Y03295D01*
X01799Y03307D02*
X01811Y03295D01*
X0181Y03766D02*
Y03873D01*
X01798Y03574D02*
Y03618D01*
X01795Y03963D02*
D01*
X01743Y03912D02*
X01795Y03963D01*
X01743Y03674D02*
Y03912D01*
Y03674D02*
X01798Y03618D01*
X01831Y03574D02*
Y03606D01*
X01755Y03682D02*
Y03907D01*
Y03682D02*
X01831Y03606D01*
X01824Y03277D02*
Y03295D01*
X01831Y03302*
X01824Y03276D02*
Y03277D01*
X01767Y03574D02*
X01769Y03572D01*
X01767Y03574D02*
Y03604D01*
X01735Y03574D02*
Y03609D01*
X0171Y03634D02*
X01735Y03609D01*
X01722Y03649D02*
X01767Y03604D01*
X01722Y03649D02*
Y03917D01*
X0171Y03634D02*
Y03922D01*
X02006Y03802D02*
Y03821D01*
X02203Y03802D02*
Y03821D01*
X02085Y03802D02*
Y03821D01*
X02104Y03802D02*
Y03821D01*
X02203Y03802D02*
X02207Y03798D01*
X02101D02*
X02104Y03802D01*
X02085D02*
X02089Y03798D01*
X01904D02*
X01908Y03802D01*
X01888D02*
X01892Y03798D01*
X02006Y03802D02*
X0201Y03798D01*
X02022D02*
X02026Y03802D01*
Y03821*
X01943Y03798D02*
X01947Y03802D01*
X01926D02*
X0193Y03798D01*
X01926Y03802D02*
Y03821D01*
X01947Y03802D02*
Y03821D01*
X01908Y03802D02*
Y03821D01*
X01888Y03802D02*
Y03821D01*
X02163Y03802D02*
X02167Y03798D01*
X02179D02*
X02183Y03802D01*
Y0382*
Y03821*
X02163Y03802D02*
Y03821D01*
X02124Y03802D02*
Y03808D01*
X02203Y0408D02*
X02213Y0407D01*
X01986Y04176D02*
Y04222D01*
X02104Y04176D02*
Y04222D01*
X02045Y04176D02*
Y04222D01*
X02039Y0417D02*
X02045Y04176D01*
X0198Y0417D02*
X01986Y04176D01*
X01892Y0407D02*
X01902Y0408D01*
X01325Y01702D02*
X01326Y01703D01*
Y01756*
X01547Y01999D02*
Y02068D01*
X02057Y00602D02*
X02093Y00566D01*
X01553Y00602D02*
X02057D01*
X01502Y00551D02*
X01553Y00602D01*
X01372Y0062D02*
Y00668D01*
X01441Y00551D02*
X01502D01*
X01372Y0062D02*
X01441Y00551D01*
X01579Y01999D02*
Y02071D01*
X02105Y00616D02*
X0212Y00601D01*
X01531Y00616D02*
X02105D01*
X01466Y00581D02*
X01496D01*
X01531Y00616*
X01417Y00624D02*
X0146Y00581D01*
X01466*
X0161Y01999D02*
Y02067D01*
X01605D02*
X01609Y02071D01*
X01642Y02063D02*
X0165Y02071D01*
X01642Y01999D02*
Y02063D01*
X02135Y0063D02*
X02146Y00641D01*
X015Y0063D02*
X02135D01*
X01452Y01702D02*
Y01756D01*
X01478Y02004D02*
X01484Y01999D01*
X01478Y02004D02*
Y02042D01*
X01466Y02054D02*
X01478Y02042D01*
X01357Y03574D02*
Y03634D01*
X01452Y03574D02*
Y03634D01*
X01463Y03275D02*
Y03282D01*
X01465D02*
X01478Y03295D01*
Y03325*
X01484Y03331*
X01452Y03297D02*
Y03331D01*
X01429Y03275D02*
X01452Y03297D01*
X01416Y03302D02*
Y03331D01*
X01389Y03275D02*
X01416Y03302D01*
X01357Y03277D02*
Y03331D01*
X01353Y03275D02*
X01355Y03277D01*
X0174Y03289D02*
Y03331D01*
X01709Y03289D02*
Y03331D01*
X01678Y03289D02*
Y03331D01*
X01646Y03289D02*
Y03331D01*
X01615Y03289D02*
Y03331D01*
X01583Y03289D02*
Y03331D01*
X01551Y03289D02*
Y03331D01*
X00862Y04046D02*
Y04125D01*
X00861Y04126D02*
X00862Y04125D01*
X0075Y03934D02*
X00862Y04046D01*
X0075Y03651D02*
X01255Y03146D01*
X0075Y03651D02*
Y03934D01*
X012Y03222D02*
X0122Y03201D01*
X00886Y0405D02*
Y04126D01*
X00764Y03928D02*
X00886Y0405D01*
X00764Y03657D02*
X012Y03222D01*
X01261Y0316*
X00764Y03657D02*
Y03928D01*
X00912Y04056D02*
Y04126D01*
X00778Y03922D02*
X00912Y04056D01*
X00778Y03663D02*
X01267Y03174D01*
X00778Y03663D02*
Y03922D01*
X01219Y03241D02*
X01232Y03229D01*
X0081Y03857D02*
Y03874D01*
X00792Y03839D02*
X0081Y03857D01*
X00792Y03669D02*
X01219Y03241D01*
X01273Y03188*
X00792Y03669D02*
Y03839D01*
X00835Y03849D02*
Y03874D01*
X00806Y0382D02*
X00835Y03849D01*
X00806Y03674D02*
X01278Y03202D01*
X00806Y03674D02*
Y0382D01*
X01239Y03261D02*
X01284Y03216D01*
X00861Y03843D02*
Y03874D01*
X0082Y03802D02*
X00861Y03843D01*
X0082Y0368D02*
X01239Y03261D01*
X0082Y0368D02*
Y03802D01*
X00886Y03838D02*
Y03874D01*
X00834Y03786D02*
X00886Y03838D01*
X00834Y03686D02*
X0129Y0323D01*
X00834Y03686D02*
Y03786D01*
X01597Y03146D02*
X0174Y03289D01*
X01255Y03146D02*
X01597D01*
X01579Y0316D02*
X01709Y03289D01*
X01261Y0316D02*
X01579D01*
X01562Y03174D02*
X01678Y03289D01*
X01267Y03174D02*
X01562D01*
X01544Y03188D02*
X01646Y03289D01*
X01273Y03188D02*
X01544D01*
X01527Y03202D02*
X01615Y03289D01*
X01278Y03202D02*
X01527D01*
X0151Y03216D02*
X01583Y03289D01*
X01284Y03216D02*
X0151D01*
X01492Y0323D02*
X01551Y03289D01*
X0129Y0323D02*
X01492D01*
X02147Y03699D02*
Y03808D01*
Y03699D02*
X02208Y03638D01*
Y036D02*
Y03638D01*
X02145Y036D02*
Y03602D01*
X02135Y03612D02*
X02145Y03602D01*
X02135Y03612D02*
Y03791D01*
X02124Y03802D02*
X02135Y03791D01*
X02146Y03307D02*
Y03331D01*
X02209D02*
D01*
Y03307D02*
Y03331D01*
X02179Y03772D02*
Y03798D01*
Y03772D02*
X0219Y03762D01*
X02197Y03295D02*
X02209Y03307D01*
X02197Y03277D02*
Y03295D01*
X02167Y03732D02*
Y03798D01*
Y03732D02*
X02178Y03722D01*
X02158Y03277D02*
Y03295D01*
X02146Y03307D02*
X02158Y03295D01*
X01894Y03307D02*
Y03331D01*
X01994Y03247D02*
Y03286D01*
X01987Y03293D02*
Y0333D01*
Y03293D02*
X01994Y03286D01*
X0193Y03732D02*
X01941Y03722D01*
X0193Y03732D02*
Y03798D01*
X01968Y03272D02*
Y03295D01*
X01956Y03307D02*
X01968Y03295D01*
X01957Y03307D02*
Y03331D01*
X01987Y0333D02*
Y03331D01*
X01943Y03772D02*
X01953Y03762D01*
X01943Y03772D02*
Y03798D01*
X01888Y03247D02*
Y03326D01*
X01924Y03303D02*
Y03331D01*
X01913Y03292D02*
X01924Y03303D01*
X01913Y03272D02*
Y03292D01*
X02052Y03251D02*
Y03331D01*
X02051Y0325D02*
X02052Y03251D01*
X02022Y03772D02*
Y03798D01*
Y03772D02*
X02032Y03762D01*
X0202Y03233D02*
Y03331D01*
Y03233D02*
X02021Y03232D01*
X0201Y03732D02*
Y03798D01*
Y03732D02*
X0202Y03722D01*
X0161Y01724D02*
Y01756D01*
X0162Y01507D02*
Y01714D01*
X01642Y01724D02*
Y01756D01*
X01785Y01376D02*
X01788Y01372D01*
X01802*
X0161Y01724D02*
X0162Y01714D01*
X01788Y01391D02*
X01802D01*
X01785Y01388D02*
X01788Y01391D01*
X01632Y01714D02*
X01642Y01724D01*
X01632Y01512D02*
Y01714D01*
X01751Y01376D02*
X01785D01*
X0162Y01507D02*
X01751Y01376D01*
X01756Y01388D02*
X01785D01*
X01632Y01512D02*
X01756Y01388D01*
X01802Y01332D02*
Y01334D01*
X01547Y01526D02*
Y01756D01*
X01739Y01334D02*
X018D01*
X01547Y01526D02*
X01739Y01334D01*
X0189Y01753D02*
X01893Y01756D01*
X0189Y01713D02*
Y01753D01*
X01924Y0173D02*
Y01756D01*
X01902Y01708D02*
X01924Y0173D01*
X01916Y01479D02*
Y01509D01*
X01912Y01475D02*
X01916Y01479D01*
X01912Y01462D02*
Y01475D01*
X0189Y01535D02*
Y01713D01*
X01894Y01531D02*
D01*
X01916Y01509D01*
X0189Y01535D02*
X01894Y01531D01*
X01928Y01479D02*
X01931Y01475D01*
X01928Y01479D02*
Y01514D01*
X01931Y01462D02*
Y01475D01*
X01902Y01539D02*
X01928Y01514D01*
X01902Y01539D02*
Y01708D01*
X02274Y04031D02*
X02275Y0403D01*
X02251Y04031D02*
X02274D01*
X02251Y04012D02*
Y04011D01*
X02252D01*
X02451Y03616D02*
Y03932D01*
Y03616D02*
X02461Y03606D01*
Y03574D02*
Y03606D01*
X02353Y0403D02*
X02451Y03932D01*
X02275Y04011D02*
X02279Y04015D01*
X02252Y04011D02*
X02275D01*
X02439Y03616D02*
Y03927D01*
X02429Y03606D02*
X02439Y03616D01*
X02429Y03574D02*
Y03606D01*
X02279Y04015D02*
X02282Y04018D01*
X02275Y0403D02*
X02353D01*
X02282Y04018D02*
X02348D01*
X02439Y03927*
X02429Y03307D02*
Y03331D01*
X0243Y03266D02*
X02441Y03277D01*
X02461Y03302D02*
Y03331D01*
X02463Y03267D02*
X02468D01*
X02301Y03999D02*
X02323D01*
X02301D02*
D01*
X02323D02*
X02327Y03995D01*
X02301Y03999D02*
D01*
X02283D02*
X02301D01*
X02251Y03992D02*
X02276D01*
X02283Y03999*
X02454Y03295D02*
X02461Y03302D01*
X02454Y03276D02*
Y03295D01*
Y03276D02*
X02463Y03267D01*
X02287Y03972D02*
X02292Y03977D01*
X02251Y03972D02*
X02287D01*
X02429Y03307D02*
X02441Y03295D01*
Y03277D02*
Y03295D01*
X02398Y03606D02*
Y03904D01*
X02251Y03953D02*
X02349D01*
X02398Y03606D02*
D01*
Y03574D02*
Y03606D01*
X02279Y03933D02*
X0228Y03934D01*
X02351*
X02251Y03933D02*
X02279D01*
X02251D02*
D01*
X02366Y03606D02*
X02386Y03626D01*
X02366Y03574D02*
Y03606D01*
X02349Y03953D02*
X02398Y03904D01*
X02351Y03934D02*
X02386Y03899D01*
Y03626D02*
Y03899D01*
X02398Y03302D02*
Y03331D01*
X02391Y03277D02*
X02402Y03266D01*
X02366Y03331D02*
D01*
Y03307D02*
Y03331D01*
X02274Y03897D02*
X02294D01*
X02297*
X02391Y03295D02*
X02398Y03302D01*
X02391Y03277D02*
Y03295D01*
Y03276D02*
Y03277D01*
X0227Y03894D02*
X02274Y03897D01*
X02251Y03894D02*
X0227D01*
X02366Y03307D02*
X02378Y03295D01*
Y03277D02*
Y03295D01*
X02367Y03266D02*
X02378Y03277D01*
X01933Y01656D02*
X01949Y01672D01*
X01933Y01642D02*
Y01656D01*
X02036Y03858D02*
X02045Y03849D01*
Y0382D02*
Y03849D01*
X02065Y03847D02*
X02075Y03858D01*
X02065Y0382D02*
Y03847D01*
X01813Y04211D02*
X01833Y04191D01*
X01813Y0407D02*
X01833Y0409D01*
X01854*
X01888Y0425D02*
X01898Y0426D01*
X01888Y04222D02*
Y0425D01*
X01898Y0426D02*
X01907Y04251D01*
Y04222D02*
Y04251D01*
X02163Y04176D02*
Y04222D01*
X02213Y0405D02*
X02251D01*
X02213Y0407D02*
X02251D01*
X01813Y04175D02*
X0182Y04168D01*
X01854*
X01813Y04105D02*
X01817Y04109D01*
X01854*
Y0407D02*
X01892D01*
X01854Y0405D02*
X01892D01*
X01927Y04176D02*
X01933Y0417D01*
X01927Y04176D02*
Y04222D01*
X01872Y0115D02*
Y01184D01*
X01723Y01001D02*
X01872Y0115D01*
X01777Y0101D02*
Y01038D01*
X01892Y01174D02*
Y01184D01*
X01777Y01038D02*
X01884Y01145D01*
Y01166*
X01892Y01174*
X02049Y0115D02*
Y01184D01*
Y0115D02*
X02198Y01001D01*
X02145Y01009D02*
Y01037D01*
X02037Y01145D02*
X02145Y01037D01*
X02037Y01145D02*
Y01167D01*
X02029Y01175D02*
X02037Y01167D01*
X02029Y01175D02*
Y01184D01*
X01673Y01724D02*
X01683Y01714D01*
Y01508D02*
Y01714D01*
X01695D02*
X01705Y01724D01*
X01695Y01513D02*
Y01714D01*
X01683Y01508D02*
X01776Y01415D01*
X01788Y01411D02*
X01802D01*
X01785Y01415D02*
X01788Y01411D01*
X01776Y01415D02*
X01785D01*
X01695Y01513D02*
X01781Y01427D01*
X01785*
X01788Y01431D02*
X01802D01*
X01785Y01427D02*
X01788Y01431D01*
X01736Y01724D02*
X01745Y01715D01*
X01757Y01713D02*
X01768Y01724D01*
X01757Y0157D02*
X01852Y01475D01*
X01745Y01563D02*
X01833Y01475D01*
X01757Y01686D02*
Y01713D01*
X01799Y01724D02*
X01808Y01715D01*
Y01563D02*
Y01715D01*
X0182Y01713D02*
X01831Y01724D01*
X0182Y01568D02*
Y01713D01*
X01808Y01563D02*
X01876Y01495D01*
X01872Y01475D02*
X01876Y01479D01*
Y01495*
X0182Y01568D02*
X01888Y015D01*
Y01479D02*
X01892Y01475D01*
X01888Y01479D02*
Y015D01*
X02089Y01475D02*
X02105Y01491D01*
X02069Y01475D02*
X02093Y01499D01*
X02105Y01491D02*
Y01715D01*
X02114Y01724*
X02093Y01499D02*
Y01714D01*
X02083Y01724D02*
X02093Y01714D01*
X02225Y01628D02*
X02308Y01711D01*
Y01735*
X02132Y01372D02*
X02237Y01476D01*
Y01623*
X02132Y01391D02*
X02225Y01484D01*
Y01628*
X02237Y01623D02*
X02329Y01715D01*
Y01733*
X02162Y01483D02*
Y01623D01*
X0215Y01488D02*
Y01628D01*
X02241Y01718*
X02132Y01411D02*
X02139Y01418D01*
Y0146D02*
X02162Y01483D01*
X02139Y01418D02*
Y0146D01*
X02119Y01439D02*
X02127Y01447D01*
Y01465D02*
X0215Y01488D01*
X02127Y01447D02*
Y01465D01*
X02162Y01623D02*
X02272Y01733D01*
X018Y01334D02*
X01802Y01332D01*
X02089Y03732D02*
Y03798D01*
Y03732D02*
X02099Y03722D01*
X02083Y03307D02*
X02095Y03295D01*
Y03277D02*
Y03295D01*
X02101Y03772D02*
X02111Y03762D01*
X02101Y03772D02*
Y03798D01*
X02107Y03295D02*
X02114Y03302D01*
X02107Y03276D02*
Y03277D01*
Y03295*
X02223Y03788D02*
X02249Y03762D01*
X02264Y03276D02*
Y03277D01*
Y03295*
X02272Y03302*
X02227Y03732D02*
X02237Y03722D01*
X02227Y03732D02*
Y03756D01*
X02207Y03776D02*
Y03798D01*
Y03776D02*
X02227Y03756D01*
X02253Y03277D02*
Y03295D01*
X0224Y03307D02*
X02253Y03295D01*
X01881Y03762D02*
X01892Y03772D01*
Y03798*
X01893Y03722D02*
X01904Y03732D01*
Y03798*
X0203Y01482D02*
X02038Y0149D01*
Y01706*
X0203Y01462D02*
Y01482D01*
X0202Y01724D02*
X02038Y01706D01*
X0205Y01462D02*
Y01755D01*
Y01756*
X01987Y01711D02*
Y01756D01*
X0199Y01462D02*
Y01475D01*
X01999Y01483D02*
Y01683D01*
X0199Y01475D02*
X01999Y01483D01*
X01956Y01726D02*
X01999Y01683D01*
X01987Y01711D02*
X02011Y01688D01*
X0201Y01462D02*
Y01475D01*
X02011Y01476D02*
Y01688D01*
X0201Y01475D02*
X02011Y01476D01*
X01956Y01726D02*
Y01756D01*
X02203Y04222D02*
Y04251D01*
X02212Y0426*
X02183Y04222D02*
Y04245D01*
X02198Y0426*
X02212*
X01745Y01691D02*
Y01715D01*
X01705Y01724D02*
Y01756D01*
X01673Y01724D02*
Y01756D01*
X01757Y0157D02*
Y01686D01*
X01768Y01724D02*
Y01756D01*
X01852Y01461D02*
Y01475D01*
X01745Y01563D02*
Y01691D01*
X01833Y01461D02*
Y01475D01*
X01736Y01724D02*
Y01756D01*
X02119Y01372D02*
X02132D01*
X02119Y01391D02*
X02132D01*
X02119Y01411D02*
X02132D01*
X02241Y01718D02*
Y01756D01*
X02119Y01431D02*
Y01439D01*
X02114Y01724D02*
Y01756D01*
X02089Y01461D02*
Y01475D01*
X02083Y01724D02*
Y01756D01*
X02069Y01461D02*
Y01475D01*
X01831Y01724D02*
Y01756D01*
X01892Y01461D02*
Y01475D01*
X01872Y01461D02*
Y01475D01*
X01799Y01724D02*
Y01756D01*
X02114Y03302D02*
Y03331D01*
X02107Y03277D02*
X02118Y03266D01*
X02083Y03307D02*
Y03331D01*
Y03266D02*
X02095Y03277D01*
X0224Y03307D02*
Y03331D01*
X02241Y03266D02*
X02253Y03277D01*
X02272Y03302D02*
Y03331D01*
X02264Y03277D02*
X02276Y03266D01*
X02223Y03788D02*
Y03821D01*
X0202Y01724D02*
Y01756D01*
X02203Y0404D02*
X02213Y0405D01*
X01892D02*
X01902Y0404D01*
X01833Y04191D02*
X01854D01*
X02321Y03625D02*
Y03808D01*
X02275Y03874D02*
X02333Y03816D01*
Y03575D02*
Y03816D01*
X02251Y03874D02*
X02275D01*
Y03854D02*
X02321Y03808D01*
X02251Y03854D02*
X02275D01*
X02278*
X02303Y03606D02*
X02321Y03625D01*
X02303Y03574D02*
Y03606D01*
X0212Y01293D02*
X02159D01*
X02119D02*
X0212D01*
X02159D02*
X02171Y01305D01*
X0219*
X01967Y02077D02*
X02019Y02025D01*
Y01999D02*
Y02025D01*
X02121Y01315D02*
X0215D01*
X01987Y01999D02*
Y02023D01*
X01934Y02077D02*
X01987Y02023D01*
X02119Y01333D02*
X02131D01*
X02145Y01347*
X02168*
X01956Y01999D02*
Y02019D01*
X019Y02075D02*
X01956Y02019D01*
X02251Y03913D02*
X02308D01*
X0233Y03891*
X01421Y01999D02*
Y02024D01*
G54D53*
X0049Y037D02*
X0078Y0341D01*
G54D54*
X0033Y03988D02*
Y0432D01*
X00315Y03972D02*
X0033Y03988D01*
X00315Y04335D02*
X0033Y0432D01*
X00315Y04335D02*
Y04417D01*
X00376Y04635D02*
Y0464D01*
X00491Y04635D02*
Y0485D01*
X00415Y04417D02*
Y04531D01*
X00215Y04417D02*
Y04504D01*
X00242Y04531*
X00265Y0433D02*
Y04417D01*
Y0433D02*
X0029Y04305D01*
X00242Y04531D02*
Y0464D01*
X00421Y04635D02*
X00491D01*
X00376D02*
X00421D01*
X00332Y04531D02*
X00415D01*
X0063Y00838D02*
Y00916D01*
Y00995*
Y01074*
Y01153*
Y01231*
Y0131*
G54D55*
X01478Y04366D02*
Y04378D01*
X01735Y04329D02*
X01771Y04365D01*
X0172Y04314D02*
X01735Y04329D01*
X01748Y04319*
X024Y04372D02*
X02441D01*
X02373Y04318D02*
X02411D01*
X02359Y04332D02*
X02373Y04318D01*
X01701Y04351D02*
X01743Y04393D01*
X0167Y04351D02*
X01701D01*
X01088Y03779D02*
Y03803D01*
X01105Y0382*
X01088Y04542D02*
X011Y04554D01*
Y04575*
X01088Y04294D02*
X01109D01*
X0113Y04315*
X00873Y03728D02*
X00918D01*
X00989Y03836D02*
Y03874D01*
Y03836D02*
X01015Y0381D01*
G54D56*
X0179Y01293D02*
X01802D01*
X01786Y01289D02*
X0179Y01293D01*
X01701Y01314D02*
X01726Y01289D01*
X01786*
G54D57*
X00788Y01697D03*
G54D58*
X003Y03855D03*
G54D59*
X00942Y0173D03*
G54D60*
X01643Y0252D03*
G54D61*
X01648Y02447D03*
G54D62*
X02405Y00174D03*
X01655D03*
X00492Y0488D03*
X01992Y04882D03*
X02742D03*
X01242Y0488D03*
G54D63*
X02505Y00074D03*
Y00274D03*
X02305D03*
Y00074D03*
X01755D03*
Y00274D03*
X01555D03*
Y00074D03*
X00592Y0478D03*
Y0498D03*
X00392D03*
Y0478D03*
X02092Y04782D03*
Y04982D03*
X01892D03*
Y04782D03*
X02842D03*
Y04982D03*
X02642D03*
Y04782D03*
X01342Y0478D03*
Y0498D03*
X01142D03*
Y0478D03*
G54D64*
X00714Y00877D03*
Y01271D03*
G54D65*
X00289Y00998D03*
Y00898D03*
Y00798D03*
X00155Y04832D03*
X0378Y01666D03*
Y01766D03*
X0348Y01666D03*
Y01766D03*
X0318Y01666D03*
Y01766D03*
X02053Y04022D03*
G54D66*
X00289Y01098D03*
X00155Y04932D03*
X0378Y01866D03*
X0348D03*
X0318D03*
G54D67*
X01961Y01323D03*
G54D68*
X02619Y03533D03*
X01262D03*
X02619Y01957D03*
X01262D03*
G54D69*
X0363Y0329D03*
X0313D03*
X0363Y0024D03*
X0313D03*
G54D70*
X0016Y05285D03*
Y00585D03*
X02795D03*
Y05285D03*
G54D71*
X00118Y01799D03*
X02835D03*
Y03531D03*
X00118D03*
G54D72*
X0029Y0423D03*
X0375Y0321D03*
Y0518D03*
Y042D03*
Y0223D03*
X0225Y0224D03*
X0228Y0221D03*
X02334Y0209D03*
X02208D03*
X0224Y0206D03*
X02271Y0209D03*
X02303Y0206D03*
X0366Y0234D03*
X035D03*
X0334D03*
X0318D03*
X02366Y0206D03*
X02397Y0209D03*
X02429Y0206D03*
X0246Y0209D03*
X02491Y0206D03*
X02523Y0209D03*
X02555Y0206D03*
X02152Y01705D03*
X0375Y01305D03*
Y0032D03*
X0358Y0119D03*
X0342D03*
X0326D03*
X031D03*
X02491Y017D03*
X031Y0262D03*
X0326D03*
X0343D03*
X0359D03*
X031Y024D03*
X0326D03*
X0343D03*
X0359D03*
X03205Y0272D03*
X03305D03*
X03405D03*
X03505D03*
X0366Y0091D03*
X035D03*
X0333D03*
X0317D03*
X0366Y0113D03*
X035D03*
X0333D03*
X0317D03*
X03255Y0081D03*
X03355D03*
X03455D03*
X03555D03*
X0375Y00119D03*
Y00459D03*
Y01104D03*
Y01444D03*
Y02088D03*
Y02428D03*
Y03072D03*
Y03412D03*
Y04056D03*
Y04396D03*
Y05041D03*
Y05381D03*
X02439Y04128D03*
X02546Y02751D03*
X02403Y0413D03*
X0251Y02751D03*
X02365Y0406D03*
X02472Y0283D03*
X02366Y04096D03*
X02474Y02789D03*
X02402Y04094D03*
X0251Y0279D03*
X02032Y0466D03*
X02665Y02751D03*
X02016Y04621D03*
X02629Y02752D03*
X01985Y0459D03*
X02631Y02788D03*
X0253Y04291D03*
X02595Y02789D03*
X0246Y01675D03*
X02397D03*
X02428Y017D03*
X02365D03*
X01835Y00575D03*
X01502Y00551D03*
X01466Y00581D03*
X015Y0063D03*
X01466Y02054D03*
X01452Y01702D03*
X01325D03*
X01452Y03634D03*
X01357D03*
X01353Y03275D03*
X01392D03*
X01428D03*
X01463D03*
X01435Y00805D03*
X01467Y00933D03*
X01474Y00719D03*
X0145Y04338D03*
X01435Y04455D03*
X02498Y04261D03*
X0223Y04351D03*
X01977Y04D03*
Y04049D03*
X02129Y04D03*
Y04049D03*
Y03946D03*
X01977D03*
X02031D03*
X0208D03*
X02061Y01323D03*
X02011D03*
X01861D03*
X01911D03*
X01861Y01375D03*
X02061D03*
X02011D03*
X01961D03*
X01911D03*
Y01271D03*
X01961D03*
X02011D03*
X02061D03*
X01861D03*
X01911Y01231D03*
X01961D03*
X02011D03*
X02061D03*
X01861D03*
Y01415D03*
X02061D03*
X02011D03*
X01961D03*
X01911D03*
X01765Y02543D03*
Y02493D03*
X0254Y01701D03*
X02192Y01705D03*
X01859Y01701D03*
X01498D03*
X015Y02054D03*
X01309D03*
X02541Y03268D03*
X01309Y03276D03*
X01498D03*
X01353Y03111D03*
X02165Y0364D03*
X01847Y03638D03*
X00579Y00251D03*
X01143D03*
X01237Y00651D03*
X01231Y01102D03*
X01285Y01516D03*
X00591Y01341D03*
X00411Y01699D03*
X00056Y03155D03*
X00512Y0292D03*
X00138Y02765D03*
X00394Y02706D03*
X00342Y02337D03*
X00851Y02339D03*
X01707Y02129D03*
X01481Y02231D03*
X01328Y02209D03*
X0212Y02125D03*
X01811Y02345D03*
X02044Y02507D03*
X01706Y02717D03*
X02381Y02722D03*
X02138Y02767D03*
X02513Y0292D03*
X02069Y03114D03*
X01793Y02912D03*
X01548Y02767D03*
X01161Y0361D03*
X01372Y0468D03*
X01748Y04319D03*
X00697Y04038D03*
X015Y0102D03*
X01949Y01672D03*
X01713Y04028D03*
X01697Y04187D03*
X02036Y03858D03*
X024Y04216D03*
X02075Y03858D03*
X01813Y04211D03*
Y0407D03*
X01822Y0428D03*
X02279D03*
X02108Y04445D03*
X01993D03*
X02212Y0426D03*
X01898D03*
X02157Y0417D03*
X02098Y0418D03*
X0208Y04098D03*
X02031D03*
X01977D03*
X02129D03*
X02208Y04035D03*
X02213Y0408D03*
X01892D03*
X01897Y04035D03*
X02039Y0418D03*
X0198D03*
X01933Y0417D03*
X01813Y04105D03*
Y04175D03*
X01279Y03963D03*
X01277Y03776D03*
Y03838D03*
Y03902D03*
X02427Y00482D03*
X02144Y00524D03*
Y00488D03*
X01854Y00481D03*
X02329Y00806D03*
X0196Y0095D03*
X024Y04372D03*
X02361Y0433D03*
X0219Y04395D03*
X0157Y00483D03*
Y00522D03*
X01971Y015D03*
X01673Y03875D03*
X01924Y0454D03*
X0196Y04514D03*
X01638Y04265D03*
X02148Y04521D03*
X02181Y04543D03*
X02316Y04412D03*
X02359Y04533D03*
X01788Y0441D03*
X01976Y04656D03*
X01942Y01541D03*
X01105Y0382D03*
X01164Y0373D03*
X0086Y0449D03*
X011Y04575D03*
X0113Y04315D03*
X0116Y04215D03*
X0112Y04365D03*
X0118Y0453D03*
X01395Y04529D03*
X00625Y0461D03*
X0057Y045D03*
X00865Y0394D03*
X0087Y03725D03*
X0185Y03238D03*
X0218D03*
X0075Y042D03*
X009Y046D03*
X0096Y04595D03*
X0092Y0366D03*
X01015Y0381D03*
X0106Y03825D03*
X0091Y0382D03*
X0087Y04205D03*
X01155Y04455D03*
X00843Y04321D03*
X0123Y0424D03*
X00835Y04085D03*
X0079Y0414D03*
X00947Y04036D03*
X01026D03*
X00697Y04109D03*
X0005Y04085D03*
X001D03*
X0015D03*
X002D03*
X0025D03*
X003D03*
X0035D03*
X004D03*
X0045D03*
X005D03*
X0055D03*
Y04035D03*
X005D03*
X0045D03*
X004D03*
X0035D03*
X003D03*
X0025D03*
X002D03*
X0015D03*
X001D03*
X0005D03*
X0055Y03985D03*
X005D03*
X0045D03*
X004D03*
X0035D03*
X003D03*
X0025D03*
X002D03*
X0015D03*
X001D03*
X0005D03*
X0055Y03935D03*
X005D03*
X0045D03*
X004D03*
X0035D03*
X003D03*
X0025D03*
X002D03*
X0015D03*
X001D03*
X0005D03*
X0055Y03885D03*
X005D03*
X0045D03*
X004D03*
X0035D03*
X003D03*
X0025D03*
X002D03*
X0015D03*
X001D03*
X0005D03*
X0055Y03835D03*
X005D03*
X0045D03*
X004D03*
X0035D03*
X003D03*
X0025D03*
X002D03*
X0015D03*
X001D03*
X0005D03*
X0055Y03785D03*
X005D03*
X0045D03*
X004D03*
X0035D03*
X003D03*
X0025D03*
X002D03*
X0015D03*
X001D03*
X0005D03*
X0055Y03735D03*
X005D03*
X0045D03*
X004D03*
X0035D03*
X003D03*
X0025D03*
X002D03*
X0015D03*
X001D03*
X0005D03*
X0055Y03685D03*
X005D03*
X0045D03*
X004D03*
X0035D03*
X003D03*
X0025D03*
X002D03*
X0015D03*
X001D03*
X0005D03*
X0055Y03635D03*
X005D03*
X0045D03*
X004D03*
X0035D03*
X003D03*
X0025D03*
X002D03*
X0015D03*
X001D03*
X0005D03*
X01485Y01116D03*
X0163Y01335D03*
X0184Y00905D03*
X01648Y00904D03*
X02066Y00905D03*
X02276D03*
X01857Y00805D03*
X01965Y00715D03*
X0217Y0038D03*
X01518D03*
X02515Y00714D03*
X02685Y04235D03*
X02633Y04185D03*
X02049Y0071D03*
X01585Y0072D03*
X0201Y0054D03*
X01995Y00474D03*
X01445Y00477D03*
X0257Y0047D03*
X0188Y00455D03*
X02465Y0046D03*
X00965Y01506D03*
X00745Y01805D03*
X00795D03*
X00845D03*
X00895D03*
X00945D03*
X00995D03*
X00745Y01755D03*
X00795D03*
X00845D03*
X00895D03*
X00945D03*
X00995D03*
X00745Y01705D03*
X00795D03*
X00845D03*
X00895D03*
X00945D03*
X00995D03*
X00745Y01655D03*
X00795D03*
X00845D03*
X00895D03*
X00945D03*
X00995D03*
X00695D03*
Y01705D03*
Y01755D03*
Y01805D03*
X0088Y01605D03*
X0083D03*
X0078D03*
X00895Y01295D03*
X0073Y0316D03*
X0126Y0297D03*
X016Y02443D03*
X0165D03*
X017D03*
X01515Y02543D03*
Y02493D03*
X01715D03*
X01665D03*
X01615D03*
X01565D03*
X01715Y02543D03*
X01665D03*
X01615D03*
X01565D03*
X01942Y00855D03*
X01835Y0224D03*
X02875Y033D03*
Y032D03*
Y031D03*
Y03D03*
Y029D03*
Y028D03*
Y023D03*
Y024D03*
Y025D03*
Y026D03*
Y027D03*
Y021D03*
Y022D03*
X02825Y01975D03*
X0275Y019D03*
Y021D03*
Y022D03*
Y023D03*
Y024D03*
Y025D03*
Y026D03*
Y027D03*
Y031D03*
Y03D03*
Y029D03*
Y028D03*
Y032D03*
Y033D03*
X02675Y02025D03*
X0282Y034D03*
X02523Y01566D03*
X02598Y01641D03*
X02708Y01594D03*
X0274Y018D03*
Y017D03*
X02622Y01505D03*
X02536Y01416D03*
X02437Y01477D03*
X02632Y0178D03*
X02635Y019D03*
X02519Y01271D03*
X02439Y01136D03*
X02352Y01388D03*
X02312Y00851D03*
X0233Y00755D03*
X0162Y0072D03*
X0183D03*
X0214Y0073D03*
X0129Y0213D03*
X0125Y0164D03*
X0115Y0161D03*
G54D73*
X0078Y0341D03*
X00824Y00455D03*
X00274Y004D03*
X00895Y00854D03*
X0011Y03049D03*
X02038Y02973D03*
X0091Y02901D03*
X0108Y02711D03*
X01331Y0297D03*
X00597Y02625D03*
X00097D03*
X01212Y02415D03*
X00411Y01605D03*
X02565Y03191D03*
X0195Y03067D03*
X02019Y02116D03*
X01276Y00454D03*
X00705Y00453D03*
X01274Y00943D03*
X00382Y02631D03*
X00882D03*
X01275Y01393D03*
X00911Y03287D03*
X0108Y0311D03*
X00569Y03234D03*
X0102Y0159D03*
G54D74*
X00315Y0448D03*
X0029Y04302D03*
G54D75*
X01811Y03722D03*
X018Y03267D03*
X01823Y03759D03*
X01835Y03267D03*
X01539Y02071D03*
X02093Y00566D03*
X01574Y02071D03*
X0212Y00601D03*
X01609Y02071D03*
X0165D03*
X02146Y00631D03*
X01596Y00783D03*
X01997Y00912D03*
X0219Y03759D03*
X02178Y03722D03*
X01994Y03249D03*
X01941Y03722D03*
X01968Y03272D03*
X01953Y03759D03*
X02032D03*
X02053Y03251D03*
X02024Y03234D03*
X0202Y03722D03*
X01913Y03272D03*
X02468Y03266D03*
X02327Y03995D03*
X02292Y03977D03*
X02433Y03266D03*
X02399Y03267D03*
X02364D03*
X0233Y03891D03*
X02294D03*
X02297Y00407D03*
X01645D03*
X01596Y00818D03*
X02218Y0108D03*
X01683Y01093D03*
X0145Y03872D03*
X02062Y00818D03*
X02075Y00851D03*
X02065Y00783D03*
X01922Y00912D03*
X01848Y00852D03*
X01604D03*
X0213Y01193D03*
X01784Y012D03*
X01888Y03247D03*
X02111Y03759D03*
X02099Y03722D03*
X02118Y03267D03*
X02083D03*
X02152D03*
X02208D03*
X02276D03*
X02241D03*
X02249Y03759D03*
X02237Y03722D03*
X01893D03*
X01881Y03759D03*
X01967Y02077D03*
X01934D03*
X019D03*
X0219Y01305D03*
X0215Y01315D03*
X02168Y01347D03*
M02*