%FSTAX23Y23*%
%MOIN*%
%SFA1B1*%

%IPPOS*%
%AMD47*
4,1,4,0.003500,0.024700,-0.024700,-0.003500,-0.003500,-0.024700,0.024700,0.003500,0.003500,0.024700,0.0*
%
%AMD49*
4,1,4,-0.024700,0.003500,0.003500,-0.024700,0.024700,-0.003500,-0.003500,0.024700,-0.024700,0.003500,0.0*
%
%AMD67*
4,1,8,-0.127000,0.095500,-0.127000,-0.095500,-0.116000,-0.106500,0.116000,-0.106500,0.127000,-0.095500,0.127000,0.095500,0.116000,0.106500,-0.116000,0.106500,-0.127000,0.095500,0.0*
1,1,0.022000,-0.116000,0.095500*
1,1,0.022000,-0.116000,-0.095500*
1,1,0.022000,0.116000,-0.095500*
1,1,0.022000,0.116000,0.095500*
%
%AMD104*
4,1,4,0.016600,-0.008100,-0.008100,0.016600,-0.016600,0.008100,0.008100,-0.016600,0.016600,-0.008100,0.0*
1,1,0.012000,-0.012400,0.012400*
1,1,0.012000,0.012400,-0.012400*
%
%AMD105*
4,1,4,0.020900,-0.012400,-0.012400,0.020900,-0.020900,0.012400,0.012400,-0.020900,0.020900,-0.012400,0.0*
%
%ADD21R,0.300000X0.300000*%
%ADD32R,0.060000X0.050000*%
%ADD35O,0.060000X0.015000*%
%ADD36R,0.060000X0.015000*%
%ADD40R,0.060000X0.060000*%
%ADD41R,0.200000X0.090000*%
%ADD44R,0.030000X0.040000*%
%ADD45R,0.040000X0.030000*%
%ADD46R,0.060000X0.060000*%
G04~CAMADD=47~9~0.0~0.0~400.0~300.0~0.0~0.0~0~0.0~0.0~0.0~0.0~0~0.0~0.0~0.0~0.0~0~0.0~0.0~0.0~45.0~494.0~493.0*
%ADD47D47*%
G04~CAMADD=49~9~0.0~0.0~400.0~300.0~0.0~0.0~0~0.0~0.0~0.0~0.0~0~0.0~0.0~0.0~0.0~0~0.0~0.0~0.0~135.0~494.0~493.0*
%ADD49D49*%
%ADD50R,0.185000X0.185000*%
%ADD51C,0.008000*%
%ADD62C,0.080000*%
%ADD63R,0.100000X0.100000*%
%ADD64C,0.040000*%
%ADD65C,0.058000*%
%ADD66R,0.058000X0.058000*%
G04~CAMADD=67~8~0.0~0.0~2130.0~2540.0~110.0~0.0~15~0.0~0.0~0.0~0.0~0~0.0~0.0~0.0~0.0~0~0.0~0.0~0.0~90.0~2540.0~2130.0*
%ADD67D67*%
%ADD68C,0.020000*%
%ADD69C,0.106000*%
%ADD70C,0.120000*%
%ADD71C,0.125000*%
%ADD101R,0.100000X0.154000*%
%ADD102R,0.100000X0.060000*%
%ADD103R,0.081000X0.081000*%
G04~CAMADD=104~3~0.0~0.0~470.0~120.0~0.0~0.0~0~0.0~0.0~0.0~0.0~0~0.0~0.0~0.0~0.0~0~0.0~0.0~0.0~315.0~366.0~366.0*
%ADD104D104*%
G04~CAMADD=105~9~0.0~0.0~470.0~120.0~0.0~0.0~0~0.0~0.0~0.0~0.0~0~0.0~0.0~0.0~0.0~0~0.0~0.0~0.0~315.0~418.0~417.0*
%ADD105D105*%
%ADD106O,0.047000X0.012000*%
%ADD107R,0.047000X0.012000*%
%ADD108R,0.050000X0.060000*%
G54D21*
X00314Y03967D03*
G54D32*
X0108Y028D03*
X0117D03*
Y02905D03*
X0108D03*
X0091Y0299D03*
X0082D03*
Y03095D03*
X0091D03*
X02024Y02398D03*
X02114D03*
X02111Y0229D03*
X02021D03*
G54D35*
X0211Y00785D03*
Y0081D03*
X0228Y00759D03*
Y00785D03*
Y0081D03*
X0211Y00836D03*
X0228D03*
X01639Y00785D03*
Y0081D03*
X01809Y00759D03*
Y00785D03*
Y0081D03*
X01639Y00836D03*
X01809D03*
X01593Y02365D03*
X01763D03*
X01593Y02391D03*
Y02416D03*
Y02442D03*
X01763Y02391D03*
Y02416D03*
X00773Y01527D03*
X00943D03*
X00773Y01553D03*
Y01578D03*
Y01604D03*
X00943Y01553D03*
Y01578D03*
X01593Y02942D03*
X01763D03*
X01593Y02968D03*
Y02993D03*
Y03019D03*
X01763Y02968D03*
Y02993D03*
X02305Y02942D03*
X02475D03*
X02305Y02968D03*
Y02993D03*
Y03019D03*
X02475Y02968D03*
Y02993D03*
X00304Y02942D03*
X00474D03*
X00304Y02968D03*
Y02993D03*
Y03019D03*
X00474Y02968D03*
Y02993D03*
G54D36*
X0211Y00759D03*
X01639D03*
X01763Y02442D03*
X00943Y01604D03*
X01763Y03019D03*
X02475D03*
X00474D03*
G54D40*
X00937Y03973D03*
X01072D03*
X00825Y03995D03*
X0069D03*
X01088Y01486D03*
X01223D03*
X00618Y01724D03*
X00483D03*
X02265Y03142D03*
X0213D03*
X01546Y03137D03*
X01411D03*
X0108Y03015D03*
X01215D03*
X0091Y03205D03*
X00775D03*
X0122Y04527D03*
X01355D03*
X00259Y03139D03*
X00124D03*
X02019Y02181D03*
X02154D03*
X00974Y03635D03*
X01109D03*
X00862Y03874D03*
X00997D03*
G54D41*
X03852Y05041D03*
Y05381D03*
Y04056D03*
Y04396D03*
Y03072D03*
Y03412D03*
Y02088D03*
Y02428D03*
Y01104D03*
Y01444D03*
Y00119D03*
Y00459D03*
G54D44*
X0029Y0452D03*
Y04585D03*
X01916Y04081D03*
Y04016D03*
X02189Y04081D03*
Y04016D03*
X0149Y00831D03*
Y00766D03*
X02026Y00765D03*
Y0083D03*
X01556Y00766D03*
Y00831D03*
X019Y00765D03*
Y0083D03*
X01885Y00552D03*
Y00617D03*
X0182Y00618D03*
Y00683D03*
X02443Y00551D03*
Y00616D03*
X02372Y00617D03*
Y00682D03*
X02379Y00765D03*
Y0083D03*
X01962D03*
Y00765D03*
X0126Y0292D03*
Y02855D03*
X0073Y0311D03*
Y03045D03*
X00903Y03788D03*
Y03723D03*
X01137D03*
Y03788D03*
X0087Y0459D03*
Y04525D03*
X01096Y04386D03*
Y04321D03*
X00887D03*
Y04256D03*
G54D45*
X0378Y0157D03*
X03715D03*
X0378Y0196D03*
X03715D03*
X01683Y02164D03*
X01618D03*
X0318Y0196D03*
X03115D03*
X0318Y0157D03*
X03115D03*
X0348Y0196D03*
X03415D03*
X0348Y0157D03*
X03415D03*
X01012Y04063D03*
X00947D03*
X01783Y04212D03*
X01718D03*
X01791Y04054D03*
X01726D03*
X02022Y03885D03*
X02087D03*
X01544Y00406D03*
X01609D03*
X0168D03*
X01745D03*
X01956Y00686D03*
X01891D03*
X02332Y00406D03*
X02397D03*
X02506Y00685D03*
X02441D03*
X02196Y00406D03*
X02261D03*
X01684Y02226D03*
X01619D03*
Y02291D03*
X01684D03*
X01354Y02236D03*
X01419D03*
X00798Y01324D03*
X00863D03*
X00633Y01378D03*
X00698D03*
X00863Y01389D03*
X00798D03*
Y01454D03*
X00863D03*
X0217Y02796D03*
X02235D03*
X01521Y02795D03*
X01456D03*
X01616Y02747D03*
X01681D03*
X01616Y02867D03*
X01681D03*
Y02807D03*
X01616D03*
X01176Y01076D03*
X01111D03*
X01084Y00226D03*
X01019D03*
X00513Y00225D03*
X00448D03*
X01171Y00626D03*
X01106D03*
X02395Y02807D03*
X0233D03*
Y02867D03*
X02395D03*
X0233Y02747D03*
X02395D03*
X00309Y02869D03*
X00374D03*
X00169Y02798D03*
X00234D03*
X00309Y02739D03*
X00374D03*
Y02804D03*
X00309D03*
X0207Y02485D03*
X02135D03*
X00684Y04145D03*
X00749D03*
X00999Y04595D03*
X01064D03*
X00734Y04081D03*
X00799D03*
X01058Y0379D03*
X00993D03*
X0146Y00507D03*
X01525D03*
X0197Y00484D03*
X01905D03*
X02035Y00528D03*
X021D03*
X02545Y0049D03*
X0248D03*
X00787Y02302D03*
X00722D03*
X00284Y02306D03*
X00219D03*
G54D46*
X01505Y02415D03*
Y0228D03*
X01895Y02395D03*
Y0226D03*
X01861Y03067D03*
Y02932D03*
X01275Y01304D03*
Y01169D03*
X01187Y00319D03*
Y00454D03*
X00616Y00453D03*
Y00318D03*
X01274Y00854D03*
Y00719D03*
X02565Y03102D03*
Y02967D03*
X00569Y03094D03*
Y02959D03*
X01223Y03704D03*
Y03839D03*
X00798Y04411D03*
Y04276D03*
X01186D03*
Y04411D03*
X00887Y02401D03*
Y02536D03*
X00387D03*
Y02401D03*
G54D47*
X02162Y04144D03*
X02208Y0419D03*
X01902Y04582D03*
X01948Y04628D03*
X01776Y04445D03*
X01822Y04491D03*
X01714Y01125D03*
X0176Y01171D03*
G54D49*
X01889Y04194D03*
X01934Y04148D03*
X02208Y01129D03*
X02162Y01175D03*
X02662Y04257D03*
X02616Y04303D03*
X0261Y04207D03*
X02564Y04252D03*
G54D50*
X02053Y04022D03*
G54D51*
X04Y0D02*
Y055D01*
X01193D02*
X04D01*
X0Y01681D02*
Y0365D01*
X00753Y0D02*
X04D01*
X0D02*
Y01681D01*
Y0D02*
X00753D01*
X0Y055D02*
X01193D01*
X0Y0365D02*
Y055D01*
G54D62*
X02405Y00174D03*
X01655D03*
X00492Y0488D03*
X01992Y04882D03*
X02742D03*
X01242Y0488D03*
G54D63*
X02505Y00074D03*
Y00274D03*
X02305D03*
Y00074D03*
X01755D03*
Y00274D03*
X01555D03*
Y00074D03*
X00592Y0478D03*
Y0498D03*
X00392D03*
Y0478D03*
X02092Y04782D03*
Y04982D03*
X01892D03*
Y04782D03*
X02842D03*
Y04982D03*
X02642D03*
Y04782D03*
X01342Y0478D03*
Y0498D03*
X01142D03*
Y0478D03*
G54D64*
X00714Y00877D03*
Y01271D03*
G54D65*
X00289Y00998D03*
Y00898D03*
Y00798D03*
X00155Y04832D03*
X0378Y01666D03*
Y01766D03*
X0348Y01666D03*
Y01766D03*
X0318Y01666D03*
Y01766D03*
G54D66*
X00289Y01098D03*
X00155Y04932D03*
X0378Y01866D03*
X0348D03*
X0318D03*
G54D67*
X01961Y01323D03*
G54D68*
X02619Y03533D03*
X01262D03*
X02619Y01957D03*
X01262D03*
G54D69*
X0363Y0329D03*
X0313D03*
X0363Y0024D03*
X0313D03*
G54D70*
X0016Y05285D03*
Y00585D03*
X02795D03*
Y05285D03*
G54D71*
X00118Y01799D03*
X02835D03*
Y03531D03*
X00118D03*
G54D101*
X005Y0456D03*
Y0427D03*
G54D102*
X005Y0147D03*
Y01605D03*
X00658Y01604D03*
Y01469D03*
X00984Y00719D03*
Y00854D03*
X01139D03*
Y00719D03*
X00326Y00318D03*
Y00453D03*
X00481D03*
Y00318D03*
X00897Y00319D03*
Y00454D03*
X01052D03*
Y00319D03*
X00985Y01169D03*
Y01304D03*
X0114D03*
Y01169D03*
X00597Y02401D03*
Y02536D03*
X00752D03*
Y02401D03*
X00097D03*
Y02536D03*
X00252D03*
Y02401D03*
G54D103*
X02196Y00798D03*
X01725D03*
G54D104*
X02242Y04541D03*
X02374Y04409D03*
X0236Y04395D03*
X02318Y04353D03*
X02346Y04381D03*
X02214Y04513D03*
X022Y04499D03*
X02228Y04527D03*
X02332Y04367D03*
G54D105*
X02186Y04485D03*
G54D106*
X02378Y00496D03*
X02191Y00535D03*
Y00496D03*
Y00515D03*
X02378D03*
Y00476D03*
Y00535D03*
Y00555D03*
X02191D03*
X01619D03*
X01806D03*
Y00535D03*
Y00476D03*
Y00515D03*
X01619D03*
Y00496D03*
Y00535D03*
X01806Y00496D03*
G54D107*
X02191Y00476D03*
X01619D03*
G54D108*
X01301Y02415D03*
Y02325D03*
X01404D03*
Y02415D03*
X02127Y02973D03*
Y02883D03*
X0222Y02882D03*
Y02972D03*
X01413Y02973D03*
Y02883D03*
X01506Y02882D03*
Y02972D03*
X00238Y04302D03*
Y04212D03*
X00116Y02975D03*
Y02885D03*
X00219D03*
Y02975D03*
M02*