%FSTAX23Y23*%
%MOIN*%
%SFA1B1*%

%IPPOS*%
%AMD79*
4,1,4,-0.132600,0.033600,0.033600,-0.132600,0.132600,-0.033600,-0.033600,0.132600,-0.132600,0.033600,0.0*
%
%AMD80*
4,1,4,-0.052300,0.010600,0.010600,-0.052300,0.052300,-0.010600,-0.010600,0.052300,-0.052300,0.010600,0.0*
%
%AMD81*
4,1,4,0.018000,0.114900,-0.114900,-0.018000,-0.018000,-0.114900,0.114900,0.018000,0.018000,0.114900,0.0*
%
%ADD10C,0.010000*%
%ADD51C,0.008000*%
%ADD54C,0.020000*%
%ADD76C,0.033000*%
%ADD77C,0.004000*%
%ADD78C,0.040000*%
G04~CAMADD=79~9~0.0~0.0~2350.0~1400.0~0.0~0.0~0~0.0~0.0~0.0~0.0~0~0.0~0.0~0.0~0.0~0~0.0~0.0~0.0~135.0~2652.0~2651.0*
%ADD79D79*%
G04~CAMADD=80~9~0.0~0.0~890.0~590.0~0.0~0.0~0~0.0~0.0~0.0~0.0~0~0.0~0.0~0.0~0.0~0~0.0~0.0~0.0~135.0~1046.0~1045.0*
%ADD80D80*%
G04~CAMADD=81~9~0.0~0.0~1880.0~1370.0~0.0~0.0~0~0.0~0.0~0.0~0.0~0~0.0~0.0~0.0~0.0~0~0.0~0.0~0.0~45.0~2298.0~2297.0*
%ADD81D81*%
%ADD82R,0.050000X0.095000*%
%ADD83R,0.120000X0.140000*%
%ADD84R,0.120000X0.145000*%
%ADD85R,0.235000X0.140000*%
%ADD86R,0.122000X0.018000*%
%ADD87C,0.076000*%
%ADD88C,0.064000*%
%ADD89C,0.066000*%
%ADD90C,0.130000*%
%ADD91C,0.062000*%
%ADD92C,0.144000*%
%ADD93C,0.149000*%
%ADD94C,0.036000*%
%ADD95C,0.039000*%
%ADD175C,0.005000*%
G54D51*
X01525Y00362D02*
D01*
D01*
G75*
G03X01535Y00366I0J00014D01*
G74*G01*
D01*
D01*
G75*
G03X01541Y0038I-00015J00014D01*
G74*G01*
X02378Y0436D02*
D01*
D01*
G75*
G03X02423Y04363I00021J00021D01*
G74*G01*
X0294Y04682D02*
Y055D01*
X0173Y04374D02*
X01788Y04315D01*
X0173Y04374D02*
Y04446D01*
X01814Y0453*
X02188Y00434D02*
X02575D01*
X01541Y00417D02*
X01558Y00434D01*
X01872*
X02317Y04331D02*
X02321Y04335D01*
X02317Y04331D02*
X02366Y04282D01*
X0254*
X02317Y04331D02*
X02356Y04292D01*
X0255D02*
X02656Y04398D01*
X015Y0256D02*
X01785D01*
Y0248D02*
Y0256D01*
X01715Y0248D02*
X01785D01*
X01715Y0241D02*
Y0248D01*
X0158Y0241D02*
X01715D01*
X0158D02*
Y0248D01*
X015D02*
X0158D01*
X015D02*
Y0256D01*
X009Y0157D02*
Y01635D01*
X01015*
Y01825*
X00675D02*
X01015D01*
X00675Y0157D02*
Y01825D01*
Y0157D02*
X009D01*
X01581Y04442D02*
X01698Y04325D01*
X01764Y04291D02*
X01788Y04315D01*
X01732Y04291D02*
X01764D01*
X01698Y04325D02*
X01732Y04291D01*
X01438Y0D02*
Y00329D01*
Y00362*
X01525*
X01541Y0038D02*
Y00417D01*
X01872Y0D02*
Y00434D01*
X02622Y0D02*
Y00434D01*
X02439D02*
X02622D01*
X02188Y0D02*
Y00434D01*
X0254Y04282D02*
X0294Y04682D01*
X02362Y04376D02*
X02378Y0436D01*
X02423Y04363D02*
X02548Y04488D01*
Y04667*
X02321Y04335D02*
X02362Y04376D01*
X02548Y04667D02*
Y055D01*
X02194Y04686D02*
Y055D01*
X0197Y04686D02*
X02194D01*
X01788Y04504D02*
X0197Y04686D01*
X01581Y04442D02*
X01798Y04659D01*
Y04667*
Y055*
X04Y0D02*
Y055D01*
X01193D02*
X04D01*
X0Y01681D02*
Y0365D01*
X00753Y0D02*
X04D01*
X0D02*
Y01681D01*
Y0D02*
X00753D01*
X0Y055D02*
X01193D01*
X0Y0365D02*
Y055D01*
G54D54*
X0172Y03977D02*
X01813Y0407D01*
X0172Y03475D02*
Y03977D01*
X0155Y03475D02*
X0172D01*
X01375D02*
X01645D01*
G54D76*
X01745Y0438D02*
Y04445D01*
G54D77*
X01794Y01304D02*
X01812D01*
X01787Y01322D02*
X01807D01*
X02114Y01305D02*
X02164D01*
X02179Y01287D02*
X02229D01*
X02164Y01305D02*
X02221D01*
X02107Y01287D02*
X02179D01*
X02107D02*
Y01305D01*
X02114*
X01805Y04054D02*
X01828Y04077D01*
X0183*
X01797Y04062D02*
X01821Y04086D01*
X02485Y0333D02*
Y03387D01*
X02474Y0333D02*
X02485D01*
X02474D02*
Y03387D01*
X0245Y03957D02*
X02455Y03952D01*
X02332Y04075D02*
X0245Y03957D01*
X02339Y04085D02*
X0247Y03954D01*
X02485Y03939*
Y03913D02*
Y03939D01*
X02452Y03955D02*
X02474Y03933D01*
Y03913D02*
Y03933D01*
Y03387D02*
X02479D01*
X02485*
Y03537*
X02474Y03387D02*
Y03537D01*
X01837Y04077D02*
X01876D01*
X0183D02*
X01837D01*
X01821Y04086D02*
X0183Y04077D01*
X01821Y04086D02*
X01826Y04091D01*
X01876*
Y04077D02*
Y04091D01*
X01688Y04212D02*
X01797D01*
X01681Y04226D02*
X01797D01*
X01835D02*
X01846D01*
Y04212D02*
X01852Y04206D01*
X0183Y04212D02*
X01846D01*
X0183Y04226D02*
X01835D01*
X0183Y04212D02*
Y04226D01*
X01797Y04212D02*
Y04226D01*
X02411Y01495D02*
X0245Y01534D01*
Y01577*
X02469Y01527D02*
Y01569D01*
X0223Y01288D02*
X02469Y01527D01*
X02217Y01301D02*
X0223Y01288D01*
X01797Y04062D02*
X01805Y04054D01*
X01255Y03566D02*
X01261D01*
X0245Y0156D02*
Y0158D01*
X02469Y01553D02*
Y01577D01*
X0245Y0158D02*
Y01793D01*
X02469Y01577D02*
Y01793D01*
X01459Y01591D02*
Y01793D01*
X01478Y01594D02*
Y01793D01*
X01459Y01567D02*
Y01591D01*
Y01567D02*
X01489Y01537D01*
X01478Y01574D02*
Y01594D01*
Y01574D02*
X01508Y01544D01*
X01807Y01322D02*
X01814D01*
Y01304D02*
Y01322D01*
X01722Y01304D02*
X01794D01*
X01489Y01537D02*
X01722Y01304D01*
X01508Y01544D02*
X0173Y01322D01*
X01787*
X02213Y04075D02*
X02301D01*
X02213D02*
Y04085D01*
X02485Y03913D02*
Y03919D01*
X02301Y04085D02*
X02339D01*
X02301Y04075D02*
X02332D01*
X02474Y03387D02*
X02485D01*
X02474Y03537D02*
Y03793D01*
X02485Y03538D02*
Y03794D01*
X02213Y04085D02*
X02333D01*
X02474Y03794D02*
Y03913D01*
X02485Y03794D02*
Y03913D01*
X01808Y04072D02*
Y04073D01*
X01816Y04064D02*
Y04067D01*
X0161Y04155D02*
X01681Y04226D01*
X01846D02*
X01889Y04183D01*
X01882Y04176D02*
X01889Y04183D01*
X01846Y04212D02*
X01882Y04176D01*
X01497Y04021D02*
X01688Y04212D01*
X01261Y04021D02*
X01497D01*
X01261Y03566D02*
Y04021D01*
X01247Y03566D02*
X01255D01*
X01247D02*
Y04035D01*
X0149*
X01681Y04226*
X00707Y04265D02*
Y055D01*
X00644Y04202D02*
X00707Y04265D01*
X00644Y03534D02*
Y04202D01*
X00629Y03534D02*
X00644D01*
X00629D02*
Y04209D01*
X00691Y04271*
Y055*
X02217Y01301D02*
X02439Y01523D01*
G54D78*
X0Y0D02*
X04D01*
Y055*
X0D02*
X04D01*
X0Y0D02*
Y055D01*
G54D79*
X02276Y04446D03*
G54D80*
X01778Y04367D03*
G54D81*
X01845Y04463D03*
G54D82*
X01809Y00797D03*
X01644Y00798D03*
X0228Y00797D03*
X0211Y00798D03*
G54D83*
X02195Y008D03*
G54D84*
X01725Y00798D03*
G54D85*
X01707Y00505D03*
X0228D03*
G54D86*
X02168Y01296D03*
G54D87*
X02405Y00174D03*
X01655D03*
X00492Y0488D03*
X01992Y04882D03*
X02742D03*
X01242Y0488D03*
G54D88*
X00714Y00877D03*
Y01271D03*
X02619Y03533D03*
X01262D03*
X02619Y01957D03*
X01262D03*
G54D89*
X00289Y00998D03*
Y01098D03*
Y00798D03*
X00155Y04932D03*
G54D90*
X0363Y0329D03*
X0313D03*
X0363Y0024D03*
X0313D03*
G54D91*
X0378Y01666D03*
Y01866D03*
X0348Y01666D03*
Y01866D03*
X0318Y01666D03*
Y01866D03*
G54D92*
X0016Y05285D03*
Y00585D03*
X02795D03*
Y05285D03*
G54D93*
X00118Y01799D03*
X02835D03*
Y03531D03*
X00118D03*
G54D94*
X0375Y0321D03*
Y0518D03*
Y042D03*
Y0223D03*
X0225Y0224D03*
X0228Y0221D03*
X02334Y0209D03*
X02208D03*
X0224Y0206D03*
X02271Y0209D03*
X02303Y0206D03*
X0366Y0234D03*
X035D03*
X0334D03*
X0318D03*
X02366Y0206D03*
X02397Y0209D03*
X02429Y0206D03*
X0246Y0209D03*
X02491Y0206D03*
X02523Y0209D03*
X02555Y0206D03*
X02152Y01705D03*
X0375Y01305D03*
Y0032D03*
X0358Y0119D03*
X0342D03*
X0326D03*
X031D03*
X02491Y017D03*
X02546Y02751D03*
X0251D03*
X02365Y0406D03*
X02472Y0283D03*
X02366Y04096D03*
X02474Y02789D03*
X02402Y04094D03*
X0251Y0279D03*
X02032Y0466D03*
X02016Y04621D03*
X02629Y02752D03*
X01985Y0459D03*
X02631Y02788D03*
X0253Y04291D03*
X02595Y02789D03*
X01811Y03722D03*
X018Y03267D03*
X01823Y03759D03*
X01835Y03267D03*
X0246Y01675D03*
X02397D03*
X02428Y017D03*
X02365D03*
X01539Y02071D03*
X02093Y00566D03*
X01502Y00551D03*
X01574Y02071D03*
X0212Y00601D03*
X01466Y00581D03*
X01609Y02071D03*
X0165D03*
X02146Y00631D03*
X015Y0063D03*
X01466Y02054D03*
X01452Y01702D03*
X01325D03*
X01452Y03634D03*
X01357D03*
X01353Y03275D03*
X01392D03*
X01428D03*
X01463D03*
X01435Y00805D03*
X01474Y00719D03*
X0145Y04338D03*
X01596Y00783D03*
X0219Y03759D03*
X02178Y03722D03*
X01994Y03249D03*
X01941Y03722D03*
X01968Y03272D03*
X01953Y03759D03*
X02032D03*
X02053Y03251D03*
X02024Y03234D03*
X0202Y03722D03*
X01913Y03272D03*
X015Y0102D03*
X02468Y03266D03*
X02327Y03995D03*
X02292Y03977D03*
X02433Y03266D03*
X02399Y03267D03*
X02364D03*
X0233Y03891D03*
X02294D03*
X01596Y00818D03*
X02036Y03858D03*
X01813Y04211D03*
Y0407D03*
X02212Y0426D03*
X01898D03*
X02208Y04035D03*
X01897D03*
X0145Y03872D03*
X02062Y00818D03*
X02075Y00851D03*
X02065Y00783D03*
X01848Y00852D03*
X01604D03*
X0213Y01193D03*
X01784Y012D03*
X01888Y03247D03*
X02111Y03759D03*
X02099Y03722D03*
X02118Y03267D03*
X02083D03*
X02152D03*
X02208D03*
X02276D03*
X02241D03*
X02249Y03759D03*
X02237Y03722D03*
X01893D03*
X01881Y03759D03*
X01788Y0441D03*
X01942Y01541D03*
X01105Y0382D03*
X0086Y0449D03*
X011Y04575D03*
X0113Y04315D03*
X0116Y04215D03*
X0118Y0453D03*
X0087Y03725D03*
X0185Y03238D03*
X0218D03*
X0075Y042D03*
X0092Y0366D03*
X01015Y0381D03*
X0087Y04205D03*
X01155Y04455D03*
X00835Y04085D03*
X0079Y0414D03*
X00947Y04036D03*
X0188Y00455D03*
X02465Y0046D03*
X01942Y00855D03*
X01967Y02077D03*
X01934D03*
X019D03*
X0219Y01305D03*
X0215Y01315D03*
X02168Y01347D03*
X0233Y00755D03*
X0162Y0072D03*
X0183D03*
X0214Y0073D03*
X0129Y0213D03*
X0125Y0164D03*
X0115Y0161D03*
G54D95*
X0078Y0341D03*
X00315Y0448D03*
X02439Y04128D03*
X02403Y0413D03*
X02665Y02751D03*
X01835Y00575D03*
X0223Y04351D03*
X01765Y02543D03*
Y02493D03*
X00824Y00455D03*
X00274Y004D03*
X00895Y00854D03*
X0011Y03049D03*
X02038Y02973D03*
X0091Y02901D03*
X0108Y02711D03*
X01331Y0297D03*
X00597Y02625D03*
X00097D03*
X01212Y02415D03*
X00411Y01605D03*
X02565Y03191D03*
X0195Y03067D03*
X02019Y02116D03*
X01276Y00454D03*
X00705Y00453D03*
X01274Y00943D03*
X00382Y02631D03*
X00882D03*
X01279Y03963D03*
X02144Y00524D03*
X024Y04372D03*
X0219Y04395D03*
X0157Y00522D03*
X01673Y03875D03*
X01924Y0454D03*
X02181Y04543D03*
X02316Y04412D03*
X0029Y04302D03*
X01275Y01393D03*
X00911Y03287D03*
X0005Y04085D03*
X001D03*
X0015D03*
X002D03*
X0025D03*
X003D03*
X0035D03*
X004D03*
X0045D03*
X005D03*
X0055D03*
Y04035D03*
X005D03*
X0045D03*
X004D03*
X0035D03*
X003D03*
X0025D03*
X002D03*
X0015D03*
X001D03*
X0005D03*
X0055Y03985D03*
X005D03*
X0045D03*
X004D03*
X0035D03*
X003D03*
X0025D03*
X002D03*
X0015D03*
X001D03*
X0005D03*
X0055Y03935D03*
X005D03*
X0045D03*
X004D03*
X0035D03*
X003D03*
X0025D03*
X002D03*
X0015D03*
X001D03*
X0005D03*
X0055Y03885D03*
X005D03*
X0045D03*
X004D03*
X0035D03*
X003D03*
X0025D03*
X002D03*
X0015D03*
X001D03*
X0005D03*
X0055Y03835D03*
X005D03*
X0045D03*
X004D03*
X0035D03*
X003D03*
X0025D03*
X002D03*
X0015D03*
X001D03*
X0005D03*
X0055Y03785D03*
X005D03*
X0045D03*
X004D03*
X0035D03*
X003D03*
X0025D03*
X002D03*
X0015D03*
X001D03*
X0005D03*
X0055Y03735D03*
X005D03*
X0045D03*
X004D03*
X0035D03*
X003D03*
X0025D03*
X002D03*
X0015D03*
X001D03*
X0005D03*
X0055Y03685D03*
X005D03*
X0045D03*
X004D03*
X0035D03*
X003D03*
X0025D03*
X002D03*
X0015D03*
X001D03*
X0005D03*
X0055Y03635D03*
X005D03*
X0045D03*
X004D03*
X0035D03*
X003D03*
X0025D03*
X002D03*
X0015D03*
X001D03*
X0005D03*
X02685Y04235D03*
X02633Y04185D03*
X00745Y01805D03*
X00795D03*
X00845D03*
X00895D03*
X00945D03*
X00995D03*
X00745Y01755D03*
X00795D03*
X00845D03*
X00895D03*
X00945D03*
X00995D03*
X00745Y01705D03*
X00795D03*
X00845D03*
X00895D03*
X00945D03*
X00995D03*
X00745Y01655D03*
X00795D03*
X00845D03*
X00895D03*
X00945D03*
X00995D03*
X00695D03*
Y01705D03*
Y01755D03*
Y01805D03*
X0088Y01605D03*
X0083D03*
X0078D03*
X0108Y0311D03*
X00569Y03234D03*
X016Y02443D03*
X0165D03*
X017D03*
X01515Y02543D03*
Y02493D03*
X01715D03*
X01665D03*
X01615D03*
X01565D03*
X01715Y02543D03*
X01665D03*
X01615D03*
X01565D03*
X0102Y0159D03*
X02312Y00851D03*
G54D175*
X01885Y04183D02*
X01882Y04179D01*
X01847Y04214*
X01686*
X01495Y04023*
X01258*
Y03568*
X01249*
Y04032*
X01491*
X01682Y04223*
X01844*
X01885Y04183*
G54D10*
X01878Y04182D02*
X01881Y04186D01*
X01849Y04219*
X01684*
X01493Y04028*
X01253*
Y03573*
X01254*
Y04027*
X01493*
X01684Y04218*
X01842*
X01878Y04182*
X01258Y04028D02*
Y04027D01*
X01268Y04028D02*
Y04027D01*
X01278Y04028D02*
Y04027D01*
X01288Y04028D02*
Y04027D01*
X01298Y04028D02*
Y04027D01*
X01308Y04028D02*
Y04027D01*
X01318Y04028D02*
Y04027D01*
X01328Y04028D02*
Y04027D01*
X01338Y04028D02*
Y04027D01*
X01348Y04028D02*
Y04027D01*
X01358Y04028D02*
Y04027D01*
X01368Y04028D02*
Y04027D01*
X01378Y04028D02*
Y04027D01*
X01388Y04028D02*
Y04027D01*
X01398Y04028D02*
Y04027D01*
X01408Y04028D02*
Y04027D01*
X01418Y04028D02*
Y04027D01*
X01428Y04028D02*
Y04027D01*
X01438Y04028D02*
Y04027D01*
X01448Y04028D02*
Y04027D01*
X01458Y04028D02*
Y04027D01*
X01468Y04028D02*
Y04027D01*
X01478Y04028D02*
Y04027D01*
X01488Y04028D02*
Y04027D01*
X01848Y04214D02*
Y04219D01*
X01858Y04204D02*
Y04209D01*
X01868Y04194D02*
Y04199D01*
X01878Y04186D02*
Y04189D01*
G54D175*
X01873Y04079D02*
X01829D01*
X01805Y04057*
X018Y04062*
X01827Y04088*
X01873*
Y04079*
G54D10*
X01868Y04084D02*
X01827D01*
X01805Y04064*
X01807Y04062*
X01829Y04083*
X01868*
Y04084*
X01812Y04068D02*
X01813D01*
X01822Y04078D02*
X01823D01*
G54D175*
X00704Y04266D02*
X00641Y04203D01*
Y03536*
X00631Y03537*
Y04207*
X00693Y04269*
Y05497*
X00704*
Y04266*
G54D10*
X00699Y04268D02*
X00636Y04205D01*
Y03542*
Y04205*
X00698Y04267*
Y05492*
X00699*
Y04268*
G54D175*
X02482Y03937D02*
Y03535D01*
Y03387*
Y03332*
X02476*
X02477Y03389*
X02476*
Y03535*
Y03934*
X02333Y04077*
X02215*
Y04082*
X02337*
X02482Y03937*
X02217Y04078D02*
Y04082D01*
X02222Y04078D02*
Y04082D01*
X02227Y04078D02*
Y04082D01*
X02232Y04078D02*
Y04082D01*
X02237Y04078D02*
Y04082D01*
X02242Y04078D02*
Y04082D01*
X02247Y04078D02*
Y04082D01*
X02252Y04078D02*
Y04082D01*
X02257Y04078D02*
Y04082D01*
X02262Y04078D02*
Y04082D01*
X02267Y04078D02*
Y04082D01*
X02272Y04078D02*
Y04082D01*
X02277Y04078D02*
Y04082D01*
X02282Y04078D02*
Y04082D01*
X02287Y04078D02*
Y04082D01*
X02292Y04078D02*
Y04082D01*
X02297Y04078D02*
Y04082D01*
X02302Y04078D02*
Y04082D01*
X02307Y04078D02*
Y04082D01*
X02312Y04078D02*
Y04082D01*
X02317Y04078D02*
Y04082D01*
X02322Y04078D02*
Y04082D01*
X02327Y04078D02*
Y04082D01*
X02332Y04078D02*
Y04082D01*
X02337Y04074D02*
Y04082D01*
X02342Y04069D02*
Y04077D01*
X02347Y04064D02*
Y04072D01*
X02352Y04059D02*
Y04067D01*
X02357Y04054D02*
Y04062D01*
X02362Y04049D02*
Y04057D01*
X02367Y04044D02*
Y04052D01*
X02372Y04039D02*
Y04047D01*
X02377Y04034D02*
Y04042D01*
X02382Y04029D02*
Y04037D01*
X02387Y04024D02*
Y04032D01*
X02392Y04019D02*
Y04027D01*
X02397Y04014D02*
Y04022D01*
X02402Y04009D02*
Y04017D01*
X02407Y04004D02*
Y04012D01*
X02412Y03999D02*
Y04007D01*
X02417Y03994D02*
Y04002D01*
X02422Y03989D02*
Y03997D01*
X02427Y03984D02*
Y03992D01*
X02432Y03979D02*
Y03987D01*
X02437Y03974D02*
Y03982D01*
X02442Y03969D02*
Y03977D01*
X02447Y03964D02*
Y03972D01*
X02452Y03959D02*
Y03967D01*
X02457Y03954D02*
Y03962D01*
X02462Y03949D02*
Y03957D01*
X02467Y03944D02*
Y03952D01*
X02472Y03939D02*
Y03947D01*
X02477Y03333D02*
Y03332D01*
Y0339D02*
Y03942D01*
X01475Y01795D02*
X01461D01*
Y02*
X01475*
Y01795*
G54D10*
X0147Y018D02*
X01466D01*
Y01995*
X0147*
Y018*
G54D175*
X01473Y0179D02*
X01475Y01572D01*
X01728Y01319*
X01811*
Y01306*
X01723*
X01461Y01568*
Y0179*
X01473*
G54D10*
X01468Y01785D02*
X0147Y0157D01*
X01726Y01314*
X01806*
Y01311*
X01725*
X01466Y0157*
Y01785*
X01468*
X01471Y01566D02*
Y01569D01*
X01481Y01556D02*
Y01559D01*
X01491Y01546D02*
Y01549D01*
X01501Y01536D02*
Y01539D01*
X01511Y01526D02*
Y01529D01*
X01521Y01516D02*
Y01519D01*
X01531Y01506D02*
Y01509D01*
X01541Y01496D02*
Y01499D01*
X01551Y01486D02*
Y01489D01*
X01561Y01476D02*
Y01479D01*
X01571Y01466D02*
Y01469D01*
X01581Y01456D02*
Y01459D01*
X01591Y01446D02*
Y01449D01*
X01601Y01436D02*
Y01439D01*
X01611Y01426D02*
Y01429D01*
X01621Y01416D02*
Y01419D01*
X01631Y01406D02*
Y01409D01*
X01641Y01396D02*
Y01399D01*
X01651Y01386D02*
Y01389D01*
X01661Y01376D02*
Y01379D01*
X01671Y01366D02*
Y01369D01*
X01681Y01356D02*
Y01359D01*
X01691Y01346D02*
Y01349D01*
X01701Y01336D02*
Y01339D01*
X01711Y01326D02*
Y01329D01*
X01721Y01316D02*
Y01319D01*
X01731Y01312D02*
Y01313D01*
X01741Y01312D02*
Y01313D01*
X01751Y01312D02*
Y01313D01*
X01761Y01312D02*
Y01313D01*
X01771Y01312D02*
Y01313D01*
X01781Y01312D02*
Y01313D01*
X01791Y01312D02*
Y01313D01*
X01801Y01312D02*
Y01313D01*
G54D175*
X02466Y01794D02*
X02463Y01791D01*
X02465Y01788*
X02466Y01787*
Y01787*
Y01786*
Y01528*
X0223Y01291*
X02221Y013*
X02221Y013*
X0222Y01301*
Y013*
X02452Y01532*
Y01793*
Y02*
X02466*
Y01794*
X02223Y013D02*
Y01304D01*
X02228Y01295D02*
Y01309D01*
X02233Y01297D02*
Y01314D01*
X02238Y01302D02*
Y01319D01*
X02243Y01307D02*
Y01324D01*
X02248Y01312D02*
Y01329D01*
X02253Y01317D02*
Y01334D01*
X02258Y01322D02*
Y01339D01*
X02263Y01327D02*
Y01344D01*
X02268Y01332D02*
Y01349D01*
X02273Y01337D02*
Y01354D01*
X02278Y01342D02*
Y01359D01*
X02283Y01347D02*
Y01364D01*
X02288Y01352D02*
Y01369D01*
X02293Y01357D02*
Y01374D01*
X02298Y01362D02*
Y01379D01*
X02303Y01367D02*
Y01384D01*
X02308Y01372D02*
Y01389D01*
X02313Y01377D02*
Y01394D01*
X02318Y01382D02*
Y01399D01*
X02323Y01387D02*
Y01404D01*
X02328Y01392D02*
Y01409D01*
X02333Y01397D02*
Y01414D01*
X02338Y01402D02*
Y01419D01*
X02343Y01407D02*
Y01424D01*
X02348Y01412D02*
Y01429D01*
X02353Y01417D02*
Y01434D01*
X02358Y01422D02*
Y01439D01*
X02363Y01427D02*
Y01444D01*
X02368Y01432D02*
Y01449D01*
X02373Y01437D02*
Y01454D01*
X02378Y01442D02*
Y01459D01*
X02383Y01447D02*
Y01464D01*
X02388Y01452D02*
Y01469D01*
X02393Y01457D02*
Y01474D01*
X02398Y01462D02*
Y01479D01*
X02403Y01467D02*
Y01484D01*
X02408Y01472D02*
Y01489D01*
X02413Y01477D02*
Y01494D01*
X02418Y01482D02*
Y01499D01*
X02423Y01487D02*
Y01504D01*
X02428Y01492D02*
Y01509D01*
X02433Y01497D02*
Y01514D01*
X02438Y01502D02*
Y01519D01*
X02443Y01507D02*
Y01524D01*
X02448Y01512D02*
Y01529D01*
X02453Y01517D02*
Y02D01*
X02458Y01522D02*
Y02D01*
X02463Y01527D02*
Y0179D01*
Y01793D02*
Y02D01*
M02*