%FSTAX23Y23*%
%MOIN*%
%SFA1B1*%

%IPPOS*%
%ADD51C,0.008000*%
%ADD172C,0.002000*%
%ADD173C,0.003000*%
%ADD174C,0.001000*%
G54D51*
X04Y0D02*
Y055D01*
X01193D02*
X04D01*
X0Y01681D02*
Y0365D01*
X00753Y0D02*
X04D01*
X0D02*
Y01681D01*
Y0D02*
X00753D01*
X0Y055D02*
X01193D01*
X0Y0365D02*
Y055D01*
G54D172*
X02397Y00166D02*
Y00182D01*
X02413*
Y00166*
X02397*
X01647D02*
Y00182D01*
X01663*
Y00166*
X01647*
X00714Y00869D02*
X00706Y00885D01*
X00722*
X00714Y00869*
Y01263D02*
X00706Y01279D01*
X00722*
X00714Y01263*
X00289Y0099D02*
X00293Y00994D01*
X00297*
X00293Y00998*
X00297Y01002*
X00293*
X00289Y01006*
X00285Y01002*
X00281*
X00285Y00998*
X00281Y00994*
X00285*
X00289Y0099*
Y0109D02*
X00293Y01094D01*
X00297*
X00293Y01098*
X00297Y01102*
X00293*
X00289Y01106*
X00285Y01102*
X00281*
X00285Y01098*
X00281Y01094*
X00285*
X00289Y0109*
Y0089D02*
X00293Y00894D01*
X00297*
X00293Y00898*
X00297Y00902*
X00293*
X00289Y00906*
X00285Y00902*
X00281*
X00285Y00898*
X00281Y00894*
X00285*
X00289Y0089*
Y0079D02*
X00293Y00794D01*
X00297*
X00293Y00798*
X00297Y00802*
X00293*
X00289Y00806*
X00285Y00802*
X00281*
X00285Y00798*
X00281Y00794*
X00285*
X00289Y0079*
X01953Y01315D02*
X01957Y01323D01*
X01953Y01331*
X01961Y01327*
X01969Y01331*
X01965Y01323*
X01969Y01315*
X01961Y01319*
X01953Y01315*
X02615Y03529D02*
Y03524D01*
X02623*
Y03529*
X02627*
Y03536*
X02623*
Y0354*
X02615*
Y03536*
X02611*
Y03529*
X02615*
X01258D02*
Y03524D01*
X01265*
Y03529*
X0127*
Y03536*
X01265*
Y0354*
X01258*
Y03536*
X01253*
Y03529*
X01258*
X00484Y04872D02*
Y04888D01*
X005*
Y04872*
X00484*
X00155Y04924D02*
X00159Y04928D01*
X00163*
X00159Y04932*
X00163Y04936*
X00159*
X00155Y0494*
X00151Y04936*
X00147*
X00151Y04932*
X00147Y04928*
X00151*
X00155Y04924*
Y04824D02*
X00159Y04828D01*
X00163*
X00159Y04832*
X00163Y04836*
X00159*
X00155Y0484*
X00151Y04836*
X00147*
X00151Y04832*
X00147Y04828*
X00151*
X00155Y04824*
X03622Y03282D02*
X03626D01*
X0363Y03286*
X03634Y03282*
X03638*
Y03286*
X03634Y0329*
X03638Y03294*
Y03298*
X03634*
X0363Y03294*
X03626Y03298*
X03622*
Y03294*
X03626Y0329*
X03622Y03286*
Y03282*
X03122D02*
X03126D01*
X0313Y03286*
X03134Y03282*
X03138*
Y03286*
X03134Y0329*
X03138Y03294*
Y03298*
X03134*
X0313Y03294*
X03126Y03298*
X03122*
Y03294*
X03126Y0329*
X03122Y03286*
Y03282*
X03772Y01666D02*
X0378Y01674D01*
X03788Y01666*
X0378Y01658*
X03772Y01666*
Y01866D02*
X0378Y01874D01*
X03788Y01866*
X0378Y01858*
X03772Y01866*
Y01766D02*
X0378Y01774D01*
X03788Y01766*
X0378Y01758*
X03772Y01766*
X03622Y00232D02*
X03626D01*
X0363Y00236*
X03634Y00232*
X03638*
Y00236*
X03634Y0024*
X03638Y00244*
Y00248*
X03634*
X0363Y00244*
X03626Y00248*
X03622*
Y00244*
X03626Y0024*
X03622Y00236*
Y00232*
X03122D02*
X03126D01*
X0313Y00236*
X03134Y00232*
X03138*
Y00236*
X03134Y0024*
X03138Y00244*
Y00248*
X03134*
X0313Y00244*
X03126Y00248*
X03122*
Y00244*
X03126Y0024*
X03122Y00236*
Y00232*
X03472Y01666D02*
X0348Y01674D01*
X03488Y01666*
X0348Y01658*
X03472Y01666*
Y01866D02*
X0348Y01874D01*
X03488Y01866*
X0348Y01858*
X03472Y01866*
Y01766D02*
X0348Y01774D01*
X03488Y01766*
X0348Y01758*
X03472Y01766*
X03172Y01666D02*
X0318Y01674D01*
X03188Y01666*
X0318Y01658*
X03172Y01666*
Y01866D02*
X0318Y01874D01*
X03188Y01866*
X0318Y01858*
X03172Y01866*
Y01766D02*
X0318Y01774D01*
X03188Y01766*
X0318Y01758*
X03172Y01766*
X00152Y05277D02*
Y05293D01*
X00168*
Y05277*
X00152*
X00156Y05281D02*
Y05289D01*
X00164*
Y05281*
X00156*
X00152Y00577D02*
Y00593D01*
X00168*
Y00577*
X00152*
X00156Y00581D02*
Y00589D01*
X00164*
Y00581*
X00156*
X02787Y00577D02*
Y00593D01*
X02803*
Y00577*
X02787*
X02791Y00581D02*
Y00589D01*
X02799*
Y00581*
X02791*
X02787Y05277D02*
Y05293D01*
X02803*
Y05277*
X02787*
X02791Y05281D02*
Y05289D01*
X02799*
Y05281*
X02791*
X01984Y04874D02*
Y0489D01*
X02*
Y04874*
X01984*
X02734D02*
Y0489D01*
X0275*
Y04874*
X02734*
X01234Y04872D02*
Y04888D01*
X0125*
Y04872*
X01234*
X02615Y01954D02*
Y01949D01*
X02623*
Y01954*
X02627*
Y01962*
X02623*
Y01965*
X02615*
Y01962*
X02611*
Y01954*
X02615*
X01258D02*
Y01949D01*
X01265*
Y01954*
X0127*
Y01962*
X01265*
Y01965*
X01258*
Y01962*
X01253*
Y01954*
X01258*
X0029Y04222D02*
X00282Y04238D01*
X00298*
X0029Y04222*
Y04226D02*
X00286Y04234D01*
X00294*
X0029Y04226*
X0375Y03202D02*
X03742Y03218D01*
X03758*
X0375Y03202*
Y03206D02*
X03746Y03214D01*
X03754*
X0375Y03206*
Y05172D02*
X03742Y05188D01*
X03758*
X0375Y05172*
Y05176D02*
X03746Y05184D01*
X03754*
X0375Y05176*
Y04192D02*
X03742Y04208D01*
X03758*
X0375Y04192*
Y04196D02*
X03746Y04204D01*
X03754*
X0375Y04196*
Y02222D02*
X03742Y02238D01*
X03758*
X0375Y02222*
Y02226D02*
X03746Y02234D01*
X03754*
X0375Y02226*
X0225Y02232D02*
X02242Y02248D01*
X02258*
X0225Y02232*
Y02236D02*
X02246Y02244D01*
X02254*
X0225Y02236*
X0228Y02202D02*
X02272Y02218D01*
X02288*
X0228Y02202*
Y02206D02*
X02276Y02214D01*
X02284*
X0228Y02206*
X02334Y02082D02*
X02326Y02098D01*
X02342*
X02334Y02082*
Y02086D02*
X0233Y02094D01*
X02338*
X02334Y02086*
X02208Y02082D02*
X022Y02098D01*
X02216*
X02208Y02082*
Y02086D02*
X02204Y02094D01*
X02212*
X02208Y02086*
X0224Y02052D02*
X02232Y02068D01*
X02248*
X0224Y02052*
Y02056D02*
X02236Y02064D01*
X02244*
X0224Y02056*
X02271Y02082D02*
X02263Y02098D01*
X02279*
X02271Y02082*
Y02086D02*
X02267Y02094D01*
X02275*
X02271Y02086*
X02303Y02052D02*
X02295Y02068D01*
X0231*
X02303Y02052*
Y02056D02*
X02299Y02064D01*
X02306*
X02303Y02056*
X0366Y02332D02*
X03652Y02348D01*
X03668*
X0366Y02332*
Y02336D02*
X03656Y02344D01*
X03664*
X0366Y02336*
X035Y02332D02*
X03492Y02348D01*
X03508*
X035Y02332*
Y02336D02*
X03496Y02344D01*
X03504*
X035Y02336*
X0334Y02332D02*
X03332Y02348D01*
X03348*
X0334Y02332*
Y02336D02*
X03336Y02344D01*
X03344*
X0334Y02336*
X0318Y02332D02*
X03172Y02348D01*
X03188*
X0318Y02332*
Y02336D02*
X03176Y02344D01*
X03184*
X0318Y02336*
X02366Y02052D02*
X02358Y02068D01*
X02374*
X02366Y02052*
Y02056D02*
X02362Y02064D01*
X0237*
X02366Y02056*
X02397Y02082D02*
X02389Y02098D01*
X02405*
X02397Y02082*
Y02086D02*
X02393Y02094D01*
X02401*
X02397Y02086*
X02429Y02052D02*
X02421Y02068D01*
X02437*
X02429Y02052*
Y02056D02*
X02425Y02064D01*
X02433*
X02429Y02056*
X0246Y02082D02*
X02451Y02098D01*
X02467*
X0246Y02082*
Y02086D02*
X02455Y02094D01*
X02464*
X0246Y02086*
X02491Y02052D02*
X02484Y02068D01*
X025*
X02491Y02052*
Y02056D02*
X02487Y02064D01*
X02496*
X02491Y02056*
X02523Y02082D02*
X02515Y02098D01*
X02531*
X02523Y02082*
Y02086D02*
X02519Y02094D01*
X02527*
X02523Y02086*
X02555Y02052D02*
X02546Y02068D01*
X02562*
X02555Y02052*
Y02056D02*
X0255Y02064D01*
X02559*
X02555Y02056*
X02152Y01697D02*
X02144Y01713D01*
X0216*
X02152Y01697*
Y01701D02*
X02148Y01709D01*
X02156*
X02152Y01701*
X0375Y01297D02*
X03742Y01313D01*
X03758*
X0375Y01297*
Y01301D02*
X03746Y01309D01*
X03754*
X0375Y01301*
Y00312D02*
X03742Y00328D01*
X03758*
X0375Y00312*
Y00316D02*
X03746Y00324D01*
X03754*
X0375Y00316*
X0358Y01182D02*
X03572Y01198D01*
X03588*
X0358Y01182*
Y01186D02*
X03576Y01194D01*
X03584*
X0358Y01186*
X0342Y01182D02*
X03412Y01198D01*
X03428*
X0342Y01182*
Y01186D02*
X03416Y01194D01*
X03424*
X0342Y01186*
X0326Y01182D02*
X03252Y01198D01*
X03268*
X0326Y01182*
Y01186D02*
X03256Y01194D01*
X03264*
X0326Y01186*
X031Y01182D02*
X03092Y01198D01*
X03108*
X031Y01182*
Y01186D02*
X03096Y01194D01*
X03104*
X031Y01186*
X02491Y01692D02*
X02484Y01708D01*
X025*
X02491Y01692*
Y01696D02*
X02487Y01704D01*
X02496*
X02491Y01696*
X031Y02612D02*
X03092Y02628D01*
X03108*
X031Y02612*
Y02616D02*
X03096Y02624D01*
X03104*
X031Y02616*
X0326Y02612D02*
X03252Y02628D01*
X03268*
X0326Y02612*
Y02616D02*
X03256Y02624D01*
X03264*
X0326Y02616*
X0343Y02612D02*
X03422Y02628D01*
X03438*
X0343Y02612*
Y02616D02*
X03426Y02624D01*
X03434*
X0343Y02616*
X0359Y02612D02*
X03582Y02628D01*
X03598*
X0359Y02612*
Y02616D02*
X03586Y02624D01*
X03594*
X0359Y02616*
X031Y02392D02*
X03092Y02408D01*
X03108*
X031Y02392*
Y02396D02*
X03096Y02404D01*
X03104*
X031Y02396*
X0326Y02392D02*
X03252Y02408D01*
X03268*
X0326Y02392*
Y02396D02*
X03256Y02404D01*
X03264*
X0326Y02396*
X0343Y02392D02*
X03422Y02408D01*
X03438*
X0343Y02392*
Y02396D02*
X03426Y02404D01*
X03434*
X0343Y02396*
X0359Y02392D02*
X03582Y02408D01*
X03598*
X0359Y02392*
Y02396D02*
X03586Y02404D01*
X03594*
X0359Y02396*
X03205Y02712D02*
X03197Y02728D01*
X03213*
X03205Y02712*
Y02716D02*
X03201Y02724D01*
X03209*
X03205Y02716*
X03305Y02712D02*
X03297Y02728D01*
X03313*
X03305Y02712*
Y02716D02*
X03301Y02724D01*
X03309*
X03305Y02716*
X03405Y02712D02*
X03397Y02728D01*
X03413*
X03405Y02712*
Y02716D02*
X03401Y02724D01*
X03409*
X03405Y02716*
X03505Y02712D02*
X03497Y02728D01*
X03513*
X03505Y02712*
Y02716D02*
X03501Y02724D01*
X03509*
X03505Y02716*
X0366Y00902D02*
X03652Y00918D01*
X03668*
X0366Y00902*
Y00906D02*
X03656Y00914D01*
X03664*
X0366Y00906*
X035Y00902D02*
X03492Y00918D01*
X03508*
X035Y00902*
Y00906D02*
X03496Y00914D01*
X03504*
X035Y00906*
X0333Y00902D02*
X03322Y00918D01*
X03338*
X0333Y00902*
Y00906D02*
X03326Y00914D01*
X03334*
X0333Y00906*
X0317Y00902D02*
X03162Y00918D01*
X03178*
X0317Y00902*
Y00906D02*
X03166Y00914D01*
X03174*
X0317Y00906*
X0366Y01122D02*
X03652Y01138D01*
X03668*
X0366Y01122*
Y01126D02*
X03656Y01134D01*
X03664*
X0366Y01126*
X035Y01122D02*
X03492Y01138D01*
X03508*
X035Y01122*
Y01126D02*
X03496Y01134D01*
X03504*
X035Y01126*
X0333Y01122D02*
X03322Y01138D01*
X03338*
X0333Y01122*
Y01126D02*
X03326Y01134D01*
X03334*
X0333Y01126*
X0317Y01122D02*
X03162Y01138D01*
X03178*
X0317Y01122*
Y01126D02*
X03166Y01134D01*
X03174*
X0317Y01126*
X03255Y00802D02*
X03247Y00818D01*
X03263*
X03255Y00802*
Y00806D02*
X03251Y00814D01*
X03259*
X03255Y00806*
X03355Y00802D02*
X03347Y00818D01*
X03363*
X03355Y00802*
Y00806D02*
X03351Y00814D01*
X03359*
X03355Y00806*
X03455Y00802D02*
X03447Y00818D01*
X03463*
X03455Y00802*
Y00806D02*
X03451Y00814D01*
X03459*
X03455Y00806*
X03555Y00802D02*
X03547Y00818D01*
X03563*
X03555Y00802*
Y00806D02*
X03551Y00814D01*
X03559*
X03555Y00806*
X0375Y00111D02*
X03742Y00127D01*
X03758*
X0375Y00111*
Y00115D02*
X03746Y00123D01*
X03754*
X0375Y00115*
Y00451D02*
X03742Y00467D01*
X03758*
X0375Y00451*
Y00455D02*
X03746Y00463D01*
X03754*
X0375Y00455*
Y01096D02*
X03742Y01112D01*
X03758*
X0375Y01096*
Y011D02*
X03746Y01108D01*
X03754*
X0375Y011*
Y01436D02*
X03742Y01452D01*
X03758*
X0375Y01436*
Y0144D02*
X03746Y01448D01*
X03754*
X0375Y0144*
Y0208D02*
X03742Y02096D01*
X03758*
X0375Y0208*
Y02084D02*
X03746Y02092D01*
X03754*
X0375Y02084*
Y0242D02*
X03742Y02436D01*
X03758*
X0375Y0242*
Y02424D02*
X03746Y02432D01*
X03754*
X0375Y02424*
Y03064D02*
X03742Y0308D01*
X03758*
X0375Y03064*
Y03068D02*
X03746Y03076D01*
X03754*
X0375Y03068*
Y03404D02*
X03742Y0342D01*
X03758*
X0375Y03404*
Y03408D02*
X03746Y03416D01*
X03754*
X0375Y03408*
Y04048D02*
X03742Y04064D01*
X03758*
X0375Y04048*
Y04052D02*
X03746Y0406D01*
X03754*
X0375Y04052*
Y04388D02*
X03742Y04404D01*
X03758*
X0375Y04388*
Y04392D02*
X03746Y044D01*
X03754*
X0375Y04392*
Y05033D02*
X03742Y05049D01*
X03758*
X0375Y05033*
Y05037D02*
X03746Y05045D01*
X03754*
X0375Y05037*
Y05373D02*
X03742Y05389D01*
X03758*
X0375Y05373*
Y05377D02*
X03746Y05385D01*
X03754*
X0375Y05377*
X0078Y03402D02*
X00784Y03406D01*
X00788*
X00784Y0341*
X00788Y03414*
X00784*
X0078Y03418*
X00776Y03414*
X00772*
X00776Y0341*
X00772Y03406*
X00776*
X0078Y03402*
Y03406D02*
X00782Y03408D01*
X00784*
X00782Y0341*
X00784Y03412*
X00782*
X0078Y03414*
X00778Y03412*
X00776*
X00778Y0341*
X00776Y03408*
X00778*
X0078Y03406*
X00315Y04472D02*
X00319Y04476D01*
X00323*
X00319Y0448*
X00323Y04484*
X00319*
X00315Y04488*
X00311Y04484*
X00307*
X00311Y0448*
X00307Y04476*
X00311*
X00315Y04472*
Y04476D02*
X00317Y04478D01*
X00319*
X00317Y0448*
X00319Y04482*
X00317*
X00315Y04484*
X00313Y04482*
X00311*
X00313Y0448*
X00311Y04478*
X00313*
X00315Y04476*
X02439Y0412D02*
X02443Y04124D01*
X02447*
X02443Y04128*
X02447Y04132*
X02443*
X02439Y04136*
X02435Y04132*
X02431*
X02435Y04128*
X02431Y04124*
X02435*
X02439Y0412*
Y04124D02*
X02441Y04126D01*
X02443*
X02441Y04128*
X02443Y0413*
X02441*
X02439Y04132*
X02437Y0413*
X02435*
X02437Y04128*
X02435Y04126*
X02437*
X02439Y04124*
X02546Y02743D02*
X02538Y02759D01*
X02554*
X02546Y02743*
Y02747D02*
X02542Y02755D01*
X0255*
X02546Y02747*
X02403Y04122D02*
X02407Y04126D01*
X02411*
X02407Y0413*
X02411Y04134*
X02407*
X02403Y04138*
X02399Y04134*
X02395*
X02399Y0413*
X02395Y04126*
X02399*
X02403Y04122*
Y04126D02*
X02405Y04128D01*
X02407*
X02405Y0413*
X02407Y04132*
X02405*
X02403Y04134*
X02401Y04132*
X02399*
X02401Y0413*
X02399Y04128*
X02401*
X02403Y04126*
X0251Y02743D02*
X02501Y02759D01*
X02517*
X0251Y02743*
Y02747D02*
X02506Y02755D01*
X02513*
X0251Y02747*
X02365Y04052D02*
X02357Y04068D01*
X02373*
X02365Y04052*
Y04056D02*
X02361Y04064D01*
X02369*
X02365Y04056*
X02472Y02822D02*
X02464Y02838D01*
X0248*
X02472Y02822*
Y02826D02*
X02468Y02834D01*
X02476*
X02472Y02826*
X02366Y04088D02*
X02358Y04104D01*
X02374*
X02366Y04088*
Y04092D02*
X02362Y041D01*
X0237*
X02366Y04092*
X02474Y02781D02*
X02467Y02797D01*
X02483*
X02474Y02781*
Y02785D02*
X0247Y02793D01*
X02478*
X02474Y02785*
X02402Y04086D02*
X02394Y04102D01*
X0241*
X02402Y04086*
Y0409D02*
X02398Y04098D01*
X02406*
X02402Y0409*
X0251Y02782D02*
X02503Y02798D01*
X02519*
X0251Y02782*
Y02786D02*
X02507Y02794D01*
X02514*
X0251Y02786*
X02032Y04652D02*
X02024Y04668D01*
X0204*
X02032Y04652*
Y04656D02*
X02028Y04664D01*
X02036*
X02032Y04656*
X02665Y02743D02*
X02669Y02747D01*
X02673*
X02669Y02751*
X02673Y02755*
X02669*
X02665Y02759*
X02661Y02755*
X02657*
X02661Y02751*
X02657Y02747*
X02661*
X02665Y02743*
Y02747D02*
X02667Y02749D01*
X02669*
X02667Y02751*
X02669Y02753*
X02667*
X02665Y02755*
X02663Y02753*
X02661*
X02663Y02751*
X02661Y02749*
X02663*
X02665Y02747*
X02016Y04613D02*
X02008Y04629D01*
X02024*
X02016Y04613*
Y04617D02*
X02012Y04625D01*
X0202*
X02016Y04617*
X02629Y02744D02*
X02621Y0276D01*
X02637*
X02629Y02744*
Y02748D02*
X02625Y02756D01*
X02633*
X02629Y02748*
X01985Y04582D02*
X01977Y04598D01*
X01993*
X01985Y04582*
Y04586D02*
X01981Y04594D01*
X01989*
X01985Y04586*
X02631Y0278D02*
X02623Y02796D01*
X02639*
X02631Y0278*
Y02784D02*
X02627Y02792D01*
X02635*
X02631Y02784*
X0253Y04283D02*
X02522Y04299D01*
X02538*
X0253Y04283*
Y04287D02*
X02526Y04295D01*
X02534*
X0253Y04287*
X02595Y02781D02*
X02587Y02797D01*
X02603*
X02595Y02781*
Y02785D02*
X02591Y02793D01*
X02599*
X02595Y02785*
X01811Y03714D02*
X01803Y0373D01*
X01819*
X01811Y03714*
Y03718D02*
X01807Y03726D01*
X01815*
X01811Y03718*
X018Y0326D02*
X01792Y03276D01*
X01808*
X018Y0326*
Y03263D02*
X01796Y03272D01*
X01804*
X018Y03263*
X01823Y03751D02*
X01815Y03767D01*
X01831*
X01823Y03751*
Y03755D02*
X01819Y03763D01*
X01827*
X01823Y03755*
X01835Y0326D02*
X01827Y03276D01*
X01843*
X01835Y0326*
Y03263D02*
X01831Y03272D01*
X01839*
X01835Y03263*
X0246Y01667D02*
X02451Y01683D01*
X02467*
X0246Y01667*
Y01671D02*
X02455Y01679D01*
X02464*
X0246Y01671*
X02397Y01667D02*
X02388Y01683D01*
X02405*
X02397Y01667*
Y01671D02*
X02392Y01679D01*
X02401*
X02397Y01671*
X02428Y01692D02*
X0242Y01708D01*
X02436*
X02428Y01692*
Y01696D02*
X02424Y01704D01*
X02432*
X02428Y01696*
X02365Y01692D02*
X02357Y01708D01*
X02373*
X02365Y01692*
Y01696D02*
X02361Y01704D01*
X02369*
X02365Y01696*
X01835Y00567D02*
X01839Y00571D01*
X01843*
X01839Y00575*
X01843Y00579*
X01839*
X01835Y00583*
X01831Y00579*
X01827*
X01831Y00575*
X01827Y00571*
X01831*
X01835Y00567*
Y00571D02*
X01837Y00573D01*
X01839*
X01837Y00575*
X01839Y00577*
X01837*
X01835Y00579*
X01833Y00577*
X01831*
X01833Y00575*
X01831Y00573*
X01833*
X01835Y00571*
X01539Y02063D02*
X01531Y02079D01*
X01547*
X01539Y02063*
Y02067D02*
X01535Y02075D01*
X01543*
X01539Y02067*
X02093Y00558D02*
X02085Y00574D01*
X02101*
X02093Y00558*
Y00562D02*
X02089Y0057D01*
X02097*
X02093Y00562*
X01502Y00543D02*
X01494Y00559D01*
X0151*
X01502Y00543*
Y00547D02*
X01498Y00555D01*
X01506*
X01502Y00547*
X01574Y02063D02*
X01566Y02079D01*
X01582*
X01574Y02063*
Y02067D02*
X0157Y02075D01*
X01578*
X01574Y02067*
X0212Y00593D02*
X02112Y00609D01*
X02128*
X0212Y00593*
Y00597D02*
X02116Y00605D01*
X02124*
X0212Y00597*
X01466Y00573D02*
X01458Y00589D01*
X01474*
X01466Y00573*
Y00577D02*
X01462Y00585D01*
X0147*
X01466Y00577*
X01609Y02063D02*
X01601Y02079D01*
X01617*
X01609Y02063*
Y02067D02*
X01605Y02075D01*
X01613*
X01609Y02067*
X0165Y02063D02*
X01642Y02079D01*
X01658*
X0165Y02063*
Y02067D02*
X01646Y02075D01*
X01654*
X0165Y02067*
X02146Y00623D02*
X02138Y00639D01*
X02154*
X02146Y00623*
Y00627D02*
X02142Y00635D01*
X0215*
X02146Y00627*
X015Y00622D02*
X01492Y00638D01*
X01508*
X015Y00622*
Y00626D02*
X01496Y00634D01*
X01504*
X015Y00626*
X01466Y02046D02*
X01458Y02062D01*
X01474*
X01466Y02046*
Y0205D02*
X01462Y02058D01*
X0147*
X01466Y0205*
X01452Y01694D02*
X01444Y0171D01*
X0146*
X01452Y01694*
Y01698D02*
X01448Y01706D01*
X01456*
X01452Y01698*
X01325Y01694D02*
X01317Y0171D01*
X01333*
X01325Y01694*
Y01698D02*
X01321Y01706D01*
X01329*
X01325Y01698*
X01452Y03626D02*
X01444Y03642D01*
X0146*
X01452Y03626*
Y0363D02*
X01448Y03638D01*
X01456*
X01452Y0363*
X01357Y03626D02*
X01349Y03642D01*
X01365*
X01357Y03626*
Y0363D02*
X01354Y03638D01*
X01362*
X01357Y0363*
X01353Y03267D02*
X01345Y03283D01*
X01361*
X01353Y03267*
Y03271D02*
X01349Y03279D01*
X01357*
X01353Y03271*
X01392Y03267D02*
X01384Y03283D01*
X014*
X01392Y03267*
Y03271D02*
X01388Y03279D01*
X01396*
X01392Y03271*
X01428Y03267D02*
X01419Y03283D01*
X01436*
X01428Y03267*
Y03271D02*
X01423Y03279D01*
X01431*
X01428Y03271*
X01463Y03267D02*
X01455Y03283D01*
X01471*
X01463Y03267*
Y03271D02*
X01459Y03279D01*
X01467*
X01463Y03271*
X01435Y00797D02*
X01427Y00813D01*
X01443*
X01435Y00797*
Y00801D02*
X01431Y00809D01*
X01439*
X01435Y00801*
X01467Y00925D02*
X01459Y00941D01*
X01475*
X01467Y00925*
Y00929D02*
X01463Y00937D01*
X01471*
X01467Y00929*
X01474Y00711D02*
X01466Y00727D01*
X01482*
X01474Y00711*
Y00715D02*
X0147Y00723D01*
X01478*
X01474Y00715*
X0145Y0433D02*
X01442Y04346D01*
X01458*
X0145Y0433*
Y04334D02*
X01446Y04342D01*
X01454*
X0145Y04334*
X01435Y04447D02*
X01427Y04463D01*
X01443*
X01435Y04447*
Y04451D02*
X01431Y04459D01*
X01439*
X01435Y04451*
X02498Y04253D02*
X0249Y04269D01*
X02506*
X02498Y04253*
Y04257D02*
X02494Y04265D01*
X02502*
X02498Y04257*
X0223Y04343D02*
X02234Y04347D01*
X02238*
X02234Y04351*
X02238Y04355*
X02234*
X0223Y04359*
X02226Y04355*
X02222*
X02226Y04351*
X02222Y04347*
X02226*
X0223Y04343*
Y04347D02*
X02232Y04349D01*
X02234*
X02232Y04351*
X02234Y04353*
X02232*
X0223Y04355*
X02228Y04353*
X02226*
X02228Y04351*
X02226Y04349*
X02228*
X0223Y04347*
X01977Y03992D02*
X01969Y04008D01*
X01985*
X01977Y03992*
Y03996D02*
X01973Y04004D01*
X01981*
X01977Y03996*
Y04041D02*
X01969Y04057D01*
X01985*
X01977Y04041*
Y04045D02*
X01973Y04053D01*
X01981*
X01977Y04045*
X02129Y03992D02*
X02121Y04008D01*
X02137*
X02129Y03992*
Y03996D02*
X02125Y04004D01*
X02133*
X02129Y03996*
Y04041D02*
X02121Y04057D01*
X02137*
X02129Y04041*
Y04045D02*
X02125Y04053D01*
X02133*
X02129Y04045*
X02045Y04014D02*
X02049Y04022D01*
X02045Y0403*
X02053Y04026*
X02061Y0403*
X02057Y04022*
X02061Y04014*
X02053Y04018*
X02045Y04014*
X02129Y03938D02*
X02121Y03954D01*
X02137*
X02129Y03938*
Y03942D02*
X02125Y0395D01*
X02133*
X02129Y03942*
X01977Y03938D02*
X01969Y03954D01*
X01985*
X01977Y03938*
Y03942D02*
X01973Y0395D01*
X01981*
X01977Y03942*
X02031Y03938D02*
X02023Y03954D01*
X02039*
X02031Y03938*
Y03942D02*
X02027Y0395D01*
X02035*
X02031Y03942*
X0208Y03938D02*
X02072Y03954D01*
X02088*
X0208Y03938*
Y03942D02*
X02076Y0395D01*
X02084*
X0208Y03942*
X02061Y01315D02*
X02065Y01319D01*
X02069*
X02065Y01323*
X02069Y01327*
X02065*
X02061Y01331*
X02057Y01327*
X02053*
X02057Y01323*
X02053Y01319*
X02057*
X02061Y01315*
Y01319D02*
X02063Y01321D01*
X02065*
X02063Y01323*
X02065Y01325*
X02063*
X02061Y01327*
X02059Y01325*
X02057*
X02059Y01323*
X02057Y01321*
X02059*
X02061Y01319*
X02011Y01315D02*
X02015Y01319D01*
X02019*
X02015Y01323*
X02019Y01327*
X02015*
X02011Y01331*
X02007Y01327*
X02003*
X02007Y01323*
X02003Y01319*
X02007*
X02011Y01315*
Y01319D02*
X02013Y01321D01*
X02015*
X02013Y01323*
X02015Y01325*
X02013*
X02011Y01327*
X02009Y01325*
X02007*
X02009Y01323*
X02007Y01321*
X02009*
X02011Y01319*
X01861Y01315D02*
X01865Y01319D01*
X01869*
X01865Y01323*
X01869Y01327*
X01865*
X01861Y01331*
X01857Y01327*
X01853*
X01857Y01323*
X01853Y01319*
X01857*
X01861Y01315*
Y01319D02*
X01863Y01321D01*
X01865*
X01863Y01323*
X01865Y01325*
X01863*
X01861Y01327*
X01859Y01325*
X01857*
X01859Y01323*
X01857Y01321*
X01859*
X01861Y01319*
X01911Y01315D02*
X01915Y01319D01*
X01919*
X01915Y01323*
X01919Y01327*
X01915*
X01911Y01331*
X01907Y01327*
X01903*
X01907Y01323*
X01903Y01319*
X01907*
X01911Y01315*
Y01319D02*
X01913Y01321D01*
X01915*
X01913Y01323*
X01915Y01325*
X01913*
X01911Y01327*
X01909Y01325*
X01907*
X01909Y01323*
X01907Y01321*
X01909*
X01911Y01319*
X01861Y01367D02*
X01865Y01371D01*
X01869*
X01865Y01375*
X01869Y01379*
X01865*
X01861Y01383*
X01857Y01379*
X01853*
X01857Y01375*
X01853Y01371*
X01857*
X01861Y01367*
Y01371D02*
X01863Y01373D01*
X01865*
X01863Y01375*
X01865Y01377*
X01863*
X01861Y01379*
X01859Y01377*
X01857*
X01859Y01375*
X01857Y01373*
X01859*
X01861Y01371*
X02061Y01367D02*
X02065Y01371D01*
X02069*
X02065Y01375*
X02069Y01379*
X02065*
X02061Y01383*
X02057Y01379*
X02053*
X02057Y01375*
X02053Y01371*
X02057*
X02061Y01367*
Y01371D02*
X02063Y01373D01*
X02065*
X02063Y01375*
X02065Y01377*
X02063*
X02061Y01379*
X02059Y01377*
X02057*
X02059Y01375*
X02057Y01373*
X02059*
X02061Y01371*
X02011Y01367D02*
X02015Y01371D01*
X02019*
X02015Y01375*
X02019Y01379*
X02015*
X02011Y01383*
X02007Y01379*
X02003*
X02007Y01375*
X02003Y01371*
X02007*
X02011Y01367*
Y01371D02*
X02013Y01373D01*
X02015*
X02013Y01375*
X02015Y01377*
X02013*
X02011Y01379*
X02009Y01377*
X02007*
X02009Y01375*
X02007Y01373*
X02009*
X02011Y01371*
X01961Y01367D02*
X01965Y01371D01*
X01969*
X01965Y01375*
X01969Y01379*
X01965*
X01961Y01383*
X01957Y01379*
X01953*
X01957Y01375*
X01953Y01371*
X01957*
X01961Y01367*
Y01371D02*
X01963Y01373D01*
X01965*
X01963Y01375*
X01965Y01377*
X01963*
X01961Y01379*
X01959Y01377*
X01957*
X01959Y01375*
X01957Y01373*
X01959*
X01961Y01371*
X01911Y01367D02*
X01915Y01371D01*
X01919*
X01915Y01375*
X01919Y01379*
X01915*
X01911Y01383*
X01907Y01379*
X01903*
X01907Y01375*
X01903Y01371*
X01907*
X01911Y01367*
Y01371D02*
X01913Y01373D01*
X01915*
X01913Y01375*
X01915Y01377*
X01913*
X01911Y01379*
X01909Y01377*
X01907*
X01909Y01375*
X01907Y01373*
X01909*
X01911Y01371*
Y01263D02*
X01915Y01267D01*
X01919*
X01915Y01271*
X01919Y01275*
X01915*
X01911Y01279*
X01907Y01275*
X01903*
X01907Y01271*
X01903Y01267*
X01907*
X01911Y01263*
Y01267D02*
X01913Y01269D01*
X01915*
X01913Y01271*
X01915Y01273*
X01913*
X01911Y01275*
X01909Y01273*
X01907*
X01909Y01271*
X01907Y01269*
X01909*
X01911Y01267*
X01961Y01263D02*
X01965Y01267D01*
X01969*
X01965Y01271*
X01969Y01275*
X01965*
X01961Y01279*
X01957Y01275*
X01953*
X01957Y01271*
X01953Y01267*
X01957*
X01961Y01263*
Y01267D02*
X01963Y01269D01*
X01965*
X01963Y01271*
X01965Y01273*
X01963*
X01961Y01275*
X01959Y01273*
X01957*
X01959Y01271*
X01957Y01269*
X01959*
X01961Y01267*
X02011Y01263D02*
X02015Y01267D01*
X02019*
X02015Y01271*
X02019Y01275*
X02015*
X02011Y01279*
X02007Y01275*
X02003*
X02007Y01271*
X02003Y01267*
X02007*
X02011Y01263*
Y01267D02*
X02013Y01269D01*
X02015*
X02013Y01271*
X02015Y01273*
X02013*
X02011Y01275*
X02009Y01273*
X02007*
X02009Y01271*
X02007Y01269*
X02009*
X02011Y01267*
X02061Y01263D02*
X02065Y01267D01*
X02069*
X02065Y01271*
X02069Y01275*
X02065*
X02061Y01279*
X02057Y01275*
X02053*
X02057Y01271*
X02053Y01267*
X02057*
X02061Y01263*
Y01267D02*
X02063Y01269D01*
X02065*
X02063Y01271*
X02065Y01273*
X02063*
X02061Y01275*
X02059Y01273*
X02057*
X02059Y01271*
X02057Y01269*
X02059*
X02061Y01267*
X01861Y01263D02*
X01865Y01267D01*
X01869*
X01865Y01271*
X01869Y01275*
X01865*
X01861Y01279*
X01857Y01275*
X01853*
X01857Y01271*
X01853Y01267*
X01857*
X01861Y01263*
Y01267D02*
X01863Y01269D01*
X01865*
X01863Y01271*
X01865Y01273*
X01863*
X01861Y01275*
X01859Y01273*
X01857*
X01859Y01271*
X01857Y01269*
X01859*
X01861Y01267*
X01911Y01223D02*
X01915Y01227D01*
X01919*
X01915Y01231*
X01919Y01235*
X01915*
X01911Y01239*
X01907Y01235*
X01903*
X01907Y01231*
X01903Y01227*
X01907*
X01911Y01223*
Y01227D02*
X01913Y01229D01*
X01915*
X01913Y01231*
X01915Y01233*
X01913*
X01911Y01235*
X01909Y01233*
X01907*
X01909Y01231*
X01907Y01229*
X01909*
X01911Y01227*
X01961Y01223D02*
X01965Y01227D01*
X01969*
X01965Y01231*
X01969Y01235*
X01965*
X01961Y01239*
X01957Y01235*
X01953*
X01957Y01231*
X01953Y01227*
X01957*
X01961Y01223*
Y01227D02*
X01963Y01229D01*
X01965*
X01963Y01231*
X01965Y01233*
X01963*
X01961Y01235*
X01959Y01233*
X01957*
X01959Y01231*
X01957Y01229*
X01959*
X01961Y01227*
X02011Y01223D02*
X02015Y01227D01*
X02019*
X02015Y01231*
X02019Y01235*
X02015*
X02011Y01239*
X02007Y01235*
X02003*
X02007Y01231*
X02003Y01227*
X02007*
X02011Y01223*
Y01227D02*
X02013Y01229D01*
X02015*
X02013Y01231*
X02015Y01233*
X02013*
X02011Y01235*
X02009Y01233*
X02007*
X02009Y01231*
X02007Y01229*
X02009*
X02011Y01227*
X02061Y01223D02*
X02065Y01227D01*
X02069*
X02065Y01231*
X02069Y01235*
X02065*
X02061Y01239*
X02057Y01235*
X02053*
X02057Y01231*
X02053Y01227*
X02057*
X02061Y01223*
Y01227D02*
X02063Y01229D01*
X02065*
X02063Y01231*
X02065Y01233*
X02063*
X02061Y01235*
X02059Y01233*
X02057*
X02059Y01231*
X02057Y01229*
X02059*
X02061Y01227*
X01861Y01223D02*
X01865Y01227D01*
X01869*
X01865Y01231*
X01869Y01235*
X01865*
X01861Y01239*
X01857Y01235*
X01853*
X01857Y01231*
X01853Y01227*
X01857*
X01861Y01223*
Y01227D02*
X01863Y01229D01*
X01865*
X01863Y01231*
X01865Y01233*
X01863*
X01861Y01235*
X01859Y01233*
X01857*
X01859Y01231*
X01857Y01229*
X01859*
X01861Y01227*
Y01407D02*
X01865Y01411D01*
X01869*
X01865Y01415*
X01869Y01419*
X01865*
X01861Y01423*
X01857Y01419*
X01853*
X01857Y01415*
X01853Y01411*
X01857*
X01861Y01407*
Y01411D02*
X01863Y01413D01*
X01865*
X01863Y01415*
X01865Y01417*
X01863*
X01861Y01419*
X01859Y01417*
X01857*
X01859Y01415*
X01857Y01413*
X01859*
X01861Y01411*
X02061Y01407D02*
X02065Y01411D01*
X02069*
X02065Y01415*
X02069Y01419*
X02065*
X02061Y01423*
X02057Y01419*
X02053*
X02057Y01415*
X02053Y01411*
X02057*
X02061Y01407*
Y01411D02*
X02063Y01413D01*
X02065*
X02063Y01415*
X02065Y01417*
X02063*
X02061Y01419*
X02059Y01417*
X02057*
X02059Y01415*
X02057Y01413*
X02059*
X02061Y01411*
X02011Y01407D02*
X02015Y01411D01*
X02019*
X02015Y01415*
X02019Y01419*
X02015*
X02011Y01423*
X02007Y01419*
X02003*
X02007Y01415*
X02003Y01411*
X02007*
X02011Y01407*
Y01411D02*
X02013Y01413D01*
X02015*
X02013Y01415*
X02015Y01417*
X02013*
X02011Y01419*
X02009Y01417*
X02007*
X02009Y01415*
X02007Y01413*
X02009*
X02011Y01411*
X01961Y01407D02*
X01965Y01411D01*
X01969*
X01965Y01415*
X01969Y01419*
X01965*
X01961Y01423*
X01957Y01419*
X01953*
X01957Y01415*
X01953Y01411*
X01957*
X01961Y01407*
Y01411D02*
X01963Y01413D01*
X01965*
X01963Y01415*
X01965Y01417*
X01963*
X01961Y01419*
X01959Y01417*
X01957*
X01959Y01415*
X01957Y01413*
X01959*
X01961Y01411*
X01911Y01407D02*
X01915Y01411D01*
X01919*
X01915Y01415*
X01919Y01419*
X01915*
X01911Y01423*
X01907Y01419*
X01903*
X01907Y01415*
X01903Y01411*
X01907*
X01911Y01407*
Y01411D02*
X01913Y01413D01*
X01915*
X01913Y01415*
X01915Y01417*
X01913*
X01911Y01419*
X01909Y01417*
X01907*
X01909Y01415*
X01907Y01413*
X01909*
X01911Y01411*
X01596Y00775D02*
X01588Y00791D01*
X01604*
X01596Y00775*
Y00779D02*
X01592Y00787D01*
X016*
X01596Y00779*
X01765Y02535D02*
X01769Y02539D01*
X01773*
X01769Y02543*
X01773Y02547*
X01769*
X01765Y02551*
X01761Y02547*
X01757*
X01761Y02543*
X01757Y02539*
X01761*
X01765Y02535*
Y02539D02*
X01767Y02541D01*
X01769*
X01767Y02543*
X01769Y02545*
X01767*
X01765Y02547*
X01763Y02545*
X01761*
X01763Y02543*
X01761Y02541*
X01763*
X01765Y02539*
Y02485D02*
X01769Y02489D01*
X01773*
X01769Y02493*
X01773Y02497*
X01769*
X01765Y02501*
X01761Y02497*
X01757*
X01761Y02493*
X01757Y02489*
X01761*
X01765Y02485*
Y02489D02*
X01767Y02491D01*
X01769*
X01767Y02493*
X01769Y02495*
X01767*
X01765Y02497*
X01763Y02495*
X01761*
X01763Y02493*
X01761Y02491*
X01763*
X01765Y02489*
X01997Y00904D02*
X01989Y0092D01*
X02005*
X01997Y00904*
Y00908D02*
X01993Y00916D01*
X02001*
X01997Y00908*
X0254Y01693D02*
X02532Y01709D01*
X02548*
X0254Y01693*
Y01697D02*
X02536Y01705D01*
X02544*
X0254Y01697*
X02192D02*
X02184Y01713D01*
X022*
X02192Y01697*
Y01701D02*
X02188Y01709D01*
X02196*
X02192Y01701*
X01859Y01693D02*
X01851Y01709D01*
X01867*
X01859Y01693*
Y01697D02*
X01855Y01705D01*
X01863*
X01859Y01697*
X01498Y01693D02*
X0149Y01709D01*
X01507*
X01498Y01693*
Y01697D02*
X01495Y01705D01*
X01503*
X01498Y01697*
X015Y02046D02*
X01492Y02062D01*
X01508*
X015Y02046*
Y0205D02*
X01497Y02058D01*
X01505*
X015Y0205*
X01309Y02046D02*
X01301Y02062D01*
X01317*
X01309Y02046*
Y0205D02*
X01306Y02058D01*
X01314*
X01309Y0205*
X02541Y0326D02*
X02533Y03276D01*
X02549*
X02541Y0326*
Y03264D02*
X02537Y03272D01*
X02545*
X02541Y03264*
X01309Y03268D02*
X01301Y03284D01*
X01317*
X01309Y03268*
Y03272D02*
X01306Y0328D01*
X01314*
X01309Y03272*
X01498Y03268D02*
X0149Y03284D01*
X01507*
X01498Y03268*
Y03272D02*
X01495Y0328D01*
X01503*
X01498Y03272*
X01353Y03103D02*
X01345Y03119D01*
X01361*
X01353Y03103*
Y03107D02*
X01349Y03115D01*
X01357*
X01353Y03107*
X02165Y03632D02*
X02157Y03648D01*
X02173*
X02165Y03632*
Y03636D02*
X02161Y03644D01*
X02169*
X02165Y03636*
X0219Y03751D02*
X02182Y03767D01*
X02198*
X0219Y03751*
Y03755D02*
X02186Y03763D01*
X02194*
X0219Y03755*
X02178Y03714D02*
X0217Y0373D01*
X02186*
X02178Y03714*
Y03718D02*
X02174Y03726D01*
X02182*
X02178Y03718*
X01847Y0363D02*
X01839Y03646D01*
X01855*
X01847Y0363*
Y03634D02*
X01843Y03642D01*
X01851*
X01847Y03634*
X00579Y00243D02*
X00571Y00259D01*
X00587*
X00579Y00243*
Y00247D02*
X00575Y00255D01*
X00583*
X00579Y00247*
X01143Y00243D02*
X01135Y00259D01*
X01151*
X01143Y00243*
Y00247D02*
X01139Y00255D01*
X01147*
X01143Y00247*
X01237Y00643D02*
X01229Y00659D01*
X01245*
X01237Y00643*
Y00647D02*
X01233Y00655D01*
X01241*
X01237Y00647*
X01231Y01094D02*
X01223Y0111D01*
X01239*
X01231Y01094*
Y01098D02*
X01227Y01106D01*
X01235*
X01231Y01098*
X01285Y01508D02*
X01277Y01524D01*
X01293*
X01285Y01508*
Y01512D02*
X01281Y0152D01*
X01289*
X01285Y01512*
X00591Y01333D02*
X00583Y01349D01*
X00599*
X00591Y01333*
Y01337D02*
X00587Y01345D01*
X00595*
X00591Y01337*
X00411Y01691D02*
X00403Y01707D01*
X00419*
X00411Y01691*
Y01695D02*
X00407Y01703D01*
X00415*
X00411Y01695*
X00056Y03147D02*
X00048Y03163D01*
X00064*
X00056Y03147*
Y03151D02*
X00052Y03159D01*
X0006*
X00056Y03151*
X00512Y02912D02*
X00504Y02928D01*
X0052*
X00512Y02912*
Y02916D02*
X00508Y02924D01*
X00516*
X00512Y02916*
X00138Y02757D02*
X0013Y02773D01*
X00146*
X00138Y02757*
Y02761D02*
X00134Y02769D01*
X00142*
X00138Y02761*
X00394Y02698D02*
X00386Y02714D01*
X00402*
X00394Y02698*
Y02702D02*
X0039Y0271D01*
X00398*
X00394Y02702*
X00342Y02329D02*
X00334Y02345D01*
X0035*
X00342Y02329*
Y02333D02*
X00338Y02341D01*
X00346*
X00342Y02333*
X00851Y02331D02*
X00843Y02347D01*
X00859*
X00851Y02331*
Y02335D02*
X00847Y02343D01*
X00855*
X00851Y02335*
X01707Y02121D02*
X01699Y02137D01*
X01715*
X01707Y02121*
Y02125D02*
X01703Y02133D01*
X01711*
X01707Y02125*
X01481Y02223D02*
X01473Y02239D01*
X01489*
X01481Y02223*
Y02227D02*
X01477Y02235D01*
X01485*
X01481Y02227*
X01328Y02201D02*
X0132Y02217D01*
X01336*
X01328Y02201*
Y02205D02*
X01324Y02213D01*
X01332*
X01328Y02205*
X0212Y02117D02*
X02112Y02133D01*
X02128*
X0212Y02117*
Y02121D02*
X02116Y02129D01*
X02124*
X0212Y02121*
X01811Y02337D02*
X01803Y02353D01*
X01819*
X01811Y02337*
Y02341D02*
X01807Y02349D01*
X01815*
X01811Y02341*
X02044Y02499D02*
X02036Y02515D01*
X02052*
X02044Y02499*
Y02503D02*
X0204Y02511D01*
X02048*
X02044Y02503*
X01706Y02709D02*
X01698Y02725D01*
X01714*
X01706Y02709*
Y02713D02*
X01702Y02721D01*
X0171*
X01706Y02713*
X02381Y02714D02*
X02373Y0273D01*
X02389*
X02381Y02714*
Y02718D02*
X02377Y02726D01*
X02385*
X02381Y02718*
X02138Y02759D02*
X0213Y02775D01*
X02146*
X02138Y02759*
Y02763D02*
X02134Y02771D01*
X02142*
X02138Y02763*
X02513Y02912D02*
X02505Y02928D01*
X02521*
X02513Y02912*
Y02916D02*
X02509Y02924D01*
X02517*
X02513Y02916*
X02069Y03106D02*
X02061Y03122D01*
X02077*
X02069Y03106*
Y0311D02*
X02065Y03118D01*
X02073*
X02069Y0311*
X01793Y02904D02*
X01785Y0292D01*
X01801*
X01793Y02904*
Y02908D02*
X01789Y02916D01*
X01797*
X01793Y02908*
X01548Y02759D02*
X0154Y02775D01*
X01556*
X01548Y02759*
Y02763D02*
X01544Y02771D01*
X01552*
X01548Y02763*
X01161Y03602D02*
X01153Y03618D01*
X01169*
X01161Y03602*
Y03606D02*
X01157Y03614D01*
X01165*
X01161Y03606*
X01372Y04672D02*
X01364Y04688D01*
X0138*
X01372Y04672*
Y04676D02*
X01368Y04684D01*
X01376*
X01372Y04676*
X01748Y04311D02*
X0174Y04327D01*
X01756*
X01748Y04311*
Y04315D02*
X01744Y04323D01*
X01752*
X01748Y04315*
X00697Y0403D02*
X00689Y04046D01*
X00705*
X00697Y0403*
Y04034D02*
X00693Y04042D01*
X00701*
X00697Y04034*
X01994Y03241D02*
X01986Y03257D01*
X02002*
X01994Y03241*
Y03245D02*
X0199Y03253D01*
X01998*
X01994Y03245*
X01941Y03714D02*
X01933Y0373D01*
X01949*
X01941Y03714*
Y03718D02*
X01937Y03726D01*
X01945*
X01941Y03718*
X01968Y03264D02*
X0196Y0328D01*
X01976*
X01968Y03264*
Y03268D02*
X01964Y03276D01*
X01972*
X01968Y03268*
X01953Y03751D02*
X01945Y03767D01*
X01961*
X01953Y03751*
Y03755D02*
X01949Y03763D01*
X01957*
X01953Y03755*
X02032Y03751D02*
X02024Y03767D01*
X0204*
X02032Y03751*
Y03755D02*
X02028Y03763D01*
X02036*
X02032Y03755*
X02053Y03243D02*
X02045Y03259D01*
X02061*
X02053Y03243*
Y03247D02*
X02049Y03255D01*
X02057*
X02053Y03247*
X02024Y03226D02*
X02016Y03242D01*
X02032*
X02024Y03226*
Y0323D02*
X0202Y03238D01*
X02028*
X02024Y0323*
X0202Y03714D02*
X02012Y0373D01*
X02028*
X0202Y03714*
Y03718D02*
X02016Y03726D01*
X02024*
X0202Y03718*
X01913Y03264D02*
X01905Y0328D01*
X01921*
X01913Y03264*
Y03268D02*
X01909Y03276D01*
X01917*
X01913Y03268*
X015Y01012D02*
X01492Y01028D01*
X01508*
X015Y01012*
Y01016D02*
X01496Y01024D01*
X01504*
X015Y01016*
X02468Y03258D02*
X0246Y03274D01*
X02476*
X02468Y03258*
Y03262D02*
X02464Y0327D01*
X02472*
X02468Y03262*
X02327Y03987D02*
X02319Y04003D01*
X02335*
X02327Y03987*
Y03991D02*
X02323Y03999D01*
X02331*
X02327Y03991*
X02292Y03969D02*
X02284Y03985D01*
X023*
X02292Y03969*
Y03973D02*
X02288Y03981D01*
X02296*
X02292Y03973*
X02433Y03258D02*
X02425Y03274D01*
X02441*
X02433Y03258*
Y03262D02*
X02429Y0327D01*
X02437*
X02433Y03262*
X02399Y0326D02*
X02391Y03276D01*
X02407*
X02399Y0326*
Y03263D02*
X02395Y03272D01*
X02403*
X02399Y03263*
X02364Y0326D02*
X02356Y03276D01*
X02372*
X02364Y0326*
Y03263D02*
X0236Y03272D01*
X02368*
X02364Y03263*
X0233Y03883D02*
X02322Y03899D01*
X02338*
X0233Y03883*
Y03887D02*
X02326Y03895D01*
X02334*
X0233Y03887*
X02294Y03883D02*
X02286Y03899D01*
X02302*
X02294Y03883*
Y03887D02*
X0229Y03895D01*
X02298*
X02294Y03887*
X02297Y00399D02*
X02289Y00415D01*
X02305*
X02297Y00399*
Y00403D02*
X02293Y00411D01*
X02301*
X02297Y00403*
X01645Y00399D02*
X01637Y00415D01*
X01653*
X01645Y00399*
Y00403D02*
X01641Y00411D01*
X01649*
X01645Y00403*
X00824Y00447D02*
X00828Y00451D01*
X00832*
X00828Y00455*
X00832Y00459*
X00828*
X00824Y00463*
X0082Y00459*
X00816*
X0082Y00455*
X00816Y00451*
X0082*
X00824Y00447*
Y00451D02*
X00826Y00453D01*
X00828*
X00826Y00455*
X00828Y00457*
X00826*
X00824Y00459*
X00822Y00457*
X0082*
X00822Y00455*
X0082Y00453*
X00822*
X00824Y00451*
X00274Y00392D02*
X00278Y00396D01*
X00282*
X00278Y004*
X00282Y00404*
X00278*
X00274Y00408*
X0027Y00404*
X00266*
X0027Y004*
X00266Y00396*
X0027*
X00274Y00392*
Y00396D02*
X00276Y00398D01*
X00278*
X00276Y004*
X00278Y00402*
X00276*
X00274Y00404*
X00272Y00402*
X0027*
X00272Y004*
X0027Y00398*
X00272*
X00274Y00396*
X00895Y00846D02*
X00899Y0085D01*
X00903*
X00899Y00854*
X00903Y00858*
X00899*
X00895Y00862*
X00891Y00858*
X00887*
X00891Y00854*
X00887Y0085*
X00891*
X00895Y00846*
Y0085D02*
X00897Y00852D01*
X00899*
X00897Y00854*
X00899Y00856*
X00897*
X00895Y00858*
X00893Y00856*
X00891*
X00893Y00854*
X00891Y00852*
X00893*
X00895Y0085*
X0011Y03041D02*
X00114Y03045D01*
X00118*
X00114Y03049*
X00118Y03053*
X00114*
X0011Y03057*
X00106Y03053*
X00102*
X00106Y03049*
X00102Y03045*
X00106*
X0011Y03041*
Y03045D02*
X00112Y03047D01*
X00114*
X00112Y03049*
X00114Y03051*
X00112*
X0011Y03053*
X00108Y03051*
X00106*
X00108Y03049*
X00106Y03047*
X00108*
X0011Y03045*
X02038Y02965D02*
X02042Y02969D01*
X02046*
X02042Y02973*
X02046Y02977*
X02042*
X02038Y02981*
X02034Y02977*
X0203*
X02034Y02973*
X0203Y02969*
X02034*
X02038Y02965*
Y02969D02*
X0204Y02971D01*
X02042*
X0204Y02973*
X02042Y02975*
X0204*
X02038Y02977*
X02036Y02975*
X02034*
X02036Y02973*
X02034Y02971*
X02036*
X02038Y02969*
X0091Y02893D02*
X00914Y02897D01*
X00918*
X00914Y02901*
X00918Y02905*
X00914*
X0091Y02909*
X00906Y02905*
X00902*
X00906Y02901*
X00902Y02897*
X00906*
X0091Y02893*
Y02897D02*
X00912Y02899D01*
X00914*
X00912Y02901*
X00914Y02903*
X00912*
X0091Y02905*
X00908Y02903*
X00906*
X00908Y02901*
X00906Y02899*
X00908*
X0091Y02897*
X0108Y02703D02*
X01084Y02707D01*
X01088*
X01084Y02711*
X01088Y02715*
X01084*
X0108Y02719*
X01076Y02715*
X01072*
X01076Y02711*
X01072Y02707*
X01076*
X0108Y02703*
Y02707D02*
X01082Y02709D01*
X01084*
X01082Y02711*
X01084Y02713*
X01082*
X0108Y02715*
X01078Y02713*
X01076*
X01078Y02711*
X01076Y02709*
X01078*
X0108Y02707*
X01331Y02962D02*
X01335Y02966D01*
X01339*
X01335Y0297*
X01339Y02974*
X01335*
X01331Y02978*
X01327Y02974*
X01323*
X01327Y0297*
X01323Y02966*
X01327*
X01331Y02962*
Y02966D02*
X01333Y02968D01*
X01335*
X01333Y0297*
X01335Y02972*
X01333*
X01331Y02974*
X01329Y02972*
X01327*
X01329Y0297*
X01327Y02968*
X01329*
X01331Y02966*
X00597Y02617D02*
X00601Y02621D01*
X00605*
X00601Y02625*
X00605Y02629*
X00601*
X00597Y02633*
X00593Y02629*
X00589*
X00593Y02625*
X00589Y02621*
X00593*
X00597Y02617*
Y02621D02*
X00599Y02623D01*
X00601*
X00599Y02625*
X00601Y02627*
X00599*
X00597Y02629*
X00595Y02627*
X00593*
X00595Y02625*
X00593Y02623*
X00595*
X00597Y02621*
X00097Y02617D02*
X00101Y02621D01*
X00105*
X00101Y02625*
X00105Y02629*
X00101*
X00097Y02633*
X00093Y02629*
X00089*
X00093Y02625*
X00089Y02621*
X00093*
X00097Y02617*
Y02621D02*
X00099Y02623D01*
X00101*
X00099Y02625*
X00101Y02627*
X00099*
X00097Y02629*
X00095Y02627*
X00093*
X00095Y02625*
X00093Y02623*
X00095*
X00097Y02621*
X01212Y02407D02*
X01216Y02411D01*
X0122*
X01216Y02415*
X0122Y02419*
X01216*
X01212Y02423*
X01208Y02419*
X01204*
X01208Y02415*
X01204Y02411*
X01208*
X01212Y02407*
Y02411D02*
X01214Y02413D01*
X01216*
X01214Y02415*
X01216Y02417*
X01214*
X01212Y02419*
X0121Y02417*
X01208*
X0121Y02415*
X01208Y02413*
X0121*
X01212Y02411*
X00411Y01597D02*
X00415Y01601D01*
X00419*
X00415Y01605*
X00419Y01609*
X00415*
X00411Y01613*
X00407Y01609*
X00403*
X00407Y01605*
X00403Y01601*
X00407*
X00411Y01597*
Y01601D02*
X00413Y01603D01*
X00415*
X00413Y01605*
X00415Y01607*
X00413*
X00411Y01609*
X00409Y01607*
X00407*
X00409Y01605*
X00407Y01603*
X00409*
X00411Y01601*
X02565Y03183D02*
X02569Y03187D01*
X02573*
X02569Y03191*
X02573Y03195*
X02569*
X02565Y03199*
X02561Y03195*
X02557*
X02561Y03191*
X02557Y03187*
X02561*
X02565Y03183*
Y03187D02*
X02567Y03189D01*
X02569*
X02567Y03191*
X02569Y03193*
X02567*
X02565Y03195*
X02563Y03193*
X02561*
X02563Y03191*
X02561Y03189*
X02563*
X02565Y03187*
X0195Y03059D02*
X01954Y03063D01*
X01958*
X01954Y03067*
X01958Y03071*
X01954*
X0195Y03075*
X01946Y03071*
X01942*
X01946Y03067*
X01942Y03063*
X01946*
X0195Y03059*
Y03063D02*
X01952Y03065D01*
X01954*
X01952Y03067*
X01954Y03069*
X01952*
X0195Y03071*
X01948Y03069*
X01946*
X01948Y03067*
X01946Y03065*
X01948*
X0195Y03063*
X02019Y02108D02*
X02023Y02112D01*
X02027*
X02023Y02116*
X02027Y0212*
X02023*
X02019Y02124*
X02015Y0212*
X02011*
X02015Y02116*
X02011Y02112*
X02015*
X02019Y02108*
Y02112D02*
X02021Y02114D01*
X02023*
X02021Y02116*
X02023Y02118*
X02021*
X02019Y0212*
X02017Y02118*
X02015*
X02017Y02116*
X02015Y02114*
X02017*
X02019Y02112*
X01276Y00446D02*
X0128Y0045D01*
X01284*
X0128Y00454*
X01284Y00458*
X0128*
X01276Y00462*
X01272Y00458*
X01268*
X01272Y00454*
X01268Y0045*
X01272*
X01276Y00446*
Y0045D02*
X01278Y00452D01*
X0128*
X01278Y00454*
X0128Y00456*
X01278*
X01276Y00458*
X01274Y00456*
X01272*
X01274Y00454*
X01272Y00452*
X01274*
X01276Y0045*
X00705Y00445D02*
X00709Y00449D01*
X00713*
X00709Y00453*
X00713Y00457*
X00709*
X00705Y00461*
X00701Y00457*
X00697*
X00701Y00453*
X00697Y00449*
X00701*
X00705Y00445*
Y00449D02*
X00707Y00451D01*
X00709*
X00707Y00453*
X00709Y00455*
X00707*
X00705Y00457*
X00703Y00455*
X00701*
X00703Y00453*
X00701Y00451*
X00703*
X00705Y00449*
X01274Y00935D02*
X01278Y00939D01*
X01282*
X01278Y00943*
X01282Y00947*
X01278*
X01274Y00951*
X0127Y00947*
X01266*
X0127Y00943*
X01266Y00939*
X0127*
X01274Y00935*
Y00939D02*
X01276Y00941D01*
X01278*
X01276Y00943*
X01278Y00945*
X01276*
X01274Y00947*
X01272Y00945*
X0127*
X01272Y00943*
X0127Y00941*
X01272*
X01274Y00939*
X00382Y02623D02*
X00386Y02627D01*
X0039*
X00386Y02631*
X0039Y02635*
X00386*
X00382Y02639*
X00378Y02635*
X00374*
X00378Y02631*
X00374Y02627*
X00378*
X00382Y02623*
Y02627D02*
X00384Y02629D01*
X00386*
X00384Y02631*
X00386Y02633*
X00384*
X00382Y02635*
X0038Y02633*
X00378*
X0038Y02631*
X00378Y02629*
X0038*
X00382Y02627*
X00882Y02623D02*
X00886Y02627D01*
X0089*
X00886Y02631*
X0089Y02635*
X00886*
X00882Y02639*
X00878Y02635*
X00874*
X00878Y02631*
X00874Y02627*
X00878*
X00882Y02623*
Y02627D02*
X00884Y02629D01*
X00886*
X00884Y02631*
X00886Y02633*
X00884*
X00882Y02635*
X0088Y02633*
X00878*
X0088Y02631*
X00878Y02629*
X0088*
X00882Y02627*
X01596Y0081D02*
X01588Y00826D01*
X01604*
X01596Y0081*
Y00814D02*
X01592Y00822D01*
X016*
X01596Y00814*
X01949Y01664D02*
X01941Y0168D01*
X01957*
X01949Y01664*
Y01668D02*
X01945Y01676D01*
X01953*
X01949Y01668*
X01713Y0402D02*
X01705Y04036D01*
X01721*
X01713Y0402*
Y04024D02*
X01709Y04032D01*
X01717*
X01713Y04024*
X01697Y04179D02*
X01689Y04195D01*
X01705*
X01697Y04179*
Y04183D02*
X01693Y04191D01*
X01701*
X01697Y04183*
X02036Y0385D02*
X02028Y03866D01*
X02044*
X02036Y0385*
Y03854D02*
X02032Y03862D01*
X0204*
X02036Y03854*
X024Y04208D02*
X02392Y04224D01*
X02408*
X024Y04208*
Y04212D02*
X02396Y0422D01*
X02404*
X024Y04212*
X02075Y0385D02*
X02067Y03866D01*
X02083*
X02075Y0385*
Y03854D02*
X02071Y03862D01*
X02079*
X02075Y03854*
X01813Y04203D02*
X01805Y04219D01*
X01821*
X01813Y04203*
Y04207D02*
X01809Y04215D01*
X01817*
X01813Y04207*
Y04062D02*
X01805Y04078D01*
X01821*
X01813Y04062*
Y04066D02*
X01809Y04074D01*
X01817*
X01813Y04066*
X01822Y04272D02*
X01814Y04288D01*
X0183*
X01822Y04272*
Y04276D02*
X01818Y04284D01*
X01826*
X01822Y04276*
X02279Y04272D02*
X02271Y04288D01*
X02287*
X02279Y04272*
Y04276D02*
X02275Y04284D01*
X02283*
X02279Y04276*
X02108Y04437D02*
X021Y04453D01*
X02116*
X02108Y04437*
Y04441D02*
X02104Y04449D01*
X02112*
X02108Y04441*
X01993Y04437D02*
X01985Y04453D01*
X02001*
X01993Y04437*
Y04441D02*
X01989Y04449D01*
X01997*
X01993Y04441*
X02212Y04252D02*
X02204Y04268D01*
X0222*
X02212Y04252*
Y04256D02*
X02208Y04264D01*
X02216*
X02212Y04256*
X01898Y04252D02*
X0189Y04268D01*
X01906*
X01898Y04252*
Y04256D02*
X01894Y04264D01*
X01902*
X01898Y04256*
X02157Y04162D02*
X02149Y04178D01*
X02165*
X02157Y04162*
Y04166D02*
X02153Y04174D01*
X02161*
X02157Y04166*
X02098Y04172D02*
X0209Y04188D01*
X02106*
X02098Y04172*
Y04176D02*
X02094Y04184D01*
X02102*
X02098Y04176*
X0208Y0409D02*
X02072Y04106D01*
X02088*
X0208Y0409*
Y04094D02*
X02076Y04102D01*
X02084*
X0208Y04094*
X02031Y0409D02*
X02023Y04106D01*
X02039*
X02031Y0409*
Y04094D02*
X02027Y04102D01*
X02035*
X02031Y04094*
X01977Y0409D02*
X01969Y04106D01*
X01985*
X01977Y0409*
Y04094D02*
X01973Y04102D01*
X01981*
X01977Y04094*
X02129Y0409D02*
X02121Y04106D01*
X02137*
X02129Y0409*
Y04094D02*
X02125Y04102D01*
X02133*
X02129Y04094*
X02208Y04027D02*
X022Y04043D01*
X02216*
X02208Y04027*
Y04031D02*
X02204Y04039D01*
X02212*
X02208Y04031*
X02213Y04072D02*
X02205Y04088D01*
X02221*
X02213Y04072*
Y04076D02*
X02209Y04084D01*
X02217*
X02213Y04076*
X01892Y04072D02*
X01884Y04088D01*
X019*
X01892Y04072*
Y04076D02*
X01888Y04084D01*
X01896*
X01892Y04076*
X01897Y04027D02*
X01889Y04043D01*
X01905*
X01897Y04027*
Y04031D02*
X01893Y04039D01*
X01901*
X01897Y04031*
X02039Y04172D02*
X02031Y04188D01*
X02047*
X02039Y04172*
Y04176D02*
X02035Y04184D01*
X02043*
X02039Y04176*
X0198Y04172D02*
X01972Y04188D01*
X01988*
X0198Y04172*
Y04176D02*
X01976Y04184D01*
X01984*
X0198Y04176*
X01933Y04162D02*
X01925Y04178D01*
X01941*
X01933Y04162*
Y04166D02*
X01929Y04174D01*
X01937*
X01933Y04166*
X01813Y04097D02*
X01805Y04113D01*
X01821*
X01813Y04097*
Y04101D02*
X01809Y04109D01*
X01817*
X01813Y04101*
Y04167D02*
X01805Y04183D01*
X01821*
X01813Y04167*
Y04171D02*
X01809Y04179D01*
X01817*
X01813Y04171*
X02218Y01072D02*
X0221Y01088D01*
X02226*
X02218Y01072*
Y01076D02*
X02214Y01084D01*
X02222*
X02218Y01076*
X01683Y01085D02*
X01675Y01101D01*
X01691*
X01683Y01085*
Y01089D02*
X01679Y01097D01*
X01687*
X01683Y01089*
X0145Y03864D02*
X01442Y0388D01*
X01458*
X0145Y03864*
Y03868D02*
X01446Y03876D01*
X01454*
X0145Y03868*
X01279Y03955D02*
X01283Y03959D01*
X01287*
X01283Y03963*
X01287Y03967*
X01283*
X01279Y03971*
X01275Y03967*
X01271*
X01275Y03963*
X01271Y03959*
X01275*
X01279Y03955*
Y03959D02*
X01281Y03961D01*
X01283*
X01281Y03963*
X01283Y03965*
X01281*
X01279Y03967*
X01277Y03965*
X01275*
X01277Y03963*
X01275Y03961*
X01277*
X01279Y03959*
X01277Y03768D02*
X01281Y03772D01*
X01285*
X01281Y03776*
X01285Y0378*
X01281*
X01277Y03784*
X01273Y0378*
X01269*
X01273Y03776*
X01269Y03772*
X01273*
X01277Y03768*
Y03772D02*
X01279Y03774D01*
X01281*
X01279Y03776*
X01281Y03778*
X01279*
X01277Y0378*
X01275Y03778*
X01273*
X01275Y03776*
X01273Y03774*
X01275*
X01277Y03772*
Y0383D02*
X01281Y03834D01*
X01285*
X01281Y03838*
X01285Y03842*
X01281*
X01277Y03846*
X01273Y03842*
X01269*
X01273Y03838*
X01269Y03834*
X01273*
X01277Y0383*
Y03834D02*
X01279Y03836D01*
X01281*
X01279Y03838*
X01281Y0384*
X01279*
X01277Y03842*
X01275Y0384*
X01273*
X01275Y03838*
X01273Y03836*
X01275*
X01277Y03834*
Y03894D02*
X01281Y03898D01*
X01285*
X01281Y03902*
X01285Y03906*
X01281*
X01277Y0391*
X01273Y03906*
X01269*
X01273Y03902*
X01269Y03898*
X01273*
X01277Y03894*
Y03898D02*
X01279Y039D01*
X01281*
X01279Y03902*
X01281Y03904*
X01279*
X01277Y03906*
X01275Y03904*
X01273*
X01275Y03902*
X01273Y039*
X01275*
X01277Y03898*
X02427Y00474D02*
X02431Y00478D01*
X02435*
X02431Y00482*
X02435Y00486*
X02431*
X02427Y0049*
X02423Y00486*
X02419*
X02423Y00482*
X02419Y00478*
X02423*
X02427Y00474*
Y00478D02*
X02429Y0048D01*
X02431*
X02429Y00482*
X02431Y00484*
X02429*
X02427Y00486*
X02425Y00484*
X02423*
X02425Y00482*
X02423Y0048*
X02425*
X02427Y00478*
X02144Y00516D02*
X02148Y0052D01*
X02152*
X02148Y00524*
X02152Y00528*
X02148*
X02144Y00532*
X0214Y00528*
X02136*
X0214Y00524*
X02136Y0052*
X0214*
X02144Y00516*
Y0052D02*
X02146Y00522D01*
X02148*
X02146Y00524*
X02148Y00526*
X02146*
X02144Y00528*
X02142Y00526*
X0214*
X02142Y00524*
X0214Y00522*
X02142*
X02144Y0052*
Y0048D02*
X02148Y00484D01*
X02152*
X02148Y00488*
X02152Y00492*
X02148*
X02144Y00496*
X0214Y00492*
X02136*
X0214Y00488*
X02136Y00484*
X0214*
X02144Y0048*
Y00484D02*
X02146Y00486D01*
X02148*
X02146Y00488*
X02148Y0049*
X02146*
X02144Y00492*
X02142Y0049*
X0214*
X02142Y00488*
X0214Y00486*
X02142*
X02144Y00484*
X01854Y00473D02*
X01858Y00477D01*
X01862*
X01858Y00481*
X01862Y00485*
X01858*
X01854Y00489*
X0185Y00485*
X01846*
X0185Y00481*
X01846Y00477*
X0185*
X01854Y00473*
Y00477D02*
X01856Y00479D01*
X01858*
X01856Y00481*
X01858Y00483*
X01856*
X01854Y00485*
X01852Y00483*
X0185*
X01852Y00481*
X0185Y00479*
X01852*
X01854Y00477*
X02329Y00798D02*
X02333Y00802D01*
X02337*
X02333Y00806*
X02337Y0081*
X02333*
X02329Y00814*
X02325Y0081*
X02321*
X02325Y00806*
X02321Y00802*
X02325*
X02329Y00798*
Y00802D02*
X02331Y00804D01*
X02333*
X02331Y00806*
X02333Y00808*
X02331*
X02329Y0081*
X02327Y00808*
X02325*
X02327Y00806*
X02325Y00804*
X02327*
X02329Y00802*
X02062Y0081D02*
X02054Y00826D01*
X0207*
X02062Y0081*
Y00814D02*
X02058Y00822D01*
X02066*
X02062Y00814*
X02075Y00843D02*
X02067Y00859D01*
X02083*
X02075Y00843*
Y00847D02*
X02071Y00855D01*
X02079*
X02075Y00847*
X02065Y00775D02*
X02057Y00791D01*
X02073*
X02065Y00775*
Y00779D02*
X02061Y00787D01*
X02069*
X02065Y00779*
X0196Y00942D02*
X01964Y00946D01*
X01968*
X01964Y0095*
X01968Y00954*
X01964*
X0196Y00958*
X01956Y00954*
X01952*
X01956Y0095*
X01952Y00946*
X01956*
X0196Y00942*
Y00946D02*
X01962Y00948D01*
X01964*
X01962Y0095*
X01964Y00952*
X01962*
X0196Y00954*
X01958Y00952*
X01956*
X01958Y0095*
X01956Y00948*
X01958*
X0196Y00946*
X024Y04364D02*
X02404Y04368D01*
X02408*
X02404Y04372*
X02408Y04376*
X02404*
X024Y0438*
X02396Y04376*
X02392*
X02396Y04372*
X02392Y04368*
X02396*
X024Y04364*
Y04368D02*
X02402Y0437D01*
X02404*
X02402Y04372*
X02404Y04374*
X02402*
X024Y04376*
X02398Y04374*
X02396*
X02398Y04372*
X02396Y0437*
X02398*
X024Y04368*
X02361Y04322D02*
X02365Y04326D01*
X02369*
X02365Y0433*
X02369Y04334*
X02365*
X02361Y04338*
X02357Y04334*
X02353*
X02357Y0433*
X02353Y04326*
X02357*
X02361Y04322*
Y04326D02*
X02363Y04328D01*
X02365*
X02363Y0433*
X02365Y04332*
X02363*
X02361Y04334*
X02359Y04332*
X02357*
X02359Y0433*
X02357Y04328*
X02359*
X02361Y04326*
X0219Y04387D02*
X02194Y04391D01*
X02198*
X02194Y04395*
X02198Y04399*
X02194*
X0219Y04403*
X02186Y04399*
X02182*
X02186Y04395*
X02182Y04391*
X02186*
X0219Y04387*
Y04391D02*
X02192Y04393D01*
X02194*
X02192Y04395*
X02194Y04397*
X02192*
X0219Y04399*
X02188Y04397*
X02186*
X02188Y04395*
X02186Y04393*
X02188*
X0219Y04391*
X01922Y00904D02*
X01914Y0092D01*
X0193*
X01922Y00904*
Y00908D02*
X01918Y00916D01*
X01926*
X01922Y00908*
X01848Y00844D02*
X0184Y0086D01*
X01856*
X01848Y00844*
Y00848D02*
X01844Y00856D01*
X01852*
X01848Y00848*
X01604Y00844D02*
X01596Y0086D01*
X01612*
X01604Y00844*
Y00848D02*
X016Y00856D01*
X01608*
X01604Y00848*
X0213Y01185D02*
X02122Y01201D01*
X02138*
X0213Y01185*
Y01189D02*
X02126Y01197D01*
X02134*
X0213Y01189*
X01784Y01192D02*
X01776Y01208D01*
X01792*
X01784Y01192*
Y01196D02*
X0178Y01204D01*
X01788*
X01784Y01196*
X0157Y00475D02*
X01574Y00479D01*
X01578*
X01574Y00483*
X01578Y00487*
X01574*
X0157Y00491*
X01566Y00487*
X01562*
X01566Y00483*
X01562Y00479*
X01566*
X0157Y00475*
Y00479D02*
X01572Y00481D01*
X01574*
X01572Y00483*
X01574Y00485*
X01572*
X0157Y00487*
X01568Y00485*
X01566*
X01568Y00483*
X01566Y00481*
X01568*
X0157Y00479*
Y00514D02*
X01574Y00518D01*
X01578*
X01574Y00522*
X01578Y00526*
X01574*
X0157Y0053*
X01566Y00526*
X01562*
X01566Y00522*
X01562Y00518*
X01566*
X0157Y00514*
Y00518D02*
X01572Y0052D01*
X01574*
X01572Y00522*
X01574Y00524*
X01572*
X0157Y00526*
X01568Y00524*
X01566*
X01568Y00522*
X01566Y0052*
X01568*
X0157Y00518*
X01888Y03239D02*
X0188Y03255D01*
X01896*
X01888Y03239*
Y03243D02*
X01884Y03251D01*
X01892*
X01888Y03243*
X02111Y03751D02*
X02103Y03767D01*
X02119*
X02111Y03751*
Y03755D02*
X02107Y03763D01*
X02115*
X02111Y03755*
X02099Y03714D02*
X02091Y0373D01*
X02107*
X02099Y03714*
Y03718D02*
X02095Y03726D01*
X02103*
X02099Y03718*
X02118Y0326D02*
X02111Y03276D01*
X02126*
X02118Y0326*
Y03263D02*
X02115Y03272D01*
X02122*
X02118Y03263*
X02083Y0326D02*
X02076Y03276D01*
X02092*
X02083Y0326*
Y03263D02*
X02079Y03272D01*
X02088*
X02083Y03263*
X02152Y0326D02*
X02144Y03276D01*
X0216*
X02152Y0326*
Y03263D02*
X02148Y03272D01*
X02156*
X02152Y03263*
X02208Y0326D02*
X022Y03276D01*
X02216*
X02208Y0326*
Y03263D02*
X02204Y03272D01*
X02212*
X02208Y03263*
X02276Y0326D02*
X02268Y03276D01*
X02284*
X02276Y0326*
Y03263D02*
X02272Y03272D01*
X0228*
X02276Y03263*
X02241Y0326D02*
X02233Y03276D01*
X02249*
X02241Y0326*
Y03263D02*
X02237Y03272D01*
X02245*
X02241Y03263*
X02249Y03751D02*
X02241Y03767D01*
X02257*
X02249Y03751*
Y03755D02*
X02245Y03763D01*
X02253*
X02249Y03755*
X02237Y03714D02*
X02229Y0373D01*
X02245*
X02237Y03714*
Y03718D02*
X02233Y03726D01*
X02241*
X02237Y03718*
X01893Y03714D02*
X01885Y0373D01*
X01901*
X01893Y03714*
Y03718D02*
X01889Y03726D01*
X01897*
X01893Y03718*
X01881Y03751D02*
X01873Y03767D01*
X01889*
X01881Y03751*
Y03755D02*
X01877Y03763D01*
X01885*
X01881Y03755*
X01971Y01492D02*
X01963Y01508D01*
X01979*
X01971Y01492*
Y01496D02*
X01967Y01504D01*
X01975*
X01971Y01496*
X01673Y03867D02*
X01677Y03871D01*
X01681*
X01677Y03875*
X01681Y03879*
X01677*
X01673Y03883*
X01669Y03879*
X01665*
X01669Y03875*
X01665Y03871*
X01669*
X01673Y03867*
Y03871D02*
X01675Y03873D01*
X01677*
X01675Y03875*
X01677Y03877*
X01675*
X01673Y03879*
X01671Y03877*
X01669*
X01671Y03875*
X01669Y03873*
X01671*
X01673Y03871*
X01924Y04532D02*
X01928Y04536D01*
X01932*
X01928Y0454*
X01932Y04544*
X01928*
X01924Y04548*
X0192Y04544*
X01916*
X0192Y0454*
X01916Y04536*
X0192*
X01924Y04532*
Y04536D02*
X01926Y04538D01*
X01928*
X01926Y0454*
X01928Y04542*
X01926*
X01924Y04544*
X01922Y04542*
X0192*
X01922Y0454*
X0192Y04538*
X01922*
X01924Y04536*
X0196Y04506D02*
X01952Y04522D01*
X01968*
X0196Y04506*
Y0451D02*
X01956Y04518D01*
X01964*
X0196Y0451*
X01638Y04257D02*
X0163Y04273D01*
X01646*
X01638Y04257*
Y04261D02*
X01634Y04269D01*
X01642*
X01638Y04261*
X02148Y04513D02*
X0214Y04529D01*
X02156*
X02148Y04513*
Y04517D02*
X02144Y04525D01*
X02152*
X02148Y04517*
X02181Y04535D02*
X02185Y04539D01*
X02189*
X02185Y04543*
X02189Y04547*
X02185*
X02181Y04551*
X02177Y04547*
X02173*
X02177Y04543*
X02173Y04539*
X02177*
X02181Y04535*
Y04539D02*
X02183Y04541D01*
X02185*
X02183Y04543*
X02185Y04545*
X02183*
X02181Y04547*
X02179Y04545*
X02177*
X02179Y04543*
X02177Y04541*
X02179*
X02181Y04539*
X02316Y04404D02*
X0232Y04408D01*
X02324*
X0232Y04412*
X02324Y04416*
X0232*
X02316Y0442*
X02312Y04416*
X02308*
X02312Y04412*
X02308Y04408*
X02312*
X02316Y04404*
Y04408D02*
X02318Y0441D01*
X0232*
X02318Y04412*
X0232Y04414*
X02318*
X02316Y04416*
X02314Y04414*
X02312*
X02314Y04412*
X02312Y0441*
X02314*
X02316Y04408*
X02359Y04525D02*
X02351Y04541D01*
X02367*
X02359Y04525*
Y04529D02*
X02355Y04537D01*
X02363*
X02359Y04529*
X01788Y04402D02*
X0178Y04418D01*
X01796*
X01788Y04402*
Y04406D02*
X01784Y04414D01*
X01792*
X01788Y04406*
X01976Y04648D02*
X01968Y04664D01*
X01984*
X01976Y04648*
Y04652D02*
X01972Y0466D01*
X0198*
X01976Y04652*
X01942Y01533D02*
X01934Y01549D01*
X0195*
X01942Y01533*
Y01537D02*
X01938Y01545D01*
X01946*
X01942Y01537*
X01105Y03812D02*
X01097Y03828D01*
X01113*
X01105Y03812*
Y03816D02*
X01101Y03824D01*
X01109*
X01105Y03816*
X01164Y03722D02*
X01156Y03738D01*
X01172*
X01164Y03722*
Y03726D02*
X0116Y03734D01*
X01168*
X01164Y03726*
X0086Y04482D02*
X00852Y04498D01*
X00868*
X0086Y04482*
Y04486D02*
X00856Y04494D01*
X00864*
X0086Y04486*
X011Y04567D02*
X01092Y04583D01*
X01108*
X011Y04567*
Y04571D02*
X01096Y04579D01*
X01104*
X011Y04571*
X0113Y04307D02*
X01122Y04323D01*
X01138*
X0113Y04307*
Y04311D02*
X01126Y04319D01*
X01134*
X0113Y04311*
X0116Y04207D02*
X01152Y04223D01*
X01168*
X0116Y04207*
Y04211D02*
X01156Y04219D01*
X01164*
X0116Y04211*
X0112Y04357D02*
X01112Y04373D01*
X01128*
X0112Y04357*
Y04361D02*
X01116Y04369D01*
X01124*
X0112Y04361*
X0118Y04522D02*
X01172Y04538D01*
X01188*
X0118Y04522*
Y04526D02*
X01176Y04534D01*
X01184*
X0118Y04526*
X01395Y04521D02*
X01387Y04537D01*
X01403*
X01395Y04521*
Y04525D02*
X01391Y04533D01*
X01399*
X01395Y04525*
X0029Y04294D02*
X00294Y04298D01*
X00298*
X00294Y04302*
X00298Y04306*
X00294*
X0029Y0431*
X00286Y04306*
X00282*
X00286Y04302*
X00282Y04298*
X00286*
X0029Y04294*
Y04298D02*
X00292Y043D01*
X00294*
X00292Y04302*
X00294Y04304*
X00292*
X0029Y04306*
X00288Y04304*
X00286*
X00288Y04302*
X00286Y043*
X00288*
X0029Y04298*
X00625Y04602D02*
X00617Y04618D01*
X00633*
X00625Y04602*
Y04606D02*
X00621Y04614D01*
X00629*
X00625Y04606*
X0057Y04492D02*
X00562Y04508D01*
X00578*
X0057Y04492*
Y04496D02*
X00566Y04504D01*
X00574*
X0057Y04496*
X00865Y03932D02*
X00857Y03948D01*
X00873*
X00865Y03932*
Y03936D02*
X00861Y03944D01*
X00869*
X00865Y03936*
X0087Y03717D02*
X00862Y03733D01*
X00878*
X0087Y03717*
Y03721D02*
X00866Y03729D01*
X00874*
X0087Y03721*
X0185Y0323D02*
X01842Y03246D01*
X01858*
X0185Y0323*
Y03234D02*
X01846Y03242D01*
X01854*
X0185Y03234*
X0218Y0323D02*
X02172Y03246D01*
X02188*
X0218Y0323*
Y03234D02*
X02176Y03242D01*
X02184*
X0218Y03234*
X01275Y01385D02*
X01279Y01389D01*
X01283*
X01279Y01393*
X01283Y01397*
X01279*
X01275Y01401*
X01271Y01397*
X01267*
X01271Y01393*
X01267Y01389*
X01271*
X01275Y01385*
Y01389D02*
X01277Y01391D01*
X01279*
X01277Y01393*
X01279Y01395*
X01277*
X01275Y01397*
X01273Y01395*
X01271*
X01273Y01393*
X01271Y01391*
X01273*
X01275Y01389*
X00911Y03279D02*
X00915Y03283D01*
X00919*
X00915Y03287*
X00919Y03291*
X00915*
X00911Y03295*
X00907Y03291*
X00903*
X00907Y03287*
X00903Y03283*
X00907*
X00911Y03279*
Y03283D02*
X00913Y03285D01*
X00915*
X00913Y03287*
X00915Y03289*
X00913*
X00911Y03291*
X00909Y03289*
X00907*
X00909Y03287*
X00907Y03285*
X00909*
X00911Y03283*
X0075Y04192D02*
X00742Y04208D01*
X00758*
X0075Y04192*
Y04196D02*
X00746Y04204D01*
X00754*
X0075Y04196*
X009Y04592D02*
X00892Y04608D01*
X00908*
X009Y04592*
Y04596D02*
X00896Y04604D01*
X00904*
X009Y04596*
X0096Y04587D02*
X00952Y04603D01*
X00968*
X0096Y04587*
Y04591D02*
X00956Y04599D01*
X00964*
X0096Y04591*
X0092Y03652D02*
X00912Y03668D01*
X00928*
X0092Y03652*
Y03656D02*
X00916Y03664D01*
X00924*
X0092Y03656*
X01015Y03802D02*
X01007Y03818D01*
X01023*
X01015Y03802*
Y03806D02*
X01011Y03814D01*
X01019*
X01015Y03806*
X0106Y03817D02*
X01052Y03833D01*
X01068*
X0106Y03817*
Y03821D02*
X01056Y03829D01*
X01064*
X0106Y03821*
X0091Y03812D02*
X00902Y03828D01*
X00918*
X0091Y03812*
Y03816D02*
X00906Y03824D01*
X00914*
X0091Y03816*
X0087Y04197D02*
X00862Y04213D01*
X00878*
X0087Y04197*
Y04201D02*
X00866Y04209D01*
X00874*
X0087Y04201*
X01155Y04447D02*
X01147Y04463D01*
X01163*
X01155Y04447*
Y04451D02*
X01151Y04459D01*
X01159*
X01155Y04451*
X00843Y04313D02*
X00835Y04329D01*
X00851*
X00843Y04313*
Y04317D02*
X00839Y04325D01*
X00847*
X00843Y04317*
X0123Y04232D02*
X01222Y04248D01*
X01238*
X0123Y04232*
Y04236D02*
X01226Y04244D01*
X01234*
X0123Y04236*
X00835Y04077D02*
X00827Y04093D01*
X00843*
X00835Y04077*
Y04081D02*
X00831Y04089D01*
X00839*
X00835Y04081*
X0079Y04132D02*
X00782Y04148D01*
X00798*
X0079Y04132*
Y04136D02*
X00786Y04144D01*
X00794*
X0079Y04136*
X00947Y04028D02*
X00939Y04044D01*
X00955*
X00947Y04028*
Y04032D02*
X00943Y0404D01*
X00951*
X00947Y04032*
X01026Y04028D02*
X01018Y04044D01*
X01034*
X01026Y04028*
Y04032D02*
X01022Y0404D01*
X0103*
X01026Y04032*
X00697Y04101D02*
X00689Y04117D01*
X00705*
X00697Y04101*
Y04105D02*
X00693Y04113D01*
X00701*
X00697Y04105*
X0005Y04077D02*
X00054Y04081D01*
X00058*
X00054Y04085*
X00058Y04089*
X00054*
X0005Y04093*
X00046Y04089*
X00042*
X00046Y04085*
X00042Y04081*
X00046*
X0005Y04077*
Y04081D02*
X00052Y04083D01*
X00054*
X00052Y04085*
X00054Y04087*
X00052*
X0005Y04089*
X00048Y04087*
X00046*
X00048Y04085*
X00046Y04083*
X00048*
X0005Y04081*
X001Y04077D02*
X00104Y04081D01*
X00108*
X00104Y04085*
X00108Y04089*
X00104*
X001Y04093*
X00096Y04089*
X00092*
X00096Y04085*
X00092Y04081*
X00096*
X001Y04077*
Y04081D02*
X00102Y04083D01*
X00104*
X00102Y04085*
X00104Y04087*
X00102*
X001Y04089*
X00098Y04087*
X00096*
X00098Y04085*
X00096Y04083*
X00098*
X001Y04081*
X0015Y04077D02*
X00154Y04081D01*
X00158*
X00154Y04085*
X00158Y04089*
X00154*
X0015Y04093*
X00146Y04089*
X00142*
X00146Y04085*
X00142Y04081*
X00146*
X0015Y04077*
Y04081D02*
X00152Y04083D01*
X00154*
X00152Y04085*
X00154Y04087*
X00152*
X0015Y04089*
X00148Y04087*
X00146*
X00148Y04085*
X00146Y04083*
X00148*
X0015Y04081*
X002Y04077D02*
X00204Y04081D01*
X00208*
X00204Y04085*
X00208Y04089*
X00204*
X002Y04093*
X00196Y04089*
X00192*
X00196Y04085*
X00192Y04081*
X00196*
X002Y04077*
Y04081D02*
X00202Y04083D01*
X00204*
X00202Y04085*
X00204Y04087*
X00202*
X002Y04089*
X00198Y04087*
X00196*
X00198Y04085*
X00196Y04083*
X00198*
X002Y04081*
X0025Y04077D02*
X00254Y04081D01*
X00258*
X00254Y04085*
X00258Y04089*
X00254*
X0025Y04093*
X00246Y04089*
X00242*
X00246Y04085*
X00242Y04081*
X00246*
X0025Y04077*
Y04081D02*
X00252Y04083D01*
X00254*
X00252Y04085*
X00254Y04087*
X00252*
X0025Y04089*
X00248Y04087*
X00246*
X00248Y04085*
X00246Y04083*
X00248*
X0025Y04081*
X003Y04077D02*
X00304Y04081D01*
X00308*
X00304Y04085*
X00308Y04089*
X00304*
X003Y04093*
X00296Y04089*
X00292*
X00296Y04085*
X00292Y04081*
X00296*
X003Y04077*
Y04081D02*
X00302Y04083D01*
X00304*
X00302Y04085*
X00304Y04087*
X00302*
X003Y04089*
X00298Y04087*
X00296*
X00298Y04085*
X00296Y04083*
X00298*
X003Y04081*
X0035Y04077D02*
X00354Y04081D01*
X00358*
X00354Y04085*
X00358Y04089*
X00354*
X0035Y04093*
X00346Y04089*
X00342*
X00346Y04085*
X00342Y04081*
X00346*
X0035Y04077*
Y04081D02*
X00352Y04083D01*
X00354*
X00352Y04085*
X00354Y04087*
X00352*
X0035Y04089*
X00348Y04087*
X00346*
X00348Y04085*
X00346Y04083*
X00348*
X0035Y04081*
X004Y04077D02*
X00404Y04081D01*
X00408*
X00404Y04085*
X00408Y04089*
X00404*
X004Y04093*
X00396Y04089*
X00392*
X00396Y04085*
X00392Y04081*
X00396*
X004Y04077*
Y04081D02*
X00402Y04083D01*
X00404*
X00402Y04085*
X00404Y04087*
X00402*
X004Y04089*
X00398Y04087*
X00396*
X00398Y04085*
X00396Y04083*
X00398*
X004Y04081*
X0045Y04077D02*
X00454Y04081D01*
X00458*
X00454Y04085*
X00458Y04089*
X00454*
X0045Y04093*
X00446Y04089*
X00442*
X00446Y04085*
X00442Y04081*
X00446*
X0045Y04077*
Y04081D02*
X00452Y04083D01*
X00454*
X00452Y04085*
X00454Y04087*
X00452*
X0045Y04089*
X00448Y04087*
X00446*
X00448Y04085*
X00446Y04083*
X00448*
X0045Y04081*
X005Y04077D02*
X00504Y04081D01*
X00508*
X00504Y04085*
X00508Y04089*
X00504*
X005Y04093*
X00496Y04089*
X00492*
X00496Y04085*
X00492Y04081*
X00496*
X005Y04077*
Y04081D02*
X00502Y04083D01*
X00504*
X00502Y04085*
X00504Y04087*
X00502*
X005Y04089*
X00498Y04087*
X00496*
X00498Y04085*
X00496Y04083*
X00498*
X005Y04081*
X0055Y04077D02*
X00554Y04081D01*
X00558*
X00554Y04085*
X00558Y04089*
X00554*
X0055Y04093*
X00546Y04089*
X00542*
X00546Y04085*
X00542Y04081*
X00546*
X0055Y04077*
Y04081D02*
X00552Y04083D01*
X00554*
X00552Y04085*
X00554Y04087*
X00552*
X0055Y04089*
X00548Y04087*
X00546*
X00548Y04085*
X00546Y04083*
X00548*
X0055Y04081*
Y04027D02*
X00554Y04031D01*
X00558*
X00554Y04035*
X00558Y04039*
X00554*
X0055Y04043*
X00546Y04039*
X00542*
X00546Y04035*
X00542Y04031*
X00546*
X0055Y04027*
Y04031D02*
X00552Y04033D01*
X00554*
X00552Y04035*
X00554Y04037*
X00552*
X0055Y04039*
X00548Y04037*
X00546*
X00548Y04035*
X00546Y04033*
X00548*
X0055Y04031*
X005Y04027D02*
X00504Y04031D01*
X00508*
X00504Y04035*
X00508Y04039*
X00504*
X005Y04043*
X00496Y04039*
X00492*
X00496Y04035*
X00492Y04031*
X00496*
X005Y04027*
Y04031D02*
X00502Y04033D01*
X00504*
X00502Y04035*
X00504Y04037*
X00502*
X005Y04039*
X00498Y04037*
X00496*
X00498Y04035*
X00496Y04033*
X00498*
X005Y04031*
X0045Y04027D02*
X00454Y04031D01*
X00458*
X00454Y04035*
X00458Y04039*
X00454*
X0045Y04043*
X00446Y04039*
X00442*
X00446Y04035*
X00442Y04031*
X00446*
X0045Y04027*
Y04031D02*
X00452Y04033D01*
X00454*
X00452Y04035*
X00454Y04037*
X00452*
X0045Y04039*
X00448Y04037*
X00446*
X00448Y04035*
X00446Y04033*
X00448*
X0045Y04031*
X004Y04027D02*
X00404Y04031D01*
X00408*
X00404Y04035*
X00408Y04039*
X00404*
X004Y04043*
X00396Y04039*
X00392*
X00396Y04035*
X00392Y04031*
X00396*
X004Y04027*
Y04031D02*
X00402Y04033D01*
X00404*
X00402Y04035*
X00404Y04037*
X00402*
X004Y04039*
X00398Y04037*
X00396*
X00398Y04035*
X00396Y04033*
X00398*
X004Y04031*
X0035Y04027D02*
X00354Y04031D01*
X00358*
X00354Y04035*
X00358Y04039*
X00354*
X0035Y04043*
X00346Y04039*
X00342*
X00346Y04035*
X00342Y04031*
X00346*
X0035Y04027*
Y04031D02*
X00352Y04033D01*
X00354*
X00352Y04035*
X00354Y04037*
X00352*
X0035Y04039*
X00348Y04037*
X00346*
X00348Y04035*
X00346Y04033*
X00348*
X0035Y04031*
X003Y04027D02*
X00304Y04031D01*
X00308*
X00304Y04035*
X00308Y04039*
X00304*
X003Y04043*
X00296Y04039*
X00292*
X00296Y04035*
X00292Y04031*
X00296*
X003Y04027*
Y04031D02*
X00302Y04033D01*
X00304*
X00302Y04035*
X00304Y04037*
X00302*
X003Y04039*
X00298Y04037*
X00296*
X00298Y04035*
X00296Y04033*
X00298*
X003Y04031*
X0025Y04027D02*
X00254Y04031D01*
X00258*
X00254Y04035*
X00258Y04039*
X00254*
X0025Y04043*
X00246Y04039*
X00242*
X00246Y04035*
X00242Y04031*
X00246*
X0025Y04027*
Y04031D02*
X00252Y04033D01*
X00254*
X00252Y04035*
X00254Y04037*
X00252*
X0025Y04039*
X00248Y04037*
X00246*
X00248Y04035*
X00246Y04033*
X00248*
X0025Y04031*
X002Y04027D02*
X00204Y04031D01*
X00208*
X00204Y04035*
X00208Y04039*
X00204*
X002Y04043*
X00196Y04039*
X00192*
X00196Y04035*
X00192Y04031*
X00196*
X002Y04027*
Y04031D02*
X00202Y04033D01*
X00204*
X00202Y04035*
X00204Y04037*
X00202*
X002Y04039*
X00198Y04037*
X00196*
X00198Y04035*
X00196Y04033*
X00198*
X002Y04031*
X0015Y04027D02*
X00154Y04031D01*
X00158*
X00154Y04035*
X00158Y04039*
X00154*
X0015Y04043*
X00146Y04039*
X00142*
X00146Y04035*
X00142Y04031*
X00146*
X0015Y04027*
Y04031D02*
X00152Y04033D01*
X00154*
X00152Y04035*
X00154Y04037*
X00152*
X0015Y04039*
X00148Y04037*
X00146*
X00148Y04035*
X00146Y04033*
X00148*
X0015Y04031*
X001Y04027D02*
X00104Y04031D01*
X00108*
X00104Y04035*
X00108Y04039*
X00104*
X001Y04043*
X00096Y04039*
X00092*
X00096Y04035*
X00092Y04031*
X00096*
X001Y04027*
Y04031D02*
X00102Y04033D01*
X00104*
X00102Y04035*
X00104Y04037*
X00102*
X001Y04039*
X00098Y04037*
X00096*
X00098Y04035*
X00096Y04033*
X00098*
X001Y04031*
X0005Y04027D02*
X00054Y04031D01*
X00058*
X00054Y04035*
X00058Y04039*
X00054*
X0005Y04043*
X00046Y04039*
X00042*
X00046Y04035*
X00042Y04031*
X00046*
X0005Y04027*
Y04031D02*
X00052Y04033D01*
X00054*
X00052Y04035*
X00054Y04037*
X00052*
X0005Y04039*
X00048Y04037*
X00046*
X00048Y04035*
X00046Y04033*
X00048*
X0005Y04031*
X0055Y03977D02*
X00554Y03981D01*
X00558*
X00554Y03985*
X00558Y03989*
X00554*
X0055Y03993*
X00546Y03989*
X00542*
X00546Y03985*
X00542Y03981*
X00546*
X0055Y03977*
Y03981D02*
X00552Y03983D01*
X00554*
X00552Y03985*
X00554Y03987*
X00552*
X0055Y03989*
X00548Y03987*
X00546*
X00548Y03985*
X00546Y03983*
X00548*
X0055Y03981*
X005Y03977D02*
X00504Y03981D01*
X00508*
X00504Y03985*
X00508Y03989*
X00504*
X005Y03993*
X00496Y03989*
X00492*
X00496Y03985*
X00492Y03981*
X00496*
X005Y03977*
Y03981D02*
X00502Y03983D01*
X00504*
X00502Y03985*
X00504Y03987*
X00502*
X005Y03989*
X00498Y03987*
X00496*
X00498Y03985*
X00496Y03983*
X00498*
X005Y03981*
X0045Y03977D02*
X00454Y03981D01*
X00458*
X00454Y03985*
X00458Y03989*
X00454*
X0045Y03993*
X00446Y03989*
X00442*
X00446Y03985*
X00442Y03981*
X00446*
X0045Y03977*
Y03981D02*
X00452Y03983D01*
X00454*
X00452Y03985*
X00454Y03987*
X00452*
X0045Y03989*
X00448Y03987*
X00446*
X00448Y03985*
X00446Y03983*
X00448*
X0045Y03981*
X004Y03977D02*
X00404Y03981D01*
X00408*
X00404Y03985*
X00408Y03989*
X00404*
X004Y03993*
X00396Y03989*
X00392*
X00396Y03985*
X00392Y03981*
X00396*
X004Y03977*
Y03981D02*
X00402Y03983D01*
X00404*
X00402Y03985*
X00404Y03987*
X00402*
X004Y03989*
X00398Y03987*
X00396*
X00398Y03985*
X00396Y03983*
X00398*
X004Y03981*
X0035Y03977D02*
X00354Y03981D01*
X00358*
X00354Y03985*
X00358Y03989*
X00354*
X0035Y03993*
X00346Y03989*
X00342*
X00346Y03985*
X00342Y03981*
X00346*
X0035Y03977*
Y03981D02*
X00352Y03983D01*
X00354*
X00352Y03985*
X00354Y03987*
X00352*
X0035Y03989*
X00348Y03987*
X00346*
X00348Y03985*
X00346Y03983*
X00348*
X0035Y03981*
X003Y03977D02*
X00304Y03981D01*
X00308*
X00304Y03985*
X00308Y03989*
X00304*
X003Y03993*
X00296Y03989*
X00292*
X00296Y03985*
X00292Y03981*
X00296*
X003Y03977*
Y03981D02*
X00302Y03983D01*
X00304*
X00302Y03985*
X00304Y03987*
X00302*
X003Y03989*
X00298Y03987*
X00296*
X00298Y03985*
X00296Y03983*
X00298*
X003Y03981*
X0025Y03977D02*
X00254Y03981D01*
X00258*
X00254Y03985*
X00258Y03989*
X00254*
X0025Y03993*
X00246Y03989*
X00242*
X00246Y03985*
X00242Y03981*
X00246*
X0025Y03977*
Y03981D02*
X00252Y03983D01*
X00254*
X00252Y03985*
X00254Y03987*
X00252*
X0025Y03989*
X00248Y03987*
X00246*
X00248Y03985*
X00246Y03983*
X00248*
X0025Y03981*
X002Y03977D02*
X00204Y03981D01*
X00208*
X00204Y03985*
X00208Y03989*
X00204*
X002Y03993*
X00196Y03989*
X00192*
X00196Y03985*
X00192Y03981*
X00196*
X002Y03977*
Y03981D02*
X00202Y03983D01*
X00204*
X00202Y03985*
X00204Y03987*
X00202*
X002Y03989*
X00198Y03987*
X00196*
X00198Y03985*
X00196Y03983*
X00198*
X002Y03981*
X0015Y03977D02*
X00154Y03981D01*
X00158*
X00154Y03985*
X00158Y03989*
X00154*
X0015Y03993*
X00146Y03989*
X00142*
X00146Y03985*
X00142Y03981*
X00146*
X0015Y03977*
Y03981D02*
X00152Y03983D01*
X00154*
X00152Y03985*
X00154Y03987*
X00152*
X0015Y03989*
X00148Y03987*
X00146*
X00148Y03985*
X00146Y03983*
X00148*
X0015Y03981*
X001Y03977D02*
X00104Y03981D01*
X00108*
X00104Y03985*
X00108Y03989*
X00104*
X001Y03993*
X00096Y03989*
X00092*
X00096Y03985*
X00092Y03981*
X00096*
X001Y03977*
Y03981D02*
X00102Y03983D01*
X00104*
X00102Y03985*
X00104Y03987*
X00102*
X001Y03989*
X00098Y03987*
X00096*
X00098Y03985*
X00096Y03983*
X00098*
X001Y03981*
X0005Y03977D02*
X00054Y03981D01*
X00058*
X00054Y03985*
X00058Y03989*
X00054*
X0005Y03993*
X00046Y03989*
X00042*
X00046Y03985*
X00042Y03981*
X00046*
X0005Y03977*
Y03981D02*
X00052Y03983D01*
X00054*
X00052Y03985*
X00054Y03987*
X00052*
X0005Y03989*
X00048Y03987*
X00046*
X00048Y03985*
X00046Y03983*
X00048*
X0005Y03981*
X0055Y03927D02*
X00554Y03931D01*
X00558*
X00554Y03935*
X00558Y03939*
X00554*
X0055Y03943*
X00546Y03939*
X00542*
X00546Y03935*
X00542Y03931*
X00546*
X0055Y03927*
Y03931D02*
X00552Y03933D01*
X00554*
X00552Y03935*
X00554Y03937*
X00552*
X0055Y03939*
X00548Y03937*
X00546*
X00548Y03935*
X00546Y03933*
X00548*
X0055Y03931*
X005Y03927D02*
X00504Y03931D01*
X00508*
X00504Y03935*
X00508Y03939*
X00504*
X005Y03943*
X00496Y03939*
X00492*
X00496Y03935*
X00492Y03931*
X00496*
X005Y03927*
Y03931D02*
X00502Y03933D01*
X00504*
X00502Y03935*
X00504Y03937*
X00502*
X005Y03939*
X00498Y03937*
X00496*
X00498Y03935*
X00496Y03933*
X00498*
X005Y03931*
X0045Y03927D02*
X00454Y03931D01*
X00458*
X00454Y03935*
X00458Y03939*
X00454*
X0045Y03943*
X00446Y03939*
X00442*
X00446Y03935*
X00442Y03931*
X00446*
X0045Y03927*
Y03931D02*
X00452Y03933D01*
X00454*
X00452Y03935*
X00454Y03937*
X00452*
X0045Y03939*
X00448Y03937*
X00446*
X00448Y03935*
X00446Y03933*
X00448*
X0045Y03931*
X004Y03927D02*
X00404Y03931D01*
X00408*
X00404Y03935*
X00408Y03939*
X00404*
X004Y03943*
X00396Y03939*
X00392*
X00396Y03935*
X00392Y03931*
X00396*
X004Y03927*
Y03931D02*
X00402Y03933D01*
X00404*
X00402Y03935*
X00404Y03937*
X00402*
X004Y03939*
X00398Y03937*
X00396*
X00398Y03935*
X00396Y03933*
X00398*
X004Y03931*
X0035Y03927D02*
X00354Y03931D01*
X00358*
X00354Y03935*
X00358Y03939*
X00354*
X0035Y03943*
X00346Y03939*
X00342*
X00346Y03935*
X00342Y03931*
X00346*
X0035Y03927*
Y03931D02*
X00352Y03933D01*
X00354*
X00352Y03935*
X00354Y03937*
X00352*
X0035Y03939*
X00348Y03937*
X00346*
X00348Y03935*
X00346Y03933*
X00348*
X0035Y03931*
X003Y03927D02*
X00304Y03931D01*
X00308*
X00304Y03935*
X00308Y03939*
X00304*
X003Y03943*
X00296Y03939*
X00292*
X00296Y03935*
X00292Y03931*
X00296*
X003Y03927*
Y03931D02*
X00302Y03933D01*
X00304*
X00302Y03935*
X00304Y03937*
X00302*
X003Y03939*
X00298Y03937*
X00296*
X00298Y03935*
X00296Y03933*
X00298*
X003Y03931*
X0025Y03927D02*
X00254Y03931D01*
X00258*
X00254Y03935*
X00258Y03939*
X00254*
X0025Y03943*
X00246Y03939*
X00242*
X00246Y03935*
X00242Y03931*
X00246*
X0025Y03927*
Y03931D02*
X00252Y03933D01*
X00254*
X00252Y03935*
X00254Y03937*
X00252*
X0025Y03939*
X00248Y03937*
X00246*
X00248Y03935*
X00246Y03933*
X00248*
X0025Y03931*
X002Y03927D02*
X00204Y03931D01*
X00208*
X00204Y03935*
X00208Y03939*
X00204*
X002Y03943*
X00196Y03939*
X00192*
X00196Y03935*
X00192Y03931*
X00196*
X002Y03927*
Y03931D02*
X00202Y03933D01*
X00204*
X00202Y03935*
X00204Y03937*
X00202*
X002Y03939*
X00198Y03937*
X00196*
X00198Y03935*
X00196Y03933*
X00198*
X002Y03931*
X0015Y03927D02*
X00154Y03931D01*
X00158*
X00154Y03935*
X00158Y03939*
X00154*
X0015Y03943*
X00146Y03939*
X00142*
X00146Y03935*
X00142Y03931*
X00146*
X0015Y03927*
Y03931D02*
X00152Y03933D01*
X00154*
X00152Y03935*
X00154Y03937*
X00152*
X0015Y03939*
X00148Y03937*
X00146*
X00148Y03935*
X00146Y03933*
X00148*
X0015Y03931*
X001Y03927D02*
X00104Y03931D01*
X00108*
X00104Y03935*
X00108Y03939*
X00104*
X001Y03943*
X00096Y03939*
X00092*
X00096Y03935*
X00092Y03931*
X00096*
X001Y03927*
Y03931D02*
X00102Y03933D01*
X00104*
X00102Y03935*
X00104Y03937*
X00102*
X001Y03939*
X00098Y03937*
X00096*
X00098Y03935*
X00096Y03933*
X00098*
X001Y03931*
X0005Y03927D02*
X00054Y03931D01*
X00058*
X00054Y03935*
X00058Y03939*
X00054*
X0005Y03943*
X00046Y03939*
X00042*
X00046Y03935*
X00042Y03931*
X00046*
X0005Y03927*
Y03931D02*
X00052Y03933D01*
X00054*
X00052Y03935*
X00054Y03937*
X00052*
X0005Y03939*
X00048Y03937*
X00046*
X00048Y03935*
X00046Y03933*
X00048*
X0005Y03931*
X0055Y03877D02*
X00554Y03881D01*
X00558*
X00554Y03885*
X00558Y03889*
X00554*
X0055Y03893*
X00546Y03889*
X00542*
X00546Y03885*
X00542Y03881*
X00546*
X0055Y03877*
Y03881D02*
X00552Y03883D01*
X00554*
X00552Y03885*
X00554Y03887*
X00552*
X0055Y03889*
X00548Y03887*
X00546*
X00548Y03885*
X00546Y03883*
X00548*
X0055Y03881*
X005Y03877D02*
X00504Y03881D01*
X00508*
X00504Y03885*
X00508Y03889*
X00504*
X005Y03893*
X00496Y03889*
X00492*
X00496Y03885*
X00492Y03881*
X00496*
X005Y03877*
Y03881D02*
X00502Y03883D01*
X00504*
X00502Y03885*
X00504Y03887*
X00502*
X005Y03889*
X00498Y03887*
X00496*
X00498Y03885*
X00496Y03883*
X00498*
X005Y03881*
X0045Y03877D02*
X00454Y03881D01*
X00458*
X00454Y03885*
X00458Y03889*
X00454*
X0045Y03893*
X00446Y03889*
X00442*
X00446Y03885*
X00442Y03881*
X00446*
X0045Y03877*
Y03881D02*
X00452Y03883D01*
X00454*
X00452Y03885*
X00454Y03887*
X00452*
X0045Y03889*
X00448Y03887*
X00446*
X00448Y03885*
X00446Y03883*
X00448*
X0045Y03881*
X004Y03877D02*
X00404Y03881D01*
X00408*
X00404Y03885*
X00408Y03889*
X00404*
X004Y03893*
X00396Y03889*
X00392*
X00396Y03885*
X00392Y03881*
X00396*
X004Y03877*
Y03881D02*
X00402Y03883D01*
X00404*
X00402Y03885*
X00404Y03887*
X00402*
X004Y03889*
X00398Y03887*
X00396*
X00398Y03885*
X00396Y03883*
X00398*
X004Y03881*
X0035Y03877D02*
X00354Y03881D01*
X00358*
X00354Y03885*
X00358Y03889*
X00354*
X0035Y03893*
X00346Y03889*
X00342*
X00346Y03885*
X00342Y03881*
X00346*
X0035Y03877*
Y03881D02*
X00352Y03883D01*
X00354*
X00352Y03885*
X00354Y03887*
X00352*
X0035Y03889*
X00348Y03887*
X00346*
X00348Y03885*
X00346Y03883*
X00348*
X0035Y03881*
X003Y03877D02*
X00304Y03881D01*
X00308*
X00304Y03885*
X00308Y03889*
X00304*
X003Y03893*
X00296Y03889*
X00292*
X00296Y03885*
X00292Y03881*
X00296*
X003Y03877*
Y03881D02*
X00302Y03883D01*
X00304*
X00302Y03885*
X00304Y03887*
X00302*
X003Y03889*
X00298Y03887*
X00296*
X00298Y03885*
X00296Y03883*
X00298*
X003Y03881*
X0025Y03877D02*
X00254Y03881D01*
X00258*
X00254Y03885*
X00258Y03889*
X00254*
X0025Y03893*
X00246Y03889*
X00242*
X00246Y03885*
X00242Y03881*
X00246*
X0025Y03877*
Y03881D02*
X00252Y03883D01*
X00254*
X00252Y03885*
X00254Y03887*
X00252*
X0025Y03889*
X00248Y03887*
X00246*
X00248Y03885*
X00246Y03883*
X00248*
X0025Y03881*
X002Y03877D02*
X00204Y03881D01*
X00208*
X00204Y03885*
X00208Y03889*
X00204*
X002Y03893*
X00196Y03889*
X00192*
X00196Y03885*
X00192Y03881*
X00196*
X002Y03877*
Y03881D02*
X00202Y03883D01*
X00204*
X00202Y03885*
X00204Y03887*
X00202*
X002Y03889*
X00198Y03887*
X00196*
X00198Y03885*
X00196Y03883*
X00198*
X002Y03881*
X0015Y03877D02*
X00154Y03881D01*
X00158*
X00154Y03885*
X00158Y03889*
X00154*
X0015Y03893*
X00146Y03889*
X00142*
X00146Y03885*
X00142Y03881*
X00146*
X0015Y03877*
Y03881D02*
X00152Y03883D01*
X00154*
X00152Y03885*
X00154Y03887*
X00152*
X0015Y03889*
X00148Y03887*
X00146*
X00148Y03885*
X00146Y03883*
X00148*
X0015Y03881*
X001Y03877D02*
X00104Y03881D01*
X00108*
X00104Y03885*
X00108Y03889*
X00104*
X001Y03893*
X00096Y03889*
X00092*
X00096Y03885*
X00092Y03881*
X00096*
X001Y03877*
Y03881D02*
X00102Y03883D01*
X00104*
X00102Y03885*
X00104Y03887*
X00102*
X001Y03889*
X00098Y03887*
X00096*
X00098Y03885*
X00096Y03883*
X00098*
X001Y03881*
X0005Y03877D02*
X00054Y03881D01*
X00058*
X00054Y03885*
X00058Y03889*
X00054*
X0005Y03893*
X00046Y03889*
X00042*
X00046Y03885*
X00042Y03881*
X00046*
X0005Y03877*
Y03881D02*
X00052Y03883D01*
X00054*
X00052Y03885*
X00054Y03887*
X00052*
X0005Y03889*
X00048Y03887*
X00046*
X00048Y03885*
X00046Y03883*
X00048*
X0005Y03881*
X0055Y03827D02*
X00554Y03831D01*
X00558*
X00554Y03835*
X00558Y03839*
X00554*
X0055Y03843*
X00546Y03839*
X00542*
X00546Y03835*
X00542Y03831*
X00546*
X0055Y03827*
Y03831D02*
X00552Y03833D01*
X00554*
X00552Y03835*
X00554Y03837*
X00552*
X0055Y03839*
X00548Y03837*
X00546*
X00548Y03835*
X00546Y03833*
X00548*
X0055Y03831*
X005Y03827D02*
X00504Y03831D01*
X00508*
X00504Y03835*
X00508Y03839*
X00504*
X005Y03843*
X00496Y03839*
X00492*
X00496Y03835*
X00492Y03831*
X00496*
X005Y03827*
Y03831D02*
X00502Y03833D01*
X00504*
X00502Y03835*
X00504Y03837*
X00502*
X005Y03839*
X00498Y03837*
X00496*
X00498Y03835*
X00496Y03833*
X00498*
X005Y03831*
X0045Y03827D02*
X00454Y03831D01*
X00458*
X00454Y03835*
X00458Y03839*
X00454*
X0045Y03843*
X00446Y03839*
X00442*
X00446Y03835*
X00442Y03831*
X00446*
X0045Y03827*
Y03831D02*
X00452Y03833D01*
X00454*
X00452Y03835*
X00454Y03837*
X00452*
X0045Y03839*
X00448Y03837*
X00446*
X00448Y03835*
X00446Y03833*
X00448*
X0045Y03831*
X004Y03827D02*
X00404Y03831D01*
X00408*
X00404Y03835*
X00408Y03839*
X00404*
X004Y03843*
X00396Y03839*
X00392*
X00396Y03835*
X00392Y03831*
X00396*
X004Y03827*
Y03831D02*
X00402Y03833D01*
X00404*
X00402Y03835*
X00404Y03837*
X00402*
X004Y03839*
X00398Y03837*
X00396*
X00398Y03835*
X00396Y03833*
X00398*
X004Y03831*
X0035Y03827D02*
X00354Y03831D01*
X00358*
X00354Y03835*
X00358Y03839*
X00354*
X0035Y03843*
X00346Y03839*
X00342*
X00346Y03835*
X00342Y03831*
X00346*
X0035Y03827*
Y03831D02*
X00352Y03833D01*
X00354*
X00352Y03835*
X00354Y03837*
X00352*
X0035Y03839*
X00348Y03837*
X00346*
X00348Y03835*
X00346Y03833*
X00348*
X0035Y03831*
X003Y03827D02*
X00304Y03831D01*
X00308*
X00304Y03835*
X00308Y03839*
X00304*
X003Y03843*
X00296Y03839*
X00292*
X00296Y03835*
X00292Y03831*
X00296*
X003Y03827*
Y03831D02*
X00302Y03833D01*
X00304*
X00302Y03835*
X00304Y03837*
X00302*
X003Y03839*
X00298Y03837*
X00296*
X00298Y03835*
X00296Y03833*
X00298*
X003Y03831*
X0025Y03827D02*
X00254Y03831D01*
X00258*
X00254Y03835*
X00258Y03839*
X00254*
X0025Y03843*
X00246Y03839*
X00242*
X00246Y03835*
X00242Y03831*
X00246*
X0025Y03827*
Y03831D02*
X00252Y03833D01*
X00254*
X00252Y03835*
X00254Y03837*
X00252*
X0025Y03839*
X00248Y03837*
X00246*
X00248Y03835*
X00246Y03833*
X00248*
X0025Y03831*
X002Y03827D02*
X00204Y03831D01*
X00208*
X00204Y03835*
X00208Y03839*
X00204*
X002Y03843*
X00196Y03839*
X00192*
X00196Y03835*
X00192Y03831*
X00196*
X002Y03827*
Y03831D02*
X00202Y03833D01*
X00204*
X00202Y03835*
X00204Y03837*
X00202*
X002Y03839*
X00198Y03837*
X00196*
X00198Y03835*
X00196Y03833*
X00198*
X002Y03831*
X0015Y03827D02*
X00154Y03831D01*
X00158*
X00154Y03835*
X00158Y03839*
X00154*
X0015Y03843*
X00146Y03839*
X00142*
X00146Y03835*
X00142Y03831*
X00146*
X0015Y03827*
Y03831D02*
X00152Y03833D01*
X00154*
X00152Y03835*
X00154Y03837*
X00152*
X0015Y03839*
X00148Y03837*
X00146*
X00148Y03835*
X00146Y03833*
X00148*
X0015Y03831*
X001Y03827D02*
X00104Y03831D01*
X00108*
X00104Y03835*
X00108Y03839*
X00104*
X001Y03843*
X00096Y03839*
X00092*
X00096Y03835*
X00092Y03831*
X00096*
X001Y03827*
Y03831D02*
X00102Y03833D01*
X00104*
X00102Y03835*
X00104Y03837*
X00102*
X001Y03839*
X00098Y03837*
X00096*
X00098Y03835*
X00096Y03833*
X00098*
X001Y03831*
X0005Y03827D02*
X00054Y03831D01*
X00058*
X00054Y03835*
X00058Y03839*
X00054*
X0005Y03843*
X00046Y03839*
X00042*
X00046Y03835*
X00042Y03831*
X00046*
X0005Y03827*
Y03831D02*
X00052Y03833D01*
X00054*
X00052Y03835*
X00054Y03837*
X00052*
X0005Y03839*
X00048Y03837*
X00046*
X00048Y03835*
X00046Y03833*
X00048*
X0005Y03831*
X0055Y03777D02*
X00554Y03781D01*
X00558*
X00554Y03785*
X00558Y03789*
X00554*
X0055Y03793*
X00546Y03789*
X00542*
X00546Y03785*
X00542Y03781*
X00546*
X0055Y03777*
Y03781D02*
X00552Y03783D01*
X00554*
X00552Y03785*
X00554Y03787*
X00552*
X0055Y03789*
X00548Y03787*
X00546*
X00548Y03785*
X00546Y03783*
X00548*
X0055Y03781*
X005Y03777D02*
X00504Y03781D01*
X00508*
X00504Y03785*
X00508Y03789*
X00504*
X005Y03793*
X00496Y03789*
X00492*
X00496Y03785*
X00492Y03781*
X00496*
X005Y03777*
Y03781D02*
X00502Y03783D01*
X00504*
X00502Y03785*
X00504Y03787*
X00502*
X005Y03789*
X00498Y03787*
X00496*
X00498Y03785*
X00496Y03783*
X00498*
X005Y03781*
X0045Y03777D02*
X00454Y03781D01*
X00458*
X00454Y03785*
X00458Y03789*
X00454*
X0045Y03793*
X00446Y03789*
X00442*
X00446Y03785*
X00442Y03781*
X00446*
X0045Y03777*
Y03781D02*
X00452Y03783D01*
X00454*
X00452Y03785*
X00454Y03787*
X00452*
X0045Y03789*
X00448Y03787*
X00446*
X00448Y03785*
X00446Y03783*
X00448*
X0045Y03781*
X004Y03777D02*
X00404Y03781D01*
X00408*
X00404Y03785*
X00408Y03789*
X00404*
X004Y03793*
X00396Y03789*
X00392*
X00396Y03785*
X00392Y03781*
X00396*
X004Y03777*
Y03781D02*
X00402Y03783D01*
X00404*
X00402Y03785*
X00404Y03787*
X00402*
X004Y03789*
X00398Y03787*
X00396*
X00398Y03785*
X00396Y03783*
X00398*
X004Y03781*
X0035Y03777D02*
X00354Y03781D01*
X00358*
X00354Y03785*
X00358Y03789*
X00354*
X0035Y03793*
X00346Y03789*
X00342*
X00346Y03785*
X00342Y03781*
X00346*
X0035Y03777*
Y03781D02*
X00352Y03783D01*
X00354*
X00352Y03785*
X00354Y03787*
X00352*
X0035Y03789*
X00348Y03787*
X00346*
X00348Y03785*
X00346Y03783*
X00348*
X0035Y03781*
X003Y03777D02*
X00304Y03781D01*
X00308*
X00304Y03785*
X00308Y03789*
X00304*
X003Y03793*
X00296Y03789*
X00292*
X00296Y03785*
X00292Y03781*
X00296*
X003Y03777*
Y03781D02*
X00302Y03783D01*
X00304*
X00302Y03785*
X00304Y03787*
X00302*
X003Y03789*
X00298Y03787*
X00296*
X00298Y03785*
X00296Y03783*
X00298*
X003Y03781*
X0025Y03777D02*
X00254Y03781D01*
X00258*
X00254Y03785*
X00258Y03789*
X00254*
X0025Y03793*
X00246Y03789*
X00242*
X00246Y03785*
X00242Y03781*
X00246*
X0025Y03777*
Y03781D02*
X00252Y03783D01*
X00254*
X00252Y03785*
X00254Y03787*
X00252*
X0025Y03789*
X00248Y03787*
X00246*
X00248Y03785*
X00246Y03783*
X00248*
X0025Y03781*
X002Y03777D02*
X00204Y03781D01*
X00208*
X00204Y03785*
X00208Y03789*
X00204*
X002Y03793*
X00196Y03789*
X00192*
X00196Y03785*
X00192Y03781*
X00196*
X002Y03777*
Y03781D02*
X00202Y03783D01*
X00204*
X00202Y03785*
X00204Y03787*
X00202*
X002Y03789*
X00198Y03787*
X00196*
X00198Y03785*
X00196Y03783*
X00198*
X002Y03781*
X0015Y03777D02*
X00154Y03781D01*
X00158*
X00154Y03785*
X00158Y03789*
X00154*
X0015Y03793*
X00146Y03789*
X00142*
X00146Y03785*
X00142Y03781*
X00146*
X0015Y03777*
Y03781D02*
X00152Y03783D01*
X00154*
X00152Y03785*
X00154Y03787*
X00152*
X0015Y03789*
X00148Y03787*
X00146*
X00148Y03785*
X00146Y03783*
X00148*
X0015Y03781*
X001Y03777D02*
X00104Y03781D01*
X00108*
X00104Y03785*
X00108Y03789*
X00104*
X001Y03793*
X00096Y03789*
X00092*
X00096Y03785*
X00092Y03781*
X00096*
X001Y03777*
Y03781D02*
X00102Y03783D01*
X00104*
X00102Y03785*
X00104Y03787*
X00102*
X001Y03789*
X00098Y03787*
X00096*
X00098Y03785*
X00096Y03783*
X00098*
X001Y03781*
X0005Y03777D02*
X00054Y03781D01*
X00058*
X00054Y03785*
X00058Y03789*
X00054*
X0005Y03793*
X00046Y03789*
X00042*
X00046Y03785*
X00042Y03781*
X00046*
X0005Y03777*
Y03781D02*
X00052Y03783D01*
X00054*
X00052Y03785*
X00054Y03787*
X00052*
X0005Y03789*
X00048Y03787*
X00046*
X00048Y03785*
X00046Y03783*
X00048*
X0005Y03781*
X0055Y03727D02*
X00554Y03731D01*
X00558*
X00554Y03735*
X00558Y03739*
X00554*
X0055Y03743*
X00546Y03739*
X00542*
X00546Y03735*
X00542Y03731*
X00546*
X0055Y03727*
Y03731D02*
X00552Y03733D01*
X00554*
X00552Y03735*
X00554Y03737*
X00552*
X0055Y03739*
X00548Y03737*
X00546*
X00548Y03735*
X00546Y03733*
X00548*
X0055Y03731*
X005Y03727D02*
X00504Y03731D01*
X00508*
X00504Y03735*
X00508Y03739*
X00504*
X005Y03743*
X00496Y03739*
X00492*
X00496Y03735*
X00492Y03731*
X00496*
X005Y03727*
Y03731D02*
X00502Y03733D01*
X00504*
X00502Y03735*
X00504Y03737*
X00502*
X005Y03739*
X00498Y03737*
X00496*
X00498Y03735*
X00496Y03733*
X00498*
X005Y03731*
X0045Y03727D02*
X00454Y03731D01*
X00458*
X00454Y03735*
X00458Y03739*
X00454*
X0045Y03743*
X00446Y03739*
X00442*
X00446Y03735*
X00442Y03731*
X00446*
X0045Y03727*
Y03731D02*
X00452Y03733D01*
X00454*
X00452Y03735*
X00454Y03737*
X00452*
X0045Y03739*
X00448Y03737*
X00446*
X00448Y03735*
X00446Y03733*
X00448*
X0045Y03731*
X004Y03727D02*
X00404Y03731D01*
X00408*
X00404Y03735*
X00408Y03739*
X00404*
X004Y03743*
X00396Y03739*
X00392*
X00396Y03735*
X00392Y03731*
X00396*
X004Y03727*
Y03731D02*
X00402Y03733D01*
X00404*
X00402Y03735*
X00404Y03737*
X00402*
X004Y03739*
X00398Y03737*
X00396*
X00398Y03735*
X00396Y03733*
X00398*
X004Y03731*
X0035Y03727D02*
X00354Y03731D01*
X00358*
X00354Y03735*
X00358Y03739*
X00354*
X0035Y03743*
X00346Y03739*
X00342*
X00346Y03735*
X00342Y03731*
X00346*
X0035Y03727*
Y03731D02*
X00352Y03733D01*
X00354*
X00352Y03735*
X00354Y03737*
X00352*
X0035Y03739*
X00348Y03737*
X00346*
X00348Y03735*
X00346Y03733*
X00348*
X0035Y03731*
X003Y03727D02*
X00304Y03731D01*
X00308*
X00304Y03735*
X00308Y03739*
X00304*
X003Y03743*
X00296Y03739*
X00292*
X00296Y03735*
X00292Y03731*
X00296*
X003Y03727*
Y03731D02*
X00302Y03733D01*
X00304*
X00302Y03735*
X00304Y03737*
X00302*
X003Y03739*
X00298Y03737*
X00296*
X00298Y03735*
X00296Y03733*
X00298*
X003Y03731*
X0025Y03727D02*
X00254Y03731D01*
X00258*
X00254Y03735*
X00258Y03739*
X00254*
X0025Y03743*
X00246Y03739*
X00242*
X00246Y03735*
X00242Y03731*
X00246*
X0025Y03727*
Y03731D02*
X00252Y03733D01*
X00254*
X00252Y03735*
X00254Y03737*
X00252*
X0025Y03739*
X00248Y03737*
X00246*
X00248Y03735*
X00246Y03733*
X00248*
X0025Y03731*
X002Y03727D02*
X00204Y03731D01*
X00208*
X00204Y03735*
X00208Y03739*
X00204*
X002Y03743*
X00196Y03739*
X00192*
X00196Y03735*
X00192Y03731*
X00196*
X002Y03727*
Y03731D02*
X00202Y03733D01*
X00204*
X00202Y03735*
X00204Y03737*
X00202*
X002Y03739*
X00198Y03737*
X00196*
X00198Y03735*
X00196Y03733*
X00198*
X002Y03731*
X0015Y03727D02*
X00154Y03731D01*
X00158*
X00154Y03735*
X00158Y03739*
X00154*
X0015Y03743*
X00146Y03739*
X00142*
X00146Y03735*
X00142Y03731*
X00146*
X0015Y03727*
Y03731D02*
X00152Y03733D01*
X00154*
X00152Y03735*
X00154Y03737*
X00152*
X0015Y03739*
X00148Y03737*
X00146*
X00148Y03735*
X00146Y03733*
X00148*
X0015Y03731*
X001Y03727D02*
X00104Y03731D01*
X00108*
X00104Y03735*
X00108Y03739*
X00104*
X001Y03743*
X00096Y03739*
X00092*
X00096Y03735*
X00092Y03731*
X00096*
X001Y03727*
Y03731D02*
X00102Y03733D01*
X00104*
X00102Y03735*
X00104Y03737*
X00102*
X001Y03739*
X00098Y03737*
X00096*
X00098Y03735*
X00096Y03733*
X00098*
X001Y03731*
X0005Y03727D02*
X00054Y03731D01*
X00058*
X00054Y03735*
X00058Y03739*
X00054*
X0005Y03743*
X00046Y03739*
X00042*
X00046Y03735*
X00042Y03731*
X00046*
X0005Y03727*
Y03731D02*
X00052Y03733D01*
X00054*
X00052Y03735*
X00054Y03737*
X00052*
X0005Y03739*
X00048Y03737*
X00046*
X00048Y03735*
X00046Y03733*
X00048*
X0005Y03731*
X0055Y03677D02*
X00554Y03681D01*
X00558*
X00554Y03685*
X00558Y03689*
X00554*
X0055Y03693*
X00546Y03689*
X00542*
X00546Y03685*
X00542Y03681*
X00546*
X0055Y03677*
Y03681D02*
X00552Y03683D01*
X00554*
X00552Y03685*
X00554Y03687*
X00552*
X0055Y03689*
X00548Y03687*
X00546*
X00548Y03685*
X00546Y03683*
X00548*
X0055Y03681*
X005Y03677D02*
X00504Y03681D01*
X00508*
X00504Y03685*
X00508Y03689*
X00504*
X005Y03693*
X00496Y03689*
X00492*
X00496Y03685*
X00492Y03681*
X00496*
X005Y03677*
Y03681D02*
X00502Y03683D01*
X00504*
X00502Y03685*
X00504Y03687*
X00502*
X005Y03689*
X00498Y03687*
X00496*
X00498Y03685*
X00496Y03683*
X00498*
X005Y03681*
X0045Y03677D02*
X00454Y03681D01*
X00458*
X00454Y03685*
X00458Y03689*
X00454*
X0045Y03693*
X00446Y03689*
X00442*
X00446Y03685*
X00442Y03681*
X00446*
X0045Y03677*
Y03681D02*
X00452Y03683D01*
X00454*
X00452Y03685*
X00454Y03687*
X00452*
X0045Y03689*
X00448Y03687*
X00446*
X00448Y03685*
X00446Y03683*
X00448*
X0045Y03681*
X004Y03677D02*
X00404Y03681D01*
X00408*
X00404Y03685*
X00408Y03689*
X00404*
X004Y03693*
X00396Y03689*
X00392*
X00396Y03685*
X00392Y03681*
X00396*
X004Y03677*
Y03681D02*
X00402Y03683D01*
X00404*
X00402Y03685*
X00404Y03687*
X00402*
X004Y03689*
X00398Y03687*
X00396*
X00398Y03685*
X00396Y03683*
X00398*
X004Y03681*
X0035Y03677D02*
X00354Y03681D01*
X00358*
X00354Y03685*
X00358Y03689*
X00354*
X0035Y03693*
X00346Y03689*
X00342*
X00346Y03685*
X00342Y03681*
X00346*
X0035Y03677*
Y03681D02*
X00352Y03683D01*
X00354*
X00352Y03685*
X00354Y03687*
X00352*
X0035Y03689*
X00348Y03687*
X00346*
X00348Y03685*
X00346Y03683*
X00348*
X0035Y03681*
X003Y03677D02*
X00304Y03681D01*
X00308*
X00304Y03685*
X00308Y03689*
X00304*
X003Y03693*
X00296Y03689*
X00292*
X00296Y03685*
X00292Y03681*
X00296*
X003Y03677*
Y03681D02*
X00302Y03683D01*
X00304*
X00302Y03685*
X00304Y03687*
X00302*
X003Y03689*
X00298Y03687*
X00296*
X00298Y03685*
X00296Y03683*
X00298*
X003Y03681*
X0025Y03677D02*
X00254Y03681D01*
X00258*
X00254Y03685*
X00258Y03689*
X00254*
X0025Y03693*
X00246Y03689*
X00242*
X00246Y03685*
X00242Y03681*
X00246*
X0025Y03677*
Y03681D02*
X00252Y03683D01*
X00254*
X00252Y03685*
X00254Y03687*
X00252*
X0025Y03689*
X00248Y03687*
X00246*
X00248Y03685*
X00246Y03683*
X00248*
X0025Y03681*
X002Y03677D02*
X00204Y03681D01*
X00208*
X00204Y03685*
X00208Y03689*
X00204*
X002Y03693*
X00196Y03689*
X00192*
X00196Y03685*
X00192Y03681*
X00196*
X002Y03677*
Y03681D02*
X00202Y03683D01*
X00204*
X00202Y03685*
X00204Y03687*
X00202*
X002Y03689*
X00198Y03687*
X00196*
X00198Y03685*
X00196Y03683*
X00198*
X002Y03681*
X0015Y03677D02*
X00154Y03681D01*
X00158*
X00154Y03685*
X00158Y03689*
X00154*
X0015Y03693*
X00146Y03689*
X00142*
X00146Y03685*
X00142Y03681*
X00146*
X0015Y03677*
Y03681D02*
X00152Y03683D01*
X00154*
X00152Y03685*
X00154Y03687*
X00152*
X0015Y03689*
X00148Y03687*
X00146*
X00148Y03685*
X00146Y03683*
X00148*
X0015Y03681*
X001Y03677D02*
X00104Y03681D01*
X00108*
X00104Y03685*
X00108Y03689*
X00104*
X001Y03693*
X00096Y03689*
X00092*
X00096Y03685*
X00092Y03681*
X00096*
X001Y03677*
Y03681D02*
X00102Y03683D01*
X00104*
X00102Y03685*
X00104Y03687*
X00102*
X001Y03689*
X00098Y03687*
X00096*
X00098Y03685*
X00096Y03683*
X00098*
X001Y03681*
X0005Y03677D02*
X00054Y03681D01*
X00058*
X00054Y03685*
X00058Y03689*
X00054*
X0005Y03693*
X00046Y03689*
X00042*
X00046Y03685*
X00042Y03681*
X00046*
X0005Y03677*
Y03681D02*
X00052Y03683D01*
X00054*
X00052Y03685*
X00054Y03687*
X00052*
X0005Y03689*
X00048Y03687*
X00046*
X00048Y03685*
X00046Y03683*
X00048*
X0005Y03681*
X0055Y03627D02*
X00554Y03631D01*
X00558*
X00554Y03635*
X00558Y03639*
X00554*
X0055Y03643*
X00546Y03639*
X00542*
X00546Y03635*
X00542Y03631*
X00546*
X0055Y03627*
Y03631D02*
X00552Y03633D01*
X00554*
X00552Y03635*
X00554Y03637*
X00552*
X0055Y03639*
X00548Y03637*
X00546*
X00548Y03635*
X00546Y03633*
X00548*
X0055Y03631*
X005Y03627D02*
X00504Y03631D01*
X00508*
X00504Y03635*
X00508Y03639*
X00504*
X005Y03643*
X00496Y03639*
X00492*
X00496Y03635*
X00492Y03631*
X00496*
X005Y03627*
Y03631D02*
X00502Y03633D01*
X00504*
X00502Y03635*
X00504Y03637*
X00502*
X005Y03639*
X00498Y03637*
X00496*
X00498Y03635*
X00496Y03633*
X00498*
X005Y03631*
X0045Y03627D02*
X00454Y03631D01*
X00458*
X00454Y03635*
X00458Y03639*
X00454*
X0045Y03643*
X00446Y03639*
X00442*
X00446Y03635*
X00442Y03631*
X00446*
X0045Y03627*
Y03631D02*
X00452Y03633D01*
X00454*
X00452Y03635*
X00454Y03637*
X00452*
X0045Y03639*
X00448Y03637*
X00446*
X00448Y03635*
X00446Y03633*
X00448*
X0045Y03631*
X004Y03627D02*
X00404Y03631D01*
X00408*
X00404Y03635*
X00408Y03639*
X00404*
X004Y03643*
X00396Y03639*
X00392*
X00396Y03635*
X00392Y03631*
X00396*
X004Y03627*
Y03631D02*
X00402Y03633D01*
X00404*
X00402Y03635*
X00404Y03637*
X00402*
X004Y03639*
X00398Y03637*
X00396*
X00398Y03635*
X00396Y03633*
X00398*
X004Y03631*
X0035Y03627D02*
X00354Y03631D01*
X00358*
X00354Y03635*
X00358Y03639*
X00354*
X0035Y03643*
X00346Y03639*
X00342*
X00346Y03635*
X00342Y03631*
X00346*
X0035Y03627*
Y03631D02*
X00352Y03633D01*
X00354*
X00352Y03635*
X00354Y03637*
X00352*
X0035Y03639*
X00348Y03637*
X00346*
X00348Y03635*
X00346Y03633*
X00348*
X0035Y03631*
X003Y03627D02*
X00304Y03631D01*
X00308*
X00304Y03635*
X00308Y03639*
X00304*
X003Y03643*
X00296Y03639*
X00292*
X00296Y03635*
X00292Y03631*
X00296*
X003Y03627*
Y03631D02*
X00302Y03633D01*
X00304*
X00302Y03635*
X00304Y03637*
X00302*
X003Y03639*
X00298Y03637*
X00296*
X00298Y03635*
X00296Y03633*
X00298*
X003Y03631*
X0025Y03627D02*
X00254Y03631D01*
X00258*
X00254Y03635*
X00258Y03639*
X00254*
X0025Y03643*
X00246Y03639*
X00242*
X00246Y03635*
X00242Y03631*
X00246*
X0025Y03627*
Y03631D02*
X00252Y03633D01*
X00254*
X00252Y03635*
X00254Y03637*
X00252*
X0025Y03639*
X00248Y03637*
X00246*
X00248Y03635*
X00246Y03633*
X00248*
X0025Y03631*
X002Y03627D02*
X00204Y03631D01*
X00208*
X00204Y03635*
X00208Y03639*
X00204*
X002Y03643*
X00196Y03639*
X00192*
X00196Y03635*
X00192Y03631*
X00196*
X002Y03627*
Y03631D02*
X00202Y03633D01*
X00204*
X00202Y03635*
X00204Y03637*
X00202*
X002Y03639*
X00198Y03637*
X00196*
X00198Y03635*
X00196Y03633*
X00198*
X002Y03631*
X0015Y03627D02*
X00154Y03631D01*
X00158*
X00154Y03635*
X00158Y03639*
X00154*
X0015Y03643*
X00146Y03639*
X00142*
X00146Y03635*
X00142Y03631*
X00146*
X0015Y03627*
Y03631D02*
X00152Y03633D01*
X00154*
X00152Y03635*
X00154Y03637*
X00152*
X0015Y03639*
X00148Y03637*
X00146*
X00148Y03635*
X00146Y03633*
X00148*
X0015Y03631*
X001Y03627D02*
X00104Y03631D01*
X00108*
X00104Y03635*
X00108Y03639*
X00104*
X001Y03643*
X00096Y03639*
X00092*
X00096Y03635*
X00092Y03631*
X00096*
X001Y03627*
Y03631D02*
X00102Y03633D01*
X00104*
X00102Y03635*
X00104Y03637*
X00102*
X001Y03639*
X00098Y03637*
X00096*
X00098Y03635*
X00096Y03633*
X00098*
X001Y03631*
X0005Y03627D02*
X00054Y03631D01*
X00058*
X00054Y03635*
X00058Y03639*
X00054*
X0005Y03643*
X00046Y03639*
X00042*
X00046Y03635*
X00042Y03631*
X00046*
X0005Y03627*
Y03631D02*
X00052Y03633D01*
X00054*
X00052Y03635*
X00054Y03637*
X00052*
X0005Y03639*
X00048Y03637*
X00046*
X00048Y03635*
X00046Y03633*
X00048*
X0005Y03631*
X01485Y01108D02*
X01489Y01112D01*
X01493*
X01489Y01116*
X01493Y0112*
X01489*
X01485Y01124*
X01481Y0112*
X01477*
X01481Y01116*
X01477Y01112*
X01481*
X01485Y01108*
Y01112D02*
X01487Y01114D01*
X01489*
X01487Y01116*
X01489Y01118*
X01487*
X01485Y0112*
X01483Y01118*
X01481*
X01483Y01116*
X01481Y01114*
X01483*
X01485Y01112*
X0163Y01327D02*
X01634Y01331D01*
X01638*
X01634Y01335*
X01638Y01339*
X01634*
X0163Y01343*
X01626Y01339*
X01622*
X01626Y01335*
X01622Y01331*
X01626*
X0163Y01327*
Y01331D02*
X01632Y01333D01*
X01634*
X01632Y01335*
X01634Y01337*
X01632*
X0163Y01339*
X01628Y01337*
X01626*
X01628Y01335*
X01626Y01333*
X01628*
X0163Y01331*
X0184Y00897D02*
X01832Y00913D01*
X01848*
X0184Y00897*
Y00901D02*
X01836Y00909D01*
X01844*
X0184Y00901*
X01648Y00896D02*
X0164Y00912D01*
X01656*
X01648Y00896*
Y009D02*
X01644Y00908D01*
X01652*
X01648Y009*
X02066Y00897D02*
X02058Y00913D01*
X02074*
X02066Y00897*
Y00901D02*
X02062Y00909D01*
X0207*
X02066Y00901*
X02276Y00897D02*
X02268Y00913D01*
X02284*
X02276Y00897*
Y00901D02*
X02272Y00909D01*
X0228*
X02276Y00901*
X01857Y00797D02*
X01861Y00801D01*
X01865*
X01861Y00805*
X01865Y00809*
X01861*
X01857Y00813*
X01853Y00809*
X01849*
X01853Y00805*
X01849Y00801*
X01853*
X01857Y00797*
Y00801D02*
X01859Y00803D01*
X01861*
X01859Y00805*
X01861Y00807*
X01859*
X01857Y00809*
X01855Y00807*
X01853*
X01855Y00805*
X01853Y00803*
X01855*
X01857Y00801*
X01965Y00707D02*
X01969Y00711D01*
X01973*
X01969Y00715*
X01973Y00719*
X01969*
X01965Y00723*
X01961Y00719*
X01957*
X01961Y00715*
X01957Y00711*
X01961*
X01965Y00707*
Y00711D02*
X01967Y00713D01*
X01969*
X01967Y00715*
X01969Y00717*
X01967*
X01965Y00719*
X01963Y00717*
X01961*
X01963Y00715*
X01961Y00713*
X01963*
X01965Y00711*
X0217Y00372D02*
X02162Y00388D01*
X02178*
X0217Y00372*
Y00376D02*
X02166Y00384D01*
X02174*
X0217Y00376*
X01518Y00372D02*
X0151Y00388D01*
X01526*
X01518Y00372*
Y00376D02*
X01514Y00384D01*
X01522*
X01518Y00376*
X02515Y00706D02*
X02519Y0071D01*
X02523*
X02519Y00714*
X02523Y00718*
X02519*
X02515Y00722*
X02511Y00718*
X02507*
X02511Y00714*
X02507Y0071*
X02511*
X02515Y00706*
Y0071D02*
X02517Y00712D01*
X02519*
X02517Y00714*
X02519Y00716*
X02517*
X02515Y00718*
X02513Y00716*
X02511*
X02513Y00714*
X02511Y00712*
X02513*
X02515Y0071*
X02685Y04227D02*
X02689Y04231D01*
X02693*
X02689Y04235*
X02693Y04239*
X02689*
X02685Y04243*
X02681Y04239*
X02677*
X02681Y04235*
X02677Y04231*
X02681*
X02685Y04227*
Y04231D02*
X02687Y04233D01*
X02689*
X02687Y04235*
X02689Y04237*
X02687*
X02685Y04239*
X02683Y04237*
X02681*
X02683Y04235*
X02681Y04233*
X02683*
X02685Y04231*
X02633Y04177D02*
X02637Y04181D01*
X02641*
X02637Y04185*
X02641Y04189*
X02637*
X02633Y04193*
X02629Y04189*
X02625*
X02629Y04185*
X02625Y04181*
X02629*
X02633Y04177*
Y04181D02*
X02635Y04183D01*
X02637*
X02635Y04185*
X02637Y04187*
X02635*
X02633Y04189*
X02631Y04187*
X02629*
X02631Y04185*
X02629Y04183*
X02631*
X02633Y04181*
X02049Y00702D02*
X02041Y00718D01*
X02057*
X02049Y00702*
Y00706D02*
X02045Y00714D01*
X02053*
X02049Y00706*
X01585Y00712D02*
X01577Y00728D01*
X01593*
X01585Y00712*
Y00716D02*
X01581Y00724D01*
X01589*
X01585Y00716*
X0201Y00532D02*
X02002Y00548D01*
X02018*
X0201Y00532*
Y00536D02*
X02006Y00544D01*
X02014*
X0201Y00536*
X01995Y00466D02*
X01987Y00482D01*
X02003*
X01995Y00466*
Y0047D02*
X01991Y00478D01*
X01999*
X01995Y0047*
X01445Y00469D02*
X01437Y00485D01*
X01453*
X01445Y00469*
Y00473D02*
X01441Y00481D01*
X01449*
X01445Y00473*
X0257Y00462D02*
X02562Y00478D01*
X02578*
X0257Y00462*
Y00466D02*
X02566Y00474D01*
X02574*
X0257Y00466*
X0188Y00447D02*
X01872Y00463D01*
X01888*
X0188Y00447*
Y00451D02*
X01876Y00459D01*
X01884*
X0188Y00451*
X02465Y00452D02*
X02457Y00468D01*
X02473*
X02465Y00452*
Y00456D02*
X02461Y00464D01*
X02469*
X02465Y00456*
X00965Y01498D02*
X00969Y01502D01*
X00973*
X00969Y01506*
X00973Y0151*
X00969*
X00965Y01514*
X00961Y0151*
X00957*
X00961Y01506*
X00957Y01502*
X00961*
X00965Y01498*
Y01502D02*
X00967Y01504D01*
X00969*
X00967Y01506*
X00969Y01508*
X00967*
X00965Y0151*
X00963Y01508*
X00961*
X00963Y01506*
X00961Y01504*
X00963*
X00965Y01502*
X00745Y01797D02*
X00749Y01801D01*
X00753*
X00749Y01805*
X00753Y01809*
X00749*
X00745Y01813*
X00741Y01809*
X00737*
X00741Y01805*
X00737Y01801*
X00741*
X00745Y01797*
Y01801D02*
X00747Y01803D01*
X00749*
X00747Y01805*
X00749Y01807*
X00747*
X00745Y01809*
X00743Y01807*
X00741*
X00743Y01805*
X00741Y01803*
X00743*
X00745Y01801*
X00795Y01797D02*
X00799Y01801D01*
X00803*
X00799Y01805*
X00803Y01809*
X00799*
X00795Y01813*
X00791Y01809*
X00787*
X00791Y01805*
X00787Y01801*
X00791*
X00795Y01797*
Y01801D02*
X00797Y01803D01*
X00799*
X00797Y01805*
X00799Y01807*
X00797*
X00795Y01809*
X00793Y01807*
X00791*
X00793Y01805*
X00791Y01803*
X00793*
X00795Y01801*
X00845Y01797D02*
X00849Y01801D01*
X00853*
X00849Y01805*
X00853Y01809*
X00849*
X00845Y01813*
X00841Y01809*
X00837*
X00841Y01805*
X00837Y01801*
X00841*
X00845Y01797*
Y01801D02*
X00847Y01803D01*
X00849*
X00847Y01805*
X00849Y01807*
X00847*
X00845Y01809*
X00843Y01807*
X00841*
X00843Y01805*
X00841Y01803*
X00843*
X00845Y01801*
X00895Y01797D02*
X00899Y01801D01*
X00903*
X00899Y01805*
X00903Y01809*
X00899*
X00895Y01813*
X00891Y01809*
X00887*
X00891Y01805*
X00887Y01801*
X00891*
X00895Y01797*
Y01801D02*
X00897Y01803D01*
X00899*
X00897Y01805*
X00899Y01807*
X00897*
X00895Y01809*
X00893Y01807*
X00891*
X00893Y01805*
X00891Y01803*
X00893*
X00895Y01801*
X00945Y01797D02*
X00949Y01801D01*
X00953*
X00949Y01805*
X00953Y01809*
X00949*
X00945Y01813*
X00941Y01809*
X00937*
X00941Y01805*
X00937Y01801*
X00941*
X00945Y01797*
Y01801D02*
X00947Y01803D01*
X00949*
X00947Y01805*
X00949Y01807*
X00947*
X00945Y01809*
X00943Y01807*
X00941*
X00943Y01805*
X00941Y01803*
X00943*
X00945Y01801*
X00995Y01797D02*
X00999Y01801D01*
X01003*
X00999Y01805*
X01003Y01809*
X00999*
X00995Y01813*
X00991Y01809*
X00987*
X00991Y01805*
X00987Y01801*
X00991*
X00995Y01797*
Y01801D02*
X00997Y01803D01*
X00999*
X00997Y01805*
X00999Y01807*
X00997*
X00995Y01809*
X00993Y01807*
X00991*
X00993Y01805*
X00991Y01803*
X00993*
X00995Y01801*
X00745Y01747D02*
X00749Y01751D01*
X00753*
X00749Y01755*
X00753Y01759*
X00749*
X00745Y01763*
X00741Y01759*
X00737*
X00741Y01755*
X00737Y01751*
X00741*
X00745Y01747*
Y01751D02*
X00747Y01753D01*
X00749*
X00747Y01755*
X00749Y01757*
X00747*
X00745Y01759*
X00743Y01757*
X00741*
X00743Y01755*
X00741Y01753*
X00743*
X00745Y01751*
X00795Y01747D02*
X00799Y01751D01*
X00803*
X00799Y01755*
X00803Y01759*
X00799*
X00795Y01763*
X00791Y01759*
X00787*
X00791Y01755*
X00787Y01751*
X00791*
X00795Y01747*
Y01751D02*
X00797Y01753D01*
X00799*
X00797Y01755*
X00799Y01757*
X00797*
X00795Y01759*
X00793Y01757*
X00791*
X00793Y01755*
X00791Y01753*
X00793*
X00795Y01751*
X00845Y01747D02*
X00849Y01751D01*
X00853*
X00849Y01755*
X00853Y01759*
X00849*
X00845Y01763*
X00841Y01759*
X00837*
X00841Y01755*
X00837Y01751*
X00841*
X00845Y01747*
Y01751D02*
X00847Y01753D01*
X00849*
X00847Y01755*
X00849Y01757*
X00847*
X00845Y01759*
X00843Y01757*
X00841*
X00843Y01755*
X00841Y01753*
X00843*
X00845Y01751*
X00895Y01747D02*
X00899Y01751D01*
X00903*
X00899Y01755*
X00903Y01759*
X00899*
X00895Y01763*
X00891Y01759*
X00887*
X00891Y01755*
X00887Y01751*
X00891*
X00895Y01747*
Y01751D02*
X00897Y01753D01*
X00899*
X00897Y01755*
X00899Y01757*
X00897*
X00895Y01759*
X00893Y01757*
X00891*
X00893Y01755*
X00891Y01753*
X00893*
X00895Y01751*
X00945Y01747D02*
X00949Y01751D01*
X00953*
X00949Y01755*
X00953Y01759*
X00949*
X00945Y01763*
X00941Y01759*
X00937*
X00941Y01755*
X00937Y01751*
X00941*
X00945Y01747*
Y01751D02*
X00947Y01753D01*
X00949*
X00947Y01755*
X00949Y01757*
X00947*
X00945Y01759*
X00943Y01757*
X00941*
X00943Y01755*
X00941Y01753*
X00943*
X00945Y01751*
X00995Y01747D02*
X00999Y01751D01*
X01003*
X00999Y01755*
X01003Y01759*
X00999*
X00995Y01763*
X00991Y01759*
X00987*
X00991Y01755*
X00987Y01751*
X00991*
X00995Y01747*
Y01751D02*
X00997Y01753D01*
X00999*
X00997Y01755*
X00999Y01757*
X00997*
X00995Y01759*
X00993Y01757*
X00991*
X00993Y01755*
X00991Y01753*
X00993*
X00995Y01751*
X00745Y01697D02*
X00749Y01701D01*
X00753*
X00749Y01705*
X00753Y01709*
X00749*
X00745Y01713*
X00741Y01709*
X00737*
X00741Y01705*
X00737Y01701*
X00741*
X00745Y01697*
Y01701D02*
X00747Y01703D01*
X00749*
X00747Y01705*
X00749Y01707*
X00747*
X00745Y01709*
X00743Y01707*
X00741*
X00743Y01705*
X00741Y01703*
X00743*
X00745Y01701*
X00795Y01697D02*
X00799Y01701D01*
X00803*
X00799Y01705*
X00803Y01709*
X00799*
X00795Y01713*
X00791Y01709*
X00787*
X00791Y01705*
X00787Y01701*
X00791*
X00795Y01697*
Y01701D02*
X00797Y01703D01*
X00799*
X00797Y01705*
X00799Y01707*
X00797*
X00795Y01709*
X00793Y01707*
X00791*
X00793Y01705*
X00791Y01703*
X00793*
X00795Y01701*
X00845Y01697D02*
X00849Y01701D01*
X00853*
X00849Y01705*
X00853Y01709*
X00849*
X00845Y01713*
X00841Y01709*
X00837*
X00841Y01705*
X00837Y01701*
X00841*
X00845Y01697*
Y01701D02*
X00847Y01703D01*
X00849*
X00847Y01705*
X00849Y01707*
X00847*
X00845Y01709*
X00843Y01707*
X00841*
X00843Y01705*
X00841Y01703*
X00843*
X00845Y01701*
X00895Y01697D02*
X00899Y01701D01*
X00903*
X00899Y01705*
X00903Y01709*
X00899*
X00895Y01713*
X00891Y01709*
X00887*
X00891Y01705*
X00887Y01701*
X00891*
X00895Y01697*
Y01701D02*
X00897Y01703D01*
X00899*
X00897Y01705*
X00899Y01707*
X00897*
X00895Y01709*
X00893Y01707*
X00891*
X00893Y01705*
X00891Y01703*
X00893*
X00895Y01701*
X00945Y01697D02*
X00949Y01701D01*
X00953*
X00949Y01705*
X00953Y01709*
X00949*
X00945Y01713*
X00941Y01709*
X00937*
X00941Y01705*
X00937Y01701*
X00941*
X00945Y01697*
Y01701D02*
X00947Y01703D01*
X00949*
X00947Y01705*
X00949Y01707*
X00947*
X00945Y01709*
X00943Y01707*
X00941*
X00943Y01705*
X00941Y01703*
X00943*
X00945Y01701*
X00995Y01697D02*
X00999Y01701D01*
X01003*
X00999Y01705*
X01003Y01709*
X00999*
X00995Y01713*
X00991Y01709*
X00987*
X00991Y01705*
X00987Y01701*
X00991*
X00995Y01697*
Y01701D02*
X00997Y01703D01*
X00999*
X00997Y01705*
X00999Y01707*
X00997*
X00995Y01709*
X00993Y01707*
X00991*
X00993Y01705*
X00991Y01703*
X00993*
X00995Y01701*
X00745Y01647D02*
X00749Y01651D01*
X00753*
X00749Y01655*
X00753Y01659*
X00749*
X00745Y01663*
X00741Y01659*
X00737*
X00741Y01655*
X00737Y01651*
X00741*
X00745Y01647*
Y01651D02*
X00747Y01653D01*
X00749*
X00747Y01655*
X00749Y01657*
X00747*
X00745Y01659*
X00743Y01657*
X00741*
X00743Y01655*
X00741Y01653*
X00743*
X00745Y01651*
X00795Y01647D02*
X00799Y01651D01*
X00803*
X00799Y01655*
X00803Y01659*
X00799*
X00795Y01663*
X00791Y01659*
X00787*
X00791Y01655*
X00787Y01651*
X00791*
X00795Y01647*
Y01651D02*
X00797Y01653D01*
X00799*
X00797Y01655*
X00799Y01657*
X00797*
X00795Y01659*
X00793Y01657*
X00791*
X00793Y01655*
X00791Y01653*
X00793*
X00795Y01651*
X00845Y01647D02*
X00849Y01651D01*
X00853*
X00849Y01655*
X00853Y01659*
X00849*
X00845Y01663*
X00841Y01659*
X00837*
X00841Y01655*
X00837Y01651*
X00841*
X00845Y01647*
Y01651D02*
X00847Y01653D01*
X00849*
X00847Y01655*
X00849Y01657*
X00847*
X00845Y01659*
X00843Y01657*
X00841*
X00843Y01655*
X00841Y01653*
X00843*
X00845Y01651*
X00895Y01647D02*
X00899Y01651D01*
X00903*
X00899Y01655*
X00903Y01659*
X00899*
X00895Y01663*
X00891Y01659*
X00887*
X00891Y01655*
X00887Y01651*
X00891*
X00895Y01647*
Y01651D02*
X00897Y01653D01*
X00899*
X00897Y01655*
X00899Y01657*
X00897*
X00895Y01659*
X00893Y01657*
X00891*
X00893Y01655*
X00891Y01653*
X00893*
X00895Y01651*
X00945Y01647D02*
X00949Y01651D01*
X00953*
X00949Y01655*
X00953Y01659*
X00949*
X00945Y01663*
X00941Y01659*
X00937*
X00941Y01655*
X00937Y01651*
X00941*
X00945Y01647*
Y01651D02*
X00947Y01653D01*
X00949*
X00947Y01655*
X00949Y01657*
X00947*
X00945Y01659*
X00943Y01657*
X00941*
X00943Y01655*
X00941Y01653*
X00943*
X00945Y01651*
X00995Y01647D02*
X00999Y01651D01*
X01003*
X00999Y01655*
X01003Y01659*
X00999*
X00995Y01663*
X00991Y01659*
X00987*
X00991Y01655*
X00987Y01651*
X00991*
X00995Y01647*
Y01651D02*
X00997Y01653D01*
X00999*
X00997Y01655*
X00999Y01657*
X00997*
X00995Y01659*
X00993Y01657*
X00991*
X00993Y01655*
X00991Y01653*
X00993*
X00995Y01651*
X00695Y01647D02*
X00699Y01651D01*
X00703*
X00699Y01655*
X00703Y01659*
X00699*
X00695Y01663*
X00691Y01659*
X00687*
X00691Y01655*
X00687Y01651*
X00691*
X00695Y01647*
Y01651D02*
X00697Y01653D01*
X00699*
X00697Y01655*
X00699Y01657*
X00697*
X00695Y01659*
X00693Y01657*
X00691*
X00693Y01655*
X00691Y01653*
X00693*
X00695Y01651*
Y01697D02*
X00699Y01701D01*
X00703*
X00699Y01705*
X00703Y01709*
X00699*
X00695Y01713*
X00691Y01709*
X00687*
X00691Y01705*
X00687Y01701*
X00691*
X00695Y01697*
Y01701D02*
X00697Y01703D01*
X00699*
X00697Y01705*
X00699Y01707*
X00697*
X00695Y01709*
X00693Y01707*
X00691*
X00693Y01705*
X00691Y01703*
X00693*
X00695Y01701*
Y01747D02*
X00699Y01751D01*
X00703*
X00699Y01755*
X00703Y01759*
X00699*
X00695Y01763*
X00691Y01759*
X00687*
X00691Y01755*
X00687Y01751*
X00691*
X00695Y01747*
Y01751D02*
X00697Y01753D01*
X00699*
X00697Y01755*
X00699Y01757*
X00697*
X00695Y01759*
X00693Y01757*
X00691*
X00693Y01755*
X00691Y01753*
X00693*
X00695Y01751*
Y01797D02*
X00699Y01801D01*
X00703*
X00699Y01805*
X00703Y01809*
X00699*
X00695Y01813*
X00691Y01809*
X00687*
X00691Y01805*
X00687Y01801*
X00691*
X00695Y01797*
Y01801D02*
X00697Y01803D01*
X00699*
X00697Y01805*
X00699Y01807*
X00697*
X00695Y01809*
X00693Y01807*
X00691*
X00693Y01805*
X00691Y01803*
X00693*
X00695Y01801*
X0088Y01597D02*
X00884Y01601D01*
X00888*
X00884Y01605*
X00888Y01609*
X00884*
X0088Y01613*
X00876Y01609*
X00872*
X00876Y01605*
X00872Y01601*
X00876*
X0088Y01597*
Y01601D02*
X00882Y01603D01*
X00884*
X00882Y01605*
X00884Y01607*
X00882*
X0088Y01609*
X00878Y01607*
X00876*
X00878Y01605*
X00876Y01603*
X00878*
X0088Y01601*
X0083Y01597D02*
X00834Y01601D01*
X00838*
X00834Y01605*
X00838Y01609*
X00834*
X0083Y01613*
X00826Y01609*
X00822*
X00826Y01605*
X00822Y01601*
X00826*
X0083Y01597*
Y01601D02*
X00832Y01603D01*
X00834*
X00832Y01605*
X00834Y01607*
X00832*
X0083Y01609*
X00828Y01607*
X00826*
X00828Y01605*
X00826Y01603*
X00828*
X0083Y01601*
X0078Y01597D02*
X00784Y01601D01*
X00788*
X00784Y01605*
X00788Y01609*
X00784*
X0078Y01613*
X00776Y01609*
X00772*
X00776Y01605*
X00772Y01601*
X00776*
X0078Y01597*
Y01601D02*
X00782Y01603D01*
X00784*
X00782Y01605*
X00784Y01607*
X00782*
X0078Y01609*
X00778Y01607*
X00776*
X00778Y01605*
X00776Y01603*
X00778*
X0078Y01601*
X00895Y01287D02*
X00899Y01291D01*
X00903*
X00899Y01295*
X00903Y01299*
X00899*
X00895Y01303*
X00891Y01299*
X00887*
X00891Y01295*
X00887Y01291*
X00891*
X00895Y01287*
Y01291D02*
X00897Y01293D01*
X00899*
X00897Y01295*
X00899Y01297*
X00897*
X00895Y01299*
X00893Y01297*
X00891*
X00893Y01295*
X00891Y01293*
X00893*
X00895Y01291*
X0108Y03102D02*
X01084Y03106D01*
X01088*
X01084Y0311*
X01088Y03114*
X01084*
X0108Y03118*
X01076Y03114*
X01072*
X01076Y0311*
X01072Y03106*
X01076*
X0108Y03102*
Y03106D02*
X01082Y03108D01*
X01084*
X01082Y0311*
X01084Y03112*
X01082*
X0108Y03114*
X01078Y03112*
X01076*
X01078Y0311*
X01076Y03108*
X01078*
X0108Y03106*
X00569Y03226D02*
X00573Y0323D01*
X00577*
X00573Y03234*
X00577Y03238*
X00573*
X00569Y03242*
X00565Y03238*
X00561*
X00565Y03234*
X00561Y0323*
X00565*
X00569Y03226*
Y0323D02*
X00571Y03232D01*
X00573*
X00571Y03234*
X00573Y03236*
X00571*
X00569Y03238*
X00567Y03236*
X00565*
X00567Y03234*
X00565Y03232*
X00567*
X00569Y0323*
X0073Y03152D02*
X00722Y03168D01*
X00738*
X0073Y03152*
Y03156D02*
X00726Y03164D01*
X00734*
X0073Y03156*
X0126Y02962D02*
X01252Y02978D01*
X01268*
X0126Y02962*
Y02966D02*
X01256Y02974D01*
X01264*
X0126Y02966*
X016Y02435D02*
X01604Y02439D01*
X01608*
X01604Y02443*
X01608Y02447*
X01604*
X016Y02451*
X01596Y02447*
X01592*
X01596Y02443*
X01592Y02439*
X01596*
X016Y02435*
Y02439D02*
X01602Y02441D01*
X01604*
X01602Y02443*
X01604Y02445*
X01602*
X016Y02447*
X01598Y02445*
X01596*
X01598Y02443*
X01596Y02441*
X01598*
X016Y02439*
X0165Y02435D02*
X01654Y02439D01*
X01658*
X01654Y02443*
X01658Y02447*
X01654*
X0165Y02451*
X01646Y02447*
X01642*
X01646Y02443*
X01642Y02439*
X01646*
X0165Y02435*
Y02439D02*
X01652Y02441D01*
X01654*
X01652Y02443*
X01654Y02445*
X01652*
X0165Y02447*
X01648Y02445*
X01646*
X01648Y02443*
X01646Y02441*
X01648*
X0165Y02439*
X017Y02435D02*
X01704Y02439D01*
X01708*
X01704Y02443*
X01708Y02447*
X01704*
X017Y02451*
X01696Y02447*
X01692*
X01696Y02443*
X01692Y02439*
X01696*
X017Y02435*
Y02439D02*
X01702Y02441D01*
X01704*
X01702Y02443*
X01704Y02445*
X01702*
X017Y02447*
X01698Y02445*
X01696*
X01698Y02443*
X01696Y02441*
X01698*
X017Y02439*
X01515Y02535D02*
X01519Y02539D01*
X01523*
X01519Y02543*
X01523Y02547*
X01519*
X01515Y02551*
X01511Y02547*
X01507*
X01511Y02543*
X01507Y02539*
X01511*
X01515Y02535*
Y02539D02*
X01517Y02541D01*
X01519*
X01517Y02543*
X01519Y02545*
X01517*
X01515Y02547*
X01513Y02545*
X01511*
X01513Y02543*
X01511Y02541*
X01513*
X01515Y02539*
Y02485D02*
X01519Y02489D01*
X01523*
X01519Y02493*
X01523Y02497*
X01519*
X01515Y02501*
X01511Y02497*
X01507*
X01511Y02493*
X01507Y02489*
X01511*
X01515Y02485*
Y02489D02*
X01517Y02491D01*
X01519*
X01517Y02493*
X01519Y02495*
X01517*
X01515Y02497*
X01513Y02495*
X01511*
X01513Y02493*
X01511Y02491*
X01513*
X01515Y02489*
X01715Y02485D02*
X01719Y02489D01*
X01723*
X01719Y02493*
X01723Y02497*
X01719*
X01715Y02501*
X01711Y02497*
X01707*
X01711Y02493*
X01707Y02489*
X01711*
X01715Y02485*
Y02489D02*
X01717Y02491D01*
X01719*
X01717Y02493*
X01719Y02495*
X01717*
X01715Y02497*
X01713Y02495*
X01711*
X01713Y02493*
X01711Y02491*
X01713*
X01715Y02489*
X01665Y02485D02*
X01669Y02489D01*
X01673*
X01669Y02493*
X01673Y02497*
X01669*
X01665Y02501*
X01661Y02497*
X01657*
X01661Y02493*
X01657Y02489*
X01661*
X01665Y02485*
Y02489D02*
X01667Y02491D01*
X01669*
X01667Y02493*
X01669Y02495*
X01667*
X01665Y02497*
X01663Y02495*
X01661*
X01663Y02493*
X01661Y02491*
X01663*
X01665Y02489*
X01615Y02485D02*
X01619Y02489D01*
X01623*
X01619Y02493*
X01623Y02497*
X01619*
X01615Y02501*
X01611Y02497*
X01607*
X01611Y02493*
X01607Y02489*
X01611*
X01615Y02485*
Y02489D02*
X01617Y02491D01*
X01619*
X01617Y02493*
X01619Y02495*
X01617*
X01615Y02497*
X01613Y02495*
X01611*
X01613Y02493*
X01611Y02491*
X01613*
X01615Y02489*
X01565Y02485D02*
X01569Y02489D01*
X01573*
X01569Y02493*
X01573Y02497*
X01569*
X01565Y02501*
X01561Y02497*
X01557*
X01561Y02493*
X01557Y02489*
X01561*
X01565Y02485*
Y02489D02*
X01567Y02491D01*
X01569*
X01567Y02493*
X01569Y02495*
X01567*
X01565Y02497*
X01563Y02495*
X01561*
X01563Y02493*
X01561Y02491*
X01563*
X01565Y02489*
X01715Y02535D02*
X01719Y02539D01*
X01723*
X01719Y02543*
X01723Y02547*
X01719*
X01715Y02551*
X01711Y02547*
X01707*
X01711Y02543*
X01707Y02539*
X01711*
X01715Y02535*
Y02539D02*
X01717Y02541D01*
X01719*
X01717Y02543*
X01719Y02545*
X01717*
X01715Y02547*
X01713Y02545*
X01711*
X01713Y02543*
X01711Y02541*
X01713*
X01715Y02539*
X01665Y02535D02*
X01669Y02539D01*
X01673*
X01669Y02543*
X01673Y02547*
X01669*
X01665Y02551*
X01661Y02547*
X01657*
X01661Y02543*
X01657Y02539*
X01661*
X01665Y02535*
Y02539D02*
X01667Y02541D01*
X01669*
X01667Y02543*
X01669Y02545*
X01667*
X01665Y02547*
X01663Y02545*
X01661*
X01663Y02543*
X01661Y02541*
X01663*
X01665Y02539*
X01615Y02535D02*
X01619Y02539D01*
X01623*
X01619Y02543*
X01623Y02547*
X01619*
X01615Y02551*
X01611Y02547*
X01607*
X01611Y02543*
X01607Y02539*
X01611*
X01615Y02535*
Y02539D02*
X01617Y02541D01*
X01619*
X01617Y02543*
X01619Y02545*
X01617*
X01615Y02547*
X01613Y02545*
X01611*
X01613Y02543*
X01611Y02541*
X01613*
X01615Y02539*
X01565Y02535D02*
X01569Y02539D01*
X01573*
X01569Y02543*
X01573Y02547*
X01569*
X01565Y02551*
X01561Y02547*
X01557*
X01561Y02543*
X01557Y02539*
X01561*
X01565Y02535*
Y02539D02*
X01567Y02541D01*
X01569*
X01567Y02543*
X01569Y02545*
X01567*
X01565Y02547*
X01563Y02545*
X01561*
X01563Y02543*
X01561Y02541*
X01563*
X01565Y02539*
X0102Y01582D02*
X01024Y01586D01*
X01028*
X01024Y0159*
X01028Y01594*
X01024*
X0102Y01598*
X01016Y01594*
X01012*
X01016Y0159*
X01012Y01586*
X01016*
X0102Y01582*
Y01586D02*
X01022Y01588D01*
X01024*
X01022Y0159*
X01024Y01592*
X01022*
X0102Y01594*
X01018Y01592*
X01016*
X01018Y0159*
X01016Y01588*
X01018*
X0102Y01586*
X01942Y00847D02*
X01934Y00863D01*
X0195*
X01942Y00847*
Y00851D02*
X01938Y00859D01*
X01946*
X01942Y00851*
X01835Y02232D02*
X01827Y02248D01*
X01843*
X01835Y02232*
Y02236D02*
X01831Y02244D01*
X01839*
X01835Y02236*
X02875Y03292D02*
X02867Y03308D01*
X02883*
X02875Y03292*
Y03296D02*
X02871Y03304D01*
X02879*
X02875Y03296*
Y03192D02*
X02867Y03208D01*
X02883*
X02875Y03192*
Y03196D02*
X02871Y03204D01*
X02879*
X02875Y03196*
Y03092D02*
X02867Y03108D01*
X02883*
X02875Y03092*
Y03096D02*
X02871Y03104D01*
X02879*
X02875Y03096*
Y02992D02*
X02867Y03008D01*
X02883*
X02875Y02992*
Y02996D02*
X02871Y03004D01*
X02879*
X02875Y02996*
Y02892D02*
X02867Y02908D01*
X02883*
X02875Y02892*
Y02896D02*
X02871Y02904D01*
X02879*
X02875Y02896*
Y02792D02*
X02867Y02808D01*
X02883*
X02875Y02792*
Y02796D02*
X02871Y02804D01*
X02879*
X02875Y02796*
Y02292D02*
X02867Y02308D01*
X02883*
X02875Y02292*
Y02296D02*
X02871Y02304D01*
X02879*
X02875Y02296*
Y02392D02*
X02867Y02408D01*
X02883*
X02875Y02392*
Y02396D02*
X02871Y02404D01*
X02879*
X02875Y02396*
Y02492D02*
X02867Y02508D01*
X02883*
X02875Y02492*
Y02496D02*
X02871Y02504D01*
X02879*
X02875Y02496*
Y02592D02*
X02867Y02608D01*
X02883*
X02875Y02592*
Y02596D02*
X02871Y02604D01*
X02879*
X02875Y02596*
Y02692D02*
X02867Y02708D01*
X02883*
X02875Y02692*
Y02696D02*
X02871Y02704D01*
X02879*
X02875Y02696*
Y02092D02*
X02867Y02108D01*
X02883*
X02875Y02092*
Y02096D02*
X02871Y02104D01*
X02879*
X02875Y02096*
Y02192D02*
X02867Y02208D01*
X02883*
X02875Y02192*
Y02196D02*
X02871Y02204D01*
X02879*
X02875Y02196*
X02825Y01967D02*
X02817Y01983D01*
X02833*
X02825Y01967*
Y01971D02*
X02821Y01979D01*
X02829*
X02825Y01971*
X0275Y01892D02*
X02742Y01908D01*
X02758*
X0275Y01892*
Y01896D02*
X02746Y01904D01*
X02754*
X0275Y01896*
Y02092D02*
X02742Y02108D01*
X02758*
X0275Y02092*
Y02096D02*
X02746Y02104D01*
X02754*
X0275Y02096*
Y02192D02*
X02742Y02208D01*
X02758*
X0275Y02192*
Y02196D02*
X02746Y02204D01*
X02754*
X0275Y02196*
Y02292D02*
X02742Y02308D01*
X02758*
X0275Y02292*
Y02296D02*
X02746Y02304D01*
X02754*
X0275Y02296*
Y02392D02*
X02742Y02408D01*
X02758*
X0275Y02392*
Y02396D02*
X02746Y02404D01*
X02754*
X0275Y02396*
Y02492D02*
X02742Y02508D01*
X02758*
X0275Y02492*
Y02496D02*
X02746Y02504D01*
X02754*
X0275Y02496*
Y02592D02*
X02742Y02608D01*
X02758*
X0275Y02592*
Y02596D02*
X02746Y02604D01*
X02754*
X0275Y02596*
Y02692D02*
X02742Y02708D01*
X02758*
X0275Y02692*
Y02696D02*
X02746Y02704D01*
X02754*
X0275Y02696*
Y03092D02*
X02742Y03108D01*
X02758*
X0275Y03092*
Y03096D02*
X02746Y03104D01*
X02754*
X0275Y03096*
Y02992D02*
X02742Y03008D01*
X02758*
X0275Y02992*
Y02996D02*
X02746Y03004D01*
X02754*
X0275Y02996*
Y02892D02*
X02742Y02908D01*
X02758*
X0275Y02892*
Y02896D02*
X02746Y02904D01*
X02754*
X0275Y02896*
Y02792D02*
X02742Y02808D01*
X02758*
X0275Y02792*
Y02796D02*
X02746Y02804D01*
X02754*
X0275Y02796*
Y03192D02*
X02742Y03208D01*
X02758*
X0275Y03192*
Y03196D02*
X02746Y03204D01*
X02754*
X0275Y03196*
Y03292D02*
X02742Y03308D01*
X02758*
X0275Y03292*
Y03296D02*
X02746Y03304D01*
X02754*
X0275Y03296*
X02675Y02017D02*
X02667Y02033D01*
X02683*
X02675Y02017*
Y02021D02*
X02671Y02029D01*
X02679*
X02675Y02021*
X0282Y03392D02*
X02812Y03408D01*
X02828*
X0282Y03392*
Y03396D02*
X02816Y03404D01*
X02824*
X0282Y03396*
X02523Y01558D02*
X02515Y01574D01*
X02531*
X02523Y01558*
Y01562D02*
X02519Y0157D01*
X02527*
X02523Y01562*
X02598Y01633D02*
X0259Y01649D01*
X02606*
X02598Y01633*
Y01637D02*
X02594Y01645D01*
X02602*
X02598Y01637*
X02708Y01586D02*
X027Y01602D01*
X02716*
X02708Y01586*
Y0159D02*
X02704Y01598D01*
X02712*
X02708Y0159*
X0274Y01792D02*
X02732Y01808D01*
X02748*
X0274Y01792*
Y01796D02*
X02736Y01804D01*
X02744*
X0274Y01796*
Y01692D02*
X02732Y01708D01*
X02748*
X0274Y01692*
Y01696D02*
X02736Y01704D01*
X02744*
X0274Y01696*
X02622Y01497D02*
X02614Y01513D01*
X0263*
X02622Y01497*
Y01501D02*
X02618Y01509D01*
X02626*
X02622Y01501*
X02536Y01408D02*
X02528Y01424D01*
X02544*
X02536Y01408*
Y01412D02*
X02532Y0142D01*
X0254*
X02536Y01412*
X02437Y01469D02*
X02429Y01485D01*
X02445*
X02437Y01469*
Y01473D02*
X02433Y01481D01*
X02441*
X02437Y01473*
X02632Y01772D02*
X02624Y01788D01*
X0264*
X02632Y01772*
Y01776D02*
X02628Y01784D01*
X02636*
X02632Y01776*
X02635Y01892D02*
X02627Y01908D01*
X02643*
X02635Y01892*
Y01896D02*
X02631Y01904D01*
X02639*
X02635Y01896*
X02519Y01263D02*
X02511Y01279D01*
X02527*
X02519Y01263*
Y01267D02*
X02515Y01275D01*
X02523*
X02519Y01267*
X02439Y01128D02*
X02431Y01144D01*
X02447*
X02439Y01128*
Y01132D02*
X02435Y0114D01*
X02443*
X02439Y01132*
X02352Y0138D02*
X02344Y01396D01*
X0236*
X02352Y0138*
Y01384D02*
X02348Y01392D01*
X02356*
X02352Y01384*
X01967Y02069D02*
X01959Y02085D01*
X01975*
X01967Y02069*
Y02073D02*
X01963Y02081D01*
X01971*
X01967Y02073*
X01934Y02069D02*
X01926Y02085D01*
X01942*
X01934Y02069*
Y02073D02*
X0193Y02081D01*
X01938*
X01934Y02073*
X019Y02069D02*
X01892Y02085D01*
X01908*
X019Y02069*
Y02073D02*
X01896Y02081D01*
X01904*
X019Y02073*
X0219Y01297D02*
X02182Y01313D01*
X02198*
X0219Y01297*
Y01301D02*
X02186Y01309D01*
X02194*
X0219Y01301*
X0215Y01307D02*
X02142Y01323D01*
X02158*
X0215Y01307*
Y01311D02*
X02146Y01319D01*
X02154*
X0215Y01311*
X02168Y01339D02*
X0216Y01355D01*
X02176*
X02168Y01339*
Y01343D02*
X02164Y01351D01*
X02172*
X02168Y01343*
X02312Y00843D02*
X02316Y00847D01*
X0232*
X02316Y00851*
X0232Y00855*
X02316*
X02312Y00859*
X02308Y00855*
X02304*
X02308Y00851*
X02304Y00847*
X02308*
X02312Y00843*
Y00847D02*
X02314Y00849D01*
X02316*
X02314Y00851*
X02316Y00853*
X02314*
X02312Y00855*
X0231Y00853*
X02308*
X0231Y00851*
X02308Y00849*
X0231*
X02312Y00847*
X0233Y00747D02*
X02322Y00763D01*
X02338*
X0233Y00747*
Y00751D02*
X02326Y00759D01*
X02334*
X0233Y00751*
X0162Y00712D02*
X01612Y00728D01*
X01628*
X0162Y00712*
Y00716D02*
X01616Y00724D01*
X01624*
X0162Y00716*
X0183Y00712D02*
X01822Y00728D01*
X01838*
X0183Y00712*
Y00716D02*
X01826Y00724D01*
X01834*
X0183Y00716*
X0214Y00722D02*
X02132Y00738D01*
X02148*
X0214Y00722*
Y00726D02*
X02136Y00734D01*
X02144*
X0214Y00726*
X0129Y02122D02*
X01282Y02138D01*
X01298*
X0129Y02122*
Y02126D02*
X01286Y02134D01*
X01294*
X0129Y02126*
X0125Y01632D02*
X01242Y01648D01*
X01258*
X0125Y01632*
Y01636D02*
X01246Y01644D01*
X01254*
X0125Y01636*
X0115Y01602D02*
X01142Y01618D01*
X01158*
X0115Y01602*
Y01606D02*
X01146Y01614D01*
X01154*
X0115Y01606*
G54D173*
X02513Y00074D02*
D01*
D01*
G75*
G03X02497I-00008J0D01*
G74*G01*
D01*
G75*
G03X02513I00008J0D01*
G74*G01*
Y00274D02*
D01*
D01*
G75*
G03X02497I-00008J0D01*
G74*G01*
D01*
G75*
G03X02513I00008J0D01*
G74*G01*
X02313D02*
D01*
D01*
G75*
G03X02297I-00008J0D01*
G74*G01*
D01*
G75*
G03X02313I00008J0D01*
G74*G01*
Y00074D02*
D01*
D01*
G75*
G03X02297I-00008J0D01*
G74*G01*
D01*
G75*
G03X02313I00008J0D01*
G74*G01*
X01763D02*
D01*
D01*
G75*
G03X01747I-00008J0D01*
G74*G01*
D01*
G75*
G03X01763I00008J0D01*
G74*G01*
Y00274D02*
D01*
D01*
G75*
G03X01747I-00008J0D01*
G74*G01*
D01*
G75*
G03X01763I00008J0D01*
G74*G01*
X01563D02*
D01*
D01*
G75*
G03X01547I-00008J0D01*
G74*G01*
D01*
G75*
G03X01563I00008J0D01*
G74*G01*
Y00074D02*
D01*
D01*
G75*
G03X01547I-00008J0D01*
G74*G01*
D01*
G75*
G03X01563I00008J0D01*
G74*G01*
X006Y0478D02*
D01*
D01*
G75*
G03X00584I-00008J0D01*
G74*G01*
D01*
G75*
G03X006I00008J0D01*
G74*G01*
Y0498D02*
D01*
D01*
G75*
G03X00584I-00008J0D01*
G74*G01*
D01*
G75*
G03X006I00008J0D01*
G74*G01*
X004D02*
D01*
D01*
G75*
G03X00384I-00008J0D01*
G74*G01*
D01*
G75*
G03X004I00008J0D01*
G74*G01*
Y0478D02*
D01*
D01*
G75*
G03X00384I-00008J0D01*
G74*G01*
D01*
G75*
G03X004I00008J0D01*
G74*G01*
X021Y04782D02*
D01*
D01*
G75*
G03X02084I-00008J0D01*
G74*G01*
D01*
G75*
G03X021I00008J0D01*
G74*G01*
Y04982D02*
D01*
D01*
G75*
G03X02084I-00008J0D01*
G74*G01*
D01*
G75*
G03X021I00008J0D01*
G74*G01*
X019D02*
D01*
D01*
G75*
G03X01884I-00008J0D01*
G74*G01*
D01*
G75*
G03X019I00008J0D01*
G74*G01*
Y04782D02*
D01*
D01*
G75*
G03X01884I-00008J0D01*
G74*G01*
D01*
G75*
G03X019I00008J0D01*
G74*G01*
X0285D02*
D01*
D01*
G75*
G03X02834I-00008J0D01*
G74*G01*
D01*
G75*
G03X0285I00008J0D01*
G74*G01*
Y04982D02*
D01*
D01*
G75*
G03X02834I-00008J0D01*
G74*G01*
D01*
G75*
G03X0285I00008J0D01*
G74*G01*
X0265D02*
D01*
D01*
G75*
G03X02634I-00008J0D01*
G74*G01*
D01*
G75*
G03X0265I00008J0D01*
G74*G01*
Y04782D02*
D01*
D01*
G75*
G03X02634I-00008J0D01*
G74*G01*
D01*
G75*
G03X0265I00008J0D01*
G74*G01*
X0135Y0478D02*
D01*
D01*
G75*
G03X01334I-00008J0D01*
G74*G01*
D01*
G75*
G03X0135I00008J0D01*
G74*G01*
Y0498D02*
D01*
D01*
G75*
G03X01334I-00008J0D01*
G74*G01*
D01*
G75*
G03X0135I00008J0D01*
G74*G01*
X0115D02*
D01*
D01*
G75*
G03X01134I-00008J0D01*
G74*G01*
D01*
G75*
G03X0115I00008J0D01*
G74*G01*
Y0478D02*
D01*
D01*
G75*
G03X01134I-00008J0D01*
G74*G01*
D01*
G75*
G03X0115I00008J0D01*
G74*G01*
X00126Y01799D02*
D01*
D01*
G75*
G03X0011I-00008J0D01*
G74*G01*
D01*
G75*
G03X00126I00008J0D01*
G74*G01*
X02843D02*
D01*
D01*
G75*
G03X02827I-00008J0D01*
G74*G01*
D01*
G75*
G03X02843I00008J0D01*
G74*G01*
Y03531D02*
D01*
D01*
G75*
G03X02827I-00008J0D01*
G74*G01*
D01*
G75*
G03X02843I00008J0D01*
G74*G01*
X00126D02*
D01*
D01*
G75*
G03X0011I-00008J0D01*
G74*G01*
D01*
G75*
G03X00126I00008J0D01*
G74*G01*
G54D174*
X00122Y01799D02*
D01*
D01*
G75*
G03X00114I-00004J0D01*
G74*G01*
D01*
G75*
G03X00122I00004J0D01*
G74*G01*
X02839D02*
D01*
D01*
G75*
G03X02831I-00004J0D01*
G74*G01*
D01*
G75*
G03X02839I00004J0D01*
G74*G01*
Y03531D02*
D01*
D01*
G75*
G03X02831I-00004J0D01*
G74*G01*
D01*
G75*
G03X02839I00004J0D01*
G74*G01*
X00122D02*
D01*
D01*
G75*
G03X00114I-00004J0D01*
G74*G01*
D01*
G75*
G03X00122I00004J0D01*
G74*G01*
M02*