%FSTAX23Y23*%
%MOIN*%
%SFA1B1*%

%IPPOS*%
%AMD123*
4,1,4,-0.006700,-0.018000,0.018000,0.006700,0.006700,0.018000,-0.018000,-0.006700,-0.006700,-0.018000,0.0*
1,1,0.016000,0.012400,0.012400*
1,1,0.016000,-0.012400,-0.012400*
%
%AMD124*
4,1,4,-0.012400,-0.023700,0.023700,0.012400,0.012400,0.023700,-0.023700,-0.012400,-0.012400,-0.023700,0.0*
%
%AMD125*
4,1,4,0.006700,0.023700,-0.023700,-0.006700,-0.006700,-0.023700,0.023700,0.006700,0.006700,0.023700,0.0*
%
%AMD146*
4,1,4,0.003500,0.027600,-0.027600,-0.003500,-0.003500,-0.027600,0.027600,0.003500,0.003500,0.027600,0.0*
%
%AMD147*
4,1,4,-0.045400,0.000000,0.000000,-0.045400,0.045400,0.000000,0.000000,0.045400,-0.045400,0.000000,0.0*
%
%AMD148*
4,1,4,-0.027600,0.003500,0.003500,-0.027600,0.027600,-0.003500,-0.003500,0.027600,-0.027600,0.003500,0.0*
%
%AMD154*
4,1,8,-0.129000,0.095500,-0.129000,-0.095500,-0.116000,-0.108500,0.116000,-0.108500,0.129000,-0.095500,0.129000,0.095500,0.116000,0.108500,-0.116000,0.108500,-0.129000,0.095500,0.0*
1,1,0.026000,-0.116000,0.095500*
1,1,0.026000,-0.116000,-0.095500*
1,1,0.026000,0.116000,-0.095500*
1,1,0.026000,0.116000,0.095500*
%
%ADD51C,0.008000*%
%ADD58R,0.550000X0.490000*%
%ADD60R,0.285000X0.080000*%
%ADD91C,0.062000*%
%ADD95C,0.039000*%
%ADD116R,0.340000X0.190000*%
%ADD117R,0.225000X0.065000*%
%ADD118R,0.135000X0.070000*%
%ADD119R,0.039000X0.104000*%
%ADD120R,0.304000X0.304000*%
%ADD121R,0.112000X0.043000*%
%ADD122R,0.024000X0.056000*%
G04~CAMADD=123~3~0.0~0.0~510.0~160.0~0.0~0.0~0~0.0~0.0~0.0~0.0~0~0.0~0.0~0.0~0.0~0~0.0~0.0~0.0~225.0~406.0~406.0*
%ADD123D123*%
G04~CAMADD=124~9~0.0~0.0~510.0~160.0~0.0~0.0~0~0.0~0.0~0.0~0.0~0~0.0~0.0~0.0~0.0~0~0.0~0.0~0.0~225.0~474.0~473.0*
%ADD124D124*%
G04~CAMADD=125~9~0.0~0.0~430.0~240.0~0.0~0.0~0~0.0~0.0~0.0~0.0~0~0.0~0.0~0.0~0.0~0~0.0~0.0~0.0~45.0~474.0~473.0*
%ADD125D125*%
%ADD126R,0.024000X0.014000*%
%ADD127R,0.014000X0.024000*%
%ADD128R,0.015000X0.035000*%
%ADD129R,0.035000X0.015000*%
%ADD130R,0.016000X0.028000*%
%ADD131R,0.064000X0.054000*%
%ADD132R,0.064000X0.024000*%
%ADD133O,0.064000X0.024000*%
%ADD134O,0.064000X0.019000*%
%ADD135R,0.064000X0.019000*%
%ADD136R,0.016000X0.064000*%
%ADD137O,0.016000X0.064000*%
%ADD138R,0.024000X0.063000*%
%ADD139R,0.064000X0.064000*%
%ADD140R,0.204000X0.094000*%
%ADD141R,0.249000X0.134000*%
%ADD142R,0.026000X0.104000*%
%ADD143R,0.034000X0.044000*%
%ADD144R,0.044000X0.034000*%
%ADD145R,0.064000X0.064000*%
G04~CAMADD=146~9~0.0~0.0~440.0~340.0~0.0~0.0~0~0.0~0.0~0.0~0.0~0~0.0~0.0~0.0~0.0~0~0.0~0.0~0.0~45.0~552.0~551.0*
%ADD146D146*%
G04~CAMADD=147~10~0.0~643.5~0.0~0.0~0.0~0.0~0~0.0~0.0~0.0~0.0~0~0.0~0.0~0.0~0.0~0~0.0~0.0~0.0~135.0~643.5~0.0*
%ADD147D147*%
G04~CAMADD=148~9~0.0~0.0~440.0~340.0~0.0~0.0~0~0.0~0.0~0.0~0.0~0~0.0~0.0~0.0~0.0~0~0.0~0.0~0.0~135.0~552.0~551.0*
%ADD148D148*%
%ADD149R,0.189000X0.189000*%
%ADD150C,0.084000*%
%ADD151R,0.104000X0.104000*%
%ADD152C,0.044000*%
%ADD153R,0.062000X0.062000*%
G04~CAMADD=154~8~0.0~0.0~2170.0~2580.0~130.0~0.0~15~0.0~0.0~0.0~0.0~0~0.0~0.0~0.0~0.0~0~0.0~0.0~0.0~90.0~2580.0~2170.0*
%ADD154D154*%
%ADD155C,0.060000*%
%ADD156C,0.110000*%
%ADD157C,0.124000*%
%ADD158C,0.129000*%
%ADD159C,0.032000*%
%ADD160C,0.042000*%
%ADD161C,0.030000*%
G54D51*
X04Y0D02*
Y055D01*
X01193D02*
X04D01*
X0Y01681D02*
Y0365D01*
X00753Y0D02*
X04D01*
X0D02*
Y01681D01*
Y0D02*
X00753D01*
X0Y055D02*
X01193D01*
X0Y0365D02*
Y055D01*
G54D58*
X003Y03855D03*
G54D60*
X01643Y0252D03*
G54D91*
X00289Y00998D03*
Y00898D03*
Y00798D03*
X00155Y04832D03*
X0378Y01666D03*
Y01766D03*
X0348Y01666D03*
Y01766D03*
X0318Y01666D03*
Y01766D03*
X02053Y04022D03*
G54D95*
X00315Y0448D03*
X0029Y04302D03*
G54D116*
X00845Y0173D03*
G54D117*
X00788Y01602D03*
G54D118*
X01648Y02445D03*
G54D119*
X00465Y04417D03*
X00415D03*
X00365D03*
X00315D03*
X00265D03*
X00215D03*
X00165D03*
G54D120*
X00315Y04017D03*
G54D121*
X0063Y0131D03*
Y00916D03*
X00797D03*
X0063Y00838D03*
X00797D03*
X0063Y01074D03*
X00797D03*
X0063Y00995D03*
X00797D03*
Y0131D03*
X0063Y01231D03*
X00797D03*
X0063Y01153D03*
X00797D03*
G54D122*
X01094Y04382D03*
X01033D03*
X00972D03*
G54D123*
X01861Y04539D03*
X01729Y04407D03*
X01743Y04393D03*
X01785Y04351D03*
X01757Y04379D03*
X01889Y04511D03*
X01903Y04497D03*
X01875Y04525D03*
X01771Y04365D03*
G54D124*
X01917Y04483D03*
G54D125*
X0152Y01204D03*
X01546Y01178D03*
X01573Y01151D03*
X01579Y01263D03*
X01605Y01236D03*
X01631Y0121D03*
G54D126*
X02119Y01215D03*
Y01234D03*
Y01254D03*
Y01274D03*
Y01293D03*
Y01313D03*
Y01333D03*
Y01352D03*
Y01372D03*
Y01392D03*
Y01411D03*
Y01431D03*
X01802D03*
Y01411D03*
Y01392D03*
Y01372D03*
Y01352D03*
Y01333D03*
Y01313D03*
Y01293D03*
Y01274D03*
Y01254D03*
Y01234D03*
Y01215D03*
G54D127*
X01833Y01184D03*
X01853D03*
X01872D03*
X01892D03*
X01912D03*
X01931D03*
X01951D03*
X01971D03*
X0199D03*
X0201D03*
X0203D03*
X0205D03*
X02069D03*
X02089D03*
Y01462D03*
X02069D03*
X0205D03*
X0203D03*
X0201D03*
X0199D03*
X01971D03*
X01951D03*
X01931D03*
X01912D03*
X01892D03*
X01872D03*
X01853D03*
X01833D03*
G54D128*
X02006Y04222D03*
X01986D03*
X01966D03*
X02025D03*
X01888D03*
X01907D03*
X01927D03*
X01947D03*
X02163Y0382D03*
X02183D03*
X02222D03*
X02203D03*
X02104Y04222D03*
X02084D03*
X02065D03*
X02045D03*
X01888Y0382D03*
X01907D03*
X02104D03*
X02124D03*
X02143D03*
X01966D03*
X01947D03*
X01927D03*
X02025D03*
X02006D03*
X01986D03*
X02084D03*
X02065D03*
X02045D03*
X02183Y04222D03*
X02203D03*
X02222D03*
X02124D03*
X02143D03*
X02163D03*
G54D129*
X01854Y03873D03*
Y03853D03*
X02251Y0409D03*
Y04109D03*
Y04129D03*
Y04149D03*
Y03893D03*
Y03912D03*
Y03932D03*
Y04011D03*
Y04031D03*
Y0405D03*
Y0407D03*
X01854Y04188D03*
Y04168D03*
Y04149D03*
Y04129D03*
Y0405D03*
Y04031D03*
Y04011D03*
Y03893D03*
Y0409D03*
Y04109D03*
Y0407D03*
Y03971D03*
Y03991D03*
Y03932D03*
Y03952D03*
Y03912D03*
X02251Y03873D03*
Y03853D03*
Y03991D03*
Y03971D03*
Y03952D03*
Y04188D03*
Y04168D03*
G54D130*
X01989Y01081D03*
X01969D03*
X0195D03*
X0193D03*
Y01132D03*
X0195D03*
X01969D03*
X01989D03*
G54D131*
X00524Y04541D03*
X00434D03*
X00332D03*
X00242D03*
X00581Y04645D03*
X00491D03*
X0133D03*
X0124D03*
G54D132*
X01402Y04282D03*
G54D133*
X01402Y04332D03*
Y04382D03*
Y04432D03*
X01202Y04282D03*
Y04332D03*
Y04382D03*
Y04432D03*
G54D134*
X00918Y04542D03*
X01088D03*
X00918Y04517D03*
Y04491D03*
Y04466D03*
X01088Y04517D03*
Y04491D03*
X00918Y04294D03*
X01088D03*
X00918Y04268D03*
Y04243D03*
Y04217D03*
X01088Y04268D03*
Y04243D03*
X00918Y03779D03*
X01088D03*
X00918Y03753D03*
Y03728D03*
Y03702D03*
X01088Y03753D03*
Y03728D03*
G54D135*
X01088Y04466D03*
Y04217D03*
Y03702D03*
G54D136*
X0104Y04126D03*
G54D137*
X01014Y04126D03*
X00989D03*
X00963D03*
X00938D03*
X00912D03*
X00886D03*
X00861D03*
X00835D03*
X0081D03*
X0104Y03874D03*
X01014D03*
X00989D03*
X00963D03*
X00938D03*
X00912D03*
X00886D03*
X00861D03*
X00835D03*
X0081D03*
G54D138*
X01326Y03574D03*
Y03331D03*
X01357Y03574D03*
Y03331D03*
X01389Y03574D03*
Y03331D03*
X01421Y03574D03*
Y03331D03*
X01452Y03574D03*
Y03331D03*
X01484Y03574D03*
Y03331D03*
X01515Y03574D03*
Y03331D03*
X01546Y03574D03*
Y03331D03*
X01578Y03574D03*
Y03331D03*
X0161Y03574D03*
Y03331D03*
X01641Y03574D03*
Y03331D03*
X01673Y03574D03*
Y03331D03*
X01704Y03574D03*
Y03331D03*
X01735Y03574D03*
Y03331D03*
X01767Y03574D03*
Y03331D03*
X01798Y03574D03*
Y03331D03*
X0183Y03574D03*
Y03331D03*
X01862Y03574D03*
Y03331D03*
X01893Y03574D03*
Y03331D03*
X01924Y03574D03*
Y03331D03*
X01956Y03574D03*
Y03331D03*
X01987Y03574D03*
Y03331D03*
X02019Y03574D03*
Y03331D03*
X0205Y03574D03*
Y03331D03*
X02082Y03574D03*
Y03331D03*
X02114Y03574D03*
Y03331D03*
X02145Y03574D03*
Y03331D03*
X02177Y03574D03*
Y03331D03*
X02208Y03574D03*
Y03331D03*
X0224Y03574D03*
Y03331D03*
X02271Y03574D03*
Y03331D03*
X02303Y03574D03*
Y03331D03*
X02334Y03574D03*
Y03331D03*
X02365Y03574D03*
Y03331D03*
X02397Y03574D03*
Y03331D03*
X02428Y03574D03*
Y03331D03*
X0246Y03574D03*
Y03331D03*
X02491Y03574D03*
Y03331D03*
X02523Y03574D03*
Y03331D03*
X02555Y03574D03*
Y03331D03*
X01326Y01999D03*
Y01756D03*
X01357Y01999D03*
Y01756D03*
X01389Y01999D03*
Y01756D03*
X01421Y01999D03*
Y01756D03*
X01452Y01999D03*
Y01756D03*
X01484Y01999D03*
Y01756D03*
X01515Y01999D03*
Y01756D03*
X01546Y01999D03*
Y01756D03*
X01578Y01999D03*
Y01756D03*
X0161Y01999D03*
Y01756D03*
X01641Y01999D03*
Y01756D03*
X01673Y01999D03*
Y01756D03*
X01704Y01999D03*
Y01756D03*
X01735Y01999D03*
Y01756D03*
X01767Y01999D03*
Y01756D03*
X01798Y01999D03*
Y01756D03*
X0183Y01999D03*
Y01756D03*
X01862Y01999D03*
Y01756D03*
X01893Y01999D03*
Y01756D03*
X01924Y01999D03*
Y01756D03*
X01956Y01999D03*
Y01756D03*
X01987Y01999D03*
Y01756D03*
X02019Y01999D03*
Y01756D03*
X0205Y01999D03*
Y01756D03*
X02082Y01999D03*
Y01756D03*
X02114Y01999D03*
Y01756D03*
X02145Y01999D03*
Y01756D03*
X02177Y01999D03*
Y01756D03*
X02208Y01999D03*
Y01756D03*
X0224Y01999D03*
Y01756D03*
X02271Y01999D03*
Y01756D03*
X02303Y01999D03*
Y01756D03*
X02334Y01999D03*
Y01756D03*
X02365Y01999D03*
Y01756D03*
X02397Y01999D03*
Y01756D03*
X02428Y01999D03*
Y01756D03*
X0246Y01999D03*
Y01756D03*
X02491Y01999D03*
Y01756D03*
X02523Y01999D03*
Y01756D03*
X02555Y01999D03*
Y01756D03*
G54D139*
X00241Y0465D03*
X00376D03*
X00991D03*
X01126D03*
G54D140*
X03852Y05211D03*
Y04226D03*
Y03242D03*
Y02258D03*
Y01274D03*
Y00289D03*
Y05041D03*
Y05381D03*
Y04056D03*
Y04396D03*
Y03072D03*
Y03412D03*
Y02088D03*
Y02428D03*
Y01104D03*
Y01444D03*
Y00119D03*
Y00459D03*
G54D141*
X03582Y03109D03*
X03178D03*
X03582Y00421D03*
X03178D03*
G54D142*
X03555Y02776D03*
X03505D03*
X03455D03*
X03405D03*
X03205D03*
X03255D03*
X03305D03*
X03355D03*
X03405Y00754D03*
X03455D03*
X03505D03*
X03555D03*
X03355D03*
X03305D03*
X03255D03*
X03205D03*
G54D143*
X0366Y0245D03*
Y02515D03*
X0317Y0245D03*
Y02515D03*
X0333Y0245D03*
Y02515D03*
X035Y0245D03*
Y02515D03*
X0359Y0108D03*
Y01015D03*
X0343Y0108D03*
Y01015D03*
X0326Y0108D03*
Y01015D03*
X031Y0108D03*
Y01015D03*
X01808Y0074D03*
Y00805D03*
X01641Y0074D03*
Y00805D03*
X02285Y0074D03*
Y00805D03*
X02115Y0074D03*
Y00805D03*
X01496Y00896D03*
Y00831D03*
X01443Y00896D03*
Y00831D03*
X01922Y0074D03*
Y00805D03*
X01975Y0074D03*
Y00805D03*
X01786Y00935D03*
Y01D03*
X01657Y00999D03*
Y00934D03*
X0172Y00935D03*
Y01D03*
X01927Y01014D03*
Y00949D03*
X0199Y01014D03*
Y00949D03*
X02203Y00935D03*
Y01D03*
X02267Y00935D03*
Y01D03*
X02075D03*
Y00935D03*
X02136D03*
Y01D03*
X01849Y00935D03*
Y01D03*
X01478Y04378D03*
Y04443D03*
X01933Y01577D03*
Y01642D03*
X02029Y0074D03*
Y00805D03*
X01561Y00751D03*
Y00816D03*
X01096Y0402D03*
Y03955D03*
G54D144*
X0311Y0237D03*
X03175D03*
X0327D03*
X03335D03*
X035D03*
X03435D03*
X0366D03*
X03595D03*
X0311Y0259D03*
X03175D03*
X0327D03*
X03335D03*
X035D03*
X03435D03*
X0366D03*
X03595D03*
X0365Y0116D03*
X03585D03*
X0349D03*
X03425D03*
X0326D03*
X03325D03*
X031D03*
X03165D03*
X0365Y0094D03*
X03585D03*
X0349D03*
X03425D03*
X0326D03*
X03325D03*
X031D03*
X03165D03*
X02385Y04244D03*
X0232D03*
X01163Y045D03*
X01228D03*
X0232Y0419D03*
X02385D03*
X01666Y03905D03*
X01601D03*
X01458Y03903D03*
X01523D03*
X01387Y03901D03*
X01322D03*
Y03962D03*
X01387D03*
X01322Y03838D03*
X01387D03*
X01322Y03776D03*
X01387D03*
X01301Y045D03*
X01366D03*
G54D145*
X01661Y03821D03*
Y03686D03*
X01563Y03821D03*
Y03686D03*
G54D146*
X01673Y0114D03*
X01719Y01186D03*
X01372Y00668D03*
X01418Y00714D03*
X01417Y00624D03*
X01463Y0067D03*
X01758Y01148D03*
X01712Y01102D03*
X02493Y04424D03*
X02447Y04378D03*
X01847Y0428D03*
X01893Y04326D03*
X01936Y04369D03*
X01982Y04415D03*
X0172Y04301D03*
X01674Y04255D03*
X02491Y04332D03*
X02537Y04378D03*
X02275Y04496D03*
X02321Y04542D03*
Y04449D03*
X02367Y04495D03*
G54D147*
X0244Y01266D03*
X02345Y01171D03*
X02333Y01301D03*
X02238Y01206D03*
G54D148*
X02411Y04318D03*
X02457Y04272D03*
X02152Y01146D03*
X02198Y011D03*
X02254Y0428D03*
X02208Y04326D03*
X02165Y04369D03*
X02119Y04415D03*
X01621Y044D03*
X01667Y04354D03*
X01623Y04308D03*
X01577Y04354D03*
X01655Y0136D03*
X01701Y01314D03*
X01607Y01313D03*
X01653Y01267D03*
X01557Y01089D03*
X01511Y01135D03*
X01467Y01091D03*
X01513Y01045D03*
G54D149*
X02053Y04022D03*
G54D150*
X02405Y00174D03*
X01655D03*
X00492Y0488D03*
X01992Y04882D03*
X02742D03*
X01242Y0488D03*
G54D151*
X02505Y00074D03*
Y00274D03*
X02305D03*
Y00074D03*
X01755D03*
Y00274D03*
X01555D03*
Y00074D03*
X00592Y0478D03*
Y0498D03*
X00392D03*
Y0478D03*
X02092Y04782D03*
Y04982D03*
X01892D03*
Y04782D03*
X02842D03*
Y04982D03*
X02642D03*
Y04782D03*
X01342Y0478D03*
Y0498D03*
X01142D03*
Y0478D03*
G54D152*
X00714Y00877D03*
Y01271D03*
G54D153*
X00289Y01098D03*
X00155Y04932D03*
X0378Y01866D03*
X0348D03*
X0318D03*
G54D154*
X01961Y01323D03*
G54D155*
X02619Y03533D03*
X01262D03*
X02619Y01957D03*
X01262D03*
G54D156*
X0363Y0329D03*
X0313D03*
X0363Y0024D03*
X0313D03*
G54D157*
X0016Y05285D03*
Y00585D03*
X02795D03*
Y05285D03*
G54D158*
X00118Y01799D03*
X02835D03*
Y03531D03*
X00118D03*
G54D159*
X0029Y0423D03*
X0375Y0321D03*
Y0518D03*
Y042D03*
Y0223D03*
X0225Y0224D03*
X0228Y0221D03*
X02334Y0209D03*
X02208D03*
X0224Y0206D03*
X02271Y0209D03*
X02303Y0206D03*
X0366Y0234D03*
X035D03*
X0334D03*
X0318D03*
X02366Y0206D03*
X02397Y0209D03*
X02429Y0206D03*
X0246Y0209D03*
X02491Y0206D03*
X02523Y0209D03*
X02555Y0206D03*
X02152Y01705D03*
X0375Y01305D03*
Y0032D03*
X0358Y0119D03*
X0342D03*
X0326D03*
X031D03*
X02491Y017D03*
X031Y0262D03*
X0326D03*
X0343D03*
X0359D03*
X031Y024D03*
X0326D03*
X0343D03*
X0359D03*
X03205Y0272D03*
X03305D03*
X03405D03*
X03505D03*
X0366Y0091D03*
X035D03*
X0333D03*
X0317D03*
X0366Y0113D03*
X035D03*
X0333D03*
X0317D03*
X03255Y0081D03*
X03355D03*
X03455D03*
X03555D03*
X0375Y00119D03*
Y00459D03*
Y01104D03*
Y01444D03*
Y02088D03*
Y02428D03*
Y03072D03*
Y03412D03*
Y04056D03*
Y04396D03*
Y05041D03*
Y05381D03*
X02439Y04128D03*
X02546Y02751D03*
X02403Y0413D03*
X0251Y02751D03*
X02365Y0406D03*
X02472Y0283D03*
X02366Y04096D03*
X02474Y02789D03*
X02402Y04094D03*
X0251Y0279D03*
X02032Y0466D03*
X02665Y02751D03*
X02016Y04621D03*
X02629Y02752D03*
X01985Y0459D03*
X02631Y02788D03*
X0253Y04291D03*
X02595Y02789D03*
X0246Y01675D03*
X02397D03*
X02428Y017D03*
X02365D03*
X01835Y00575D03*
X01502Y00551D03*
X01466Y00581D03*
X015Y0063D03*
X01466Y02054D03*
X01452Y01702D03*
X01325D03*
X01452Y03634D03*
X01357D03*
X01353Y03275D03*
X01392D03*
X01428D03*
X01463D03*
X01435Y00805D03*
X01467Y00933D03*
X01474Y00719D03*
X0145Y04338D03*
X01435Y04455D03*
X02498Y04261D03*
X0223Y04351D03*
X01977Y04D03*
Y04049D03*
X02129Y04D03*
Y04049D03*
Y03946D03*
X01977D03*
X02031D03*
X0208D03*
X02061Y01323D03*
X02011D03*
X01861D03*
X01911D03*
X01861Y01375D03*
X02061D03*
X02011D03*
X01961D03*
X01911D03*
Y01271D03*
X01961D03*
X02011D03*
X02061D03*
X01861D03*
X01911Y01231D03*
X01961D03*
X02011D03*
X02061D03*
X01861D03*
Y01415D03*
X02061D03*
X02011D03*
X01961D03*
X01911D03*
X01765Y02543D03*
Y02493D03*
X0254Y01701D03*
X02192Y01705D03*
X01859Y01701D03*
X01498D03*
X015Y02054D03*
X01309D03*
X02541Y03268D03*
X01309Y03276D03*
X01498D03*
X01353Y03111D03*
X02165Y0364D03*
X01847Y03638D03*
X00579Y00251D03*
X01143D03*
X01237Y00651D03*
X01231Y01102D03*
X01285Y01516D03*
X00591Y01341D03*
X00411Y01699D03*
X00056Y03155D03*
X00512Y0292D03*
X00138Y02765D03*
X00394Y02706D03*
X00342Y02337D03*
X00851Y02339D03*
X01707Y02129D03*
X01481Y02231D03*
X01328Y02209D03*
X0212Y02125D03*
X01811Y02345D03*
X02044Y02507D03*
X01706Y02717D03*
X02381Y02722D03*
X02138Y02767D03*
X02513Y0292D03*
X02069Y03114D03*
X01793Y02912D03*
X01548Y02767D03*
X01161Y0361D03*
X01372Y0468D03*
X01748Y04319D03*
X00697Y04038D03*
X015Y0102D03*
X01949Y01672D03*
X01713Y04028D03*
X01697Y04187D03*
X02036Y03858D03*
X024Y04216D03*
X02075Y03858D03*
X01813Y04211D03*
Y0407D03*
X01822Y0428D03*
X02279D03*
X02108Y04445D03*
X01993D03*
X02212Y0426D03*
X01898D03*
X02157Y0417D03*
X02098Y0418D03*
X0208Y04098D03*
X02031D03*
X01977D03*
X02129D03*
X02208Y04035D03*
X02213Y0408D03*
X01892D03*
X01897Y04035D03*
X02039Y0418D03*
X0198D03*
X01933Y0417D03*
X01813Y04105D03*
Y04175D03*
X01279Y03963D03*
X01277Y03776D03*
Y03838D03*
Y03902D03*
X02427Y00482D03*
X02144Y00524D03*
Y00488D03*
X01854Y00481D03*
X02329Y00806D03*
X0196Y0095D03*
X024Y04372D03*
X02361Y0433D03*
X0219Y04395D03*
X0157Y00483D03*
Y00522D03*
X01971Y015D03*
X01673Y03875D03*
X01924Y0454D03*
X0196Y04514D03*
X01638Y04265D03*
X02148Y04521D03*
X02181Y04543D03*
X02316Y04412D03*
X02359Y04533D03*
X01788Y0441D03*
X01976Y04656D03*
X01942Y01541D03*
X01105Y0382D03*
X01164Y0373D03*
X0086Y0449D03*
X011Y04575D03*
X0113Y04315D03*
X0116Y04215D03*
X0112Y04365D03*
X0118Y0453D03*
X01395Y04529D03*
X00625Y0461D03*
X0057Y045D03*
X00865Y0394D03*
X0087Y03725D03*
X0185Y03238D03*
X0218D03*
X0075Y042D03*
X009Y046D03*
X0096Y04595D03*
X0092Y0366D03*
X01015Y0381D03*
X0106Y03825D03*
X0091Y0382D03*
X0087Y04205D03*
X01155Y04455D03*
X00843Y04321D03*
X0123Y0424D03*
X00835Y04085D03*
X0079Y0414D03*
X00947Y04036D03*
X01026D03*
X00697Y04109D03*
X0005Y04085D03*
X001D03*
X0015D03*
X002D03*
X0025D03*
X003D03*
X0035D03*
X004D03*
X0045D03*
X005D03*
X0055D03*
Y04035D03*
X005D03*
X0045D03*
X004D03*
X0035D03*
X003D03*
X0025D03*
X002D03*
X0015D03*
X001D03*
X0005D03*
X0055Y03985D03*
X005D03*
X0045D03*
X004D03*
X0035D03*
X003D03*
X0025D03*
X002D03*
X0015D03*
X001D03*
X0005D03*
X0055Y03935D03*
X005D03*
X0045D03*
X004D03*
X0035D03*
X003D03*
X0025D03*
X002D03*
X0015D03*
X001D03*
X0005D03*
X0055Y03885D03*
X005D03*
X0045D03*
X004D03*
X0035D03*
X003D03*
X0025D03*
X002D03*
X0015D03*
X001D03*
X0005D03*
X0055Y03835D03*
X005D03*
X0045D03*
X004D03*
X0035D03*
X003D03*
X0025D03*
X002D03*
X0015D03*
X001D03*
X0005D03*
X0055Y03785D03*
X005D03*
X0045D03*
X004D03*
X0035D03*
X003D03*
X0025D03*
X002D03*
X0015D03*
X001D03*
X0005D03*
X0055Y03735D03*
X005D03*
X0045D03*
X004D03*
X0035D03*
X003D03*
X0025D03*
X002D03*
X0015D03*
X001D03*
X0005D03*
X0055Y03685D03*
X005D03*
X0045D03*
X004D03*
X0035D03*
X003D03*
X0025D03*
X002D03*
X0015D03*
X001D03*
X0005D03*
X0055Y03635D03*
X005D03*
X0045D03*
X004D03*
X0035D03*
X003D03*
X0025D03*
X002D03*
X0015D03*
X001D03*
X0005D03*
X01485Y01116D03*
X0163Y01335D03*
X0184Y00905D03*
X01648Y00904D03*
X02066Y00905D03*
X02276D03*
X01857Y00805D03*
X01965Y00715D03*
X0217Y0038D03*
X01518D03*
X02515Y00714D03*
X02685Y04235D03*
X02633Y04185D03*
X02049Y0071D03*
X01585Y0072D03*
X0201Y0054D03*
X01995Y00474D03*
X01445Y00477D03*
X0257Y0047D03*
X0188Y00455D03*
X02465Y0046D03*
X00965Y01506D03*
X00745Y01805D03*
X00795D03*
X00845D03*
X00895D03*
X00945D03*
X00995D03*
X00745Y01755D03*
X00795D03*
X00845D03*
X00895D03*
X00945D03*
X00995D03*
X00745Y01705D03*
X00795D03*
X00845D03*
X00895D03*
X00945D03*
X00995D03*
X00745Y01655D03*
X00795D03*
X00845D03*
X00895D03*
X00945D03*
X00995D03*
X00695D03*
Y01705D03*
Y01755D03*
Y01805D03*
X0088Y01605D03*
X0083D03*
X0078D03*
X00895Y01295D03*
X0073Y0316D03*
X0126Y0297D03*
X016Y02443D03*
X0165D03*
X017D03*
X01515Y02543D03*
Y02493D03*
X01715D03*
X01665D03*
X01615D03*
X01565D03*
X01715Y02543D03*
X01665D03*
X01615D03*
X01565D03*
X01942Y00855D03*
X01835Y0224D03*
X02875Y033D03*
Y032D03*
Y031D03*
Y03D03*
Y029D03*
Y028D03*
Y023D03*
Y024D03*
Y025D03*
Y026D03*
Y027D03*
Y021D03*
Y022D03*
X02825Y01975D03*
X0275Y019D03*
Y021D03*
Y022D03*
Y023D03*
Y024D03*
Y025D03*
Y026D03*
Y027D03*
Y031D03*
Y03D03*
Y029D03*
Y028D03*
Y032D03*
Y033D03*
X02675Y02025D03*
X0282Y034D03*
X02523Y01566D03*
X02598Y01641D03*
X02708Y01594D03*
X0274Y018D03*
Y017D03*
X02622Y01505D03*
X02536Y01416D03*
X02437Y01477D03*
X02632Y0178D03*
X02635Y019D03*
X02519Y01271D03*
X02439Y01136D03*
X02352Y01388D03*
X02312Y00851D03*
X0233Y00755D03*
X0162Y0072D03*
X0183D03*
X0214Y0073D03*
X0129Y0213D03*
X0125Y0164D03*
X0115Y0161D03*
G54D160*
X0078Y0341D03*
X00824Y00455D03*
X00274Y004D03*
X00895Y00854D03*
X0011Y03049D03*
X02038Y02973D03*
X0091Y02901D03*
X0108Y02711D03*
X01331Y0297D03*
X00597Y02625D03*
X00097D03*
X01212Y02415D03*
X00411Y01605D03*
X02565Y03191D03*
X0195Y03067D03*
X02019Y02116D03*
X01276Y00454D03*
X00705Y00453D03*
X01274Y00943D03*
X00382Y02631D03*
X00882D03*
X01275Y01393D03*
X00911Y03287D03*
X0108Y0311D03*
X00569Y03234D03*
X0102Y0159D03*
G54D161*
X01811Y03722D03*
X018Y03267D03*
X01823Y03759D03*
X01835Y03267D03*
X01539Y02071D03*
X02093Y00566D03*
X01574Y02071D03*
X0212Y00601D03*
X01609Y02071D03*
X0165D03*
X02146Y00631D03*
X01596Y00783D03*
X01997Y00912D03*
X0219Y03759D03*
X02178Y03722D03*
X01994Y03249D03*
X01941Y03722D03*
X01968Y03272D03*
X01953Y03759D03*
X02032D03*
X02053Y03251D03*
X02024Y03234D03*
X0202Y03722D03*
X01913Y03272D03*
X02468Y03266D03*
X02327Y03995D03*
X02292Y03977D03*
X02433Y03266D03*
X02399Y03267D03*
X02364D03*
X0233Y03891D03*
X02294D03*
X02297Y00407D03*
X01645D03*
X01596Y00818D03*
X02218Y0108D03*
X01683Y01093D03*
X0145Y03872D03*
X02062Y00818D03*
X02075Y00851D03*
X02065Y00783D03*
X01922Y00912D03*
X01848Y00852D03*
X01604D03*
X01784Y012D03*
X01888Y03247D03*
X02111Y03759D03*
X02099Y03722D03*
X02118Y03267D03*
X02083D03*
X02152D03*
X02208D03*
X02276D03*
X02241D03*
X02249Y03759D03*
X02237Y03722D03*
X01893D03*
X01881Y03759D03*
X01967Y02077D03*
X01934D03*
X019D03*
X0219Y01305D03*
X0215Y01315D03*
X02168Y01347D03*
M02*