%FSTAX23Y23*%
%MOIN*%
%SFA1B1*%

%IPPOS*%
%AMD24*
4,1,4,-0.008100,-0.016600,0.016600,0.008100,0.008100,0.016600,-0.016600,-0.008100,-0.008100,-0.016600,0.0*
1,1,0.012000,0.012400,0.012400*
1,1,0.012000,-0.012400,-0.012400*
%
%AMD25*
4,1,4,-0.012400,-0.020900,0.020900,0.012400,0.012400,0.020900,-0.020900,-0.012400,-0.012400,-0.020900,0.0*
%
%AMD26*
4,1,4,0.006700,0.020900,-0.020900,-0.006700,-0.006700,-0.020900,0.020900,0.006700,0.006700,0.020900,0.0*
%
%AMD47*
4,1,4,0.003500,0.024700,-0.024700,-0.003500,-0.003500,-0.024700,0.024700,0.003500,0.003500,0.024700,0.0*
%
%AMD48*
4,1,4,-0.042400,0.000000,0.000000,-0.042400,0.042400,0.000000,0.000000,0.042400,-0.042400,0.000000,0.0*
%
%AMD49*
4,1,4,-0.024700,0.003500,0.003500,-0.024700,0.024700,-0.003500,-0.003500,0.024700,-0.024700,0.003500,0.0*
%
%AMD67*
4,1,8,-0.127000,0.095500,-0.127000,-0.095500,-0.116000,-0.106500,0.116000,-0.106500,0.127000,-0.095500,0.127000,0.095500,0.116000,0.106500,-0.116000,0.106500,-0.127000,0.095500,0.0*
1,1,0.022000,-0.116000,0.095500*
1,1,0.022000,-0.116000,-0.095500*
1,1,0.022000,0.116000,-0.095500*
1,1,0.022000,0.116000,0.095500*
%
%ADD20R,0.035000X0.100000*%
%ADD21R,0.300000X0.300000*%
%ADD22R,0.108000X0.039000*%
%ADD23R,0.020000X0.052000*%
G04~CAMADD=24~3~0.0~0.0~470.0~120.0~0.0~0.0~0~0.0~0.0~0.0~0.0~0~0.0~0.0~0.0~0.0~0~0.0~0.0~0.0~225.0~366.0~366.0*
%ADD24D24*%
G04~CAMADD=25~9~0.0~0.0~470.0~120.0~0.0~0.0~0~0.0~0.0~0.0~0.0~0~0.0~0.0~0.0~0.0~0~0.0~0.0~0.0~225.0~418.0~417.0*
%ADD25D25*%
G04~CAMADD=26~9~0.0~0.0~390.0~200.0~0.0~0.0~0~0.0~0.0~0.0~0.0~0~0.0~0.0~0.0~0.0~0~0.0~0.0~0.0~45.0~418.0~417.0*
%ADD26D26*%
%ADD27R,0.020000X0.010000*%
%ADD28R,0.010000X0.020000*%
%ADD29R,0.011000X0.031000*%
%ADD30R,0.031000X0.011000*%
%ADD31R,0.012000X0.024000*%
%ADD32R,0.060000X0.050000*%
%ADD33R,0.060000X0.020000*%
%ADD34O,0.060000X0.020000*%
%ADD35O,0.060000X0.015000*%
%ADD36R,0.060000X0.015000*%
%ADD37R,0.012000X0.060000*%
%ADD38O,0.012000X0.060000*%
%ADD39R,0.018000X0.057000*%
%ADD40R,0.060000X0.060000*%
%ADD41R,0.200000X0.090000*%
%ADD42R,0.245000X0.130000*%
%ADD43R,0.022000X0.100000*%
%ADD44R,0.030000X0.040000*%
%ADD45R,0.040000X0.030000*%
%ADD46R,0.060000X0.060000*%
G04~CAMADD=47~9~0.0~0.0~400.0~300.0~0.0~0.0~0~0.0~0.0~0.0~0.0~0~0.0~0.0~0.0~0.0~0~0.0~0.0~0.0~45.0~494.0~493.0*
%ADD47D47*%
G04~CAMADD=48~10~0.0~601.0~0.0~0.0~0.0~0.0~0~0.0~0.0~0.0~0.0~0~0.0~0.0~0.0~0.0~0~0.0~0.0~0.0~135.0~601.0~0.0*
%ADD48D48*%
G04~CAMADD=49~9~0.0~0.0~400.0~300.0~0.0~0.0~0~0.0~0.0~0.0~0.0~0~0.0~0.0~0.0~0.0~0~0.0~0.0~0.0~135.0~494.0~493.0*
%ADD49D49*%
%ADD50R,0.185000X0.185000*%
%ADD51C,0.008000*%
%ADD62C,0.080000*%
%ADD63R,0.100000X0.100000*%
%ADD64C,0.040000*%
%ADD65C,0.058000*%
%ADD66R,0.058000X0.058000*%
G04~CAMADD=67~8~0.0~0.0~2130.0~2540.0~110.0~0.0~15~0.0~0.0~0.0~0.0~0~0.0~0.0~0.0~0.0~0~0.0~0.0~0.0~90.0~2540.0~2130.0*
%ADD67D67*%
%ADD68C,0.020000*%
%ADD69C,0.106000*%
%ADD70C,0.120000*%
%ADD71C,0.125000*%
G54D20*
X00465Y04417D03*
X00415D03*
X00365D03*
X00315D03*
X00265D03*
X00215D03*
X00165D03*
G54D21*
X00315Y04017D03*
G54D22*
X0063Y0131D03*
Y00916D03*
X00797D03*
X0063Y00838D03*
X00797D03*
X0063Y01074D03*
X00797D03*
X0063Y00995D03*
X00797D03*
Y0131D03*
X0063Y01231D03*
X00797D03*
X0063Y01153D03*
X00797D03*
G54D23*
X01094Y04382D03*
X01033D03*
X00972D03*
G54D24*
X01861Y04539D03*
X01729Y04407D03*
X01743Y04393D03*
X01785Y04351D03*
X01757Y04379D03*
X01889Y04511D03*
X01903Y04497D03*
X01875Y04525D03*
X01771Y04365D03*
G54D25*
X01917Y04483D03*
G54D26*
X0152Y01204D03*
X01546Y01178D03*
X01573Y01151D03*
X01579Y01263D03*
X01605Y01236D03*
X01631Y0121D03*
G54D27*
X02119Y01215D03*
Y01234D03*
Y01254D03*
Y01274D03*
Y01293D03*
Y01313D03*
Y01333D03*
Y01352D03*
Y01372D03*
Y01392D03*
Y01411D03*
Y01431D03*
X01802D03*
Y01411D03*
Y01392D03*
Y01372D03*
Y01352D03*
Y01333D03*
Y01313D03*
Y01293D03*
Y01274D03*
Y01254D03*
Y01234D03*
Y01215D03*
G54D28*
X01833Y01184D03*
X01853D03*
X01872D03*
X01892D03*
X01912D03*
X01931D03*
X01951D03*
X01971D03*
X0199D03*
X0201D03*
X0203D03*
X0205D03*
X02069D03*
X02089D03*
Y01462D03*
X02069D03*
X0205D03*
X0203D03*
X0201D03*
X0199D03*
X01971D03*
X01951D03*
X01931D03*
X01912D03*
X01892D03*
X01872D03*
X01853D03*
X01833D03*
G54D29*
X02006Y04222D03*
X01986D03*
X01966D03*
X02025D03*
X01888D03*
X01907D03*
X01927D03*
X01947D03*
X02163Y0382D03*
X02183D03*
X02222D03*
X02203D03*
X02104Y04222D03*
X02084D03*
X02065D03*
X02045D03*
X01888Y0382D03*
X01907D03*
X02104D03*
X02124D03*
X02143D03*
X01966D03*
X01947D03*
X01927D03*
X02025D03*
X02006D03*
X01986D03*
X02084D03*
X02065D03*
X02045D03*
X02183Y04222D03*
X02203D03*
X02222D03*
X02124D03*
X02143D03*
X02163D03*
G54D30*
X01854Y03873D03*
Y03853D03*
X02251Y0409D03*
Y04109D03*
Y04129D03*
Y04149D03*
Y03893D03*
Y03912D03*
Y03932D03*
Y04011D03*
Y04031D03*
Y0405D03*
Y0407D03*
X01854Y04188D03*
Y04168D03*
Y04149D03*
Y04129D03*
Y0405D03*
Y04031D03*
Y04011D03*
Y03893D03*
Y0409D03*
Y04109D03*
Y0407D03*
Y03971D03*
Y03991D03*
Y03932D03*
Y03952D03*
Y03912D03*
X02251Y03873D03*
Y03853D03*
Y03991D03*
Y03971D03*
Y03952D03*
Y04188D03*
Y04168D03*
G54D31*
X01989Y01081D03*
X01969D03*
X0195D03*
X0193D03*
Y01132D03*
X0195D03*
X01969D03*
X01989D03*
G54D32*
X00524Y04541D03*
X00434D03*
X00332D03*
X00242D03*
X00581Y04645D03*
X00491D03*
X0133D03*
X0124D03*
G54D33*
X01402Y04282D03*
G54D34*
X01402Y04332D03*
Y04382D03*
Y04432D03*
X01202Y04282D03*
Y04332D03*
Y04382D03*
Y04432D03*
G54D35*
X00918Y04542D03*
X01088D03*
X00918Y04517D03*
Y04491D03*
Y04466D03*
X01088Y04517D03*
Y04491D03*
X00918Y04294D03*
X01088D03*
X00918Y04268D03*
Y04243D03*
Y04217D03*
X01088Y04268D03*
Y04243D03*
X00918Y03779D03*
X01088D03*
X00918Y03753D03*
Y03728D03*
Y03702D03*
X01088Y03753D03*
Y03728D03*
G54D36*
X01088Y04466D03*
Y04217D03*
Y03702D03*
G54D37*
X0104Y04126D03*
G54D38*
X01014Y04126D03*
X00989D03*
X00963D03*
X00938D03*
X00912D03*
X00886D03*
X00861D03*
X00835D03*
X0081D03*
X0104Y03874D03*
X01014D03*
X00989D03*
X00963D03*
X00938D03*
X00912D03*
X00886D03*
X00861D03*
X00835D03*
X0081D03*
G54D39*
X01326Y03574D03*
Y03331D03*
X01357Y03574D03*
Y03331D03*
X01389Y03574D03*
Y03331D03*
X01421Y03574D03*
Y03331D03*
X01452Y03574D03*
Y03331D03*
X01484Y03574D03*
Y03331D03*
X01515Y03574D03*
Y03331D03*
X01546Y03574D03*
Y03331D03*
X01578Y03574D03*
Y03331D03*
X0161Y03574D03*
Y03331D03*
X01641Y03574D03*
Y03331D03*
X01673Y03574D03*
Y03331D03*
X01704Y03574D03*
Y03331D03*
X01735Y03574D03*
Y03331D03*
X01767Y03574D03*
Y03331D03*
X01798Y03574D03*
Y03331D03*
X0183Y03574D03*
Y03331D03*
X01862Y03574D03*
Y03331D03*
X01893Y03574D03*
Y03331D03*
X01924Y03574D03*
Y03331D03*
X01956Y03574D03*
Y03331D03*
X01987Y03574D03*
Y03331D03*
X02019Y03574D03*
Y03331D03*
X0205Y03574D03*
Y03331D03*
X02082Y03574D03*
Y03331D03*
X02114Y03574D03*
Y03331D03*
X02145Y03574D03*
Y03331D03*
X02177Y03574D03*
Y03331D03*
X02208Y03574D03*
Y03331D03*
X0224Y03574D03*
Y03331D03*
X02271Y03574D03*
Y03331D03*
X02303Y03574D03*
Y03331D03*
X02334Y03574D03*
Y03331D03*
X02365Y03574D03*
Y03331D03*
X02397Y03574D03*
Y03331D03*
X02428Y03574D03*
Y03331D03*
X0246Y03574D03*
Y03331D03*
X02491Y03574D03*
Y03331D03*
X02523Y03574D03*
Y03331D03*
X02555Y03574D03*
Y03331D03*
X01326Y01999D03*
Y01756D03*
X01357Y01999D03*
Y01756D03*
X01389Y01999D03*
Y01756D03*
X01421Y01999D03*
Y01756D03*
X01452Y01999D03*
Y01756D03*
X01484Y01999D03*
Y01756D03*
X01515Y01999D03*
Y01756D03*
X01546Y01999D03*
Y01756D03*
X01578Y01999D03*
Y01756D03*
X0161Y01999D03*
Y01756D03*
X01641Y01999D03*
Y01756D03*
X01673Y01999D03*
Y01756D03*
X01704Y01999D03*
Y01756D03*
X01735Y01999D03*
Y01756D03*
X01767Y01999D03*
Y01756D03*
X01798Y01999D03*
Y01756D03*
X0183Y01999D03*
Y01756D03*
X01862Y01999D03*
Y01756D03*
X01893Y01999D03*
Y01756D03*
X01924Y01999D03*
Y01756D03*
X01956Y01999D03*
Y01756D03*
X01987Y01999D03*
Y01756D03*
X02019Y01999D03*
Y01756D03*
X0205Y01999D03*
Y01756D03*
X02082Y01999D03*
Y01756D03*
X02114Y01999D03*
Y01756D03*
X02145Y01999D03*
Y01756D03*
X02177Y01999D03*
Y01756D03*
X02208Y01999D03*
Y01756D03*
X0224Y01999D03*
Y01756D03*
X02271Y01999D03*
Y01756D03*
X02303Y01999D03*
Y01756D03*
X02334Y01999D03*
Y01756D03*
X02365Y01999D03*
Y01756D03*
X02397Y01999D03*
Y01756D03*
X02428Y01999D03*
Y01756D03*
X0246Y01999D03*
Y01756D03*
X02491Y01999D03*
Y01756D03*
X02523Y01999D03*
Y01756D03*
X02555Y01999D03*
Y01756D03*
G54D40*
X00241Y0465D03*
X00376D03*
X00991D03*
X01126D03*
G54D41*
X03852Y05211D03*
Y04226D03*
Y03242D03*
Y02258D03*
Y01274D03*
Y00289D03*
Y05041D03*
Y05381D03*
Y04056D03*
Y04396D03*
Y03072D03*
Y03412D03*
Y02088D03*
Y02428D03*
Y01104D03*
Y01444D03*
Y00119D03*
Y00459D03*
G54D42*
X03582Y03109D03*
X03178D03*
X03582Y00421D03*
X03178D03*
G54D43*
X03555Y02776D03*
X03505D03*
X03455D03*
X03405D03*
X03205D03*
X03255D03*
X03305D03*
X03355D03*
X03405Y00754D03*
X03455D03*
X03505D03*
X03555D03*
X03355D03*
X03305D03*
X03255D03*
X03205D03*
G54D44*
X0366Y0245D03*
Y02515D03*
X0317Y0245D03*
Y02515D03*
X0333Y0245D03*
Y02515D03*
X035Y0245D03*
Y02515D03*
X0359Y0108D03*
Y01015D03*
X0343Y0108D03*
Y01015D03*
X0326Y0108D03*
Y01015D03*
X031Y0108D03*
Y01015D03*
X01808Y0074D03*
Y00805D03*
X01641Y0074D03*
Y00805D03*
X02285Y0074D03*
Y00805D03*
X02115Y0074D03*
Y00805D03*
X01496Y00896D03*
Y00831D03*
X01443Y00896D03*
Y00831D03*
X01922Y0074D03*
Y00805D03*
X01975Y0074D03*
Y00805D03*
X01786Y00935D03*
Y01D03*
X01657Y00999D03*
Y00934D03*
X0172Y00935D03*
Y01D03*
X01927Y01014D03*
Y00949D03*
X0199Y01014D03*
Y00949D03*
X02203Y00935D03*
Y01D03*
X02267Y00935D03*
Y01D03*
X02075D03*
Y00935D03*
X02136D03*
Y01D03*
X01849Y00935D03*
Y01D03*
X01478Y04378D03*
Y04443D03*
X01933Y01577D03*
Y01642D03*
X02029Y0074D03*
Y00805D03*
X01561Y00751D03*
Y00816D03*
X01096Y0402D03*
Y03955D03*
G54D45*
X0311Y0237D03*
X03175D03*
X0327D03*
X03335D03*
X035D03*
X03435D03*
X0366D03*
X03595D03*
X0311Y0259D03*
X03175D03*
X0327D03*
X03335D03*
X035D03*
X03435D03*
X0366D03*
X03595D03*
X0365Y0116D03*
X03585D03*
X0349D03*
X03425D03*
X0326D03*
X03325D03*
X031D03*
X03165D03*
X0365Y0094D03*
X03585D03*
X0349D03*
X03425D03*
X0326D03*
X03325D03*
X031D03*
X03165D03*
X02385Y04244D03*
X0232D03*
X01163Y045D03*
X01228D03*
X0232Y0419D03*
X02385D03*
X01666Y03905D03*
X01601D03*
X01458Y03903D03*
X01523D03*
X01387Y03901D03*
X01322D03*
Y03962D03*
X01387D03*
X01322Y03838D03*
X01387D03*
X01322Y03776D03*
X01387D03*
X01301Y045D03*
X01366D03*
G54D46*
X01661Y03821D03*
Y03686D03*
X01563Y03821D03*
Y03686D03*
G54D47*
X01673Y0114D03*
X01719Y01186D03*
X01372Y00668D03*
X01418Y00714D03*
X01417Y00624D03*
X01463Y0067D03*
X01758Y01148D03*
X01712Y01102D03*
X02493Y04424D03*
X02447Y04378D03*
X01847Y0428D03*
X01893Y04326D03*
X01936Y04369D03*
X01982Y04415D03*
X0172Y04301D03*
X01674Y04255D03*
X02491Y04332D03*
X02537Y04378D03*
X02275Y04496D03*
X02321Y04542D03*
Y04449D03*
X02367Y04495D03*
G54D48*
X0244Y01266D03*
X02345Y01171D03*
X02333Y01301D03*
X02238Y01206D03*
G54D49*
X02411Y04318D03*
X02457Y04272D03*
X02152Y01146D03*
X02198Y011D03*
X02254Y0428D03*
X02208Y04326D03*
X02165Y04369D03*
X02119Y04415D03*
X01621Y044D03*
X01667Y04354D03*
X01623Y04308D03*
X01577Y04354D03*
X01655Y0136D03*
X01701Y01314D03*
X01607Y01313D03*
X01653Y01267D03*
X01557Y01089D03*
X01511Y01135D03*
X01467Y01091D03*
X01513Y01045D03*
G54D50*
X02053Y04022D03*
G54D51*
X04Y0D02*
Y055D01*
X01193D02*
X04D01*
X0Y01681D02*
Y0365D01*
X00753Y0D02*
X04D01*
X0D02*
Y01681D01*
Y0D02*
X00753D01*
X0Y055D02*
X01193D01*
X0Y0365D02*
Y055D01*
G54D62*
X02405Y00174D03*
X01655D03*
X00492Y0488D03*
X01992Y04882D03*
X02742D03*
X01242Y0488D03*
G54D63*
X02505Y00074D03*
Y00274D03*
X02305D03*
Y00074D03*
X01755D03*
Y00274D03*
X01555D03*
Y00074D03*
X00592Y0478D03*
Y0498D03*
X00392D03*
Y0478D03*
X02092Y04782D03*
Y04982D03*
X01892D03*
Y04782D03*
X02842D03*
Y04982D03*
X02642D03*
Y04782D03*
X01342Y0478D03*
Y0498D03*
X01142D03*
Y0478D03*
G54D64*
X00714Y00877D03*
Y01271D03*
G54D65*
X00289Y00998D03*
Y00898D03*
Y00798D03*
X00155Y04832D03*
X0378Y01666D03*
Y01766D03*
X0348Y01666D03*
Y01766D03*
X0318Y01666D03*
Y01766D03*
G54D66*
X00289Y01098D03*
X00155Y04932D03*
X0378Y01866D03*
X0348D03*
X0318D03*
G54D67*
X01961Y01323D03*
G54D68*
X02619Y03533D03*
X01262D03*
X02619Y01957D03*
X01262D03*
G54D69*
X0363Y0329D03*
X0313D03*
X0363Y0024D03*
X0313D03*
G54D70*
X0016Y05285D03*
Y00585D03*
X02795D03*
Y05285D03*
G54D71*
X00118Y01799D03*
X02835D03*
Y03531D03*
X00118D03*
M02*