G04 Layer_Color=128*
%FSLAX23Y23*%
%MOIN*%
G70*
G01*
G75*
D15*
X4000Y-0D02*
Y5500D01*
X1193D02*
X4000D01*
X0Y1681D02*
Y3650D01*
X753Y-0D02*
X4000D01*
X0D02*
Y1681D01*
Y-0D02*
X753D01*
X0Y5500D02*
X1193D01*
X0Y3650D02*
Y5500D01*
D207*
X2379Y174D02*
X2431D01*
X2405Y148D02*
Y200D01*
X2470Y74D02*
X2540D01*
X2505Y39D02*
Y109D01*
X2470Y274D02*
X2540D01*
X2505Y239D02*
Y309D01*
X2270Y274D02*
X2340D01*
X2305Y239D02*
Y309D01*
X2270Y74D02*
X2340D01*
X2305Y39D02*
Y109D01*
X1629Y174D02*
X1681D01*
X1655Y148D02*
Y200D01*
X1720Y74D02*
X1790D01*
X1755Y39D02*
Y109D01*
X1720Y274D02*
X1790D01*
X1755Y239D02*
Y309D01*
X1520Y274D02*
X1590D01*
X1555Y239D02*
Y309D01*
X1520Y74D02*
X1590D01*
X1555Y39D02*
Y109D01*
X694Y877D02*
X734D01*
X714Y857D02*
Y897D01*
X694Y1271D02*
X734D01*
X714Y1251D02*
Y1291D01*
X268Y998D02*
X310D01*
X289Y977D02*
Y1019D01*
X268Y1098D02*
X310D01*
X289Y1077D02*
Y1119D01*
X268Y898D02*
X310D01*
X289Y877D02*
Y919D01*
X268Y798D02*
X310D01*
X289Y777D02*
Y819D01*
X1939Y1323D02*
X1983D01*
X1961Y1301D02*
Y1345D01*
X2599Y3533D02*
X2639D01*
X2619Y3513D02*
Y3553D01*
X1242Y3533D02*
X1281D01*
X1262Y3513D02*
Y3553D01*
X466Y4880D02*
X518D01*
X492Y4854D02*
Y4906D01*
X557Y4780D02*
X627D01*
X592Y4745D02*
Y4815D01*
X557Y4980D02*
X627D01*
X592Y4945D02*
Y5015D01*
X357Y4980D02*
X427D01*
X392Y4945D02*
Y5015D01*
X357Y4780D02*
X427D01*
X392Y4745D02*
Y4815D01*
X134Y4932D02*
X176D01*
X155Y4911D02*
Y4953D01*
X134Y4832D02*
X176D01*
X155Y4811D02*
Y4853D01*
X3577Y3290D02*
X3683D01*
X3630Y3237D02*
Y3343D01*
X3077Y3290D02*
X3183D01*
X3130Y3237D02*
Y3343D01*
X3761Y1666D02*
X3799D01*
X3780Y1647D02*
Y1685D01*
X3761Y1866D02*
X3799D01*
X3780Y1847D02*
Y1885D01*
X3761Y1766D02*
X3799D01*
X3780Y1747D02*
Y1785D01*
X3577Y240D02*
X3683D01*
X3630Y187D02*
Y293D01*
X3077Y240D02*
X3183D01*
X3130Y187D02*
Y293D01*
X3461Y1666D02*
X3499D01*
X3480Y1647D02*
Y1685D01*
X3461Y1866D02*
X3499D01*
X3480Y1847D02*
Y1885D01*
X3461Y1766D02*
X3499D01*
X3480Y1747D02*
Y1785D01*
X3161Y1666D02*
X3199D01*
X3180Y1647D02*
Y1685D01*
X3161Y1866D02*
X3199D01*
X3180Y1847D02*
Y1885D01*
X3161Y1766D02*
X3199D01*
X3180Y1747D02*
Y1785D01*
X100Y5285D02*
X220D01*
X160Y5225D02*
Y5345D01*
X100Y585D02*
X220D01*
X160Y525D02*
Y645D01*
X2735Y585D02*
X2855D01*
X2795Y525D02*
Y645D01*
X2735Y5285D02*
X2855D01*
X2795Y5225D02*
Y5345D01*
X1966Y4882D02*
X2018D01*
X1992Y4856D02*
Y4908D01*
X2057Y4782D02*
X2127D01*
X2092Y4747D02*
Y4817D01*
X2057Y4982D02*
X2127D01*
X2092Y4947D02*
Y5017D01*
X1857Y4982D02*
X1927D01*
X1892Y4947D02*
Y5017D01*
X1857Y4782D02*
X1927D01*
X1892Y4747D02*
Y4817D01*
X2716Y4882D02*
X2768D01*
X2742Y4856D02*
Y4908D01*
X2807Y4782D02*
X2877D01*
X2842Y4747D02*
Y4817D01*
X2807Y4982D02*
X2877D01*
X2842Y4947D02*
Y5017D01*
X2607Y4982D02*
X2677D01*
X2642Y4947D02*
Y5017D01*
X2607Y4782D02*
X2677D01*
X2642Y4747D02*
Y4817D01*
X1216Y4880D02*
X1268D01*
X1242Y4854D02*
Y4906D01*
X1307Y4780D02*
X1377D01*
X1342Y4745D02*
Y4815D01*
X1307Y4980D02*
X1377D01*
X1342Y4945D02*
Y5015D01*
X1107Y4980D02*
X1177D01*
X1142Y4945D02*
Y5015D01*
X1107Y4780D02*
X1177D01*
X1142Y4745D02*
Y4815D01*
X2599Y1957D02*
X2639D01*
X2619Y1938D02*
Y1977D01*
X1242Y1957D02*
X1281D01*
X1262Y1938D02*
Y1977D01*
X56Y1799D02*
X181D01*
X118Y1737D02*
Y1862D01*
X2772Y1799D02*
X2897D01*
X2835Y1737D02*
Y1862D01*
X2772Y3531D02*
X2897D01*
X2835Y3469D02*
Y3594D01*
X56Y3531D02*
X181D01*
X118Y3469D02*
Y3594D01*
X284Y4230D02*
X296D01*
X290Y4224D02*
Y4236D01*
X3744Y3210D02*
X3756D01*
X3750Y3204D02*
Y3216D01*
X3744Y5180D02*
X3756D01*
X3750Y5174D02*
Y5186D01*
X3744Y4200D02*
X3756D01*
X3750Y4194D02*
Y4206D01*
X3744Y2230D02*
X3756D01*
X3750Y2224D02*
Y2236D01*
X2244Y2240D02*
X2256D01*
X2250Y2234D02*
Y2246D01*
X2274Y2210D02*
X2286D01*
X2280Y2204D02*
Y2216D01*
X2328Y2090D02*
X2340D01*
X2334Y2084D02*
Y2096D01*
X2202Y2090D02*
X2214D01*
X2208Y2084D02*
Y2096D01*
X2234Y2060D02*
X2246D01*
X2240Y2054D02*
Y2066D01*
X2265Y2090D02*
X2277D01*
X2271Y2084D02*
Y2096D01*
X2296Y2060D02*
X2309D01*
X2303Y2054D02*
Y2066D01*
X3654Y2340D02*
X3666D01*
X3660Y2334D02*
Y2346D01*
X3494Y2340D02*
X3506D01*
X3500Y2334D02*
Y2346D01*
X3334Y2340D02*
X3346D01*
X3340Y2334D02*
Y2346D01*
X3174Y2340D02*
X3186D01*
X3180Y2334D02*
Y2346D01*
X2360Y2060D02*
X2372D01*
X2366Y2054D02*
Y2066D01*
X2391Y2090D02*
X2403D01*
X2397Y2084D02*
Y2096D01*
X2423Y2060D02*
X2435D01*
X2429Y2054D02*
Y2066D01*
X2454Y2090D02*
X2466D01*
X2460Y2084D02*
Y2096D01*
X2486Y2060D02*
X2497D01*
X2491Y2054D02*
Y2066D01*
X2517Y2090D02*
X2529D01*
X2523Y2084D02*
Y2096D01*
X2549Y2060D02*
X2560D01*
X2555Y2054D02*
Y2066D01*
X2146Y1705D02*
X2158D01*
X2152Y1699D02*
Y1711D01*
X3744Y1305D02*
X3756D01*
X3750Y1299D02*
Y1311D01*
X3744Y320D02*
X3756D01*
X3750Y314D02*
Y326D01*
X3574Y1190D02*
X3586D01*
X3580Y1184D02*
Y1196D01*
X3414Y1190D02*
X3426D01*
X3420Y1184D02*
Y1196D01*
X3254Y1190D02*
X3266D01*
X3260Y1184D02*
Y1196D01*
X3094Y1190D02*
X3106D01*
X3100Y1184D02*
Y1196D01*
X2486Y1700D02*
X2497D01*
X2491Y1694D02*
Y1706D01*
X3094Y2620D02*
X3106D01*
X3100Y2614D02*
Y2626D01*
X3254Y2620D02*
X3266D01*
X3260Y2614D02*
Y2626D01*
X3424Y2620D02*
X3436D01*
X3430Y2614D02*
Y2626D01*
X3584Y2620D02*
X3596D01*
X3590Y2614D02*
Y2626D01*
X3094Y2400D02*
X3106D01*
X3100Y2394D02*
Y2406D01*
X3254Y2400D02*
X3266D01*
X3260Y2394D02*
Y2406D01*
X3424Y2400D02*
X3436D01*
X3430Y2394D02*
Y2406D01*
X3584Y2400D02*
X3596D01*
X3590Y2394D02*
Y2406D01*
X3199Y2720D02*
X3211D01*
X3205Y2714D02*
Y2726D01*
X3299Y2720D02*
X3311D01*
X3305Y2714D02*
Y2726D01*
X3399Y2720D02*
X3411D01*
X3405Y2714D02*
Y2726D01*
X3499Y2720D02*
X3511D01*
X3505Y2714D02*
Y2726D01*
X3654Y910D02*
X3666D01*
X3660Y904D02*
Y916D01*
X3494Y910D02*
X3506D01*
X3500Y904D02*
Y916D01*
X3324Y910D02*
X3336D01*
X3330Y904D02*
Y916D01*
X3164Y910D02*
X3176D01*
X3170Y904D02*
Y916D01*
X3654Y1130D02*
X3666D01*
X3660Y1124D02*
Y1136D01*
X3494Y1130D02*
X3506D01*
X3500Y1124D02*
Y1136D01*
X3324Y1130D02*
X3336D01*
X3330Y1124D02*
Y1136D01*
X3164Y1130D02*
X3176D01*
X3170Y1124D02*
Y1136D01*
X3249Y810D02*
X3261D01*
X3255Y804D02*
Y816D01*
X3349Y810D02*
X3361D01*
X3355Y804D02*
Y816D01*
X3449Y810D02*
X3461D01*
X3455Y804D02*
Y816D01*
X3549Y810D02*
X3561D01*
X3555Y804D02*
Y816D01*
X3744Y119D02*
X3756D01*
X3750Y113D02*
Y125D01*
X3744Y459D02*
X3756D01*
X3750Y453D02*
Y465D01*
X3744Y1104D02*
X3756D01*
X3750Y1098D02*
Y1110D01*
X3744Y1444D02*
X3756D01*
X3750Y1438D02*
Y1450D01*
X3744Y2088D02*
X3756D01*
X3750Y2082D02*
Y2094D01*
X3744Y2428D02*
X3756D01*
X3750Y2422D02*
Y2434D01*
X3744Y3072D02*
X3756D01*
X3750Y3066D02*
Y3078D01*
X3744Y3412D02*
X3756D01*
X3750Y3406D02*
Y3418D01*
X3744Y4056D02*
X3756D01*
X3750Y4050D02*
Y4062D01*
X3744Y4396D02*
X3756D01*
X3750Y4390D02*
Y4402D01*
X3744Y5041D02*
X3756D01*
X3750Y5035D02*
Y5047D01*
X3744Y5381D02*
X3756D01*
X3750Y5375D02*
Y5387D01*
X772Y3410D02*
X788D01*
X780Y3402D02*
Y3418D01*
X308Y4480D02*
X322D01*
X315Y4472D02*
Y4488D01*
X2432Y4128D02*
X2447D01*
X2439Y4121D02*
Y4136D01*
X2540Y2751D02*
X2552D01*
X2546Y2745D02*
Y2757D01*
X2395Y4130D02*
X2410D01*
X2403Y4122D02*
Y4137D01*
X2503Y2751D02*
X2516D01*
X2510Y2745D02*
Y2757D01*
X2359Y4060D02*
X2371D01*
X2365Y4054D02*
Y4066D01*
X2466Y2830D02*
X2478D01*
X2472Y2824D02*
Y2836D01*
X2360Y4096D02*
X2372D01*
X2366Y4090D02*
Y4102D01*
X2468Y2789D02*
X2480D01*
X2474Y2783D02*
Y2795D01*
X2396Y4094D02*
X2408D01*
X2402Y4088D02*
Y4100D01*
X2504Y2790D02*
X2516D01*
X2510Y2784D02*
Y2796D01*
X2026Y4660D02*
X2038D01*
X2032Y4654D02*
Y4666D01*
X2657Y2751D02*
X2672D01*
X2665Y2744D02*
Y2759D01*
X2010Y4621D02*
X2022D01*
X2016Y4615D02*
Y4627D01*
X2623Y2752D02*
X2635D01*
X2629Y2746D02*
Y2758D01*
X1979Y4590D02*
X1991D01*
X1985Y4584D02*
Y4596D01*
X2625Y2788D02*
X2637D01*
X2631Y2782D02*
Y2794D01*
X2524Y4291D02*
X2536D01*
X2530Y4285D02*
Y4297D01*
X2589Y2789D02*
X2601D01*
X2595Y2783D02*
Y2795D01*
X1805Y3722D02*
X1817D01*
X1811Y3716D02*
Y3728D01*
X1794Y3267D02*
X1806D01*
X1800Y3261D02*
Y3273D01*
X1817Y3759D02*
X1829D01*
X1823Y3753D02*
Y3765D01*
X1829Y3267D02*
X1841D01*
X1835Y3261D02*
Y3273D01*
X2454Y1675D02*
X2466D01*
X2460Y1669D02*
Y1681D01*
X2391Y1675D02*
X2402D01*
X2397Y1669D02*
Y1681D01*
X2422Y1700D02*
X2434D01*
X2428Y1694D02*
Y1706D01*
X2359Y1700D02*
X2371D01*
X2365Y1694D02*
Y1706D01*
X1827Y575D02*
X1842D01*
X1835Y567D02*
Y582D01*
X1533Y2071D02*
X1545D01*
X1539Y2065D02*
Y2077D01*
X2087Y566D02*
X2099D01*
X2093Y560D02*
Y572D01*
X1496Y551D02*
X1508D01*
X1502Y545D02*
Y557D01*
X1568Y2071D02*
X1580D01*
X1574Y2065D02*
Y2077D01*
X2114Y601D02*
X2126D01*
X2120Y595D02*
Y607D01*
X1460Y581D02*
X1472D01*
X1466Y575D02*
Y587D01*
X1603Y2071D02*
X1615D01*
X1609Y2065D02*
Y2077D01*
X1644Y2071D02*
X1656D01*
X1650Y2065D02*
Y2077D01*
X2140Y631D02*
X2152D01*
X2146Y625D02*
Y637D01*
X1494Y630D02*
X1506D01*
X1500Y624D02*
Y636D01*
X1460Y2054D02*
X1472D01*
X1466Y2048D02*
Y2060D01*
X1446Y1702D02*
X1458D01*
X1452Y1696D02*
Y1708D01*
X1319Y1702D02*
X1331D01*
X1325Y1696D02*
Y1708D01*
X1446Y3634D02*
X1458D01*
X1452Y3628D02*
Y3640D01*
X1352Y3634D02*
X1363D01*
X1357Y3628D02*
Y3640D01*
X1347Y3275D02*
X1359D01*
X1353Y3269D02*
Y3281D01*
X1386Y3275D02*
X1398D01*
X1392Y3269D02*
Y3281D01*
X1421Y3275D02*
X1434D01*
X1428Y3269D02*
Y3281D01*
X1457Y3275D02*
X1469D01*
X1463Y3269D02*
Y3281D01*
X1429Y805D02*
X1441D01*
X1435Y799D02*
Y811D01*
X1461Y933D02*
X1473D01*
X1467Y927D02*
Y939D01*
X1468Y719D02*
X1480D01*
X1474Y713D02*
Y725D01*
X1444Y4338D02*
X1456D01*
X1450Y4332D02*
Y4344D01*
X1429Y4455D02*
X1441D01*
X1435Y4449D02*
Y4461D01*
X2492Y4261D02*
X2504D01*
X2498Y4255D02*
Y4267D01*
X2223Y4351D02*
X2237D01*
X2230Y4344D02*
Y4359D01*
X1971Y4000D02*
X1983D01*
X1977Y3994D02*
Y4006D01*
X1971Y4049D02*
X1983D01*
X1977Y4043D02*
Y4055D01*
X2123Y4000D02*
X2135D01*
X2129Y3994D02*
Y4006D01*
X2123Y4049D02*
X2135D01*
X2129Y4043D02*
Y4055D01*
X2031Y4022D02*
X2075D01*
X2053Y4000D02*
Y4044D01*
X2123Y3946D02*
X2135D01*
X2129Y3940D02*
Y3952D01*
X1971Y3946D02*
X1983D01*
X1977Y3940D02*
Y3952D01*
X2025Y3946D02*
X2037D01*
X2031Y3940D02*
Y3952D01*
X2074Y3946D02*
X2086D01*
X2080Y3940D02*
Y3952D01*
X2053Y1323D02*
X2069D01*
X2061Y1316D02*
Y1331D01*
X2003Y1323D02*
X2019D01*
X2011Y1316D02*
Y1331D01*
X1854Y1323D02*
X1868D01*
X1861Y1316D02*
Y1331D01*
X1903Y1323D02*
X1918D01*
X1911Y1316D02*
Y1331D01*
X1854Y1375D02*
X1868D01*
X1861Y1367D02*
Y1383D01*
X2053Y1375D02*
X2069D01*
X2061Y1367D02*
Y1383D01*
X2003Y1375D02*
X2019D01*
X2011Y1367D02*
Y1383D01*
X1954Y1375D02*
X1969D01*
X1961Y1367D02*
Y1383D01*
X1903Y1375D02*
X1918D01*
X1911Y1367D02*
Y1383D01*
X1903Y1271D02*
X1918D01*
X1911Y1263D02*
Y1278D01*
X1954Y1271D02*
X1969D01*
X1961Y1263D02*
Y1278D01*
X2003Y1271D02*
X2019D01*
X2011Y1263D02*
Y1278D01*
X2053Y1271D02*
X2069D01*
X2061Y1263D02*
Y1278D01*
X1854Y1271D02*
X1868D01*
X1861Y1263D02*
Y1278D01*
X1903Y1231D02*
X1918D01*
X1911Y1223D02*
Y1238D01*
X1954Y1231D02*
X1969D01*
X1961Y1223D02*
Y1238D01*
X2003Y1231D02*
X2019D01*
X2011Y1223D02*
Y1238D01*
X2053Y1231D02*
X2069D01*
X2061Y1223D02*
Y1238D01*
X1854Y1231D02*
X1868D01*
X1861Y1223D02*
Y1238D01*
X1854Y1415D02*
X1868D01*
X1861Y1408D02*
Y1423D01*
X2053Y1415D02*
X2069D01*
X2061Y1408D02*
Y1423D01*
X2003Y1415D02*
X2019D01*
X2011Y1408D02*
Y1423D01*
X1954Y1415D02*
X1969D01*
X1961Y1408D02*
Y1423D01*
X1903Y1415D02*
X1918D01*
X1911Y1408D02*
Y1423D01*
X1590Y783D02*
X1602D01*
X1596Y777D02*
Y789D01*
X1758Y2543D02*
X1773D01*
X1765Y2536D02*
Y2550D01*
X1758Y2493D02*
X1773D01*
X1765Y2486D02*
Y2500D01*
X1991Y912D02*
X2003D01*
X1997Y906D02*
Y918D01*
X2534Y1701D02*
X2546D01*
X2540Y1695D02*
Y1707D01*
X2186Y1705D02*
X2198D01*
X2192Y1699D02*
Y1711D01*
X1853Y1701D02*
X1865D01*
X1859Y1695D02*
Y1707D01*
X1492Y1701D02*
X1505D01*
X1498Y1695D02*
Y1707D01*
X1495Y2054D02*
X1507D01*
X1500Y2048D02*
Y2060D01*
X1304Y2054D02*
X1316D01*
X1309Y2048D02*
Y2060D01*
X2535Y3268D02*
X2547D01*
X2541Y3262D02*
Y3274D01*
X1304Y3276D02*
X1316D01*
X1309Y3270D02*
Y3282D01*
X1492Y3276D02*
X1505D01*
X1498Y3270D02*
Y3282D01*
X1347Y3111D02*
X1359D01*
X1353Y3105D02*
Y3117D01*
X2159Y3640D02*
X2171D01*
X2165Y3634D02*
Y3646D01*
X2184Y3759D02*
X2196D01*
X2190Y3753D02*
Y3765D01*
X2172Y3722D02*
X2184D01*
X2178Y3716D02*
Y3728D01*
X1841Y3638D02*
X1853D01*
X1847Y3632D02*
Y3644D01*
X573Y251D02*
X585D01*
X579Y245D02*
Y257D01*
X1137Y251D02*
X1149D01*
X1143Y245D02*
Y257D01*
X1231Y651D02*
X1243D01*
X1237Y645D02*
Y657D01*
X1225Y1102D02*
X1237D01*
X1231Y1096D02*
Y1108D01*
X1279Y1516D02*
X1291D01*
X1285Y1510D02*
Y1522D01*
X585Y1341D02*
X597D01*
X591Y1335D02*
Y1347D01*
X405Y1699D02*
X417D01*
X411Y1693D02*
Y1705D01*
X50Y3155D02*
X62D01*
X56Y3149D02*
Y3161D01*
X506Y2920D02*
X518D01*
X512Y2914D02*
Y2926D01*
X132Y2765D02*
X144D01*
X138Y2759D02*
Y2771D01*
X388Y2706D02*
X400D01*
X394Y2700D02*
Y2712D01*
X336Y2337D02*
X348D01*
X342Y2331D02*
Y2343D01*
X845Y2339D02*
X857D01*
X851Y2333D02*
Y2345D01*
X1701Y2129D02*
X1713D01*
X1707Y2123D02*
Y2135D01*
X1475Y2231D02*
X1487D01*
X1481Y2225D02*
Y2237D01*
X1322Y2209D02*
X1334D01*
X1328Y2203D02*
Y2215D01*
X2114Y2125D02*
X2126D01*
X2120Y2119D02*
Y2131D01*
X1805Y2345D02*
X1817D01*
X1811Y2339D02*
Y2351D01*
X2038Y2507D02*
X2050D01*
X2044Y2501D02*
Y2513D01*
X1700Y2717D02*
X1712D01*
X1706Y2711D02*
Y2723D01*
X2375Y2722D02*
X2387D01*
X2381Y2716D02*
Y2728D01*
X2132Y2767D02*
X2144D01*
X2138Y2761D02*
Y2773D01*
X2507Y2920D02*
X2519D01*
X2513Y2914D02*
Y2926D01*
X2063Y3114D02*
X2075D01*
X2069Y3108D02*
Y3120D01*
X1787Y2912D02*
X1799D01*
X1793Y2906D02*
Y2918D01*
X1542Y2767D02*
X1554D01*
X1548Y2761D02*
Y2773D01*
X1155Y3610D02*
X1167D01*
X1161Y3604D02*
Y3616D01*
X1366Y4680D02*
X1378D01*
X1372Y4674D02*
Y4686D01*
X1742Y4319D02*
X1754D01*
X1748Y4313D02*
Y4325D01*
X691Y4038D02*
X703D01*
X697Y4032D02*
Y4044D01*
X1988Y3249D02*
X2000D01*
X1994Y3243D02*
Y3255D01*
X1935Y3722D02*
X1947D01*
X1941Y3716D02*
Y3728D01*
X1962Y3272D02*
X1974D01*
X1968Y3266D02*
Y3278D01*
X1947Y3759D02*
X1959D01*
X1953Y3753D02*
Y3765D01*
X2026Y3759D02*
X2038D01*
X2032Y3753D02*
Y3765D01*
X2047Y3251D02*
X2059D01*
X2053Y3245D02*
Y3257D01*
X2018Y3234D02*
X2030D01*
X2024Y3228D02*
Y3240D01*
X2014Y3722D02*
X2026D01*
X2020Y3716D02*
Y3728D01*
X1907Y3272D02*
X1919D01*
X1913Y3266D02*
Y3278D01*
X1494Y1020D02*
X1506D01*
X1500Y1014D02*
Y1026D01*
X2462Y3266D02*
X2474D01*
X2468Y3260D02*
Y3272D01*
X2321Y3995D02*
X2333D01*
X2327Y3989D02*
Y4001D01*
X2286Y3977D02*
X2298D01*
X2292Y3971D02*
Y3983D01*
X2427Y3266D02*
X2439D01*
X2433Y3260D02*
Y3272D01*
X2393Y3267D02*
X2405D01*
X2399Y3261D02*
Y3273D01*
X2358Y3267D02*
X2370D01*
X2364Y3261D02*
Y3273D01*
X2324Y3891D02*
X2336D01*
X2330Y3885D02*
Y3897D01*
X2288Y3891D02*
X2300D01*
X2294Y3885D02*
Y3897D01*
X2291Y407D02*
X2303D01*
X2297Y401D02*
Y413D01*
X1639Y407D02*
X1651D01*
X1645Y401D02*
Y413D01*
X817Y455D02*
X831D01*
X824Y447D02*
Y463D01*
X266Y400D02*
X282D01*
X274Y393D02*
Y407D01*
X887Y854D02*
X902D01*
X895Y846D02*
Y862D01*
X102Y3049D02*
X117D01*
X110Y3042D02*
Y3056D01*
X2030Y2973D02*
X2046D01*
X2038Y2966D02*
Y2981D01*
X902Y2901D02*
X918D01*
X910Y2894D02*
Y2908D01*
X1072Y2711D02*
X1087D01*
X1080Y2704D02*
Y2718D01*
X1324Y2970D02*
X1339D01*
X1331Y2963D02*
Y2977D01*
X590Y2625D02*
X604D01*
X597Y2618D02*
Y2633D01*
X90Y2625D02*
X105D01*
X97Y2618D02*
Y2633D01*
X1204Y2415D02*
X1219D01*
X1212Y2408D02*
Y2423D01*
X403Y1605D02*
X419D01*
X411Y1597D02*
Y1612D01*
X2557Y3191D02*
X2572D01*
X2565Y3184D02*
Y3199D01*
X1942Y3067D02*
X1957D01*
X1950Y3060D02*
Y3075D01*
X2011Y2116D02*
X2026D01*
X2019Y2109D02*
Y2124D01*
X1268Y454D02*
X1283D01*
X1276Y447D02*
Y461D01*
X697Y453D02*
X712D01*
X705Y445D02*
Y461D01*
X1266Y943D02*
X1281D01*
X1274Y936D02*
Y951D01*
X375Y2631D02*
X389D01*
X382Y2624D02*
Y2639D01*
X874Y2631D02*
X890D01*
X882Y2624D02*
Y2639D01*
X1590Y818D02*
X1602D01*
X1596Y812D02*
Y824D01*
X1943Y1672D02*
X1955D01*
X1949Y1666D02*
Y1678D01*
X1707Y4028D02*
X1719D01*
X1713Y4022D02*
Y4034D01*
X1691Y4187D02*
X1703D01*
X1697Y4181D02*
Y4193D01*
X2030Y3858D02*
X2042D01*
X2036Y3852D02*
Y3864D01*
X2394Y4216D02*
X2406D01*
X2400Y4210D02*
Y4222D01*
X2069Y3858D02*
X2081D01*
X2075Y3852D02*
Y3864D01*
X1807Y4211D02*
X1819D01*
X1813Y4205D02*
Y4217D01*
X1807Y4070D02*
X1819D01*
X1813Y4064D02*
Y4076D01*
X1816Y4280D02*
X1828D01*
X1822Y4274D02*
Y4286D01*
X2273Y4280D02*
X2285D01*
X2279Y4274D02*
Y4286D01*
X2102Y4445D02*
X2114D01*
X2108Y4439D02*
Y4451D01*
X1987Y4445D02*
X1999D01*
X1993Y4439D02*
Y4451D01*
X2206Y4260D02*
X2218D01*
X2212Y4254D02*
Y4266D01*
X1892Y4260D02*
X1904D01*
X1898Y4254D02*
Y4266D01*
X2151Y4170D02*
X2163D01*
X2157Y4164D02*
Y4176D01*
X2092Y4180D02*
X2104D01*
X2098Y4174D02*
Y4186D01*
X2074Y4098D02*
X2086D01*
X2080Y4092D02*
Y4104D01*
X2025Y4098D02*
X2037D01*
X2031Y4092D02*
Y4104D01*
X1971Y4098D02*
X1983D01*
X1977Y4092D02*
Y4104D01*
X2123Y4098D02*
X2135D01*
X2129Y4092D02*
Y4104D01*
X2202Y4035D02*
X2214D01*
X2208Y4029D02*
Y4041D01*
X2207Y4080D02*
X2219D01*
X2213Y4074D02*
Y4086D01*
X1886Y4080D02*
X1898D01*
X1892Y4074D02*
Y4086D01*
X1891Y4035D02*
X1903D01*
X1897Y4029D02*
Y4041D01*
X2033Y4180D02*
X2045D01*
X2039Y4174D02*
Y4186D01*
X1974Y4180D02*
X1986D01*
X1980Y4174D02*
Y4186D01*
X1927Y4170D02*
X1939D01*
X1933Y4164D02*
Y4176D01*
X1807Y4105D02*
X1819D01*
X1813Y4099D02*
Y4111D01*
X1807Y4175D02*
X1819D01*
X1813Y4169D02*
Y4181D01*
X2212Y1080D02*
X2224D01*
X2218Y1074D02*
Y1086D01*
X1677Y1093D02*
X1689D01*
X1683Y1087D02*
Y1099D01*
X1444Y3872D02*
X1456D01*
X1450Y3866D02*
Y3878D01*
X1272Y3963D02*
X1287D01*
X1279Y3955D02*
Y3970D01*
X1270Y3776D02*
X1285D01*
X1277Y3769D02*
Y3784D01*
X1270Y3838D02*
X1285D01*
X1277Y3831D02*
Y3846D01*
X1270Y3902D02*
X1285D01*
X1277Y3894D02*
Y3909D01*
X2420Y482D02*
X2435D01*
X2427Y474D02*
Y489D01*
X2136Y524D02*
X2151D01*
X2144Y516D02*
Y531D01*
X2136Y488D02*
X2151D01*
X2144Y480D02*
Y495D01*
X1847Y481D02*
X1862D01*
X1854Y473D02*
Y488D01*
X2321Y806D02*
X2336D01*
X2329Y799D02*
Y813D01*
X2056Y818D02*
X2068D01*
X2062Y812D02*
Y824D01*
X2069Y851D02*
X2081D01*
X2075Y845D02*
Y857D01*
X2059Y783D02*
X2071D01*
X2065Y777D02*
Y789D01*
X1952Y950D02*
X1967D01*
X1960Y942D02*
Y957D01*
X2392Y4372D02*
X2408D01*
X2400Y4365D02*
Y4379D01*
X2353Y4330D02*
X2368D01*
X2361Y4323D02*
Y4338D01*
X2182Y4395D02*
X2197D01*
X2190Y4387D02*
Y4402D01*
X1916Y912D02*
X1928D01*
X1922Y906D02*
Y918D01*
X1842Y852D02*
X1854D01*
X1848Y846D02*
Y858D01*
X1598Y852D02*
X1610D01*
X1604Y846D02*
Y858D01*
X2124Y1193D02*
X2136D01*
X2130Y1187D02*
Y1199D01*
X1778Y1200D02*
X1790D01*
X1784Y1194D02*
Y1206D01*
X1563Y483D02*
X1578D01*
X1570Y475D02*
Y490D01*
X1563Y522D02*
X1578D01*
X1570Y514D02*
Y529D01*
X1882Y3247D02*
X1894D01*
X1888Y3241D02*
Y3253D01*
X2105Y3759D02*
X2117D01*
X2111Y3753D02*
Y3765D01*
X2093Y3722D02*
X2105D01*
X2099Y3716D02*
Y3728D01*
X2112Y3267D02*
X2125D01*
X2118Y3261D02*
Y3273D01*
X2078Y3267D02*
X2089D01*
X2083Y3261D02*
Y3273D01*
X2146Y3267D02*
X2158D01*
X2152Y3261D02*
Y3273D01*
X2202Y3267D02*
X2214D01*
X2208Y3261D02*
Y3273D01*
X2270Y3267D02*
X2282D01*
X2276Y3261D02*
Y3273D01*
X2235Y3267D02*
X2247D01*
X2241Y3261D02*
Y3273D01*
X2243Y3759D02*
X2255D01*
X2249Y3753D02*
Y3765D01*
X2231Y3722D02*
X2243D01*
X2237Y3716D02*
Y3728D01*
X1887Y3722D02*
X1899D01*
X1893Y3716D02*
Y3728D01*
X1875Y3759D02*
X1887D01*
X1881Y3753D02*
Y3765D01*
X1965Y1500D02*
X1977D01*
X1971Y1494D02*
Y1506D01*
X1666Y3875D02*
X1681D01*
X1673Y3867D02*
Y3882D01*
X1916Y4540D02*
X1931D01*
X1924Y4532D02*
Y4547D01*
X1954Y4514D02*
X1966D01*
X1960Y4508D02*
Y4520D01*
X1632Y4265D02*
X1644D01*
X1638Y4259D02*
Y4271D01*
X2142Y4521D02*
X2154D01*
X2148Y4515D02*
Y4527D01*
X2174Y4543D02*
X2189D01*
X2181Y4535D02*
Y4550D01*
X2309Y4412D02*
X2324D01*
X2316Y4405D02*
Y4420D01*
X2353Y4533D02*
X2365D01*
X2359Y4527D02*
Y4539D01*
X1782Y4410D02*
X1794D01*
X1788Y4404D02*
Y4416D01*
X1970Y4656D02*
X1982D01*
X1976Y4650D02*
Y4662D01*
X1936Y1541D02*
X1948D01*
X1942Y1535D02*
Y1547D01*
X1099Y3820D02*
X1111D01*
X1105Y3814D02*
Y3826D01*
X1158Y3730D02*
X1170D01*
X1164Y3724D02*
Y3736D01*
X854Y4490D02*
X866D01*
X860Y4484D02*
Y4496D01*
X1094Y4575D02*
X1106D01*
X1100Y4569D02*
Y4581D01*
X1124Y4315D02*
X1136D01*
X1130Y4309D02*
Y4321D01*
X1154Y4215D02*
X1166D01*
X1160Y4209D02*
Y4221D01*
X1114Y4365D02*
X1126D01*
X1120Y4359D02*
Y4371D01*
X1174Y4530D02*
X1186D01*
X1180Y4524D02*
Y4536D01*
X1389Y4529D02*
X1401D01*
X1395Y4523D02*
Y4535D01*
X282Y4302D02*
X298D01*
X290Y4294D02*
Y4310D01*
X619Y4610D02*
X631D01*
X625Y4604D02*
Y4616D01*
X564Y4500D02*
X576D01*
X570Y4494D02*
Y4506D01*
X859Y3940D02*
X871D01*
X865Y3934D02*
Y3946D01*
X864Y3725D02*
X876D01*
X870Y3719D02*
Y3731D01*
X1844Y3238D02*
X1856D01*
X1850Y3232D02*
Y3244D01*
X2174Y3238D02*
X2186D01*
X2180Y3232D02*
Y3244D01*
X1268Y1393D02*
X1283D01*
X1275Y1385D02*
Y1401D01*
X904Y3287D02*
X919D01*
X911Y3280D02*
Y3295D01*
X744Y4200D02*
X756D01*
X750Y4194D02*
Y4206D01*
X894Y4600D02*
X906D01*
X900Y4594D02*
Y4606D01*
X954Y4595D02*
X966D01*
X960Y4589D02*
Y4601D01*
X914Y3660D02*
X926D01*
X920Y3654D02*
Y3666D01*
X1009Y3810D02*
X1021D01*
X1015Y3804D02*
Y3816D01*
X1054Y3825D02*
X1066D01*
X1060Y3819D02*
Y3831D01*
X904Y3820D02*
X916D01*
X910Y3814D02*
Y3826D01*
X864Y4205D02*
X876D01*
X870Y4199D02*
Y4211D01*
X1149Y4455D02*
X1161D01*
X1155Y4449D02*
Y4461D01*
X837Y4321D02*
X849D01*
X843Y4315D02*
Y4327D01*
X1224Y4240D02*
X1236D01*
X1230Y4234D02*
Y4246D01*
X829Y4085D02*
X841D01*
X835Y4079D02*
Y4091D01*
X784Y4140D02*
X796D01*
X790Y4134D02*
Y4146D01*
X941Y4036D02*
X953D01*
X947Y4030D02*
Y4042D01*
X1020Y4036D02*
X1032D01*
X1026Y4030D02*
Y4042D01*
X691Y4109D02*
X703D01*
X697Y4103D02*
Y4115D01*
X43Y4085D02*
X58D01*
X50Y4077D02*
Y4093D01*
X93Y4085D02*
X108D01*
X100Y4077D02*
Y4093D01*
X142Y4085D02*
X157D01*
X150Y4077D02*
Y4093D01*
X192Y4085D02*
X207D01*
X200Y4077D02*
Y4093D01*
X243Y4085D02*
X257D01*
X250Y4077D02*
Y4093D01*
X292Y4085D02*
X308D01*
X300Y4077D02*
Y4093D01*
X343Y4085D02*
X357D01*
X350Y4077D02*
Y4093D01*
X393Y4085D02*
X407D01*
X400Y4077D02*
Y4093D01*
X442Y4085D02*
X458D01*
X450Y4077D02*
Y4093D01*
X493Y4085D02*
X507D01*
X500Y4077D02*
Y4093D01*
X543Y4085D02*
X558D01*
X550Y4077D02*
Y4093D01*
X543Y4035D02*
X558D01*
X550Y4028D02*
Y4043D01*
X493Y4035D02*
X507D01*
X500Y4028D02*
Y4043D01*
X442Y4035D02*
X458D01*
X450Y4028D02*
Y4043D01*
X393Y4035D02*
X407D01*
X400Y4028D02*
Y4043D01*
X343Y4035D02*
X357D01*
X350Y4028D02*
Y4043D01*
X292Y4035D02*
X308D01*
X300Y4028D02*
Y4043D01*
X243Y4035D02*
X257D01*
X250Y4028D02*
Y4043D01*
X192Y4035D02*
X207D01*
X200Y4028D02*
Y4043D01*
X142Y4035D02*
X157D01*
X150Y4028D02*
Y4043D01*
X93Y4035D02*
X108D01*
X100Y4028D02*
Y4043D01*
X43Y4035D02*
X58D01*
X50Y4028D02*
Y4043D01*
X543Y3985D02*
X558D01*
X550Y3977D02*
Y3993D01*
X493Y3985D02*
X507D01*
X500Y3977D02*
Y3993D01*
X442Y3985D02*
X458D01*
X450Y3977D02*
Y3993D01*
X393Y3985D02*
X407D01*
X400Y3977D02*
Y3993D01*
X343Y3985D02*
X357D01*
X350Y3977D02*
Y3993D01*
X292Y3985D02*
X308D01*
X300Y3977D02*
Y3993D01*
X243Y3985D02*
X257D01*
X250Y3977D02*
Y3993D01*
X192Y3985D02*
X207D01*
X200Y3977D02*
Y3993D01*
X142Y3985D02*
X157D01*
X150Y3977D02*
Y3993D01*
X93Y3985D02*
X108D01*
X100Y3977D02*
Y3993D01*
X43Y3985D02*
X58D01*
X50Y3977D02*
Y3993D01*
X543Y3935D02*
X558D01*
X550Y3928D02*
Y3943D01*
X493Y3935D02*
X507D01*
X500Y3928D02*
Y3943D01*
X442Y3935D02*
X458D01*
X450Y3928D02*
Y3943D01*
X393Y3935D02*
X407D01*
X400Y3928D02*
Y3943D01*
X343Y3935D02*
X357D01*
X350Y3928D02*
Y3943D01*
X292Y3935D02*
X308D01*
X300Y3928D02*
Y3943D01*
X243Y3935D02*
X257D01*
X250Y3928D02*
Y3943D01*
X192Y3935D02*
X207D01*
X200Y3928D02*
Y3943D01*
X142Y3935D02*
X157D01*
X150Y3928D02*
Y3943D01*
X93Y3935D02*
X108D01*
X100Y3928D02*
Y3943D01*
X43Y3935D02*
X58D01*
X50Y3928D02*
Y3943D01*
X543Y3885D02*
X558D01*
X550Y3878D02*
Y3892D01*
X493Y3885D02*
X507D01*
X500Y3878D02*
Y3892D01*
X442Y3885D02*
X458D01*
X450Y3878D02*
Y3892D01*
X393Y3885D02*
X407D01*
X400Y3878D02*
Y3892D01*
X343Y3885D02*
X357D01*
X350Y3878D02*
Y3892D01*
X292Y3885D02*
X308D01*
X300Y3878D02*
Y3892D01*
X243Y3885D02*
X257D01*
X250Y3878D02*
Y3892D01*
X192Y3885D02*
X207D01*
X200Y3878D02*
Y3892D01*
X142Y3885D02*
X157D01*
X150Y3878D02*
Y3892D01*
X93Y3885D02*
X108D01*
X100Y3878D02*
Y3892D01*
X43Y3885D02*
X58D01*
X50Y3878D02*
Y3892D01*
X543Y3835D02*
X558D01*
X550Y3828D02*
Y3842D01*
X493Y3835D02*
X507D01*
X500Y3828D02*
Y3842D01*
X442Y3835D02*
X458D01*
X450Y3828D02*
Y3842D01*
X393Y3835D02*
X407D01*
X400Y3828D02*
Y3842D01*
X343Y3835D02*
X357D01*
X350Y3828D02*
Y3842D01*
X292Y3835D02*
X308D01*
X300Y3828D02*
Y3842D01*
X243Y3835D02*
X257D01*
X250Y3828D02*
Y3842D01*
X192Y3835D02*
X207D01*
X200Y3828D02*
Y3842D01*
X142Y3835D02*
X157D01*
X150Y3828D02*
Y3842D01*
X93Y3835D02*
X108D01*
X100Y3828D02*
Y3842D01*
X43Y3835D02*
X58D01*
X50Y3828D02*
Y3842D01*
X543Y3785D02*
X558D01*
X550Y3777D02*
Y3793D01*
X493Y3785D02*
X507D01*
X500Y3777D02*
Y3793D01*
X442Y3785D02*
X458D01*
X450Y3777D02*
Y3793D01*
X393Y3785D02*
X407D01*
X400Y3777D02*
Y3793D01*
X343Y3785D02*
X357D01*
X350Y3777D02*
Y3793D01*
X292Y3785D02*
X308D01*
X300Y3777D02*
Y3793D01*
X243Y3785D02*
X257D01*
X250Y3777D02*
Y3793D01*
X192Y3785D02*
X207D01*
X200Y3777D02*
Y3793D01*
X142Y3785D02*
X157D01*
X150Y3777D02*
Y3793D01*
X93Y3785D02*
X108D01*
X100Y3777D02*
Y3793D01*
X43Y3785D02*
X58D01*
X50Y3777D02*
Y3793D01*
X543Y3735D02*
X558D01*
X550Y3727D02*
Y3743D01*
X493Y3735D02*
X507D01*
X500Y3727D02*
Y3743D01*
X442Y3735D02*
X458D01*
X450Y3727D02*
Y3743D01*
X393Y3735D02*
X407D01*
X400Y3727D02*
Y3743D01*
X343Y3735D02*
X357D01*
X350Y3727D02*
Y3743D01*
X292Y3735D02*
X308D01*
X300Y3727D02*
Y3743D01*
X243Y3735D02*
X257D01*
X250Y3727D02*
Y3743D01*
X192Y3735D02*
X207D01*
X200Y3727D02*
Y3743D01*
X142Y3735D02*
X157D01*
X150Y3727D02*
Y3743D01*
X93Y3735D02*
X108D01*
X100Y3727D02*
Y3743D01*
X43Y3735D02*
X58D01*
X50Y3727D02*
Y3743D01*
X543Y3685D02*
X558D01*
X550Y3678D02*
Y3693D01*
X493Y3685D02*
X507D01*
X500Y3678D02*
Y3693D01*
X442Y3685D02*
X458D01*
X450Y3678D02*
Y3693D01*
X393Y3685D02*
X407D01*
X400Y3678D02*
Y3693D01*
X343Y3685D02*
X357D01*
X350Y3678D02*
Y3693D01*
X292Y3685D02*
X308D01*
X300Y3678D02*
Y3693D01*
X243Y3685D02*
X257D01*
X250Y3678D02*
Y3693D01*
X192Y3685D02*
X207D01*
X200Y3678D02*
Y3693D01*
X142Y3685D02*
X157D01*
X150Y3678D02*
Y3693D01*
X93Y3685D02*
X108D01*
X100Y3678D02*
Y3693D01*
X43Y3685D02*
X58D01*
X50Y3678D02*
Y3693D01*
X543Y3635D02*
X558D01*
X550Y3628D02*
Y3642D01*
X493Y3635D02*
X507D01*
X500Y3628D02*
Y3642D01*
X442Y3635D02*
X458D01*
X450Y3628D02*
Y3642D01*
X393Y3635D02*
X407D01*
X400Y3628D02*
Y3642D01*
X343Y3635D02*
X357D01*
X350Y3628D02*
Y3642D01*
X292Y3635D02*
X308D01*
X300Y3628D02*
Y3642D01*
X243Y3635D02*
X257D01*
X250Y3628D02*
Y3642D01*
X192Y3635D02*
X207D01*
X200Y3628D02*
Y3642D01*
X142Y3635D02*
X157D01*
X150Y3628D02*
Y3642D01*
X93Y3635D02*
X108D01*
X100Y3628D02*
Y3642D01*
X43Y3635D02*
X58D01*
X50Y3628D02*
Y3642D01*
X1477Y1116D02*
X1492D01*
X1485Y1109D02*
Y1124D01*
X1623Y1335D02*
X1638D01*
X1630Y1327D02*
Y1342D01*
X1834Y905D02*
X1846D01*
X1840Y899D02*
Y911D01*
X1642Y904D02*
X1654D01*
X1648Y898D02*
Y910D01*
X2060Y905D02*
X2072D01*
X2066Y899D02*
Y911D01*
X2270Y905D02*
X2282D01*
X2276Y899D02*
Y911D01*
X1850Y805D02*
X1865D01*
X1857Y798D02*
Y813D01*
X1957Y715D02*
X1972D01*
X1965Y707D02*
Y723D01*
X2164Y380D02*
X2176D01*
X2170Y374D02*
Y386D01*
X1512Y380D02*
X1524D01*
X1518Y374D02*
Y386D01*
X2507Y714D02*
X2523D01*
X2515Y706D02*
Y721D01*
X2678Y4235D02*
X2693D01*
X2685Y4227D02*
Y4242D01*
X2625Y4185D02*
X2640D01*
X2633Y4177D02*
Y4192D01*
X2043Y710D02*
X2055D01*
X2049Y704D02*
Y716D01*
X1579Y720D02*
X1591D01*
X1585Y714D02*
Y726D01*
X2004Y540D02*
X2016D01*
X2010Y534D02*
Y546D01*
X1989Y474D02*
X2001D01*
X1995Y468D02*
Y480D01*
X1439Y477D02*
X1451D01*
X1445Y471D02*
Y483D01*
X2564Y470D02*
X2576D01*
X2570Y464D02*
Y476D01*
X1874Y455D02*
X1886D01*
X1880Y449D02*
Y461D01*
X2459Y460D02*
X2471D01*
X2465Y454D02*
Y466D01*
X957Y1506D02*
X972D01*
X965Y1498D02*
Y1513D01*
X738Y1805D02*
X752D01*
X745Y1798D02*
Y1812D01*
X788Y1805D02*
X803D01*
X795Y1798D02*
Y1812D01*
X837Y1805D02*
X853D01*
X845Y1798D02*
Y1812D01*
X887Y1805D02*
X902D01*
X895Y1798D02*
Y1812D01*
X938Y1805D02*
X952D01*
X945Y1798D02*
Y1812D01*
X988Y1805D02*
X1003D01*
X995Y1798D02*
Y1812D01*
X738Y1755D02*
X752D01*
X745Y1747D02*
Y1763D01*
X788Y1755D02*
X803D01*
X795Y1747D02*
Y1763D01*
X837Y1755D02*
X853D01*
X845Y1747D02*
Y1763D01*
X887Y1755D02*
X902D01*
X895Y1747D02*
Y1763D01*
X938Y1755D02*
X952D01*
X945Y1747D02*
Y1763D01*
X988Y1755D02*
X1003D01*
X995Y1747D02*
Y1763D01*
X738Y1705D02*
X752D01*
X745Y1697D02*
Y1712D01*
X788Y1705D02*
X803D01*
X795Y1697D02*
Y1712D01*
X837Y1705D02*
X853D01*
X845Y1697D02*
Y1712D01*
X887Y1705D02*
X902D01*
X895Y1697D02*
Y1712D01*
X938Y1705D02*
X952D01*
X945Y1697D02*
Y1712D01*
X988Y1705D02*
X1003D01*
X995Y1697D02*
Y1712D01*
X738Y1655D02*
X752D01*
X745Y1648D02*
Y1663D01*
X788Y1655D02*
X803D01*
X795Y1648D02*
Y1663D01*
X837Y1655D02*
X853D01*
X845Y1648D02*
Y1663D01*
X887Y1655D02*
X902D01*
X895Y1648D02*
Y1663D01*
X938Y1655D02*
X952D01*
X945Y1648D02*
Y1663D01*
X988Y1655D02*
X1003D01*
X995Y1648D02*
Y1663D01*
X688Y1655D02*
X702D01*
X695Y1648D02*
Y1663D01*
X688Y1705D02*
X702D01*
X695Y1697D02*
Y1712D01*
X688Y1755D02*
X702D01*
X695Y1747D02*
Y1763D01*
X688Y1805D02*
X702D01*
X695Y1798D02*
Y1812D01*
X873Y1605D02*
X887D01*
X880Y1597D02*
Y1612D01*
X822Y1605D02*
X837D01*
X830Y1597D02*
Y1612D01*
X772Y1605D02*
X788D01*
X780Y1597D02*
Y1612D01*
X887Y1295D02*
X902D01*
X895Y1288D02*
Y1303D01*
X1072Y3110D02*
X1087D01*
X1080Y3102D02*
Y3118D01*
X562Y3234D02*
X576D01*
X569Y3227D02*
Y3241D01*
X724Y3160D02*
X736D01*
X730Y3154D02*
Y3166D01*
X1254Y2970D02*
X1266D01*
X1260Y2964D02*
Y2976D01*
X1592Y2443D02*
X1607D01*
X1600Y2435D02*
Y2451D01*
X1643Y2443D02*
X1658D01*
X1650Y2435D02*
Y2451D01*
X1692Y2443D02*
X1707D01*
X1700Y2435D02*
Y2451D01*
X1508Y2543D02*
X1523D01*
X1515Y2536D02*
Y2550D01*
X1508Y2493D02*
X1523D01*
X1515Y2486D02*
Y2500D01*
X1707Y2493D02*
X1722D01*
X1715Y2486D02*
Y2500D01*
X1658Y2493D02*
X1673D01*
X1665Y2486D02*
Y2500D01*
X1607Y2493D02*
X1622D01*
X1615Y2486D02*
Y2500D01*
X1558Y2493D02*
X1572D01*
X1565Y2486D02*
Y2500D01*
X1707Y2543D02*
X1722D01*
X1715Y2536D02*
Y2550D01*
X1658Y2543D02*
X1673D01*
X1665Y2536D02*
Y2550D01*
X1607Y2543D02*
X1622D01*
X1615Y2536D02*
Y2550D01*
X1558Y2543D02*
X1572D01*
X1565Y2536D02*
Y2550D01*
X1013Y1590D02*
X1028D01*
X1020Y1582D02*
Y1597D01*
X1936Y855D02*
X1948D01*
X1942Y849D02*
Y861D01*
X1829Y2240D02*
X1841D01*
X1835Y2234D02*
Y2246D01*
X2869Y3300D02*
X2881D01*
X2875Y3294D02*
Y3306D01*
X2869Y3200D02*
X2881D01*
X2875Y3194D02*
Y3206D01*
X2869Y3100D02*
X2881D01*
X2875Y3094D02*
Y3106D01*
X2869Y3000D02*
X2881D01*
X2875Y2994D02*
Y3006D01*
X2869Y2900D02*
X2881D01*
X2875Y2894D02*
Y2906D01*
X2869Y2800D02*
X2881D01*
X2875Y2794D02*
Y2806D01*
X2869Y2300D02*
X2881D01*
X2875Y2294D02*
Y2306D01*
X2869Y2400D02*
X2881D01*
X2875Y2394D02*
Y2406D01*
X2869Y2500D02*
X2881D01*
X2875Y2494D02*
Y2506D01*
X2869Y2600D02*
X2881D01*
X2875Y2594D02*
Y2606D01*
X2869Y2700D02*
X2881D01*
X2875Y2694D02*
Y2706D01*
X2869Y2100D02*
X2881D01*
X2875Y2094D02*
Y2106D01*
X2869Y2200D02*
X2881D01*
X2875Y2194D02*
Y2206D01*
X2819Y1975D02*
X2831D01*
X2825Y1969D02*
Y1981D01*
X2744Y1900D02*
X2756D01*
X2750Y1894D02*
Y1906D01*
X2744Y2100D02*
X2756D01*
X2750Y2094D02*
Y2106D01*
X2744Y2200D02*
X2756D01*
X2750Y2194D02*
Y2206D01*
X2744Y2300D02*
X2756D01*
X2750Y2294D02*
Y2306D01*
X2744Y2400D02*
X2756D01*
X2750Y2394D02*
Y2406D01*
X2744Y2500D02*
X2756D01*
X2750Y2494D02*
Y2506D01*
X2744Y2600D02*
X2756D01*
X2750Y2594D02*
Y2606D01*
X2744Y2700D02*
X2756D01*
X2750Y2694D02*
Y2706D01*
X2744Y3100D02*
X2756D01*
X2750Y3094D02*
Y3106D01*
X2744Y3000D02*
X2756D01*
X2750Y2994D02*
Y3006D01*
X2744Y2900D02*
X2756D01*
X2750Y2894D02*
Y2906D01*
X2744Y2800D02*
X2756D01*
X2750Y2794D02*
Y2806D01*
X2744Y3200D02*
X2756D01*
X2750Y3194D02*
Y3206D01*
X2744Y3300D02*
X2756D01*
X2750Y3294D02*
Y3306D01*
X2669Y2025D02*
X2681D01*
X2675Y2019D02*
Y2031D01*
X2814Y3400D02*
X2826D01*
X2820Y3394D02*
Y3406D01*
X2517Y1566D02*
X2529D01*
X2523Y1560D02*
Y1572D01*
X2592Y1641D02*
X2604D01*
X2598Y1635D02*
Y1647D01*
X2702Y1594D02*
X2714D01*
X2708Y1588D02*
Y1600D01*
X2734Y1800D02*
X2746D01*
X2740Y1794D02*
Y1806D01*
X2734Y1700D02*
X2746D01*
X2740Y1694D02*
Y1706D01*
X2616Y1505D02*
X2628D01*
X2622Y1499D02*
Y1511D01*
X2530Y1416D02*
X2542D01*
X2536Y1410D02*
Y1422D01*
X2431Y1477D02*
X2443D01*
X2437Y1471D02*
Y1483D01*
X2626Y1780D02*
X2638D01*
X2632Y1774D02*
Y1786D01*
X2629Y1900D02*
X2641D01*
X2635Y1894D02*
Y1906D01*
X2513Y1271D02*
X2525D01*
X2519Y1265D02*
Y1277D01*
X2433Y1136D02*
X2445D01*
X2439Y1130D02*
Y1142D01*
X2346Y1388D02*
X2358D01*
X2352Y1382D02*
Y1394D01*
X1961Y2077D02*
X1973D01*
X1967Y2071D02*
Y2083D01*
X1928Y2077D02*
X1940D01*
X1934Y2071D02*
Y2083D01*
X1894Y2077D02*
X1906D01*
X1900Y2071D02*
Y2083D01*
X2184Y1305D02*
X2196D01*
X2190Y1299D02*
Y1311D01*
X2144Y1315D02*
X2156D01*
X2150Y1309D02*
Y1321D01*
X2162Y1347D02*
X2174D01*
X2168Y1341D02*
Y1353D01*
X2304Y851D02*
X2319D01*
X2312Y843D02*
Y858D01*
X2324Y755D02*
X2336D01*
X2330Y749D02*
Y761D01*
X1614Y720D02*
X1626D01*
X1620Y714D02*
Y726D01*
X1824Y720D02*
X1836D01*
X1830Y714D02*
Y726D01*
X2134Y730D02*
X2146D01*
X2140Y724D02*
Y736D01*
X1284Y2130D02*
X1296D01*
X1290Y2124D02*
Y2136D01*
X1244Y1640D02*
X1256D01*
X1250Y1634D02*
Y1646D01*
X1144Y1610D02*
X1156D01*
X1150Y1604D02*
Y1616D01*
M02*
