G04 Layer_Color=255*
%FSLAX23Y23*%
%MOIN*%
G70*
G01*
G75*
D15*
X4000Y-0D02*
Y5500D01*
X1193D02*
X4000D01*
X0Y1681D02*
Y3650D01*
X753Y-0D02*
X4000D01*
X0D02*
Y1681D01*
Y-0D02*
X753D01*
X0Y5500D02*
X1193D01*
X0Y3650D02*
Y5500D01*
D26*
X2619Y3533D02*
D03*
X1262D02*
D03*
X2619Y1957D02*
D03*
X1262D02*
D03*
D41*
X714Y877D02*
D03*
Y1271D02*
D03*
D45*
X1861Y4539D02*
D03*
X1729Y4407D02*
D03*
X1743Y4393D02*
D03*
X1785Y4351D02*
D03*
X1757Y4379D02*
D03*
X1889Y4511D02*
D03*
X1903Y4497D02*
D03*
X1875Y4525D02*
D03*
X1771Y4365D02*
D03*
D52*
X289Y998D02*
D03*
Y898D02*
D03*
Y798D02*
D03*
X155Y4832D02*
D03*
X3780Y1666D02*
D03*
Y1766D02*
D03*
X3480Y1666D02*
D03*
Y1766D02*
D03*
X3180Y1666D02*
D03*
Y1766D02*
D03*
D53*
X1014Y4126D02*
D03*
X989D02*
D03*
X963D02*
D03*
X938D02*
D03*
X912D02*
D03*
X886D02*
D03*
X861D02*
D03*
X835D02*
D03*
X810D02*
D03*
X1040Y3874D02*
D03*
X1014D02*
D03*
X989D02*
D03*
X963D02*
D03*
X938D02*
D03*
X912D02*
D03*
X886D02*
D03*
X861D02*
D03*
X835D02*
D03*
X810D02*
D03*
D54*
X918Y4542D02*
D03*
X1088D02*
D03*
X918Y4517D02*
D03*
Y4491D02*
D03*
Y4466D02*
D03*
X1088Y4517D02*
D03*
Y4491D02*
D03*
X918Y4294D02*
D03*
X1088D02*
D03*
X918Y4268D02*
D03*
Y4243D02*
D03*
Y4217D02*
D03*
X1088Y4268D02*
D03*
Y4243D02*
D03*
X918Y3779D02*
D03*
X1088D02*
D03*
X918Y3753D02*
D03*
Y3728D02*
D03*
Y3702D02*
D03*
X1088Y3753D02*
D03*
Y3728D02*
D03*
D55*
X1402Y4332D02*
D03*
Y4382D02*
D03*
Y4432D02*
D03*
X1202Y4282D02*
D03*
Y4332D02*
D03*
Y4382D02*
D03*
Y4432D02*
D03*
D66*
X2405Y174D02*
D03*
X1655D02*
D03*
X492Y4880D02*
D03*
X1992Y4882D02*
D03*
X2742D02*
D03*
X1242Y4880D02*
D03*
D69*
X3630Y3290D02*
D03*
X3130D02*
D03*
X3630Y240D02*
D03*
X3130D02*
D03*
D71*
X160Y5285D02*
D03*
Y585D02*
D03*
X2795D02*
D03*
Y5285D02*
D03*
D73*
X118Y1799D02*
D03*
X2835D02*
D03*
Y3531D02*
D03*
X118D02*
D03*
D78*
X2119Y1215D02*
D03*
Y1234D02*
D03*
Y1254D02*
D03*
Y1274D02*
D03*
Y1293D02*
D03*
Y1313D02*
D03*
Y1333D02*
D03*
Y1352D02*
D03*
Y1372D02*
D03*
Y1392D02*
D03*
Y1411D02*
D03*
Y1431D02*
D03*
X1802D02*
D03*
Y1411D02*
D03*
Y1392D02*
D03*
Y1372D02*
D03*
Y1352D02*
D03*
Y1333D02*
D03*
Y1313D02*
D03*
Y1293D02*
D03*
Y1274D02*
D03*
Y1254D02*
D03*
Y1234D02*
D03*
Y1215D02*
D03*
D79*
X1833Y1184D02*
D03*
X1853D02*
D03*
X1872D02*
D03*
X1892D02*
D03*
X1912D02*
D03*
X1931D02*
D03*
X1951D02*
D03*
X1971D02*
D03*
X1990D02*
D03*
X2010D02*
D03*
X2030D02*
D03*
X2050D02*
D03*
X2069D02*
D03*
X2089D02*
D03*
Y1462D02*
D03*
X2069D02*
D03*
X2050D02*
D03*
X2030D02*
D03*
X2010D02*
D03*
X1990D02*
D03*
X1971D02*
D03*
X1951D02*
D03*
X1931D02*
D03*
X1912D02*
D03*
X1892D02*
D03*
X1872D02*
D03*
X1853D02*
D03*
X1833D02*
D03*
D80*
X2006Y4222D02*
D03*
X1986D02*
D03*
X1966D02*
D03*
X2025D02*
D03*
X1888D02*
D03*
X1907D02*
D03*
X1927D02*
D03*
X1947D02*
D03*
X2163Y3820D02*
D03*
X2183D02*
D03*
X2222D02*
D03*
X2203D02*
D03*
X2104Y4222D02*
D03*
X2084D02*
D03*
X2065D02*
D03*
X2045D02*
D03*
X1888Y3820D02*
D03*
X1907D02*
D03*
X2104D02*
D03*
X2124D02*
D03*
X2143D02*
D03*
X1966D02*
D03*
X1947D02*
D03*
X1927D02*
D03*
X2025D02*
D03*
X2006D02*
D03*
X1986D02*
D03*
X2084D02*
D03*
X2065D02*
D03*
X2045D02*
D03*
X2183Y4222D02*
D03*
X2203D02*
D03*
X2222D02*
D03*
X2124D02*
D03*
X2143D02*
D03*
X2163D02*
D03*
D81*
X1854Y3873D02*
D03*
Y3853D02*
D03*
X2251Y4090D02*
D03*
Y4109D02*
D03*
Y4129D02*
D03*
Y4149D02*
D03*
Y3893D02*
D03*
Y3912D02*
D03*
Y3932D02*
D03*
Y4011D02*
D03*
Y4031D02*
D03*
Y4050D02*
D03*
Y4070D02*
D03*
X1854Y4188D02*
D03*
Y4168D02*
D03*
Y4149D02*
D03*
Y4129D02*
D03*
Y4050D02*
D03*
Y4031D02*
D03*
Y4011D02*
D03*
Y3893D02*
D03*
Y4090D02*
D03*
Y4109D02*
D03*
Y4070D02*
D03*
Y3971D02*
D03*
Y3991D02*
D03*
Y3932D02*
D03*
Y3952D02*
D03*
Y3912D02*
D03*
X2251Y3873D02*
D03*
Y3853D02*
D03*
Y3991D02*
D03*
Y3971D02*
D03*
Y3952D02*
D03*
Y4188D02*
D03*
Y4168D02*
D03*
D82*
X1989Y1081D02*
D03*
X1969D02*
D03*
X1950D02*
D03*
X1930D02*
D03*
Y1132D02*
D03*
X1950D02*
D03*
X1969D02*
D03*
X1989D02*
D03*
D89*
X1094Y4382D02*
D03*
X1033D02*
D03*
X972D02*
D03*
D91*
X465Y4417D02*
D03*
X415D02*
D03*
X365D02*
D03*
X315D02*
D03*
X265D02*
D03*
X215D02*
D03*
X165D02*
D03*
D93*
X1520Y1204D02*
D03*
X1546Y1178D02*
D03*
X1573Y1151D02*
D03*
X1579Y1263D02*
D03*
X1605Y1236D02*
D03*
X1631Y1210D02*
D03*
D95*
X2411Y4318D02*
D03*
X2457Y4272D02*
D03*
X2152Y1146D02*
D03*
X2198Y1100D02*
D03*
X2254Y4280D02*
D03*
X2208Y4326D02*
D03*
X2165Y4369D02*
D03*
X2119Y4415D02*
D03*
X1621Y4400D02*
D03*
X1667Y4354D02*
D03*
X1623Y4308D02*
D03*
X1577Y4354D02*
D03*
X1655Y1360D02*
D03*
X1701Y1314D02*
D03*
X1607Y1313D02*
D03*
X1653Y1267D02*
D03*
X1557Y1089D02*
D03*
X1511Y1135D02*
D03*
X1467Y1091D02*
D03*
X1513Y1045D02*
D03*
D96*
X3660Y2450D02*
D03*
Y2515D02*
D03*
X3170Y2450D02*
D03*
Y2515D02*
D03*
X3330Y2450D02*
D03*
Y2515D02*
D03*
X3500Y2450D02*
D03*
Y2515D02*
D03*
X3590Y1080D02*
D03*
Y1015D02*
D03*
X3430Y1080D02*
D03*
Y1015D02*
D03*
X3260Y1080D02*
D03*
Y1015D02*
D03*
X3100Y1080D02*
D03*
Y1015D02*
D03*
X1808Y740D02*
D03*
Y805D02*
D03*
X1641Y740D02*
D03*
Y805D02*
D03*
X2285Y740D02*
D03*
Y805D02*
D03*
X2115Y740D02*
D03*
Y805D02*
D03*
X1496Y896D02*
D03*
Y831D02*
D03*
X1443Y896D02*
D03*
Y831D02*
D03*
X1922Y740D02*
D03*
Y805D02*
D03*
X1975Y740D02*
D03*
Y805D02*
D03*
X1786Y935D02*
D03*
Y1000D02*
D03*
X1657Y999D02*
D03*
Y934D02*
D03*
X1720Y935D02*
D03*
Y1000D02*
D03*
X1927Y1014D02*
D03*
Y949D02*
D03*
X1990Y1014D02*
D03*
Y949D02*
D03*
X2203Y935D02*
D03*
Y1000D02*
D03*
X2267Y935D02*
D03*
Y1000D02*
D03*
X2075D02*
D03*
Y935D02*
D03*
X2136D02*
D03*
Y1000D02*
D03*
X1849Y935D02*
D03*
Y1000D02*
D03*
X1478Y4378D02*
D03*
Y4443D02*
D03*
X1933Y1577D02*
D03*
Y1642D02*
D03*
X2029Y740D02*
D03*
Y805D02*
D03*
X1561Y751D02*
D03*
Y816D02*
D03*
X1096Y4020D02*
D03*
Y3955D02*
D03*
D97*
X3110Y2370D02*
D03*
X3175D02*
D03*
X3270D02*
D03*
X3335D02*
D03*
X3500D02*
D03*
X3435D02*
D03*
X3660D02*
D03*
X3595D02*
D03*
X3110Y2590D02*
D03*
X3175D02*
D03*
X3270D02*
D03*
X3335D02*
D03*
X3500D02*
D03*
X3435D02*
D03*
X3660D02*
D03*
X3595D02*
D03*
X3650Y1160D02*
D03*
X3585D02*
D03*
X3490D02*
D03*
X3425D02*
D03*
X3260D02*
D03*
X3325D02*
D03*
X3100D02*
D03*
X3165D02*
D03*
X3650Y940D02*
D03*
X3585D02*
D03*
X3490D02*
D03*
X3425D02*
D03*
X3260D02*
D03*
X3325D02*
D03*
X3100D02*
D03*
X3165D02*
D03*
X2385Y4244D02*
D03*
X2320D02*
D03*
X1163Y4500D02*
D03*
X1228D02*
D03*
X2320Y4190D02*
D03*
X2385D02*
D03*
X1666Y3905D02*
D03*
X1601D02*
D03*
X1458Y3903D02*
D03*
X1523D02*
D03*
X1387Y3901D02*
D03*
X1322D02*
D03*
Y3962D02*
D03*
X1387D02*
D03*
X1322Y3838D02*
D03*
X1387D02*
D03*
X1322Y3776D02*
D03*
X1387D02*
D03*
X1301Y4500D02*
D03*
X1366D02*
D03*
D98*
X1673Y1140D02*
D03*
X1719Y1186D02*
D03*
X1372Y668D02*
D03*
X1418Y714D02*
D03*
X1417Y624D02*
D03*
X1463Y670D02*
D03*
X1758Y1148D02*
D03*
X1712Y1102D02*
D03*
X2493Y4424D02*
D03*
X2447Y4378D02*
D03*
X1847Y4280D02*
D03*
X1893Y4326D02*
D03*
X1936Y4369D02*
D03*
X1982Y4415D02*
D03*
X1720Y4301D02*
D03*
X1674Y4255D02*
D03*
X2491Y4332D02*
D03*
X2537Y4378D02*
D03*
X2275Y4496D02*
D03*
X2321Y4542D02*
D03*
X2321Y4449D02*
D03*
X2367Y4495D02*
D03*
D111*
X1917Y4483D02*
D03*
D116*
X1326Y3574D02*
D03*
Y3331D02*
D03*
X1357Y3574D02*
D03*
Y3331D02*
D03*
X1389Y3574D02*
D03*
Y3331D02*
D03*
X1421Y3574D02*
D03*
Y3331D02*
D03*
X1452Y3574D02*
D03*
Y3331D02*
D03*
X1484Y3574D02*
D03*
Y3331D02*
D03*
X1515Y3574D02*
D03*
Y3331D02*
D03*
X1546Y3574D02*
D03*
Y3331D02*
D03*
X1578Y3574D02*
D03*
Y3331D02*
D03*
X1610Y3574D02*
D03*
Y3331D02*
D03*
X1641Y3574D02*
D03*
Y3331D02*
D03*
X1673Y3574D02*
D03*
Y3331D02*
D03*
X1704Y3574D02*
D03*
Y3331D02*
D03*
X1735Y3574D02*
D03*
Y3331D02*
D03*
X1767Y3574D02*
D03*
Y3331D02*
D03*
X1798Y3574D02*
D03*
Y3331D02*
D03*
X1830Y3574D02*
D03*
Y3331D02*
D03*
X1862Y3574D02*
D03*
Y3331D02*
D03*
X1893Y3574D02*
D03*
Y3331D02*
D03*
X1924Y3574D02*
D03*
Y3331D02*
D03*
X1956Y3574D02*
D03*
Y3331D02*
D03*
X1987Y3574D02*
D03*
Y3331D02*
D03*
X2019Y3574D02*
D03*
Y3331D02*
D03*
X2050Y3574D02*
D03*
Y3331D02*
D03*
X2082Y3574D02*
D03*
Y3331D02*
D03*
X2114Y3574D02*
D03*
Y3331D02*
D03*
X2145Y3574D02*
D03*
Y3331D02*
D03*
X2177Y3574D02*
D03*
Y3331D02*
D03*
X2208Y3574D02*
D03*
Y3331D02*
D03*
X2240Y3574D02*
D03*
Y3331D02*
D03*
X2271Y3574D02*
D03*
Y3331D02*
D03*
X2303Y3574D02*
D03*
Y3331D02*
D03*
X2334Y3574D02*
D03*
Y3331D02*
D03*
X2365Y3574D02*
D03*
Y3331D02*
D03*
X2397Y3574D02*
D03*
Y3331D02*
D03*
X2428Y3574D02*
D03*
Y3331D02*
D03*
X2460Y3574D02*
D03*
Y3331D02*
D03*
X2491Y3574D02*
D03*
Y3331D02*
D03*
X2523Y3574D02*
D03*
Y3331D02*
D03*
X2555Y3574D02*
D03*
Y3331D02*
D03*
X1326Y1999D02*
D03*
Y1756D02*
D03*
X1357Y1999D02*
D03*
Y1756D02*
D03*
X1389Y1999D02*
D03*
Y1756D02*
D03*
X1421Y1999D02*
D03*
Y1756D02*
D03*
X1452Y1999D02*
D03*
Y1756D02*
D03*
X1484Y1999D02*
D03*
Y1756D02*
D03*
X1515Y1999D02*
D03*
Y1756D02*
D03*
X1546Y1999D02*
D03*
Y1756D02*
D03*
X1578Y1999D02*
D03*
Y1756D02*
D03*
X1610Y1999D02*
D03*
Y1756D02*
D03*
X1641Y1999D02*
D03*
Y1756D02*
D03*
X1673Y1999D02*
D03*
Y1756D02*
D03*
X1704Y1999D02*
D03*
Y1756D02*
D03*
X1735Y1999D02*
D03*
Y1756D02*
D03*
X1767Y1999D02*
D03*
Y1756D02*
D03*
X1798Y1999D02*
D03*
Y1756D02*
D03*
X1830Y1999D02*
D03*
Y1756D02*
D03*
X1862Y1999D02*
D03*
Y1756D02*
D03*
X1893Y1999D02*
D03*
Y1756D02*
D03*
X1924Y1999D02*
D03*
Y1756D02*
D03*
X1956Y1999D02*
D03*
Y1756D02*
D03*
X1987Y1999D02*
D03*
Y1756D02*
D03*
X2019Y1999D02*
D03*
Y1756D02*
D03*
X2050Y1999D02*
D03*
Y1756D02*
D03*
X2082Y1999D02*
D03*
Y1756D02*
D03*
X2114Y1999D02*
D03*
Y1756D02*
D03*
X2145Y1999D02*
D03*
Y1756D02*
D03*
X2177Y1999D02*
D03*
Y1756D02*
D03*
X2208Y1999D02*
D03*
Y1756D02*
D03*
X2240Y1999D02*
D03*
Y1756D02*
D03*
X2271Y1999D02*
D03*
Y1756D02*
D03*
X2303Y1999D02*
D03*
Y1756D02*
D03*
X2334Y1999D02*
D03*
Y1756D02*
D03*
X2365Y1999D02*
D03*
Y1756D02*
D03*
X2397Y1999D02*
D03*
Y1756D02*
D03*
X2428Y1999D02*
D03*
Y1756D02*
D03*
X2460Y1999D02*
D03*
Y1756D02*
D03*
X2491Y1999D02*
D03*
Y1756D02*
D03*
X2523Y1999D02*
D03*
Y1756D02*
D03*
X2555Y1999D02*
D03*
Y1756D02*
D03*
D117*
X289Y1098D02*
D03*
X155Y4932D02*
D03*
X3780Y1866D02*
D03*
X3480D02*
D03*
X3180D02*
D03*
D118*
X1040Y4126D02*
D03*
D119*
X1088Y4466D02*
D03*
Y4217D02*
D03*
Y3702D02*
D03*
D120*
X1402Y4282D02*
D03*
D121*
X524Y4541D02*
D03*
X434D02*
D03*
X332D02*
D03*
X242D02*
D03*
X581Y4645D02*
D03*
X491D02*
D03*
X1330D02*
D03*
X1240D02*
D03*
D123*
X2440Y1266D02*
D03*
X2345Y1171D02*
D03*
X2333Y1301D02*
D03*
X2238Y1206D02*
D03*
D124*
X241Y4650D02*
D03*
X376D02*
D03*
X991D02*
D03*
X1126D02*
D03*
D125*
X1661Y3821D02*
D03*
Y3686D02*
D03*
X1563Y3821D02*
D03*
Y3686D02*
D03*
D146*
X3555Y2776D02*
D03*
X3505D02*
D03*
X3455D02*
D03*
X3405D02*
D03*
X3205D02*
D03*
X3255D02*
D03*
X3305D02*
D03*
X3355D02*
D03*
X3405Y754D02*
D03*
X3455D02*
D03*
X3505D02*
D03*
X3555D02*
D03*
X3355D02*
D03*
X3305D02*
D03*
X3255D02*
D03*
X3205D02*
D03*
D147*
X2505Y74D02*
D03*
Y274D02*
D03*
X2305D02*
D03*
Y74D02*
D03*
X1755D02*
D03*
Y274D02*
D03*
X1555D02*
D03*
Y74D02*
D03*
X592Y4780D02*
D03*
Y4980D02*
D03*
X392D02*
D03*
Y4780D02*
D03*
X2092Y4782D02*
D03*
Y4982D02*
D03*
X1892D02*
D03*
Y4782D02*
D03*
X2842D02*
D03*
Y4982D02*
D03*
X2642D02*
D03*
Y4782D02*
D03*
X1342Y4780D02*
D03*
Y4980D02*
D03*
X1142D02*
D03*
Y4780D02*
D03*
D151*
X3582Y3109D02*
D03*
X3178D02*
D03*
X3582Y421D02*
D03*
X3178D02*
D03*
D162*
X3852Y5211D02*
D03*
Y4226D02*
D03*
Y3242D02*
D03*
Y2258D02*
D03*
Y1274D02*
D03*
Y289D02*
D03*
Y5041D02*
D03*
Y5381D02*
D03*
Y4056D02*
D03*
Y4396D02*
D03*
Y3072D02*
D03*
Y3412D02*
D03*
Y2088D02*
D03*
Y2428D02*
D03*
Y1104D02*
D03*
Y1444D02*
D03*
Y119D02*
D03*
Y459D02*
D03*
D165*
X315Y4017D02*
D03*
D169*
X1961Y1323D02*
D03*
D174*
X630Y1310D02*
D03*
Y916D02*
D03*
X797D02*
D03*
X630Y838D02*
D03*
X797D02*
D03*
X630Y1074D02*
D03*
X797D02*
D03*
X630Y995D02*
D03*
X797D02*
D03*
Y1310D02*
D03*
X630Y1231D02*
D03*
X797D02*
D03*
X630Y1153D02*
D03*
X797D02*
D03*
D175*
X2053Y4022D02*
D03*
M02*
