%FSTAX23Y23*%
%MOIN*%
%SFA1B1*%

%IPPOS*%
%ADD10C,0.010000*%
%ADD51C,0.008000*%
%ADD54C,0.020000*%
%ADD55C,0.012000*%
%ADD113C,0.012000*%
%ADD114R,0.750000X0.151000*%
G54D10*
X01009Y04433D02*
D01*
D01*
G75*
G03X00997I-00006J0D01*
G74*G01*
X01009Y04184D02*
D01*
D01*
G75*
G03X00997I-00006J0D01*
G74*G01*
X01009Y03669D02*
D01*
D01*
G75*
G03X00997I-00006J0D01*
G74*G01*
X0059Y01402D02*
X00838D01*
X0059Y00746D02*
X00838D01*
X00943Y04561D02*
Y04576D01*
X01063Y04561D02*
Y04576D01*
X00943D02*
X01063D01*
Y04433D02*
Y0445D01*
X00943Y04433D02*
Y0445D01*
Y04433D02*
X00997D01*
X01009D02*
X01063D01*
X02668Y03293D02*
Y03352D01*
X01212Y03612D02*
X02668D01*
Y03352D02*
Y03612D01*
X01272Y03293D02*
X02668D01*
X01212Y03352D02*
X01272Y03293D01*
X01212Y03352D02*
Y03612D01*
X02668Y01717D02*
Y01778D01*
X01212Y02037D02*
X02668D01*
Y01778D02*
Y02037D01*
X01272Y01717D02*
X02668D01*
X01212Y01778D02*
X01272Y01717D01*
X01212Y01778D02*
Y02037D01*
X00943Y04312D02*
Y04327D01*
X01063Y04312D02*
Y04327D01*
X00943D02*
X01063D01*
Y04184D02*
Y04202D01*
X00943Y04184D02*
Y04202D01*
Y04184D02*
X00997D01*
X01009D02*
X01063D01*
X00943Y03797D02*
Y03812D01*
X01063Y03797D02*
Y03812D01*
X00943D02*
X01063D01*
Y03669D02*
Y03687D01*
X00943Y03669D02*
Y03687D01*
Y03669D02*
X00997D01*
X01009D02*
X01063D01*
G54D51*
X01869Y04404D02*
D01*
D01*
G75*
G03X0186Y04395I-00004J-00004D01*
G74*G01*
X01515Y01254D02*
D01*
D01*
G75*
G03X01528Y01267I00006J00006D01*
G74*G01*
X01314Y04257D02*
D01*
D01*
G75*
G03X01289I-00012J0D01*
G74*G01*
X01053Y04006D02*
D01*
D01*
G75*
G03Y03993I00001J-00006D01*
G74*G01*
X02355Y00329D02*
X02455D01*
X0256Y00124D02*
Y00224D01*
X0225Y00124D02*
Y00224D01*
X01605Y00329D02*
X01705D01*
X0181Y00124D02*
Y00224D01*
X015Y00124D02*
Y00224D01*
X0009Y03927D02*
Y04277D01*
X0054Y03927D02*
Y04277D01*
X0009D02*
X0054D01*
X00389Y00783D02*
Y01048D01*
Y01113*
X00414*
X00169Y01148D02*
X00414D01*
Y00748D02*
Y01148D01*
X00169Y00748D02*
Y01148D01*
X00389Y00783D02*
X00414D01*
X00169Y00748D02*
X00414D01*
X00993Y04407D02*
X01008D01*
X01054D02*
X01069D01*
X00997Y04357D02*
X01012D01*
X01058D02*
X01073D01*
X0181Y04517D02*
X0183Y04537D01*
X01726Y04434D02*
X01747Y04454D01*
X01896Y04431D02*
X01916Y04451D01*
X01812Y04347D02*
X01832Y04367D01*
X0186Y04395*
X01869Y04404D02*
X01896Y04431D01*
X01747Y04454D02*
X0181Y04517D01*
X01528Y01267D02*
X01549Y01288D01*
X01563Y01274*
X01495Y01234D02*
X01515Y01254D01*
X01495Y01234D02*
X01509Y01219D01*
X01588Y0114D02*
X01596Y01132D01*
X01651Y01186*
X01642Y01194D02*
X01651Y01186D01*
X02118Y01185D02*
Y01202D01*
X02102Y01185D02*
X02118D01*
X02102Y01461D02*
X02118D01*
Y01444D02*
Y01461D01*
X01804D02*
X0182D01*
X018Y01197D02*
X01815Y01182D01*
X01804Y01444D02*
Y01461D01*
X0224Y04218D02*
X02252D01*
Y04204D02*
Y04218D01*
Y03824D02*
Y03836D01*
X02238Y03824D02*
X02252D01*
X01858D02*
X0187D01*
X01858D02*
Y03838D01*
Y04206D02*
Y04218D01*
X01872*
X01903Y01081D02*
X0191Y01073D01*
X01903Y01081D02*
Y01132D01*
X0191Y01073D02*
X01918D01*
X0191Y0114D02*
X01918D01*
X01903Y01132D02*
X0191Y0114D01*
X02001Y01073D02*
X02009D01*
Y0114*
Y01136D02*
Y0114D01*
X02001D02*
X02009D01*
X01314Y04257D02*
X01359D01*
X01245D02*
X01289D01*
X01245D02*
Y04457D01*
X01359*
Y04257D02*
Y04457D01*
X01053Y04006D02*
Y04053D01*
Y03946D02*
Y03993D01*
X00797Y03946D02*
X01053D01*
X00797D02*
Y04053D01*
X01053*
X00442Y05035D02*
X00542D01*
X00647Y0483D02*
Y0493D01*
X00337Y0483D02*
Y0493D01*
X00035Y04782D02*
Y04982D01*
X0028Y04782D02*
Y04982D01*
X00035D02*
X0028D01*
X00035Y04782D02*
X0028D01*
X00255Y04947D02*
X0028D01*
X00255Y04882D02*
Y04947D01*
Y04817D02*
X0028D01*
X00255D02*
Y04882D01*
X03055Y02854D02*
X03705D01*
X03055D02*
Y03038D01*
Y0318D02*
Y03452D01*
X03705*
Y0318D02*
Y03452D01*
Y02854D02*
Y03038D01*
X03634Y0242D02*
Y02465D01*
X03687Y0242D02*
Y02465D01*
Y02495D02*
Y02545D01*
X03634Y02495D02*
Y02545D01*
Y0242D02*
X03687D01*
X03634Y02545D02*
X03687D01*
X0366Y01616D02*
X03905D01*
X0388Y01651D02*
X03905D01*
X0366Y01616D02*
Y01916D01*
X03905Y01616D02*
Y01916D01*
X0366D02*
X03905D01*
X0388Y01881D02*
X03905D01*
X0388Y01816D02*
Y01881D01*
Y01651D02*
Y01816D01*
X03055Y00492D02*
Y00676D01*
Y00078D02*
Y0035D01*
Y00078D02*
X03705D01*
Y0035*
Y00492D02*
Y00676D01*
X03055D02*
X03705D01*
X0336Y01616D02*
X03605D01*
X0358Y01651D02*
X03605D01*
X0336Y01616D02*
Y01916D01*
X03605Y01616D02*
Y01916D01*
X0336D02*
X03605D01*
X0358Y01881D02*
X03605D01*
X0358Y01816D02*
Y01881D01*
Y01651D02*
Y01816D01*
X0306Y01616D02*
X03305D01*
X0328Y01651D02*
X03305D01*
X0306Y01616D02*
Y01916D01*
X03305Y01616D02*
Y01916D01*
X0306D02*
X03305D01*
X0328Y01881D02*
X03305D01*
X0328Y01816D02*
Y01881D01*
Y01651D02*
Y01816D01*
X0308Y02396D02*
X03125D01*
X0308Y02343D02*
X03125D01*
X03155D02*
X03205D01*
X03155Y02396D02*
X03205D01*
X0308Y02343D02*
Y02396D01*
X03205Y02343D02*
Y02396D01*
X0324D02*
X03285D01*
X0324Y02343D02*
X03285D01*
X03315D02*
X03365D01*
X03315Y02396D02*
X03365D01*
X0324Y02343D02*
Y02396D01*
X03365Y02343D02*
Y02396D01*
X03485Y02344D02*
X0353D01*
X03485Y02397D02*
X0353D01*
X03405D02*
X03455D01*
X03405Y02344D02*
X03455D01*
X0353D02*
Y02397D01*
X03405Y02344D02*
Y02397D01*
X03645Y02344D02*
X0369D01*
X03645Y02397D02*
X0369D01*
X03565D02*
X03615D01*
X03565Y02344D02*
X03615D01*
X0369D02*
Y02397D01*
X03565Y02344D02*
Y02397D01*
X03144Y0242D02*
Y02465D01*
X03197Y0242D02*
Y02465D01*
Y02495D02*
Y02545D01*
X03144Y02495D02*
Y02545D01*
Y0242D02*
X03197D01*
X03144Y02545D02*
X03197D01*
X03304Y0242D02*
Y02465D01*
X03357Y0242D02*
Y02465D01*
Y02495D02*
Y02545D01*
X03304Y02495D02*
Y02545D01*
Y0242D02*
X03357D01*
X03304Y02545D02*
X03357D01*
X03474Y0242D02*
Y02465D01*
X03527Y0242D02*
Y02465D01*
Y02495D02*
Y02545D01*
X03474Y02495D02*
Y02545D01*
Y0242D02*
X03527D01*
X03474Y02545D02*
X03527D01*
X0308Y02616D02*
X03125D01*
X0308Y02563D02*
X03125D01*
X03155D02*
X03205D01*
X03155Y02616D02*
X03205D01*
X0308Y02563D02*
Y02616D01*
X03205Y02563D02*
Y02616D01*
X0324D02*
X03285D01*
X0324Y02563D02*
X03285D01*
X03315D02*
X03365D01*
X03315Y02616D02*
X03365D01*
X0324Y02563D02*
Y02616D01*
X03365Y02563D02*
Y02616D01*
X03485Y02564D02*
X0353D01*
X03485Y02617D02*
X0353D01*
X03405D02*
X03455D01*
X03405Y02564D02*
X03455D01*
X0353D02*
Y02617D01*
X03405Y02564D02*
Y02617D01*
X03645Y02564D02*
X0369D01*
X03645Y02617D02*
X0369D01*
X03565D02*
X03615D01*
X03565Y02564D02*
X03615D01*
X0369D02*
Y02617D01*
X03565Y02564D02*
Y02617D01*
X03635Y01134D02*
X0368D01*
X03635Y01187D02*
X0368D01*
X03555D02*
X03605D01*
X03555Y01134D02*
X03605D01*
X0368D02*
Y01187D01*
X03555Y01134D02*
Y01187D01*
X03475Y01134D02*
X0352D01*
X03475Y01187D02*
X0352D01*
X03395D02*
X03445D01*
X03395Y01134D02*
X03445D01*
X0352D02*
Y01187D01*
X03395Y01134D02*
Y01187D01*
X0323Y01186D02*
X03275D01*
X0323Y01133D02*
X03275D01*
X03305D02*
X03355D01*
X03305Y01186D02*
X03355D01*
X0323Y01133D02*
Y01186D01*
X03355Y01133D02*
Y01186D01*
X0307D02*
X03115D01*
X0307Y01133D02*
X03115D01*
X03145D02*
X03195D01*
X03145Y01186D02*
X03195D01*
X0307Y01133D02*
Y01186D01*
X03195Y01133D02*
Y01186D01*
X03616Y01065D02*
Y0111D01*
X03563Y01065D02*
Y0111D01*
Y00985D02*
Y01035D01*
X03616Y00985D02*
Y01035D01*
X03563Y0111D02*
X03616D01*
X03563Y00985D02*
X03616D01*
X03456Y01065D02*
Y0111D01*
X03403Y01065D02*
Y0111D01*
Y00985D02*
Y01035D01*
X03456Y00985D02*
Y01035D01*
X03403Y0111D02*
X03456D01*
X03403Y00985D02*
X03456D01*
X03286Y01065D02*
Y0111D01*
X03233Y01065D02*
Y0111D01*
Y00985D02*
Y01035D01*
X03286Y00985D02*
Y01035D01*
X03233Y0111D02*
X03286D01*
X03233Y00985D02*
X03286D01*
X03126Y01065D02*
Y0111D01*
X03073Y01065D02*
Y0111D01*
Y00985D02*
Y01035D01*
X03126Y00985D02*
Y01035D01*
X03073Y0111D02*
X03126D01*
X03073Y00985D02*
X03126D01*
X03635Y00914D02*
X0368D01*
X03635Y00967D02*
X0368D01*
X03555D02*
X03605D01*
X03555Y00914D02*
X03605D01*
X0368D02*
Y00967D01*
X03555Y00914D02*
Y00967D01*
X03475Y00914D02*
X0352D01*
X03475Y00967D02*
X0352D01*
X03395D02*
X03445D01*
X03395Y00914D02*
X03445D01*
X0352D02*
Y00967D01*
X03395Y00914D02*
Y00967D01*
X0323Y00966D02*
X03275D01*
X0323Y00913D02*
X03275D01*
X03305D02*
X03355D01*
X03305Y00966D02*
X03355D01*
X0323Y00913D02*
Y00966D01*
X03355Y00913D02*
Y00966D01*
X0307D02*
X03115D01*
X0307Y00913D02*
X03115D01*
X03145D02*
X03195D01*
X03145Y00966D02*
X03195D01*
X0307Y00913D02*
Y00966D01*
X03195Y00913D02*
Y00966D01*
X01782Y0071D02*
Y00755D01*
X01835Y0071D02*
Y00755D01*
Y00785D02*
Y00835D01*
X01782Y00785D02*
Y00835D01*
Y0071D02*
X01835D01*
X01782Y00835D02*
X01835D01*
X01615Y0071D02*
Y00755D01*
X01668Y0071D02*
Y00755D01*
Y00785D02*
Y00835D01*
X01615Y00785D02*
Y00835D01*
Y0071D02*
X01668D01*
X01615Y00835D02*
X01668D01*
X02259Y0071D02*
Y00755D01*
X02312Y0071D02*
Y00755D01*
Y00785D02*
Y00835D01*
X02259Y00785D02*
Y00835D01*
Y0071D02*
X02312D01*
X02259Y00835D02*
X02312D01*
X02089Y0071D02*
Y00755D01*
X02142Y0071D02*
Y00755D01*
Y00785D02*
Y00835D01*
X02089Y00785D02*
Y00835D01*
Y0071D02*
X02142D01*
X02089Y00835D02*
X02142D01*
X01634Y01137D02*
X01666Y01169D01*
X01671Y011D02*
X01703Y01131D01*
X01724Y01153D02*
X0176Y01188D01*
X01687Y0119D02*
X01722Y01225D01*
X01634Y01137D02*
X01671Y011D01*
X01722Y01225D02*
X0176Y01188D01*
X01522Y00881D02*
Y00926D01*
X01469Y00881D02*
Y00926D01*
Y00801D02*
Y00851D01*
X01522Y00801D02*
Y00851D01*
X01469Y00926D02*
X01522D01*
X01469Y00801D02*
X01522D01*
X01469Y00881D02*
Y00926D01*
X01416Y00881D02*
Y00926D01*
Y00801D02*
Y00851D01*
X01469Y00801D02*
Y00851D01*
X01416Y00926D02*
X01469D01*
X01416Y00801D02*
X01469D01*
X01896Y0071D02*
Y00755D01*
X01949Y0071D02*
Y00755D01*
Y00785D02*
Y00835D01*
X01896Y00785D02*
Y00835D01*
Y0071D02*
X01949D01*
X01896Y00835D02*
X01949D01*
Y0071D02*
Y00755D01*
X02002Y0071D02*
Y00755D01*
Y00785D02*
Y00835D01*
X01949Y00785D02*
Y00835D01*
Y0071D02*
X02002D01*
X01949Y00835D02*
X02002D01*
X01333Y00665D02*
X01365Y00697D01*
X0137Y00628D02*
X01402Y00659D01*
X01423Y00681D02*
X01459Y00716D01*
X01386Y00718D02*
X01421Y00753D01*
X01333Y00665D02*
X0137Y00628D01*
X01421Y00753D02*
X01459Y00716D01*
X01378Y00621D02*
X0141Y00653D01*
X01415Y00584D02*
X01447Y00615D01*
X01468Y00637D02*
X01504Y00672D01*
X01431Y00674D02*
X01466Y00709D01*
X01378Y00621D02*
X01415Y00584D01*
X01466Y00709D02*
X01504Y00672D01*
X01175Y04205D02*
X01205Y04175D01*
X01225*
X02371Y04321D02*
X02409Y04358D01*
X0246Y04232D02*
X02497Y0427D01*
X02371Y04321D02*
X02407Y04285D01*
X02409Y04358D02*
X02444Y04323D01*
X02465Y04302D02*
X02497Y0427D01*
X02428Y04264D02*
X0246Y04232D01*
X01942Y05037D02*
X02042D01*
X02147Y04832D02*
Y04932D01*
X01837Y04832D02*
Y04932D01*
X02692Y05037D02*
X02792D01*
X02897Y04832D02*
Y04932D01*
X02587Y04832D02*
Y04932D01*
X01192Y05035D02*
X01292D01*
X01397Y0483D02*
Y0493D01*
X01087Y0483D02*
Y0493D01*
X0176Y00905D02*
Y0095D01*
X01813Y00905D02*
Y0095D01*
Y0098D02*
Y0103D01*
X0176Y0098D02*
Y0103D01*
Y00905D02*
X01813D01*
X0176Y0103D02*
X01813D01*
X01683Y00984D02*
Y01029D01*
X0163Y00984D02*
Y01029D01*
Y00904D02*
Y00954D01*
X01683Y00904D02*
Y00954D01*
X0163Y01029D02*
X01683D01*
X0163Y00904D02*
X01683D01*
X01694Y00905D02*
Y0095D01*
X01747Y00905D02*
Y0095D01*
Y0098D02*
Y0103D01*
X01694Y0098D02*
Y0103D01*
Y00905D02*
X01747D01*
X01694Y0103D02*
X01747D01*
X01766Y01119D02*
X01798Y01151D01*
X01728Y01156D02*
X0176Y01188D01*
X01672Y011D02*
X01707Y01135D01*
X01709Y01062D02*
X01745Y01098D01*
X0176Y01188D02*
X01798Y01151D01*
X01672Y011D02*
X01709Y01062D01*
X01953Y00999D02*
Y01044D01*
X019Y00999D02*
Y01044D01*
Y00919D02*
Y00969D01*
X01953Y00919D02*
Y00969D01*
X019Y01044D02*
X01953D01*
X019Y00919D02*
X01953D01*
X02016Y00999D02*
Y01044D01*
X01963Y00999D02*
Y01044D01*
Y00919D02*
Y00969D01*
X02016Y00919D02*
Y00969D01*
X01963Y01044D02*
X02016D01*
X01963Y00919D02*
X02016D01*
X02177Y00905D02*
Y0095D01*
X0223Y00905D02*
Y0095D01*
Y0098D02*
Y0103D01*
X02177Y0098D02*
Y0103D01*
Y00905D02*
X0223D01*
X02177Y0103D02*
X0223D01*
X02241Y00905D02*
Y0095D01*
X02294Y00905D02*
Y0095D01*
Y0098D02*
Y0103D01*
X02241Y0098D02*
Y0103D01*
Y00905D02*
X02294D01*
X02241Y0103D02*
X02294D01*
X02101Y00985D02*
Y0103D01*
X02048Y00985D02*
Y0103D01*
Y00905D02*
Y00955D01*
X02101Y00905D02*
Y00955D01*
X02048Y0103D02*
X02101D01*
X02048Y00905D02*
X02101D01*
X0211D02*
Y0095D01*
X02163Y00905D02*
Y0095D01*
Y0098D02*
Y0103D01*
X0211Y0098D02*
Y0103D01*
Y00905D02*
X02163D01*
X0211Y0103D02*
X02163D01*
X02149Y01186D02*
X02181Y01154D01*
X02112Y01148D02*
X02144Y01116D01*
X02165Y01095D02*
X022Y0106D01*
X02202Y01133D02*
X02238Y01097D01*
X02112Y01148D02*
X02149Y01186D01*
X022Y0106D02*
X02238Y01097D01*
X01823Y00905D02*
Y0095D01*
X01876Y00905D02*
Y0095D01*
Y0098D02*
Y0103D01*
X01823Y0098D02*
Y0103D01*
Y00905D02*
X01876D01*
X01823Y0103D02*
X01876D01*
X02415Y04217D02*
Y0427D01*
X0229Y04217D02*
Y0427D01*
X02365D02*
X02415D01*
X02365Y04217D02*
X02415D01*
X0229D02*
X02335D01*
X0229Y0427D02*
X02335D01*
X01133Y04474D02*
Y04527D01*
X01258Y04474D02*
Y04527D01*
X01133Y04474D02*
X01183D01*
X01133Y04527D02*
X01183D01*
X01213D02*
X01258D01*
X01213Y04474D02*
X01258D01*
X0229Y04164D02*
Y04217D01*
X02415Y04164D02*
Y04217D01*
X0229Y04164D02*
X0234D01*
X0229Y04217D02*
X0234D01*
X0237D02*
X02415D01*
X0237Y04164D02*
X02415D01*
X02256Y0424D02*
X02294Y04277D01*
X02168Y04328D02*
X02205Y04366D01*
X02258Y04313D02*
X02294Y04277D01*
X02221Y04275D02*
X02256Y0424D01*
X02168Y04328D02*
X022Y04296D01*
X02205Y04366D02*
X02237Y04334D01*
X02496Y04464D02*
X02533Y04426D01*
X02407Y04375D02*
X02445Y04338D01*
X0246Y04428D02*
X02496Y04464D01*
X02498Y04391D02*
X02533Y04426D01*
X02445Y04338D02*
X02477Y0437D01*
X02407Y04375D02*
X02439Y04407D01*
X02167Y04329D02*
X02205Y04366D01*
X02079Y04417D02*
X02116Y04455D01*
X02169Y04402D02*
X02205Y04366D01*
X02132Y04364D02*
X02167Y04329D01*
X02079Y04417D02*
X02111Y04385D01*
X02116Y04455D02*
X02148Y04423D01*
X01807Y04278D02*
X01844Y0424D01*
X01895Y04366D02*
X01933Y04329D01*
X01844Y0424D02*
X0188Y04276D01*
X01807Y04278D02*
X01842Y04313D01*
X01863Y04334D02*
X01895Y04366D01*
X01901Y04297D02*
X01933Y04329D01*
X01581Y04403D02*
X01619Y0444D01*
X0167Y04314D02*
X01707Y04352D01*
X01581Y04403D02*
X01617Y04367D01*
X01619Y0444D02*
X01654Y04405D01*
X01675Y04384D02*
X01707Y04352D01*
X01638Y04346D02*
X0167Y04314D01*
X01896Y04367D02*
X01933Y04329D01*
X01984Y04455D02*
X02022Y04418D01*
X01933Y04329D02*
X01969Y04365D01*
X01896Y04367D02*
X01931Y04402D01*
X01952Y04423D02*
X01984Y04455D01*
X0199Y04386D02*
X02022Y04418D01*
X01723Y04341D02*
X0176Y04303D01*
X01634Y04252D02*
X01672Y04215D01*
X01687Y04305D02*
X01723Y04341D01*
X01725Y04268D02*
X0176Y04303D01*
X01672Y04215D02*
X01704Y04247D01*
X01634Y04252D02*
X01666Y04284D01*
X01696Y03878D02*
Y03931D01*
X01571Y03878D02*
Y03931D01*
X01646D02*
X01696D01*
X01646Y03878D02*
X01696D01*
X01571D02*
X01616D01*
X01571Y03931D02*
X01616D01*
X01428Y03877D02*
Y0393D01*
X01553Y03877D02*
Y0393D01*
X01428Y03877D02*
X01478D01*
X01428Y0393D02*
X01478D01*
X01508D02*
X01553D01*
X01508Y03877D02*
X01553D01*
X01417Y03874D02*
Y03927D01*
X01292Y03874D02*
Y03927D01*
X01367D02*
X01417D01*
X01367Y03874D02*
X01417D01*
X01292D02*
X01337D01*
X01292Y03927D02*
X01337D01*
X01292Y03936D02*
Y03989D01*
X01417Y03936D02*
Y03989D01*
X01292Y03936D02*
X01342D01*
X01292Y03989D02*
X01342D01*
X01372D02*
X01417D01*
X01372Y03936D02*
X01417D01*
X01625Y04268D02*
X01663Y04305D01*
X01537Y04356D02*
X01574Y04394D01*
X01627Y04341D02*
X01663Y04305D01*
X0159Y04303D02*
X01625Y04268D01*
X01537Y04356D02*
X01569Y04324D01*
X01574Y04394D02*
X01606Y04362D01*
X02451Y0433D02*
X02488Y04292D01*
X02539Y04418D02*
X02577Y04381D01*
X02488Y04292D02*
X02524Y04328D01*
X02451Y0433D02*
X02486Y04365D01*
X02507Y04386D02*
X02539Y04418D01*
X02545Y04349D02*
X02577Y04381D01*
X01292Y03812D02*
Y03865D01*
X01417Y03812D02*
Y03865D01*
X01292Y03812D02*
X01342D01*
X01292Y03865D02*
X01342D01*
X01372D02*
X01417D01*
X01372Y03812D02*
X01417D01*
X01292Y0375D02*
Y03803D01*
X01417Y0375D02*
Y03803D01*
X01292Y0375D02*
X01342D01*
X01292Y03803D02*
X01342D01*
X01372D02*
X01417D01*
X01372Y0375D02*
X01417D01*
X01451Y04348D02*
X01504D01*
X01451Y04473D02*
X01504D01*
Y04348D02*
Y04398D01*
X01451Y04348D02*
Y04398D01*
Y04428D02*
Y04473D01*
X01504Y04428D02*
Y04473D01*
X01271Y04474D02*
Y04527D01*
X01396Y04474D02*
Y04527D01*
X01271Y04474D02*
X01321D01*
X01271Y04527D02*
X01321D01*
X01351D02*
X01396D01*
X01351Y04474D02*
X01396D01*
X01615Y01363D02*
X01653Y014D01*
X01704Y01274D02*
X01741Y01312D01*
X01615Y01363D02*
X01651Y01327D01*
X01653Y014D02*
X01688Y01365D01*
X01709Y01344D02*
X01741Y01312D01*
X01672Y01306D02*
X01704Y01274D01*
X01567Y01316D02*
X01605Y01353D01*
X01656Y01227D02*
X01693Y01265D01*
X01567Y01316D02*
X01603Y0128D01*
X01605Y01353D02*
X0164Y01318D01*
X01661Y01297D02*
X01693Y01265D01*
X01624Y01259D02*
X01656Y01227D01*
X01906Y01547D02*
X01959D01*
X01906Y01672D02*
X01959D01*
Y01547D02*
Y01597D01*
X01906Y01547D02*
Y01597D01*
Y01627D02*
Y01672D01*
X01959Y01627D02*
Y01672D01*
X01559Y01049D02*
X01597Y01086D01*
X01471Y01137D02*
X01508Y01175D01*
X01561Y01122D02*
X01597Y01086D01*
X01524Y01084D02*
X01559Y01049D01*
X01471Y01137D02*
X01503Y01105D01*
X01508Y01175D02*
X0154Y01143D01*
X01427Y01094D02*
X01465Y01131D01*
X01516Y01005D02*
X01553Y01043D01*
X01427Y01094D02*
X01463Y01058D01*
X01465Y01131D02*
X015Y01096D01*
X01521Y01075D02*
X01553Y01043D01*
X01484Y01037D02*
X01516Y01005D01*
X02002Y0071D02*
X02055D01*
X02002Y00835D02*
X02055D01*
Y0071D02*
Y0076D01*
X02002Y0071D02*
Y0076D01*
Y0079D02*
Y00835D01*
X02055Y0079D02*
Y00835D01*
X01534Y00721D02*
X01587D01*
X01534Y00846D02*
X01587D01*
Y00721D02*
Y00771D01*
X01534Y00721D02*
Y00771D01*
Y00801D02*
Y00846D01*
X01587Y00801D02*
Y00846D01*
X0107Y0405D02*
X01123D01*
X0107Y03925D02*
X01123D01*
X0107Y04D02*
Y0405D01*
X01123Y04D02*
Y0405D01*
Y03925D02*
Y0397D01*
X0107Y03925D02*
Y0397D01*
X02235Y04494D02*
X02272Y04456D01*
X02323Y04582D02*
X02361Y04545D01*
X02272Y04456D02*
X02308Y04492D01*
X02235Y04494D02*
X0227Y04529D01*
X02291Y0455D02*
X02323Y04582D01*
X02329Y04513D02*
X02361Y04545D01*
X02281Y04447D02*
X02318Y04409D01*
X02369Y04535D02*
X02407Y04498D01*
X02318Y04409D02*
X02354Y04445D01*
X02281Y04447D02*
X02316Y04482D01*
X02337Y04503D02*
X02369Y04535D01*
X02375Y04466D02*
X02407Y04498D01*
X02025Y00895D02*
X0204Y0091D01*
X02025Y01025D02*
X0204Y0104D01*
X01875Y01055D02*
X0189Y0104D01*
X0212Y0056D02*
Y00585D01*
X0211Y0055D02*
X0212Y0056D01*
X02065D02*
X0207D01*
X02055Y0055D02*
X02065Y0056D01*
X0215Y006D02*
X02175Y00575D01*
X0215Y006D02*
Y0061D01*
X01485Y00955D02*
X01505Y00935D01*
X01895Y0057D02*
X01915Y0055D01*
X01855Y0057D02*
X01895D01*
X03691Y01988D02*
X03678D01*
X03684*
Y01955*
X03678Y01948*
X03671*
X03664Y01955*
X03704Y01948D02*
Y01988D01*
X03724*
X03731Y01981*
Y01968*
X03724Y01961*
X03704*
X03744Y01948D02*
X03758D01*
X03751*
Y01988*
X03744Y01981*
X03778Y01955D02*
X03784Y01948D01*
X03798*
X03804Y01955*
Y01981*
X03798Y01988*
X03784*
X03778Y01981*
Y01975*
X03784Y01968*
X03804*
X03391Y01988D02*
X03378D01*
X03384*
Y01955*
X03378Y01948*
X03371*
X03364Y01955*
X03404Y01948D02*
Y01988D01*
X03424*
X03431Y01981*
Y01968*
X03424Y01961*
X03404*
X03444Y01948D02*
X03458D01*
X03451*
Y01988*
X03444Y01981*
X03478D02*
X03484Y01988D01*
X03498*
X03504Y01981*
Y01975*
X03498Y01968*
X03504Y01961*
Y01955*
X03498Y01948*
X03484*
X03478Y01955*
Y01961*
X03484Y01968*
X03478Y01975*
Y01981*
X03484Y01968D02*
X03498D01*
X03091Y01988D02*
X03078D01*
X03084*
Y01955*
X03078Y01948*
X03071*
X03064Y01955*
X03104Y01948D02*
Y01988D01*
X03124*
X03131Y01981*
Y01968*
X03124Y01961*
X03104*
X03144Y01948D02*
X03158D01*
X03151*
Y01988*
X03144Y01981*
X03178Y01988D02*
X03204D01*
Y01981*
X03178Y01955*
Y01948*
X0357Y0254D02*
X0361D01*
Y0252*
X03603Y02513*
X0359*
X03583Y0252*
Y0254*
Y02527D02*
X0357Y02513D01*
X0361Y02473D02*
X03603Y02487D01*
X0359Y025*
X03577*
X0357Y02493*
Y0248*
X03577Y02473*
X03583*
X0359Y0248*
Y025*
X03577Y0246D02*
X0357Y02453D01*
Y0244*
X03577Y02433*
X03603*
X0361Y0244*
Y02453*
X03603Y0246*
X03597*
X0359Y02453*
Y02433*
X0341Y0254D02*
X0345D01*
Y0252*
X03443Y02513*
X0343*
X03423Y0252*
Y0254*
Y02527D02*
X0341Y02513D01*
X0345Y02473D02*
X03443Y02487D01*
X0343Y025*
X03417*
X0341Y02493*
Y0248*
X03417Y02473*
X03423*
X0343Y0248*
Y025*
X03443Y0246D02*
X0345Y02453D01*
Y0244*
X03443Y02433*
X03437*
X0343Y0244*
X03423Y02433*
X03417*
X0341Y0244*
Y02453*
X03417Y0246*
X03423*
X0343Y02453*
X03437Y0246*
X03443*
X0343Y02453D02*
Y0244D01*
X0324Y0254D02*
X0328D01*
Y0252*
X03273Y02513*
X0326*
X03253Y0252*
Y0254*
Y02527D02*
X0324Y02513D01*
X0328Y02473D02*
X03273Y02487D01*
X0326Y025*
X03247*
X0324Y02493*
Y0248*
X03247Y02473*
X03253*
X0326Y0248*
Y025*
X0328Y0246D02*
Y02433D01*
X03273*
X03247Y0246*
X0324*
X0308Y0254D02*
X0312D01*
Y0252*
X03113Y02513*
X031*
X03093Y0252*
Y0254*
Y02527D02*
X0308Y02513D01*
X0312Y02473D02*
X03113Y02487D01*
X031Y025*
X03087*
X0308Y02493*
Y0248*
X03087Y02473*
X03093*
X031Y0248*
Y025*
X0312Y02433D02*
X03113Y02447D01*
X031Y0246*
X03087*
X0308Y02453*
Y0244*
X03087Y02433*
X03093*
X031Y0244*
Y0246*
X0315Y011D02*
X0319D01*
Y0108*
X03183Y01073*
X0317*
X03163Y0108*
Y011*
Y01087D02*
X0315Y01073D01*
X0319Y01033D02*
X03183Y01047D01*
X0317Y0106*
X03157*
X0315Y01053*
Y0104*
X03157Y01033*
X03163*
X0317Y0104*
Y0106*
X0319Y00993D02*
Y0102D01*
X0317*
X03177Y01007*
Y01*
X0317Y00993*
X03157*
X0315Y01*
Y01013*
X03157Y0102*
X0331Y011D02*
X0335D01*
Y0108*
X03343Y01073*
X0333*
X03323Y0108*
Y011*
Y01087D02*
X0331Y01073D01*
X0335Y01033D02*
X03343Y01047D01*
X0333Y0106*
X03317*
X0331Y01053*
Y0104*
X03317Y01033*
X03323*
X0333Y0104*
Y0106*
X0331Y01D02*
X0335D01*
X0333Y0102*
Y00993*
X0348Y011D02*
X0352D01*
Y0108*
X03513Y01073*
X035*
X03493Y0108*
Y011*
Y01087D02*
X0348Y01073D01*
X0352Y01033D02*
X03513Y01047D01*
X035Y0106*
X03487*
X0348Y01053*
Y0104*
X03487Y01033*
X03493*
X035Y0104*
Y0106*
X03513Y0102D02*
X0352Y01013D01*
Y01*
X03513Y00993*
X03507*
X035Y01*
Y01007*
Y01*
X03493Y00993*
X03487*
X0348Y01*
Y01013*
X03487Y0102*
X0364Y011D02*
X0368D01*
Y0108*
X03673Y01073*
X0366*
X03653Y0108*
Y011*
Y01087D02*
X0364Y01073D01*
X0368Y01033D02*
X03673Y01047D01*
X0366Y0106*
X03647*
X0364Y01053*
Y0104*
X03647Y01033*
X03653*
X0366Y0104*
Y0106*
X0364Y00993D02*
Y0102D01*
X03667Y00993*
X03673*
X0368Y01*
Y01013*
X03673Y0102*
X03627Y0282D02*
X03613D01*
X0362*
Y02787*
X03613Y0278*
X03607*
X036Y02787*
X0364Y0278D02*
Y0282D01*
X0366*
X03667Y02813*
Y028*
X0366Y02793*
X0364*
X0368Y0278D02*
X03693D01*
X03687*
Y0282*
X0368Y02813*
X03713D02*
X0372Y0282D01*
X03733*
X0374Y02813*
Y02787*
X03733Y0278*
X0372*
X03713Y02787*
Y02813*
X03077Y0075D02*
X03063D01*
X0307*
Y00717*
X03063Y0071*
X03057*
X0305Y00717*
X0309Y0071D02*
Y0075D01*
X0311*
X03117Y00743*
Y0073*
X0311Y00723*
X0309*
X0313Y00717D02*
X03137Y0071D01*
X0315*
X03157Y00717*
Y00743*
X0315Y0075*
X03137*
X0313Y00743*
Y00737*
X03137Y0073*
X03157*
X03587Y02673D02*
X0358Y0268D01*
X03567*
X0356Y02673*
Y02647*
X03567Y0264*
X0358*
X03587Y02647*
X036Y0264D02*
X03613D01*
X03607*
Y0268*
X036Y02673*
X0366Y0264D02*
X03633D01*
X0366Y02667*
Y02673*
X03653Y0268*
X0364*
X03633Y02673*
X037Y0268D02*
X03687Y02673D01*
X03673Y0266*
Y02647*
X0368Y0264*
X03693*
X037Y02647*
Y02653*
X03693Y0266*
X03673*
X03587Y02313D02*
X0358Y0232D01*
X03567*
X0356Y02313*
Y02287*
X03567Y0228*
X0358*
X03587Y02287*
X036Y0228D02*
X03613D01*
X03607*
Y0232*
X036Y02313*
X0366Y0228D02*
X03633D01*
X0366Y02307*
Y02313*
X03653Y0232*
X0364*
X03633Y02313*
X037Y0232D02*
X03673D01*
Y023*
X03687Y02307*
X03693*
X037Y023*
Y02287*
X03693Y0228*
X0368*
X03673Y02287*
X03427Y02673D02*
X0342Y0268D01*
X03407*
X034Y02673*
Y02647*
X03407Y0264*
X0342*
X03427Y02647*
X0344Y0264D02*
X03453D01*
X03447*
Y0268*
X0344Y02673*
X035Y0264D02*
X03473D01*
X035Y02667*
Y02673*
X03493Y0268*
X0348*
X03473Y02673*
X03533Y0264D02*
Y0268D01*
X03513Y0266*
X0354*
X03427Y02313D02*
X0342Y0232D01*
X03407*
X034Y02313*
Y02287*
X03407Y0228*
X0342*
X03427Y02287*
X0344Y0228D02*
X03453D01*
X03447*
Y0232*
X0344Y02313*
X035Y0228D02*
X03473D01*
X035Y02307*
Y02313*
X03493Y0232*
X0348*
X03473Y02313*
X03513D02*
X0352Y0232D01*
X03533*
X0354Y02313*
Y02307*
X03533Y023*
X03527*
X03533*
X0354Y02293*
Y02287*
X03533Y0228*
X0352*
X03513Y02287*
X03267Y02673D02*
X0326Y0268D01*
X03247*
X0324Y02673*
Y02647*
X03247Y0264*
X0326*
X03267Y02647*
X0328Y0264D02*
X03293D01*
X03287*
Y0268*
X0328Y02673*
X0334Y0264D02*
X03313D01*
X0334Y02667*
Y02673*
X03333Y0268*
X0332*
X03313Y02673*
X0338Y0264D02*
X03353D01*
X0338Y02667*
Y02673*
X03373Y0268*
X0336*
X03353Y02673*
X03267Y02313D02*
X0326Y0232D01*
X03247*
X0324Y02313*
Y02287*
X03247Y0228*
X0326*
X03267Y02287*
X0328Y0228D02*
X03293D01*
X03287*
Y0232*
X0328Y02313*
X0334Y0228D02*
X03313D01*
X0334Y02307*
Y02313*
X03333Y0232*
X0332*
X03313Y02313*
X03353Y0228D02*
X03367D01*
X0336*
Y0232*
X03353Y02313*
X03097Y02673D02*
X0309Y0268D01*
X03077*
X0307Y02673*
Y02647*
X03077Y0264*
X0309*
X03097Y02647*
X0311Y0264D02*
X03123D01*
X03117*
Y0268*
X0311Y02673*
X0317Y0264D02*
X03143D01*
X0317Y02667*
Y02673*
X03163Y0268*
X0315*
X03143Y02673*
X03183D02*
X0319Y0268D01*
X03203*
X0321Y02673*
Y02647*
X03203Y0264*
X0319*
X03183Y02647*
Y02673*
X03097Y02313D02*
X0309Y0232D01*
X03077*
X0307Y02313*
Y02287*
X03077Y0228*
X0309*
X03097Y02287*
X0311Y0228D02*
X03123D01*
X03117*
Y0232*
X0311Y02313*
X03143Y0228D02*
X03157D01*
X0315*
Y0232*
X03143Y02313*
X03177Y02287D02*
X03183Y0228D01*
X03197*
X03203Y02287*
Y02313*
X03197Y0232*
X03183*
X03177Y02313*
Y02307*
X03183Y023*
X03203*
X03097Y00883D02*
X0309Y0089D01*
X03077*
X0307Y00883*
Y00857*
X03077Y0085*
X0309*
X03097Y00857*
X0311Y0085D02*
X03123D01*
X03117*
Y0089*
X0311Y00883*
X03143Y0085D02*
X03157D01*
X0315*
Y0089*
X03143Y00883*
X03177D02*
X03183Y0089D01*
X03197*
X03203Y00883*
Y00877*
X03197Y0087*
X03203Y00863*
Y00857*
X03197Y0085*
X03183*
X03177Y00857*
Y00863*
X03183Y0087*
X03177Y00877*
Y00883*
X03183Y0087D02*
X03197D01*
X03097Y01243D02*
X0309Y0125D01*
X03077*
X0307Y01243*
Y01217*
X03077Y0121*
X0309*
X03097Y01217*
X0311Y0121D02*
X03123D01*
X03117*
Y0125*
X0311Y01243*
X03143Y0121D02*
X03157D01*
X0315*
Y0125*
X03143Y01243*
X03177Y0125D02*
X03203D01*
Y01243*
X03177Y01217*
Y0121*
X03257Y00883D02*
X0325Y0089D01*
X03237*
X0323Y00883*
Y00857*
X03237Y0085*
X0325*
X03257Y00857*
X0327Y0085D02*
X03283D01*
X03277*
Y0089*
X0327Y00883*
X03303Y0085D02*
X03317D01*
X0331*
Y0089*
X03303Y00883*
X03363Y0089D02*
X0335Y00883D01*
X03337Y0087*
Y00857*
X03343Y0085*
X03357*
X03363Y00857*
Y00863*
X03357Y0087*
X03337*
X03257Y01243D02*
X0325Y0125D01*
X03237*
X0323Y01243*
Y01217*
X03237Y0121*
X0325*
X03257Y01217*
X0327Y0121D02*
X03283D01*
X03277*
Y0125*
X0327Y01243*
X03303Y0121D02*
X03317D01*
X0331*
Y0125*
X03303Y01243*
X03363Y0125D02*
X03337D01*
Y0123*
X0335Y01237*
X03357*
X03363Y0123*
Y01217*
X03357Y0121*
X03343*
X03337Y01217*
X03417Y00883D02*
X0341Y0089D01*
X03397*
X0339Y00883*
Y00857*
X03397Y0085*
X0341*
X03417Y00857*
X0343Y0085D02*
X03443D01*
X03437*
Y0089*
X0343Y00883*
X03463Y0085D02*
X03477D01*
X0347*
Y0089*
X03463Y00883*
X03517Y0085D02*
Y0089D01*
X03497Y0087*
X03523*
X03417Y01243D02*
X0341Y0125D01*
X03397*
X0339Y01243*
Y01217*
X03397Y0121*
X0341*
X03417Y01217*
X0343Y0121D02*
X03443D01*
X03437*
Y0125*
X0343Y01243*
X03463Y0121D02*
X03477D01*
X0347*
Y0125*
X03463Y01243*
X03497D02*
X03503Y0125D01*
X03517*
X03523Y01243*
Y01237*
X03517Y0123*
X0351*
X03517*
X03523Y01223*
Y01217*
X03517Y0121*
X03503*
X03497Y01217*
X03577Y00883D02*
X0357Y0089D01*
X03557*
X0355Y00883*
Y00857*
X03557Y0085*
X0357*
X03577Y00857*
X0359Y0085D02*
X03603D01*
X03597*
Y0089*
X0359Y00883*
X03623Y0085D02*
X03637D01*
X0363*
Y0089*
X03623Y00883*
X03683Y0085D02*
X03657D01*
X03683Y00877*
Y00883*
X03677Y0089*
X03663*
X03657Y00883*
X03587Y01243D02*
X0358Y0125D01*
X03567*
X0356Y01243*
Y01217*
X03567Y0121*
X0358*
X03587Y01217*
X036Y0121D02*
X03613D01*
X03607*
Y0125*
X036Y01243*
X03633Y0121D02*
X03647D01*
X0364*
Y0125*
X03633Y01243*
X03667Y0121D02*
X0368D01*
X03673*
Y0125*
X03667Y01243*
X03787Y0497D02*
X03773D01*
X0378*
Y04937*
X03773Y0493*
X03767*
X0376Y04937*
X038Y0493D02*
X03813D01*
X03807*
Y0497*
X038Y04963*
X0386Y0497D02*
X03847Y04963D01*
X03833Y0495*
Y04937*
X0384Y0493*
X03853*
X0386Y04937*
Y04943*
X03853Y0495*
X03833*
X03785Y04511D02*
X03772D01*
X03778*
Y04478*
X03772Y04471*
X03765*
X03758Y04478*
X03798Y04471D02*
X03812D01*
X03805*
Y04511*
X03798Y04504*
X03858Y04511D02*
X03832D01*
Y04491*
X03845Y04498*
X03852*
X03858Y04491*
Y04478*
X03852Y04471*
X03838*
X03832Y04478*
X03785Y03527D02*
X03772D01*
X03778*
Y03494*
X03772Y03487*
X03765*
X03758Y03494*
X03798Y03487D02*
X03812D01*
X03805*
Y03527*
X03798Y0352*
X03852Y03487D02*
Y03527D01*
X03832Y03507*
X03858*
X03785Y02543D02*
X03772D01*
X03778*
Y0251*
X03772Y02503*
X03765*
X03758Y0251*
X03798Y02503D02*
X03812D01*
X03805*
Y02543*
X03798Y02536*
X03832D02*
X03838Y02543D01*
X03852*
X03858Y02536*
Y0253*
X03852Y02523*
X03845*
X03852*
X03858Y02516*
Y0251*
X03852Y02503*
X03838*
X03832Y0251*
X03785Y01559D02*
X03772D01*
X03778*
Y01526*
X03772Y01519*
X03765*
X03758Y01526*
X03798Y01519D02*
X03812D01*
X03805*
Y01559*
X03798Y01552*
X03858Y01519D02*
X03832D01*
X03858Y01546*
Y01552*
X03852Y01559*
X03838*
X03832Y01552*
X03785Y00574D02*
X03772D01*
X03778*
Y00541*
X03772Y00534*
X03765*
X03758Y00541*
X03798Y00534D02*
X03812D01*
X03805*
Y00574*
X03798Y00567*
X03832Y00534D02*
X03845D01*
X03838*
Y00574*
X03832Y00567*
X02193Y00748D02*
X02199Y00755D01*
Y00768*
X02193Y00775*
X02166*
X02159Y00768*
Y00755*
X02166Y00748*
X02159Y00735D02*
Y00722D01*
Y00728*
X02199*
X02193Y00735*
X02159Y00702D02*
Y00688D01*
Y00695*
X02199*
X02193Y00702*
Y00668D02*
X02199Y00662D01*
Y00648*
X02193Y00642*
X02166*
X02159Y00648*
Y00662*
X02166Y00668*
X02193*
X02246Y00747D02*
X02252Y00754D01*
Y00767*
X02246Y00774*
X02219*
X02212Y00767*
Y00754*
X02219Y00747*
X02212Y00734D02*
Y00721D01*
Y00727*
X02252*
X02246Y00734*
Y00701D02*
X02252Y00694D01*
Y00681*
X02246Y00674*
X02219*
X02212Y00681*
Y00694*
X02219Y00701*
X02246*
X02219Y00661D02*
X02212Y00654D01*
Y00641*
X02219Y00634*
X02246*
X02252Y00641*
Y00654*
X02246Y00661*
X02239*
X02232Y00654*
Y00634*
X01715Y00756D02*
X01721Y00763D01*
Y00776*
X01715Y00783*
X01688*
X01681Y00776*
Y00763*
X01688Y00756*
X01681Y00743D02*
Y00729D01*
Y00736*
X01721*
X01715Y00743*
Y00709D02*
X01721Y00703D01*
Y00689*
X01715Y00683*
X01688*
X01681Y00689*
Y00703*
X01688Y00709*
X01715*
Y00669D02*
X01721Y00663D01*
Y00649*
X01715Y00643*
X01708*
X01701Y00649*
X01695Y00643*
X01688*
X01681Y00649*
Y00663*
X01688Y00669*
X01695*
X01701Y00663*
X01708Y00669*
X01715*
X01701Y00663D02*
Y00649D01*
X01765Y00756D02*
X01772Y00763D01*
Y00776*
X01765Y00783*
X01739*
X01732Y00776*
Y00763*
X01739Y00756*
X01732Y00743D02*
Y0073D01*
Y00736*
X01772*
X01765Y00743*
Y0071D02*
X01772Y00703D01*
Y0069*
X01765Y00683*
X01739*
X01732Y0069*
Y00703*
X01739Y0071*
X01765*
X01772Y0067D02*
Y00643D01*
X01765*
X01739Y0067*
X01732*
X01563Y0103D02*
X01553D01*
X01544Y01021*
Y01011*
X01563Y00992*
X01572*
X01582Y01002*
Y01011*
X01596Y01016D02*
X01605Y01025D01*
X016Y01021*
X01572Y01049*
Y0104*
X01596Y01063D02*
Y01073D01*
X01605Y01082*
X01615*
X01633Y01063*
Y01054*
X01624Y01044*
X01615*
X01596Y01063*
X01638Y01115D02*
X01633Y01101D01*
Y01082*
X01643Y01073*
X01652*
X01662Y01082*
Y01091*
X01657Y01096*
X01648*
X01633Y01082*
X01954Y00695D02*
X01994D01*
Y00675*
X01988Y00668*
X01974*
X01968Y00675*
Y00695*
Y00682D02*
X01954Y00668D01*
X01994Y00628D02*
Y00655D01*
X01974*
X01981Y00642*
Y00635*
X01974Y00628*
X01961*
X01954Y00635*
Y00648*
X01961Y00655*
X01994Y00615D02*
Y00588D01*
X01988*
X01961Y00615*
X01954*
X01897Y00699D02*
X01937D01*
Y00679*
X01931Y00672*
X01917*
X01911Y00679*
Y00699*
Y00686D02*
X01897Y00672D01*
X01937Y00632D02*
Y00659D01*
X01917*
X01924Y00646*
Y00639*
X01917Y00632*
X01904*
X01897Y00639*
Y00652*
X01904Y00659*
X01937Y00592D02*
X01931Y00606D01*
X01917Y00619*
X01904*
X01897Y00612*
Y00599*
X01904Y00592*
X01911*
X01917Y00599*
Y00619*
X01387Y00966D02*
Y01006D01*
X01407*
X01414Y01*
Y00986*
X01407Y0098*
X01387*
X014D02*
X01414Y00966D01*
X01454Y01006D02*
X01427D01*
Y00986*
X0144Y00993*
X01447*
X01454Y00986*
Y00973*
X01447Y00966*
X01434*
X01427Y00973*
X01494Y01006D02*
X01467D01*
Y00986*
X0148Y00993*
X01487*
X01494Y00986*
Y00973*
X01487Y00966*
X01474*
X01467Y00973*
X01361Y00905D02*
X01401D01*
Y00885*
X01395Y00878*
X01381*
X01375Y00885*
Y00905*
Y00892D02*
X01361Y00878D01*
X01401Y00838D02*
Y00865D01*
X01381*
X01388Y00852*
Y00845*
X01381Y00838*
X01368*
X01361Y00845*
Y00858*
X01368Y00865*
X01361Y00805D02*
X01401D01*
X01381Y00825*
Y00798*
X01325Y00505D02*
X01297Y00534D01*
X01311Y00548*
X0132*
X0133Y00538*
Y00529*
X01316Y00515*
X01325Y00524D02*
X01344D01*
Y00581D02*
X01325Y00562D01*
X01339Y00548*
X01344Y00562*
X01349Y00566*
X01358*
X01368Y00557*
Y00548*
X01358Y00538*
X01349*
X01358Y00585D02*
Y00595D01*
X01368Y00604*
X01377*
X01382Y00599*
Y0059*
X01377Y00585*
X01382Y0059*
X01391*
X01396Y00585*
Y00576*
X01386Y00566*
X01377*
X0128Y00542D02*
X01252Y00571D01*
X01266Y00585*
X01275*
X01285Y00575*
Y00566*
X01271Y00552*
X0128Y00561D02*
X01299D01*
Y00618D02*
X0128Y00599D01*
X01294Y00585*
X01299Y00599*
X01304Y00603*
X01313*
X01323Y00594*
Y00585*
X01313Y00575*
X01304*
X01355Y00618D02*
X01337Y00599D01*
Y00636*
X01332Y00641*
X01323*
X01313Y00632*
Y00622*
X00057Y04764D02*
X00043D01*
X0005*
Y04731*
X00043Y04724*
X00037*
X0003Y04731*
X0007Y04724D02*
Y04764D01*
X0009*
X00097Y04758*
Y04744*
X0009Y04738*
X0007*
X0013Y04724D02*
Y04764D01*
X0011Y04744*
X00137*
X0249Y04207D02*
X02518Y04235D01*
X02532Y04221*
Y04212*
X02523Y04202*
X02514*
X02499Y04216*
X02509Y04207D02*
Y04188D01*
X02542Y04202D02*
X02551D01*
X02561Y04193*
Y04183*
X02556Y04179*
X02547*
X02542Y04183*
X02547Y04179*
Y04169*
X02542Y04165*
X02532*
X02523Y04174*
Y04183*
X02594Y0416D02*
X02575Y04179D01*
X02561Y04165*
X02575Y0416*
X0258Y04155*
Y04146*
X0257Y04136*
X02561*
X02551Y04146*
Y04155*
X01575Y04143D02*
X01547Y04171D01*
X01561Y04185*
X0157*
X0158Y04176*
Y04167*
X01566Y04152*
X01575Y04162D02*
X01594D01*
X0158Y04195D02*
Y04204D01*
X01589Y04214*
X01599*
X01603Y04209*
Y042*
X01599Y04195*
X01603Y042*
X01613*
X01617Y04195*
Y04185*
X01608Y04176*
X01599*
X01627Y04204D02*
X01636D01*
X01646Y04214*
Y04223*
X01627Y04242*
X01617*
X01608Y04233*
Y04223*
X01613Y04218*
X01622*
X01636Y04233*
X01959Y04284D02*
X01931Y04312D01*
X01945Y04326*
X01954*
X01964Y04317*
Y04307*
X01949Y04293*
X01959Y04303D02*
X01978D01*
X01964Y04336D02*
Y04345D01*
X01973Y04355*
X01982*
X01987Y0435*
Y0434*
X01982Y04336*
X01987Y0434*
X01997*
X02001Y04336*
Y04326*
X01992Y04317*
X01982*
X01992Y04364D02*
Y04373D01*
X02001Y04383*
X02011*
X02015Y04378*
Y04369*
X02025*
X0203Y04364*
Y04355*
X0202Y04345*
X02011*
X02006Y0435*
Y04359*
X01997*
X01992Y04364*
X02006Y04359D02*
X02015Y04369D01*
X01597Y04484D02*
X01625Y04512D01*
X01639Y04498*
Y04489*
X0163Y04479*
X01621*
X01606Y04493*
X01616Y04484D02*
Y04465D01*
X01649Y04479D02*
X01658D01*
X01668Y0447*
Y0446*
X01663Y04456*
X01654*
X01649Y0446*
X01654Y04456*
Y04446*
X01649Y04442*
X01639*
X0163Y04451*
Y0446*
X01682Y04456D02*
X01701Y04437D01*
X01696Y04432*
X01658*
X01654Y04427*
X01749Y04167D02*
X01721Y04196D01*
X01735Y0421*
X01744*
X01754Y042*
Y04191*
X01739Y04177*
X01749Y04186D02*
X01768D01*
X01754Y04219D02*
Y04229D01*
X01763Y04238*
X01772*
X01777Y04233*
Y04224*
X01772Y04219*
X01777Y04224*
X01787*
X01791Y04219*
Y0421*
X01782Y042*
X01772*
X01796Y04271D02*
X01791Y04257D01*
Y04238*
X01801Y04229*
X0181*
X0182Y04238*
Y04247*
X01815Y04252*
X01805*
X01791Y04238*
X02021Y04406D02*
X0205Y04434D01*
X02064Y0442*
Y0441*
X02054Y04401*
X02045*
X02031Y04415*
X0204Y04406D02*
Y04387D01*
X02073Y04401D02*
X02083D01*
X02092Y04391*
Y04382*
X02087Y04377*
X02078*
X02073Y04382*
X02078Y04377*
Y04368*
X02073Y04363*
X02064*
X02054Y04373*
Y04382*
X02092Y04335D02*
X0212Y04363D01*
X02092*
X02111Y04344*
X02533Y04443D02*
X02505Y04471D01*
X02519Y04485*
X02528*
X02538Y04476*
Y04467*
X02524Y04452*
X02533Y04462D02*
X02552D01*
X02538Y04495D02*
Y04504D01*
X02547Y04514*
X02557*
X02561Y04509*
Y045*
X02557Y04495*
X02561Y045*
X02571*
X02575Y04495*
Y04485*
X02566Y04476*
X02557*
X02566Y04523D02*
Y04533D01*
X02575Y04542*
X02585*
X0259Y04537*
Y04528*
X02585Y04523*
X0259Y04528*
X02599*
X02604Y04523*
Y04514*
X02594Y04504*
X02585*
X02233Y04372D02*
X02262Y044D01*
X02276Y04386*
Y04377*
X02266Y04367*
X02257*
X02243Y04382*
X02252Y04372D02*
Y04353D01*
X02285Y04367D02*
X02295D01*
X02304Y04358*
Y04349*
X02299Y04344*
X0229*
X02285Y04349*
X0229Y04344*
Y04334*
X02285Y0433*
X02276*
X02266Y04339*
Y04349*
X02309Y04297D02*
X0229Y04316D01*
X02328*
X02332Y0432*
Y0433*
X02323Y04339*
X02314*
X02412Y04142D02*
X0244Y04171D01*
X02454Y04157*
Y04147*
X02445Y04138*
X02435*
X02421Y04152*
X02431Y04142D02*
Y04124D01*
X02464Y04138D02*
X02473D01*
X02482Y04128*
Y04119*
X02478Y04114*
X02468*
X02464Y04119*
X02468Y04114*
Y04105*
X02464Y041*
X02454*
X02445Y04109*
Y04119*
X02468Y04086D02*
X02478Y04076D01*
X02473Y04081*
X02501Y04109*
X02492*
X0006Y04613D02*
Y04652D01*
X0008*
X00087Y04646*
Y04632*
X0008Y04626*
X0006*
X00074D02*
X00087Y04613D01*
X00127D02*
X001D01*
X00127Y04639*
Y04646*
X0012Y04652*
X00107*
X001Y04646*
X00167Y04652D02*
X00154Y04646D01*
X0014Y04632*
Y04619*
X00147Y04613*
X0016*
X00167Y04619*
Y04626*
X0016Y04632*
X0014*
X00674Y04748D02*
Y04735D01*
Y04741*
X00707*
X00714Y04735*
Y04728*
X00707Y04721*
X00714Y04761D02*
X00674D01*
Y04781*
X0068Y04788*
X00694*
X007Y04781*
Y04761*
X00674Y04828D02*
X0068Y04815D01*
X00694Y04801*
X00707*
X00714Y04808*
Y04821*
X00707Y04828*
X007*
X00694Y04821*
Y04801*
X01449Y04753D02*
Y0474D01*
Y04746*
X01482*
X01488Y0474*
Y04733*
X01482Y04727*
X01488Y04766D02*
X01449D01*
Y04786*
X01455Y04793*
X01469*
X01475Y04786*
Y04766*
X01449Y04833D02*
Y04806D01*
X01469*
X01462Y0482*
Y04826*
X01469Y04833*
X01482*
X01488Y04826*
Y04813*
X01482Y04806*
X02355Y04422D02*
X02345D01*
X02336Y04412*
Y04403*
X02355Y04384*
X02364*
X02373Y04393*
Y04403*
X02402Y04422D02*
X02373Y0445D01*
Y04422*
X02392Y04441*
X02435Y04455D02*
X02416Y04436D01*
Y04474*
X02411Y04478*
X02402*
X02392Y04469*
Y04459*
X02233Y04558D02*
X02223D01*
X02214Y04548*
Y04539*
X02233Y0452*
X02242*
X02252Y04529*
Y04539*
X0228Y04558D02*
X02252Y04586D01*
Y04558*
X0227Y04577*
X02294Y04572D02*
X02303Y04581D01*
X02299Y04577*
X0227Y04605*
Y04595*
X02458Y04214D02*
Y04223D01*
X02448Y04233*
X02439*
X0242Y04214*
Y04204*
X0243Y04195*
X02439*
X02467Y04204D02*
X02477D01*
X02486Y04195*
Y04186*
X02481Y04181*
X02472*
X02467Y04186*
X02472Y04181*
Y04171*
X02467Y04167*
X02458*
X02448Y04176*
Y04186*
X02477Y04157D02*
Y04148D01*
X02486Y04139*
X02496*
X02514Y04157*
Y04167*
X02505Y04176*
X02496*
X02491Y04171*
Y04162*
X02505Y04148*
X01006Y03572D02*
X00993D01*
X00999*
Y03539*
X00993Y03532*
X00986*
X00979Y03539*
X01019Y03532D02*
Y03572D01*
X01039*
X01046Y03565*
Y03552*
X01039Y03545*
X01019*
X01059Y03565D02*
X01066Y03572D01*
X01079*
X01086Y03565*
Y03559*
X01079Y03552*
X01073*
X01079*
X01086Y03545*
Y03539*
X01079Y03532*
X01066*
X01059Y03539*
X01099Y03525D02*
X01126D01*
X01139Y03572D02*
Y03532D01*
X01159*
X01166Y03539*
Y03545*
X01159Y03552*
X01139*
X01159*
X01166Y03559*
Y03565*
X01159Y03572*
X01139*
X01024Y01982D02*
X01011D01*
X01017*
Y01948*
X01011Y01942*
X01004*
X00997Y01948*
X01037Y01942D02*
Y01982D01*
X01057*
X01064Y01975*
Y01962*
X01057Y01955*
X01037*
X01104Y01942D02*
X01077D01*
X01104Y01968*
Y01975*
X01097Y01982*
X01084*
X01077Y01975*
X01117Y01935D02*
X01144D01*
X01157Y01982D02*
Y01942D01*
X01177*
X01184Y01948*
Y01955*
X01177Y01962*
X01157*
X01177*
X01184Y01968*
Y01975*
X01177Y01982*
X01157*
X00776Y04046D02*
X00743D01*
X00737Y04039*
Y04026*
X00743Y04019*
X00776*
X00737Y04006D02*
Y03993D01*
Y03999*
X00776*
X0077Y04006*
Y03973D02*
X00776Y03966D01*
Y03953*
X0077Y03946*
X00743*
X00737Y03953*
Y03966*
X00743Y03973*
X0077*
X00931Y04412D02*
Y04444D01*
X00925Y0445*
X00912*
X00906Y04444*
Y04412*
X00893Y04444D02*
X00887Y0445D01*
X00874*
X00868Y04444*
Y04418*
X00874Y04412*
X00887*
X00893Y04418*
Y04425*
X00887Y04431*
X00868*
X0139Y0419D02*
Y04223D01*
X01384Y04229*
X01371*
X01364Y04223*
Y0419*
X01351D02*
X01324D01*
Y04196*
X01351Y04223*
Y04229*
X00595Y04516D02*
Y04556D01*
X00615*
X00622Y0455*
Y04536*
X00615Y0453*
X00595*
X00609D02*
X00622Y04516D01*
X00662D02*
X00635D01*
X00662Y04543*
Y0455*
X00655Y04556*
X00642*
X00635Y0455*
X00702Y04556D02*
X00675D01*
Y04536*
X00689Y04543*
X00695*
X00702Y04536*
Y04523*
X00695Y04516*
X00682*
X00675Y04523*
X0006Y04522D02*
Y04561D01*
X0008*
X00087Y04555*
Y04541*
X0008Y04535*
X0006*
X00074D02*
X00087Y04522D01*
X00127D02*
X001D01*
X00127Y04548*
Y04555*
X0012Y04561*
X00107*
X001Y04555*
X0016Y04522D02*
Y04561D01*
X0014Y04541*
X00167*
X00818Y0466D02*
Y04699D01*
X00838*
X00845Y04693*
Y04679*
X00838Y04673*
X00818*
X00832D02*
X00845Y0466D01*
X00885D02*
X00858D01*
X00885Y04686*
Y04693*
X00878Y04699*
X00865*
X00858Y04693*
X00898D02*
X00905Y04699D01*
X00918*
X00925Y04693*
Y04686*
X00918Y04679*
X00912*
X00918*
X00925Y04673*
Y04666*
X00918Y0466*
X00905*
X00898Y04666*
X01133Y0454D02*
Y0458D01*
X01153*
X01159Y04573*
Y0456*
X01153Y04553*
X01133*
X01146D02*
X01159Y0454D01*
X01199D02*
X01173D01*
X01199Y04566*
Y04573*
X01193Y0458*
X01179*
X01173Y04573*
X01212Y0454D02*
X01226D01*
X01219*
Y0458*
X01212Y04573*
X02152Y00895D02*
X02192D01*
Y00875*
X02185Y00868*
X02172*
X02165Y00875*
Y00895*
Y00882D02*
X02152Y00868D01*
Y00855D02*
Y00842D01*
Y00848*
X02192*
X02185Y00855*
Y00822D02*
X02192Y00815D01*
Y00802*
X02185Y00795*
X02179*
X02172Y00802*
X02165Y00795*
X02159*
X02152Y00802*
Y00815*
X02159Y00822*
X02165*
X02172Y00815*
X02179Y00822*
X02185*
X02172Y00815D02*
Y00802D01*
X02204Y00895D02*
X02244D01*
Y00875*
X02237Y00869*
X02224*
X02217Y00875*
Y00895*
Y00882D02*
X02204Y00869D01*
Y00855D02*
Y00842D01*
Y00849*
X02244*
X02237Y00855*
X02204Y00802D02*
X02244D01*
X02224Y00822*
Y00795*
X0168Y00893D02*
X0172D01*
Y00873*
X01713Y00866*
X017*
X01693Y00873*
Y00893*
Y00879D02*
X0168Y00866D01*
X01713Y00853D02*
X0172Y00846D01*
Y00833*
X01713Y00826*
X01706*
X017Y00833*
X01693Y00826*
X01686*
X0168Y00833*
Y00846*
X01686Y00853*
X01693*
X017Y00846*
X01706Y00853*
X01713*
X017Y00846D02*
Y00833D01*
X01735Y00893D02*
X01775D01*
Y00873*
X01768Y00866*
X01755*
X01748Y00873*
Y00893*
Y00879D02*
X01735Y00866D01*
Y00833D02*
X01775D01*
X01755Y00853*
Y00826*
X02209Y0476D02*
Y04747D01*
Y04753*
X02242*
X02249Y04747*
Y0474*
X02242Y04734*
X02249Y04773D02*
X02209D01*
Y04793*
X02215Y048*
X02229*
X02235Y04793*
Y04773*
X02215Y04813D02*
X02209Y0482D01*
Y04833*
X02215Y0484*
X02222*
X02229Y04833*
X02235Y0484*
X02242*
X02249Y04833*
Y0482*
X02242Y04813*
X02235*
X02229Y0482*
X02222Y04813*
X02215*
X02229Y0482D02*
Y04833D01*
X02497Y04759D02*
Y04745D01*
Y04752*
X0253*
X02537Y04745*
Y04739*
X0253Y04732*
X02537Y04772D02*
X02497D01*
Y04792*
X02504Y04799*
X02517*
X02524Y04792*
Y04772*
X02497Y04812D02*
Y04839D01*
X02504*
X0253Y04812*
X02537*
X02137Y00057D02*
Y00044D01*
Y0005*
X0217*
X02177Y00044*
Y00037*
X0217Y00031*
X02177Y0007D02*
X02137D01*
Y0009*
X02143Y00097*
X02157*
X02163Y0009*
Y0007*
X02177Y00137D02*
Y0011D01*
X0215Y00137*
X02143*
X02137Y0013*
Y00117*
X02143Y0011*
X01397Y00057D02*
Y00044D01*
Y0005*
X0143*
X01436Y00044*
Y00037*
X0143Y00031*
X01436Y0007D02*
X01397D01*
Y0009*
X01403Y00097*
X01417*
X01423Y0009*
Y0007*
X01436Y0011D02*
Y00124D01*
Y00117*
X01397*
X01403Y0011*
X01583Y01452D02*
Y01461D01*
X01573Y01471*
X01564*
X01545Y01452*
Y01442*
X01554Y01433*
X01564*
X01568Y01419D02*
X01578Y01409D01*
X01573Y01414*
X01601Y01442*
X01592*
X01611Y01376D02*
X01592Y01395D01*
X0163*
X01634Y014*
Y01409*
X01625Y01419*
X01616*
X02514Y01323D02*
X02504D01*
X02495Y01313*
Y01304*
X02514Y01285*
X02523*
X02533Y01294*
Y01304*
X02519Y01337D02*
X02537Y01356D01*
X02542Y01351*
Y01313*
X02547Y01308*
X02392Y01383D02*
X02383D01*
X02374Y01374*
Y01364*
X02392Y01345*
X02402*
X02411Y01355*
Y01364*
X02416Y01416D02*
X02397Y01397D01*
X02411Y01383*
X02416Y01397*
X02421Y01402*
X0243*
X0244Y01392*
Y01383*
X0243Y01374*
X02421*
X02278Y01122D02*
Y01132D01*
X02268Y01141*
X02259*
X0224Y01122*
Y01113*
X02249Y01103*
X02259*
X02263Y01089D02*
X02273Y0108D01*
X02268Y01084*
X02296Y01113*
X02287*
Y01066D02*
X02296Y01056D01*
X02292Y01061*
X0232Y01089*
X02311*
X01985Y00878D02*
X01978Y00884D01*
X01965*
X01959Y00878*
Y00851*
X01965Y00845*
X01978*
X01985Y00851*
X01998Y00845D02*
X02012D01*
X02005*
Y00884*
X01998Y00878*
X02032D02*
X02038Y00884D01*
X02052*
X02058Y00878*
Y00851*
X02052Y00845*
X02038*
X02032Y00851*
Y00878*
X02337Y01003D02*
X02343Y0101D01*
Y01023*
X02337Y0103*
X0231*
X02303Y01023*
Y0101*
X0231Y01003*
Y0099D02*
X02303Y00983D01*
Y0097*
X0231Y00963*
X02337*
X02343Y0097*
Y00983*
X02337Y0099*
X0233*
X02323Y00983*
Y00963*
X02054Y01086D02*
X02047Y01093D01*
X02034*
X02027Y01086*
Y01059*
X02034Y01053*
X02047*
X02054Y01059*
X02067Y01086D02*
X02074Y01093D01*
X02087*
X02094Y01086*
Y01079*
X02087Y01073*
X02094Y01066*
Y01059*
X02087Y01053*
X02074*
X02067Y01059*
Y01066*
X02074Y01073*
X02067Y01079*
Y01086*
X02074Y01073D02*
X02087D01*
X01853Y0109D02*
X01846Y01096D01*
X01833*
X01827Y0109*
Y01063*
X01833Y01056*
X01846*
X01853Y01063*
X01886Y01056D02*
Y01096D01*
X01866Y01076*
X01893*
X01744Y01075D02*
X01734D01*
X01725Y01066*
Y01057*
X01744Y01038*
X01753*
X01763Y01047*
Y01057*
X01753Y01085D02*
Y01094D01*
X01763Y01104*
X01772*
X01777Y01099*
Y0109*
X01772Y01085*
X01777Y0109*
X01786*
X01791Y01085*
Y01075*
X01781Y01066*
X01772*
X01612Y00965D02*
X01618Y00972D01*
Y00985*
X01612Y00992*
X01585*
X01579Y00985*
Y00972*
X01585Y00965*
X01579Y00925D02*
Y00952D01*
X01605Y00925*
X01612*
X01618Y00932*
Y00945*
X01612Y00952*
X01899Y00869D02*
X01906Y00876D01*
Y00889*
X01899Y00896*
X01873*
X01866Y00889*
Y00876*
X01873Y00869*
X01866Y00856D02*
Y00842D01*
Y00849*
X01906*
X01899Y00856*
X02045Y01133D02*
X02039Y0114D01*
X02025*
X02019Y01133*
Y01106*
X02025Y011*
X02039*
X02045Y01106*
X02085Y0114D02*
X02072Y01133D01*
X02059Y0112*
Y01106*
X02065Y011*
X02079*
X02085Y01106*
Y01113*
X02079Y0112*
X02059*
X0166Y0415D02*
Y04117D01*
X01666Y0411*
X0168*
X01686Y04117*
Y0415*
X017Y0411D02*
X01713D01*
X01706*
Y0415*
X017Y04143*
X0176Y0411D02*
X01733D01*
X0176Y04137*
Y04143*
X01753Y0415*
X0174*
X01733Y04143*
X01814Y01162D02*
Y01129D01*
X01821Y01122*
X01834*
X01841Y01129*
Y01162*
X01854Y01122D02*
X01868D01*
X01861*
Y01162*
X01854Y01156*
X01459Y01274D02*
X01483Y0125D01*
X01492*
X01502Y0126*
Y01269*
X01478Y01293*
X01506Y01321D02*
X01502Y01307D01*
Y01288*
X01511Y01279*
X0152*
X0153Y01288*
Y01298*
X01525Y01302*
X01516*
X01502Y01288*
X01423Y0463D02*
X01417Y04636D01*
X01403*
X01397Y0463*
Y04603*
X01403Y04596*
X01417*
X01423Y04603*
X01463Y04596D02*
X01437D01*
X01463Y04623*
Y0463*
X01457Y04636*
X01443*
X01437Y0463*
X01497Y04596D02*
Y04636D01*
X01477Y04616*
X01503*
X01174Y04024D02*
X01181Y04031D01*
Y04044*
X01174Y04051*
X01148*
X01141Y04044*
Y04031*
X01148Y04024*
X01141Y03984D02*
Y04011D01*
X01168Y03984*
X01174*
X01181Y03991*
Y04004*
X01174Y04011*
X01181Y03944D02*
Y03971D01*
X01161*
X01168Y03958*
Y03951*
X01161Y03944*
X01148*
X01141Y03951*
Y03964*
X01148Y03971*
X00676Y0463D02*
X0067Y04636D01*
X00656*
X0065Y0463*
Y04603*
X00656Y04596*
X0067*
X00676Y04603*
X00716Y04596D02*
X0069D01*
X00716Y04623*
Y0463*
X0071Y04636*
X00696*
X0069Y0463*
X0073Y04603D02*
X00736Y04596D01*
X0075*
X00756Y04603*
Y0463*
X0075Y04636*
X00736*
X0073Y0463*
Y04623*
X00736Y04616*
X00756*
X01133Y04128D02*
Y04162D01*
X01126Y04168*
X01113*
X01106Y04162*
Y04128*
X01093Y04135D02*
X01086Y04128D01*
X01073*
X01066Y04135*
Y04142*
X01073Y04148*
X01066Y04155*
Y04162*
X01073Y04168*
X01086*
X01093Y04162*
Y04155*
X01086Y04148*
X01093Y04142*
Y04135*
X01086Y04148D02*
X01073D01*
X02057Y0453D02*
X02033Y04553D01*
X02024*
X02014Y04544*
Y04535*
X02038Y04511*
X02Y0453D02*
X01991Y0452D01*
X01995Y04525*
X02024Y04497*
Y04506*
X01962Y04492D02*
X01991Y04464D01*
Y04492*
X01972Y04473*
X01577Y0397D02*
Y0401D01*
X01597*
X01604Y04004*
Y0399*
X01597Y03984*
X01577*
X01591D02*
X01604Y0397D01*
X01617Y04004D02*
X01624Y0401D01*
X01637*
X01644Y04004*
Y03997*
X01637Y0399*
X01631*
X01637*
X01644Y03984*
Y03977*
X01637Y0397*
X01624*
X01617Y03977*
X01657Y04004D02*
X01664Y0401D01*
X01677*
X01684Y04004*
Y03977*
X01677Y0397*
X01664*
X01657Y03977*
Y04004*
X01435Y0397D02*
Y0401D01*
X01455*
X01462Y04003*
Y0399*
X01455Y03983*
X01435*
X01448D02*
X01462Y0397D01*
X01502D02*
X01475D01*
X01502Y03996*
Y04003*
X01495Y0401*
X01482*
X01475Y04003*
X01515Y03976D02*
X01522Y0397D01*
X01535*
X01542Y03976*
Y04003*
X01535Y0401*
X01522*
X01515Y04003*
Y03996*
X01522Y0399*
X01542*
X01148Y03867D02*
Y03907D01*
X01168*
X01174Y03901*
Y03887*
X01168Y03881*
X01148*
X01161D02*
X01174Y03867D01*
X01214D02*
X01188D01*
X01214Y03894*
Y03901*
X01208Y03907*
X01194*
X01188Y03901*
X01228D02*
X01234Y03907D01*
X01248*
X01254Y03901*
Y03894*
X01248Y03887*
X01254Y03881*
Y03874*
X01248Y03867*
X01234*
X01228Y03874*
Y03881*
X01234Y03887*
X01228Y03894*
Y03901*
X01234Y03887D02*
X01248D01*
X01296Y04002D02*
Y04042D01*
X01316*
X01323Y04035*
Y04022*
X01316Y04015*
X01296*
X01309D02*
X01323Y04002D01*
X01363D02*
X01336D01*
X01363Y04028*
Y04035*
X01356Y04042*
X01343*
X01336Y04035*
X01376Y04042D02*
X01403D01*
Y04035*
X01376Y04008*
Y04002*
X01539Y04329D02*
Y04338D01*
X0153Y04348*
X01521*
X01502Y04329*
Y04319*
X01511Y0431*
X01521*
X01539Y04282D02*
X01568Y0431D01*
X01539*
X01558Y04291*
X01577D02*
X01587D01*
X01596Y04282*
Y04272*
X01591Y04267*
X01582*
X01577Y04272*
X01582Y04267*
Y04258*
X01577Y04253*
X01568*
X01558Y04263*
Y04272*
X02594Y04421D02*
X02585D01*
X02575Y04412*
Y04403*
X02594Y04384*
X02604*
X02613Y04393*
Y04403*
X02641Y04421D02*
X02613Y0445D01*
Y04421*
X02632Y0444*
Y04459D02*
Y04469D01*
X02641Y04478*
X02651*
X0267Y04459*
Y0445*
X0266Y0444*
X02651*
X02632Y04459*
X01732Y03661D02*
X01726Y03654D01*
Y03641*
X01732Y03635*
X01759*
X01765Y03641*
Y03654*
X01759Y03661*
X01732Y03674D02*
X01726Y03681D01*
Y03694*
X01732Y03701*
X01739*
X01746Y03694*
Y03688*
Y03694*
X01752Y03701*
X01759*
X01765Y03694*
Y03681*
X01759Y03674*
X01732Y03714D02*
X01726Y03721D01*
Y03734*
X01732Y03741*
X01739*
X01746Y03734*
X01752Y03741*
X01759*
X01765Y03734*
Y03721*
X01759Y03714*
X01752*
X01746Y03721*
X01739Y03714*
X01732*
X01746Y03721D02*
Y03734D01*
X01465Y03661D02*
X01459Y03654D01*
Y03641*
X01465Y03635*
X01492*
X01498Y03641*
Y03654*
X01492Y03661*
X01465Y03674D02*
X01459Y03681D01*
Y03694*
X01465Y03701*
X01472*
X01479Y03694*
Y03688*
Y03694*
X01485Y03701*
X01492*
X01498Y03694*
Y03681*
X01492Y03674*
X01459Y03714D02*
Y03741D01*
X01465*
X01492Y03714*
X01498*
X01171Y0384D02*
X01164Y03847D01*
X01151*
X01144Y0384*
Y03813*
X01151Y03807*
X01164*
X01171Y03813*
X01184Y0384D02*
X01191Y03847D01*
X01204*
X01211Y0384*
Y03833*
X01204Y03827*
X01198*
X01204*
X01211Y0382*
Y03813*
X01204Y03807*
X01191*
X01184Y03813*
X01251Y03847D02*
X01238Y0384D01*
X01224Y03827*
Y03813*
X01231Y03807*
X01244*
X01251Y03813*
Y0382*
X01244Y03827*
X01224*
X01172Y03778D02*
X01165Y03785D01*
X01152*
X01145Y03778*
Y03751*
X01152Y03745*
X01165*
X01172Y03751*
X01185Y03778D02*
X01192Y03785D01*
X01205*
X01212Y03778*
Y03771*
X01205Y03765*
X01199*
X01205*
X01212Y03758*
Y03751*
X01205Y03745*
X01192*
X01185Y03751*
X01252Y03785D02*
X01225D01*
Y03765*
X01239Y03771*
X01245*
X01252Y03765*
Y03751*
X01245Y03745*
X01232*
X01225Y03751*
X01461Y04514D02*
X01455Y04507D01*
Y04494*
X01461Y04488*
X01488*
X01495Y04494*
Y04507*
X01488Y04514*
X01495Y04527D02*
Y04541D01*
Y04534*
X01455*
X01461Y04527*
X01455Y04587D02*
X01461Y04574D01*
X01475Y04561*
X01488*
X01495Y04567*
Y04581*
X01488Y04587*
X01481*
X01475Y04581*
Y04561*
X01307Y04572D02*
X013Y04579D01*
X01287*
X01281Y04572*
Y04545*
X01287Y04539*
X013*
X01307Y04545*
X0132Y04539D02*
X01334D01*
X01327*
Y04579*
X0132Y04572*
X01354Y04579D02*
X0138D01*
Y04572*
X01354Y04545*
Y04539*
X01529Y01407D02*
Y01417D01*
X0152Y01426*
X0151*
X01491Y01407*
Y01398*
X01501Y01388*
X0151*
X01529Y0136D02*
X01557Y01388D01*
X01529*
X01548Y0137*
X0159Y01355D02*
X01576Y0136D01*
X01557*
X01548Y01351*
Y01341*
X01557Y01332*
X01567*
X01571Y01337*
Y01346*
X01557Y0136*
X02012Y01634D02*
X02018Y01641D01*
Y01654*
X02012Y01661*
X01985*
X01979Y01654*
Y01641*
X01985Y01634*
X02018Y01594D02*
Y01621D01*
X01998*
X02005Y01607*
Y01601*
X01998Y01594*
X01985*
X01979Y01601*
Y01614*
X01985Y01621*
X02012Y01581D02*
X02018Y01574D01*
Y01561*
X02012Y01554*
X01985*
X01979Y01561*
Y01574*
X01985Y01581*
X02012*
X01567Y00679D02*
X01574Y00686D01*
Y00699*
X01567Y00706*
X01541*
X01534Y00699*
Y00686*
X01541Y00679*
X01567Y00666D02*
X01574Y00659D01*
Y00646*
X01567Y00639*
X01561*
X01554Y00646*
X01547Y00639*
X01541*
X01534Y00646*
Y00659*
X01541Y00666*
X01547*
X01554Y00659*
X01561Y00666*
X01567*
X01554Y00659D02*
Y00646D01*
X01574Y00626D02*
Y00599D01*
X01567*
X01541Y00626*
X01534*
X02042Y00666D02*
X02049Y00673D01*
Y00686*
X02042Y00693*
X02015*
X02009Y00686*
Y00673*
X02015Y00666*
Y00653D02*
X02009Y00646D01*
Y00633*
X02015Y00626*
X02042*
X02049Y00633*
Y00646*
X02042Y00653*
X02035*
X02029Y00646*
Y00626*
X02042Y00613D02*
X02049Y00606D01*
Y00593*
X02042Y00586*
X02015*
X02009Y00593*
Y00606*
X02015Y00613*
X02042*
X01388Y01186D02*
Y01195D01*
X01379Y01205*
X01369*
X0135Y01186*
Y01177*
X0136Y01167*
X01369*
X01379Y01158D02*
Y01148D01*
X01388Y01139*
X01397*
X01416Y01158*
Y01167*
X01407Y01177*
X01397*
X01393Y01172*
Y01162*
X01407Y01148*
X01426D02*
X01435D01*
X01445Y01139*
Y01129*
X0144Y01125*
X0143*
X01426Y01129*
X0143Y01125*
Y01115*
X01426Y01111*
X01416*
X01407Y0112*
Y01129*
X01436Y01227D02*
Y01237D01*
X01426Y01246*
X01417*
X01398Y01227*
Y01218*
X01407Y01209*
X01417*
X01426Y01199D02*
Y0119D01*
X01436Y0118*
X01445*
X01464Y01199*
Y01209*
X01454Y01218*
X01445*
X0144Y01213*
Y01204*
X01454Y0119*
X01464Y01152D02*
X01492Y0118D01*
X01464*
X01483Y01161*
X00843Y04363D02*
Y04403D01*
X00863*
X00869Y04397*
Y04383*
X00863Y04377*
X00843*
X00856D02*
X00869Y04363D01*
X00902D02*
Y04403D01*
X00882Y04383*
X00909*
X00922Y04403D02*
X00949D01*
Y04397*
X00922Y0437*
Y04363*
X00593Y04277D02*
X0056D01*
X00553Y0427*
Y04257*
X0056Y0425*
X00593*
X00553Y04237D02*
Y04224D01*
Y0423*
X00593*
X00586Y04237*
X00553Y04204D02*
Y0419D01*
Y04197*
X00593*
X00586Y04204*
X01216Y03644D02*
Y03677D01*
X01209Y03684*
X01196*
X0119Y03677*
Y03644*
X01176Y03684D02*
X01163D01*
X0117*
Y03644*
X01176Y0365*
X01143Y03677D02*
X01136Y03684D01*
X01123*
X01116Y03677*
Y0365*
X01123Y03644*
X01136*
X01143Y0365*
Y03657*
X01136Y03664*
X01116*
X00334Y01241D02*
X0032D01*
X00327*
Y01208*
X0032Y01201*
X00314*
X00307Y01208*
X00347Y01201D02*
Y01241D01*
X00367*
X00374Y01235*
Y01221*
X00367Y01215*
X00347*
X00387Y01235D02*
X00394Y01241D01*
X00407*
X00414Y01235*
Y01228*
X00407Y01221*
X004*
X00407*
X00414Y01215*
Y01208*
X00407Y01201*
X00394*
X00387Y01208*
X00608Y01475D02*
X00595D01*
X00601*
Y01442*
X00595Y01435*
X00588*
X00581Y01442*
X00621Y01435D02*
Y01475D01*
X00641*
X00648Y01468*
Y01455*
X00641Y01448*
X00621*
X00688Y01435D02*
X00661D01*
X00688Y01462*
Y01468*
X00681Y01475*
X00668*
X00661Y01468*
X00701D02*
X00708Y01475D01*
X00721*
X00728Y01468*
Y01442*
X00721Y01435*
X00708*
X00701Y01442*
Y01468*
X0294Y0165D02*
Y0169D01*
X0296*
X02967Y01683*
Y0167*
X0296Y01663*
X0294*
X02953D02*
X02967Y0165D01*
X03007Y0169D02*
X0298D01*
Y0165*
X03007*
X0298Y0167D02*
X02993D01*
X0302Y0169D02*
Y0165D01*
X0304*
X03047Y01657*
Y01683*
X0304Y0169*
X0302*
X02967Y01883D02*
X0296Y0189D01*
X02947*
X0294Y01883*
Y01857*
X02947Y0185*
X0296*
X02967Y01857*
Y0187*
X02953*
X0298Y0185D02*
Y0189D01*
X03*
X03007Y01883*
Y0187*
X03Y01863*
X0298*
X02993D02*
X03007Y0185D01*
X0302D02*
Y0189D01*
X03047Y0185*
Y0189*
X02967Y01783D02*
X0296Y0179D01*
X02947*
X0294Y01783*
Y01757*
X02947Y0175*
X0296*
X02967Y01757*
Y0177*
X02953*
X0298Y0175D02*
Y0179D01*
X03007Y0175*
Y0179*
X0302D02*
Y0175D01*
X0304*
X03047Y01757*
Y01783*
X0304Y0179*
X0302*
X00206Y00246D02*
X00233D01*
Y00239*
X00206Y00213*
Y00206*
X00246D02*
X00273Y00233D01*
X00313Y00206D02*
X00286D01*
X00313Y00233*
Y00239*
X00306Y00246*
X00293*
X00286Y00239*
X00326Y00213D02*
X00333Y00206D01*
X00346*
X00353Y00213*
Y00239*
X00346Y00246*
X00333*
X00326Y00239*
Y00233*
X00333Y00226*
X00353*
X00366Y00206D02*
X00393Y00233D01*
X00433Y00206D02*
X00406D01*
X00433Y00233*
Y00239*
X00426Y00246*
X00413*
X00406Y00239*
X00446D02*
X00453Y00246D01*
X00466*
X00473Y00239*
Y00213*
X00466Y00206*
X00453*
X00446Y00213*
Y00239*
X00486Y00206D02*
X00499D01*
X00493*
Y00246*
X00486Y00239*
X00546Y00246D02*
X00533Y00239D01*
X00519Y00226*
Y00213*
X00526Y00206*
X00539*
X00546Y00213*
Y00219*
X00539Y00226*
X00519*
X00233Y00313D02*
Y00273D01*
X00213*
X00206Y0028*
Y00293*
X00213Y003*
X00233*
X00253D02*
X00266D01*
X00273Y00293*
Y00273*
X00253*
X00246Y0028*
X00253Y00286*
X00273*
X00286Y003D02*
X00299Y00273D01*
X00313Y003*
X00326Y00273D02*
X00339D01*
X00333*
Y003*
X00326*
X00386Y00313D02*
Y00273D01*
X00366*
X00359Y0028*
Y00293*
X00366Y003*
X00386*
X00399Y00273D02*
Y0028D01*
X00406*
Y00273*
X00399*
X00433D02*
X00446D01*
X00439*
Y00313*
X00433*
X00486Y00273D02*
X00473D01*
X00466Y0028*
Y00293*
X00473Y003*
X00486*
X00493Y00293*
Y00286*
X00466*
X00506Y00273D02*
X00519D01*
X00513*
Y003*
X00506*
X00539Y00313D02*
Y00273D01*
X00559*
X00566Y0028*
Y00286*
Y00293*
X00559Y003*
X00539*
X00579D02*
Y00273D01*
Y00286*
X00586Y00293*
X00593Y003*
X00599*
X00626D02*
X00639D01*
X00646Y00293*
Y00273*
X00626*
X00619Y0028*
X00626Y00286*
X00646*
X00659Y00273D02*
Y003D01*
X00679*
X00686Y00293*
Y00273*
X00726Y00313D02*
Y00273D01*
X00706*
X00699Y0028*
Y00293*
X00706Y003*
X00726*
X00746Y00306D02*
Y003D01*
X00739*
X00752*
X00746*
Y0028*
X00752Y00273*
X00792Y00286D02*
Y00293D01*
X00786*
Y00286*
X00792*
X00799Y00293*
Y00306*
X00792Y00313*
X00779*
X00772Y00306*
Y0028*
X00779Y00273*
X00799*
X00812D02*
Y003D01*
X00832*
X00839Y00293*
Y00273*
X00852D02*
X00866D01*
X00859*
Y003*
X00852*
X00886Y00273D02*
X00906D01*
X00912Y0028*
X00906Y00286*
X00892*
X00886Y00293*
X00892Y003*
X00912*
X00932Y00306D02*
Y003D01*
X00926*
X00939*
X00932*
Y0028*
X00939Y00273*
X00959D02*
Y0028D01*
X00966*
Y00273*
X00959*
X01006Y0026D02*
X01012D01*
X01019Y00266*
Y003*
X00999*
X00992Y00293*
Y0028*
X00999Y00273*
X01019*
X01039D02*
X01052D01*
X01059Y0028*
Y00293*
X01052Y003*
X01039*
X01032Y00293*
Y0028*
X01039Y00273*
X01072Y003D02*
X01086Y00273D01*
X01099Y003*
X00229Y00378D02*
X00216D01*
X00209Y00371*
Y00345*
X00216Y00338*
X00229*
X00236Y00345*
Y00371*
X00229Y00378*
X00249D02*
Y00338D01*
Y00351*
X00276Y00378*
X00256Y00358*
X00276Y00338*
X00316Y00378D02*
X00302Y00371D01*
X00289Y00358*
Y00345*
X00296Y00338*
X00309*
X00316Y00345*
Y00351*
X00309Y00358*
X00289*
X00329Y00371D02*
X00336Y00378D01*
X00349*
X00356Y00371*
Y00345*
X00349Y00338*
X00336*
X00329Y00345*
Y00371*
X00369Y00338D02*
X00382D01*
X00376*
Y00378*
X00369Y00371*
X00402D02*
X00409Y00378D01*
X00422*
X00429Y00371*
Y00345*
X00422Y00338*
X00409*
X00402Y00345*
Y00371*
X00442Y00331D02*
X00469D01*
X00482Y00378D02*
Y00338D01*
X00502*
X00509Y00345*
Y00371*
X00502Y00378*
X00482*
X00522D02*
Y00338D01*
X00542*
X00549Y00345*
Y00351*
X00542Y00358*
X00522*
X00542*
X00549Y00365*
Y00371*
X00542Y00378*
X00522*
X00562Y00338D02*
Y00345D01*
X00569*
Y00338*
X00562*
X00596D02*
Y00378D01*
X00616*
X00622Y00371*
Y00358*
X00616Y00351*
X00596*
X00662Y00365D02*
X00642D01*
X00636Y00358*
Y00345*
X00642Y00338*
X00662*
X00676Y00378D02*
Y00338D01*
X00696*
X00702Y00345*
Y00351*
Y00358*
X00696Y00365*
X00676*
X00716Y00378D02*
Y00338D01*
X00735*
X00742Y00345*
Y00371*
X00735Y00378*
X00716*
X00762Y00338D02*
X00775D01*
X00782Y00345*
Y00358*
X00775Y00365*
X00762*
X00755Y00358*
Y00345*
X00762Y00338*
X00822Y00365D02*
X00802D01*
X00795Y00358*
Y00345*
X00802Y00338*
X00822*
X00224Y04759D02*
X00217Y04766D01*
X00204*
X00197Y04759*
Y04733*
X00204Y04726*
X00217*
X00224Y04733*
Y04746*
X0021*
X00237Y04726D02*
Y04766D01*
X00264Y04726*
Y04766*
X00277D02*
Y04726D01*
X00297*
X00304Y04733*
Y04759*
X00297Y04766*
X00277*
X00187Y05027D02*
X00214D01*
X002Y0504D02*
Y05014D01*
X00254Y05047D02*
X0024Y0504D01*
X00227Y05027*
Y05014*
X00234Y05007*
X00247*
X00254Y05014*
Y0502*
X00247Y05027*
X00227*
X00267Y0504D02*
X00274Y05047D01*
X00287*
X00294Y0504*
Y05034*
X00287Y05027*
X00294Y0502*
Y05014*
X00287Y05007*
X00274*
X00267Y05014*
Y0502*
X00274Y05027*
X00267Y05034*
Y0504*
X00274Y05027D02*
X00287D01*
X02552Y04334D02*
Y04294D01*
X02565Y04307*
X02579Y04294*
Y04334*
X02592Y04294D02*
Y04334D01*
X02612*
X02619Y04327*
Y04314*
X02612Y04307*
X02592*
X02605D02*
X02619Y04294D01*
X02659D02*
X02632D01*
X02659Y04321*
Y04327*
X02652Y04334*
X02639*
X02632Y04327*
X02672Y04287D02*
X02699D01*
X02732Y04334D02*
X02719D01*
X02712Y04327*
Y04301*
X02719Y04294*
X02732*
X02739Y04301*
Y04327*
X02732Y04334*
X02752D02*
Y04301D01*
X02759Y04294*
X02772*
X02779Y04301*
Y04334*
X02792D02*
X02819D01*
X02805*
Y04294*
X01752Y04572D02*
Y04599D01*
X01765Y04612*
X01779Y04599*
Y04572*
Y04592*
X01752*
X01792Y04572D02*
X01805D01*
X01799*
Y04612*
X01792Y04605*
X01825Y04565D02*
X01852D01*
X01885Y04612D02*
X01872D01*
X01865Y04605*
Y04579*
X01872Y04572*
X01885*
X01892Y04579*
Y04605*
X01885Y04612*
X01905D02*
Y04579D01*
X01912Y04572*
X01925*
X01932Y04579*
Y04612*
X01945D02*
X01972D01*
X01959*
Y04572*
X02035Y04599D02*
Y04626D01*
X02048Y04639*
X02062Y04626*
Y04599*
Y04619*
X02035*
X02075Y04632D02*
X02082Y04639D01*
X02095*
X02102Y04632*
Y04606*
X02095Y04599*
X02082*
X02075Y04606*
Y04632*
X02115Y04592D02*
X02142D01*
X02175Y04639D02*
X02162D01*
X02155Y04632*
Y04606*
X02162Y04599*
X02175*
X02182Y04606*
Y04632*
X02175Y04639*
X02195D02*
Y04606D01*
X02202Y04599*
X02215*
X02222Y04606*
Y04639*
X02235D02*
X02262D01*
X02248*
Y04599*
X01947Y00539D02*
X01907D01*
X0192Y00526*
X01907Y00512*
X01947*
X01907Y00499D02*
X01947D01*
Y00479*
X0194Y00472*
X01927*
X0192Y00479*
Y00499*
Y00486D02*
X01907Y00472D01*
Y00459D02*
Y00446D01*
Y00452*
X01947*
X0194Y00459*
X019Y00426D02*
Y00399D01*
X01947Y00386D02*
Y00372D01*
Y00379*
X01907*
Y00386*
Y00372*
Y00352D02*
X01947D01*
X01907Y00326*
X01947*
X0223Y00575D02*
X0219D01*
X02203Y00562*
X0219Y00548*
X0223*
X0219Y00535D02*
X0223D01*
Y00515*
X02223Y00508*
X0221*
X02203Y00515*
Y00535*
Y00522D02*
X0219Y00508D01*
Y00468D02*
Y00495D01*
X02217Y00468*
X02223*
X0223Y00475*
Y00488*
X02223Y00495*
X02183Y00455D02*
Y00428D01*
X0223Y00415D02*
Y00402D01*
Y00408*
X0219*
Y00415*
Y00402*
Y00382D02*
X0223D01*
X0219Y00355*
X0223*
X02054Y04703D02*
Y04663D01*
X02067Y04676*
X02081Y04663*
Y04703*
X02094Y04663D02*
Y04703D01*
X02114*
X02121Y04696*
Y04683*
X02114Y04676*
X02094*
X02107D02*
X02121Y04663D01*
X02134D02*
X02147D01*
X02141*
Y04703*
X02134Y04696*
X02167Y04656D02*
X02194D01*
X02227Y04703D02*
X02214D01*
X02207Y04696*
Y0467*
X02214Y04663*
X02227*
X02234Y0467*
Y04696*
X02227Y04703*
X02247D02*
Y0467D01*
X02254Y04663*
X02267*
X02274Y0467*
Y04703*
X02287D02*
X02314D01*
X02301*
Y04663*
X0258Y03136D02*
Y03163D01*
X02593Y03176*
X02607Y03163*
Y03136*
Y03156*
X0258*
X0262Y03176D02*
Y0315D01*
X02633Y03136*
X02647Y0315*
Y03176*
X0266D02*
Y03136D01*
X0268*
X02687Y03143*
Y0317*
X0268Y03176*
X0266*
X027D02*
Y03136D01*
X0272*
X02727Y03143*
Y0317*
X0272Y03176*
X027*
X0274Y0317D02*
X02747Y03176D01*
X0276*
X02767Y0317*
Y03163*
X0276Y03156*
X02753*
X0276*
X02767Y0315*
Y03143*
X0276Y03136*
X02747*
X0274Y03143*
X0278Y0317D02*
X02787Y03176D01*
X028*
X02807Y0317*
Y03163*
X028Y03156*
X02793*
X028*
X02807Y0315*
Y03143*
X028Y03136*
X02787*
X0278Y03143*
X01978Y03085D02*
Y03045D01*
X01998*
X02004Y03052*
Y03078*
X01998Y03085*
X01978*
X02018D02*
Y03058D01*
X02031Y03045*
X02044Y03058*
Y03085*
X02058D02*
Y03045D01*
X02078*
X02084Y03052*
Y03078*
X02078Y03085*
X02058*
X02098D02*
Y03045D01*
X02118*
X02124Y03052*
Y03078*
X02118Y03085*
X02098*
X02138Y03078D02*
X02144Y03085D01*
X02158*
X02164Y03078*
Y03072*
X02158Y03065*
X02151*
X02158*
X02164Y03058*
Y03052*
X02158Y03045*
X02144*
X02138Y03052*
X02178Y03078D02*
X02184Y03085D01*
X02198*
X02204Y03078*
Y03072*
X02198Y03065*
X02191*
X02198*
X02204Y03058*
Y03052*
X02198Y03045*
X02184*
X02178Y03052*
X01866Y02139D02*
X01853D01*
X01846Y02132*
Y02106*
X01853Y02099*
X01866*
X01873Y02106*
Y02132*
X01866Y02139*
X01886D02*
Y02112D01*
X01899Y02099*
X01913Y02112*
Y02139*
X01926D02*
Y02099D01*
X01946*
X01953Y02106*
Y02132*
X01946Y02139*
X01926*
X01966D02*
Y02099D01*
X01986*
X01993Y02106*
Y02132*
X01986Y02139*
X01966*
X01301Y00942D02*
X01328D01*
X01314Y00955D02*
Y00929D01*
X01368Y00962D02*
X01341D01*
Y00942*
X01354Y00949*
X01361*
X01368Y00942*
Y00929*
X01361Y00922*
X01348*
X01341Y00929*
X00642Y00495D02*
X00669D01*
X00655Y00508D02*
Y00482D01*
X00682Y00475D02*
X00695D01*
X00689*
Y00515*
X00682Y00508*
X00742Y00475D02*
X00715D01*
X00742Y00502*
Y00508*
X00735Y00515*
X00722*
X00715Y00508*
X01151Y00462D02*
X01178D01*
X01191Y00442D02*
X01204D01*
X01198*
Y00482*
X01191Y00475*
X01251Y00442D02*
X01224D01*
X01251Y00469*
Y00475*
X01244Y00482*
X01231*
X01224Y00475*
X0126Y0132D02*
Y01347D01*
X01273Y0136*
X01287Y01347*
Y0132*
Y0134*
X0126*
X013Y0136D02*
Y01333D01*
X01313Y0132*
X01327Y01333*
Y0136*
X0134D02*
Y0132D01*
X0136*
X01367Y01327*
Y01353*
X0136Y0136*
X0134*
X0138D02*
Y0132D01*
X014*
X01407Y01327*
Y01353*
X014Y0136*
X0138*
X0142Y0132D02*
X01433D01*
X01427*
Y0136*
X0142Y01353*
X01453D02*
X0146Y0136D01*
X01473*
X0148Y01353*
Y01347*
X01473Y0134*
X0148Y01333*
Y01327*
X01473Y0132*
X0146*
X01453Y01327*
Y01333*
X0146Y0134*
X01453Y01347*
Y01353*
X0146Y0134D02*
X01473D01*
X0102Y0153D02*
Y01557D01*
X01033Y0157*
X01047Y01557*
Y0153*
Y0155*
X0102*
X0106Y0157D02*
Y01543D01*
X01073Y0153*
X01087Y01543*
Y0157*
X011Y0153D02*
X01113D01*
X01107*
Y0157*
X011Y01563*
X01133D02*
X0114Y0157D01*
X01153*
X0116Y01563*
Y01557*
X01153Y0155*
X0116Y01543*
Y01537*
X01153Y0153*
X0114*
X01133Y01537*
Y01543*
X0114Y0155*
X01133Y01557*
Y01563*
X0114Y0155D02*
X01153D01*
X00407Y02631D02*
X00434D01*
X0042Y02644D02*
Y02618D01*
X00447Y02611D02*
X0046D01*
X00454*
Y02651*
X00447Y02644*
X00507Y02611D02*
X0048D01*
X00507Y02638*
Y02644*
X005Y02651*
X00487*
X0048Y02644*
X00912Y02631D02*
X00939D01*
X00952Y02611D02*
X00965D01*
X00959*
Y02651*
X00952Y02644*
X01012Y02611D02*
X00985D01*
X01012Y02638*
Y02644*
X01005Y02651*
X00992*
X00985Y02644*
X00315Y03255D02*
Y03215D01*
X00335*
X00342Y03222*
Y03248*
X00335Y03255*
X00315*
X00355D02*
Y03228D01*
X00368Y03215*
X00382Y03228*
Y03255*
X00395D02*
Y03215D01*
X00415*
X00422Y03222*
Y03248*
X00415Y03255*
X00395*
X00435D02*
Y03215D01*
X00455*
X00462Y03222*
Y03248*
X00455Y03255*
X00435*
X00502Y03215D02*
X00475D01*
X00502Y03242*
Y03248*
X00495Y03255*
X00482*
X00475Y03248*
X00542Y03255D02*
X00515D01*
Y03235*
X00528Y03242*
X00535*
X00542Y03235*
Y03222*
X00535Y03215*
X00522*
X00515Y03222*
X00919Y03347D02*
X00912Y03354D01*
X00899*
X00892Y03347*
Y03321*
X00899Y03314*
X00912*
X00919Y03321*
X00932Y03354D02*
Y03327D01*
X00945Y03314*
X00959Y03327*
Y03354*
X00972D02*
Y03314D01*
X00992*
X00999Y03321*
Y03347*
X00992Y03354*
X00972*
X01012D02*
Y03314D01*
X01032*
X01039Y03321*
Y03347*
X01032Y03354*
X01012*
X01052Y03314D02*
X01065D01*
X01059*
Y03354*
X01052Y03347*
X01085D02*
X01092Y03354D01*
X01105*
X01112Y03347*
Y03341*
X01105Y03334*
X01112Y03327*
Y03321*
X01105Y03314*
X01092*
X01085Y03321*
Y03327*
X01092Y03334*
X01085Y03341*
Y03347*
X01092Y03334D02*
X01105D01*
X01067Y03186D02*
Y03146D01*
X01087*
X01094Y03153*
Y03179*
X01087Y03186*
X01067*
X01107D02*
Y03159D01*
X0112Y03146*
X01134Y03159*
Y03186*
X01147D02*
Y03146D01*
X01167*
X01174Y03153*
Y03179*
X01167Y03186*
X01147*
X01187D02*
Y03146D01*
X01207*
X01214Y03153*
Y03179*
X01207Y03186*
X01187*
X01227Y03146D02*
X0124D01*
X01234*
Y03186*
X01227Y03179*
X0126D02*
X01267Y03186D01*
X0128*
X01287Y03179*
Y03173*
X0128Y03166*
X01287Y03159*
Y03153*
X0128Y03146*
X01267*
X0126Y03153*
Y03159*
X01267Y03166*
X0126Y03173*
Y03179*
X01267Y03166D02*
X0128D01*
X0118Y04158D02*
Y04126D01*
X01186Y0412*
X01199*
X01205Y04126*
Y04158*
X01218Y0412D02*
X01231D01*
X01224*
Y04158*
X01218Y04152*
X0125D02*
X01256Y04158D01*
X01269*
X01275Y04152*
Y04126*
X01269Y0412*
X01256*
X0125Y04126*
Y04152*
X01288Y04139D02*
X01313D01*
X01345Y04158D02*
X01332D01*
X01326Y04152*
Y04126*
X01332Y0412*
X01345*
X01351Y04126*
Y04152*
X01345Y04158*
X01364D02*
Y04126D01*
X0137Y0412*
X01383*
X01389Y04126*
Y04158*
X01402D02*
X01427D01*
X01414*
Y0412*
X0045Y011D02*
X00477D01*
X00463Y01113D02*
Y01087D01*
X00517Y0112D02*
X0049D01*
Y011*
X00503Y01107*
X0051*
X00517Y011*
Y01087*
X0051Y0108*
X00497*
X0049Y01087*
X0045Y01D02*
X00477D01*
X00463Y01013D02*
Y00987D01*
X0049Y0098D02*
X00503D01*
X00497*
Y0102*
X0049Y01013*
X0055Y0098D02*
X00523D01*
X0055Y01007*
Y01013*
X00543Y0102*
X0053*
X00523Y01013*
X00477Y00913D02*
X0047Y0092D01*
X00457*
X0045Y00913*
Y00887*
X00457Y0088*
X0047*
X00477Y00887*
Y009*
X00463*
X0049Y0088D02*
Y0092D01*
X00517Y0088*
Y0092*
X0053D02*
Y0088D01*
X0055*
X00557Y00887*
Y00913*
X0055Y0092*
X0053*
X0045Y008D02*
X00477D01*
X0049Y0078D02*
X00503D01*
X00497*
Y0082*
X0049Y00813*
X0055Y0078D02*
X00523D01*
X0055Y00807*
Y00813*
X00543Y0082*
X0053*
X00523Y00813*
X02085Y00536D02*
X02112D01*
X02125Y00523*
X02112Y00509*
X02085*
X02105*
Y00536*
X02118Y00496D02*
X02125Y00489D01*
Y00476*
X02118Y00469*
X02092*
X02085Y00476*
Y00489*
X02092Y00496*
X02118*
X02078Y00456D02*
Y00429D01*
X02125Y00416D02*
Y00403D01*
Y00409*
X02085*
Y00416*
Y00403*
Y00383D02*
X02125D01*
X02085Y00356*
X02125*
X02034Y00536D02*
X02061D01*
X02074Y00523*
X02061Y00509*
X02034*
X02054*
Y00536*
X02034Y00496D02*
Y00483D01*
Y00489*
X02074*
X02067Y00496*
X02027Y00463D02*
Y00436D01*
X02074Y00423D02*
Y00409D01*
Y00416*
X02034*
Y00423*
Y00409*
Y00389D02*
X02074D01*
X02034Y00363*
X02074*
X00886Y03499D02*
Y03459D01*
X00906*
X00913Y03466*
Y03472*
X00906Y03479*
X00886*
X00906*
X00913Y03486*
Y03492*
X00906Y03499*
X00886*
X00926Y03459D02*
Y03486D01*
X00939Y03499*
X00953Y03486*
Y03459*
Y03479*
X00926*
X00966Y03459D02*
Y03499D01*
X00993Y03459*
Y03499*
X01006D02*
Y03459D01*
Y03472*
X01033Y03499*
X01013Y03479*
X01033Y03459*
X01086Y03492D02*
X01093Y03499D01*
X01106*
X01113Y03492*
Y03466*
X01106Y03459*
X01093*
X01086Y03466*
Y03492*
X01126Y03459D02*
X01153Y03486D01*
X01166Y03459D02*
X01179D01*
X01173*
Y03499*
X01166Y03492*
X00975Y01901D02*
Y01861D01*
X00995*
X01002Y01868*
Y01874*
X00995Y01881*
X00975*
X00995*
X01002Y01888*
Y01894*
X00995Y01901*
X00975*
X01015Y01861D02*
Y01888D01*
X01028Y01901*
X01042Y01888*
Y01861*
Y01881*
X01015*
X01055Y01861D02*
Y01901D01*
X01082Y01861*
Y01901*
X01095D02*
Y01861D01*
Y01874*
X01122Y01901*
X01102Y01881*
X01122Y01861*
X01175D02*
X01188D01*
X01182*
Y01901*
X01175Y01894*
X0089Y0125D02*
X00917D01*
X00903*
Y0121*
X0093D02*
Y0125D01*
X00943Y01237*
X00957Y0125*
Y0121*
X00997Y01243D02*
X0099Y0125D01*
X00977*
X0097Y01243*
Y01237*
X00977Y0123*
X0099*
X00997Y01223*
Y01217*
X0099Y0121*
X00977*
X0097Y01217*
X0089Y01175D02*
X00917D01*
X00903*
Y01135*
X00957Y01168D02*
X0095Y01175D01*
X00937*
X0093Y01168*
Y01142*
X00937Y01135*
X0095*
X00957Y01142*
X0097Y01175D02*
Y01135D01*
Y01148*
X00997Y01175*
X00977Y01155*
X00997Y01135*
X0089Y01095D02*
X00917D01*
X00903*
Y01055*
X0093Y01095D02*
Y01055D01*
X0095*
X00957Y01062*
Y01088*
X0095Y01095*
X0093*
X0099D02*
X00977D01*
X0097Y01088*
Y01062*
X00977Y01055*
X0099*
X00997Y01062*
Y01088*
X0099Y01095*
X0089Y01015D02*
X00917D01*
X00903*
Y00975*
X0093Y01015D02*
Y00975D01*
X0095*
X00957Y00982*
Y01008*
X0095Y01015*
X0093*
X0097D02*
X00983D01*
X00977*
Y00975*
X0097*
X00983*
X04Y0D02*
Y055D01*
X01193D02*
X04D01*
X0Y01681D02*
Y0365D01*
X00753Y0D02*
X04D01*
X0D02*
Y01681D01*
Y0D02*
X00753D01*
X0Y055D02*
X01193D01*
X0Y0365D02*
Y055D01*
G54D54*
X01061Y0407D02*
D01*
X01927Y04463D02*
D01*
X01081Y03682D02*
D01*
G54D55*
X00499Y04496D02*
X00574D01*
X00499Y04586D02*
X00574D01*
X00384D02*
X00459D01*
X00384Y04496D02*
X00459D01*
X00574D02*
Y04586D01*
X00384Y04496D02*
Y04586D01*
X00191Y047D02*
X00266D01*
X00191Y046D02*
X00266D01*
X00351D02*
X00426D01*
X00351Y047D02*
X00426D01*
X00191Y046D02*
Y047D01*
X00426Y046D02*
Y047D01*
X01611Y03871D02*
X01711D01*
X01611Y03636D02*
X01711D01*
X01611Y03796D02*
Y03871D01*
X01711Y03796D02*
Y03871D01*
Y03636D02*
Y03711D01*
X01611Y03636D02*
Y03711D01*
X01513Y03871D02*
X01613D01*
X01513Y03636D02*
X01613D01*
X01513Y03796D02*
Y03871D01*
X01613Y03796D02*
Y03871D01*
Y03636D02*
Y03711D01*
X01513Y03636D02*
Y03711D01*
X0244Y01337D02*
X02511Y01266D01*
X02274Y01171D02*
X02345Y011D01*
X02387Y01284D02*
X0244Y01337D01*
X02458Y01213D02*
X02511Y01266D01*
X02345Y011D02*
X02398Y01153D01*
X02274Y01171D02*
X02327Y01224D01*
X02333Y01372D02*
X02404Y01301D01*
X02167Y01206D02*
X02238Y01135D01*
X0228Y01319D02*
X02333Y01372D01*
X02351Y01248D02*
X02404Y01301D01*
X02238Y01135D02*
X02291Y01188D01*
X02167Y01206D02*
X0222Y01259D01*
X00941Y047D02*
X01016D01*
X00941Y046D02*
X01016D01*
X01101D02*
X01176D01*
X01101Y047D02*
X01176D01*
X00941Y046D02*
Y047D01*
X01176Y046D02*
Y047D01*
X00307Y04496D02*
X00382D01*
X00307Y04586D02*
X00382D01*
X00192D02*
X00267D01*
X00192Y04496D02*
X00267D01*
X00382D02*
Y04586D01*
X00192Y04496D02*
Y04586D01*
X00556Y046D02*
X00631D01*
X00556Y0469D02*
X00631D01*
X00441D02*
X00516D01*
X00441Y046D02*
X00516D01*
X00631D02*
Y0469D01*
X00441Y046D02*
Y0469D01*
X01305Y046D02*
X0138D01*
X01305Y0469D02*
X0138D01*
X0119D02*
X01265D01*
X0119Y046D02*
X01265D01*
X0138D02*
Y0469D01*
X0119Y046D02*
Y0469D01*
G54D113*
X01898Y04187D02*
D01*
D01*
G75*
G03X01882I-00008J0D01*
G74*G01*
D01*
G75*
G03X01898I00008J0D01*
G74*G01*
G54D114*
X00575Y001D03*
M02*