G04 Layer_Physical_Order=2*
G04 Layer_Color=32768*
%FSLAX23Y23*%
%MOIN*%
G70*
G01*
G75*
G36*
X1889Y4183D02*
X1882Y4176D01*
X1846Y4212D01*
X1688D01*
X1497Y4021D01*
X1261D01*
Y3566D01*
X1247D01*
Y4035D01*
X1490D01*
X1681Y4226D01*
X1846D01*
X1889Y4183D01*
D02*
G37*
G36*
X1876Y4077D02*
X1830D01*
X1805Y4054D01*
X1797Y4062D01*
X1826Y4091D01*
X1876D01*
Y4077D01*
D02*
G37*
G36*
X707Y4265D02*
X644Y4202D01*
Y3534D01*
X629Y3535D01*
Y4209D01*
X691Y4271D01*
Y5500D01*
X707D01*
Y4265D01*
D02*
G37*
G36*
X2485Y3939D02*
Y3535D01*
Y3387D01*
Y3330D01*
X2474D01*
X2475Y3387D01*
X2474D01*
Y3535D01*
Y3933D01*
X2332Y4075D01*
X2213D01*
Y4085D01*
X2339D01*
X2485Y3939D01*
D02*
G37*
G36*
X1478Y1793D02*
X1459D01*
Y2003D01*
X1478D01*
Y1793D01*
D02*
G37*
G36*
X1476Y1793D02*
X1478Y1574D01*
X1730Y1322D01*
X1814D01*
Y1304D01*
X1722D01*
X1459Y1567D01*
Y1793D01*
X1476Y1793D01*
D02*
G37*
G36*
X2469D02*
X2467Y1791D01*
X2467Y1791D01*
X2467Y1791D01*
X2468Y1790D01*
X2469Y1788D01*
X2469Y1787D01*
Y1786D01*
Y1527D01*
X2230Y1288D01*
X2219Y1299D01*
X2219Y1299D01*
X2219Y1300D01*
X2218Y1301D01*
X2218Y1302D01*
Y1302D01*
X2450Y1534D01*
Y1793D01*
Y2003D01*
X2469D01*
Y1793D01*
D02*
G37*
D10*
X1794Y1304D02*
X1812D01*
X1787Y1322D02*
X1807D01*
X2114Y1305D02*
X2164D01*
X2179Y1287D02*
X2229D01*
X2164Y1305D02*
X2221D01*
X2107Y1287D02*
X2179D01*
X2107D02*
Y1305D01*
X2114D01*
X1805Y4054D02*
X1828Y4077D01*
X1830D01*
X1797Y4062D02*
X1821Y4086D01*
X2485Y3330D02*
Y3387D01*
X2474Y3330D02*
X2485D01*
X2474D02*
Y3387D01*
X2450Y3957D02*
X2455Y3952D01*
X2332Y4075D02*
X2450Y3957D01*
X2339Y4085D02*
X2470Y3954D01*
X2485Y3939D01*
Y3913D02*
Y3939D01*
X2452Y3955D02*
X2474Y3933D01*
Y3913D02*
Y3933D01*
Y3387D02*
X2479D01*
X2485D01*
Y3537D01*
X2474Y3387D02*
Y3537D01*
X1837Y4077D02*
X1876D01*
X1830D02*
X1837D01*
X1821Y4086D02*
X1830Y4077D01*
X1821Y4086D02*
X1826Y4091D01*
X1876D01*
Y4077D02*
Y4091D01*
X1688Y4212D02*
X1797D01*
X1681Y4226D02*
X1797D01*
X1835D02*
X1846D01*
X1846Y4212D02*
X1852Y4206D01*
X1830Y4212D02*
X1846D01*
X1830Y4226D02*
X1835D01*
X1830Y4212D02*
Y4226D01*
X1797Y4212D02*
Y4226D01*
X2411Y1495D02*
X2450Y1534D01*
Y1577D01*
X2469Y1527D02*
Y1569D01*
X2230Y1288D02*
X2469Y1527D01*
X2217Y1301D02*
X2230Y1288D01*
X1797Y4062D02*
X1805Y4054D01*
X1255Y3566D02*
X1261D01*
X2450Y1560D02*
Y1580D01*
X2469Y1553D02*
Y1577D01*
X2450Y1580D02*
Y1793D01*
X2469Y1577D02*
Y1793D01*
X1459Y1591D02*
Y1793D01*
X1478Y1594D02*
Y1793D01*
X1459Y1567D02*
Y1591D01*
Y1567D02*
X1489Y1537D01*
X1478Y1574D02*
Y1594D01*
Y1574D02*
X1508Y1544D01*
X1807Y1322D02*
X1814D01*
Y1304D02*
Y1322D01*
X1722Y1304D02*
X1794D01*
X1489Y1537D02*
X1722Y1304D01*
X1508Y1544D02*
X1730Y1322D01*
X1787D01*
X2213Y4075D02*
X2301D01*
X2213D02*
Y4085D01*
X2485Y3913D02*
Y3919D01*
X2301Y4085D02*
X2339D01*
X2301Y4075D02*
X2332D01*
X2474Y3387D02*
X2485D01*
X2474Y3537D02*
Y3793D01*
X2485Y3538D02*
Y3794D01*
X2213Y4085D02*
X2333D01*
X2474Y3794D02*
Y3913D01*
X2485Y3794D02*
Y3913D01*
X1808Y4072D02*
Y4073D01*
X1816Y4064D02*
Y4067D01*
X1610Y4155D02*
X1681Y4226D01*
X1846D02*
X1889Y4183D01*
X1882Y4176D02*
X1889Y4183D01*
X1846Y4212D02*
X1882Y4176D01*
X1497Y4021D02*
X1688Y4212D01*
X1261Y4021D02*
X1497D01*
X1261Y3566D02*
Y4021D01*
X1247Y3566D02*
X1255D01*
X1247Y3566D02*
Y4035D01*
X1490D01*
X1681Y4226D01*
X707Y4265D02*
Y5500D01*
X644Y4202D02*
X707Y4265D01*
X644Y3534D02*
Y4202D01*
X629Y3534D02*
X644D01*
X629D02*
Y4209D01*
X691Y4271D01*
Y5500D01*
X2217Y1301D02*
X2439Y1523D01*
D15*
X1525Y362D02*
G03*
X1535Y366I0J15D01*
G01*
D02*
G03*
X1541Y380I-14J14D01*
G01*
X2378Y4360D02*
G03*
X2423Y4363I22J24D01*
G01*
X2940Y4682D02*
Y5500D01*
X1730Y4374D02*
X1788Y4315D01*
X1730Y4374D02*
Y4446D01*
X1814Y4530D01*
X2188Y434D02*
X2575D01*
X1541Y417D02*
X1558Y434D01*
X1872D01*
X2317Y4331D02*
X2321Y4335D01*
X2317Y4331D02*
X2366Y4282D01*
X2540D01*
X2317Y4331D02*
X2356Y4292D01*
X2550D02*
X2656Y4398D01*
X1500Y2560D02*
X1785D01*
Y2480D02*
Y2560D01*
X1715Y2480D02*
X1785D01*
X1715Y2410D02*
Y2480D01*
X1580Y2410D02*
X1715D01*
X1580D02*
Y2480D01*
X1500D02*
X1580D01*
X1500D02*
Y2560D01*
X900Y1570D02*
Y1635D01*
X1015D01*
Y1825D01*
X675D02*
X1015D01*
X675Y1570D02*
Y1825D01*
Y1570D02*
X900D01*
X1581Y4442D02*
X1698Y4325D01*
X1764Y4291D02*
X1788Y4315D01*
X1732Y4291D02*
X1764D01*
X1698Y4325D02*
X1732Y4291D01*
X1438Y0D02*
Y329D01*
Y362D01*
X1525D01*
X1541Y380D02*
Y417D01*
X1872Y0D02*
Y434D01*
X2622Y0D02*
Y434D01*
X2439D02*
X2622D01*
X2188Y0D02*
Y434D01*
X2540Y4282D02*
X2940Y4682D01*
X2362Y4376D02*
X2378Y4360D01*
X2423Y4363D02*
X2548Y4488D01*
Y4667D01*
X2321Y4335D02*
X2362Y4376D01*
X2548Y4667D02*
Y5500D01*
X2194Y4686D02*
Y5500D01*
X1970Y4686D02*
X2194D01*
X1788Y4504D02*
X1970Y4686D01*
X1581Y4442D02*
X1798Y4659D01*
Y4667D01*
Y5500D01*
X4000Y-0D02*
Y5500D01*
X1193D02*
X4000D01*
X0Y1681D02*
Y3650D01*
X753Y-0D02*
X4000D01*
X0D02*
Y1681D01*
Y-0D02*
X753D01*
X0Y5500D02*
X1193D01*
X0Y3650D02*
Y5500D01*
D27*
X1720Y3977D02*
X1813Y4070D01*
X1720Y3475D02*
Y3977D01*
X1550Y3475D02*
X1720D01*
X1375D02*
X1645D01*
D34*
X1745Y4380D02*
Y4445D01*
D38*
X3750Y3210D02*
D03*
Y5180D02*
D03*
Y4200D02*
D03*
Y2230D02*
D03*
X2250Y2240D02*
D03*
X2280Y2210D02*
D03*
X2334Y2090D02*
D03*
X2208D02*
D03*
X2240Y2060D02*
D03*
X2271Y2090D02*
D03*
X2303Y2060D02*
D03*
X3660Y2340D02*
D03*
X3500D02*
D03*
X3340D02*
D03*
X3180D02*
D03*
X2366Y2060D02*
D03*
X2397Y2090D02*
D03*
X2429Y2060D02*
D03*
X2460Y2090D02*
D03*
X2491Y2060D02*
D03*
X2523Y2090D02*
D03*
X2555Y2060D02*
D03*
X2152Y1705D02*
D03*
X3750Y1305D02*
D03*
Y320D02*
D03*
X3580Y1190D02*
D03*
X3420D02*
D03*
X3260D02*
D03*
X3100D02*
D03*
X2491Y1700D02*
D03*
X2546Y2751D02*
D03*
X2510D02*
D03*
X2365Y4060D02*
D03*
X2472Y2830D02*
D03*
X2366Y4096D02*
D03*
X2474Y2789D02*
D03*
X2402Y4094D02*
D03*
X2510Y2790D02*
D03*
X2032Y4660D02*
D03*
X2016Y4621D02*
D03*
X2629Y2752D02*
D03*
X1985Y4590D02*
D03*
X2631Y2788D02*
D03*
X2530Y4291D02*
D03*
X2595Y2789D02*
D03*
X1811Y3722D02*
D03*
X1800Y3267D02*
D03*
X1823Y3759D02*
D03*
X1835Y3267D02*
D03*
X2460Y1675D02*
D03*
X2397D02*
D03*
X2428Y1700D02*
D03*
X2365D02*
D03*
X1539Y2071D02*
D03*
X2093Y566D02*
D03*
X1502Y551D02*
D03*
X1574Y2071D02*
D03*
X2120Y601D02*
D03*
X1466Y581D02*
D03*
X1609Y2071D02*
D03*
X1650D02*
D03*
X2146Y631D02*
D03*
X1500Y630D02*
D03*
X1466Y2054D02*
D03*
X1452Y1702D02*
D03*
X1325D02*
D03*
X1452Y3634D02*
D03*
X1357D02*
D03*
X1353Y3275D02*
D03*
X1392D02*
D03*
X1428D02*
D03*
X1463D02*
D03*
X1435Y805D02*
D03*
X1474Y719D02*
D03*
X1450Y4338D02*
D03*
X1596Y783D02*
D03*
X2190Y3759D02*
D03*
X2178Y3722D02*
D03*
X1994Y3249D02*
D03*
X1941Y3722D02*
D03*
X1968Y3272D02*
D03*
X1953Y3759D02*
D03*
X2032D02*
D03*
X2053Y3251D02*
D03*
X2024Y3234D02*
D03*
X2020Y3722D02*
D03*
X1913Y3272D02*
D03*
X1500Y1020D02*
D03*
X2468Y3266D02*
D03*
X2327Y3995D02*
D03*
X2292Y3977D02*
D03*
X2433Y3266D02*
D03*
X2399Y3267D02*
D03*
X2364D02*
D03*
X2330Y3891D02*
D03*
X2294D02*
D03*
X1596Y818D02*
D03*
X2036Y3858D02*
D03*
X1813Y4211D02*
D03*
Y4070D02*
D03*
X2212Y4260D02*
D03*
X1898D02*
D03*
X2208Y4035D02*
D03*
X1897D02*
D03*
X1450Y3872D02*
D03*
X2062Y818D02*
D03*
X2075Y851D02*
D03*
X2065Y783D02*
D03*
X1848Y852D02*
D03*
X1604D02*
D03*
X2130Y1193D02*
D03*
X1784Y1200D02*
D03*
X1888Y3247D02*
D03*
X2111Y3759D02*
D03*
X2099Y3722D02*
D03*
X2118Y3267D02*
D03*
X2083D02*
D03*
X2152D02*
D03*
X2208D02*
D03*
X2276D02*
D03*
X2241D02*
D03*
X2249Y3759D02*
D03*
X2237Y3722D02*
D03*
X1893D02*
D03*
X1881Y3759D02*
D03*
X1788Y4410D02*
D03*
X1942Y1541D02*
D03*
X1105Y3820D02*
D03*
X860Y4490D02*
D03*
X1100Y4575D02*
D03*
X1130Y4315D02*
D03*
X1160Y4215D02*
D03*
X1180Y4530D02*
D03*
X870Y3725D02*
D03*
X1850Y3238D02*
D03*
X2180D02*
D03*
X750Y4200D02*
D03*
X920Y3660D02*
D03*
X1015Y3810D02*
D03*
X870Y4205D02*
D03*
X1155Y4455D02*
D03*
X835Y4085D02*
D03*
X790Y4140D02*
D03*
X947Y4036D02*
D03*
X1880Y455D02*
D03*
X2465Y460D02*
D03*
X1942Y855D02*
D03*
X1967Y2077D02*
D03*
X1934D02*
D03*
X1900D02*
D03*
X2190Y1305D02*
D03*
X2150Y1315D02*
D03*
X2168Y1347D02*
D03*
X2330Y755D02*
D03*
X1620Y720D02*
D03*
X1830D02*
D03*
X2140Y730D02*
D03*
X1290Y2130D02*
D03*
X1250Y1640D02*
D03*
X1150Y1610D02*
D03*
D40*
X780Y3410D02*
D03*
X315Y4480D02*
D03*
X2439Y4128D02*
D03*
X2403Y4130D02*
D03*
X2665Y2751D02*
D03*
X1835Y575D02*
D03*
X2230Y4351D02*
D03*
X1765Y2543D02*
D03*
Y2493D02*
D03*
X824Y455D02*
D03*
X274Y400D02*
D03*
X895Y854D02*
D03*
X110Y3049D02*
D03*
X2038Y2973D02*
D03*
X910Y2901D02*
D03*
X1080Y2711D02*
D03*
X1331Y2970D02*
D03*
X597Y2625D02*
D03*
X97D02*
D03*
X1212Y2415D02*
D03*
X411Y1605D02*
D03*
X2565Y3191D02*
D03*
X1950Y3067D02*
D03*
X2019Y2116D02*
D03*
X1276Y454D02*
D03*
X705Y453D02*
D03*
X1274Y943D02*
D03*
X382Y2631D02*
D03*
X882D02*
D03*
X1279Y3963D02*
D03*
X2144Y524D02*
D03*
X2400Y4372D02*
D03*
X2190Y4395D02*
D03*
X1570Y522D02*
D03*
X1673Y3875D02*
D03*
X1924Y4540D02*
D03*
X2181Y4543D02*
D03*
X2316Y4412D02*
D03*
X290Y4302D02*
D03*
X1275Y1393D02*
D03*
X911Y3287D02*
D03*
X50Y4085D02*
D03*
X100D02*
D03*
X150D02*
D03*
X200D02*
D03*
X250D02*
D03*
X300D02*
D03*
X350D02*
D03*
X400D02*
D03*
X450D02*
D03*
X500D02*
D03*
X550D02*
D03*
Y4035D02*
D03*
X500D02*
D03*
X450D02*
D03*
X400D02*
D03*
X350D02*
D03*
X300D02*
D03*
X250D02*
D03*
X200D02*
D03*
X150D02*
D03*
X100D02*
D03*
X50D02*
D03*
X550Y3985D02*
D03*
X500D02*
D03*
X450D02*
D03*
X400D02*
D03*
X350D02*
D03*
X300D02*
D03*
X250D02*
D03*
X200D02*
D03*
X150D02*
D03*
X100D02*
D03*
X50D02*
D03*
X550Y3935D02*
D03*
X500D02*
D03*
X450D02*
D03*
X400D02*
D03*
X350D02*
D03*
X300D02*
D03*
X250D02*
D03*
X200D02*
D03*
X150D02*
D03*
X100D02*
D03*
X50D02*
D03*
X550Y3885D02*
D03*
X500D02*
D03*
X450D02*
D03*
X400D02*
D03*
X350D02*
D03*
X300D02*
D03*
X250D02*
D03*
X200D02*
D03*
X150D02*
D03*
X100D02*
D03*
X50D02*
D03*
X550Y3835D02*
D03*
X500D02*
D03*
X450D02*
D03*
X400D02*
D03*
X350D02*
D03*
X300D02*
D03*
X250D02*
D03*
X200D02*
D03*
X150D02*
D03*
X100D02*
D03*
X50D02*
D03*
X550Y3785D02*
D03*
X500D02*
D03*
X450D02*
D03*
X400D02*
D03*
X350D02*
D03*
X300D02*
D03*
X250D02*
D03*
X200D02*
D03*
X150D02*
D03*
X100D02*
D03*
X50D02*
D03*
X550Y3735D02*
D03*
X500D02*
D03*
X450D02*
D03*
X400D02*
D03*
X350D02*
D03*
X300D02*
D03*
X250D02*
D03*
X200D02*
D03*
X150D02*
D03*
X100D02*
D03*
X50D02*
D03*
X550Y3685D02*
D03*
X500D02*
D03*
X450D02*
D03*
X400D02*
D03*
X350D02*
D03*
X300D02*
D03*
X250D02*
D03*
X200D02*
D03*
X150D02*
D03*
X100D02*
D03*
X50D02*
D03*
X550Y3635D02*
D03*
X500D02*
D03*
X450D02*
D03*
X400D02*
D03*
X350D02*
D03*
X300D02*
D03*
X250D02*
D03*
X200D02*
D03*
X150D02*
D03*
X100D02*
D03*
X50D02*
D03*
X2685Y4235D02*
D03*
X2633Y4185D02*
D03*
X745Y1805D02*
D03*
X795D02*
D03*
X845D02*
D03*
X895D02*
D03*
X945D02*
D03*
X995D02*
D03*
X745Y1755D02*
D03*
X795D02*
D03*
X845D02*
D03*
X895D02*
D03*
X945D02*
D03*
X995D02*
D03*
X745Y1705D02*
D03*
X795D02*
D03*
X845D02*
D03*
X895D02*
D03*
X945D02*
D03*
X995D02*
D03*
X745Y1655D02*
D03*
X795D02*
D03*
X845D02*
D03*
X895D02*
D03*
X945D02*
D03*
X995D02*
D03*
X695D02*
D03*
Y1705D02*
D03*
Y1755D02*
D03*
Y1805D02*
D03*
X880Y1605D02*
D03*
X830D02*
D03*
X780D02*
D03*
X1080Y3110D02*
D03*
X569Y3234D02*
D03*
X1600Y2443D02*
D03*
X1650D02*
D03*
X1700D02*
D03*
X1515Y2543D02*
D03*
Y2493D02*
D03*
X1715D02*
D03*
X1665D02*
D03*
X1615D02*
D03*
X1565D02*
D03*
X1715Y2543D02*
D03*
X1665D02*
D03*
X1615D02*
D03*
X1565D02*
D03*
X1020Y1590D02*
D03*
X2312Y851D02*
D03*
D42*
X0Y0D02*
X4000D01*
Y5500D01*
X0D02*
X4000D01*
X0Y0D02*
Y5500D01*
D57*
X3780Y1666D02*
D03*
Y1866D02*
D03*
X3480Y1666D02*
D03*
Y1866D02*
D03*
X3180Y1666D02*
D03*
Y1866D02*
D03*
D61*
X714Y877D02*
D03*
Y1271D02*
D03*
X2619Y3533D02*
D03*
X1262D02*
D03*
X2619Y1957D02*
D03*
X1262D02*
D03*
D62*
X289Y998D02*
D03*
Y1098D02*
D03*
Y798D02*
D03*
X155Y4932D02*
D03*
D65*
X2405Y174D02*
D03*
X1655D02*
D03*
X492Y4880D02*
D03*
X1992Y4882D02*
D03*
X2742D02*
D03*
X1242Y4880D02*
D03*
D75*
X3630Y3290D02*
D03*
X3130D02*
D03*
X3630Y240D02*
D03*
X3130D02*
D03*
D76*
X160Y5285D02*
D03*
Y585D02*
D03*
X2795D02*
D03*
Y5285D02*
D03*
D77*
X118Y1799D02*
D03*
X2835D02*
D03*
Y3531D02*
D03*
X118D02*
D03*
D181*
X2276Y4446D02*
D03*
D182*
X1778Y4367D02*
D03*
D183*
X1845Y4463D02*
D03*
D184*
X1809Y797D02*
D03*
X1644Y798D02*
D03*
X2280Y797D02*
D03*
X2110Y798D02*
D03*
D185*
X2195Y800D02*
D03*
D186*
X1725Y798D02*
D03*
D187*
X1707Y505D02*
D03*
X2280Y505D02*
D03*
D188*
X2168Y1296D02*
D03*
M02*
