G04 Layer_Physical_Order=4*
G04 Layer_Color=16711680*
%FSLAX23Y23*%
%MOIN*%
G70*
G01*
G75*
D12*
X1931Y1853D02*
Y2046D01*
X1943Y1858D02*
Y2067D01*
X2262Y1418D02*
Y1522D01*
X1931Y1853D02*
X2262Y1522D01*
X2274Y1413D02*
Y1527D01*
X1943Y1858D02*
X2274Y1527D01*
X2286Y1407D02*
Y1532D01*
X1955Y1863D02*
X2286Y1532D01*
X1955Y1863D02*
Y2065D01*
X2408Y4071D02*
X2660Y3819D01*
X2393Y4071D02*
X2408D01*
X2365Y4060D02*
X2366Y4059D01*
X2400D01*
X2648Y3811D01*
X2402Y4094D02*
X2404D01*
X2366Y4096D02*
X2368D01*
X2393Y4071D01*
X2439Y4099D02*
X2696Y3842D01*
Y3414D02*
Y3842D01*
X2668Y3386D02*
X2696Y3414D01*
X2668Y2901D02*
Y3386D01*
X2554Y2787D02*
X2668Y2901D01*
X2554Y2759D02*
Y2787D01*
X2546Y2751D02*
X2554Y2759D01*
X2425Y4093D02*
X2684Y3834D01*
Y3422D02*
Y3834D01*
X2654Y3392D02*
X2684Y3422D01*
X2654Y2911D02*
Y3392D01*
X2537Y2780D02*
Y2794D01*
X2654Y2911D01*
X2510Y2753D02*
X2537Y2780D01*
X2510Y2751D02*
Y2753D01*
X2648Y3445D02*
Y3811D01*
X2612Y3409D02*
X2648Y3445D01*
X2612Y2938D02*
Y3409D01*
X2504Y2830D02*
X2612Y2938D01*
X2472Y2830D02*
X2504D01*
X2660Y3437D02*
Y3819D01*
X2626Y3403D02*
X2660Y3437D01*
X2626Y2929D02*
Y3403D01*
X2510Y2813D02*
X2626Y2929D01*
X2499Y2813D02*
X2510D01*
X2474Y2789D02*
X2499Y2813D01*
X2404Y4094D02*
X2672Y3827D01*
Y3430D02*
Y3827D01*
X2640Y3398D02*
X2672Y3430D01*
X2640Y2920D02*
Y3398D01*
X2510Y2790D02*
X2640Y2920D01*
X2403Y4126D02*
Y4130D01*
X2439Y4099D02*
Y4128D01*
X2403Y4126D02*
X2425Y4104D01*
Y4093D02*
Y4104D01*
X2727Y3354D02*
X2760Y3387D01*
X2713Y3360D02*
X2746Y3393D01*
X2382Y4523D02*
Y4545D01*
X2267Y4660D02*
X2382Y4545D01*
X2565Y4340D02*
X2620D01*
X2382Y4523D02*
X2565Y4340D01*
X2032Y4660D02*
X2267D01*
X2727Y2814D02*
Y3354D01*
X2665Y2751D02*
X2727Y2814D01*
X2372Y4510D02*
X2675Y4207D01*
X2273Y4510D02*
X2372D01*
X2616Y4268D02*
Y4303D01*
X2016Y4621D02*
X2162D01*
X2273Y4510D01*
X2713Y2836D02*
Y3360D01*
X2629Y2752D02*
X2713Y2836D01*
X2257Y4498D02*
X2362D01*
X2228Y4527D02*
X2257Y4498D01*
X2564Y4252D02*
X2603D01*
X2166Y4590D02*
X2191Y4566D01*
X2228Y4528D01*
X1985Y4590D02*
X2166D01*
X2228Y4527D02*
Y4528D01*
X2699Y2850D02*
Y3366D01*
X2637Y2788D02*
X2699Y2850D01*
X2631Y2788D02*
X2637D01*
X2530Y4245D02*
Y4307D01*
X2428Y4409D02*
X2530Y4307D01*
X2374Y4409D02*
X2428D01*
X2685Y2859D02*
Y3371D01*
X2637Y2811D02*
X2685Y2859D01*
X2621Y2811D02*
X2637D01*
X2599Y2789D02*
X2621Y2811D01*
X2595Y2789D02*
X2599D01*
X2620Y4340D02*
X2760Y4200D01*
Y3387D02*
Y4200D01*
X2675Y4207D02*
X2746Y4136D01*
Y3393D02*
Y4136D01*
X2362Y4498D02*
X2732Y4128D01*
Y3399D02*
Y4128D01*
X2530Y4245D02*
X2718Y4057D01*
Y3404D02*
Y4057D01*
X2685Y3371D02*
X2718Y3404D01*
X2699Y3366D02*
X2732Y3399D01*
X1833Y3267D02*
X1835Y3265D01*
X1833Y3267D02*
Y3267D01*
X1823Y3762D02*
X1824Y3760D01*
X1824Y3700D02*
X1833Y3710D01*
X1824Y3279D02*
Y3700D01*
X1823Y3759D02*
Y3762D01*
Y3749D02*
Y3759D01*
Y3749D02*
X1833Y3739D01*
Y3710D02*
Y3739D01*
X1811Y3722D02*
X1811Y3721D01*
X1800Y3267D02*
X1811Y3279D01*
Y3721D01*
X1824Y3279D02*
X1835Y3267D01*
X1137Y3738D02*
X1145Y3730D01*
X1815Y555D02*
X1835Y575D01*
X1806Y555D02*
X1815D01*
X2165Y535D02*
X2192D01*
X1352Y636D02*
X1436Y551D01*
X2164Y555D02*
X2192D01*
X1367Y640D02*
X1374Y634D01*
X1426Y581D01*
X1422Y605D02*
X1756D01*
X1375Y651D02*
X1422Y605D01*
X2341Y593D02*
X2379Y555D01*
X1539Y1986D02*
Y2071D01*
X1352Y1798D02*
X1539Y1986D01*
X2093Y566D02*
X2134D01*
X2165Y535D01*
X1576Y551D02*
X1592Y535D01*
X1619D01*
X1502Y551D02*
X1576D01*
X1436D02*
X1502D01*
X1574Y2001D02*
Y2071D01*
X1363Y1790D02*
X1574Y2001D01*
X2120Y600D02*
Y601D01*
X1566Y581D02*
X1587Y559D01*
X2120Y600D02*
X2164Y555D01*
X1587Y559D02*
X1592Y555D01*
X1587Y559D02*
Y559D01*
X1592Y555D02*
X1619D01*
X1466Y581D02*
X1566D01*
X1426D02*
X1466D01*
X1609Y2016D02*
Y2071D01*
X1375Y1783D02*
X1609Y2016D01*
X1756Y605D02*
X1806Y555D01*
X1650Y2038D02*
Y2071D01*
X1394Y1782D02*
X1650Y2038D01*
X2146Y641D02*
X2194Y593D01*
X2341D01*
X1418Y630D02*
X1500D01*
X1352Y636D02*
Y1798D01*
X1363Y644D02*
Y1790D01*
Y644D02*
X1374Y634D01*
X1375Y651D02*
Y1783D01*
X1388Y660D02*
Y1776D01*
X1394Y1782D01*
X1388Y660D02*
X1418Y630D01*
X2178Y3722D02*
X2198Y3702D01*
Y3313D02*
Y3702D01*
X2190Y3759D02*
X2210Y3739D01*
Y3270D02*
Y3739D01*
X2152Y3267D02*
X2198Y3313D01*
X2208Y3267D02*
X2210Y3270D01*
X1876Y3281D02*
Y3708D01*
Y3281D02*
X1888Y3269D01*
Y3247D02*
Y3269D01*
X1888Y3296D02*
Y3711D01*
Y3296D02*
X1913Y3272D01*
X1958Y3319D02*
X1994Y3283D01*
X1958Y3319D02*
Y3708D01*
X1994Y3247D02*
Y3283D01*
X1940Y3714D02*
X1941Y3716D01*
X1946Y3711D01*
Y3294D02*
X1968Y3272D01*
X1946Y3294D02*
Y3711D01*
X1941Y3716D02*
Y3722D01*
X1963Y3713D02*
Y3731D01*
X1958Y3708D02*
X1963Y3713D01*
X1953Y3741D02*
Y3759D01*
Y3741D02*
X1963Y3731D01*
X2039Y3261D02*
Y3710D01*
Y3261D02*
X2051Y3250D01*
X2027Y3239D02*
Y3708D01*
X2021Y3232D02*
X2027Y3239D01*
X2042Y3713D02*
Y3731D01*
X2039Y3710D02*
X2042Y3713D01*
X2032Y3741D02*
Y3759D01*
Y3741D02*
X2042Y3731D01*
X2020Y3716D02*
X2027Y3708D01*
X2020Y3716D02*
Y3722D01*
X2019Y3714D02*
X2020Y3716D01*
X2292Y3977D02*
X2410Y3859D01*
X2329Y3957D02*
Y3993D01*
Y3957D02*
X2419Y3868D01*
X2422Y3864D01*
X2456Y3275D02*
Y3421D01*
X2465Y3266D02*
X2468D01*
X2456Y3275D02*
X2465Y3266D01*
X2422Y3455D02*
Y3864D01*
Y3455D02*
X2456Y3421D01*
X2327Y3995D02*
X2329Y3993D01*
X2444Y3275D02*
Y3416D01*
X2435Y3266D02*
X2444Y3275D01*
X2433Y3266D02*
X2435D01*
X2410Y3450D02*
X2444Y3416D01*
X2410Y3450D02*
Y3859D01*
X2362Y3417D02*
Y3859D01*
X2388Y3279D02*
Y3391D01*
Y3279D02*
X2399Y3267D01*
X2362Y3417D02*
X2388Y3391D01*
X2376Y3280D02*
Y3386D01*
X2364Y3267D02*
X2376Y3280D01*
X2350Y3412D02*
Y3835D01*
Y3412D02*
X2376Y3386D01*
X2330Y3891D02*
X2362Y3859D01*
X2294Y3891D02*
X2350Y3835D01*
X1871Y3731D02*
X1881Y3741D01*
Y3759D01*
X1888Y3711D02*
X1893Y3716D01*
Y3722D01*
Y3716D02*
X1894Y3714D01*
X2111Y3741D02*
Y3759D01*
Y3741D02*
X2121Y3731D01*
Y3713D02*
Y3731D01*
X2111Y3703D02*
X2121Y3713D01*
X2111Y3275D02*
X2118Y3267D01*
X2111Y3275D02*
Y3703D01*
X2083Y3267D02*
X2099Y3283D01*
Y3722D01*
X2249Y3299D02*
Y3703D01*
Y3741D02*
X2259Y3731D01*
X2249Y3703D02*
X2259Y3713D01*
X2249Y3741D02*
Y3759D01*
X2259Y3713D02*
Y3731D01*
X2237Y3294D02*
X2243Y3288D01*
X2237Y3294D02*
Y3722D01*
X2249Y3299D02*
X2276Y3272D01*
X2243Y3270D02*
Y3288D01*
X2241Y3267D02*
X2243Y3270D01*
X1871Y3713D02*
Y3731D01*
Y3713D02*
X1876Y3708D01*
X1145Y3730D02*
X1164D01*
X1955Y2065D02*
X1967Y2077D01*
X1934D02*
X1943Y2067D01*
X1900Y2077D02*
X1931Y2046D01*
X2190Y1305D02*
Y1311D01*
X2286Y1407D01*
X2150Y1315D02*
X2194Y1333D01*
X2274Y1413D01*
X2170Y1345D02*
X2170Y1345D01*
X2168Y1347D02*
X2191D01*
X2262Y1418D01*
X1900Y2074D02*
Y2077D01*
D15*
X3470Y3210D02*
X3750D01*
X3060Y2800D02*
X3470Y3210D01*
X3020Y4450D02*
X3750Y5180D01*
X3020Y2600D02*
Y4450D01*
X3040Y3490D02*
X3750Y4200D01*
X3040Y2590D02*
Y3490D01*
X2890Y2470D02*
X3020Y2600D01*
X2900Y2450D02*
X3040Y2590D01*
X3060Y2580D02*
Y2800D01*
X2910Y2430D02*
X3060Y2580D01*
X2540Y2430D02*
X2910D01*
X2530Y2450D02*
X2900D01*
X2520Y2470D02*
X2890D01*
X2950Y2330D02*
X3170D01*
X2910Y2370D02*
X2950Y2330D01*
X2900Y2350D02*
X2940Y2310D01*
X2530Y2330D02*
X2890D01*
X2930Y2290D01*
X3170Y2330D02*
X3180Y2340D01*
X3590Y2270D02*
X3660Y2340D01*
X2510Y2270D02*
X3590D01*
X3450Y2290D02*
X3500Y2340D01*
X2930Y2290D02*
X3450D01*
X3310Y2310D02*
X3340Y2340D01*
X2940Y2310D02*
X3310D01*
X2520Y2350D02*
X2900D01*
X2510Y2370D02*
X2910D01*
X3630Y2110D02*
X3750Y2230D01*
X2290Y2240D02*
X2520Y2470D01*
X2250Y2240D02*
X2290D01*
Y2210D02*
X2530Y2450D01*
X2280Y2210D02*
X2290D01*
X2208Y2098D02*
X2540Y2430D01*
X2240Y2100D02*
X2510Y2370D01*
X2271Y2101D02*
X2520Y2350D01*
X2303Y2102D02*
X2530Y2330D01*
X2208Y2090D02*
Y2098D01*
X2240Y2060D02*
Y2100D01*
X2271Y2090D02*
Y2101D01*
X2303Y2060D02*
Y2102D01*
X3585Y2090D02*
X3715Y1960D01*
X3040Y2090D02*
X3585D01*
X3050Y2110D02*
X3630D01*
X2910Y2250D02*
X3050Y2110D01*
X2520Y2250D02*
X2910D01*
X2900Y2230D02*
X3040Y2090D01*
X2530Y2230D02*
X2900D01*
X3715Y1570D02*
Y1885D01*
X3530Y2070D02*
X3715Y1885D01*
X2850Y2070D02*
X3530D01*
X3325Y2050D02*
X3415Y1960D01*
X2840Y2050D02*
X3325D01*
X2750Y2140D02*
X2840Y2050D01*
X3415Y1570D02*
Y1885D01*
X3270Y2030D02*
X3415Y1885D01*
X2780Y2030D02*
X3270D01*
X2690Y2120D02*
X2780Y2030D01*
X3065Y2010D02*
X3115Y1960D01*
X2770Y2010D02*
X3065D01*
X2690Y2090D02*
X2770Y2010D01*
X3115Y1570D02*
Y1635D01*
X2690Y2060D02*
X3115Y1635D01*
X2334Y2094D02*
X2510Y2270D01*
X2334Y2090D02*
Y2094D01*
X2366Y2096D02*
X2520Y2250D01*
X2366Y2060D02*
Y2096D01*
X2397Y2097D02*
X2530Y2230D01*
X2397Y2090D02*
Y2097D01*
X2760Y2160D02*
X2850Y2070D01*
X2490Y2160D02*
X2760D01*
X2429Y2099D02*
X2490Y2160D01*
X2429Y2060D02*
Y2099D01*
X2500Y2140D02*
X2750D01*
X2460Y2099D02*
X2500Y2140D01*
X2460Y2090D02*
Y2099D01*
X2510Y2120D02*
X2690D01*
X2491Y2102D02*
X2510Y2120D01*
X2491Y2060D02*
Y2102D01*
X2523Y2090D02*
X2690D01*
X2555Y2060D02*
X2690D01*
X3780Y1570D02*
Y1666D01*
Y1866D02*
Y1960D01*
X3480Y1866D02*
Y1960D01*
Y1570D02*
Y1666D01*
X3180Y1570D02*
Y1666D01*
Y1866D02*
Y1960D01*
X2820Y1200D02*
X3090D01*
X2365Y1655D02*
X2820Y1200D01*
X2365Y1655D02*
Y1700D01*
X2830Y1220D02*
X3230D01*
X2397Y1653D02*
X2830Y1220D01*
X2397Y1653D02*
Y1675D01*
X2540Y1630D02*
X2930Y1240D01*
X2460Y1630D02*
X2540D01*
X2428Y1662D02*
X2460Y1630D01*
X2428Y1662D02*
Y1700D01*
X2550Y1650D02*
X2940Y1260D01*
X2484Y1650D02*
X2550D01*
X2460Y1675D02*
X2484Y1650D01*
X3045Y1305D02*
X3750D01*
X2680Y1670D02*
X3045Y1305D01*
X2522Y1670D02*
X2680D01*
X2491Y1700D02*
X2522Y1670D01*
X3537Y320D02*
X3750D01*
X2152Y1705D02*
X3537Y320D01*
X3510Y1260D02*
X3580Y1190D01*
X2940Y1260D02*
X3510D01*
X3370Y1240D02*
X3420Y1190D01*
X2930Y1240D02*
X3370D01*
X3230Y1220D02*
X3260Y1190D01*
X3090Y1200D02*
X3100Y1190D01*
X1230Y2070D02*
X1290Y2130D01*
X1230Y1660D02*
Y2070D01*
Y1660D02*
X1250Y1640D01*
X1325Y1675D02*
Y1702D01*
X1260Y1610D02*
X1325Y1675D01*
X1150Y1610D02*
X1260D01*
X4000Y-0D02*
Y5500D01*
X1193D02*
X4000D01*
X0Y1681D02*
Y3650D01*
X753Y-0D02*
X4000D01*
X0D02*
Y1681D01*
Y-0D02*
X753D01*
X0Y5500D02*
X1193D01*
X0Y3650D02*
Y5500D01*
D16*
X2316Y4412D02*
G03*
X2314Y4413I-2J-2D01*
G01*
X1277Y3964D02*
G03*
X1279Y3963I2J2D01*
G01*
X1920Y4542D02*
G03*
X1921Y4543I-2J2D01*
G01*
X2182Y4545D02*
G03*
X2183Y4544I3J0D01*
G01*
X2545Y482D02*
X2558D01*
X1970Y485D02*
X1983D01*
X1462Y494D02*
Y507D01*
X1822Y4491D02*
X1937D01*
X1960Y4514D01*
X1450Y3872D02*
X1671D01*
X1673Y3875D01*
X809Y3994D02*
Y4071D01*
X1435Y805D02*
X1461Y831D01*
X1475D01*
X500Y4560D02*
X560Y4500D01*
X570D01*
X2316Y4412D02*
X2316Y4412D01*
X2316Y4412D02*
X2316Y4412D01*
X2316Y4412D02*
X2347Y4382D01*
X2465Y464D02*
X2490Y489D01*
X2183Y4544D02*
X2183Y4544D01*
X2214Y4513D01*
X1134Y3610D02*
X1161D01*
X1109Y3635D02*
X1134Y3610D01*
X690Y3995D02*
Y4031D01*
X697Y4038D01*
X2328Y2805D02*
Y2865D01*
Y2745D02*
Y2805D01*
X2303Y2890D02*
X2328Y2865D01*
X2393Y2807D02*
Y2926D01*
X2435Y2968D01*
X2475D01*
X2182Y4516D02*
X2200Y4499D01*
X2150Y4522D02*
X2156Y4516D01*
X2182D01*
X1924Y4540D02*
Y4560D01*
X1902Y4582D02*
X1924Y4560D01*
X1788Y4410D02*
Y4433D01*
X1776Y4445D02*
X1788Y4433D01*
X1948Y4628D02*
X1976Y4656D01*
X1190Y3704D02*
X1223D01*
X1164Y3730D02*
X1190Y3704D01*
X1199Y3815D02*
X1223Y3839D01*
X1183Y4527D02*
X1220D01*
X1180Y4530D02*
X1183Y4527D01*
X238Y4212D02*
X258D01*
X2305Y2892D02*
Y2940D01*
Y2892D02*
X2330Y2867D01*
X1591Y2892D02*
Y2940D01*
Y2892D02*
X1616Y2867D01*
X1595Y2315D02*
X1619Y2291D01*
X870Y4590D02*
X880Y4600D01*
X900D01*
X960Y4595D02*
X999D01*
X843Y4321D02*
X887D01*
X798Y4276D02*
X843Y4321D01*
X1186Y4276D02*
X1222Y4240D01*
X1230D01*
X947Y4042D02*
Y4063D01*
X1012D02*
X1026Y4049D01*
Y4036D02*
Y4049D01*
X684Y4122D02*
Y4145D01*
Y4122D02*
X697Y4109D01*
X725Y4081D02*
X734D01*
X697Y4109D02*
X725Y4081D01*
X1072Y3973D02*
Y3990D01*
X1026Y4036D02*
X1072Y3990D01*
X937Y3973D02*
X947Y3983D01*
X1058Y3790D02*
Y3823D01*
X1060Y3825D01*
X910Y3820D02*
Y3826D01*
X862Y3874D02*
X910Y3826D01*
X1956Y686D02*
X1965Y695D01*
Y715D01*
X2170Y380D02*
X2196Y406D01*
X1518Y380D02*
X1544Y406D01*
X2515Y694D02*
Y714D01*
X2506Y685D02*
X2515Y694D01*
X2378Y515D02*
X2435D01*
X2450Y500D01*
X2470D01*
X2480Y490D01*
X1806Y515D02*
X1873D01*
X1905Y484D01*
X2022Y528D02*
X2035D01*
X2010Y540D02*
X2022Y528D01*
X1983Y485D02*
X1995Y474D01*
X1450Y482D02*
X1462Y494D01*
X2558Y482D02*
X2570Y470D01*
X1880Y459D02*
X1905Y484D01*
X1880Y455D02*
Y459D01*
X2465Y460D02*
Y464D01*
X1723Y2968D02*
X1763D01*
X1681Y2926D02*
X1723Y2968D01*
X1681Y2807D02*
Y2867D01*
Y2926D01*
X1616Y2747D02*
Y2807D01*
Y2867D01*
X1595Y2315D02*
Y2365D01*
X1810Y3019D02*
X1813D01*
X2136Y730D02*
X2140D01*
X2110Y756D02*
X2136Y730D01*
X1620Y720D02*
Y744D01*
D17*
X2380Y830D02*
G03*
X2364Y837I-16J-16D01*
G01*
X2029Y836D02*
G03*
X2026Y830I6J-6D01*
G01*
X2075Y851D02*
G03*
X2109Y837I34J34D01*
G01*
X2075Y851D02*
G03*
X2109Y837I34J34D01*
G01*
X2075Y851D02*
G03*
X2109Y837I34J34D01*
G01*
X2075Y851D02*
G03*
X2109Y837I34J34D01*
G01*
X2075Y851D02*
G03*
X2109Y837I34J34D01*
G01*
X2075Y851D02*
G03*
X2109Y837I34J34D01*
G01*
X2075Y851D02*
G03*
X2109Y837I34J34D01*
G01*
X2075Y851D02*
G03*
X2109Y837I34J34D01*
G01*
X1559Y837D02*
G03*
X1556Y831I6J-6D01*
G01*
X1604Y851D02*
G03*
X1638Y837I34J34D01*
G01*
X1604Y851D02*
G03*
X1638Y837I34J34D01*
G01*
X1604Y851D02*
G03*
X1638Y837I34J34D01*
G01*
X1604Y851D02*
G03*
X1638Y837I34J34D01*
G01*
X1604Y851D02*
G03*
X1638Y837I34J34D01*
G01*
X1604Y851D02*
G03*
X1638Y837I34J34D01*
G01*
X1604Y851D02*
G03*
X1638Y837I34J34D01*
G01*
X1604Y851D02*
G03*
X1638Y837I34J34D01*
G01*
X2493Y2927D02*
X2525D01*
X2384Y2722D02*
X2408Y2746D01*
X2044Y2507D02*
X2066Y2485D01*
X1481Y2251D02*
X1510Y2280D01*
X1155Y4455D02*
X1175Y4422D01*
X773Y1699D02*
X798Y1724D01*
X726Y1699D02*
X773D01*
X1253Y1516D02*
X1285D01*
X1381Y3107D02*
X1411Y3137D01*
X1357Y3107D02*
X1381D01*
X1353Y3111D02*
X1357Y3107D01*
X579Y251D02*
X616Y288D01*
Y318D01*
X553Y225D02*
X579Y251D01*
X513Y225D02*
X553D01*
X1143Y251D02*
X1187Y295D01*
Y319D01*
X1118Y226D02*
X1143Y251D01*
X1084Y226D02*
X1118D01*
X1237Y651D02*
X1274Y688D01*
Y719D01*
X1212Y626D02*
X1237Y651D01*
X1171Y626D02*
X1212D01*
X1231Y1102D02*
X1275Y1146D01*
Y1169D01*
X1205Y1076D02*
X1231Y1102D01*
X1176Y1076D02*
X1205D01*
X1223Y1486D02*
X1253Y1516D01*
X591Y1341D02*
X628Y1378D01*
X633D01*
X411Y1699D02*
X458D01*
X483Y1724D01*
X56Y3155D02*
X108D01*
X124Y3139D01*
X530Y2920D02*
X569Y2959D01*
X512Y2920D02*
X530D01*
X511Y2919D02*
X512Y2920D01*
X497Y2919D02*
X511D01*
X474Y2942D02*
X497Y2919D01*
X138Y2765D02*
Y2767D01*
X169Y2798D01*
X374Y2726D02*
X394Y2706D01*
X374Y2726D02*
Y2739D01*
X342Y2337D02*
X387Y2382D01*
Y2401D01*
X311Y2306D02*
X342Y2337D01*
X284Y2306D02*
X311D01*
X851Y2339D02*
X887Y2375D01*
Y2401D01*
X814Y2302D02*
X851Y2339D01*
X787Y2302D02*
X814D01*
X1684Y2152D02*
X1707Y2129D01*
X1684Y2152D02*
Y2161D01*
X1481Y2231D02*
Y2251D01*
X1328Y2209D02*
X1354Y2235D01*
Y2236D01*
X2120Y2125D02*
X2156Y2161D01*
X2154D02*
Y2181D01*
X1791Y2365D02*
X1811Y2345D01*
X1763Y2365D02*
X1791D01*
X2055Y2485D02*
X2069D01*
X1706Y2717D02*
Y2722D01*
X1681Y2747D02*
X1706Y2722D01*
X2381Y2722D02*
X2384D01*
X2138Y2767D02*
X2141D01*
X2170Y2796D01*
X2525Y2927D02*
X2565Y2967D01*
X2478Y2942D02*
X2493Y2927D01*
X2475Y2942D02*
X2478D01*
X2069Y3114D02*
X2102D01*
X2130Y3142D01*
X1841Y2912D02*
X1861Y2932D01*
X1793Y2912D02*
X1841D01*
X1763Y2942D02*
X1793Y2912D01*
X1548Y2767D02*
Y2768D01*
X1521Y2795D02*
X1548Y2768D01*
X1599Y810D02*
X1639D01*
X1559Y837D02*
X1573Y852D01*
X2062Y818D02*
X2070Y810D01*
X2110D01*
X2029Y836D02*
X2043Y851D01*
X2130Y1193D02*
X2144D01*
X2162Y1175D01*
X2208Y1129D02*
X2218Y1119D01*
Y1080D02*
Y1119D01*
X1688Y1099D02*
X1714Y1125D01*
X1760Y1171D02*
X1769D01*
X1791Y1193D01*
X1875Y2240D02*
X1895Y2260D01*
X1835Y2240D02*
X1875D01*
X2043Y851D02*
X2075D01*
X2109Y837D02*
X2110D01*
X1591Y818D02*
X1599Y810D01*
X1559Y837D02*
X1559Y837D01*
X1572Y851D02*
X1604D01*
X1638Y837D02*
X1639D01*
X1809D02*
X1888D01*
D21*
X1591Y496D02*
G03*
X1571Y488I0J-28D01*
G01*
Y524D02*
G03*
X1591Y515I20J20D01*
G01*
X2144Y524D02*
G03*
X2163Y516I20J20D01*
G01*
X1854Y491D02*
G03*
X1842Y496I-12J-12D01*
G01*
X2427Y488D02*
G03*
X2407Y496I-20J-20D01*
G01*
X2163D02*
G03*
X2144Y488I0J-28D01*
G01*
X1881Y535D02*
G03*
X1886Y538I-0J8D01*
G01*
X1881Y535D02*
G03*
X1886Y538I-0J8D01*
G01*
X1881Y535D02*
G03*
X1886Y538I-0J8D01*
G01*
X1881Y535D02*
G03*
X1886Y538I-0J8D01*
G01*
X2439Y535D02*
G03*
X2443Y537I-0J5D01*
G01*
X2439Y535D02*
G03*
X2443Y537I-0J5D01*
G01*
X2439Y535D02*
G03*
X2443Y537I-0J5D01*
G01*
X2439Y535D02*
G03*
X2443Y537I-0J5D01*
G01*
X2439Y535D02*
G03*
X2443Y537I-0J5D01*
G01*
X2439Y535D02*
G03*
X2443Y537I-0J5D01*
G01*
X2439Y535D02*
G03*
X2443Y537I-0J5D01*
G01*
X2439Y535D02*
G03*
X2443Y537I0J5D01*
G01*
X1881Y535D02*
G03*
X1886Y538I-0J8D01*
G01*
X1881Y535D02*
G03*
X1886Y538I0J8D01*
G01*
X1881Y535D02*
G03*
X1886Y538I-0J8D01*
G01*
X1881Y535D02*
G03*
X1886Y538I-0J8D01*
G01*
X2163Y496D02*
X2192D01*
X1591Y496D02*
X1619D01*
X2163Y516D02*
X2192D01*
X1541Y524D02*
X1571D01*
X1591Y515D02*
X1619D01*
X1596Y788D02*
X1598Y786D01*
X702Y1553D02*
Y1604D01*
Y1553D02*
X773D01*
X688Y1388D02*
Y1439D01*
X658Y1469D02*
X688Y1439D01*
X1020Y1490D02*
X1088D01*
X1825Y2416D02*
Y2442D01*
X803Y4085D02*
X833D01*
X799Y4081D02*
X803Y4085D01*
X833D02*
X835D01*
X749Y4145D02*
X754Y4140D01*
X790D01*
X2220Y2811D02*
X2235Y2796D01*
X2220Y2811D02*
Y2882D01*
X2128D02*
X2220D01*
X2127Y2883D02*
X2128Y2882D01*
X2218Y2968D02*
X2305D01*
X2237Y3116D02*
X2258Y3137D01*
X2237Y3019D02*
Y3116D01*
X2218Y2968D02*
Y2972D01*
X2237Y2993D02*
X2305D01*
X2237D02*
Y3019D01*
X2305D01*
X2522Y3059D02*
X2565Y3102D01*
X2522Y3019D02*
Y3059D01*
Y2993D02*
Y3019D01*
X2475Y2968D02*
X2522D01*
Y2993D01*
X2475D02*
X2522D01*
X2475Y3019D02*
X2522D01*
X2221Y4194D02*
Y4251D01*
X2212Y4260D02*
X2221Y4251D01*
X1889D02*
X1898Y4260D01*
X1889Y4194D02*
Y4251D01*
X2360Y4395D02*
X2383Y4372D01*
X2400D01*
X2359Y4332D02*
Y4340D01*
X2332Y4367D02*
X2359Y4340D01*
X1105Y3820D02*
X1120D01*
X1137Y3803D01*
X1149Y3815D02*
X1199D01*
X1137Y3803D02*
X1149Y3815D01*
X860Y4490D02*
Y4515D01*
X870Y4525D01*
X820Y4450D02*
X860Y4490D01*
X820Y4433D02*
Y4450D01*
X798Y4411D02*
X820Y4433D01*
X870Y3725D02*
X890D01*
X964Y3660D02*
X974Y3650D01*
X920Y3660D02*
X964D01*
X887Y4222D02*
Y4256D01*
X870Y4205D02*
X887Y4222D01*
X1080Y4595D02*
X1100Y4575D01*
X1064Y4595D02*
X1080D01*
X1102Y4315D02*
X1130D01*
X947Y3983D02*
Y4036D01*
X1015Y3810D02*
Y3856D01*
X1806Y496D02*
X1842D01*
X2379D02*
X2407D01*
X1525Y507D02*
X1541Y524D01*
X2104Y524D02*
X2144D01*
X2379Y535D02*
X2439D01*
X1806D02*
X1881D01*
X773Y1527D02*
X798D01*
Y1324D02*
Y1389D01*
Y1454D01*
X863Y1389D02*
Y1454D01*
X943Y1527D02*
X965Y1506D01*
X658Y1604D02*
X701D01*
X943Y1578D02*
X1010D01*
X943Y1604D02*
X1010D01*
X798Y1454D02*
Y1527D01*
X863Y1454D02*
Y1516D01*
X900Y1553D02*
X943D01*
X863Y1516D02*
X900Y1553D01*
X943D02*
X1020D01*
X1088Y1486D02*
Y1490D01*
X863Y1324D02*
X892Y1295D01*
X895D01*
X1525Y3019D02*
X1593D01*
X1525Y2993D02*
Y3019D01*
Y2993D02*
X1593D01*
X1506Y2968D02*
Y2972D01*
X730Y3110D02*
Y3160D01*
X775Y3205D01*
X1260Y2920D02*
Y2970D01*
X1215Y3015D02*
X1260Y2970D01*
X1525Y3019D02*
Y3116D01*
X1546Y3137D01*
X1506Y2968D02*
X1593D01*
X1413Y2883D02*
X1414Y2882D01*
X1456Y2795D02*
Y2876D01*
X1414Y2882D02*
X1450D01*
X1506D01*
X1450D02*
X1456Y2876D01*
X2111Y2290D02*
X2130Y2314D01*
X2019Y2288D02*
X2021Y2290D01*
X1763Y2391D02*
X1825D01*
X1763Y2442D02*
X1825D01*
Y2414D02*
Y2416D01*
X1684Y2226D02*
Y2291D01*
X1619Y2161D02*
Y2226D01*
Y2291D01*
X1515Y2391D02*
X1593D01*
X1510Y2442D02*
X1593D01*
X1510Y2416D02*
X1593D01*
X1763Y3019D02*
X1810D01*
X1763Y2993D02*
X1810D01*
Y2968D02*
Y2993D01*
X1763Y2968D02*
X1810D01*
Y2993D02*
Y3019D01*
X1813D02*
X1861Y3067D01*
X1725Y2391D02*
X1763D01*
X1684Y2291D02*
Y2350D01*
X1725Y2391D01*
X1825D02*
Y2414D01*
X1763Y2416D02*
X1825D01*
X1598Y786D02*
X1639D01*
D22*
X1857Y805D02*
G03*
X1845Y810I-12J-12D01*
G01*
X2329Y806D02*
G03*
X2316Y811I-12J-12D01*
G01*
X1609Y407D02*
G03*
X1619Y431I-24J24D01*
G01*
X1609Y407D02*
G03*
X1619Y431I-24J24D01*
G01*
X1609Y407D02*
G03*
X1619Y431I-24J24D01*
G01*
X1609Y407D02*
G03*
X1619Y431I-24J24D01*
G01*
X1684Y346D02*
G03*
X1655Y275I71J-71D01*
G01*
X1800Y461D02*
G03*
X1806Y474I-15J15D01*
G01*
X2405Y413D02*
G03*
X2381Y474I-89J-0D01*
G01*
X1820Y733D02*
G03*
X1809Y760I-38J0D01*
G01*
X1820Y733D02*
G03*
X1809Y760I-38J0D01*
G01*
X1820Y733D02*
G03*
X1809Y760I-38J0D01*
G01*
X1820Y733D02*
G03*
X1809Y760I-38J0D01*
G01*
X1872Y760D02*
G03*
X1889Y770I-0J18D01*
G01*
X1872Y760D02*
G03*
X1889Y770I-0J18D01*
G01*
X1872Y760D02*
G03*
X1889Y770I-0J18D01*
G01*
X1872Y760D02*
G03*
X1889Y770I-0J18D01*
G01*
X1820Y619D02*
G03*
X1860Y603I39J39D01*
G01*
X1892Y686D02*
G03*
X1886Y672I14J-14D01*
G01*
X2373Y618D02*
G03*
X2411Y602I38J38D01*
G01*
X2373Y618D02*
G03*
X2411Y602I38J38D01*
G01*
X2373Y618D02*
G03*
X2411Y602I38J38D01*
G01*
X2373Y618D02*
G03*
X2411Y602I38J38D01*
G01*
X2443Y682D02*
G03*
X2442Y686I-5J-0D01*
G01*
X2443Y682D02*
G03*
X2442Y686I-5J-0D01*
G01*
X2443Y682D02*
G03*
X2442Y686I-5J-0D01*
G01*
X2443Y682D02*
G03*
X2442Y686I-5J-0D01*
G01*
X2443Y682D02*
G03*
X2442Y686I-5J-0D01*
G01*
X2443Y682D02*
G03*
X2442Y686I-5J0D01*
G01*
X2443Y682D02*
G03*
X2442Y686I-5J-0D01*
G01*
X2443Y682D02*
G03*
X2442Y686I-5J-0D01*
G01*
X2373Y618D02*
G03*
X2411Y602I38J38D01*
G01*
X2373Y618D02*
G03*
X2411Y602I38J38D01*
G01*
X2373Y618D02*
G03*
X2411Y602I38J38D01*
G01*
X2373Y618D02*
G03*
X2411Y602I38J38D01*
G01*
X1872Y760D02*
G03*
X1889Y770I-0J18D01*
G01*
X1872Y760D02*
G03*
X1889Y770I0J18D01*
G01*
X1872Y760D02*
G03*
X1889Y770I-0J18D01*
G01*
X1872Y760D02*
G03*
X1889Y770I-0J18D01*
G01*
X1820Y733D02*
G03*
X1809Y760I-38J0D01*
G01*
X1820Y733D02*
G03*
X1809Y760I-38J0D01*
G01*
X1820Y733D02*
G03*
X1809Y760I-38J0D01*
G01*
X1820Y733D02*
G03*
X1809Y760I-38J0D01*
G01*
X1609Y407D02*
G03*
X1619Y431I-24J24D01*
G01*
X1609Y407D02*
G03*
X1619Y431I-24J24D01*
G01*
X1609Y407D02*
G03*
X1619Y431I-24J24D01*
G01*
X1609Y407D02*
G03*
X1619Y431I-24J24D01*
G01*
X2367Y760D02*
G03*
X2373Y761I0J18D01*
G01*
X2367Y760D02*
G03*
X2373Y761I-0J18D01*
G01*
X2367Y760D02*
G03*
X2373Y761I-0J18D01*
G01*
X2367Y760D02*
G03*
X2373Y761I-0J18D01*
G01*
X2367Y760D02*
G03*
X2373Y761I-0J18D01*
G01*
X2367Y760D02*
G03*
X2373Y761I-0J18D01*
G01*
X2367Y760D02*
G03*
X2373Y761I-0J18D01*
G01*
X2367Y760D02*
G03*
X2373Y761I-0J18D01*
G01*
D02*
G03*
X2380Y765I-6J17D01*
G01*
X2373Y761D02*
G03*
X2380Y765I-6J17D01*
G01*
X2373Y761D02*
G03*
X2380Y765I-6J17D01*
G01*
X2373Y761D02*
G03*
X2380Y765I-6J17D01*
G01*
X2373Y761D02*
G03*
X2380Y765I-6J17D01*
G01*
X2373Y761D02*
G03*
X2380Y765I-6J17D01*
G01*
X2373Y761D02*
G03*
X2380Y765I-6J17D01*
G01*
X2380D02*
G03*
X2379Y763I2J-2D01*
G01*
X2380Y765D02*
G03*
X2379Y763I2J-2D01*
G01*
X2380Y765D02*
G03*
X2379Y763I2J-2D01*
G01*
X2373Y761D02*
G03*
X2380Y765I-6J17D01*
G01*
X2380D02*
G03*
X2379Y763I2J-2D01*
G01*
X2380Y765D02*
G03*
X2379Y763I2J-2D01*
G01*
X2380Y765D02*
G03*
X2379Y763I2J-2D01*
G01*
X2380Y765D02*
G03*
X2379Y763I2J-2D01*
G01*
X2380Y765D02*
G03*
X2379Y763I2J-2D01*
G01*
X1967Y761D02*
G03*
X1990Y752I22J22D01*
G01*
X1967Y761D02*
G03*
X1990Y752I22J22D01*
G01*
X1967Y761D02*
G03*
X1990Y752I22J22D01*
G01*
X1967Y761D02*
G03*
X1990Y752I22J22D01*
G01*
X1967Y761D02*
G03*
X1990Y752I22J22D01*
G01*
X1967Y761D02*
G03*
X1990Y752I22J22D01*
G01*
X1967Y761D02*
G03*
X1990Y752I22J22D01*
G01*
X1967Y761D02*
G03*
X1990Y752I22J22D01*
G01*
X2101D02*
G03*
X2110Y756I-0J14D01*
G01*
X2101Y752D02*
G03*
X2110Y756I-0J14D01*
G01*
X2101Y752D02*
G03*
X2110Y756I-0J14D01*
G01*
X2101Y752D02*
G03*
X2110Y756I-0J14D01*
G01*
X2101Y752D02*
G03*
X2110Y756I-0J14D01*
G01*
X2101Y752D02*
G03*
X2110Y756I-0J14D01*
G01*
X2101Y752D02*
G03*
X2110Y756I-0J14D01*
G01*
X2101Y752D02*
G03*
X2110Y756I-0J14D01*
G01*
X1490Y766D02*
G03*
X1496Y762I15J15D01*
G01*
X1496Y762D02*
G03*
X1505Y760I9J19D01*
G01*
X1490Y766D02*
G03*
X1496Y762I15J15D01*
G01*
X1490Y766D02*
G03*
X1496Y762I15J15D01*
G01*
X1490Y766D02*
G03*
X1496Y762I15J15D01*
G01*
X1496Y762D02*
G03*
X1505Y760I9J19D01*
G01*
X1496Y762D02*
G03*
X1505Y760I9J19D01*
G01*
X1496Y762D02*
G03*
X1505Y760I9J19D01*
G01*
X1496Y762D02*
G03*
X1518Y753I22J23D01*
G01*
X1496Y762D02*
G03*
X1518Y753I22J23D01*
G01*
X1496Y762D02*
G03*
X1518Y753I22J23D01*
G01*
X1490Y766D02*
G03*
X1496Y762I15J15D01*
G01*
X1495Y762D02*
G03*
X1496Y762I22J22D01*
G01*
X1495Y762D02*
G03*
X1496Y762I22J22D01*
G01*
X1490Y766D02*
G03*
X1496Y762I15J15D01*
G01*
X1490Y766D02*
G03*
X1496Y762I15J15D01*
G01*
X1490Y766D02*
G03*
X1496Y762I15J15D01*
G01*
X1495Y762D02*
G03*
X1496Y762I22J22D01*
G01*
X1495Y762D02*
G03*
X1496Y762I22J22D01*
G01*
X1495Y762D02*
G03*
X1496Y762I22J22D01*
G01*
X1495Y762D02*
G03*
X1496Y762I22J22D01*
G01*
X1495Y762D02*
G03*
X1496Y762I22J22D01*
G01*
X1495Y762D02*
G03*
X1496Y762I22J22D01*
G01*
D02*
G03*
X1518Y753I22J23D01*
G01*
X1496Y762D02*
G03*
X1518Y753I22J23D01*
G01*
X1496Y762D02*
G03*
X1518Y753I22J23D01*
G01*
X1629D02*
G03*
X1638Y757I-0J14D01*
G01*
X1629Y753D02*
G03*
X1638Y757I-0J14D01*
G01*
X1496Y762D02*
G03*
X1505Y760I9J19D01*
G01*
X1496Y762D02*
G03*
X1505Y760I9J19D01*
G01*
X1496Y762D02*
G03*
X1505Y760I9J19D01*
G01*
X1496Y762D02*
G03*
X1518Y753I22J23D01*
G01*
X1496Y762D02*
G03*
X1518Y753I22J23D01*
G01*
X1496Y762D02*
G03*
X1505Y760I9J19D01*
G01*
X1629Y753D02*
G03*
X1638Y757I-0J14D01*
G01*
X1629Y753D02*
G03*
X1638Y757I-0J14D01*
G01*
X1629Y753D02*
G03*
X1638Y757I-0J14D01*
G01*
X1629Y753D02*
G03*
X1638Y757I-0J14D01*
G01*
X1629Y753D02*
G03*
X1638Y757I-0J14D01*
G01*
X1629Y753D02*
G03*
X1638Y757I-0J14D01*
G01*
X2405Y181D02*
Y413D01*
X1684Y346D02*
X1745Y406D01*
X2192Y476D02*
X2261Y407D01*
X1820Y684D02*
Y733D01*
X1745Y406D02*
X1800Y461D01*
X1655Y181D02*
Y275D01*
X1809Y810D02*
X1845D01*
X2280Y811D02*
X2316D01*
X2443Y602D02*
Y682D01*
X2411Y602D02*
X2443D01*
X1886Y603D02*
Y672D01*
X1860Y603D02*
X1886D01*
X1809Y760D02*
X1872D01*
X2261Y407D02*
X2332D01*
X1619Y431D02*
Y476D01*
X1609Y407D02*
X1681D01*
X474Y2968D02*
X520D01*
X474Y3019D02*
X520D01*
Y2968D02*
Y2993D01*
Y3019D01*
X474Y2993D02*
X520D01*
Y3019D02*
X569Y3068D01*
Y3094D01*
X418Y2968D02*
X474D01*
X374Y2924D02*
X418Y2968D01*
X374Y2804D02*
Y2869D01*
Y2924D01*
X309Y2739D02*
Y2804D01*
Y2869D01*
Y2937D01*
X116Y2885D02*
X219D01*
X234Y2798D02*
Y2870D01*
X219Y2885D02*
X234Y2870D01*
X259Y3139D02*
X263Y3135D01*
X219Y2968D02*
Y2975D01*
X235D01*
Y2993D02*
Y3019D01*
Y2993D02*
X304D01*
X263Y3019D02*
Y3135D01*
X235Y3019D02*
X263D01*
X304D01*
X219Y2968D02*
X304D01*
X235Y2975D02*
Y2993D01*
X2280Y837D02*
X2364D01*
X2068Y786D02*
X2110D01*
X2280Y760D02*
X2365D01*
X2373Y683D02*
Y761D01*
Y763D01*
X1990Y752D02*
X2101D01*
X1518Y753D02*
X1629D01*
D24*
X2318Y4352D02*
G03*
X2231Y4350I-42J-44D01*
G01*
X2189Y4396D02*
G03*
X2186Y4485I-46J43D01*
G01*
X794Y4200D02*
X824Y4170D01*
X1115D01*
X750Y4200D02*
X794D01*
X1115Y4170D02*
X1160Y4215D01*
X1175Y4422D02*
X1186Y4411D01*
D26*
X2619Y3533D02*
D03*
X1262D02*
D03*
X2619Y1957D02*
D03*
X1262D02*
D03*
D27*
X238Y4212D02*
X256Y4230D01*
X290D01*
X475Y4585D02*
X500Y4560D01*
X290Y4585D02*
X475D01*
X290Y4505D02*
Y4520D01*
Y4505D02*
X315Y4480D01*
X833Y4085D02*
X858Y4110D01*
X1554D02*
X1806Y3858D01*
X2036D01*
X858Y4110D02*
X1554D01*
X238Y4302D02*
X290D01*
X468D01*
X382Y2536D02*
Y2631D01*
X252Y2532D02*
X387D01*
X882Y2536D02*
Y2631D01*
X752Y2536D02*
X887D01*
X1895Y2395D02*
X2024D01*
X1825Y2414D02*
X1895D01*
X2019Y2181D02*
Y2288D01*
X382Y2631D02*
X382Y2631D01*
X882Y2631D02*
X882Y2631D01*
X984Y719D02*
X1106D01*
X1139D01*
X1106Y626D02*
Y719D01*
X1139Y854D02*
X1274D01*
X326Y318D02*
X448D01*
Y225D02*
Y318D01*
X481Y453D02*
X616D01*
X1052Y454D02*
X1187D01*
X897Y319D02*
X1019D01*
Y226D02*
Y319D01*
X1111Y1076D02*
Y1155D01*
X985D02*
Y1169D01*
X618Y1644D02*
Y1724D01*
Y1644D02*
X658Y1604D01*
X1080Y2905D02*
Y3015D01*
X1170Y2855D02*
X1260D01*
X1170Y2800D02*
Y2905D01*
X1080Y3015D02*
Y3110D01*
X1080Y3110D02*
X1080Y3110D01*
X910Y3095D02*
Y3205D01*
X730Y3045D02*
X815D01*
X820Y2990D02*
Y3095D01*
X569Y3119D02*
X569Y3119D01*
X910Y3205D02*
Y3286D01*
X911Y3287D01*
X2130Y2314D02*
Y2485D01*
X1301Y2325D02*
X1404D01*
X1419D01*
Y2236D02*
Y2325D01*
X1404Y2415D02*
X1510D01*
X2024Y2395D02*
Y2398D01*
X219Y2304D02*
Y2397D01*
X97D02*
X219D01*
X719Y2308D02*
Y2401D01*
X597D02*
X719D01*
D28*
X1811Y3722D02*
D03*
X1800Y3267D02*
D03*
X1823Y3759D02*
D03*
X1835Y3267D02*
D03*
X1539Y2071D02*
D03*
X2093Y566D02*
D03*
X1574Y2071D02*
D03*
X2120Y601D02*
D03*
X1609Y2071D02*
D03*
X1650D02*
D03*
X2146Y631D02*
D03*
X1596Y783D02*
D03*
X1997Y912D02*
D03*
X2190Y3759D02*
D03*
X2178Y3722D02*
D03*
X1994Y3249D02*
D03*
X1941Y3722D02*
D03*
X1968Y3272D02*
D03*
X1953Y3759D02*
D03*
X2032D02*
D03*
X2053Y3251D02*
D03*
X2024Y3234D02*
D03*
X2020Y3722D02*
D03*
X1913Y3272D02*
D03*
X2468Y3266D02*
D03*
X2327Y3995D02*
D03*
X2292Y3977D02*
D03*
X2433Y3266D02*
D03*
X2399Y3267D02*
D03*
X2364D02*
D03*
X2330Y3891D02*
D03*
X2294D02*
D03*
X2297Y407D02*
D03*
X1645D02*
D03*
X1596Y818D02*
D03*
X2218Y1080D02*
D03*
X1683Y1093D02*
D03*
X1450Y3872D02*
D03*
X2062Y818D02*
D03*
X2075Y851D02*
D03*
X2065Y783D02*
D03*
X1922Y912D02*
D03*
X1848Y852D02*
D03*
X1604D02*
D03*
X2130Y1193D02*
D03*
X1784Y1200D02*
D03*
X1888Y3247D02*
D03*
X2111Y3759D02*
D03*
X2099Y3722D02*
D03*
X2118Y3267D02*
D03*
X2083D02*
D03*
X2152D02*
D03*
X2208D02*
D03*
X2276D02*
D03*
X2241D02*
D03*
X2249Y3759D02*
D03*
X2237Y3722D02*
D03*
X1893D02*
D03*
X1881Y3759D02*
D03*
X1967Y2077D02*
D03*
X1934D02*
D03*
X1900D02*
D03*
X2190Y1305D02*
D03*
X2150Y1315D02*
D03*
X2168Y1347D02*
D03*
D29*
X290Y4230D02*
D03*
X3750Y3210D02*
D03*
Y5180D02*
D03*
Y4200D02*
D03*
Y2230D02*
D03*
X2250Y2240D02*
D03*
X2280Y2210D02*
D03*
X2334Y2090D02*
D03*
X2208D02*
D03*
X2240Y2060D02*
D03*
X2271Y2090D02*
D03*
X2303Y2060D02*
D03*
X3660Y2340D02*
D03*
X3500D02*
D03*
X3340D02*
D03*
X3180D02*
D03*
X2366Y2060D02*
D03*
X2397Y2090D02*
D03*
X2429Y2060D02*
D03*
X2460Y2090D02*
D03*
X2491Y2060D02*
D03*
X2523Y2090D02*
D03*
X2555Y2060D02*
D03*
X2152Y1705D02*
D03*
X3750Y1305D02*
D03*
Y320D02*
D03*
X3580Y1190D02*
D03*
X3420D02*
D03*
X3260D02*
D03*
X3100D02*
D03*
X2491Y1700D02*
D03*
X3100Y2620D02*
D03*
X3260D02*
D03*
X3430D02*
D03*
X3590D02*
D03*
X3100Y2400D02*
D03*
X3260D02*
D03*
X3430D02*
D03*
X3590D02*
D03*
X3205Y2720D02*
D03*
X3305D02*
D03*
X3405D02*
D03*
X3505D02*
D03*
X3660Y910D02*
D03*
X3500D02*
D03*
X3330D02*
D03*
X3170D02*
D03*
X3660Y1130D02*
D03*
X3500D02*
D03*
X3330D02*
D03*
X3170D02*
D03*
X3255Y810D02*
D03*
X3355D02*
D03*
X3455D02*
D03*
X3555D02*
D03*
X3750Y119D02*
D03*
Y459D02*
D03*
Y1104D02*
D03*
Y1444D02*
D03*
Y2088D02*
D03*
Y2428D02*
D03*
Y3072D02*
D03*
Y3412D02*
D03*
Y4056D02*
D03*
Y4396D02*
D03*
Y5041D02*
D03*
Y5381D02*
D03*
X2439Y4128D02*
D03*
X2546Y2751D02*
D03*
X2403Y4130D02*
D03*
X2510Y2751D02*
D03*
X2365Y4060D02*
D03*
X2472Y2830D02*
D03*
X2366Y4096D02*
D03*
X2474Y2789D02*
D03*
X2402Y4094D02*
D03*
X2510Y2790D02*
D03*
X2032Y4660D02*
D03*
X2665Y2751D02*
D03*
X2016Y4621D02*
D03*
X2629Y2752D02*
D03*
X1985Y4590D02*
D03*
X2631Y2788D02*
D03*
X2530Y4291D02*
D03*
X2595Y2789D02*
D03*
X2460Y1675D02*
D03*
X2397D02*
D03*
X2428Y1700D02*
D03*
X2365D02*
D03*
X1835Y575D02*
D03*
X1502Y551D02*
D03*
X1466Y581D02*
D03*
X1500Y630D02*
D03*
X1466Y2054D02*
D03*
X1452Y1702D02*
D03*
X1325D02*
D03*
X1452Y3634D02*
D03*
X1357D02*
D03*
X1353Y3275D02*
D03*
X1392D02*
D03*
X1428D02*
D03*
X1463D02*
D03*
X1435Y805D02*
D03*
X1467Y933D02*
D03*
X1474Y719D02*
D03*
X1450Y4338D02*
D03*
X1435Y4455D02*
D03*
X2498Y4261D02*
D03*
X2230Y4351D02*
D03*
X1977Y4000D02*
D03*
Y4049D02*
D03*
X2129Y4000D02*
D03*
Y4049D02*
D03*
Y3946D02*
D03*
X1977D02*
D03*
X2031D02*
D03*
X2080D02*
D03*
X2061Y1323D02*
D03*
X2011D02*
D03*
X1861D02*
D03*
X1911D02*
D03*
X1861Y1375D02*
D03*
X2061D02*
D03*
X2011D02*
D03*
X1961D02*
D03*
X1911D02*
D03*
Y1271D02*
D03*
X1961D02*
D03*
X2011D02*
D03*
X2061D02*
D03*
X1861D02*
D03*
X1911Y1231D02*
D03*
X1961D02*
D03*
X2011D02*
D03*
X2061D02*
D03*
X1861D02*
D03*
Y1415D02*
D03*
X2061D02*
D03*
X2011D02*
D03*
X1961D02*
D03*
X1911D02*
D03*
X1765Y2543D02*
D03*
Y2493D02*
D03*
X2540Y1701D02*
D03*
X2192Y1705D02*
D03*
X1859Y1701D02*
D03*
X1498D02*
D03*
X1500Y2054D02*
D03*
X1309D02*
D03*
X2541Y3268D02*
D03*
X1309Y3276D02*
D03*
X1498D02*
D03*
X1353Y3111D02*
D03*
X2165Y3640D02*
D03*
X1847Y3638D02*
D03*
X579Y251D02*
D03*
X1143D02*
D03*
X1237Y651D02*
D03*
X1231Y1102D02*
D03*
X1285Y1516D02*
D03*
X591Y1341D02*
D03*
X411Y1699D02*
D03*
X56Y3155D02*
D03*
X512Y2920D02*
D03*
X138Y2765D02*
D03*
X394Y2706D02*
D03*
X342Y2337D02*
D03*
X851Y2339D02*
D03*
X1707Y2129D02*
D03*
X1481Y2231D02*
D03*
X1328Y2209D02*
D03*
X2120Y2125D02*
D03*
X1811Y2345D02*
D03*
X2044Y2507D02*
D03*
X1706Y2717D02*
D03*
X2381Y2722D02*
D03*
X2138Y2767D02*
D03*
X2513Y2920D02*
D03*
X2069Y3114D02*
D03*
X1793Y2912D02*
D03*
X1548Y2767D02*
D03*
X1161Y3610D02*
D03*
X1372Y4680D02*
D03*
X1748Y4319D02*
D03*
X697Y4038D02*
D03*
X1500Y1020D02*
D03*
X1949Y1672D02*
D03*
X1713Y4028D02*
D03*
X1697Y4187D02*
D03*
X2036Y3858D02*
D03*
X2400Y4216D02*
D03*
X2075Y3858D02*
D03*
X1813Y4211D02*
D03*
Y4070D02*
D03*
X1822Y4280D02*
D03*
X2279Y4280D02*
D03*
X2108Y4445D02*
D03*
X1993D02*
D03*
X2212Y4260D02*
D03*
X1898D02*
D03*
X2157Y4170D02*
D03*
X2098Y4180D02*
D03*
X2080Y4098D02*
D03*
X2031D02*
D03*
X1977D02*
D03*
X2129D02*
D03*
X2208Y4035D02*
D03*
X2213Y4080D02*
D03*
X1892D02*
D03*
X1897Y4035D02*
D03*
X2039Y4180D02*
D03*
X1980D02*
D03*
X1933Y4170D02*
D03*
X1813Y4105D02*
D03*
Y4175D02*
D03*
X1279Y3963D02*
D03*
X1277Y3776D02*
D03*
Y3838D02*
D03*
Y3902D02*
D03*
X2427Y482D02*
D03*
X2144Y524D02*
D03*
Y488D02*
D03*
X1854Y481D02*
D03*
X2329Y806D02*
D03*
X1960Y950D02*
D03*
X2400Y4372D02*
D03*
X2361Y4330D02*
D03*
X2190Y4395D02*
D03*
X1570Y483D02*
D03*
Y522D02*
D03*
X1971Y1500D02*
D03*
X1673Y3875D02*
D03*
X1924Y4540D02*
D03*
X1960Y4514D02*
D03*
X1638Y4265D02*
D03*
X2148Y4521D02*
D03*
X2181Y4543D02*
D03*
X2316Y4412D02*
D03*
X2359Y4533D02*
D03*
X1788Y4410D02*
D03*
X1976Y4656D02*
D03*
X1942Y1541D02*
D03*
X1105Y3820D02*
D03*
X1164Y3730D02*
D03*
X860Y4490D02*
D03*
X1100Y4575D02*
D03*
X1130Y4315D02*
D03*
X1160Y4215D02*
D03*
X1120Y4365D02*
D03*
X1180Y4530D02*
D03*
X1395Y4529D02*
D03*
X625Y4610D02*
D03*
X570Y4500D02*
D03*
X865Y3940D02*
D03*
X870Y3725D02*
D03*
X1850Y3238D02*
D03*
X2180D02*
D03*
X750Y4200D02*
D03*
X900Y4600D02*
D03*
X960Y4595D02*
D03*
X920Y3660D02*
D03*
X1015Y3810D02*
D03*
X1060Y3825D02*
D03*
X910Y3820D02*
D03*
X870Y4205D02*
D03*
X1155Y4455D02*
D03*
X843Y4321D02*
D03*
X1230Y4240D02*
D03*
X835Y4085D02*
D03*
X790Y4140D02*
D03*
X947Y4036D02*
D03*
X1026D02*
D03*
X697Y4109D02*
D03*
X50Y4085D02*
D03*
X100D02*
D03*
X150D02*
D03*
X200D02*
D03*
X250D02*
D03*
X300D02*
D03*
X350D02*
D03*
X400D02*
D03*
X450D02*
D03*
X500D02*
D03*
X550D02*
D03*
Y4035D02*
D03*
X500D02*
D03*
X450D02*
D03*
X400D02*
D03*
X350D02*
D03*
X300D02*
D03*
X250D02*
D03*
X200D02*
D03*
X150D02*
D03*
X100D02*
D03*
X50D02*
D03*
X550Y3985D02*
D03*
X500D02*
D03*
X450D02*
D03*
X400D02*
D03*
X350D02*
D03*
X300D02*
D03*
X250D02*
D03*
X200D02*
D03*
X150D02*
D03*
X100D02*
D03*
X50D02*
D03*
X550Y3935D02*
D03*
X500D02*
D03*
X450D02*
D03*
X400D02*
D03*
X350D02*
D03*
X300D02*
D03*
X250D02*
D03*
X200D02*
D03*
X150D02*
D03*
X100D02*
D03*
X50D02*
D03*
X550Y3885D02*
D03*
X500D02*
D03*
X450D02*
D03*
X400D02*
D03*
X350D02*
D03*
X300D02*
D03*
X250D02*
D03*
X200D02*
D03*
X150D02*
D03*
X100D02*
D03*
X50D02*
D03*
X550Y3835D02*
D03*
X500D02*
D03*
X450D02*
D03*
X400D02*
D03*
X350D02*
D03*
X300D02*
D03*
X250D02*
D03*
X200D02*
D03*
X150D02*
D03*
X100D02*
D03*
X50D02*
D03*
X550Y3785D02*
D03*
X500D02*
D03*
X450D02*
D03*
X400D02*
D03*
X350D02*
D03*
X300D02*
D03*
X250D02*
D03*
X200D02*
D03*
X150D02*
D03*
X100D02*
D03*
X50D02*
D03*
X550Y3735D02*
D03*
X500D02*
D03*
X450D02*
D03*
X400D02*
D03*
X350D02*
D03*
X300D02*
D03*
X250D02*
D03*
X200D02*
D03*
X150D02*
D03*
X100D02*
D03*
X50D02*
D03*
X550Y3685D02*
D03*
X500D02*
D03*
X450D02*
D03*
X400D02*
D03*
X350D02*
D03*
X300D02*
D03*
X250D02*
D03*
X200D02*
D03*
X150D02*
D03*
X100D02*
D03*
X50D02*
D03*
X550Y3635D02*
D03*
X500D02*
D03*
X450D02*
D03*
X400D02*
D03*
X350D02*
D03*
X300D02*
D03*
X250D02*
D03*
X200D02*
D03*
X150D02*
D03*
X100D02*
D03*
X50D02*
D03*
X1485Y1116D02*
D03*
X1630Y1335D02*
D03*
X1840Y905D02*
D03*
X1648Y904D02*
D03*
X2066Y905D02*
D03*
X2276D02*
D03*
X1857Y805D02*
D03*
X1965Y715D02*
D03*
X2170Y380D02*
D03*
X1518D02*
D03*
X2515Y714D02*
D03*
X2685Y4235D02*
D03*
X2633Y4185D02*
D03*
X2049Y710D02*
D03*
X1585Y720D02*
D03*
X2010Y540D02*
D03*
X1995Y474D02*
D03*
X1445Y477D02*
D03*
X2570Y470D02*
D03*
X1880Y455D02*
D03*
X2465Y460D02*
D03*
X965Y1506D02*
D03*
X745Y1805D02*
D03*
X795D02*
D03*
X845D02*
D03*
X895D02*
D03*
X945D02*
D03*
X995D02*
D03*
X745Y1755D02*
D03*
X795D02*
D03*
X845D02*
D03*
X895D02*
D03*
X945D02*
D03*
X995D02*
D03*
X745Y1705D02*
D03*
X795D02*
D03*
X845D02*
D03*
X895D02*
D03*
X945D02*
D03*
X995D02*
D03*
X745Y1655D02*
D03*
X795D02*
D03*
X845D02*
D03*
X895D02*
D03*
X945D02*
D03*
X995D02*
D03*
X695D02*
D03*
Y1705D02*
D03*
Y1755D02*
D03*
Y1805D02*
D03*
X880Y1605D02*
D03*
X830D02*
D03*
X780D02*
D03*
X895Y1295D02*
D03*
X730Y3160D02*
D03*
X1260Y2970D02*
D03*
X1600Y2443D02*
D03*
X1650D02*
D03*
X1700D02*
D03*
X1515Y2543D02*
D03*
Y2493D02*
D03*
X1715D02*
D03*
X1665D02*
D03*
X1615D02*
D03*
X1565D02*
D03*
X1715Y2543D02*
D03*
X1665D02*
D03*
X1615D02*
D03*
X1565D02*
D03*
X1942Y855D02*
D03*
X1835Y2240D02*
D03*
X2875Y3300D02*
D03*
Y3200D02*
D03*
Y3100D02*
D03*
Y3000D02*
D03*
Y2900D02*
D03*
Y2800D02*
D03*
Y2300D02*
D03*
Y2400D02*
D03*
Y2500D02*
D03*
Y2600D02*
D03*
Y2700D02*
D03*
Y2100D02*
D03*
Y2200D02*
D03*
X2825Y1975D02*
D03*
X2750Y1900D02*
D03*
Y2100D02*
D03*
Y2200D02*
D03*
Y2300D02*
D03*
Y2400D02*
D03*
Y2500D02*
D03*
Y2600D02*
D03*
Y2700D02*
D03*
Y3100D02*
D03*
Y3000D02*
D03*
Y2900D02*
D03*
Y2800D02*
D03*
Y3200D02*
D03*
Y3300D02*
D03*
X2675Y2025D02*
D03*
X2820Y3400D02*
D03*
X2523Y1566D02*
D03*
X2598Y1641D02*
D03*
X2708Y1594D02*
D03*
X2740Y1800D02*
D03*
Y1700D02*
D03*
X2622Y1505D02*
D03*
X2536Y1416D02*
D03*
X2437Y1477D02*
D03*
X2632Y1780D02*
D03*
X2635Y1900D02*
D03*
X2519Y1271D02*
D03*
X2439Y1136D02*
D03*
X2352Y1388D02*
D03*
X2312Y851D02*
D03*
X2330Y755D02*
D03*
X1620Y720D02*
D03*
X1830D02*
D03*
X2140Y730D02*
D03*
X1290Y2130D02*
D03*
X1250Y1640D02*
D03*
X1150Y1610D02*
D03*
D30*
X1068Y1638D02*
Y2596D01*
X910Y2754D02*
X1068Y2596D01*
X910Y2754D02*
Y2901D01*
X1020Y1590D02*
X1068Y1638D01*
X686Y4208D02*
X749Y4145D01*
X625Y4208D02*
X686D01*
X625Y3873D02*
Y4208D01*
Y3873D02*
X701Y3797D01*
Y3366D02*
Y3797D01*
X1144Y3199D02*
X2141D01*
X1850Y3205D02*
Y3238D01*
X2141Y3199D02*
X2180Y3238D01*
X977Y3366D02*
X1144Y3199D01*
X701Y3366D02*
X977D01*
X569Y3234D02*
X701Y3366D01*
X569Y3119D02*
Y3234D01*
D32*
X274Y400D02*
Y401D01*
X326Y453D01*
X702Y1604D02*
X773D01*
X701D02*
X702D01*
X1837Y2430D02*
Y2631D01*
X1160D02*
X1837D01*
X1080Y2711D02*
X1160Y2631D01*
X824Y455D02*
X913D01*
X159Y798D02*
X289D01*
X159D02*
Y1544D01*
X498Y1883D01*
Y2468D01*
X566Y2536D01*
X597D01*
X2019Y2116D02*
Y2181D01*
X895Y854D02*
X984D01*
X110Y2960D02*
Y3049D01*
X2038Y2973D02*
X2127D01*
X910Y2901D02*
Y2990D01*
X1080Y2711D02*
Y2800D01*
X1331Y2970D02*
X1420D01*
X597Y2536D02*
Y2625D01*
X97Y2536D02*
Y2625D01*
X1212Y2415D02*
X1301D01*
X411Y1605D02*
X500D01*
X2565Y3102D02*
Y3191D01*
X1861Y3067D02*
X1950D01*
X1187Y454D02*
X1276D01*
X616Y453D02*
X705D01*
X1274Y854D02*
Y943D01*
X1275Y1304D02*
Y1393D01*
X985Y1155D02*
X1111D01*
X1140Y1304D02*
X1275D01*
X985D02*
X1020Y1339D01*
Y1553D02*
Y1590D01*
Y1339D02*
Y1490D01*
Y1553D01*
X501Y1469D02*
X658D01*
D36*
X315Y4480D02*
D03*
X290Y4302D02*
D03*
D39*
X780Y3410D02*
D03*
X824Y455D02*
D03*
X274Y400D02*
D03*
X895Y854D02*
D03*
X110Y3049D02*
D03*
X2038Y2973D02*
D03*
X910Y2901D02*
D03*
X1080Y2711D02*
D03*
X1331Y2970D02*
D03*
X597Y2625D02*
D03*
X97D02*
D03*
X1212Y2415D02*
D03*
X411Y1605D02*
D03*
X2565Y3191D02*
D03*
X1950Y3067D02*
D03*
X2019Y2116D02*
D03*
X1276Y454D02*
D03*
X705Y453D02*
D03*
X1274Y943D02*
D03*
X382Y2631D02*
D03*
X882D02*
D03*
X1275Y1393D02*
D03*
X911Y3287D02*
D03*
X1080Y3110D02*
D03*
X569Y3234D02*
D03*
X1020Y1590D02*
D03*
D41*
X714Y877D02*
D03*
Y1271D02*
D03*
D46*
X2242Y4541D02*
D03*
X2374Y4409D02*
D03*
X2360Y4395D02*
D03*
X2318Y4353D02*
D03*
X2346Y4381D02*
D03*
X2214Y4513D02*
D03*
X2200Y4499D02*
D03*
X2228Y4527D02*
D03*
X2332Y4367D02*
D03*
D52*
X289Y998D02*
D03*
Y898D02*
D03*
Y798D02*
D03*
X155Y4832D02*
D03*
X3780Y1666D02*
D03*
Y1766D02*
D03*
X3480Y1666D02*
D03*
Y1766D02*
D03*
X3180Y1666D02*
D03*
Y1766D02*
D03*
X2053Y4022D02*
D03*
D54*
X2110Y785D02*
D03*
Y810D02*
D03*
X2280Y759D02*
D03*
Y785D02*
D03*
Y810D02*
D03*
X2110Y836D02*
D03*
X2280D02*
D03*
X1639Y785D02*
D03*
Y810D02*
D03*
X1809Y759D02*
D03*
Y785D02*
D03*
Y810D02*
D03*
X1639Y836D02*
D03*
X1809D02*
D03*
X1593Y2365D02*
D03*
X1763D02*
D03*
X1593Y2391D02*
D03*
Y2416D02*
D03*
Y2442D02*
D03*
X1763Y2391D02*
D03*
Y2416D02*
D03*
X773Y1527D02*
D03*
X943D02*
D03*
X773Y1553D02*
D03*
Y1578D02*
D03*
Y1604D02*
D03*
X943Y1553D02*
D03*
Y1578D02*
D03*
X1593Y2942D02*
D03*
X1763D02*
D03*
X1593Y2968D02*
D03*
Y2993D02*
D03*
Y3019D02*
D03*
X1763Y2968D02*
D03*
Y2993D02*
D03*
X2305Y2942D02*
D03*
X2475D02*
D03*
X2305Y2968D02*
D03*
Y2993D02*
D03*
Y3019D02*
D03*
X2475Y2968D02*
D03*
Y2993D02*
D03*
X304Y2942D02*
D03*
X474D02*
D03*
X304Y2968D02*
D03*
Y2993D02*
D03*
Y3019D02*
D03*
X474Y2968D02*
D03*
Y2993D02*
D03*
D66*
X2405Y174D02*
D03*
X1655D02*
D03*
X492Y4880D02*
D03*
X1992Y4882D02*
D03*
X2742D02*
D03*
X1242Y4880D02*
D03*
D69*
X3630Y3290D02*
D03*
X3130D02*
D03*
X3630Y240D02*
D03*
X3130D02*
D03*
D71*
X160Y5285D02*
D03*
Y585D02*
D03*
X2795D02*
D03*
Y5285D02*
D03*
D73*
X118Y1799D02*
D03*
X2835D02*
D03*
Y3531D02*
D03*
X118D02*
D03*
D95*
X1889Y4194D02*
D03*
X1934Y4148D02*
D03*
X2208Y1129D02*
D03*
X2162Y1175D02*
D03*
X2662Y4257D02*
D03*
X2616Y4303D02*
D03*
X2610Y4207D02*
D03*
X2564Y4252D02*
D03*
D96*
X290Y4520D02*
D03*
Y4585D02*
D03*
X1916Y4081D02*
D03*
Y4016D02*
D03*
X2189Y4081D02*
D03*
Y4016D02*
D03*
X1490Y831D02*
D03*
Y766D02*
D03*
X2026Y765D02*
D03*
Y830D02*
D03*
X1556Y766D02*
D03*
Y831D02*
D03*
X1900Y765D02*
D03*
Y830D02*
D03*
X1885Y552D02*
D03*
Y617D02*
D03*
X1820Y618D02*
D03*
Y683D02*
D03*
X2443Y551D02*
D03*
Y616D02*
D03*
X2372Y617D02*
D03*
Y682D02*
D03*
X2379Y765D02*
D03*
Y830D02*
D03*
X1962D02*
D03*
Y765D02*
D03*
X1260Y2920D02*
D03*
Y2855D02*
D03*
X730Y3110D02*
D03*
Y3045D02*
D03*
X903Y3788D02*
D03*
Y3723D02*
D03*
X1137D02*
D03*
Y3788D02*
D03*
X870Y4590D02*
D03*
Y4525D02*
D03*
X1096Y4386D02*
D03*
Y4321D02*
D03*
X887D02*
D03*
Y4256D02*
D03*
D97*
X3780Y1570D02*
D03*
X3715D02*
D03*
X3780Y1960D02*
D03*
X3715D02*
D03*
X1683Y2164D02*
D03*
X1618D02*
D03*
X3180Y1960D02*
D03*
X3115D02*
D03*
X3180Y1570D02*
D03*
X3115D02*
D03*
X3480Y1960D02*
D03*
X3415D02*
D03*
X3480Y1570D02*
D03*
X3415D02*
D03*
X1012Y4063D02*
D03*
X947D02*
D03*
X1783Y4212D02*
D03*
X1718D02*
D03*
X1791Y4054D02*
D03*
X1726D02*
D03*
X2022Y3885D02*
D03*
X2087D02*
D03*
X1544Y406D02*
D03*
X1609D02*
D03*
X1680D02*
D03*
X1745D02*
D03*
X1956Y686D02*
D03*
X1891D02*
D03*
X2332Y406D02*
D03*
X2397D02*
D03*
X2506Y685D02*
D03*
X2441D02*
D03*
X2196Y406D02*
D03*
X2261D02*
D03*
X1684Y2226D02*
D03*
X1619D02*
D03*
Y2291D02*
D03*
X1684D02*
D03*
X1354Y2236D02*
D03*
X1419D02*
D03*
X798Y1324D02*
D03*
X863D02*
D03*
X633Y1378D02*
D03*
X698D02*
D03*
X863Y1389D02*
D03*
X798D02*
D03*
Y1454D02*
D03*
X863D02*
D03*
X2170Y2796D02*
D03*
X2235D02*
D03*
X1521Y2795D02*
D03*
X1456D02*
D03*
X1616Y2747D02*
D03*
X1681D02*
D03*
X1616Y2867D02*
D03*
X1681D02*
D03*
Y2807D02*
D03*
X1616D02*
D03*
X1176Y1076D02*
D03*
X1111D02*
D03*
X1084Y226D02*
D03*
X1019D02*
D03*
X513Y225D02*
D03*
X448D02*
D03*
X1171Y626D02*
D03*
X1106D02*
D03*
X2395Y2807D02*
D03*
X2330D02*
D03*
Y2867D02*
D03*
X2395D02*
D03*
X2330Y2747D02*
D03*
X2395D02*
D03*
X309Y2869D02*
D03*
X374D02*
D03*
X169Y2798D02*
D03*
X234D02*
D03*
X309Y2739D02*
D03*
X374D02*
D03*
Y2804D02*
D03*
X309D02*
D03*
X2070Y2485D02*
D03*
X2135D02*
D03*
X684Y4145D02*
D03*
X749D02*
D03*
X999Y4595D02*
D03*
X1064D02*
D03*
X734Y4081D02*
D03*
X799D02*
D03*
X1058Y3790D02*
D03*
X993D02*
D03*
X1460Y507D02*
D03*
X1525D02*
D03*
X1970Y484D02*
D03*
X1905D02*
D03*
X2035Y528D02*
D03*
X2100D02*
D03*
X2545Y490D02*
D03*
X2480D02*
D03*
X787Y2302D02*
D03*
X722D02*
D03*
X284Y2306D02*
D03*
X219D02*
D03*
D98*
X2162Y4144D02*
D03*
X2208Y4190D02*
D03*
X1902Y4582D02*
D03*
X1948Y4628D02*
D03*
X1776Y4445D02*
D03*
X1822Y4491D02*
D03*
X1714Y1125D02*
D03*
X1760Y1171D02*
D03*
D109*
X2186Y4485D02*
D03*
D117*
X289Y1098D02*
D03*
X155Y4932D02*
D03*
X3780Y1866D02*
D03*
X3480D02*
D03*
X3180D02*
D03*
D119*
X2110Y759D02*
D03*
X1639D02*
D03*
X1763Y2442D02*
D03*
X943Y1604D02*
D03*
X1763Y3019D02*
D03*
X2475D02*
D03*
X474D02*
D03*
D121*
X1080Y2800D02*
D03*
X1170D02*
D03*
Y2905D02*
D03*
X1080D02*
D03*
X910Y2990D02*
D03*
X820D02*
D03*
Y3095D02*
D03*
X910D02*
D03*
X2024Y2398D02*
D03*
X2114D02*
D03*
X2111Y2290D02*
D03*
X2021D02*
D03*
D122*
X1301Y2415D02*
D03*
Y2325D02*
D03*
X1404D02*
D03*
Y2415D02*
D03*
X2127Y2973D02*
D03*
Y2883D02*
D03*
X2220Y2882D02*
D03*
Y2972D02*
D03*
X1413Y2973D02*
D03*
Y2883D02*
D03*
X1506Y2882D02*
D03*
Y2972D02*
D03*
X238Y4302D02*
D03*
Y4212D02*
D03*
X116Y2975D02*
D03*
Y2885D02*
D03*
X219D02*
D03*
Y2975D02*
D03*
D124*
X937Y3973D02*
D03*
X1072D02*
D03*
X825Y3995D02*
D03*
X690D02*
D03*
X1088Y1486D02*
D03*
X1223D02*
D03*
X618Y1724D02*
D03*
X483D02*
D03*
X2265Y3142D02*
D03*
X2130D02*
D03*
X1546Y3137D02*
D03*
X1411D02*
D03*
X1080Y3015D02*
D03*
X1215D02*
D03*
X910Y3205D02*
D03*
X775D02*
D03*
X1220Y4527D02*
D03*
X1355D02*
D03*
X259Y3139D02*
D03*
X124D02*
D03*
X2019Y2181D02*
D03*
X2154D02*
D03*
X974Y3635D02*
D03*
X1109D02*
D03*
X862Y3874D02*
D03*
X997D02*
D03*
D125*
X1505Y2415D02*
D03*
Y2280D02*
D03*
X1895Y2395D02*
D03*
Y2260D02*
D03*
X1861Y3067D02*
D03*
Y2932D02*
D03*
X1275Y1304D02*
D03*
Y1169D02*
D03*
X1187Y319D02*
D03*
Y454D02*
D03*
X616Y453D02*
D03*
Y318D02*
D03*
X1274Y854D02*
D03*
Y719D02*
D03*
X2565Y3102D02*
D03*
Y2967D02*
D03*
X569Y3094D02*
D03*
Y2959D02*
D03*
X1223Y3704D02*
D03*
Y3839D02*
D03*
X798Y4411D02*
D03*
Y4276D02*
D03*
X1186D02*
D03*
Y4411D02*
D03*
X887Y2401D02*
D03*
Y2536D02*
D03*
X387D02*
D03*
Y2401D02*
D03*
D126*
X500Y1470D02*
D03*
Y1605D02*
D03*
X658Y1604D02*
D03*
Y1469D02*
D03*
X984Y719D02*
D03*
Y854D02*
D03*
X1139D02*
D03*
Y719D02*
D03*
X326Y318D02*
D03*
Y453D02*
D03*
X481D02*
D03*
Y318D02*
D03*
X897Y319D02*
D03*
Y454D02*
D03*
X1052D02*
D03*
Y319D02*
D03*
X985Y1169D02*
D03*
Y1304D02*
D03*
X1140D02*
D03*
Y1169D02*
D03*
X597Y2401D02*
D03*
Y2536D02*
D03*
X752D02*
D03*
Y2401D02*
D03*
X97D02*
D03*
Y2536D02*
D03*
X252D02*
D03*
Y2401D02*
D03*
D143*
X2196Y798D02*
D03*
X1725D02*
D03*
D147*
X2505Y74D02*
D03*
Y274D02*
D03*
X2305D02*
D03*
Y74D02*
D03*
X1755D02*
D03*
Y274D02*
D03*
X1555D02*
D03*
Y74D02*
D03*
X592Y4780D02*
D03*
Y4980D02*
D03*
X392D02*
D03*
Y4780D02*
D03*
X2092Y4782D02*
D03*
Y4982D02*
D03*
X1892D02*
D03*
Y4782D02*
D03*
X2842D02*
D03*
Y4982D02*
D03*
X2642D02*
D03*
Y4782D02*
D03*
X1342Y4780D02*
D03*
Y4980D02*
D03*
X1142D02*
D03*
Y4780D02*
D03*
D156*
X500Y4560D02*
D03*
Y4270D02*
D03*
D162*
X3852Y5041D02*
D03*
Y5381D02*
D03*
Y4056D02*
D03*
Y4396D02*
D03*
Y3072D02*
D03*
Y3412D02*
D03*
Y2088D02*
D03*
Y2428D02*
D03*
Y1104D02*
D03*
Y1444D02*
D03*
Y119D02*
D03*
Y459D02*
D03*
D165*
X314Y3967D02*
D03*
D169*
X1961Y1323D02*
D03*
D172*
X2029Y836D02*
D03*
D03*
D03*
D03*
D03*
D03*
D03*
D03*
X1559Y837D02*
D03*
D03*
D03*
D03*
D03*
D03*
D03*
D03*
D175*
X2053Y4022D02*
D03*
D177*
X300Y3855D02*
D03*
D179*
X1643Y2520D02*
D03*
D180*
X1648Y2447D02*
D03*
D189*
X2316Y4412D02*
D03*
D03*
D03*
X2316Y4412D02*
D03*
D03*
D03*
D03*
X2316Y4412D02*
D03*
D03*
D03*
X2316Y4412D02*
D03*
D03*
D03*
D03*
D03*
X2316Y4412D02*
D03*
D03*
X2316Y4412D02*
D03*
D03*
D03*
X2316Y4412D02*
D03*
D03*
D03*
D03*
X2183Y4544D02*
D03*
D03*
D03*
D03*
D03*
D03*
D03*
D03*
X1920Y4542D02*
D03*
D190*
X2439Y535D02*
D03*
D03*
D03*
D03*
D03*
D03*
D03*
D191*
X2380Y765D02*
D03*
D03*
D03*
D03*
D03*
D03*
D03*
D03*
D192*
X2378Y496D02*
D03*
X2191Y535D02*
D03*
Y496D02*
D03*
Y515D02*
D03*
X2378D02*
D03*
Y476D02*
D03*
Y535D02*
D03*
Y555D02*
D03*
X2191D02*
D03*
X1619D02*
D03*
X1806D02*
D03*
Y535D02*
D03*
Y476D02*
D03*
Y515D02*
D03*
X1619D02*
D03*
Y496D02*
D03*
Y535D02*
D03*
X1806Y496D02*
D03*
D193*
X2191Y476D02*
D03*
X1619D02*
D03*
D194*
X817Y1612D02*
D03*
D195*
X788Y1740D02*
D03*
D196*
X955Y1730D02*
D03*
M02*
