G04 Layer_Color=32896*
%FSLAX23Y23*%
%MOIN*%
G70*
G01*
G75*
D15*
X2243Y4397D02*
G03*
X2234Y4406I-5J5D01*
G01*
X2294Y454D02*
G03*
X2281Y454I-6J0D01*
G01*
X1722Y454D02*
G03*
X1709Y454I-6J0D01*
G01*
X634Y4274D02*
X663Y4303D01*
X614Y4254D02*
X634Y4274D01*
X663Y4303D02*
Y4579D01*
X576D02*
X663D01*
X576Y4254D02*
X614D01*
X386D02*
X424D01*
X337Y4579D02*
X424D01*
X337Y4303D02*
Y4579D01*
X366Y4274D02*
X386Y4254D01*
X337Y4303D02*
X366Y4274D01*
X3765Y1596D02*
X3810D01*
X3765Y1543D02*
X3810D01*
X3685D02*
X3735D01*
X3685Y1596D02*
X3735D01*
X3810Y1543D02*
Y1596D01*
X3685Y1543D02*
Y1596D01*
X3765Y1986D02*
X3810D01*
X3765Y1933D02*
X3810D01*
X3685D02*
X3735D01*
X3685Y1986D02*
X3735D01*
X3810Y1933D02*
Y1986D01*
X3685Y1933D02*
Y1986D01*
X316Y4490D02*
Y4535D01*
X263Y4490D02*
Y4535D01*
Y4565D02*
Y4615D01*
X316Y4565D02*
Y4615D01*
X263Y4490D02*
X316D01*
X263Y4615D02*
X316D01*
X1668Y2190D02*
X1713D01*
X1668Y2137D02*
X1713D01*
X1588D02*
X1638D01*
X1588Y2190D02*
X1638D01*
X1713Y2137D02*
Y2190D01*
X1588Y2137D02*
Y2190D01*
X3165Y1986D02*
X3210D01*
X3165Y1933D02*
X3210D01*
X3085D02*
X3135D01*
X3085Y1986D02*
X3135D01*
X3210Y1933D02*
Y1986D01*
X3085Y1933D02*
Y1986D01*
X3165Y1596D02*
X3210D01*
X3165Y1543D02*
X3210D01*
X3085D02*
X3135D01*
X3085Y1596D02*
X3135D01*
X3210Y1543D02*
Y1596D01*
X3085Y1543D02*
Y1596D01*
X3465Y1986D02*
X3510D01*
X3465Y1933D02*
X3510D01*
X3385D02*
X3435D01*
X3385Y1986D02*
X3435D01*
X3510Y1933D02*
Y1986D01*
X3385Y1933D02*
Y1986D01*
X3465Y1596D02*
X3510D01*
X3465Y1543D02*
X3510D01*
X3385D02*
X3435D01*
X3385Y1596D02*
X3435D01*
X3510Y1543D02*
Y1596D01*
X3385Y1543D02*
Y1596D01*
X1277Y1701D02*
X1301D01*
X1266Y3295D02*
X1278Y3283D01*
X1290D01*
X1379Y3300D02*
X1386Y3293D01*
X1377Y3300D02*
X1379D01*
X1322Y3307D02*
X1340Y3289D01*
X1321Y3307D02*
X1322D01*
X1502Y2070D02*
Y2107D01*
X1430Y2101D02*
X1460Y2071D01*
X1456Y1681D02*
X1482Y1655D01*
X1456Y1681D02*
Y1682D01*
X1042Y4037D02*
Y4090D01*
X917Y4037D02*
Y4090D01*
X992Y4037D02*
X1042D01*
X992Y4090D02*
X1042D01*
X917D02*
X962D01*
X917Y4037D02*
X962D01*
X1768Y4238D02*
X1813D01*
X1768Y4185D02*
X1813D01*
X1688D02*
X1738D01*
X1688Y4238D02*
X1738D01*
X1813Y4185D02*
Y4238D01*
X1688Y4185D02*
Y4238D01*
X1776Y4080D02*
X1821D01*
X1776Y4027D02*
X1821D01*
X1696D02*
X1746D01*
X1696Y4080D02*
X1746D01*
X1821Y4027D02*
Y4080D01*
X1696Y4027D02*
Y4080D01*
X1992Y3859D02*
X2037D01*
X1992Y3912D02*
X2037D01*
X2067D02*
X2117D01*
X2067Y3859D02*
X2117D01*
X1992D02*
Y3912D01*
X2117Y3859D02*
Y3912D01*
X1849Y4197D02*
X1881Y4165D01*
X1886Y4234D02*
X1918Y4202D01*
X1939Y4181D02*
X1975Y4146D01*
X1902Y4144D02*
X1937Y4108D01*
X1849Y4197D02*
X1886Y4234D01*
X1937Y4108D02*
X1975Y4146D01*
X2159Y4105D02*
X2191Y4137D01*
X2122Y4142D02*
X2153Y4174D01*
X2175Y4195D02*
X2210Y4231D01*
X2212Y4158D02*
X2247Y4193D01*
X2122Y4142D02*
X2159Y4105D01*
X2210Y4231D02*
X2247Y4193D01*
X1890Y4066D02*
Y4111D01*
X1943Y4066D02*
Y4111D01*
Y3986D02*
Y4036D01*
X1890Y3986D02*
Y4036D01*
Y4111D02*
X1943D01*
X1890Y3986D02*
X1943D01*
X2163Y4066D02*
Y4111D01*
X2216Y4066D02*
Y4111D01*
Y3986D02*
Y4036D01*
X2163Y3986D02*
Y4036D01*
Y4111D02*
X2216D01*
X2163Y3986D02*
X2216D01*
X1464Y816D02*
Y861D01*
X1517Y816D02*
Y861D01*
Y736D02*
Y786D01*
X1464Y736D02*
Y786D01*
Y861D02*
X1517D01*
X1464Y736D02*
X1517D01*
X1514Y380D02*
X1559D01*
X1514Y433D02*
X1559D01*
X1589D02*
X1639D01*
X1589Y380D02*
X1639D01*
X1514D02*
Y433D01*
X1639Y380D02*
Y433D01*
X2273Y4539D02*
X2293Y4519D01*
X2356Y4456D02*
X2377Y4436D01*
X2187Y4453D02*
X2207Y4433D01*
X2271Y4369D02*
X2291Y4349D01*
X2243Y4397D02*
X2271Y4369D01*
X2207Y4433D02*
X2234Y4406D01*
X2293Y4519D02*
X2356Y4456D01*
X2243Y576D02*
X2332D01*
X2243Y454D02*
X2281D01*
X2294D02*
X2333D01*
X2361D01*
X2215D02*
X2243D01*
X2332Y576D02*
X2361D01*
X2215D02*
X2243D01*
X2052Y735D02*
Y780D01*
X1999Y735D02*
Y780D01*
Y810D02*
Y860D01*
X2052Y810D02*
Y860D01*
X1999Y735D02*
X2052D01*
X1999Y860D02*
X2052D01*
X1582Y736D02*
Y781D01*
X1529Y736D02*
Y781D01*
Y811D02*
Y861D01*
X1582Y811D02*
Y861D01*
X1529Y736D02*
X1582D01*
X1529Y861D02*
X1582D01*
X1926Y735D02*
Y780D01*
X1873Y735D02*
Y780D01*
Y810D02*
Y860D01*
X1926Y810D02*
Y860D01*
X1873Y735D02*
X1926D01*
X1873Y860D02*
X1926D01*
X1911Y522D02*
Y567D01*
X1858Y522D02*
Y567D01*
Y597D02*
Y647D01*
X1911Y597D02*
Y647D01*
X1858Y522D02*
X1911D01*
X1858Y647D02*
X1911D01*
X1846Y588D02*
Y633D01*
X1793Y588D02*
Y633D01*
Y663D02*
Y713D01*
X1846Y663D02*
Y713D01*
X1793Y588D02*
X1846D01*
X1793Y713D02*
X1846D01*
X1650Y380D02*
X1695D01*
X1650Y433D02*
X1695D01*
X1725D02*
X1775D01*
X1725Y380D02*
X1775D01*
X1650D02*
Y433D01*
X1775Y380D02*
Y433D01*
X1941Y712D02*
X1986D01*
X1941Y659D02*
X1986D01*
X1861D02*
X1911D01*
X1861Y712D02*
X1911D01*
X1986Y659D02*
Y712D01*
X1861Y659D02*
Y712D01*
X2469Y521D02*
Y566D01*
X2416Y521D02*
Y566D01*
Y596D02*
Y646D01*
X2469Y596D02*
Y646D01*
X2416Y521D02*
X2469D01*
X2416Y646D02*
X2469D01*
X2398Y587D02*
Y632D01*
X2345Y587D02*
Y632D01*
Y662D02*
Y712D01*
X2398Y662D02*
Y712D01*
X2345Y587D02*
X2398D01*
X2345Y712D02*
X2398D01*
X2302Y380D02*
X2347D01*
X2302Y433D02*
X2347D01*
X2377D02*
X2427D01*
X2377Y380D02*
X2427D01*
X2302D02*
Y433D01*
X2427Y380D02*
Y433D01*
X2491Y711D02*
X2536D01*
X2491Y658D02*
X2536D01*
X2411D02*
X2461D01*
X2411Y711D02*
X2461D01*
X2536Y658D02*
Y711D01*
X2411Y658D02*
Y711D01*
X2166Y380D02*
X2211D01*
X2166Y433D02*
X2211D01*
X2241D02*
X2291D01*
X2241Y380D02*
X2291D01*
X2166D02*
Y433D01*
X2291Y380D02*
Y433D01*
X2405Y735D02*
Y780D01*
X2352Y735D02*
Y780D01*
Y810D02*
Y860D01*
X2405Y810D02*
Y860D01*
X2352Y735D02*
X2405D01*
X2352Y860D02*
X2405D01*
X1936Y815D02*
Y860D01*
X1989Y815D02*
Y860D01*
Y735D02*
Y785D01*
X1936Y735D02*
Y785D01*
Y860D02*
X1989D01*
X1936Y735D02*
X1989D01*
X1714Y2200D02*
Y2253D01*
X1589Y2200D02*
Y2253D01*
X1664Y2200D02*
X1714D01*
X1664Y2253D02*
X1714D01*
X1589D02*
X1634D01*
X1589Y2200D02*
X1634D01*
X1589Y2264D02*
Y2317D01*
X1714Y2264D02*
Y2317D01*
X1589D02*
X1639D01*
X1589Y2264D02*
X1639D01*
X1669D02*
X1714D01*
X1669Y2317D02*
X1714D01*
X1324Y2209D02*
Y2262D01*
X1449Y2209D02*
Y2262D01*
X1324D02*
X1374D01*
X1324Y2209D02*
X1374D01*
X1404D02*
X1449D01*
X1404Y2262D02*
X1449D01*
X768Y1297D02*
Y1350D01*
X893Y1297D02*
Y1350D01*
X768D02*
X818D01*
X768Y1297D02*
X818D01*
X848D02*
X893D01*
X848Y1350D02*
X893D01*
X603Y1351D02*
Y1404D01*
X728Y1351D02*
Y1404D01*
X603D02*
X653D01*
X603Y1351D02*
X653D01*
X683D02*
X728D01*
X683Y1404D02*
X728D01*
X893Y1363D02*
Y1416D01*
X768Y1363D02*
Y1416D01*
X843Y1363D02*
X893D01*
X843Y1416D02*
X893D01*
X768D02*
X813D01*
X768Y1363D02*
X813D01*
X768Y1427D02*
Y1480D01*
X893Y1427D02*
Y1480D01*
X768D02*
X818D01*
X768Y1427D02*
X818D01*
X848D02*
X893D01*
X848Y1480D02*
X893D01*
X2140Y2769D02*
Y2822D01*
X2265Y2769D02*
Y2822D01*
X2140D02*
X2190D01*
X2140Y2769D02*
X2190D01*
X2220D02*
X2265D01*
X2220Y2822D02*
X2265D01*
X1551Y2769D02*
Y2822D01*
X1426Y2769D02*
Y2822D01*
X1501Y2769D02*
X1551D01*
X1501Y2822D02*
X1551D01*
X1426D02*
X1471D01*
X1426Y2769D02*
X1471D01*
X1586Y2720D02*
Y2773D01*
X1711Y2720D02*
Y2773D01*
X1586D02*
X1636D01*
X1586Y2720D02*
X1636D01*
X1666D02*
X1711D01*
X1666Y2773D02*
X1711D01*
X1586Y2840D02*
Y2893D01*
X1711Y2840D02*
Y2893D01*
X1586D02*
X1636D01*
X1586Y2840D02*
X1636D01*
X1666D02*
X1711D01*
X1666Y2893D02*
X1711D01*
Y2781D02*
Y2834D01*
X1586Y2781D02*
Y2834D01*
X1661Y2781D02*
X1711D01*
X1661Y2834D02*
X1711D01*
X1586D02*
X1631D01*
X1586Y2781D02*
X1631D01*
X1233Y2950D02*
X1286D01*
X1233Y2825D02*
X1286D01*
Y2900D02*
Y2950D01*
X1233Y2900D02*
Y2950D01*
Y2825D02*
Y2870D01*
X1286Y2825D02*
Y2870D01*
X1206Y1050D02*
Y1103D01*
X1081Y1050D02*
Y1103D01*
X1156Y1050D02*
X1206D01*
X1156Y1103D02*
X1206D01*
X1081D02*
X1126D01*
X1081Y1050D02*
X1126D01*
X703Y3140D02*
X756D01*
X703Y3015D02*
X756D01*
Y3090D02*
Y3140D01*
X703Y3090D02*
Y3140D01*
Y3015D02*
Y3060D01*
X756Y3015D02*
Y3060D01*
X1114Y200D02*
Y253D01*
X989Y200D02*
Y253D01*
X1064Y200D02*
X1114D01*
X1064Y253D02*
X1114D01*
X989D02*
X1034D01*
X989Y200D02*
X1034D01*
X543Y199D02*
Y252D01*
X418Y199D02*
Y252D01*
X493Y199D02*
X543D01*
X493Y252D02*
X543D01*
X418D02*
X463D01*
X418Y199D02*
X463D01*
X1201Y600D02*
Y653D01*
X1076Y600D02*
Y653D01*
X1151Y600D02*
X1201D01*
X1151Y653D02*
X1201D01*
X1076D02*
X1121D01*
X1076Y600D02*
X1121D01*
X2425Y2781D02*
Y2834D01*
X2300Y2781D02*
Y2834D01*
X2375Y2781D02*
X2425D01*
X2375Y2834D02*
X2425D01*
X2300D02*
X2345D01*
X2300Y2781D02*
X2345D01*
X2300Y2840D02*
Y2893D01*
X2425Y2840D02*
Y2893D01*
X2300D02*
X2350D01*
X2300Y2840D02*
X2350D01*
X2380D02*
X2425D01*
X2380Y2893D02*
X2425D01*
X2300Y2720D02*
Y2773D01*
X2425Y2720D02*
Y2773D01*
X2300D02*
X2350D01*
X2300Y2720D02*
X2350D01*
X2380D02*
X2425D01*
X2380Y2773D02*
X2425D01*
X1862Y4579D02*
X1900Y4542D01*
X1951Y4668D02*
X1988Y4630D01*
X1862Y4579D02*
X1898Y4615D01*
X1900Y4542D02*
X1935Y4577D01*
X1956Y4598D02*
X1988Y4630D01*
X1919Y4636D02*
X1951Y4668D01*
X1736Y4442D02*
X1774Y4405D01*
X1825Y4531D02*
X1862Y4493D01*
X1736Y4442D02*
X1772Y4478D01*
X1774Y4405D02*
X1809Y4440D01*
X1830Y4461D02*
X1862Y4493D01*
X1793Y4499D02*
X1825Y4531D01*
X279Y2842D02*
Y2895D01*
X404Y2842D02*
Y2895D01*
X279D02*
X329D01*
X279Y2842D02*
X329D01*
X359D02*
X404D01*
X359Y2895D02*
X404D01*
X139Y2771D02*
Y2824D01*
X264Y2771D02*
Y2824D01*
X139D02*
X189D01*
X139Y2771D02*
X189D01*
X219D02*
X264D01*
X219Y2824D02*
X264D01*
X279Y2712D02*
Y2765D01*
X404Y2712D02*
Y2765D01*
X279D02*
X329D01*
X279Y2712D02*
X329D01*
X359D02*
X404D01*
X359Y2765D02*
X404D01*
Y2778D02*
Y2831D01*
X279Y2778D02*
Y2831D01*
X354Y2778D02*
X404D01*
X354Y2831D02*
X404D01*
X279D02*
X324D01*
X279Y2778D02*
X324D01*
X1674Y1122D02*
X1712Y1084D01*
X1763Y1210D02*
X1800Y1173D01*
X1674Y1122D02*
X1710Y1157D01*
X1712Y1084D02*
X1747Y1120D01*
X1768Y1141D02*
X1800Y1173D01*
X1731Y1179D02*
X1763Y1210D01*
X2211Y1090D02*
X2248Y1127D01*
X2122Y1178D02*
X2160Y1215D01*
X2175Y1125D02*
X2211Y1090D01*
X2213Y1162D02*
X2248Y1127D01*
X2160Y1215D02*
X2191Y1184D01*
X2122Y1178D02*
X2154Y1146D01*
X1643Y576D02*
X1671D01*
X1760D02*
X1789D01*
X1643Y454D02*
X1671D01*
X1761D02*
X1789D01*
X1722D02*
X1761D01*
X1671D02*
X1709D01*
X1671Y576D02*
X1760D01*
X876Y3818D02*
X929D01*
X876Y3693D02*
X929D01*
Y3768D02*
Y3818D01*
X876Y3768D02*
Y3818D01*
Y3693D02*
Y3738D01*
X929Y3693D02*
Y3738D01*
X1111Y3693D02*
X1164D01*
X1111Y3818D02*
X1164D01*
X1111Y3693D02*
Y3743D01*
X1164Y3693D02*
Y3743D01*
Y3773D02*
Y3818D01*
X1111Y3773D02*
Y3818D01*
X2040Y2458D02*
Y2511D01*
X2165Y2458D02*
Y2511D01*
X2040D02*
X2090D01*
X2040Y2458D02*
X2090D01*
X2120D02*
X2165D01*
X2120Y2511D02*
X2165D01*
X654Y4118D02*
Y4171D01*
X779Y4118D02*
Y4171D01*
X654D02*
X704D01*
X654Y4118D02*
X704D01*
X734D02*
X779D01*
X734Y4171D02*
X779D01*
X843Y4620D02*
X896D01*
X843Y4495D02*
X896D01*
Y4570D02*
Y4620D01*
X843Y4570D02*
Y4620D01*
Y4495D02*
Y4540D01*
X896Y4495D02*
Y4540D01*
X969Y4568D02*
Y4621D01*
X1094Y4568D02*
Y4621D01*
X969D02*
X1019D01*
X969Y4568D02*
X1019D01*
X1049D02*
X1094D01*
X1049Y4621D02*
X1094D01*
X1069Y4416D02*
X1122D01*
X1069Y4291D02*
X1122D01*
Y4366D02*
Y4416D01*
X1069Y4366D02*
Y4416D01*
Y4291D02*
Y4336D01*
X1122Y4291D02*
Y4336D01*
X860Y4351D02*
X913D01*
X860Y4226D02*
X913D01*
Y4301D02*
Y4351D01*
X860Y4301D02*
Y4351D01*
Y4226D02*
Y4271D01*
X913Y4226D02*
Y4271D01*
X704Y4054D02*
Y4107D01*
X829Y4054D02*
Y4107D01*
X704D02*
X754D01*
X704Y4054D02*
X754D01*
X784D02*
X829D01*
X784Y4107D02*
X829D01*
X1088Y3764D02*
Y3817D01*
X963Y3764D02*
Y3817D01*
X1038Y3764D02*
X1088D01*
X1038Y3817D02*
X1088D01*
X963D02*
X1008D01*
X963Y3764D02*
X1008D01*
X2665Y4217D02*
X2702Y4254D01*
X2577Y4305D02*
X2614Y4343D01*
X2630Y4252D02*
X2665Y4217D01*
X2667Y4290D02*
X2702Y4254D01*
X2614Y4343D02*
X2646Y4311D01*
X2577Y4305D02*
X2608Y4274D01*
X2613Y4167D02*
X2650Y4204D01*
X2524Y4255D02*
X2562Y4293D01*
X2577Y4202D02*
X2613Y4167D01*
X2615Y4240D02*
X2650Y4204D01*
X2562Y4293D02*
X2594Y4261D01*
X2524Y4255D02*
X2556Y4223D01*
X1430Y480D02*
Y533D01*
X1555Y480D02*
Y533D01*
X1430D02*
X1480D01*
X1430Y480D02*
X1480D01*
X1510D02*
X1555D01*
X1510Y533D02*
X1555D01*
X2000Y458D02*
Y511D01*
X1875Y458D02*
Y511D01*
X1950Y458D02*
X2000D01*
X1950Y511D02*
X2000D01*
X1875D02*
X1920D01*
X1875Y458D02*
X1920D01*
X2005Y501D02*
Y554D01*
X2130Y501D02*
Y554D01*
X2005D02*
X2055D01*
X2005Y501D02*
X2055D01*
X2085D02*
X2130D01*
X2085Y554D02*
X2130D01*
X2575Y464D02*
Y517D01*
X2450Y464D02*
Y517D01*
X2525Y464D02*
X2575D01*
X2525Y517D02*
X2575D01*
X2450D02*
X2495D01*
X2450Y464D02*
X2495D01*
X817Y2276D02*
Y2329D01*
X692Y2276D02*
Y2329D01*
X767Y2276D02*
X817D01*
X767Y2329D02*
X817D01*
X692D02*
X737D01*
X692Y2276D02*
X737D01*
X314Y2280D02*
Y2333D01*
X189Y2280D02*
Y2333D01*
X264Y2280D02*
X314D01*
X264Y2333D02*
X314D01*
X189D02*
X234D01*
X189Y2280D02*
X234D01*
X1525Y2045D02*
X1535Y2055D01*
X1525Y2035D02*
Y2045D01*
X1665Y2065D02*
X1675D01*
X1685Y2055D01*
Y2050D02*
Y2055D01*
X2020Y2060D02*
Y2090D01*
X1046Y1581D02*
X1070Y1570D01*
X407Y2643D02*
X437Y2673D01*
X1299Y1406D02*
X1364D01*
X1299Y955D02*
X1364D01*
X3910Y1550D02*
Y1590D01*
X3890D01*
X3883Y1583D01*
Y1570D01*
X3890Y1563D01*
X3910D01*
X3897D02*
X3883Y1550D01*
X3870Y1590D02*
X3843D01*
Y1583D01*
X3870Y1557D01*
Y1550D01*
X3830D02*
X3817D01*
X3823D01*
Y1590D01*
X3830Y1583D01*
X3930Y1940D02*
Y1980D01*
X3910D01*
X3903Y1973D01*
Y1960D01*
X3910Y1953D01*
X3930D01*
X3917D02*
X3903Y1940D01*
X3890Y1980D02*
X3863D01*
Y1973D01*
X3890Y1947D01*
Y1940D01*
X3850Y1973D02*
X3843Y1980D01*
X3830D01*
X3823Y1973D01*
Y1947D01*
X3830Y1940D01*
X3843D01*
X3850Y1947D01*
Y1973D01*
X207Y4593D02*
X200Y4600D01*
Y4613D01*
X207Y4620D01*
X233D01*
X240Y4613D01*
Y4600D01*
X233Y4593D01*
X240Y4580D02*
Y4567D01*
Y4573D01*
X200D01*
X207Y4580D01*
X240Y4520D02*
Y4547D01*
X213Y4520D01*
X207D01*
X200Y4527D01*
Y4540D01*
X207Y4547D01*
X200Y4507D02*
Y4480D01*
X207D01*
X233Y4507D01*
X240D01*
X1828Y2142D02*
Y2182D01*
X1808D01*
X1801Y2176D01*
Y2162D01*
X1808Y2156D01*
X1828D01*
X1815D02*
X1801Y2142D01*
X1768D02*
Y2182D01*
X1788Y2162D01*
X1761D01*
X1721Y2182D02*
X1735Y2176D01*
X1748Y2162D01*
Y2149D01*
X1741Y2142D01*
X1728D01*
X1721Y2149D01*
Y2156D01*
X1728Y2162D01*
X1748D01*
X3511Y1492D02*
Y1532D01*
X3491D01*
X3484Y1525D01*
Y1512D01*
X3491Y1505D01*
X3511D01*
X3497D02*
X3484Y1492D01*
X3444Y1532D02*
X3457Y1525D01*
X3471Y1512D01*
Y1499D01*
X3464Y1492D01*
X3451D01*
X3444Y1499D01*
Y1505D01*
X3451Y1512D01*
X3471D01*
X3431Y1492D02*
X3417D01*
X3424D01*
Y1532D01*
X3431Y1525D01*
X3506Y1997D02*
Y2037D01*
X3486D01*
X3479Y2030D01*
Y2017D01*
X3486Y2010D01*
X3506D01*
X3492D02*
X3479Y1997D01*
X3439Y2037D02*
X3452Y2030D01*
X3466Y2017D01*
Y2004D01*
X3459Y1997D01*
X3446D01*
X3439Y2004D01*
Y2010D01*
X3446Y2017D01*
X3466D01*
X3426Y2030D02*
X3419Y2037D01*
X3406D01*
X3399Y2030D01*
Y2004D01*
X3406Y1997D01*
X3419D01*
X3426Y2004D01*
Y2030D01*
X3211Y1492D02*
Y1532D01*
X3191D01*
X3184Y1525D01*
Y1512D01*
X3191Y1505D01*
X3211D01*
X3197D02*
X3184Y1492D01*
X3144Y1532D02*
X3171D01*
Y1512D01*
X3157Y1519D01*
X3151D01*
X3144Y1512D01*
Y1499D01*
X3151Y1492D01*
X3164D01*
X3171Y1499D01*
X3131D02*
X3124Y1492D01*
X3111D01*
X3104Y1499D01*
Y1525D01*
X3111Y1532D01*
X3124D01*
X3131Y1525D01*
Y1519D01*
X3124Y1512D01*
X3104D01*
X3211Y1997D02*
Y2037D01*
X3191D01*
X3184Y2030D01*
Y2017D01*
X3191Y2010D01*
X3211D01*
X3197D02*
X3184Y1997D01*
X3144Y2037D02*
X3171D01*
Y2017D01*
X3157Y2024D01*
X3151D01*
X3144Y2017D01*
Y2004D01*
X3151Y1997D01*
X3164D01*
X3171Y2004D01*
X3131Y2030D02*
X3124Y2037D01*
X3111D01*
X3104Y2030D01*
Y2024D01*
X3111Y2017D01*
X3104Y2010D01*
Y2004D01*
X3111Y1997D01*
X3124D01*
X3131Y2004D01*
Y2010D01*
X3124Y2017D01*
X3131Y2024D01*
Y2030D01*
X3124Y2017D02*
X3111D01*
X1655Y4061D02*
X1662Y4067D01*
X1675D01*
X1682Y4061D01*
Y4034D01*
X1675Y4027D01*
X1662D01*
X1655Y4034D01*
X1642Y4061D02*
X1635Y4067D01*
X1622D01*
X1615Y4061D01*
Y4054D01*
X1622Y4047D01*
X1615Y4041D01*
Y4034D01*
X1622Y4027D01*
X1635D01*
X1642Y4034D01*
Y4041D01*
X1635Y4047D01*
X1642Y4054D01*
Y4061D01*
X1635Y4047D02*
X1622D01*
X1575Y4027D02*
X1602D01*
X1575Y4054D01*
Y4061D01*
X1582Y4067D01*
X1595D01*
X1602Y4061D01*
X1647Y4219D02*
X1654Y4225D01*
X1667D01*
X1674Y4219D01*
Y4192D01*
X1667Y4185D01*
X1654D01*
X1647Y4192D01*
X1634Y4219D02*
X1627Y4225D01*
X1614D01*
X1607Y4219D01*
Y4212D01*
X1614Y4205D01*
X1607Y4199D01*
Y4192D01*
X1614Y4185D01*
X1627D01*
X1634Y4192D01*
Y4199D01*
X1627Y4205D01*
X1634Y4212D01*
Y4219D01*
X1627Y4205D02*
X1614D01*
X1594Y4185D02*
X1581D01*
X1587D01*
Y4225D01*
X1594Y4219D01*
X2177Y3944D02*
X2171Y3951D01*
Y3964D01*
X2177Y3971D01*
X2204D01*
X2211Y3964D01*
Y3951D01*
X2204Y3944D01*
X2177Y3931D02*
X2171Y3924D01*
Y3911D01*
X2177Y3904D01*
X2184D01*
X2191Y3911D01*
X2197Y3904D01*
X2204D01*
X2211Y3911D01*
Y3924D01*
X2204Y3931D01*
X2197D01*
X2191Y3924D01*
X2184Y3931D01*
X2177D01*
X2191Y3924D02*
Y3911D01*
X2177Y3891D02*
X2171Y3884D01*
Y3871D01*
X2177Y3864D01*
X2204D01*
X2211Y3871D01*
Y3884D01*
X2204Y3891D01*
X2177D01*
X1899Y3944D02*
X1892Y3951D01*
Y3964D01*
X1899Y3971D01*
X1926D01*
X1932Y3964D01*
Y3951D01*
X1926Y3944D01*
X1892Y3931D02*
Y3904D01*
X1899D01*
X1926Y3931D01*
X1932D01*
X1926Y3891D02*
X1932Y3884D01*
Y3871D01*
X1926Y3864D01*
X1899D01*
X1892Y3871D01*
Y3884D01*
X1899Y3891D01*
X1906D01*
X1912Y3884D01*
Y3864D01*
X1989Y4235D02*
X1998D01*
X2008Y4226D01*
Y4217D01*
X1989Y4198D01*
X1979D01*
X1970Y4207D01*
Y4217D01*
X1984Y4250D02*
X1965Y4268D01*
X1961Y4264D01*
Y4226D01*
X1956Y4221D01*
X1951Y4273D02*
Y4283D01*
X1942Y4292D01*
X1932D01*
X1928Y4287D01*
Y4278D01*
X1918D01*
X1913Y4273D01*
Y4264D01*
X1923Y4254D01*
X1932D01*
X1937Y4259D01*
Y4268D01*
X1946D01*
X1951Y4273D01*
X1937Y4268D02*
X1928Y4278D01*
X2082Y3833D02*
X2089Y3839D01*
X2102D01*
X2109Y3833D01*
Y3806D01*
X2102Y3799D01*
X2089D01*
X2082Y3806D01*
X2069Y3839D02*
X2042D01*
Y3833D01*
X2069Y3806D01*
Y3799D01*
X2029Y3839D02*
X2002D01*
Y3833D01*
X2029Y3806D01*
Y3799D01*
X2160Y4250D02*
Y4259D01*
X2169Y4269D01*
X2179D01*
X2198Y4250D01*
Y4241D01*
X2188Y4231D01*
X2179D01*
X2146Y4245D02*
X2127Y4226D01*
X2132Y4222D01*
X2169D01*
X2174Y4217D01*
X2099Y4198D02*
X2113Y4203D01*
X2132Y4203D01*
X2141Y4193D01*
Y4184D01*
X2132Y4175D01*
X2122D01*
X2118Y4179D01*
Y4189D01*
X2132Y4203D01*
X1757Y4534D02*
Y4543D01*
X1767Y4553D01*
X1776D01*
X1795Y4534D01*
Y4525D01*
X1785Y4515D01*
X1776D01*
X1757Y4487D02*
X1729Y4515D01*
X1757Y4515D01*
X1738Y4496D01*
X1696Y4482D02*
X1715Y4501D01*
X1729Y4487D01*
X1715Y4482D01*
X1710Y4477D01*
Y4468D01*
X1719Y4459D01*
X1729D01*
X1738Y4468D01*
Y4477D01*
X1888Y4669D02*
Y4679D01*
X1897Y4688D01*
X1906D01*
X1925Y4669D01*
Y4660D01*
X1916Y4651D01*
X1906D01*
X1888Y4622D02*
X1859Y4651D01*
X1888Y4651D01*
X1869Y4632D01*
X1859Y4594D02*
X1831Y4622D01*
X1859Y4622D01*
X1840Y4603D01*
X2162Y672D02*
Y705D01*
X2168Y712D01*
X2182D01*
X2188Y705D01*
Y672D01*
X2228D02*
X2202D01*
Y692D01*
X2215Y685D01*
X2222D01*
X2228Y692D01*
Y705D01*
X2222Y712D01*
X2208D01*
X2202Y705D01*
X2106Y732D02*
X2066D01*
Y712D01*
X2073Y705D01*
X2086D01*
X2093Y712D01*
Y732D01*
Y719D02*
X2106Y705D01*
Y665D02*
Y692D01*
X2080Y665D01*
X2073D01*
X2066Y672D01*
Y685D01*
X2073Y692D01*
Y652D02*
X2066Y645D01*
Y632D01*
X2073Y625D01*
X2100D01*
X2106Y632D01*
Y645D01*
X2100Y652D01*
X2073D01*
X2153Y395D02*
Y435D01*
X2133D01*
X2126Y428D01*
Y415D01*
X2133Y408D01*
X2153D01*
X2139D02*
X2126Y395D01*
X2113D02*
X2099D01*
X2106D01*
Y435D01*
X2113Y428D01*
X2080Y401D02*
X2073Y395D01*
X2060D01*
X2053Y401D01*
Y428D01*
X2060Y435D01*
X2073D01*
X2080Y428D01*
Y421D01*
X2073Y415D01*
X2053D01*
X2034Y726D02*
X1994D01*
Y706D01*
X2001Y699D01*
X2014D01*
X2021Y706D01*
Y726D01*
Y712D02*
X2034Y699D01*
Y686D02*
Y672D01*
Y679D01*
X1994D01*
X2001Y686D01*
X1994Y652D02*
Y626D01*
X2001D01*
X2027Y652D01*
X2034D01*
X2649Y662D02*
Y702D01*
X2629D01*
X2622Y696D01*
Y682D01*
X2629Y676D01*
X2649D01*
X2636D02*
X2622Y662D01*
X2609D02*
X2596D01*
X2602D01*
Y702D01*
X2609Y696D01*
X2549Y702D02*
X2562Y696D01*
X2576Y682D01*
Y669D01*
X2569Y662D01*
X2556D01*
X2549Y669D01*
Y676D01*
X2556Y682D01*
X2576D01*
X2538Y392D02*
Y432D01*
X2518D01*
X2511Y425D01*
Y412D01*
X2518Y405D01*
X2538D01*
X2524D02*
X2511Y392D01*
X2498D02*
X2484D01*
X2491D01*
Y432D01*
X2498Y425D01*
X2438Y432D02*
X2464D01*
Y412D01*
X2451Y418D01*
X2444D01*
X2438Y412D01*
Y398D01*
X2444Y392D01*
X2458D01*
X2464Y398D01*
X2334Y703D02*
X2294D01*
Y683D01*
X2300Y676D01*
X2314D01*
X2320Y683D01*
Y703D01*
Y689D02*
X2334Y676D01*
Y663D02*
Y649D01*
Y656D01*
X2294D01*
X2300Y663D01*
Y629D02*
X2294Y623D01*
Y609D01*
X2300Y603D01*
X2307D01*
X2314Y609D01*
Y616D01*
Y609D01*
X2320Y603D01*
X2327D01*
X2334Y609D01*
Y623D01*
X2327Y629D01*
X2525Y633D02*
X2485D01*
Y613D01*
X2492Y606D01*
X2505D01*
X2512Y613D01*
Y633D01*
Y620D02*
X2525Y606D01*
Y593D02*
Y580D01*
Y586D01*
X2485D01*
X2492Y593D01*
X2525Y533D02*
Y560D01*
X2499Y533D01*
X2492D01*
X2485Y540D01*
Y553D01*
X2492Y560D01*
X2420Y742D02*
X2459D01*
Y761D01*
X2453Y768D01*
X2439D01*
X2433Y761D01*
Y742D01*
Y755D02*
X2420Y768D01*
Y781D02*
Y795D01*
Y788D01*
X2459D01*
X2453Y781D01*
X2420Y815D02*
Y828D01*
Y821D01*
X2459D01*
X2453Y815D01*
X1582Y975D02*
X1542D01*
Y955D01*
X1549Y949D01*
X1562D01*
X1569Y955D01*
Y975D01*
Y962D02*
X1582Y949D01*
Y935D02*
Y922D01*
Y929D01*
X1542D01*
X1549Y935D01*
Y902D02*
X1542Y895D01*
Y882D01*
X1549Y875D01*
X1576D01*
X1582Y882D01*
Y895D01*
X1576Y902D01*
X1549D01*
X1502Y394D02*
Y434D01*
X1482D01*
X1475Y428D01*
Y414D01*
X1482Y408D01*
X1502D01*
X1488D02*
X1475Y394D01*
X1462Y401D02*
X1455Y394D01*
X1442D01*
X1435Y401D01*
Y428D01*
X1442Y434D01*
X1455D01*
X1462Y428D01*
Y421D01*
X1455Y414D01*
X1435D01*
X1452Y887D02*
X1413D01*
Y867D01*
X1419Y860D01*
X1433D01*
X1439Y867D01*
Y887D01*
Y873D02*
X1452Y860D01*
X1413Y847D02*
Y820D01*
X1419D01*
X1446Y847D01*
X1452D01*
X1985Y607D02*
Y646D01*
X1965D01*
X1958Y640D01*
Y626D01*
X1965Y620D01*
X1985D01*
X1971D02*
X1958Y607D01*
X1918Y646D02*
X1931Y640D01*
X1945Y626D01*
Y613D01*
X1938Y607D01*
X1925D01*
X1918Y613D01*
Y620D01*
X1925Y626D01*
X1945D01*
X1855Y384D02*
Y424D01*
X1835D01*
X1828Y418D01*
Y404D01*
X1835Y398D01*
X1855D01*
X1841D02*
X1828Y384D01*
X1788Y424D02*
X1815D01*
Y404D01*
X1801Y411D01*
X1795D01*
X1788Y404D01*
Y391D01*
X1795Y384D01*
X1808D01*
X1815Y391D01*
X1785Y655D02*
X1745D01*
Y636D01*
X1751Y629D01*
X1765D01*
X1771Y636D01*
Y655D01*
Y642D02*
X1785Y629D01*
X1751Y616D02*
X1745Y609D01*
Y596D01*
X1751Y589D01*
X1758D01*
X1765Y596D01*
Y602D01*
Y596D01*
X1771Y589D01*
X1778D01*
X1785Y596D01*
Y609D01*
X1778Y616D01*
X1959Y592D02*
X1920D01*
Y573D01*
X1926Y566D01*
X1940D01*
X1946Y573D01*
Y592D01*
Y579D02*
X1959Y566D01*
Y526D02*
Y553D01*
X1933Y526D01*
X1926D01*
X1920Y533D01*
Y546D01*
X1926Y553D01*
X1904Y921D02*
X1864D01*
Y901D01*
X1870Y894D01*
X1884D01*
X1890Y901D01*
Y921D01*
Y908D02*
X1904Y894D01*
Y881D02*
Y868D01*
Y874D01*
X1864D01*
X1870Y881D01*
X1687Y672D02*
Y705D01*
X1694Y712D01*
X1707D01*
X1714Y705D01*
Y672D01*
X1727Y679D02*
X1734Y672D01*
X1747D01*
X1754Y679D01*
Y685D01*
X1747Y692D01*
X1741D01*
X1747D01*
X1754Y699D01*
Y705D01*
X1747Y712D01*
X1734D01*
X1727Y705D01*
X2149Y584D02*
Y618D01*
X2156Y624D01*
X2169D01*
X2176Y618D01*
Y584D01*
X2209Y624D02*
Y584D01*
X2189Y604D01*
X2216D01*
X1064Y4671D02*
X1070Y4678D01*
X1084D01*
X1090Y4671D01*
Y4645D01*
X1084Y4638D01*
X1070D01*
X1064Y4645D01*
X1051Y4638D02*
X1037D01*
X1044D01*
Y4678D01*
X1051Y4671D01*
X1017Y4645D02*
X1011Y4638D01*
X997D01*
X991Y4645D01*
Y4671D01*
X997Y4678D01*
X1011D01*
X1017Y4671D01*
Y4665D01*
X1011Y4658D01*
X991D01*
X1152Y4072D02*
X1158Y4079D01*
X1172D01*
X1178Y4072D01*
Y4046D01*
X1172Y4039D01*
X1158D01*
X1152Y4046D01*
X1112Y4039D02*
X1139D01*
X1112Y4066D01*
Y4072D01*
X1119Y4079D01*
X1132D01*
X1139Y4072D01*
X1099D02*
X1092Y4079D01*
X1079D01*
X1072Y4072D01*
Y4046D01*
X1079Y4039D01*
X1092D01*
X1099Y4046D01*
Y4072D01*
X710Y3925D02*
X716Y3932D01*
X730D01*
X736Y3925D01*
Y3899D01*
X730Y3892D01*
X716D01*
X710Y3899D01*
X670Y3892D02*
X697D01*
X670Y3919D01*
Y3925D01*
X677Y3932D01*
X690D01*
X697Y3925D01*
X657Y3892D02*
X643D01*
X650D01*
Y3932D01*
X657Y3925D01*
X901Y4149D02*
X907Y4156D01*
X921D01*
X927Y4149D01*
Y4123D01*
X921Y4116D01*
X907D01*
X901Y4123D01*
X861Y4116D02*
X888D01*
X861Y4143D01*
Y4149D01*
X868Y4156D01*
X881D01*
X888Y4149D01*
X821Y4116D02*
X848D01*
X821Y4143D01*
Y4149D01*
X828Y4156D01*
X841D01*
X848Y4149D01*
X1047Y4137D02*
X1053Y4144D01*
X1067D01*
X1073Y4137D01*
Y4111D01*
X1067Y4104D01*
X1053D01*
X1047Y4111D01*
X1007Y4104D02*
X1034D01*
X1007Y4131D01*
Y4137D01*
X1014Y4144D01*
X1027D01*
X1034Y4137D01*
X994D02*
X987Y4144D01*
X974D01*
X967Y4137D01*
Y4131D01*
X974Y4124D01*
X980D01*
X974D01*
X967Y4117D01*
Y4111D01*
X974Y4104D01*
X987D01*
X994Y4111D01*
X410Y4233D02*
X417Y4240D01*
X430D01*
X437Y4233D01*
Y4207D01*
X430Y4200D01*
X417D01*
X410Y4207D01*
X370Y4200D02*
X397D01*
X370Y4227D01*
Y4233D01*
X377Y4240D01*
X390D01*
X397Y4233D01*
X330Y4240D02*
X344Y4233D01*
X357Y4220D01*
Y4207D01*
X350Y4200D01*
X337D01*
X330Y4207D01*
Y4213D01*
X337Y4220D01*
X357D01*
X135Y4326D02*
X128Y4333D01*
Y4346D01*
X135Y4353D01*
X161D01*
X168Y4346D01*
Y4333D01*
X161Y4326D01*
X168Y4286D02*
Y4313D01*
X141Y4286D01*
X135D01*
X128Y4293D01*
Y4306D01*
X135Y4313D01*
X128Y4273D02*
Y4246D01*
X135D01*
X161Y4273D01*
X168D01*
X1052Y3745D02*
X1058Y3752D01*
X1072D01*
X1078Y3745D01*
Y3719D01*
X1072Y3712D01*
X1058D01*
X1052Y3719D01*
X1012Y3712D02*
X1039D01*
X1012Y3739D01*
Y3745D01*
X1019Y3752D01*
X1032D01*
X1039Y3745D01*
X999D02*
X992Y3752D01*
X979D01*
X972Y3745D01*
Y3739D01*
X979Y3732D01*
X972Y3725D01*
Y3719D01*
X979Y3712D01*
X992D01*
X999Y3719D01*
Y3725D01*
X992Y3732D01*
X999Y3739D01*
Y3745D01*
X992Y3732D02*
X979D01*
X719Y3813D02*
X712Y3806D01*
X699D01*
X692Y3813D01*
Y3839D01*
X699Y3846D01*
X712D01*
X719Y3839D01*
X732Y3813D02*
X739Y3806D01*
X752D01*
X759Y3813D01*
Y3819D01*
X752Y3826D01*
X745D01*
X752D01*
X759Y3833D01*
Y3839D01*
X752Y3846D01*
X739D01*
X732Y3839D01*
X772Y3813D02*
X779Y3806D01*
X792D01*
X799Y3813D01*
Y3839D01*
X792Y3846D01*
X779D01*
X772Y3839D01*
Y3813D01*
X1122Y3561D02*
X1128Y3568D01*
X1142D01*
X1148Y3561D01*
Y3535D01*
X1142Y3528D01*
X1128D01*
X1122Y3535D01*
X1109Y3561D02*
X1102Y3568D01*
X1089D01*
X1082Y3561D01*
Y3555D01*
X1089Y3548D01*
X1095D01*
X1089D01*
X1082Y3541D01*
Y3535D01*
X1089Y3528D01*
X1102D01*
X1109Y3535D01*
X1069Y3528D02*
X1055D01*
X1062D01*
Y3568D01*
X1069Y3561D01*
X1321Y3675D02*
X1328Y3668D01*
Y3655D01*
X1321Y3648D01*
X1295D01*
X1288Y3655D01*
Y3668D01*
X1295Y3675D01*
X1321Y3688D02*
X1328Y3695D01*
Y3708D01*
X1321Y3715D01*
X1315D01*
X1308Y3708D01*
Y3701D01*
Y3708D01*
X1301Y3715D01*
X1295D01*
X1288Y3708D01*
Y3695D01*
X1295Y3688D01*
X1288Y3755D02*
Y3728D01*
X1315Y3755D01*
X1321D01*
X1328Y3748D01*
Y3735D01*
X1321Y3728D01*
X1130Y3908D02*
X1123Y3914D01*
Y3928D01*
X1130Y3934D01*
X1156D01*
X1163Y3928D01*
Y3914D01*
X1156Y3908D01*
X1130Y3895D02*
X1123Y3888D01*
Y3875D01*
X1130Y3868D01*
X1136D01*
X1143Y3875D01*
Y3881D01*
Y3875D01*
X1150Y3868D01*
X1156D01*
X1163Y3875D01*
Y3888D01*
X1156Y3895D01*
X1130Y3855D02*
X1123Y3848D01*
Y3835D01*
X1130Y3828D01*
X1136D01*
X1143Y3835D01*
Y3841D01*
Y3835D01*
X1150Y3828D01*
X1156D01*
X1163Y3835D01*
Y3848D01*
X1156Y3855D01*
X817Y3779D02*
X810Y3785D01*
Y3799D01*
X817Y3805D01*
X843D01*
X850Y3799D01*
Y3785D01*
X843Y3779D01*
X817Y3766D02*
X810Y3759D01*
Y3746D01*
X817Y3739D01*
X823D01*
X830Y3746D01*
Y3752D01*
Y3746D01*
X837Y3739D01*
X843D01*
X850Y3746D01*
Y3759D01*
X843Y3766D01*
X850Y3706D02*
X810D01*
X830Y3726D01*
Y3699D01*
X2125Y4358D02*
X2149Y4382D01*
X2158D01*
X2167Y4373D01*
Y4363D01*
X2144Y4340D01*
X2182Y4358D02*
X2191Y4349D01*
X2186Y4354D01*
X2158Y4325D01*
Y4335D01*
X2182Y4311D02*
Y4302D01*
X2191Y4292D01*
X2200D01*
X2205Y4297D01*
Y4307D01*
X2200Y4311D01*
X2205Y4307D01*
X2215D01*
X2219Y4311D01*
Y4321D01*
X2210Y4330D01*
X2200D01*
X698Y4432D02*
X692Y4439D01*
Y4452D01*
X698Y4458D01*
X725D01*
X732Y4452D01*
Y4439D01*
X725Y4432D01*
X732Y4419D02*
Y4405D01*
Y4412D01*
X692D01*
X698Y4419D01*
Y4385D02*
X692Y4379D01*
Y4365D01*
X698Y4359D01*
X705D01*
X712Y4365D01*
Y4372D01*
Y4365D01*
X718Y4359D01*
X725D01*
X732Y4365D01*
Y4379D01*
X725Y4385D01*
X798Y4584D02*
X792Y4591D01*
Y4604D01*
X798Y4610D01*
X825D01*
X831Y4604D01*
Y4591D01*
X825Y4584D01*
X831Y4571D02*
Y4557D01*
Y4564D01*
X792D01*
X798Y4571D01*
X831Y4517D02*
X792D01*
X812Y4537D01*
Y4511D01*
X1379Y4630D02*
X1385Y4637D01*
X1399D01*
X1405Y4630D01*
Y4603D01*
X1399Y4597D01*
X1385D01*
X1379Y4603D01*
X1365Y4597D02*
X1352D01*
X1359D01*
Y4637D01*
X1365Y4630D01*
X1305Y4637D02*
X1332D01*
Y4617D01*
X1319Y4623D01*
X1312D01*
X1305Y4617D01*
Y4603D01*
X1312Y4597D01*
X1325D01*
X1332Y4603D01*
X1260Y4430D02*
X1254Y4437D01*
Y4450D01*
X1260Y4457D01*
X1287D01*
X1293Y4450D01*
Y4437D01*
X1287Y4430D01*
X1293Y4417D02*
Y4403D01*
Y4410D01*
X1254D01*
X1260Y4417D01*
Y4383D02*
X1254Y4377D01*
Y4363D01*
X1260Y4357D01*
X1267D01*
X1274Y4363D01*
X1280Y4357D01*
X1287D01*
X1293Y4363D01*
Y4377D01*
X1287Y4383D01*
X1280D01*
X1274Y4377D01*
X1267Y4383D01*
X1260D01*
X1274Y4377D02*
Y4363D01*
X1922Y2493D02*
X1929Y2500D01*
X1942D01*
X1949Y2493D01*
Y2467D01*
X1942Y2460D01*
X1929D01*
X1922Y2467D01*
X1909Y2500D02*
X1882D01*
Y2493D01*
X1909Y2467D01*
Y2460D01*
X1842Y2500D02*
X1869D01*
Y2480D01*
X1856Y2487D01*
X1849D01*
X1842Y2480D01*
Y2467D01*
X1849Y2460D01*
X1862D01*
X1869Y2467D01*
X1366Y1476D02*
X1373Y1482D01*
X1386D01*
X1393Y1476D01*
Y1449D01*
X1386Y1442D01*
X1373D01*
X1366Y1449D01*
X1333Y1442D02*
Y1482D01*
X1353Y1462D01*
X1326D01*
X1313Y1482D02*
X1286D01*
Y1476D01*
X1313Y1449D01*
Y1442D01*
X702Y1330D02*
X709Y1336D01*
X722D01*
X729Y1330D01*
Y1303D01*
X722Y1296D01*
X709D01*
X702Y1303D01*
X669Y1296D02*
Y1336D01*
X689Y1316D01*
X662D01*
X649Y1330D02*
X642Y1336D01*
X629D01*
X622Y1330D01*
Y1323D01*
X629Y1316D01*
X622Y1310D01*
Y1303D01*
X629Y1296D01*
X642D01*
X649Y1303D01*
Y1310D01*
X642Y1316D01*
X649Y1323D01*
Y1330D01*
X642Y1316D02*
X629D01*
X514Y1821D02*
X521Y1827D01*
X534D01*
X540Y1821D01*
Y1794D01*
X534Y1788D01*
X521D01*
X514Y1794D01*
X481Y1788D02*
Y1827D01*
X501Y1807D01*
X474D01*
X461Y1794D02*
X454Y1788D01*
X441D01*
X434Y1794D01*
Y1821D01*
X441Y1827D01*
X454D01*
X461Y1821D01*
Y1814D01*
X454Y1807D01*
X434D01*
X2104Y2813D02*
X2111Y2820D01*
X2124D01*
X2131Y2813D01*
Y2786D01*
X2124Y2780D01*
X2111D01*
X2104Y2786D01*
X2064Y2820D02*
X2091D01*
Y2800D01*
X2077Y2806D01*
X2071D01*
X2064Y2800D01*
Y2786D01*
X2071Y2780D01*
X2084D01*
X2091Y2786D01*
X2051Y2780D02*
X2037D01*
X2044D01*
Y2820D01*
X2051Y2813D01*
X2290Y3240D02*
X2297Y3247D01*
X2310D01*
X2316Y3240D01*
Y3213D01*
X2310Y3207D01*
X2297D01*
X2290Y3213D01*
X2250Y3247D02*
X2277D01*
Y3227D01*
X2263Y3233D01*
X2257D01*
X2250Y3227D01*
Y3213D01*
X2257Y3207D01*
X2270D01*
X2277Y3213D01*
X2210Y3207D02*
X2237D01*
X2210Y3233D01*
Y3240D01*
X2217Y3247D01*
X2230D01*
X2237Y3240D01*
X1380Y2807D02*
X1387Y2814D01*
X1400D01*
X1406Y2807D01*
Y2780D01*
X1400Y2774D01*
X1387D01*
X1380Y2780D01*
X1340Y2814D02*
X1367D01*
Y2794D01*
X1353Y2800D01*
X1347D01*
X1340Y2794D01*
Y2780D01*
X1347Y2774D01*
X1360D01*
X1367Y2780D01*
X1300Y2814D02*
X1327D01*
Y2794D01*
X1313Y2800D01*
X1307D01*
X1300Y2794D01*
Y2780D01*
X1307Y2774D01*
X1320D01*
X1327Y2780D01*
X1571Y3236D02*
X1578Y3243D01*
X1591D01*
X1598Y3236D01*
Y3210D01*
X1591Y3203D01*
X1578D01*
X1571Y3210D01*
X1531Y3243D02*
X1558D01*
Y3223D01*
X1545Y3230D01*
X1538D01*
X1531Y3223D01*
Y3210D01*
X1538Y3203D01*
X1551D01*
X1558Y3210D01*
X1491Y3243D02*
X1505Y3236D01*
X1518Y3223D01*
Y3210D01*
X1511Y3203D01*
X1498D01*
X1491Y3210D01*
Y3216D01*
X1498Y3223D01*
X1518D01*
X1884Y3165D02*
X1891Y3172D01*
X1904D01*
X1911Y3165D01*
Y3138D01*
X1904Y3132D01*
X1891D01*
X1884Y3138D01*
X1844Y3172D02*
X1871D01*
Y3152D01*
X1857Y3158D01*
X1851D01*
X1844Y3152D01*
Y3138D01*
X1851Y3132D01*
X1864D01*
X1871Y3138D01*
X1831Y3172D02*
X1804D01*
Y3165D01*
X1831Y3138D01*
Y3132D01*
X982Y614D02*
X975Y608D01*
X962D01*
X956Y614D01*
Y641D01*
X962Y647D01*
X975D01*
X982Y641D01*
X1022Y608D02*
X995D01*
Y628D01*
X1009Y621D01*
X1015D01*
X1022Y628D01*
Y641D01*
X1015Y647D01*
X1002D01*
X995Y641D01*
X1035Y614D02*
X1042Y608D01*
X1055D01*
X1062Y614D01*
Y621D01*
X1055Y628D01*
X1062Y634D01*
Y641D01*
X1055Y647D01*
X1042D01*
X1035Y641D01*
Y634D01*
X1042Y628D01*
X1035Y621D01*
Y614D01*
X1042Y628D02*
X1055D01*
X1346Y645D02*
X1353Y651D01*
X1366D01*
X1372Y645D01*
Y618D01*
X1366Y612D01*
X1353D01*
X1346Y618D01*
X1306Y651D02*
X1333D01*
Y631D01*
X1319Y638D01*
X1313D01*
X1306Y631D01*
Y618D01*
X1313Y612D01*
X1326D01*
X1333Y618D01*
X1293D02*
X1286Y612D01*
X1273D01*
X1266Y618D01*
Y645D01*
X1273Y651D01*
X1286D01*
X1293Y645D01*
Y638D01*
X1286Y631D01*
X1266D01*
X377Y238D02*
X384Y244D01*
X397D01*
X403Y238D01*
Y211D01*
X397Y205D01*
X384D01*
X377Y211D01*
X337Y244D02*
X350Y238D01*
X364Y224D01*
Y211D01*
X357Y205D01*
X344D01*
X337Y211D01*
Y218D01*
X344Y224D01*
X364D01*
X324Y238D02*
X317Y244D01*
X304D01*
X297Y238D01*
Y211D01*
X304Y205D01*
X317D01*
X324Y211D01*
Y238D01*
X687Y315D02*
X681Y322D01*
Y335D01*
X687Y342D01*
X714D01*
X720Y335D01*
Y322D01*
X714Y315D01*
X681Y275D02*
X687Y288D01*
X701Y302D01*
X714D01*
X720Y295D01*
Y282D01*
X714Y275D01*
X707D01*
X701Y282D01*
Y302D01*
X720Y262D02*
Y248D01*
Y255D01*
X681D01*
X687Y262D01*
X1810Y2869D02*
X1817Y2876D01*
X1830D01*
X1837Y2869D01*
Y2842D01*
X1830Y2836D01*
X1817D01*
X1810Y2842D01*
X1770Y2876D02*
X1783Y2869D01*
X1797Y2856D01*
Y2842D01*
X1790Y2836D01*
X1777D01*
X1770Y2842D01*
Y2849D01*
X1777Y2856D01*
X1797D01*
X1730Y2836D02*
X1757D01*
X1730Y2862D01*
Y2869D01*
X1737Y2876D01*
X1750D01*
X1757Y2869D01*
X1213Y554D02*
X1220Y561D01*
X1233D01*
X1240Y554D01*
Y528D01*
X1233Y521D01*
X1220D01*
X1213Y528D01*
X1173Y561D02*
X1187Y554D01*
X1200Y541D01*
Y528D01*
X1193Y521D01*
X1180D01*
X1173Y528D01*
Y534D01*
X1180Y541D01*
X1200D01*
X1160Y554D02*
X1153Y561D01*
X1140D01*
X1133Y554D01*
Y548D01*
X1140Y541D01*
X1147D01*
X1140D01*
X1133Y534D01*
Y528D01*
X1140Y521D01*
X1153D01*
X1160Y528D01*
X952Y234D02*
X959Y240D01*
X972D01*
X979Y234D01*
Y207D01*
X972Y200D01*
X959D01*
X952Y207D01*
X912Y240D02*
X925Y234D01*
X939Y220D01*
Y207D01*
X932Y200D01*
X919D01*
X912Y207D01*
Y214D01*
X919Y220D01*
X939D01*
X879Y200D02*
Y240D01*
X899Y220D01*
X872D01*
X653Y3104D02*
X647Y3111D01*
Y3124D01*
X653Y3131D01*
X680D01*
X687Y3124D01*
Y3111D01*
X680Y3104D01*
X647Y3064D02*
X653Y3077D01*
X667Y3091D01*
X680D01*
X687Y3084D01*
Y3071D01*
X680Y3064D01*
X673D01*
X667Y3071D01*
Y3091D01*
X647Y3024D02*
Y3051D01*
X667D01*
X660Y3037D01*
Y3031D01*
X667Y3024D01*
X680D01*
X687Y3031D01*
Y3044D01*
X680Y3051D01*
X673Y3236D02*
X667Y3243D01*
Y3256D01*
X673Y3263D01*
X700D01*
X706Y3256D01*
Y3243D01*
X700Y3236D01*
X667Y3196D02*
X673Y3209D01*
X687Y3223D01*
X700D01*
X706Y3216D01*
Y3203D01*
X700Y3196D01*
X693D01*
X687Y3203D01*
Y3223D01*
X667Y3156D02*
X673Y3169D01*
X687Y3183D01*
X700D01*
X706Y3176D01*
Y3163D01*
X700Y3156D01*
X693D01*
X687Y3163D01*
Y3183D01*
X992Y1471D02*
X999Y1477D01*
X1012D01*
X1018Y1471D01*
Y1444D01*
X1012Y1438D01*
X999D01*
X992Y1444D01*
X952Y1477D02*
X965Y1471D01*
X979Y1457D01*
Y1444D01*
X972Y1438D01*
X959D01*
X952Y1444D01*
Y1451D01*
X959Y1457D01*
X979D01*
X939Y1477D02*
X912D01*
Y1471D01*
X939Y1444D01*
Y1438D01*
X1173Y1031D02*
X1180Y1037D01*
X1193D01*
X1199Y1031D01*
Y1004D01*
X1193Y998D01*
X1180D01*
X1173Y1004D01*
X1133Y1037D02*
X1146Y1031D01*
X1160Y1017D01*
Y1004D01*
X1153Y998D01*
X1140D01*
X1133Y1004D01*
Y1011D01*
X1140Y1017D01*
X1160D01*
X1120Y1031D02*
X1113Y1037D01*
X1100D01*
X1093Y1031D01*
Y1024D01*
X1100Y1017D01*
X1093Y1011D01*
Y1004D01*
X1100Y998D01*
X1113D01*
X1120Y1004D01*
Y1011D01*
X1113Y1017D01*
X1120Y1024D01*
Y1031D01*
X1113Y1017D02*
X1100D01*
X1337Y1097D02*
X1344Y1103D01*
X1357D01*
X1363Y1097D01*
Y1070D01*
X1357Y1064D01*
X1344D01*
X1337Y1070D01*
X1297Y1103D02*
X1310Y1097D01*
X1324Y1083D01*
Y1070D01*
X1317Y1064D01*
X1304D01*
X1297Y1070D01*
Y1077D01*
X1304Y1083D01*
X1324D01*
X1284Y1070D02*
X1277Y1064D01*
X1264D01*
X1257Y1070D01*
Y1097D01*
X1264Y1103D01*
X1277D01*
X1284Y1097D01*
Y1090D01*
X1277Y1083D01*
X1257D01*
X1247Y2785D02*
X1241Y2792D01*
Y2805D01*
X1247Y2812D01*
X1274D01*
X1281Y2805D01*
Y2792D01*
X1274Y2785D01*
X1241Y2772D02*
Y2745D01*
X1247D01*
X1274Y2772D01*
X1281D01*
X1247Y2732D02*
X1241Y2725D01*
Y2712D01*
X1247Y2705D01*
X1274D01*
X1281Y2712D01*
Y2725D01*
X1274Y2732D01*
X1247D01*
X1243Y3113D02*
X1250Y3119D01*
X1263D01*
X1270Y3113D01*
Y3086D01*
X1263Y3079D01*
X1250D01*
X1243Y3086D01*
X1230Y3119D02*
X1203D01*
Y3113D01*
X1230Y3086D01*
Y3079D01*
X1190D02*
X1176D01*
X1183D01*
Y3119D01*
X1190Y3113D01*
X1808Y2303D02*
X1815Y2310D01*
X1828D01*
X1834Y2303D01*
Y2276D01*
X1828Y2270D01*
X1815D01*
X1808Y2276D01*
X1795Y2310D02*
X1768D01*
Y2303D01*
X1795Y2276D01*
Y2270D01*
X1728D02*
X1755D01*
X1728Y2296D01*
Y2303D01*
X1735Y2310D01*
X1748D01*
X1755Y2303D01*
X463Y1404D02*
Y1365D01*
X436D01*
X423D02*
X409D01*
X416D01*
Y1404D01*
X423Y1398D01*
X590Y1405D02*
Y1365D01*
X564D01*
X524D02*
X551D01*
X524Y1392D01*
Y1399D01*
X531Y1405D01*
X544D01*
X551Y1399D01*
X2161Y3076D02*
Y3036D01*
X2135D01*
X2122Y3069D02*
X2115Y3076D01*
X2102D01*
X2095Y3069D01*
Y3062D01*
X2102Y3056D01*
X2108D01*
X2102D01*
X2095Y3049D01*
Y3042D01*
X2102Y3036D01*
X2115D01*
X2122Y3042D01*
X2263Y3077D02*
Y3037D01*
X2237D01*
X2204D02*
Y3077D01*
X2224Y3057D01*
X2197D01*
X1452Y3073D02*
Y3033D01*
X1425D01*
X1385Y3073D02*
X1412D01*
Y3053D01*
X1398Y3059D01*
X1392D01*
X1385Y3053D01*
Y3039D01*
X1392Y3033D01*
X1405D01*
X1412Y3039D01*
X1549Y3072D02*
Y3032D01*
X1523D01*
X1483Y3072D02*
X1496Y3065D01*
X1510Y3052D01*
Y3038D01*
X1503Y3032D01*
X1490D01*
X1483Y3038D01*
Y3045D01*
X1490Y3052D01*
X1510D01*
X1038Y963D02*
Y924D01*
X1011D01*
X998Y963D02*
X971D01*
Y957D01*
X998Y930D01*
Y924D01*
X1192Y963D02*
Y924D01*
X1166D01*
X1153Y957D02*
X1146Y963D01*
X1133D01*
X1126Y957D01*
Y950D01*
X1133Y943D01*
X1126Y937D01*
Y930D01*
X1133Y924D01*
X1146D01*
X1153Y930D01*
Y937D01*
X1146Y943D01*
X1153Y950D01*
Y957D01*
X1146Y943D02*
X1133D01*
X389Y562D02*
Y522D01*
X363D01*
X350Y529D02*
X343Y522D01*
X330D01*
X323Y529D01*
Y556D01*
X330Y562D01*
X343D01*
X350Y556D01*
Y549D01*
X343Y542D01*
X323D01*
X554Y562D02*
Y522D01*
X528D01*
X515D02*
X501D01*
X508D01*
Y562D01*
X515Y556D01*
X481D02*
X475Y562D01*
X461D01*
X455Y556D01*
Y529D01*
X461Y522D01*
X475D01*
X481Y529D01*
Y556D01*
X946Y563D02*
Y524D01*
X919D01*
X906D02*
X892D01*
X899D01*
Y563D01*
X906Y557D01*
X872Y524D02*
X859D01*
X866D01*
Y563D01*
X872Y557D01*
X1120Y563D02*
Y524D01*
X1094D01*
X1081D02*
X1067D01*
X1074D01*
Y563D01*
X1081Y557D01*
X1021Y524D02*
X1047D01*
X1021Y550D01*
Y557D01*
X1027Y563D01*
X1041D01*
X1047Y557D01*
X752Y2991D02*
Y2951D01*
X725D01*
X712D02*
X698D01*
X705D01*
Y2991D01*
X712Y2985D01*
X678D02*
X672Y2991D01*
X658D01*
X652Y2985D01*
Y2978D01*
X658Y2971D01*
X665D01*
X658D01*
X652Y2965D01*
Y2958D01*
X658Y2951D01*
X672D01*
X678Y2958D01*
X971Y3144D02*
X1010D01*
Y3117D01*
Y3104D02*
Y3090D01*
Y3097D01*
X971D01*
X977Y3104D01*
X1010Y3050D02*
X971D01*
X991Y3070D01*
Y3044D01*
X1038Y1093D02*
Y1054D01*
X1012D01*
X999D02*
X985D01*
X992D01*
Y1093D01*
X999Y1087D01*
X939Y1093D02*
X965D01*
Y1073D01*
X952Y1080D01*
X945D01*
X939Y1073D01*
Y1060D01*
X945Y1054D01*
X959D01*
X965Y1060D01*
X1204Y1413D02*
Y1373D01*
X1177D01*
X1164D02*
X1150D01*
X1157D01*
Y1413D01*
X1164Y1407D01*
X1104Y1413D02*
X1117Y1407D01*
X1130Y1393D01*
Y1380D01*
X1124Y1373D01*
X1110D01*
X1104Y1380D01*
Y1387D01*
X1110Y1393D01*
X1130D01*
X976Y2833D02*
X1015D01*
Y2807D01*
Y2794D02*
Y2780D01*
Y2787D01*
X976D01*
X982Y2794D01*
X976Y2760D02*
Y2734D01*
X982D01*
X1009Y2760D01*
X1015D01*
X976Y2964D02*
X1015D01*
Y2937D01*
Y2924D02*
Y2910D01*
Y2917D01*
X976D01*
X982Y2924D01*
Y2890D02*
X976Y2884D01*
Y2870D01*
X982Y2864D01*
X989D01*
X996Y2870D01*
X1002Y2864D01*
X1009D01*
X1015Y2870D01*
Y2884D01*
X1009Y2890D01*
X1002D01*
X996Y2884D01*
X989Y2890D01*
X982D01*
X996Y2884D02*
Y2870D01*
X1824Y2776D02*
Y2816D01*
X1804D01*
X1797Y2809D01*
Y2796D01*
X1804Y2789D01*
X1824D01*
X1810D02*
X1797Y2776D01*
X1764D02*
Y2816D01*
X1784Y2796D01*
X1757D01*
X1744Y2776D02*
X1730D01*
X1737D01*
Y2816D01*
X1744Y2809D01*
X1839Y2716D02*
Y2756D01*
X1819D01*
X1812Y2749D01*
Y2736D01*
X1819Y2729D01*
X1839D01*
X1825D02*
X1812Y2716D01*
X1779D02*
Y2756D01*
X1799Y2736D01*
X1772D01*
X1732Y2716D02*
X1759D01*
X1732Y2742D01*
Y2749D01*
X1739Y2756D01*
X1752D01*
X1759Y2749D01*
X1020Y1372D02*
Y1412D01*
X1001D01*
X994Y1406D01*
Y1392D01*
X1001Y1386D01*
X1020D01*
X1007D02*
X994Y1372D01*
X961D02*
Y1412D01*
X981Y1392D01*
X954D01*
X941Y1406D02*
X934Y1412D01*
X921D01*
X914Y1406D01*
Y1399D01*
X921Y1392D01*
X927D01*
X921D01*
X914Y1386D01*
Y1379D01*
X921Y1372D01*
X934D01*
X941Y1379D01*
X881Y1247D02*
Y1287D01*
X861D01*
X854Y1281D01*
Y1267D01*
X861Y1261D01*
X881D01*
X867D02*
X854Y1247D01*
X821D02*
Y1287D01*
X841Y1267D01*
X814D01*
X781Y1247D02*
Y1287D01*
X801Y1267D01*
X774D01*
X1832Y2210D02*
Y2250D01*
X1812D01*
X1805Y2243D01*
Y2230D01*
X1812Y2223D01*
X1832D01*
X1818D02*
X1805Y2210D01*
X1772D02*
Y2250D01*
X1792Y2230D01*
X1765D01*
X1725Y2250D02*
X1752D01*
Y2230D01*
X1738Y2236D01*
X1732D01*
X1725Y2230D01*
Y2216D01*
X1732Y2210D01*
X1745D01*
X1752Y2216D01*
X1732Y3116D02*
Y3083D01*
X1726Y3076D01*
X1713D01*
X1706Y3083D01*
Y3116D01*
X1693Y3076D02*
X1679D01*
X1686D01*
Y3116D01*
X1693Y3110D01*
X1633Y3116D02*
X1646Y3110D01*
X1659Y3096D01*
Y3083D01*
X1653Y3076D01*
X1639D01*
X1633Y3083D01*
Y3090D01*
X1639Y3096D01*
X1659D01*
X1125Y1708D02*
Y1675D01*
X1119Y1668D01*
X1106D01*
X1099Y1675D01*
Y1708D01*
X1086Y1668D02*
X1072D01*
X1079D01*
Y1708D01*
X1086Y1702D01*
X1052Y1708D02*
X1026D01*
Y1702D01*
X1052Y1675D01*
Y1668D01*
X1832Y2467D02*
X1799D01*
X1793Y2474D01*
Y2487D01*
X1799Y2494D01*
X1832D01*
X1793Y2507D02*
Y2521D01*
Y2514D01*
X1832D01*
X1826Y2507D01*
Y2541D02*
X1832Y2547D01*
Y2561D01*
X1826Y2567D01*
X1819D01*
X1812Y2561D01*
X1806Y2567D01*
X1799D01*
X1793Y2561D01*
Y2547D01*
X1799Y2541D01*
X1806D01*
X1812Y2547D01*
X1819Y2541D01*
X1826D01*
X1812Y2547D02*
Y2561D01*
X1534Y2200D02*
X1541Y2207D01*
X1554D01*
X1561Y2200D01*
Y2173D01*
X1554Y2167D01*
X1541D01*
X1534Y2173D01*
X1521Y2207D02*
X1494D01*
Y2200D01*
X1521Y2173D01*
Y2167D01*
X1461D02*
Y2207D01*
X1481Y2187D01*
X1454D01*
X1283Y2243D02*
X1290Y2250D01*
X1303D01*
X1309Y2243D01*
Y2216D01*
X1303Y2210D01*
X1290D01*
X1283Y2216D01*
X1270Y2250D02*
X1243D01*
Y2243D01*
X1270Y2216D01*
Y2210D01*
X1230Y2243D02*
X1223Y2250D01*
X1210D01*
X1203Y2243D01*
Y2236D01*
X1210Y2230D01*
X1216D01*
X1210D01*
X1203Y2223D01*
Y2216D01*
X1210Y2210D01*
X1223D01*
X1230Y2216D01*
X1304Y2520D02*
Y2480D01*
X1278D01*
X1265D02*
X1251D01*
X1258D01*
Y2520D01*
X1265Y2513D01*
X1231Y2486D02*
X1225Y2480D01*
X1211D01*
X1205Y2486D01*
Y2513D01*
X1211Y2520D01*
X1225D01*
X1231Y2513D01*
Y2506D01*
X1225Y2500D01*
X1205D01*
X1457Y2525D02*
Y2485D01*
X1431D01*
X1391D02*
X1418D01*
X1391Y2511D01*
Y2518D01*
X1398Y2525D01*
X1411D01*
X1418Y2518D01*
X1378D02*
X1371Y2525D01*
X1358D01*
X1351Y2518D01*
Y2491D01*
X1358Y2485D01*
X1371D01*
X1378Y2491D01*
Y2518D01*
X2539Y2784D02*
Y2824D01*
X2519D01*
X2513Y2817D01*
Y2804D01*
X2519Y2797D01*
X2539D01*
X2526D02*
X2513Y2784D01*
X2473D02*
X2500D01*
X2473Y2811D01*
Y2817D01*
X2480Y2824D01*
X2493D01*
X2500Y2817D01*
X2433Y2784D02*
X2460D01*
X2433Y2811D01*
Y2817D01*
X2440Y2824D01*
X2453D01*
X2460Y2817D01*
X2438Y3112D02*
Y3079D01*
X2432Y3072D01*
X2419D01*
X2412Y3079D01*
Y3112D01*
X2399Y3072D02*
X2385D01*
X2392D01*
Y3112D01*
X2399Y3106D01*
X2339Y3112D02*
X2365D01*
Y3092D01*
X2352Y3099D01*
X2345D01*
X2339Y3092D01*
Y3079D01*
X2345Y3072D01*
X2359D01*
X2365Y3079D01*
X2641Y3126D02*
X2634Y3133D01*
Y3146D01*
X2641Y3152D01*
X2668D01*
X2674Y3146D01*
Y3133D01*
X2668Y3126D01*
X2634Y3086D02*
Y3113D01*
X2654D01*
X2648Y3099D01*
Y3093D01*
X2654Y3086D01*
X2668D01*
X2674Y3093D01*
Y3106D01*
X2668Y3113D01*
X2641Y3073D02*
X2634Y3066D01*
Y3053D01*
X2641Y3046D01*
X2648D01*
X2654Y3053D01*
Y3059D01*
Y3053D01*
X2661Y3046D01*
X2668D01*
X2674Y3053D01*
Y3066D01*
X2668Y3073D01*
X2514Y2894D02*
X2521Y2901D01*
X2534D01*
X2540Y2894D01*
Y2867D01*
X2534Y2861D01*
X2521D01*
X2514Y2867D01*
X2474Y2901D02*
X2501D01*
Y2881D01*
X2487Y2887D01*
X2481D01*
X2474Y2881D01*
Y2867D01*
X2481Y2861D01*
X2494D01*
X2501Y2867D01*
X2441Y2861D02*
Y2901D01*
X2461Y2881D01*
X2434D01*
X2283Y2711D02*
Y2751D01*
X2264D01*
X2257Y2744D01*
Y2731D01*
X2264Y2724D01*
X2283D01*
X2270D02*
X2257Y2711D01*
X2224D02*
Y2751D01*
X2244Y2731D01*
X2217D01*
X2204Y2744D02*
X2197Y2751D01*
X2184D01*
X2177Y2744D01*
Y2717D01*
X2184Y2711D01*
X2197D01*
X2204Y2717D01*
Y2744D01*
X1709Y1220D02*
Y1229D01*
X1719Y1239D01*
X1728D01*
X1747Y1220D01*
Y1210D01*
X1737Y1201D01*
X1728D01*
X1700Y1210D02*
X1690D01*
X1681Y1201D01*
Y1192D01*
X1686Y1187D01*
X1695D01*
Y1177D01*
X1700Y1173D01*
X1709D01*
X1719Y1182D01*
Y1192D01*
X1714Y1196D01*
X1704D01*
Y1206D01*
X1700Y1210D01*
X1704Y1196D02*
X1695Y1187D01*
X1648Y1168D02*
X1667Y1187D01*
X1681Y1173D01*
X1667Y1168D01*
X1662Y1163D01*
Y1154D01*
X1671Y1144D01*
X1681D01*
X1690Y1154D01*
Y1163D01*
X2263Y1176D02*
X2273D01*
X2282Y1166D01*
Y1157D01*
X2263Y1138D01*
X2254D01*
X2245Y1147D01*
Y1157D01*
X2254Y1185D02*
Y1195D01*
X2245Y1204D01*
X2235D01*
X2230Y1199D01*
Y1190D01*
X2221D01*
X2216Y1185D01*
Y1176D01*
X2226Y1166D01*
X2235D01*
X2240Y1171D01*
Y1180D01*
X2249D01*
X2254Y1185D01*
X2240Y1180D02*
X2230Y1190D01*
X2212Y1237D02*
X2216Y1223D01*
X2216Y1204D01*
X2207Y1195D01*
X2197D01*
X2188Y1204D01*
Y1213D01*
X2193Y1218D01*
X2202D01*
X2216Y1204D01*
X1393Y539D02*
X1400Y546D01*
X1413D01*
X1420Y539D01*
Y512D01*
X1413Y506D01*
X1400D01*
X1393Y512D01*
X1380Y539D02*
X1373Y546D01*
X1360D01*
X1353Y539D01*
Y532D01*
X1360Y526D01*
X1353Y519D01*
Y512D01*
X1360Y506D01*
X1373D01*
X1380Y512D01*
Y519D01*
X1373Y526D01*
X1380Y532D01*
Y539D01*
X1373Y526D02*
X1360D01*
X1340Y539D02*
X1333Y546D01*
X1320D01*
X1313Y539D01*
Y532D01*
X1320Y526D01*
X1313Y519D01*
Y512D01*
X1320Y506D01*
X1333D01*
X1340Y512D01*
Y519D01*
X1333Y526D01*
X1340Y532D01*
Y539D01*
X1333Y526D02*
X1320D01*
X1972Y440D02*
X1979Y447D01*
X1992D01*
X1999Y440D01*
Y413D01*
X1992Y407D01*
X1979D01*
X1972Y413D01*
X1959Y440D02*
X1952Y447D01*
X1939D01*
X1932Y440D01*
Y433D01*
X1939Y427D01*
X1932Y420D01*
Y413D01*
X1939Y407D01*
X1952D01*
X1959Y413D01*
Y420D01*
X1952Y427D01*
X1959Y433D01*
Y440D01*
X1952Y427D02*
X1939D01*
X1919Y413D02*
X1912Y407D01*
X1899D01*
X1892Y413D01*
Y440D01*
X1899Y447D01*
X1912D01*
X1919Y440D01*
Y433D01*
X1912Y427D01*
X1892D01*
X2087Y485D02*
X2094Y492D01*
X2107D01*
X2114Y485D01*
Y458D01*
X2107Y452D01*
X2094D01*
X2087Y458D01*
X2074D02*
X2067Y452D01*
X2054D01*
X2047Y458D01*
Y485D01*
X2054Y492D01*
X2067D01*
X2074Y485D01*
Y478D01*
X2067Y472D01*
X2047D01*
X2034Y452D02*
X2020D01*
X2027D01*
Y492D01*
X2034Y485D01*
X2669Y502D02*
X2676Y509D01*
X2689D01*
X2696Y502D01*
Y475D01*
X2689Y469D01*
X2676D01*
X2669Y475D01*
X2656D02*
X2649Y469D01*
X2636D01*
X2629Y475D01*
Y502D01*
X2636Y509D01*
X2649D01*
X2656Y502D01*
Y495D01*
X2649Y489D01*
X2629D01*
X2589Y469D02*
X2616D01*
X2589Y495D01*
Y502D01*
X2596Y509D01*
X2609D01*
X2616Y502D01*
X931Y4312D02*
X925Y4319D01*
Y4332D01*
X931Y4339D01*
X958D01*
X965Y4332D01*
Y4319D01*
X958Y4312D01*
Y4299D02*
X965Y4292D01*
Y4279D01*
X958Y4272D01*
X931D01*
X925Y4279D01*
Y4292D01*
X931Y4299D01*
X938D01*
X945Y4292D01*
Y4272D01*
X925Y4232D02*
X931Y4246D01*
X945Y4259D01*
X958D01*
X965Y4252D01*
Y4239D01*
X958Y4232D01*
X951D01*
X945Y4239D01*
Y4259D01*
X1022Y4387D02*
X1016Y4394D01*
Y4407D01*
X1022Y4414D01*
X1049D01*
X1056Y4407D01*
Y4394D01*
X1049Y4387D01*
Y4374D02*
X1056Y4367D01*
Y4354D01*
X1049Y4347D01*
X1022D01*
X1016Y4354D01*
Y4367D01*
X1022Y4374D01*
X1029D01*
X1036Y4367D01*
Y4347D01*
X1016Y4334D02*
Y4307D01*
X1022D01*
X1049Y4334D01*
X1056D01*
X103Y2810D02*
X110Y2816D01*
X123D01*
X130Y2810D01*
Y2783D01*
X123Y2776D01*
X110D01*
X103Y2783D01*
X90D02*
X83Y2776D01*
X70D01*
X63Y2783D01*
Y2810D01*
X70Y2816D01*
X83D01*
X90Y2810D01*
Y2803D01*
X83Y2796D01*
X63D01*
X50Y2783D02*
X43Y2776D01*
X30D01*
X23Y2783D01*
Y2810D01*
X30Y2816D01*
X43D01*
X50Y2810D01*
Y2803D01*
X43Y2796D01*
X23D01*
X284Y3237D02*
X291Y3244D01*
X304D01*
X311Y3237D01*
Y3211D01*
X304Y3204D01*
X291D01*
X284Y3211D01*
X271Y3204D02*
X258D01*
X264D01*
Y3244D01*
X271Y3237D01*
X238D02*
X231Y3244D01*
X218D01*
X211Y3237D01*
Y3211D01*
X218Y3204D01*
X231D01*
X238Y3211D01*
Y3237D01*
X198D02*
X191Y3244D01*
X178D01*
X171Y3237D01*
Y3211D01*
X178Y3204D01*
X191D01*
X198Y3211D01*
Y3237D01*
X599Y3193D02*
X606Y3199D01*
X619D01*
X626Y3193D01*
Y3166D01*
X619Y3159D01*
X606D01*
X599Y3166D01*
X586Y3159D02*
X572D01*
X579D01*
Y3199D01*
X586Y3193D01*
X552D02*
X546Y3199D01*
X532D01*
X526Y3193D01*
Y3166D01*
X532Y3159D01*
X546D01*
X552Y3166D01*
Y3193D01*
X512Y3159D02*
X499D01*
X506D01*
Y3199D01*
X512Y3193D01*
X526Y2883D02*
X533Y2889D01*
X546D01*
X553Y2883D01*
Y2856D01*
X546Y2849D01*
X533D01*
X526Y2856D01*
X513Y2849D02*
X499D01*
X506D01*
Y2889D01*
X513Y2883D01*
X479D02*
X473Y2889D01*
X459D01*
X453Y2883D01*
Y2856D01*
X459Y2849D01*
X473D01*
X479Y2856D01*
Y2883D01*
X413Y2849D02*
X439D01*
X413Y2876D01*
Y2883D01*
X419Y2889D01*
X433D01*
X439Y2883D01*
X14Y3005D02*
X54D01*
Y2978D01*
Y2938D02*
Y2965D01*
X27Y2938D01*
X20D01*
X14Y2945D01*
Y2958D01*
X20Y2965D01*
Y2925D02*
X14Y2918D01*
Y2905D01*
X20Y2898D01*
X27D01*
X34Y2905D01*
Y2912D01*
Y2905D01*
X40Y2898D01*
X47D01*
X54Y2905D01*
Y2918D01*
X47Y2925D01*
X273Y3079D02*
Y3039D01*
X246D01*
X206D02*
X233D01*
X206Y3066D01*
Y3073D01*
X213Y3079D01*
X226D01*
X233Y3073D01*
X173Y3039D02*
Y3079D01*
X193Y3059D01*
X166D01*
X520Y2787D02*
Y2827D01*
X500D01*
X493Y2821D01*
Y2807D01*
X500Y2801D01*
X520D01*
X506D02*
X493Y2787D01*
X460D02*
Y2827D01*
X480Y2807D01*
X453D01*
X440Y2821D02*
X433Y2827D01*
X420D01*
X413Y2821D01*
Y2814D01*
X420Y2807D01*
X413Y2801D01*
Y2794D01*
X420Y2787D01*
X433D01*
X440Y2794D01*
Y2801D01*
X433Y2807D01*
X440Y2814D01*
Y2821D01*
X433Y2807D02*
X420D01*
X520Y2717D02*
Y2757D01*
X500D01*
X493Y2751D01*
Y2737D01*
X500Y2731D01*
X520D01*
X506D02*
X493Y2717D01*
X460D02*
Y2757D01*
X480Y2737D01*
X453D01*
X440Y2724D02*
X433Y2717D01*
X420D01*
X413Y2724D01*
Y2751D01*
X420Y2757D01*
X433D01*
X440Y2751D01*
Y2744D01*
X433Y2737D01*
X413D01*
X438Y3106D02*
Y3073D01*
X432Y3066D01*
X419D01*
X412Y3073D01*
Y3106D01*
X372Y3066D02*
X399D01*
X372Y3093D01*
Y3100D01*
X379Y3106D01*
X392D01*
X399Y3100D01*
X359D02*
X352Y3106D01*
X339D01*
X332Y3100D01*
Y3073D01*
X339Y3066D01*
X352D01*
X359Y3073D01*
Y3100D01*
X1559Y597D02*
Y630D01*
X1566Y637D01*
X1579D01*
X1586Y630D01*
Y597D01*
X1626Y637D02*
X1599D01*
X1626Y610D01*
Y604D01*
X1619Y597D01*
X1606D01*
X1599Y604D01*
X617Y4159D02*
X624Y4165D01*
X637D01*
X643Y4159D01*
Y4132D01*
X637Y4126D01*
X624D01*
X617Y4132D01*
X604Y4126D02*
X590D01*
X597D01*
Y4165D01*
X604Y4159D01*
X570D02*
X564Y4165D01*
X550D01*
X544Y4159D01*
Y4132D01*
X550Y4126D01*
X564D01*
X570Y4132D01*
Y4159D01*
X530D02*
X524Y4165D01*
X510D01*
X504Y4159D01*
Y4152D01*
X510Y4145D01*
X517D01*
X510D01*
X504Y4139D01*
Y4132D01*
X510Y4126D01*
X524D01*
X530Y4132D01*
X2129Y2557D02*
X2136Y2563D01*
X2149D01*
X2155Y2557D01*
Y2530D01*
X2149Y2523D01*
X2136D01*
X2129Y2530D01*
X2116Y2557D02*
X2109Y2563D01*
X2096D01*
X2089Y2557D01*
Y2550D01*
X2096Y2543D01*
X2089Y2537D01*
Y2530D01*
X2096Y2523D01*
X2109D01*
X2116Y2530D01*
Y2537D01*
X2109Y2543D01*
X2116Y2550D01*
Y2557D01*
X2109Y2543D02*
X2096D01*
X2076Y2557D02*
X2069Y2563D01*
X2056D01*
X2049Y2557D01*
Y2550D01*
X2056Y2543D01*
X2062D01*
X2056D01*
X2049Y2537D01*
Y2530D01*
X2056Y2523D01*
X2069D01*
X2076Y2530D01*
X2224Y2205D02*
X2218Y2212D01*
Y2225D01*
X2224Y2231D01*
X2251D01*
X2257Y2225D01*
Y2212D01*
X2251Y2205D01*
X2224Y2192D02*
X2218Y2185D01*
Y2172D01*
X2224Y2165D01*
X2231D01*
X2238Y2172D01*
X2244Y2165D01*
X2251D01*
X2257Y2172D01*
Y2185D01*
X2251Y2192D01*
X2244D01*
X2238Y2185D01*
X2231Y2192D01*
X2224D01*
X2238Y2185D02*
Y2172D01*
X2257Y2132D02*
X2218D01*
X2238Y2152D01*
Y2125D01*
X2177Y2461D02*
X2217D01*
Y2434D01*
Y2394D02*
Y2421D01*
X2190Y2394D01*
X2183D01*
X2177Y2401D01*
Y2414D01*
X2183Y2421D01*
X2217Y2381D02*
Y2367D01*
Y2374D01*
X2177D01*
X2183Y2381D01*
X2187Y2353D02*
X2227D01*
Y2327D01*
Y2287D02*
Y2314D01*
X2200Y2287D01*
X2193D01*
X2187Y2294D01*
Y2307D01*
X2193Y2314D01*
X2227Y2247D02*
Y2274D01*
X2200Y2247D01*
X2193D01*
X2187Y2254D01*
Y2267D01*
X2193Y2274D01*
X2754Y4137D02*
X2783Y4165D01*
X2768Y4179D01*
X2759D01*
X2750Y4170D01*
Y4160D01*
X2764Y4146D01*
X2754Y4155D02*
X2735D01*
Y4212D02*
X2754Y4193D01*
X2740Y4179D01*
X2735Y4193D01*
X2731Y4198D01*
X2721D01*
X2712Y4188D01*
Y4179D01*
X2721Y4170D01*
X2731D01*
X2698Y4193D02*
X2688Y4203D01*
X2693Y4198D01*
X2721Y4226D01*
Y4217D01*
X2707Y4082D02*
X2735Y4110D01*
X2721Y4125D01*
X2712D01*
X2702Y4115D01*
Y4106D01*
X2716Y4092D01*
X2707Y4101D02*
X2688D01*
Y4158D02*
X2707Y4139D01*
X2693Y4125D01*
X2688Y4139D01*
X2683Y4143D01*
X2674D01*
X2664Y4134D01*
Y4125D01*
X2674Y4115D01*
X2683D01*
X2674Y4162D02*
Y4172D01*
X2664Y4181D01*
X2655D01*
X2636Y4162D01*
Y4153D01*
X2646Y4143D01*
X2655D01*
X2674Y4162D01*
X143Y2316D02*
X150Y2322D01*
X163D01*
X169Y2316D01*
Y2289D01*
X163Y2282D01*
X150D01*
X143Y2289D01*
X130D02*
X123Y2282D01*
X110D01*
X103Y2289D01*
Y2316D01*
X110Y2322D01*
X123D01*
X130Y2316D01*
Y2309D01*
X123Y2302D01*
X103D01*
X63Y2322D02*
X90D01*
Y2302D01*
X76Y2309D01*
X70D01*
X63Y2302D01*
Y2289D01*
X70Y2282D01*
X83D01*
X90Y2289D01*
X445Y2328D02*
X452Y2334D01*
X465D01*
X472Y2328D01*
Y2301D01*
X465Y2294D01*
X452D01*
X445Y2301D01*
X432D02*
X425Y2294D01*
X412D01*
X405Y2301D01*
Y2328D01*
X412Y2334D01*
X425D01*
X432Y2328D01*
Y2321D01*
X425Y2314D01*
X405D01*
X392Y2328D02*
X385Y2334D01*
X372D01*
X365Y2328D01*
Y2321D01*
X372Y2314D01*
X365Y2308D01*
Y2301D01*
X372Y2294D01*
X385D01*
X392Y2301D01*
Y2308D01*
X385Y2314D01*
X392Y2321D01*
Y2328D01*
X385Y2314D02*
X372D01*
X957Y2511D02*
X950Y2518D01*
Y2531D01*
X957Y2538D01*
X983D01*
X990Y2531D01*
Y2518D01*
X983Y2511D01*
X990Y2498D02*
Y2485D01*
Y2491D01*
X950D01*
X957Y2498D01*
Y2465D02*
X950Y2458D01*
Y2445D01*
X957Y2438D01*
X983D01*
X990Y2445D01*
Y2458D01*
X983Y2465D01*
X957D01*
X990Y2405D02*
X950D01*
X970Y2425D01*
Y2398D01*
X650Y2319D02*
X657Y2325D01*
X670D01*
X677Y2319D01*
Y2292D01*
X670Y2285D01*
X657D01*
X650Y2292D01*
X637Y2285D02*
X624D01*
X630D01*
Y2325D01*
X637Y2319D01*
X604D02*
X597Y2325D01*
X584D01*
X577Y2319D01*
Y2292D01*
X584Y2285D01*
X597D01*
X604Y2292D01*
Y2319D01*
X537Y2325D02*
X564D01*
Y2305D01*
X550Y2312D01*
X544D01*
X537Y2305D01*
Y2292D01*
X544Y2285D01*
X557D01*
X564Y2292D01*
X178Y2689D02*
Y2649D01*
X151D01*
X111D02*
X138D01*
X111Y2676D01*
Y2683D01*
X118Y2689D01*
X131D01*
X138Y2683D01*
X71Y2689D02*
X98D01*
Y2669D01*
X84Y2676D01*
X78D01*
X71Y2669D01*
Y2656D01*
X78Y2649D01*
X91D01*
X98Y2656D01*
X310Y2645D02*
Y2605D01*
X283D01*
X243D02*
X270D01*
X243Y2631D01*
Y2638D01*
X250Y2645D01*
X263D01*
X270Y2638D01*
X203Y2645D02*
X216Y2638D01*
X230Y2625D01*
Y2611D01*
X223Y2605D01*
X210D01*
X203Y2611D01*
Y2618D01*
X210Y2625D01*
X230D01*
X676Y2687D02*
Y2647D01*
X649D01*
X609D02*
X636D01*
X609Y2674D01*
Y2681D01*
X616Y2687D01*
X629D01*
X636Y2681D01*
X596Y2687D02*
X569D01*
Y2681D01*
X596Y2654D01*
Y2647D01*
X832Y2647D02*
Y2607D01*
X806D01*
X766D02*
X793D01*
X766Y2633D01*
Y2640D01*
X773Y2647D01*
X786D01*
X793Y2640D01*
X753D02*
X746Y2647D01*
X733D01*
X726Y2640D01*
Y2633D01*
X733Y2627D01*
X726Y2620D01*
Y2613D01*
X733Y2607D01*
X746D01*
X753Y2613D01*
Y2620D01*
X746Y2627D01*
X753Y2633D01*
Y2640D01*
X746Y2627D02*
X733D01*
X437Y915D02*
X444Y922D01*
X457D01*
X464Y915D01*
Y889D01*
X457Y882D01*
X444D01*
X437Y889D01*
Y902D01*
X451D01*
X424Y882D02*
Y922D01*
X397Y882D01*
Y922D01*
X384D02*
Y882D01*
X364D01*
X357Y889D01*
Y915D01*
X364Y922D01*
X384D01*
X464Y802D02*
X437D01*
X424Y782D02*
X411D01*
X417D01*
Y822D01*
X424Y815D01*
X364Y782D02*
X391D01*
X364Y809D01*
Y815D01*
X371Y822D01*
X384D01*
X391Y815D01*
X464Y1002D02*
X437D01*
X451Y1015D02*
Y989D01*
X424Y982D02*
X411D01*
X417D01*
Y1022D01*
X424Y1015D01*
X364Y982D02*
X391D01*
X364Y1009D01*
Y1015D01*
X371Y1022D01*
X384D01*
X391Y1015D01*
X439Y1095D02*
X412D01*
X426Y1108D02*
Y1082D01*
X372Y1115D02*
X399D01*
Y1095D01*
X386Y1102D01*
X379D01*
X372Y1095D01*
Y1082D01*
X379Y1075D01*
X392D01*
X399Y1082D01*
X879Y751D02*
Y778D01*
X892Y764D02*
X866D01*
X899Y818D02*
Y791D01*
X879D01*
X886Y804D01*
Y811D01*
X879Y818D01*
X866D01*
X859Y811D01*
Y798D01*
X866Y791D01*
X383Y1506D02*
Y1533D01*
X396Y1519D02*
X370D01*
X403Y1573D02*
Y1546D01*
X383D01*
X390Y1559D01*
Y1566D01*
X383Y1573D01*
X370D01*
X363Y1566D01*
Y1553D01*
X370Y1546D01*
X1211Y2319D02*
Y2346D01*
X1224Y2333D02*
X1198D01*
X1231Y2386D02*
Y2359D01*
X1211D01*
X1218Y2373D01*
Y2379D01*
X1211Y2386D01*
X1198D01*
X1191Y2379D01*
Y2366D01*
X1198Y2359D01*
X82Y3058D02*
X55D01*
X69Y3071D02*
Y3045D01*
X15Y3078D02*
X42D01*
Y3058D01*
X29Y3065D01*
X22D01*
X15Y3058D01*
Y3045D01*
X22Y3038D01*
X35D01*
X42Y3045D01*
X1330Y2874D02*
Y2901D01*
X1343Y2887D02*
X1317D01*
X1350Y2941D02*
Y2914D01*
X1330D01*
X1337Y2927D01*
Y2934D01*
X1330Y2941D01*
X1317D01*
X1310Y2934D01*
Y2921D01*
X1317Y2914D01*
X2037Y2877D02*
Y2904D01*
X2050Y2891D02*
X2024D01*
X2057Y2944D02*
Y2917D01*
X2037D01*
X2044Y2931D01*
Y2937D01*
X2037Y2944D01*
X2024D01*
X2017Y2937D01*
Y2924D01*
X2024Y2917D01*
X1232Y3304D02*
X1259D01*
X1272Y3317D01*
X1259Y3330D01*
X1232D01*
X1252D01*
Y3304D01*
X1265Y3370D02*
X1272Y3364D01*
Y3350D01*
X1265Y3344D01*
X1239D01*
X1232Y3350D01*
Y3364D01*
X1239Y3370D01*
X1252D01*
Y3357D01*
X1232Y3384D02*
X1272D01*
X1232Y3410D01*
X1272D01*
Y3424D02*
X1232D01*
Y3443D01*
X1239Y3450D01*
X1265D01*
X1272Y3443D01*
Y3424D01*
X1601Y1705D02*
X1607Y1712D01*
X1621D01*
X1627Y1705D01*
Y1679D01*
X1621Y1672D01*
X1607D01*
X1601Y1679D01*
Y1692D01*
X1614D01*
X1587Y1672D02*
Y1712D01*
X1561Y1672D01*
Y1712D01*
X1547D02*
Y1672D01*
X1527D01*
X1521Y1679D01*
Y1705D01*
X1527Y1712D01*
X1547D01*
X1662Y2086D02*
Y2113D01*
X1649Y2126D01*
X1636Y2113D01*
Y2086D01*
Y2106D01*
X1662D01*
X1596Y2119D02*
X1602Y2126D01*
X1616D01*
X1622Y2119D01*
Y2093D01*
X1616Y2086D01*
X1602D01*
X1596Y2093D01*
Y2106D01*
X1609D01*
X1582Y2086D02*
Y2126D01*
X1556Y2086D01*
Y2126D01*
X1543D02*
Y2086D01*
X1523D01*
X1516Y2093D01*
Y2119D01*
X1523Y2126D01*
X1543D01*
X1289Y2020D02*
Y2047D01*
X1276Y2060D01*
X1263Y2047D01*
Y2020D01*
Y2040D01*
X1289D01*
X1223Y2053D02*
X1229Y2060D01*
X1243D01*
X1249Y2053D01*
Y2027D01*
X1243Y2020D01*
X1229D01*
X1223Y2027D01*
Y2040D01*
X1236D01*
X1209Y2020D02*
Y2060D01*
X1183Y2020D01*
Y2060D01*
X1169D02*
Y2020D01*
X1150D01*
X1143Y2027D01*
Y2053D01*
X1150Y2060D01*
X1169D01*
X1233Y1915D02*
X1226Y1908D01*
Y1895D01*
X1233Y1888D01*
X1240D01*
X1246Y1895D01*
Y1902D01*
Y1895D01*
X1253Y1888D01*
X1260D01*
X1266Y1895D01*
Y1908D01*
X1260Y1915D01*
X1266Y1875D02*
X1260D01*
Y1868D01*
X1266D01*
Y1875D01*
X1233Y1842D02*
X1226Y1835D01*
Y1822D01*
X1233Y1815D01*
X1240D01*
X1246Y1822D01*
Y1828D01*
Y1822D01*
X1253Y1815D01*
X1260D01*
X1266Y1822D01*
Y1835D01*
X1260Y1842D01*
X1226Y1802D02*
X1253D01*
X1266Y1788D01*
X1253Y1775D01*
X1226D01*
Y1762D02*
X1266D01*
Y1742D01*
X1260Y1735D01*
X1233D01*
X1226Y1742D01*
Y1762D01*
Y1722D02*
X1266D01*
Y1702D01*
X1260Y1695D01*
X1233D01*
X1226Y1702D01*
Y1722D01*
X1824Y1647D02*
Y1607D01*
X1804D01*
X1797Y1614D01*
Y1620D01*
X1804Y1627D01*
X1824D01*
X1804D01*
X1797Y1634D01*
Y1640D01*
X1804Y1647D01*
X1824D01*
X1784Y1607D02*
Y1634D01*
X1771Y1647D01*
X1757Y1634D01*
Y1607D01*
Y1627D01*
X1784D01*
X1744Y1607D02*
Y1647D01*
X1717Y1607D01*
Y1647D01*
X1704D02*
Y1607D01*
Y1620D01*
X1677Y1647D01*
X1697Y1627D01*
X1677Y1607D01*
X1664D02*
X1651D01*
X1657D01*
Y1647D01*
X1664Y1640D01*
X1631Y1600D02*
X1604D01*
X1591Y1647D02*
Y1620D01*
X1577Y1607D01*
X1564Y1620D01*
Y1647D01*
X1551Y1607D02*
Y1647D01*
X1531D01*
X1524Y1640D01*
Y1627D01*
X1531Y1620D01*
X1551D01*
X1537D02*
X1524Y1607D01*
X1484Y1647D02*
X1511D01*
Y1607D01*
X1484D01*
X1511Y1627D02*
X1497D01*
X1444Y1647D02*
X1471D01*
Y1627D01*
X1457D01*
X1471D01*
Y1607D01*
X1391Y2116D02*
X1398Y2123D01*
X1411D01*
X1418Y2116D01*
Y2110D01*
X1411Y2103D01*
X1398D01*
X1391Y2096D01*
Y2090D01*
X1398Y2083D01*
X1411D01*
X1418Y2090D01*
X1378Y2123D02*
Y2116D01*
X1365Y2103D01*
X1351Y2116D01*
Y2123D01*
X1365Y2103D02*
Y2083D01*
X1311Y2116D02*
X1318Y2123D01*
X1331D01*
X1338Y2116D01*
Y2110D01*
X1331Y2103D01*
X1318D01*
X1311Y2096D01*
Y2090D01*
X1318Y2083D01*
X1331D01*
X1338Y2090D01*
X1298Y2076D02*
X1271D01*
X1231Y2116D02*
X1238Y2123D01*
X1251D01*
X1258Y2116D01*
Y2090D01*
X1251Y2083D01*
X1238D01*
X1231Y2090D01*
X1218Y2123D02*
Y2083D01*
X1191D01*
X1178Y2123D02*
Y2083D01*
Y2096D01*
X1151Y2123D01*
X1171Y2103D01*
X1151Y2083D01*
X1118D02*
Y2123D01*
X1138Y2103D01*
X1111D01*
X1418Y3627D02*
X1392D01*
X1378Y3640D01*
X1392Y3654D01*
X1418D01*
Y3667D02*
X1378D01*
Y3687D01*
X1385Y3694D01*
X1412D01*
X1418Y3687D01*
Y3667D01*
X1412Y3734D02*
X1418Y3727D01*
Y3714D01*
X1412Y3707D01*
X1385D01*
X1378Y3714D01*
Y3727D01*
X1385Y3734D01*
X1504Y3622D02*
X1511Y3629D01*
Y3642D01*
X1504Y3649D01*
X1498D01*
X1491Y3642D01*
Y3635D01*
Y3642D01*
X1484Y3649D01*
X1478D01*
X1471Y3642D01*
Y3629D01*
X1478Y3622D01*
X1471Y3662D02*
X1478D01*
Y3669D01*
X1471D01*
Y3662D01*
X1504Y3695D02*
X1511Y3702D01*
Y3715D01*
X1504Y3722D01*
X1498D01*
X1491Y3715D01*
Y3709D01*
Y3715D01*
X1484Y3722D01*
X1478D01*
X1471Y3715D01*
Y3702D01*
X1478Y3695D01*
X1511Y3735D02*
X1484D01*
X1471Y3749D01*
X1484Y3762D01*
X1511D01*
Y3775D02*
X1471D01*
Y3795D01*
X1478Y3802D01*
X1504D01*
X1511Y3795D01*
Y3775D01*
Y3815D02*
X1471D01*
Y3835D01*
X1478Y3842D01*
X1504D01*
X1511Y3835D01*
Y3815D01*
X1307Y3314D02*
Y3341D01*
X1320Y3327D02*
X1294D01*
X1287Y3354D02*
Y3367D01*
Y3361D01*
X1327D01*
X1320Y3354D01*
X1287Y3387D02*
X1294D01*
Y3394D01*
X1287D01*
Y3387D01*
Y3447D02*
Y3421D01*
X1314Y3447D01*
X1320D01*
X1327Y3441D01*
Y3427D01*
X1320Y3421D01*
X1327Y3461D02*
X1300D01*
X1287Y3474D01*
X1300Y3487D01*
X1327D01*
Y3501D02*
X1287D01*
Y3521D01*
X1294Y3527D01*
X1320D01*
X1327Y3521D01*
Y3501D01*
Y3541D02*
X1287D01*
Y3561D01*
X1294Y3567D01*
X1320D01*
X1327Y3561D01*
Y3541D01*
X1375Y3335D02*
X1382Y3328D01*
Y3315D01*
X1375Y3308D01*
X1369D01*
X1362Y3315D01*
Y3328D01*
X1355Y3335D01*
X1349D01*
X1342Y3328D01*
Y3315D01*
X1349Y3308D01*
X1382Y3348D02*
X1375D01*
X1362Y3361D01*
X1375Y3375D01*
X1382D01*
X1362Y3361D02*
X1342D01*
X1375Y3415D02*
X1382Y3408D01*
Y3395D01*
X1375Y3388D01*
X1369D01*
X1362Y3395D01*
Y3408D01*
X1355Y3415D01*
X1349D01*
X1342Y3408D01*
Y3395D01*
X1349Y3388D01*
X1335Y3428D02*
Y3455D01*
X1375Y3495D02*
X1382Y3488D01*
Y3475D01*
X1375Y3468D01*
X1349D01*
X1342Y3475D01*
Y3488D01*
X1349Y3495D01*
X1382Y3508D02*
X1342D01*
Y3535D01*
X1382Y3548D02*
X1342D01*
X1355D01*
X1382Y3575D01*
X1362Y3555D01*
X1342Y3575D01*
X1382Y3615D02*
Y3588D01*
X1362D01*
X1369Y3601D01*
Y3608D01*
X1362Y3615D01*
X1349D01*
X1342Y3608D01*
Y3595D01*
X1349Y3588D01*
X1438Y3308D02*
X1405D01*
X1398Y3315D01*
Y3328D01*
X1405Y3335D01*
X1438D01*
X1432Y3375D02*
X1438Y3368D01*
Y3355D01*
X1432Y3348D01*
X1425D01*
X1418Y3355D01*
Y3368D01*
X1412Y3375D01*
X1405D01*
X1398Y3368D01*
Y3355D01*
X1405Y3348D01*
X1438Y3388D02*
X1398D01*
Y3408D01*
X1405Y3415D01*
X1412D01*
X1418Y3408D01*
Y3388D01*
Y3408D01*
X1425Y3415D01*
X1432D01*
X1438Y3408D01*
Y3388D01*
X1392Y3428D02*
Y3455D01*
X1432Y3495D02*
X1438Y3488D01*
Y3475D01*
X1432Y3468D01*
X1425D01*
X1418Y3475D01*
Y3488D01*
X1412Y3495D01*
X1405D01*
X1398Y3488D01*
Y3475D01*
X1405Y3468D01*
X1432Y3535D02*
X1438Y3528D01*
Y3515D01*
X1432Y3508D01*
X1405D01*
X1398Y3515D01*
Y3528D01*
X1405Y3535D01*
X1438Y3548D02*
X1398D01*
Y3575D01*
X1495Y3308D02*
X1462D01*
X1455Y3315D01*
Y3328D01*
X1462Y3335D01*
X1495D01*
X1488Y3375D02*
X1495Y3368D01*
Y3355D01*
X1488Y3348D01*
X1482D01*
X1475Y3355D01*
Y3368D01*
X1468Y3375D01*
X1462D01*
X1455Y3368D01*
Y3355D01*
X1462Y3348D01*
X1495Y3388D02*
X1455D01*
Y3408D01*
X1462Y3415D01*
X1468D01*
X1475Y3408D01*
Y3388D01*
Y3408D01*
X1482Y3415D01*
X1488D01*
X1495Y3408D01*
Y3388D01*
X1448Y3428D02*
Y3455D01*
X1488Y3495D02*
X1495Y3488D01*
Y3475D01*
X1488Y3468D01*
X1482D01*
X1475Y3475D01*
Y3488D01*
X1468Y3495D01*
X1462D01*
X1455Y3488D01*
Y3475D01*
X1462Y3468D01*
X1495Y3508D02*
X1455D01*
Y3528D01*
X1462Y3535D01*
X1488D01*
X1495Y3528D01*
Y3508D01*
X1455Y3548D02*
X1482D01*
X1495Y3561D01*
X1482Y3575D01*
X1455D01*
X1475D01*
Y3548D01*
X1510Y3309D02*
X1536D01*
X1549Y3322D01*
X1536Y3336D01*
X1510D01*
X1529D01*
Y3309D01*
X1543Y3376D02*
X1549Y3369D01*
Y3356D01*
X1543Y3349D01*
X1516D01*
X1510Y3356D01*
Y3369D01*
X1516Y3376D01*
X1529D01*
Y3362D01*
X1510Y3389D02*
X1549D01*
X1510Y3416D01*
X1549D01*
Y3429D02*
X1510D01*
Y3449D01*
X1516Y3456D01*
X1543D01*
X1549Y3449D01*
Y3429D01*
X2821Y3191D02*
Y3218D01*
X2808Y3231D01*
X2794Y3218D01*
Y3191D01*
Y3211D01*
X2821D01*
X2781Y3231D02*
Y3205D01*
X2768Y3191D01*
X2754Y3205D01*
Y3231D01*
X2741D02*
Y3191D01*
X2721D01*
X2714Y3198D01*
Y3225D01*
X2721Y3231D01*
X2741D01*
X2701D02*
Y3191D01*
X2681D01*
X2674Y3198D01*
Y3225D01*
X2681Y3231D01*
X2701D01*
X2661Y3225D02*
X2654Y3231D01*
X2641D01*
X2634Y3225D01*
Y3218D01*
X2641Y3211D01*
X2648D01*
X2641D01*
X2634Y3205D01*
Y3198D01*
X2641Y3191D01*
X2654D01*
X2661Y3198D01*
X2621Y3225D02*
X2614Y3231D01*
X2601D01*
X2594Y3225D01*
Y3218D01*
X2601Y3211D01*
X2608D01*
X2601D01*
X2594Y3205D01*
Y3198D01*
X2601Y3191D01*
X2614D01*
X2621Y3198D01*
X1970Y2811D02*
X1930D01*
Y2831D01*
X1937Y2838D01*
X1963D01*
X1970Y2831D01*
Y2811D01*
Y2851D02*
X1943D01*
X1930Y2865D01*
X1943Y2878D01*
X1970D01*
Y2891D02*
X1930D01*
Y2911D01*
X1937Y2918D01*
X1963D01*
X1970Y2911D01*
Y2891D01*
Y2931D02*
X1930D01*
Y2951D01*
X1937Y2958D01*
X1963D01*
X1970Y2951D01*
Y2931D01*
X1963Y2971D02*
X1970Y2978D01*
Y2991D01*
X1963Y2998D01*
X1957D01*
X1950Y2991D01*
Y2984D01*
Y2991D01*
X1943Y2998D01*
X1937D01*
X1930Y2991D01*
Y2978D01*
X1937Y2971D01*
X1963Y3011D02*
X1970Y3018D01*
Y3031D01*
X1963Y3038D01*
X1957D01*
X1950Y3031D01*
Y3024D01*
Y3031D01*
X1943Y3038D01*
X1937D01*
X1930Y3031D01*
Y3018D01*
X1937Y3011D01*
X2132Y2048D02*
X2145D01*
X2152Y2041D01*
Y2015D01*
X2145Y2008D01*
X2132D01*
X2125Y2015D01*
Y2041D01*
X2132Y2048D01*
X2112D02*
Y2021D01*
X2099Y2008D01*
X2085Y2021D01*
Y2048D01*
X2072D02*
Y2008D01*
X2052D01*
X2045Y2015D01*
Y2041D01*
X2052Y2048D01*
X2072D01*
X2032D02*
Y2008D01*
X2012D01*
X2005Y2015D01*
Y2041D01*
X2012Y2048D01*
X2032D01*
X1442Y953D02*
X1415D01*
X1429Y966D02*
Y940D01*
X1375Y973D02*
X1402D01*
Y953D01*
X1389Y960D01*
X1382D01*
X1375Y953D01*
Y940D01*
X1382Y933D01*
X1395D01*
X1402Y940D01*
X791Y405D02*
X764D01*
X778Y418D02*
Y392D01*
X751Y385D02*
X738D01*
X744D01*
Y425D01*
X751Y418D01*
X691Y385D02*
X718D01*
X691Y412D01*
Y418D01*
X698Y425D01*
X711D01*
X718Y418D01*
X1365Y407D02*
X1338D01*
X1325Y387D02*
X1312D01*
X1318D01*
Y427D01*
X1325Y420D01*
X1265Y387D02*
X1292D01*
X1265Y414D01*
Y420D01*
X1272Y427D01*
X1285D01*
X1292Y420D01*
X1596Y1386D02*
Y1413D01*
X1583Y1426D01*
X1569Y1413D01*
Y1386D01*
Y1406D01*
X1596D01*
X1556Y1426D02*
Y1399D01*
X1543Y1386D01*
X1529Y1399D01*
Y1426D01*
X1516D02*
Y1386D01*
X1496D01*
X1489Y1393D01*
Y1419D01*
X1496Y1426D01*
X1516D01*
X1476D02*
Y1386D01*
X1456D01*
X1449Y1393D01*
Y1419D01*
X1456Y1426D01*
X1476D01*
X1436Y1386D02*
X1423D01*
X1429D01*
Y1426D01*
X1436Y1419D01*
X1403D02*
X1396Y1426D01*
X1383D01*
X1376Y1419D01*
Y1413D01*
X1383Y1406D01*
X1376Y1399D01*
Y1393D01*
X1383Y1386D01*
X1396D01*
X1403Y1393D01*
Y1399D01*
X1396Y1406D01*
X1403Y1413D01*
Y1419D01*
X1396Y1406D02*
X1383D01*
X1220Y1550D02*
Y1577D01*
X1207Y1590D01*
X1193Y1577D01*
Y1550D01*
Y1570D01*
X1220D01*
X1180Y1590D02*
Y1563D01*
X1167Y1550D01*
X1153Y1563D01*
Y1590D01*
X1140Y1550D02*
X1127D01*
X1133D01*
Y1590D01*
X1140Y1583D01*
X1107D02*
X1100Y1590D01*
X1087D01*
X1080Y1583D01*
Y1577D01*
X1087Y1570D01*
X1080Y1563D01*
Y1557D01*
X1087Y1550D01*
X1100D01*
X1107Y1557D01*
Y1563D01*
X1100Y1570D01*
X1107Y1577D01*
Y1583D01*
X1100Y1570D02*
X1087D01*
X547Y2680D02*
X520D01*
X534Y2693D02*
Y2667D01*
X507Y2660D02*
X494D01*
X500D01*
Y2700D01*
X507Y2693D01*
X447Y2660D02*
X474D01*
X447Y2687D01*
Y2693D01*
X454Y2700D01*
X467D01*
X474Y2693D01*
X1022Y2631D02*
X995D01*
X982Y2611D02*
X969D01*
X975D01*
Y2651D01*
X982Y2644D01*
X922Y2611D02*
X949D01*
X922Y2638D01*
Y2644D01*
X929Y2651D01*
X942D01*
X949Y2644D01*
X604Y3295D02*
Y3255D01*
X584D01*
X577Y3262D01*
Y3288D01*
X584Y3295D01*
X604D01*
X564D02*
Y3268D01*
X551Y3255D01*
X537Y3268D01*
Y3295D01*
X524D02*
Y3255D01*
X504D01*
X497Y3262D01*
Y3288D01*
X504Y3295D01*
X524D01*
X484D02*
Y3255D01*
X464D01*
X457Y3262D01*
Y3288D01*
X464Y3295D01*
X484D01*
X417Y3255D02*
X444D01*
X417Y3282D01*
Y3288D01*
X424Y3295D01*
X437D01*
X444Y3288D01*
X377Y3295D02*
X404D01*
Y3275D01*
X391Y3282D01*
X384D01*
X377Y3275D01*
Y3262D01*
X384Y3255D01*
X397D01*
X404Y3262D01*
X1072Y3347D02*
X1079Y3354D01*
X1092D01*
X1099Y3347D01*
Y3321D01*
X1092Y3314D01*
X1079D01*
X1072Y3321D01*
X1059Y3354D02*
Y3327D01*
X1046Y3314D01*
X1032Y3327D01*
Y3354D01*
X1019D02*
Y3314D01*
X999D01*
X992Y3321D01*
Y3347D01*
X999Y3354D01*
X1019D01*
X979D02*
Y3314D01*
X959D01*
X952Y3321D01*
Y3347D01*
X959Y3354D01*
X979D01*
X939Y3314D02*
X926D01*
X932D01*
Y3354D01*
X939Y3347D01*
X906D02*
X899Y3354D01*
X886D01*
X879Y3347D01*
Y3341D01*
X886Y3334D01*
X879Y3327D01*
Y3321D01*
X886Y3314D01*
X899D01*
X906Y3321D01*
Y3327D01*
X899Y3334D01*
X906Y3341D01*
Y3347D01*
X899Y3334D02*
X886D01*
X1265Y3176D02*
Y3136D01*
X1245D01*
X1238Y3143D01*
Y3169D01*
X1245Y3176D01*
X1265D01*
X1225D02*
Y3149D01*
X1212Y3136D01*
X1198Y3149D01*
Y3176D01*
X1185D02*
Y3136D01*
X1165D01*
X1158Y3143D01*
Y3169D01*
X1165Y3176D01*
X1185D01*
X1145D02*
Y3136D01*
X1125D01*
X1118Y3143D01*
Y3169D01*
X1125Y3176D01*
X1145D01*
X1105Y3136D02*
X1092D01*
X1098D01*
Y3176D01*
X1105Y3169D01*
X1072D02*
X1065Y3176D01*
X1052D01*
X1045Y3169D01*
Y3163D01*
X1052Y3156D01*
X1045Y3149D01*
Y3143D01*
X1052Y3136D01*
X1065D01*
X1072Y3143D01*
Y3149D01*
X1065Y3156D01*
X1072Y3163D01*
Y3169D01*
X1065Y3156D02*
X1052D01*
X1680Y2038D02*
X1720D01*
X1707Y2025D01*
X1720Y2011D01*
X1680D01*
X1720Y1998D02*
X1680D01*
Y1978D01*
X1687Y1971D01*
X1700D01*
X1707Y1978D01*
Y1998D01*
Y1985D02*
X1720Y1971D01*
Y1931D02*
Y1958D01*
X1693Y1931D01*
X1687D01*
X1680Y1938D01*
Y1951D01*
X1687Y1958D01*
X1727Y1918D02*
Y1891D01*
X1680Y1878D02*
Y1865D01*
Y1871D01*
X1720D01*
Y1878D01*
Y1865D01*
Y1845D02*
X1680D01*
X1720Y1818D01*
X1680D01*
X1617Y2036D02*
X1657D01*
X1644Y2023D01*
X1657Y2009D01*
X1617D01*
X1657Y1996D02*
X1617D01*
Y1976D01*
X1624Y1969D01*
X1637D01*
X1644Y1976D01*
Y1996D01*
Y1983D02*
X1657Y1969D01*
Y1956D02*
Y1943D01*
Y1949D01*
X1617D01*
X1624Y1956D01*
X1664Y1923D02*
Y1896D01*
X1617Y1883D02*
Y1869D01*
Y1876D01*
X1657D01*
Y1883D01*
Y1869D01*
Y1849D02*
X1617D01*
X1657Y1823D01*
X1617D01*
X1599Y2037D02*
X1572D01*
X1559Y2024D01*
X1572Y2010D01*
X1599D01*
X1579D01*
Y2037D01*
X1566Y1997D02*
X1559Y1990D01*
Y1977D01*
X1566Y1970D01*
X1592D01*
X1599Y1977D01*
Y1990D01*
X1592Y1997D01*
X1566D01*
X1606Y1957D02*
Y1930D01*
X1559Y1917D02*
Y1904D01*
Y1910D01*
X1599D01*
Y1917D01*
Y1904D01*
Y1884D02*
X1559D01*
X1599Y1857D01*
X1559D01*
X1544Y2022D02*
X1517D01*
X1504Y2009D01*
X1517Y1995D01*
X1544D01*
X1524D01*
Y2022D01*
X1544Y1982D02*
Y1969D01*
Y1975D01*
X1504D01*
X1511Y1982D01*
X1551Y1949D02*
Y1922D01*
X1504Y1909D02*
Y1895D01*
Y1902D01*
X1544D01*
Y1909D01*
Y1895D01*
Y1875D02*
X1504D01*
X1544Y1849D01*
X1504D01*
X576Y4216D02*
Y4243D01*
X589Y4229D02*
X563D01*
X746Y4474D02*
Y4501D01*
X759Y4487D02*
X733D01*
X1144Y4566D02*
Y4593D01*
X1157Y4579D02*
X1131D01*
X1238Y4186D02*
Y4213D01*
X1251Y4199D02*
X1225D01*
X865Y4058D02*
Y4085D01*
X878Y4071D02*
X852D01*
X895Y4036D02*
Y4063D01*
X908Y4049D02*
X882D01*
X786Y3857D02*
Y3884D01*
X799Y3870D02*
X773D01*
X898Y3570D02*
Y3597D01*
X911Y3583D02*
X885D01*
X1275Y3614D02*
Y3641D01*
X1288Y3627D02*
X1262D01*
X335Y3178D02*
Y3205D01*
X348Y3191D02*
X322D01*
X1004Y3002D02*
Y3029D01*
X1017Y3015D02*
X991D01*
X1622Y3176D02*
Y3203D01*
X1635Y3189D02*
X1609D01*
X2342Y3181D02*
Y3208D01*
X2355Y3194D02*
X2329D01*
X1480Y2478D02*
Y2505D01*
X1493Y2491D02*
X1467D01*
X1943Y2116D02*
Y2143D01*
X1956Y2129D02*
X1930D01*
X439Y2599D02*
Y2626D01*
X452Y2612D02*
X426D01*
X939Y2311D02*
Y2338D01*
X952Y2324D02*
X926D01*
X657Y1787D02*
Y1814D01*
X670Y1800D02*
X644D01*
X1327Y1367D02*
Y1394D01*
X1340Y1380D02*
X1314D01*
X1326Y917D02*
Y944D01*
X1339Y930D02*
X1313D01*
X668Y516D02*
Y543D01*
X681Y529D02*
X655D01*
X1239Y230D02*
Y257D01*
X1252Y243D02*
X1226D01*
X986Y3244D02*
Y3271D01*
X999Y3257D02*
X973D01*
X4000Y-0D02*
Y5500D01*
X1193D02*
X4000D01*
X0Y1681D02*
Y3650D01*
X753Y-0D02*
X4000D01*
X0D02*
Y1681D01*
Y-0D02*
X753D01*
X0Y5500D02*
X1193D01*
X0Y3650D02*
Y5500D01*
D17*
X2201Y726D02*
G03*
X2189Y726I-6J0D01*
G01*
X1730D02*
G03*
X1718Y726I-6J0D01*
G01*
X1672Y2475D02*
G03*
X1684Y2475I6J0D01*
G01*
X852Y1637D02*
G03*
X864Y1637I6J0D01*
G01*
X1672Y3052D02*
G03*
X1684Y3052I6J0D01*
G01*
X2384D02*
G03*
X2396Y3052I6J0D01*
G01*
X383D02*
G03*
X395Y3052I6J0D01*
G01*
X2135Y726D02*
X2189D01*
X2201D02*
X2255D01*
Y744D01*
X2135Y726D02*
Y744D01*
Y869D02*
X2255D01*
X2135Y854D02*
Y869D01*
X2255Y854D02*
Y869D01*
X1664Y726D02*
X1718D01*
X1730D02*
X1784D01*
Y744D01*
X1664Y726D02*
Y744D01*
Y869D02*
X1784D01*
X1664Y854D02*
Y869D01*
X1784Y854D02*
Y869D01*
X1618Y2332D02*
Y2347D01*
X1738Y2332D02*
Y2347D01*
X1618Y2332D02*
X1738D01*
Y2457D02*
Y2475D01*
X1618Y2457D02*
Y2475D01*
X1672D01*
X1684D02*
X1738D01*
X798Y1494D02*
Y1509D01*
X918Y1494D02*
Y1509D01*
X798Y1494D02*
X918D01*
Y1619D02*
Y1637D01*
X798Y1619D02*
Y1637D01*
X852D01*
X864D02*
X918D01*
X1618Y2909D02*
Y2924D01*
X1738Y2909D02*
Y2924D01*
X1618Y2909D02*
X1738D01*
Y3034D02*
Y3052D01*
X1618Y3034D02*
Y3052D01*
X1672D01*
X1684D02*
X1738D01*
X2330Y2909D02*
Y2924D01*
X2450Y2909D02*
Y2924D01*
X2330Y2909D02*
X2450D01*
Y3034D02*
Y3052D01*
X2330Y3034D02*
Y3052D01*
X2384D01*
X2396D02*
X2450D01*
X329Y2909D02*
Y2924D01*
X449Y2909D02*
Y2924D01*
X329Y2909D02*
X449D01*
Y3034D02*
Y3052D01*
X329Y3034D02*
Y3052D01*
X383D01*
X395D02*
X449D01*
D21*
X430Y1420D02*
X570D01*
X430Y1655D02*
X570D01*
X430Y1420D02*
Y1495D01*
X570Y1420D02*
Y1495D01*
Y1580D02*
Y1655D01*
X430Y1580D02*
Y1655D01*
X887Y3923D02*
X962D01*
X887Y4023D02*
X962D01*
X1047D02*
X1122D01*
X1047Y3923D02*
X1122D01*
X887D02*
Y4023D01*
X1122Y3923D02*
Y4023D01*
X800Y4045D02*
X875D01*
X800Y3945D02*
X875D01*
X640D02*
X715D01*
X640Y4045D02*
X715D01*
X875Y3945D02*
Y4045D01*
X640Y3945D02*
Y4045D01*
X1455Y2390D02*
Y2465D01*
X1555Y2390D02*
Y2465D01*
Y2230D02*
Y2305D01*
X1455Y2230D02*
Y2305D01*
Y2465D02*
X1555D01*
X1455Y2230D02*
X1555D01*
X1256Y2390D02*
Y2465D01*
X1346Y2390D02*
Y2465D01*
Y2275D02*
Y2350D01*
X1256Y2275D02*
Y2350D01*
Y2465D02*
X1346D01*
X1256Y2275D02*
X1346D01*
X1449D02*
Y2350D01*
X1359Y2275D02*
Y2350D01*
Y2390D02*
Y2465D01*
X1449Y2390D02*
Y2465D01*
X1359Y2275D02*
X1449D01*
X1359Y2465D02*
X1449D01*
X1845Y2370D02*
Y2445D01*
X1945Y2370D02*
Y2445D01*
Y2210D02*
Y2285D01*
X1845Y2210D02*
Y2285D01*
Y2445D02*
X1945D01*
X1845Y2210D02*
X1945D01*
X1038Y1436D02*
X1113D01*
X1038Y1536D02*
X1113D01*
X1198D02*
X1273D01*
X1198Y1436D02*
X1273D01*
X1038D02*
Y1536D01*
X1273Y1436D02*
Y1536D01*
X593Y1774D02*
X668D01*
X593Y1674D02*
X668D01*
X433D02*
X508D01*
X433Y1774D02*
X508D01*
X668Y1674D02*
Y1774D01*
X433Y1674D02*
Y1774D01*
X2082Y2948D02*
Y3023D01*
X2172Y2948D02*
Y3023D01*
Y2833D02*
Y2908D01*
X2082Y2833D02*
Y2908D01*
Y3023D02*
X2172D01*
X2082Y2833D02*
X2172D01*
X2265Y2832D02*
Y2907D01*
X2175Y2832D02*
Y2907D01*
Y2947D02*
Y3022D01*
X2265Y2947D02*
Y3022D01*
X2175Y2832D02*
X2265D01*
X2175Y3022D02*
X2265D01*
X2240Y3192D02*
X2315D01*
X2240Y3092D02*
X2315D01*
X2080D02*
X2155D01*
X2080Y3192D02*
X2155D01*
X2315Y3092D02*
Y3192D01*
X2080Y3092D02*
Y3192D01*
X1811Y3042D02*
Y3117D01*
X1911Y3042D02*
Y3117D01*
Y2882D02*
Y2957D01*
X1811Y2882D02*
Y2957D01*
Y3117D02*
X1911D01*
X1811Y2882D02*
X1911D01*
X1368Y2948D02*
Y3023D01*
X1458Y2948D02*
Y3023D01*
Y2833D02*
Y2908D01*
X1368Y2833D02*
Y2908D01*
Y3023D02*
X1458D01*
X1368Y2833D02*
X1458D01*
X1521Y3187D02*
X1596D01*
X1521Y3087D02*
X1596D01*
X1361D02*
X1436D01*
X1361Y3187D02*
X1436D01*
X1596Y3087D02*
Y3187D01*
X1361Y3087D02*
Y3187D01*
X1551Y2832D02*
Y2907D01*
X1461Y2832D02*
Y2907D01*
Y2947D02*
Y3022D01*
X1551Y2947D02*
Y3022D01*
X1461Y2832D02*
X1551D01*
X1461Y3022D02*
X1551D01*
X1030Y2965D02*
X1105D01*
X1030Y3065D02*
X1105D01*
X1190D02*
X1265D01*
X1190Y2965D02*
X1265D01*
X1030D02*
Y3065D01*
X1265Y2965D02*
Y3065D01*
X1030Y2755D02*
X1105D01*
X1030Y2845D02*
X1105D01*
X1145D02*
X1220D01*
X1145Y2755D02*
X1220D01*
X1030D02*
Y2845D01*
X1220Y2755D02*
Y2845D01*
X1145Y2950D02*
X1220D01*
X1145Y2860D02*
X1220D01*
X1030D02*
X1105D01*
X1030Y2950D02*
X1105D01*
X1220Y2860D02*
Y2950D01*
X1030Y2860D02*
Y2950D01*
X1225Y1279D02*
Y1354D01*
X1325Y1279D02*
Y1354D01*
Y1119D02*
Y1194D01*
X1225Y1119D02*
Y1194D01*
Y1354D02*
X1325D01*
X1225Y1119D02*
X1325D01*
X885Y3255D02*
X960D01*
X885Y3155D02*
X960D01*
X725D02*
X800D01*
X725Y3255D02*
X800D01*
X960Y3155D02*
Y3255D01*
X725Y3155D02*
Y3255D01*
X885Y3035D02*
X960D01*
X885Y2945D02*
X960D01*
X770D02*
X845D01*
X770Y3035D02*
X845D01*
X960Y2945D02*
Y3035D01*
X770Y2945D02*
Y3035D01*
Y3050D02*
X845D01*
X770Y3140D02*
X845D01*
X885D02*
X960D01*
X885Y3050D02*
X960D01*
X770D02*
Y3140D01*
X960Y3050D02*
Y3140D01*
X1237Y269D02*
Y344D01*
X1137Y269D02*
Y344D01*
Y429D02*
Y504D01*
X1237Y429D02*
Y504D01*
X1137Y269D02*
X1237D01*
X1137Y504D02*
X1237D01*
X566Y428D02*
Y503D01*
X666Y428D02*
Y503D01*
Y268D02*
Y343D01*
X566Y268D02*
Y343D01*
Y503D02*
X666D01*
X566Y268D02*
X666D01*
X1224Y829D02*
Y904D01*
X1324Y829D02*
Y904D01*
Y669D02*
Y744D01*
X1224Y669D02*
Y744D01*
Y904D02*
X1324D01*
X1224Y669D02*
X1324D01*
X2515Y3077D02*
Y3152D01*
X2615Y3077D02*
Y3152D01*
Y2917D02*
Y2992D01*
X2515Y2917D02*
Y2992D01*
Y3152D02*
X2615D01*
X2515Y2917D02*
X2615D01*
X588Y1654D02*
X728D01*
X588Y1419D02*
X728D01*
Y1579D02*
Y1654D01*
X588Y1579D02*
Y1654D01*
Y1419D02*
Y1494D01*
X728Y1419D02*
Y1494D01*
X914Y669D02*
X1054D01*
X914Y904D02*
X1054D01*
X914Y669D02*
Y744D01*
X1054Y669D02*
Y744D01*
Y829D02*
Y904D01*
X914Y829D02*
Y904D01*
X1069D02*
X1209D01*
X1069Y669D02*
X1209D01*
Y829D02*
Y904D01*
X1069Y829D02*
Y904D01*
Y669D02*
Y744D01*
X1209Y669D02*
Y744D01*
X256Y268D02*
X396D01*
X256Y503D02*
X396D01*
X256Y268D02*
Y343D01*
X396Y268D02*
Y343D01*
Y428D02*
Y503D01*
X256Y428D02*
Y503D01*
X411D02*
X551D01*
X411Y268D02*
X551D01*
Y428D02*
Y503D01*
X411Y428D02*
Y503D01*
Y268D02*
Y343D01*
X551Y268D02*
Y343D01*
X827Y269D02*
X967D01*
X827Y504D02*
X967D01*
X827Y269D02*
Y344D01*
X967Y269D02*
Y344D01*
Y429D02*
Y504D01*
X827Y429D02*
Y504D01*
X982D02*
X1122D01*
X982Y269D02*
X1122D01*
Y429D02*
Y504D01*
X982Y429D02*
Y504D01*
Y269D02*
Y344D01*
X1122Y269D02*
Y344D01*
X915Y1119D02*
X1055D01*
X915Y1354D02*
X1055D01*
X915Y1119D02*
Y1194D01*
X1055Y1119D02*
Y1194D01*
Y1279D02*
Y1354D01*
X915Y1279D02*
Y1354D01*
X1070D02*
X1210D01*
X1070Y1119D02*
X1210D01*
Y1279D02*
Y1354D01*
X1070Y1279D02*
Y1354D01*
Y1119D02*
Y1194D01*
X1210Y1119D02*
Y1194D01*
X193Y4277D02*
Y4352D01*
X283Y4277D02*
Y4352D01*
Y4162D02*
Y4237D01*
X193Y4162D02*
Y4237D01*
Y4352D02*
X283D01*
X193Y4162D02*
X283D01*
X1170Y4477D02*
X1245D01*
X1170Y4577D02*
X1245D01*
X1330D02*
X1405D01*
X1330Y4477D02*
X1405D01*
X1170D02*
Y4577D01*
X1405Y4477D02*
Y4577D01*
X71Y2950D02*
Y3025D01*
X161Y2950D02*
Y3025D01*
Y2835D02*
Y2910D01*
X71Y2835D02*
Y2910D01*
Y3025D02*
X161D01*
X71Y2835D02*
X161D01*
X519Y3069D02*
Y3144D01*
X619Y3069D02*
Y3144D01*
Y2909D02*
Y2984D01*
X519Y2909D02*
Y2984D01*
Y3144D02*
X619D01*
X519Y2909D02*
X619D01*
X234Y3189D02*
X309D01*
X234Y3089D02*
X309D01*
X74D02*
X149D01*
X74Y3189D02*
X149D01*
X309Y3089D02*
Y3189D01*
X74Y3089D02*
Y3189D01*
X264Y2835D02*
Y2910D01*
X174Y2835D02*
Y2910D01*
Y2950D02*
Y3025D01*
X264Y2950D02*
Y3025D01*
X174Y2835D02*
X264D01*
X174Y3025D02*
X264D01*
X1969Y2131D02*
X2044D01*
X1969Y2231D02*
X2044D01*
X2129D02*
X2204D01*
X2129Y2131D02*
X2204D01*
X1969D02*
Y2231D01*
X2204Y2131D02*
Y2231D01*
X1974Y2353D02*
X2049D01*
X1974Y2443D02*
X2049D01*
X2089D02*
X2164D01*
X2089Y2353D02*
X2164D01*
X1974D02*
Y2443D01*
X2164Y2353D02*
Y2443D01*
X2086Y2335D02*
X2161D01*
X2086Y2245D02*
X2161D01*
X1971D02*
X2046D01*
X1971Y2335D02*
X2046D01*
X2161Y2245D02*
Y2335D01*
X1971Y2245D02*
Y2335D01*
X1273Y3654D02*
Y3729D01*
X1173Y3654D02*
Y3729D01*
Y3814D02*
Y3889D01*
X1273Y3814D02*
Y3889D01*
X1173Y3654D02*
X1273D01*
X1173Y3889D02*
X1273D01*
X924Y3585D02*
X999D01*
X924Y3685D02*
X999D01*
X1084D02*
X1159D01*
X1084Y3585D02*
X1159D01*
X924D02*
Y3685D01*
X1159Y3585D02*
Y3685D01*
X748Y4386D02*
Y4461D01*
X848Y4386D02*
Y4461D01*
Y4226D02*
Y4301D01*
X748Y4226D02*
Y4301D01*
Y4461D02*
X848D01*
X748Y4226D02*
X848D01*
X1236D02*
Y4301D01*
X1136Y4226D02*
Y4301D01*
Y4386D02*
Y4461D01*
X1236Y4386D02*
Y4461D01*
X1136Y4226D02*
X1236D01*
X1136Y4461D02*
X1236D01*
X812Y3824D02*
X887D01*
X812Y3924D02*
X887D01*
X972D02*
X1047D01*
X972Y3824D02*
X1047D01*
X812D02*
Y3924D01*
X1047Y3824D02*
Y3924D01*
X937Y2351D02*
Y2426D01*
X837Y2351D02*
Y2426D01*
Y2511D02*
Y2586D01*
X937Y2511D02*
Y2586D01*
X837Y2351D02*
X937D01*
X837Y2586D02*
X937D01*
X527Y2351D02*
X667D01*
X527Y2586D02*
X667D01*
X527Y2351D02*
Y2426D01*
X667Y2351D02*
Y2426D01*
Y2511D02*
Y2586D01*
X527Y2511D02*
Y2586D01*
X682D02*
X822D01*
X682Y2351D02*
X822D01*
Y2511D02*
Y2586D01*
X682Y2511D02*
Y2586D01*
Y2351D02*
Y2426D01*
X822Y2351D02*
Y2426D01*
X337Y2511D02*
Y2586D01*
X437Y2511D02*
Y2586D01*
Y2351D02*
Y2426D01*
X337Y2351D02*
Y2426D01*
Y2586D02*
X437D01*
X337Y2351D02*
X437D01*
X27D02*
X167D01*
X27Y2586D02*
X167D01*
X27Y2351D02*
Y2426D01*
X167Y2351D02*
Y2426D01*
Y2511D02*
Y2586D01*
X27Y2511D02*
Y2586D01*
X182D02*
X322D01*
X182Y2351D02*
X322D01*
Y2511D02*
Y2586D01*
X182Y2511D02*
Y2586D01*
Y2351D02*
Y2426D01*
X322Y2351D02*
Y2426D01*
M02*
