G04 Layer_Color=2752767*
%FSLAX23Y23*%
%MOIN*%
G70*
G01*
G75*
D15*
X4000Y-0D02*
Y5500D01*
X1193D02*
X4000D01*
X0Y1681D02*
Y3650D01*
X753Y-0D02*
X4000D01*
X0D02*
Y1681D01*
Y-0D02*
X753D01*
X0Y5500D02*
X1193D01*
X0Y3650D02*
Y5500D01*
D207*
X2397Y166D02*
Y182D01*
X2413D01*
Y166D01*
X2397D01*
X1647D02*
Y182D01*
X1663D01*
Y166D01*
X1647D01*
X714Y869D02*
X706Y885D01*
X722D01*
X714Y869D01*
Y1263D02*
X706Y1279D01*
X722D01*
X714Y1263D01*
X289Y990D02*
X293Y994D01*
X297D01*
X293Y998D01*
X297Y1002D01*
X293D01*
X289Y1006D01*
X285Y1002D01*
X281D01*
X285Y998D01*
X281Y994D01*
X285D01*
X289Y990D01*
Y1090D02*
X293Y1094D01*
X297D01*
X293Y1098D01*
X297Y1102D01*
X293D01*
X289Y1106D01*
X285Y1102D01*
X281D01*
X285Y1098D01*
X281Y1094D01*
X285D01*
X289Y1090D01*
Y890D02*
X293Y894D01*
X297D01*
X293Y898D01*
X297Y902D01*
X293D01*
X289Y906D01*
X285Y902D01*
X281D01*
X285Y898D01*
X281Y894D01*
X285D01*
X289Y890D01*
Y790D02*
X293Y794D01*
X297D01*
X293Y798D01*
X297Y802D01*
X293D01*
X289Y806D01*
X285Y802D01*
X281D01*
X285Y798D01*
X281Y794D01*
X285D01*
X289Y790D01*
X1953Y1315D02*
X1957Y1323D01*
X1953Y1331D01*
X1961Y1327D01*
X1969Y1331D01*
X1965Y1323D01*
X1969Y1315D01*
X1961Y1319D01*
X1953Y1315D01*
X2615Y3529D02*
Y3524D01*
X2623D01*
Y3529D01*
X2627D01*
Y3536D01*
X2623D01*
Y3540D01*
X2615D01*
Y3536D01*
X2611D01*
Y3529D01*
X2615D01*
X1258D02*
Y3524D01*
X1265D01*
Y3529D01*
X1270D01*
Y3536D01*
X1265D01*
Y3540D01*
X1258D01*
Y3536D01*
X1253D01*
Y3529D01*
X1258D01*
X484Y4872D02*
Y4888D01*
X500D01*
Y4872D01*
X484D01*
X155Y4924D02*
X159Y4928D01*
X163D01*
X159Y4932D01*
X163Y4936D01*
X159D01*
X155Y4940D01*
X151Y4936D01*
X147D01*
X151Y4932D01*
X147Y4928D01*
X151D01*
X155Y4924D01*
Y4824D02*
X159Y4828D01*
X163D01*
X159Y4832D01*
X163Y4836D01*
X159D01*
X155Y4840D01*
X151Y4836D01*
X147D01*
X151Y4832D01*
X147Y4828D01*
X151D01*
X155Y4824D01*
X3622Y3282D02*
X3626D01*
X3630Y3286D01*
X3634Y3282D01*
X3638D01*
Y3286D01*
X3634Y3290D01*
X3638Y3294D01*
Y3298D01*
X3634D01*
X3630Y3294D01*
X3626Y3298D01*
X3622D01*
Y3294D01*
X3626Y3290D01*
X3622Y3286D01*
Y3282D01*
X3122D02*
X3126D01*
X3130Y3286D01*
X3134Y3282D01*
X3138D01*
Y3286D01*
X3134Y3290D01*
X3138Y3294D01*
Y3298D01*
X3134D01*
X3130Y3294D01*
X3126Y3298D01*
X3122D01*
Y3294D01*
X3126Y3290D01*
X3122Y3286D01*
Y3282D01*
X3772Y1666D02*
X3780Y1674D01*
X3788Y1666D01*
X3780Y1658D01*
X3772Y1666D01*
Y1866D02*
X3780Y1874D01*
X3788Y1866D01*
X3780Y1858D01*
X3772Y1866D01*
Y1766D02*
X3780Y1774D01*
X3788Y1766D01*
X3780Y1758D01*
X3772Y1766D01*
X3622Y232D02*
X3626D01*
X3630Y236D01*
X3634Y232D01*
X3638D01*
Y236D01*
X3634Y240D01*
X3638Y244D01*
Y248D01*
X3634D01*
X3630Y244D01*
X3626Y248D01*
X3622D01*
Y244D01*
X3626Y240D01*
X3622Y236D01*
Y232D01*
X3122D02*
X3126D01*
X3130Y236D01*
X3134Y232D01*
X3138D01*
Y236D01*
X3134Y240D01*
X3138Y244D01*
Y248D01*
X3134D01*
X3130Y244D01*
X3126Y248D01*
X3122D01*
Y244D01*
X3126Y240D01*
X3122Y236D01*
Y232D01*
X3472Y1666D02*
X3480Y1674D01*
X3488Y1666D01*
X3480Y1658D01*
X3472Y1666D01*
Y1866D02*
X3480Y1874D01*
X3488Y1866D01*
X3480Y1858D01*
X3472Y1866D01*
Y1766D02*
X3480Y1774D01*
X3488Y1766D01*
X3480Y1758D01*
X3472Y1766D01*
X3172Y1666D02*
X3180Y1674D01*
X3188Y1666D01*
X3180Y1658D01*
X3172Y1666D01*
Y1866D02*
X3180Y1874D01*
X3188Y1866D01*
X3180Y1858D01*
X3172Y1866D01*
Y1766D02*
X3180Y1774D01*
X3188Y1766D01*
X3180Y1758D01*
X3172Y1766D01*
X152Y5277D02*
Y5293D01*
X168D01*
Y5277D01*
X152D01*
X156Y5281D02*
Y5289D01*
X164D01*
Y5281D01*
X156D01*
X152Y577D02*
Y593D01*
X168D01*
Y577D01*
X152D01*
X156Y581D02*
Y589D01*
X164D01*
Y581D01*
X156D01*
X2787Y577D02*
Y593D01*
X2803D01*
Y577D01*
X2787D01*
X2791Y581D02*
Y589D01*
X2799D01*
Y581D01*
X2791D01*
X2787Y5277D02*
Y5293D01*
X2803D01*
Y5277D01*
X2787D01*
X2791Y5281D02*
Y5289D01*
X2799D01*
Y5281D01*
X2791D01*
X1984Y4874D02*
Y4890D01*
X2000D01*
Y4874D01*
X1984D01*
X2734D02*
Y4890D01*
X2750D01*
Y4874D01*
X2734D01*
X1234Y4872D02*
Y4888D01*
X1250D01*
Y4872D01*
X1234D01*
X2615Y1954D02*
Y1949D01*
X2623D01*
Y1954D01*
X2627D01*
Y1962D01*
X2623D01*
Y1965D01*
X2615D01*
Y1962D01*
X2611D01*
Y1954D01*
X2615D01*
X1258D02*
Y1949D01*
X1265D01*
Y1954D01*
X1270D01*
Y1962D01*
X1265D01*
Y1965D01*
X1258D01*
Y1962D01*
X1253D01*
Y1954D01*
X1258D01*
X290Y4222D02*
X282Y4238D01*
X298D01*
X290Y4222D01*
Y4226D02*
X286Y4234D01*
X294D01*
X290Y4226D01*
X3750Y3202D02*
X3742Y3218D01*
X3758D01*
X3750Y3202D01*
Y3206D02*
X3746Y3214D01*
X3754D01*
X3750Y3206D01*
Y5172D02*
X3742Y5188D01*
X3758D01*
X3750Y5172D01*
Y5176D02*
X3746Y5184D01*
X3754D01*
X3750Y5176D01*
Y4192D02*
X3742Y4208D01*
X3758D01*
X3750Y4192D01*
Y4196D02*
X3746Y4204D01*
X3754D01*
X3750Y4196D01*
Y2222D02*
X3742Y2238D01*
X3758D01*
X3750Y2222D01*
Y2226D02*
X3746Y2234D01*
X3754D01*
X3750Y2226D01*
X2250Y2232D02*
X2242Y2248D01*
X2258D01*
X2250Y2232D01*
Y2236D02*
X2246Y2244D01*
X2254D01*
X2250Y2236D01*
X2280Y2202D02*
X2272Y2218D01*
X2288D01*
X2280Y2202D01*
Y2206D02*
X2276Y2214D01*
X2284D01*
X2280Y2206D01*
X2334Y2082D02*
X2326Y2098D01*
X2342D01*
X2334Y2082D01*
Y2086D02*
X2330Y2094D01*
X2338D01*
X2334Y2086D01*
X2208Y2082D02*
X2200Y2098D01*
X2216D01*
X2208Y2082D01*
Y2086D02*
X2204Y2094D01*
X2212D01*
X2208Y2086D01*
X2240Y2052D02*
X2232Y2068D01*
X2248D01*
X2240Y2052D01*
Y2056D02*
X2236Y2064D01*
X2244D01*
X2240Y2056D01*
X2271Y2082D02*
X2263Y2098D01*
X2279D01*
X2271Y2082D01*
Y2086D02*
X2267Y2094D01*
X2275D01*
X2271Y2086D01*
X2303Y2052D02*
X2295Y2068D01*
X2310D01*
X2303Y2052D01*
Y2056D02*
X2299Y2064D01*
X2306D01*
X2303Y2056D01*
X3660Y2332D02*
X3652Y2348D01*
X3668D01*
X3660Y2332D01*
Y2336D02*
X3656Y2344D01*
X3664D01*
X3660Y2336D01*
X3500Y2332D02*
X3492Y2348D01*
X3508D01*
X3500Y2332D01*
Y2336D02*
X3496Y2344D01*
X3504D01*
X3500Y2336D01*
X3340Y2332D02*
X3332Y2348D01*
X3348D01*
X3340Y2332D01*
Y2336D02*
X3336Y2344D01*
X3344D01*
X3340Y2336D01*
X3180Y2332D02*
X3172Y2348D01*
X3188D01*
X3180Y2332D01*
Y2336D02*
X3176Y2344D01*
X3184D01*
X3180Y2336D01*
X2366Y2052D02*
X2358Y2068D01*
X2374D01*
X2366Y2052D01*
Y2056D02*
X2362Y2064D01*
X2370D01*
X2366Y2056D01*
X2397Y2082D02*
X2389Y2098D01*
X2405D01*
X2397Y2082D01*
Y2086D02*
X2393Y2094D01*
X2401D01*
X2397Y2086D01*
X2429Y2052D02*
X2421Y2068D01*
X2437D01*
X2429Y2052D01*
Y2056D02*
X2425Y2064D01*
X2433D01*
X2429Y2056D01*
X2460Y2082D02*
X2451Y2098D01*
X2467D01*
X2460Y2082D01*
Y2086D02*
X2455Y2094D01*
X2464D01*
X2460Y2086D01*
X2491Y2052D02*
X2484Y2068D01*
X2500D01*
X2491Y2052D01*
Y2056D02*
X2487Y2064D01*
X2496D01*
X2491Y2056D01*
X2523Y2082D02*
X2515Y2098D01*
X2531D01*
X2523Y2082D01*
Y2086D02*
X2519Y2094D01*
X2527D01*
X2523Y2086D01*
X2555Y2052D02*
X2546Y2068D01*
X2562D01*
X2555Y2052D01*
Y2056D02*
X2550Y2064D01*
X2559D01*
X2555Y2056D01*
X2152Y1697D02*
X2144Y1713D01*
X2160D01*
X2152Y1697D01*
Y1701D02*
X2148Y1709D01*
X2156D01*
X2152Y1701D01*
X3750Y1297D02*
X3742Y1313D01*
X3758D01*
X3750Y1297D01*
Y1301D02*
X3746Y1309D01*
X3754D01*
X3750Y1301D01*
Y312D02*
X3742Y328D01*
X3758D01*
X3750Y312D01*
Y316D02*
X3746Y324D01*
X3754D01*
X3750Y316D01*
X3580Y1182D02*
X3572Y1198D01*
X3588D01*
X3580Y1182D01*
Y1186D02*
X3576Y1194D01*
X3584D01*
X3580Y1186D01*
X3420Y1182D02*
X3412Y1198D01*
X3428D01*
X3420Y1182D01*
Y1186D02*
X3416Y1194D01*
X3424D01*
X3420Y1186D01*
X3260Y1182D02*
X3252Y1198D01*
X3268D01*
X3260Y1182D01*
Y1186D02*
X3256Y1194D01*
X3264D01*
X3260Y1186D01*
X3100Y1182D02*
X3092Y1198D01*
X3108D01*
X3100Y1182D01*
Y1186D02*
X3096Y1194D01*
X3104D01*
X3100Y1186D01*
X2491Y1692D02*
X2484Y1708D01*
X2500D01*
X2491Y1692D01*
Y1696D02*
X2487Y1704D01*
X2496D01*
X2491Y1696D01*
X3100Y2612D02*
X3092Y2628D01*
X3108D01*
X3100Y2612D01*
Y2616D02*
X3096Y2624D01*
X3104D01*
X3100Y2616D01*
X3260Y2612D02*
X3252Y2628D01*
X3268D01*
X3260Y2612D01*
Y2616D02*
X3256Y2624D01*
X3264D01*
X3260Y2616D01*
X3430Y2612D02*
X3422Y2628D01*
X3438D01*
X3430Y2612D01*
Y2616D02*
X3426Y2624D01*
X3434D01*
X3430Y2616D01*
X3590Y2612D02*
X3582Y2628D01*
X3598D01*
X3590Y2612D01*
Y2616D02*
X3586Y2624D01*
X3594D01*
X3590Y2616D01*
X3100Y2392D02*
X3092Y2408D01*
X3108D01*
X3100Y2392D01*
Y2396D02*
X3096Y2404D01*
X3104D01*
X3100Y2396D01*
X3260Y2392D02*
X3252Y2408D01*
X3268D01*
X3260Y2392D01*
Y2396D02*
X3256Y2404D01*
X3264D01*
X3260Y2396D01*
X3430Y2392D02*
X3422Y2408D01*
X3438D01*
X3430Y2392D01*
Y2396D02*
X3426Y2404D01*
X3434D01*
X3430Y2396D01*
X3590Y2392D02*
X3582Y2408D01*
X3598D01*
X3590Y2392D01*
Y2396D02*
X3586Y2404D01*
X3594D01*
X3590Y2396D01*
X3205Y2712D02*
X3197Y2728D01*
X3213D01*
X3205Y2712D01*
Y2716D02*
X3201Y2724D01*
X3209D01*
X3205Y2716D01*
X3305Y2712D02*
X3297Y2728D01*
X3313D01*
X3305Y2712D01*
Y2716D02*
X3301Y2724D01*
X3309D01*
X3305Y2716D01*
X3405Y2712D02*
X3397Y2728D01*
X3413D01*
X3405Y2712D01*
Y2716D02*
X3401Y2724D01*
X3409D01*
X3405Y2716D01*
X3505Y2712D02*
X3497Y2728D01*
X3513D01*
X3505Y2712D01*
Y2716D02*
X3501Y2724D01*
X3509D01*
X3505Y2716D01*
X3660Y902D02*
X3652Y918D01*
X3668D01*
X3660Y902D01*
Y906D02*
X3656Y914D01*
X3664D01*
X3660Y906D01*
X3500Y902D02*
X3492Y918D01*
X3508D01*
X3500Y902D01*
Y906D02*
X3496Y914D01*
X3504D01*
X3500Y906D01*
X3330Y902D02*
X3322Y918D01*
X3338D01*
X3330Y902D01*
Y906D02*
X3326Y914D01*
X3334D01*
X3330Y906D01*
X3170Y902D02*
X3162Y918D01*
X3178D01*
X3170Y902D01*
Y906D02*
X3166Y914D01*
X3174D01*
X3170Y906D01*
X3660Y1122D02*
X3652Y1138D01*
X3668D01*
X3660Y1122D01*
Y1126D02*
X3656Y1134D01*
X3664D01*
X3660Y1126D01*
X3500Y1122D02*
X3492Y1138D01*
X3508D01*
X3500Y1122D01*
Y1126D02*
X3496Y1134D01*
X3504D01*
X3500Y1126D01*
X3330Y1122D02*
X3322Y1138D01*
X3338D01*
X3330Y1122D01*
Y1126D02*
X3326Y1134D01*
X3334D01*
X3330Y1126D01*
X3170Y1122D02*
X3162Y1138D01*
X3178D01*
X3170Y1122D01*
Y1126D02*
X3166Y1134D01*
X3174D01*
X3170Y1126D01*
X3255Y802D02*
X3247Y818D01*
X3263D01*
X3255Y802D01*
Y806D02*
X3251Y814D01*
X3259D01*
X3255Y806D01*
X3355Y802D02*
X3347Y818D01*
X3363D01*
X3355Y802D01*
Y806D02*
X3351Y814D01*
X3359D01*
X3355Y806D01*
X3455Y802D02*
X3447Y818D01*
X3463D01*
X3455Y802D01*
Y806D02*
X3451Y814D01*
X3459D01*
X3455Y806D01*
X3555Y802D02*
X3547Y818D01*
X3563D01*
X3555Y802D01*
Y806D02*
X3551Y814D01*
X3559D01*
X3555Y806D01*
X3750Y111D02*
X3742Y127D01*
X3758D01*
X3750Y111D01*
Y115D02*
X3746Y123D01*
X3754D01*
X3750Y115D01*
Y451D02*
X3742Y467D01*
X3758D01*
X3750Y451D01*
Y455D02*
X3746Y463D01*
X3754D01*
X3750Y455D01*
Y1096D02*
X3742Y1112D01*
X3758D01*
X3750Y1096D01*
Y1100D02*
X3746Y1108D01*
X3754D01*
X3750Y1100D01*
Y1436D02*
X3742Y1452D01*
X3758D01*
X3750Y1436D01*
Y1440D02*
X3746Y1448D01*
X3754D01*
X3750Y1440D01*
Y2080D02*
X3742Y2096D01*
X3758D01*
X3750Y2080D01*
Y2084D02*
X3746Y2092D01*
X3754D01*
X3750Y2084D01*
Y2420D02*
X3742Y2436D01*
X3758D01*
X3750Y2420D01*
Y2424D02*
X3746Y2432D01*
X3754D01*
X3750Y2424D01*
Y3064D02*
X3742Y3080D01*
X3758D01*
X3750Y3064D01*
Y3068D02*
X3746Y3076D01*
X3754D01*
X3750Y3068D01*
Y3404D02*
X3742Y3420D01*
X3758D01*
X3750Y3404D01*
Y3408D02*
X3746Y3416D01*
X3754D01*
X3750Y3408D01*
Y4048D02*
X3742Y4064D01*
X3758D01*
X3750Y4048D01*
Y4052D02*
X3746Y4060D01*
X3754D01*
X3750Y4052D01*
Y4388D02*
X3742Y4404D01*
X3758D01*
X3750Y4388D01*
Y4392D02*
X3746Y4400D01*
X3754D01*
X3750Y4392D01*
Y5033D02*
X3742Y5049D01*
X3758D01*
X3750Y5033D01*
Y5037D02*
X3746Y5045D01*
X3754D01*
X3750Y5037D01*
Y5373D02*
X3742Y5389D01*
X3758D01*
X3750Y5373D01*
Y5377D02*
X3746Y5385D01*
X3754D01*
X3750Y5377D01*
X780Y3402D02*
X784Y3406D01*
X788D01*
X784Y3410D01*
X788Y3414D01*
X784D01*
X780Y3418D01*
X776Y3414D01*
X772D01*
X776Y3410D01*
X772Y3406D01*
X776D01*
X780Y3402D01*
Y3406D02*
X782Y3408D01*
X784D01*
X782Y3410D01*
X784Y3412D01*
X782D01*
X780Y3414D01*
X778Y3412D01*
X776D01*
X778Y3410D01*
X776Y3408D01*
X778D01*
X780Y3406D01*
X315Y4472D02*
X319Y4476D01*
X323D01*
X319Y4480D01*
X323Y4484D01*
X319D01*
X315Y4488D01*
X311Y4484D01*
X307D01*
X311Y4480D01*
X307Y4476D01*
X311D01*
X315Y4472D01*
Y4476D02*
X317Y4478D01*
X319D01*
X317Y4480D01*
X319Y4482D01*
X317D01*
X315Y4484D01*
X313Y4482D01*
X311D01*
X313Y4480D01*
X311Y4478D01*
X313D01*
X315Y4476D01*
X2439Y4120D02*
X2443Y4124D01*
X2447D01*
X2443Y4128D01*
X2447Y4132D01*
X2443D01*
X2439Y4136D01*
X2435Y4132D01*
X2431D01*
X2435Y4128D01*
X2431Y4124D01*
X2435D01*
X2439Y4120D01*
Y4124D02*
X2441Y4126D01*
X2443D01*
X2441Y4128D01*
X2443Y4130D01*
X2441D01*
X2439Y4132D01*
X2437Y4130D01*
X2435D01*
X2437Y4128D01*
X2435Y4126D01*
X2437D01*
X2439Y4124D01*
X2546Y2743D02*
X2538Y2759D01*
X2554D01*
X2546Y2743D01*
Y2747D02*
X2542Y2755D01*
X2550D01*
X2546Y2747D01*
X2403Y4122D02*
X2407Y4126D01*
X2411D01*
X2407Y4130D01*
X2411Y4134D01*
X2407D01*
X2403Y4138D01*
X2399Y4134D01*
X2395D01*
X2399Y4130D01*
X2395Y4126D01*
X2399D01*
X2403Y4122D01*
Y4126D02*
X2405Y4128D01*
X2407D01*
X2405Y4130D01*
X2407Y4132D01*
X2405D01*
X2403Y4134D01*
X2401Y4132D01*
X2399D01*
X2401Y4130D01*
X2399Y4128D01*
X2401D01*
X2403Y4126D01*
X2510Y2743D02*
X2501Y2759D01*
X2517D01*
X2510Y2743D01*
Y2747D02*
X2506Y2755D01*
X2513D01*
X2510Y2747D01*
X2365Y4052D02*
X2357Y4068D01*
X2373D01*
X2365Y4052D01*
Y4056D02*
X2361Y4064D01*
X2369D01*
X2365Y4056D01*
X2472Y2822D02*
X2464Y2838D01*
X2480D01*
X2472Y2822D01*
Y2826D02*
X2468Y2834D01*
X2476D01*
X2472Y2826D01*
X2366Y4088D02*
X2358Y4104D01*
X2374D01*
X2366Y4088D01*
Y4092D02*
X2362Y4100D01*
X2370D01*
X2366Y4092D01*
X2474Y2781D02*
X2467Y2797D01*
X2483D01*
X2474Y2781D01*
Y2785D02*
X2470Y2793D01*
X2478D01*
X2474Y2785D01*
X2402Y4086D02*
X2394Y4102D01*
X2410D01*
X2402Y4086D01*
Y4090D02*
X2398Y4098D01*
X2406D01*
X2402Y4090D01*
X2510Y2782D02*
X2503Y2798D01*
X2519D01*
X2510Y2782D01*
Y2786D02*
X2507Y2794D01*
X2514D01*
X2510Y2786D01*
X2032Y4652D02*
X2024Y4668D01*
X2040D01*
X2032Y4652D01*
Y4656D02*
X2028Y4664D01*
X2036D01*
X2032Y4656D01*
X2665Y2743D02*
X2669Y2747D01*
X2673D01*
X2669Y2751D01*
X2673Y2755D01*
X2669D01*
X2665Y2759D01*
X2661Y2755D01*
X2657D01*
X2661Y2751D01*
X2657Y2747D01*
X2661D01*
X2665Y2743D01*
Y2747D02*
X2667Y2749D01*
X2669D01*
X2667Y2751D01*
X2669Y2753D01*
X2667D01*
X2665Y2755D01*
X2663Y2753D01*
X2661D01*
X2663Y2751D01*
X2661Y2749D01*
X2663D01*
X2665Y2747D01*
X2016Y4613D02*
X2008Y4629D01*
X2024D01*
X2016Y4613D01*
Y4617D02*
X2012Y4625D01*
X2020D01*
X2016Y4617D01*
X2629Y2744D02*
X2621Y2760D01*
X2637D01*
X2629Y2744D01*
Y2748D02*
X2625Y2756D01*
X2633D01*
X2629Y2748D01*
X1985Y4582D02*
X1977Y4598D01*
X1993D01*
X1985Y4582D01*
Y4586D02*
X1981Y4594D01*
X1989D01*
X1985Y4586D01*
X2631Y2780D02*
X2623Y2796D01*
X2639D01*
X2631Y2780D01*
Y2784D02*
X2627Y2792D01*
X2635D01*
X2631Y2784D01*
X2530Y4283D02*
X2522Y4299D01*
X2538D01*
X2530Y4283D01*
Y4287D02*
X2526Y4295D01*
X2534D01*
X2530Y4287D01*
X2595Y2781D02*
X2587Y2797D01*
X2603D01*
X2595Y2781D01*
Y2785D02*
X2591Y2793D01*
X2599D01*
X2595Y2785D01*
X1811Y3714D02*
X1803Y3730D01*
X1819D01*
X1811Y3714D01*
Y3718D02*
X1807Y3726D01*
X1815D01*
X1811Y3718D01*
X1800Y3260D02*
X1792Y3276D01*
X1808D01*
X1800Y3260D01*
Y3263D02*
X1796Y3272D01*
X1804D01*
X1800Y3263D01*
X1823Y3751D02*
X1815Y3767D01*
X1831D01*
X1823Y3751D01*
Y3755D02*
X1819Y3763D01*
X1827D01*
X1823Y3755D01*
X1835Y3260D02*
X1827Y3276D01*
X1843D01*
X1835Y3260D01*
Y3263D02*
X1831Y3272D01*
X1839D01*
X1835Y3263D01*
X2460Y1667D02*
X2451Y1683D01*
X2467D01*
X2460Y1667D01*
Y1671D02*
X2455Y1679D01*
X2464D01*
X2460Y1671D01*
X2397Y1667D02*
X2388Y1683D01*
X2405D01*
X2397Y1667D01*
Y1671D02*
X2392Y1679D01*
X2401D01*
X2397Y1671D01*
X2428Y1692D02*
X2420Y1708D01*
X2436D01*
X2428Y1692D01*
Y1696D02*
X2424Y1704D01*
X2432D01*
X2428Y1696D01*
X2365Y1692D02*
X2357Y1708D01*
X2373D01*
X2365Y1692D01*
Y1696D02*
X2361Y1704D01*
X2369D01*
X2365Y1696D01*
X1835Y567D02*
X1839Y571D01*
X1843D01*
X1839Y575D01*
X1843Y579D01*
X1839D01*
X1835Y583D01*
X1831Y579D01*
X1827D01*
X1831Y575D01*
X1827Y571D01*
X1831D01*
X1835Y567D01*
Y571D02*
X1837Y573D01*
X1839D01*
X1837Y575D01*
X1839Y577D01*
X1837D01*
X1835Y579D01*
X1833Y577D01*
X1831D01*
X1833Y575D01*
X1831Y573D01*
X1833D01*
X1835Y571D01*
X1539Y2063D02*
X1531Y2079D01*
X1547D01*
X1539Y2063D01*
Y2067D02*
X1535Y2075D01*
X1543D01*
X1539Y2067D01*
X2093Y558D02*
X2085Y574D01*
X2101D01*
X2093Y558D01*
Y562D02*
X2089Y570D01*
X2097D01*
X2093Y562D01*
X1502Y543D02*
X1494Y559D01*
X1510D01*
X1502Y543D01*
Y547D02*
X1498Y555D01*
X1506D01*
X1502Y547D01*
X1574Y2063D02*
X1566Y2079D01*
X1582D01*
X1574Y2063D01*
Y2067D02*
X1570Y2075D01*
X1578D01*
X1574Y2067D01*
X2120Y593D02*
X2112Y609D01*
X2128D01*
X2120Y593D01*
Y597D02*
X2116Y605D01*
X2124D01*
X2120Y597D01*
X1466Y573D02*
X1458Y589D01*
X1474D01*
X1466Y573D01*
Y577D02*
X1462Y585D01*
X1470D01*
X1466Y577D01*
X1609Y2063D02*
X1601Y2079D01*
X1617D01*
X1609Y2063D01*
Y2067D02*
X1605Y2075D01*
X1613D01*
X1609Y2067D01*
X1650Y2063D02*
X1642Y2079D01*
X1658D01*
X1650Y2063D01*
Y2067D02*
X1646Y2075D01*
X1654D01*
X1650Y2067D01*
X2146Y623D02*
X2138Y639D01*
X2154D01*
X2146Y623D01*
Y627D02*
X2142Y635D01*
X2150D01*
X2146Y627D01*
X1500Y622D02*
X1492Y638D01*
X1508D01*
X1500Y622D01*
Y626D02*
X1496Y634D01*
X1504D01*
X1500Y626D01*
X1466Y2046D02*
X1458Y2062D01*
X1474D01*
X1466Y2046D01*
Y2050D02*
X1462Y2058D01*
X1470D01*
X1466Y2050D01*
X1452Y1694D02*
X1444Y1710D01*
X1460D01*
X1452Y1694D01*
Y1698D02*
X1448Y1706D01*
X1456D01*
X1452Y1698D01*
X1325Y1694D02*
X1317Y1710D01*
X1333D01*
X1325Y1694D01*
Y1698D02*
X1321Y1706D01*
X1329D01*
X1325Y1698D01*
X1452Y3626D02*
X1444Y3642D01*
X1460D01*
X1452Y3626D01*
Y3630D02*
X1448Y3638D01*
X1456D01*
X1452Y3630D01*
X1357Y3626D02*
X1349Y3642D01*
X1365D01*
X1357Y3626D01*
Y3630D02*
X1354Y3638D01*
X1362D01*
X1357Y3630D01*
X1353Y3267D02*
X1345Y3283D01*
X1361D01*
X1353Y3267D01*
Y3271D02*
X1349Y3279D01*
X1357D01*
X1353Y3271D01*
X1392Y3267D02*
X1384Y3283D01*
X1400D01*
X1392Y3267D01*
Y3271D02*
X1388Y3279D01*
X1396D01*
X1392Y3271D01*
X1428Y3267D02*
X1419Y3283D01*
X1436D01*
X1428Y3267D01*
Y3271D02*
X1423Y3279D01*
X1431D01*
X1428Y3271D01*
X1463Y3267D02*
X1455Y3283D01*
X1471D01*
X1463Y3267D01*
Y3271D02*
X1459Y3279D01*
X1467D01*
X1463Y3271D01*
X1435Y797D02*
X1427Y813D01*
X1443D01*
X1435Y797D01*
Y801D02*
X1431Y809D01*
X1439D01*
X1435Y801D01*
X1467Y925D02*
X1459Y941D01*
X1475D01*
X1467Y925D01*
Y929D02*
X1463Y937D01*
X1471D01*
X1467Y929D01*
X1474Y711D02*
X1466Y727D01*
X1482D01*
X1474Y711D01*
Y715D02*
X1470Y723D01*
X1478D01*
X1474Y715D01*
X1450Y4330D02*
X1442Y4346D01*
X1458D01*
X1450Y4330D01*
Y4334D02*
X1446Y4342D01*
X1454D01*
X1450Y4334D01*
X1435Y4447D02*
X1427Y4463D01*
X1443D01*
X1435Y4447D01*
Y4451D02*
X1431Y4459D01*
X1439D01*
X1435Y4451D01*
X2498Y4253D02*
X2490Y4269D01*
X2506D01*
X2498Y4253D01*
Y4257D02*
X2494Y4265D01*
X2502D01*
X2498Y4257D01*
X2230Y4343D02*
X2234Y4347D01*
X2238D01*
X2234Y4351D01*
X2238Y4355D01*
X2234D01*
X2230Y4359D01*
X2226Y4355D01*
X2222D01*
X2226Y4351D01*
X2222Y4347D01*
X2226D01*
X2230Y4343D01*
Y4347D02*
X2232Y4349D01*
X2234D01*
X2232Y4351D01*
X2234Y4353D01*
X2232D01*
X2230Y4355D01*
X2228Y4353D01*
X2226D01*
X2228Y4351D01*
X2226Y4349D01*
X2228D01*
X2230Y4347D01*
X1977Y3992D02*
X1969Y4008D01*
X1985D01*
X1977Y3992D01*
Y3996D02*
X1973Y4004D01*
X1981D01*
X1977Y3996D01*
Y4041D02*
X1969Y4057D01*
X1985D01*
X1977Y4041D01*
Y4045D02*
X1973Y4053D01*
X1981D01*
X1977Y4045D01*
X2129Y3992D02*
X2121Y4008D01*
X2137D01*
X2129Y3992D01*
Y3996D02*
X2125Y4004D01*
X2133D01*
X2129Y3996D01*
Y4041D02*
X2121Y4057D01*
X2137D01*
X2129Y4041D01*
Y4045D02*
X2125Y4053D01*
X2133D01*
X2129Y4045D01*
X2045Y4014D02*
X2049Y4022D01*
X2045Y4030D01*
X2053Y4026D01*
X2061Y4030D01*
X2057Y4022D01*
X2061Y4014D01*
X2053Y4018D01*
X2045Y4014D01*
X2129Y3938D02*
X2121Y3954D01*
X2137D01*
X2129Y3938D01*
Y3942D02*
X2125Y3950D01*
X2133D01*
X2129Y3942D01*
X1977Y3938D02*
X1969Y3954D01*
X1985D01*
X1977Y3938D01*
Y3942D02*
X1973Y3950D01*
X1981D01*
X1977Y3942D01*
X2031Y3938D02*
X2023Y3954D01*
X2039D01*
X2031Y3938D01*
Y3942D02*
X2027Y3950D01*
X2035D01*
X2031Y3942D01*
X2080Y3938D02*
X2072Y3954D01*
X2088D01*
X2080Y3938D01*
Y3942D02*
X2076Y3950D01*
X2084D01*
X2080Y3942D01*
X2061Y1315D02*
X2065Y1319D01*
X2069D01*
X2065Y1323D01*
X2069Y1327D01*
X2065D01*
X2061Y1331D01*
X2057Y1327D01*
X2053D01*
X2057Y1323D01*
X2053Y1319D01*
X2057D01*
X2061Y1315D01*
Y1319D02*
X2063Y1321D01*
X2065D01*
X2063Y1323D01*
X2065Y1325D01*
X2063D01*
X2061Y1327D01*
X2059Y1325D01*
X2057D01*
X2059Y1323D01*
X2057Y1321D01*
X2059D01*
X2061Y1319D01*
X2011Y1315D02*
X2015Y1319D01*
X2019D01*
X2015Y1323D01*
X2019Y1327D01*
X2015D01*
X2011Y1331D01*
X2007Y1327D01*
X2003D01*
X2007Y1323D01*
X2003Y1319D01*
X2007D01*
X2011Y1315D01*
Y1319D02*
X2013Y1321D01*
X2015D01*
X2013Y1323D01*
X2015Y1325D01*
X2013D01*
X2011Y1327D01*
X2009Y1325D01*
X2007D01*
X2009Y1323D01*
X2007Y1321D01*
X2009D01*
X2011Y1319D01*
X1861Y1315D02*
X1865Y1319D01*
X1869D01*
X1865Y1323D01*
X1869Y1327D01*
X1865D01*
X1861Y1331D01*
X1857Y1327D01*
X1853D01*
X1857Y1323D01*
X1853Y1319D01*
X1857D01*
X1861Y1315D01*
Y1319D02*
X1863Y1321D01*
X1865D01*
X1863Y1323D01*
X1865Y1325D01*
X1863D01*
X1861Y1327D01*
X1859Y1325D01*
X1857D01*
X1859Y1323D01*
X1857Y1321D01*
X1859D01*
X1861Y1319D01*
X1911Y1315D02*
X1915Y1319D01*
X1919D01*
X1915Y1323D01*
X1919Y1327D01*
X1915D01*
X1911Y1331D01*
X1907Y1327D01*
X1903D01*
X1907Y1323D01*
X1903Y1319D01*
X1907D01*
X1911Y1315D01*
Y1319D02*
X1913Y1321D01*
X1915D01*
X1913Y1323D01*
X1915Y1325D01*
X1913D01*
X1911Y1327D01*
X1909Y1325D01*
X1907D01*
X1909Y1323D01*
X1907Y1321D01*
X1909D01*
X1911Y1319D01*
X1861Y1367D02*
X1865Y1371D01*
X1869D01*
X1865Y1375D01*
X1869Y1379D01*
X1865D01*
X1861Y1383D01*
X1857Y1379D01*
X1853D01*
X1857Y1375D01*
X1853Y1371D01*
X1857D01*
X1861Y1367D01*
Y1371D02*
X1863Y1373D01*
X1865D01*
X1863Y1375D01*
X1865Y1377D01*
X1863D01*
X1861Y1379D01*
X1859Y1377D01*
X1857D01*
X1859Y1375D01*
X1857Y1373D01*
X1859D01*
X1861Y1371D01*
X2061Y1367D02*
X2065Y1371D01*
X2069D01*
X2065Y1375D01*
X2069Y1379D01*
X2065D01*
X2061Y1383D01*
X2057Y1379D01*
X2053D01*
X2057Y1375D01*
X2053Y1371D01*
X2057D01*
X2061Y1367D01*
Y1371D02*
X2063Y1373D01*
X2065D01*
X2063Y1375D01*
X2065Y1377D01*
X2063D01*
X2061Y1379D01*
X2059Y1377D01*
X2057D01*
X2059Y1375D01*
X2057Y1373D01*
X2059D01*
X2061Y1371D01*
X2011Y1367D02*
X2015Y1371D01*
X2019D01*
X2015Y1375D01*
X2019Y1379D01*
X2015D01*
X2011Y1383D01*
X2007Y1379D01*
X2003D01*
X2007Y1375D01*
X2003Y1371D01*
X2007D01*
X2011Y1367D01*
Y1371D02*
X2013Y1373D01*
X2015D01*
X2013Y1375D01*
X2015Y1377D01*
X2013D01*
X2011Y1379D01*
X2009Y1377D01*
X2007D01*
X2009Y1375D01*
X2007Y1373D01*
X2009D01*
X2011Y1371D01*
X1961Y1367D02*
X1965Y1371D01*
X1969D01*
X1965Y1375D01*
X1969Y1379D01*
X1965D01*
X1961Y1383D01*
X1957Y1379D01*
X1953D01*
X1957Y1375D01*
X1953Y1371D01*
X1957D01*
X1961Y1367D01*
Y1371D02*
X1963Y1373D01*
X1965D01*
X1963Y1375D01*
X1965Y1377D01*
X1963D01*
X1961Y1379D01*
X1959Y1377D01*
X1957D01*
X1959Y1375D01*
X1957Y1373D01*
X1959D01*
X1961Y1371D01*
X1911Y1367D02*
X1915Y1371D01*
X1919D01*
X1915Y1375D01*
X1919Y1379D01*
X1915D01*
X1911Y1383D01*
X1907Y1379D01*
X1903D01*
X1907Y1375D01*
X1903Y1371D01*
X1907D01*
X1911Y1367D01*
Y1371D02*
X1913Y1373D01*
X1915D01*
X1913Y1375D01*
X1915Y1377D01*
X1913D01*
X1911Y1379D01*
X1909Y1377D01*
X1907D01*
X1909Y1375D01*
X1907Y1373D01*
X1909D01*
X1911Y1371D01*
Y1263D02*
X1915Y1267D01*
X1919D01*
X1915Y1271D01*
X1919Y1275D01*
X1915D01*
X1911Y1279D01*
X1907Y1275D01*
X1903D01*
X1907Y1271D01*
X1903Y1267D01*
X1907D01*
X1911Y1263D01*
Y1267D02*
X1913Y1269D01*
X1915D01*
X1913Y1271D01*
X1915Y1273D01*
X1913D01*
X1911Y1275D01*
X1909Y1273D01*
X1907D01*
X1909Y1271D01*
X1907Y1269D01*
X1909D01*
X1911Y1267D01*
X1961Y1263D02*
X1965Y1267D01*
X1969D01*
X1965Y1271D01*
X1969Y1275D01*
X1965D01*
X1961Y1279D01*
X1957Y1275D01*
X1953D01*
X1957Y1271D01*
X1953Y1267D01*
X1957D01*
X1961Y1263D01*
Y1267D02*
X1963Y1269D01*
X1965D01*
X1963Y1271D01*
X1965Y1273D01*
X1963D01*
X1961Y1275D01*
X1959Y1273D01*
X1957D01*
X1959Y1271D01*
X1957Y1269D01*
X1959D01*
X1961Y1267D01*
X2011Y1263D02*
X2015Y1267D01*
X2019D01*
X2015Y1271D01*
X2019Y1275D01*
X2015D01*
X2011Y1279D01*
X2007Y1275D01*
X2003D01*
X2007Y1271D01*
X2003Y1267D01*
X2007D01*
X2011Y1263D01*
Y1267D02*
X2013Y1269D01*
X2015D01*
X2013Y1271D01*
X2015Y1273D01*
X2013D01*
X2011Y1275D01*
X2009Y1273D01*
X2007D01*
X2009Y1271D01*
X2007Y1269D01*
X2009D01*
X2011Y1267D01*
X2061Y1263D02*
X2065Y1267D01*
X2069D01*
X2065Y1271D01*
X2069Y1275D01*
X2065D01*
X2061Y1279D01*
X2057Y1275D01*
X2053D01*
X2057Y1271D01*
X2053Y1267D01*
X2057D01*
X2061Y1263D01*
Y1267D02*
X2063Y1269D01*
X2065D01*
X2063Y1271D01*
X2065Y1273D01*
X2063D01*
X2061Y1275D01*
X2059Y1273D01*
X2057D01*
X2059Y1271D01*
X2057Y1269D01*
X2059D01*
X2061Y1267D01*
X1861Y1263D02*
X1865Y1267D01*
X1869D01*
X1865Y1271D01*
X1869Y1275D01*
X1865D01*
X1861Y1279D01*
X1857Y1275D01*
X1853D01*
X1857Y1271D01*
X1853Y1267D01*
X1857D01*
X1861Y1263D01*
Y1267D02*
X1863Y1269D01*
X1865D01*
X1863Y1271D01*
X1865Y1273D01*
X1863D01*
X1861Y1275D01*
X1859Y1273D01*
X1857D01*
X1859Y1271D01*
X1857Y1269D01*
X1859D01*
X1861Y1267D01*
X1911Y1223D02*
X1915Y1227D01*
X1919D01*
X1915Y1231D01*
X1919Y1235D01*
X1915D01*
X1911Y1239D01*
X1907Y1235D01*
X1903D01*
X1907Y1231D01*
X1903Y1227D01*
X1907D01*
X1911Y1223D01*
Y1227D02*
X1913Y1229D01*
X1915D01*
X1913Y1231D01*
X1915Y1233D01*
X1913D01*
X1911Y1235D01*
X1909Y1233D01*
X1907D01*
X1909Y1231D01*
X1907Y1229D01*
X1909D01*
X1911Y1227D01*
X1961Y1223D02*
X1965Y1227D01*
X1969D01*
X1965Y1231D01*
X1969Y1235D01*
X1965D01*
X1961Y1239D01*
X1957Y1235D01*
X1953D01*
X1957Y1231D01*
X1953Y1227D01*
X1957D01*
X1961Y1223D01*
Y1227D02*
X1963Y1229D01*
X1965D01*
X1963Y1231D01*
X1965Y1233D01*
X1963D01*
X1961Y1235D01*
X1959Y1233D01*
X1957D01*
X1959Y1231D01*
X1957Y1229D01*
X1959D01*
X1961Y1227D01*
X2011Y1223D02*
X2015Y1227D01*
X2019D01*
X2015Y1231D01*
X2019Y1235D01*
X2015D01*
X2011Y1239D01*
X2007Y1235D01*
X2003D01*
X2007Y1231D01*
X2003Y1227D01*
X2007D01*
X2011Y1223D01*
Y1227D02*
X2013Y1229D01*
X2015D01*
X2013Y1231D01*
X2015Y1233D01*
X2013D01*
X2011Y1235D01*
X2009Y1233D01*
X2007D01*
X2009Y1231D01*
X2007Y1229D01*
X2009D01*
X2011Y1227D01*
X2061Y1223D02*
X2065Y1227D01*
X2069D01*
X2065Y1231D01*
X2069Y1235D01*
X2065D01*
X2061Y1239D01*
X2057Y1235D01*
X2053D01*
X2057Y1231D01*
X2053Y1227D01*
X2057D01*
X2061Y1223D01*
Y1227D02*
X2063Y1229D01*
X2065D01*
X2063Y1231D01*
X2065Y1233D01*
X2063D01*
X2061Y1235D01*
X2059Y1233D01*
X2057D01*
X2059Y1231D01*
X2057Y1229D01*
X2059D01*
X2061Y1227D01*
X1861Y1223D02*
X1865Y1227D01*
X1869D01*
X1865Y1231D01*
X1869Y1235D01*
X1865D01*
X1861Y1239D01*
X1857Y1235D01*
X1853D01*
X1857Y1231D01*
X1853Y1227D01*
X1857D01*
X1861Y1223D01*
Y1227D02*
X1863Y1229D01*
X1865D01*
X1863Y1231D01*
X1865Y1233D01*
X1863D01*
X1861Y1235D01*
X1859Y1233D01*
X1857D01*
X1859Y1231D01*
X1857Y1229D01*
X1859D01*
X1861Y1227D01*
Y1407D02*
X1865Y1411D01*
X1869D01*
X1865Y1415D01*
X1869Y1419D01*
X1865D01*
X1861Y1423D01*
X1857Y1419D01*
X1853D01*
X1857Y1415D01*
X1853Y1411D01*
X1857D01*
X1861Y1407D01*
Y1411D02*
X1863Y1413D01*
X1865D01*
X1863Y1415D01*
X1865Y1417D01*
X1863D01*
X1861Y1419D01*
X1859Y1417D01*
X1857D01*
X1859Y1415D01*
X1857Y1413D01*
X1859D01*
X1861Y1411D01*
X2061Y1407D02*
X2065Y1411D01*
X2069D01*
X2065Y1415D01*
X2069Y1419D01*
X2065D01*
X2061Y1423D01*
X2057Y1419D01*
X2053D01*
X2057Y1415D01*
X2053Y1411D01*
X2057D01*
X2061Y1407D01*
Y1411D02*
X2063Y1413D01*
X2065D01*
X2063Y1415D01*
X2065Y1417D01*
X2063D01*
X2061Y1419D01*
X2059Y1417D01*
X2057D01*
X2059Y1415D01*
X2057Y1413D01*
X2059D01*
X2061Y1411D01*
X2011Y1407D02*
X2015Y1411D01*
X2019D01*
X2015Y1415D01*
X2019Y1419D01*
X2015D01*
X2011Y1423D01*
X2007Y1419D01*
X2003D01*
X2007Y1415D01*
X2003Y1411D01*
X2007D01*
X2011Y1407D01*
Y1411D02*
X2013Y1413D01*
X2015D01*
X2013Y1415D01*
X2015Y1417D01*
X2013D01*
X2011Y1419D01*
X2009Y1417D01*
X2007D01*
X2009Y1415D01*
X2007Y1413D01*
X2009D01*
X2011Y1411D01*
X1961Y1407D02*
X1965Y1411D01*
X1969D01*
X1965Y1415D01*
X1969Y1419D01*
X1965D01*
X1961Y1423D01*
X1957Y1419D01*
X1953D01*
X1957Y1415D01*
X1953Y1411D01*
X1957D01*
X1961Y1407D01*
Y1411D02*
X1963Y1413D01*
X1965D01*
X1963Y1415D01*
X1965Y1417D01*
X1963D01*
X1961Y1419D01*
X1959Y1417D01*
X1957D01*
X1959Y1415D01*
X1957Y1413D01*
X1959D01*
X1961Y1411D01*
X1911Y1407D02*
X1915Y1411D01*
X1919D01*
X1915Y1415D01*
X1919Y1419D01*
X1915D01*
X1911Y1423D01*
X1907Y1419D01*
X1903D01*
X1907Y1415D01*
X1903Y1411D01*
X1907D01*
X1911Y1407D01*
Y1411D02*
X1913Y1413D01*
X1915D01*
X1913Y1415D01*
X1915Y1417D01*
X1913D01*
X1911Y1419D01*
X1909Y1417D01*
X1907D01*
X1909Y1415D01*
X1907Y1413D01*
X1909D01*
X1911Y1411D01*
X1596Y775D02*
X1588Y791D01*
X1604D01*
X1596Y775D01*
Y779D02*
X1592Y787D01*
X1600D01*
X1596Y779D01*
X1765Y2535D02*
X1769Y2539D01*
X1773D01*
X1769Y2543D01*
X1773Y2547D01*
X1769D01*
X1765Y2551D01*
X1761Y2547D01*
X1757D01*
X1761Y2543D01*
X1757Y2539D01*
X1761D01*
X1765Y2535D01*
Y2539D02*
X1767Y2541D01*
X1769D01*
X1767Y2543D01*
X1769Y2545D01*
X1767D01*
X1765Y2547D01*
X1763Y2545D01*
X1761D01*
X1763Y2543D01*
X1761Y2541D01*
X1763D01*
X1765Y2539D01*
Y2485D02*
X1769Y2489D01*
X1773D01*
X1769Y2493D01*
X1773Y2497D01*
X1769D01*
X1765Y2501D01*
X1761Y2497D01*
X1757D01*
X1761Y2493D01*
X1757Y2489D01*
X1761D01*
X1765Y2485D01*
Y2489D02*
X1767Y2491D01*
X1769D01*
X1767Y2493D01*
X1769Y2495D01*
X1767D01*
X1765Y2497D01*
X1763Y2495D01*
X1761D01*
X1763Y2493D01*
X1761Y2491D01*
X1763D01*
X1765Y2489D01*
X1997Y904D02*
X1989Y920D01*
X2005D01*
X1997Y904D01*
Y908D02*
X1993Y916D01*
X2001D01*
X1997Y908D01*
X2540Y1693D02*
X2532Y1709D01*
X2548D01*
X2540Y1693D01*
Y1697D02*
X2536Y1705D01*
X2544D01*
X2540Y1697D01*
X2192D02*
X2184Y1713D01*
X2200D01*
X2192Y1697D01*
Y1701D02*
X2188Y1709D01*
X2196D01*
X2192Y1701D01*
X1859Y1693D02*
X1851Y1709D01*
X1867D01*
X1859Y1693D01*
Y1697D02*
X1855Y1705D01*
X1863D01*
X1859Y1697D01*
X1498Y1693D02*
X1490Y1709D01*
X1507D01*
X1498Y1693D01*
Y1697D02*
X1495Y1705D01*
X1503D01*
X1498Y1697D01*
X1500Y2046D02*
X1492Y2062D01*
X1508D01*
X1500Y2046D01*
Y2050D02*
X1497Y2058D01*
X1505D01*
X1500Y2050D01*
X1309Y2046D02*
X1301Y2062D01*
X1317D01*
X1309Y2046D01*
Y2050D02*
X1306Y2058D01*
X1314D01*
X1309Y2050D01*
X2541Y3260D02*
X2533Y3276D01*
X2549D01*
X2541Y3260D01*
Y3264D02*
X2537Y3272D01*
X2545D01*
X2541Y3264D01*
X1309Y3268D02*
X1301Y3284D01*
X1317D01*
X1309Y3268D01*
Y3272D02*
X1306Y3280D01*
X1314D01*
X1309Y3272D01*
X1498Y3268D02*
X1490Y3284D01*
X1507D01*
X1498Y3268D01*
Y3272D02*
X1495Y3280D01*
X1503D01*
X1498Y3272D01*
X1353Y3103D02*
X1345Y3119D01*
X1361D01*
X1353Y3103D01*
Y3107D02*
X1349Y3115D01*
X1357D01*
X1353Y3107D01*
X2165Y3632D02*
X2157Y3648D01*
X2173D01*
X2165Y3632D01*
Y3636D02*
X2161Y3644D01*
X2169D01*
X2165Y3636D01*
X2190Y3751D02*
X2182Y3767D01*
X2198D01*
X2190Y3751D01*
Y3755D02*
X2186Y3763D01*
X2194D01*
X2190Y3755D01*
X2178Y3714D02*
X2170Y3730D01*
X2186D01*
X2178Y3714D01*
Y3718D02*
X2174Y3726D01*
X2182D01*
X2178Y3718D01*
X1847Y3630D02*
X1839Y3646D01*
X1855D01*
X1847Y3630D01*
Y3634D02*
X1843Y3642D01*
X1851D01*
X1847Y3634D01*
X579Y243D02*
X571Y259D01*
X587D01*
X579Y243D01*
Y247D02*
X575Y255D01*
X583D01*
X579Y247D01*
X1143Y243D02*
X1135Y259D01*
X1151D01*
X1143Y243D01*
Y247D02*
X1139Y255D01*
X1147D01*
X1143Y247D01*
X1237Y643D02*
X1229Y659D01*
X1245D01*
X1237Y643D01*
Y647D02*
X1233Y655D01*
X1241D01*
X1237Y647D01*
X1231Y1094D02*
X1223Y1110D01*
X1239D01*
X1231Y1094D01*
Y1098D02*
X1227Y1106D01*
X1235D01*
X1231Y1098D01*
X1285Y1508D02*
X1277Y1524D01*
X1293D01*
X1285Y1508D01*
Y1512D02*
X1281Y1520D01*
X1289D01*
X1285Y1512D01*
X591Y1333D02*
X583Y1349D01*
X599D01*
X591Y1333D01*
Y1337D02*
X587Y1345D01*
X595D01*
X591Y1337D01*
X411Y1691D02*
X403Y1707D01*
X419D01*
X411Y1691D01*
Y1695D02*
X407Y1703D01*
X415D01*
X411Y1695D01*
X56Y3147D02*
X48Y3163D01*
X64D01*
X56Y3147D01*
Y3151D02*
X52Y3159D01*
X60D01*
X56Y3151D01*
X512Y2912D02*
X504Y2928D01*
X520D01*
X512Y2912D01*
Y2916D02*
X508Y2924D01*
X516D01*
X512Y2916D01*
X138Y2757D02*
X130Y2773D01*
X146D01*
X138Y2757D01*
Y2761D02*
X134Y2769D01*
X142D01*
X138Y2761D01*
X394Y2698D02*
X386Y2714D01*
X402D01*
X394Y2698D01*
Y2702D02*
X390Y2710D01*
X398D01*
X394Y2702D01*
X342Y2329D02*
X334Y2345D01*
X350D01*
X342Y2329D01*
Y2333D02*
X338Y2341D01*
X346D01*
X342Y2333D01*
X851Y2331D02*
X843Y2347D01*
X859D01*
X851Y2331D01*
Y2335D02*
X847Y2343D01*
X855D01*
X851Y2335D01*
X1707Y2121D02*
X1699Y2137D01*
X1715D01*
X1707Y2121D01*
Y2125D02*
X1703Y2133D01*
X1711D01*
X1707Y2125D01*
X1481Y2223D02*
X1473Y2239D01*
X1489D01*
X1481Y2223D01*
Y2227D02*
X1477Y2235D01*
X1485D01*
X1481Y2227D01*
X1328Y2201D02*
X1320Y2217D01*
X1336D01*
X1328Y2201D01*
Y2205D02*
X1324Y2213D01*
X1332D01*
X1328Y2205D01*
X2120Y2117D02*
X2112Y2133D01*
X2128D01*
X2120Y2117D01*
Y2121D02*
X2116Y2129D01*
X2124D01*
X2120Y2121D01*
X1811Y2337D02*
X1803Y2353D01*
X1819D01*
X1811Y2337D01*
Y2341D02*
X1807Y2349D01*
X1815D01*
X1811Y2341D01*
X2044Y2499D02*
X2036Y2515D01*
X2052D01*
X2044Y2499D01*
Y2503D02*
X2040Y2511D01*
X2048D01*
X2044Y2503D01*
X1706Y2709D02*
X1698Y2725D01*
X1714D01*
X1706Y2709D01*
Y2713D02*
X1702Y2721D01*
X1710D01*
X1706Y2713D01*
X2381Y2714D02*
X2373Y2730D01*
X2389D01*
X2381Y2714D01*
Y2718D02*
X2377Y2726D01*
X2385D01*
X2381Y2718D01*
X2138Y2759D02*
X2130Y2775D01*
X2146D01*
X2138Y2759D01*
Y2763D02*
X2134Y2771D01*
X2142D01*
X2138Y2763D01*
X2513Y2912D02*
X2505Y2928D01*
X2521D01*
X2513Y2912D01*
Y2916D02*
X2509Y2924D01*
X2517D01*
X2513Y2916D01*
X2069Y3106D02*
X2061Y3122D01*
X2077D01*
X2069Y3106D01*
Y3110D02*
X2065Y3118D01*
X2073D01*
X2069Y3110D01*
X1793Y2904D02*
X1785Y2920D01*
X1801D01*
X1793Y2904D01*
Y2908D02*
X1789Y2916D01*
X1797D01*
X1793Y2908D01*
X1548Y2759D02*
X1540Y2775D01*
X1556D01*
X1548Y2759D01*
Y2763D02*
X1544Y2771D01*
X1552D01*
X1548Y2763D01*
X1161Y3602D02*
X1153Y3618D01*
X1169D01*
X1161Y3602D01*
Y3606D02*
X1157Y3614D01*
X1165D01*
X1161Y3606D01*
X1372Y4672D02*
X1364Y4688D01*
X1380D01*
X1372Y4672D01*
Y4676D02*
X1368Y4684D01*
X1376D01*
X1372Y4676D01*
X1748Y4311D02*
X1740Y4327D01*
X1756D01*
X1748Y4311D01*
Y4315D02*
X1744Y4323D01*
X1752D01*
X1748Y4315D01*
X697Y4030D02*
X689Y4046D01*
X705D01*
X697Y4030D01*
Y4034D02*
X693Y4042D01*
X701D01*
X697Y4034D01*
X1994Y3241D02*
X1986Y3257D01*
X2002D01*
X1994Y3241D01*
Y3245D02*
X1990Y3253D01*
X1998D01*
X1994Y3245D01*
X1941Y3714D02*
X1933Y3730D01*
X1949D01*
X1941Y3714D01*
Y3718D02*
X1937Y3726D01*
X1945D01*
X1941Y3718D01*
X1968Y3264D02*
X1960Y3280D01*
X1976D01*
X1968Y3264D01*
Y3268D02*
X1964Y3276D01*
X1972D01*
X1968Y3268D01*
X1953Y3751D02*
X1945Y3767D01*
X1961D01*
X1953Y3751D01*
Y3755D02*
X1949Y3763D01*
X1957D01*
X1953Y3755D01*
X2032Y3751D02*
X2024Y3767D01*
X2040D01*
X2032Y3751D01*
Y3755D02*
X2028Y3763D01*
X2036D01*
X2032Y3755D01*
X2053Y3243D02*
X2045Y3259D01*
X2061D01*
X2053Y3243D01*
Y3247D02*
X2049Y3255D01*
X2057D01*
X2053Y3247D01*
X2024Y3226D02*
X2016Y3242D01*
X2032D01*
X2024Y3226D01*
Y3230D02*
X2020Y3238D01*
X2028D01*
X2024Y3230D01*
X2020Y3714D02*
X2012Y3730D01*
X2028D01*
X2020Y3714D01*
Y3718D02*
X2016Y3726D01*
X2024D01*
X2020Y3718D01*
X1913Y3264D02*
X1905Y3280D01*
X1921D01*
X1913Y3264D01*
Y3268D02*
X1909Y3276D01*
X1917D01*
X1913Y3268D01*
X1500Y1012D02*
X1492Y1028D01*
X1508D01*
X1500Y1012D01*
Y1016D02*
X1496Y1024D01*
X1504D01*
X1500Y1016D01*
X2468Y3258D02*
X2460Y3274D01*
X2476D01*
X2468Y3258D01*
Y3262D02*
X2464Y3270D01*
X2472D01*
X2468Y3262D01*
X2327Y3987D02*
X2319Y4003D01*
X2335D01*
X2327Y3987D01*
Y3991D02*
X2323Y3999D01*
X2331D01*
X2327Y3991D01*
X2292Y3969D02*
X2284Y3985D01*
X2300D01*
X2292Y3969D01*
Y3973D02*
X2288Y3981D01*
X2296D01*
X2292Y3973D01*
X2433Y3258D02*
X2425Y3274D01*
X2441D01*
X2433Y3258D01*
Y3262D02*
X2429Y3270D01*
X2437D01*
X2433Y3262D01*
X2399Y3260D02*
X2391Y3276D01*
X2407D01*
X2399Y3260D01*
Y3263D02*
X2395Y3272D01*
X2403D01*
X2399Y3263D01*
X2364Y3260D02*
X2356Y3276D01*
X2372D01*
X2364Y3260D01*
Y3263D02*
X2360Y3272D01*
X2368D01*
X2364Y3263D01*
X2330Y3883D02*
X2322Y3899D01*
X2338D01*
X2330Y3883D01*
Y3887D02*
X2326Y3895D01*
X2334D01*
X2330Y3887D01*
X2294Y3883D02*
X2286Y3899D01*
X2302D01*
X2294Y3883D01*
Y3887D02*
X2290Y3895D01*
X2298D01*
X2294Y3887D01*
X2297Y399D02*
X2289Y415D01*
X2305D01*
X2297Y399D01*
Y403D02*
X2293Y411D01*
X2301D01*
X2297Y403D01*
X1645Y399D02*
X1637Y415D01*
X1653D01*
X1645Y399D01*
Y403D02*
X1641Y411D01*
X1649D01*
X1645Y403D01*
X824Y447D02*
X828Y451D01*
X832D01*
X828Y455D01*
X832Y459D01*
X828D01*
X824Y463D01*
X820Y459D01*
X816D01*
X820Y455D01*
X816Y451D01*
X820D01*
X824Y447D01*
Y451D02*
X826Y453D01*
X828D01*
X826Y455D01*
X828Y457D01*
X826D01*
X824Y459D01*
X822Y457D01*
X820D01*
X822Y455D01*
X820Y453D01*
X822D01*
X824Y451D01*
X274Y392D02*
X278Y396D01*
X282D01*
X278Y400D01*
X282Y404D01*
X278D01*
X274Y408D01*
X270Y404D01*
X266D01*
X270Y400D01*
X266Y396D01*
X270D01*
X274Y392D01*
Y396D02*
X276Y398D01*
X278D01*
X276Y400D01*
X278Y402D01*
X276D01*
X274Y404D01*
X272Y402D01*
X270D01*
X272Y400D01*
X270Y398D01*
X272D01*
X274Y396D01*
X895Y846D02*
X899Y850D01*
X903D01*
X899Y854D01*
X903Y858D01*
X899D01*
X895Y862D01*
X891Y858D01*
X887D01*
X891Y854D01*
X887Y850D01*
X891D01*
X895Y846D01*
Y850D02*
X897Y852D01*
X899D01*
X897Y854D01*
X899Y856D01*
X897D01*
X895Y858D01*
X893Y856D01*
X891D01*
X893Y854D01*
X891Y852D01*
X893D01*
X895Y850D01*
X110Y3041D02*
X114Y3045D01*
X118D01*
X114Y3049D01*
X118Y3053D01*
X114D01*
X110Y3057D01*
X106Y3053D01*
X102D01*
X106Y3049D01*
X102Y3045D01*
X106D01*
X110Y3041D01*
Y3045D02*
X112Y3047D01*
X114D01*
X112Y3049D01*
X114Y3051D01*
X112D01*
X110Y3053D01*
X108Y3051D01*
X106D01*
X108Y3049D01*
X106Y3047D01*
X108D01*
X110Y3045D01*
X2038Y2965D02*
X2042Y2969D01*
X2046D01*
X2042Y2973D01*
X2046Y2977D01*
X2042D01*
X2038Y2981D01*
X2034Y2977D01*
X2030D01*
X2034Y2973D01*
X2030Y2969D01*
X2034D01*
X2038Y2965D01*
Y2969D02*
X2040Y2971D01*
X2042D01*
X2040Y2973D01*
X2042Y2975D01*
X2040D01*
X2038Y2977D01*
X2036Y2975D01*
X2034D01*
X2036Y2973D01*
X2034Y2971D01*
X2036D01*
X2038Y2969D01*
X910Y2893D02*
X914Y2897D01*
X918D01*
X914Y2901D01*
X918Y2905D01*
X914D01*
X910Y2909D01*
X906Y2905D01*
X902D01*
X906Y2901D01*
X902Y2897D01*
X906D01*
X910Y2893D01*
Y2897D02*
X912Y2899D01*
X914D01*
X912Y2901D01*
X914Y2903D01*
X912D01*
X910Y2905D01*
X908Y2903D01*
X906D01*
X908Y2901D01*
X906Y2899D01*
X908D01*
X910Y2897D01*
X1080Y2703D02*
X1084Y2707D01*
X1088D01*
X1084Y2711D01*
X1088Y2715D01*
X1084D01*
X1080Y2719D01*
X1076Y2715D01*
X1072D01*
X1076Y2711D01*
X1072Y2707D01*
X1076D01*
X1080Y2703D01*
Y2707D02*
X1082Y2709D01*
X1084D01*
X1082Y2711D01*
X1084Y2713D01*
X1082D01*
X1080Y2715D01*
X1078Y2713D01*
X1076D01*
X1078Y2711D01*
X1076Y2709D01*
X1078D01*
X1080Y2707D01*
X1331Y2962D02*
X1335Y2966D01*
X1339D01*
X1335Y2970D01*
X1339Y2974D01*
X1335D01*
X1331Y2978D01*
X1327Y2974D01*
X1323D01*
X1327Y2970D01*
X1323Y2966D01*
X1327D01*
X1331Y2962D01*
Y2966D02*
X1333Y2968D01*
X1335D01*
X1333Y2970D01*
X1335Y2972D01*
X1333D01*
X1331Y2974D01*
X1329Y2972D01*
X1327D01*
X1329Y2970D01*
X1327Y2968D01*
X1329D01*
X1331Y2966D01*
X597Y2617D02*
X601Y2621D01*
X605D01*
X601Y2625D01*
X605Y2629D01*
X601D01*
X597Y2633D01*
X593Y2629D01*
X589D01*
X593Y2625D01*
X589Y2621D01*
X593D01*
X597Y2617D01*
Y2621D02*
X599Y2623D01*
X601D01*
X599Y2625D01*
X601Y2627D01*
X599D01*
X597Y2629D01*
X595Y2627D01*
X593D01*
X595Y2625D01*
X593Y2623D01*
X595D01*
X597Y2621D01*
X97Y2617D02*
X101Y2621D01*
X105D01*
X101Y2625D01*
X105Y2629D01*
X101D01*
X97Y2633D01*
X93Y2629D01*
X89D01*
X93Y2625D01*
X89Y2621D01*
X93D01*
X97Y2617D01*
Y2621D02*
X99Y2623D01*
X101D01*
X99Y2625D01*
X101Y2627D01*
X99D01*
X97Y2629D01*
X95Y2627D01*
X93D01*
X95Y2625D01*
X93Y2623D01*
X95D01*
X97Y2621D01*
X1212Y2407D02*
X1216Y2411D01*
X1220D01*
X1216Y2415D01*
X1220Y2419D01*
X1216D01*
X1212Y2423D01*
X1208Y2419D01*
X1204D01*
X1208Y2415D01*
X1204Y2411D01*
X1208D01*
X1212Y2407D01*
Y2411D02*
X1214Y2413D01*
X1216D01*
X1214Y2415D01*
X1216Y2417D01*
X1214D01*
X1212Y2419D01*
X1210Y2417D01*
X1208D01*
X1210Y2415D01*
X1208Y2413D01*
X1210D01*
X1212Y2411D01*
X411Y1597D02*
X415Y1601D01*
X419D01*
X415Y1605D01*
X419Y1609D01*
X415D01*
X411Y1613D01*
X407Y1609D01*
X403D01*
X407Y1605D01*
X403Y1601D01*
X407D01*
X411Y1597D01*
Y1601D02*
X413Y1603D01*
X415D01*
X413Y1605D01*
X415Y1607D01*
X413D01*
X411Y1609D01*
X409Y1607D01*
X407D01*
X409Y1605D01*
X407Y1603D01*
X409D01*
X411Y1601D01*
X2565Y3183D02*
X2569Y3187D01*
X2573D01*
X2569Y3191D01*
X2573Y3195D01*
X2569D01*
X2565Y3199D01*
X2561Y3195D01*
X2557D01*
X2561Y3191D01*
X2557Y3187D01*
X2561D01*
X2565Y3183D01*
Y3187D02*
X2567Y3189D01*
X2569D01*
X2567Y3191D01*
X2569Y3193D01*
X2567D01*
X2565Y3195D01*
X2563Y3193D01*
X2561D01*
X2563Y3191D01*
X2561Y3189D01*
X2563D01*
X2565Y3187D01*
X1950Y3059D02*
X1954Y3063D01*
X1958D01*
X1954Y3067D01*
X1958Y3071D01*
X1954D01*
X1950Y3075D01*
X1946Y3071D01*
X1942D01*
X1946Y3067D01*
X1942Y3063D01*
X1946D01*
X1950Y3059D01*
Y3063D02*
X1952Y3065D01*
X1954D01*
X1952Y3067D01*
X1954Y3069D01*
X1952D01*
X1950Y3071D01*
X1948Y3069D01*
X1946D01*
X1948Y3067D01*
X1946Y3065D01*
X1948D01*
X1950Y3063D01*
X2019Y2108D02*
X2023Y2112D01*
X2027D01*
X2023Y2116D01*
X2027Y2120D01*
X2023D01*
X2019Y2124D01*
X2015Y2120D01*
X2011D01*
X2015Y2116D01*
X2011Y2112D01*
X2015D01*
X2019Y2108D01*
Y2112D02*
X2021Y2114D01*
X2023D01*
X2021Y2116D01*
X2023Y2118D01*
X2021D01*
X2019Y2120D01*
X2017Y2118D01*
X2015D01*
X2017Y2116D01*
X2015Y2114D01*
X2017D01*
X2019Y2112D01*
X1276Y446D02*
X1280Y450D01*
X1284D01*
X1280Y454D01*
X1284Y458D01*
X1280D01*
X1276Y462D01*
X1272Y458D01*
X1268D01*
X1272Y454D01*
X1268Y450D01*
X1272D01*
X1276Y446D01*
Y450D02*
X1278Y452D01*
X1280D01*
X1278Y454D01*
X1280Y456D01*
X1278D01*
X1276Y458D01*
X1274Y456D01*
X1272D01*
X1274Y454D01*
X1272Y452D01*
X1274D01*
X1276Y450D01*
X705Y445D02*
X709Y449D01*
X713D01*
X709Y453D01*
X713Y457D01*
X709D01*
X705Y461D01*
X701Y457D01*
X697D01*
X701Y453D01*
X697Y449D01*
X701D01*
X705Y445D01*
Y449D02*
X707Y451D01*
X709D01*
X707Y453D01*
X709Y455D01*
X707D01*
X705Y457D01*
X703Y455D01*
X701D01*
X703Y453D01*
X701Y451D01*
X703D01*
X705Y449D01*
X1274Y935D02*
X1278Y939D01*
X1282D01*
X1278Y943D01*
X1282Y947D01*
X1278D01*
X1274Y951D01*
X1270Y947D01*
X1266D01*
X1270Y943D01*
X1266Y939D01*
X1270D01*
X1274Y935D01*
Y939D02*
X1276Y941D01*
X1278D01*
X1276Y943D01*
X1278Y945D01*
X1276D01*
X1274Y947D01*
X1272Y945D01*
X1270D01*
X1272Y943D01*
X1270Y941D01*
X1272D01*
X1274Y939D01*
X382Y2623D02*
X386Y2627D01*
X390D01*
X386Y2631D01*
X390Y2635D01*
X386D01*
X382Y2639D01*
X378Y2635D01*
X374D01*
X378Y2631D01*
X374Y2627D01*
X378D01*
X382Y2623D01*
Y2627D02*
X384Y2629D01*
X386D01*
X384Y2631D01*
X386Y2633D01*
X384D01*
X382Y2635D01*
X380Y2633D01*
X378D01*
X380Y2631D01*
X378Y2629D01*
X380D01*
X382Y2627D01*
X882Y2623D02*
X886Y2627D01*
X890D01*
X886Y2631D01*
X890Y2635D01*
X886D01*
X882Y2639D01*
X878Y2635D01*
X874D01*
X878Y2631D01*
X874Y2627D01*
X878D01*
X882Y2623D01*
Y2627D02*
X884Y2629D01*
X886D01*
X884Y2631D01*
X886Y2633D01*
X884D01*
X882Y2635D01*
X880Y2633D01*
X878D01*
X880Y2631D01*
X878Y2629D01*
X880D01*
X882Y2627D01*
X1596Y810D02*
X1588Y826D01*
X1604D01*
X1596Y810D01*
Y814D02*
X1592Y822D01*
X1600D01*
X1596Y814D01*
X1949Y1664D02*
X1941Y1680D01*
X1957D01*
X1949Y1664D01*
Y1668D02*
X1945Y1676D01*
X1953D01*
X1949Y1668D01*
X1713Y4020D02*
X1705Y4036D01*
X1721D01*
X1713Y4020D01*
Y4024D02*
X1709Y4032D01*
X1717D01*
X1713Y4024D01*
X1697Y4179D02*
X1689Y4195D01*
X1705D01*
X1697Y4179D01*
Y4183D02*
X1693Y4191D01*
X1701D01*
X1697Y4183D01*
X2036Y3850D02*
X2028Y3866D01*
X2044D01*
X2036Y3850D01*
Y3854D02*
X2032Y3862D01*
X2040D01*
X2036Y3854D01*
X2400Y4208D02*
X2392Y4224D01*
X2408D01*
X2400Y4208D01*
Y4212D02*
X2396Y4220D01*
X2404D01*
X2400Y4212D01*
X2075Y3850D02*
X2067Y3866D01*
X2083D01*
X2075Y3850D01*
Y3854D02*
X2071Y3862D01*
X2079D01*
X2075Y3854D01*
X1813Y4203D02*
X1805Y4219D01*
X1821D01*
X1813Y4203D01*
Y4207D02*
X1809Y4215D01*
X1817D01*
X1813Y4207D01*
Y4062D02*
X1805Y4078D01*
X1821D01*
X1813Y4062D01*
Y4066D02*
X1809Y4074D01*
X1817D01*
X1813Y4066D01*
X1822Y4272D02*
X1814Y4288D01*
X1830D01*
X1822Y4272D01*
Y4276D02*
X1818Y4284D01*
X1826D01*
X1822Y4276D01*
X2279Y4272D02*
X2271Y4288D01*
X2287D01*
X2279Y4272D01*
Y4276D02*
X2275Y4284D01*
X2283D01*
X2279Y4276D01*
X2108Y4437D02*
X2100Y4453D01*
X2116D01*
X2108Y4437D01*
Y4441D02*
X2104Y4449D01*
X2112D01*
X2108Y4441D01*
X1993Y4437D02*
X1985Y4453D01*
X2001D01*
X1993Y4437D01*
Y4441D02*
X1989Y4449D01*
X1997D01*
X1993Y4441D01*
X2212Y4252D02*
X2204Y4268D01*
X2220D01*
X2212Y4252D01*
Y4256D02*
X2208Y4264D01*
X2216D01*
X2212Y4256D01*
X1898Y4252D02*
X1890Y4268D01*
X1906D01*
X1898Y4252D01*
Y4256D02*
X1894Y4264D01*
X1902D01*
X1898Y4256D01*
X2157Y4162D02*
X2149Y4178D01*
X2165D01*
X2157Y4162D01*
Y4166D02*
X2153Y4174D01*
X2161D01*
X2157Y4166D01*
X2098Y4172D02*
X2090Y4188D01*
X2106D01*
X2098Y4172D01*
Y4176D02*
X2094Y4184D01*
X2102D01*
X2098Y4176D01*
X2080Y4090D02*
X2072Y4106D01*
X2088D01*
X2080Y4090D01*
Y4094D02*
X2076Y4102D01*
X2084D01*
X2080Y4094D01*
X2031Y4090D02*
X2023Y4106D01*
X2039D01*
X2031Y4090D01*
Y4094D02*
X2027Y4102D01*
X2035D01*
X2031Y4094D01*
X1977Y4090D02*
X1969Y4106D01*
X1985D01*
X1977Y4090D01*
Y4094D02*
X1973Y4102D01*
X1981D01*
X1977Y4094D01*
X2129Y4090D02*
X2121Y4106D01*
X2137D01*
X2129Y4090D01*
Y4094D02*
X2125Y4102D01*
X2133D01*
X2129Y4094D01*
X2208Y4027D02*
X2200Y4043D01*
X2216D01*
X2208Y4027D01*
Y4031D02*
X2204Y4039D01*
X2212D01*
X2208Y4031D01*
X2213Y4072D02*
X2205Y4088D01*
X2221D01*
X2213Y4072D01*
Y4076D02*
X2209Y4084D01*
X2217D01*
X2213Y4076D01*
X1892Y4072D02*
X1884Y4088D01*
X1900D01*
X1892Y4072D01*
Y4076D02*
X1888Y4084D01*
X1896D01*
X1892Y4076D01*
X1897Y4027D02*
X1889Y4043D01*
X1905D01*
X1897Y4027D01*
Y4031D02*
X1893Y4039D01*
X1901D01*
X1897Y4031D01*
X2039Y4172D02*
X2031Y4188D01*
X2047D01*
X2039Y4172D01*
Y4176D02*
X2035Y4184D01*
X2043D01*
X2039Y4176D01*
X1980Y4172D02*
X1972Y4188D01*
X1988D01*
X1980Y4172D01*
Y4176D02*
X1976Y4184D01*
X1984D01*
X1980Y4176D01*
X1933Y4162D02*
X1925Y4178D01*
X1941D01*
X1933Y4162D01*
Y4166D02*
X1929Y4174D01*
X1937D01*
X1933Y4166D01*
X1813Y4097D02*
X1805Y4113D01*
X1821D01*
X1813Y4097D01*
Y4101D02*
X1809Y4109D01*
X1817D01*
X1813Y4101D01*
Y4167D02*
X1805Y4183D01*
X1821D01*
X1813Y4167D01*
Y4171D02*
X1809Y4179D01*
X1817D01*
X1813Y4171D01*
X2218Y1072D02*
X2210Y1088D01*
X2226D01*
X2218Y1072D01*
Y1076D02*
X2214Y1084D01*
X2222D01*
X2218Y1076D01*
X1683Y1085D02*
X1675Y1101D01*
X1691D01*
X1683Y1085D01*
Y1089D02*
X1679Y1097D01*
X1687D01*
X1683Y1089D01*
X1450Y3864D02*
X1442Y3880D01*
X1458D01*
X1450Y3864D01*
Y3868D02*
X1446Y3876D01*
X1454D01*
X1450Y3868D01*
X1279Y3955D02*
X1283Y3959D01*
X1287D01*
X1283Y3963D01*
X1287Y3967D01*
X1283D01*
X1279Y3971D01*
X1275Y3967D01*
X1271D01*
X1275Y3963D01*
X1271Y3959D01*
X1275D01*
X1279Y3955D01*
Y3959D02*
X1281Y3961D01*
X1283D01*
X1281Y3963D01*
X1283Y3965D01*
X1281D01*
X1279Y3967D01*
X1277Y3965D01*
X1275D01*
X1277Y3963D01*
X1275Y3961D01*
X1277D01*
X1279Y3959D01*
X1277Y3768D02*
X1281Y3772D01*
X1285D01*
X1281Y3776D01*
X1285Y3780D01*
X1281D01*
X1277Y3784D01*
X1273Y3780D01*
X1269D01*
X1273Y3776D01*
X1269Y3772D01*
X1273D01*
X1277Y3768D01*
Y3772D02*
X1279Y3774D01*
X1281D01*
X1279Y3776D01*
X1281Y3778D01*
X1279D01*
X1277Y3780D01*
X1275Y3778D01*
X1273D01*
X1275Y3776D01*
X1273Y3774D01*
X1275D01*
X1277Y3772D01*
Y3830D02*
X1281Y3834D01*
X1285D01*
X1281Y3838D01*
X1285Y3842D01*
X1281D01*
X1277Y3846D01*
X1273Y3842D01*
X1269D01*
X1273Y3838D01*
X1269Y3834D01*
X1273D01*
X1277Y3830D01*
Y3834D02*
X1279Y3836D01*
X1281D01*
X1279Y3838D01*
X1281Y3840D01*
X1279D01*
X1277Y3842D01*
X1275Y3840D01*
X1273D01*
X1275Y3838D01*
X1273Y3836D01*
X1275D01*
X1277Y3834D01*
Y3894D02*
X1281Y3898D01*
X1285D01*
X1281Y3902D01*
X1285Y3906D01*
X1281D01*
X1277Y3910D01*
X1273Y3906D01*
X1269D01*
X1273Y3902D01*
X1269Y3898D01*
X1273D01*
X1277Y3894D01*
Y3898D02*
X1279Y3900D01*
X1281D01*
X1279Y3902D01*
X1281Y3904D01*
X1279D01*
X1277Y3906D01*
X1275Y3904D01*
X1273D01*
X1275Y3902D01*
X1273Y3900D01*
X1275D01*
X1277Y3898D01*
X2427Y474D02*
X2431Y478D01*
X2435D01*
X2431Y482D01*
X2435Y486D01*
X2431D01*
X2427Y490D01*
X2423Y486D01*
X2419D01*
X2423Y482D01*
X2419Y478D01*
X2423D01*
X2427Y474D01*
Y478D02*
X2429Y480D01*
X2431D01*
X2429Y482D01*
X2431Y484D01*
X2429D01*
X2427Y486D01*
X2425Y484D01*
X2423D01*
X2425Y482D01*
X2423Y480D01*
X2425D01*
X2427Y478D01*
X2144Y516D02*
X2148Y520D01*
X2152D01*
X2148Y524D01*
X2152Y528D01*
X2148D01*
X2144Y532D01*
X2140Y528D01*
X2136D01*
X2140Y524D01*
X2136Y520D01*
X2140D01*
X2144Y516D01*
Y520D02*
X2146Y522D01*
X2148D01*
X2146Y524D01*
X2148Y526D01*
X2146D01*
X2144Y528D01*
X2142Y526D01*
X2140D01*
X2142Y524D01*
X2140Y522D01*
X2142D01*
X2144Y520D01*
Y480D02*
X2148Y484D01*
X2152D01*
X2148Y488D01*
X2152Y492D01*
X2148D01*
X2144Y496D01*
X2140Y492D01*
X2136D01*
X2140Y488D01*
X2136Y484D01*
X2140D01*
X2144Y480D01*
Y484D02*
X2146Y486D01*
X2148D01*
X2146Y488D01*
X2148Y490D01*
X2146D01*
X2144Y492D01*
X2142Y490D01*
X2140D01*
X2142Y488D01*
X2140Y486D01*
X2142D01*
X2144Y484D01*
X1854Y473D02*
X1858Y477D01*
X1862D01*
X1858Y481D01*
X1862Y485D01*
X1858D01*
X1854Y489D01*
X1850Y485D01*
X1846D01*
X1850Y481D01*
X1846Y477D01*
X1850D01*
X1854Y473D01*
Y477D02*
X1856Y479D01*
X1858D01*
X1856Y481D01*
X1858Y483D01*
X1856D01*
X1854Y485D01*
X1852Y483D01*
X1850D01*
X1852Y481D01*
X1850Y479D01*
X1852D01*
X1854Y477D01*
X2329Y798D02*
X2333Y802D01*
X2337D01*
X2333Y806D01*
X2337Y810D01*
X2333D01*
X2329Y814D01*
X2325Y810D01*
X2321D01*
X2325Y806D01*
X2321Y802D01*
X2325D01*
X2329Y798D01*
Y802D02*
X2331Y804D01*
X2333D01*
X2331Y806D01*
X2333Y808D01*
X2331D01*
X2329Y810D01*
X2327Y808D01*
X2325D01*
X2327Y806D01*
X2325Y804D01*
X2327D01*
X2329Y802D01*
X2062Y810D02*
X2054Y826D01*
X2070D01*
X2062Y810D01*
Y814D02*
X2058Y822D01*
X2066D01*
X2062Y814D01*
X2075Y843D02*
X2067Y859D01*
X2083D01*
X2075Y843D01*
Y847D02*
X2071Y855D01*
X2079D01*
X2075Y847D01*
X2065Y775D02*
X2057Y791D01*
X2073D01*
X2065Y775D01*
Y779D02*
X2061Y787D01*
X2069D01*
X2065Y779D01*
X1960Y942D02*
X1964Y946D01*
X1968D01*
X1964Y950D01*
X1968Y954D01*
X1964D01*
X1960Y958D01*
X1956Y954D01*
X1952D01*
X1956Y950D01*
X1952Y946D01*
X1956D01*
X1960Y942D01*
Y946D02*
X1962Y948D01*
X1964D01*
X1962Y950D01*
X1964Y952D01*
X1962D01*
X1960Y954D01*
X1958Y952D01*
X1956D01*
X1958Y950D01*
X1956Y948D01*
X1958D01*
X1960Y946D01*
X2400Y4364D02*
X2404Y4368D01*
X2408D01*
X2404Y4372D01*
X2408Y4376D01*
X2404D01*
X2400Y4380D01*
X2396Y4376D01*
X2392D01*
X2396Y4372D01*
X2392Y4368D01*
X2396D01*
X2400Y4364D01*
Y4368D02*
X2402Y4370D01*
X2404D01*
X2402Y4372D01*
X2404Y4374D01*
X2402D01*
X2400Y4376D01*
X2398Y4374D01*
X2396D01*
X2398Y4372D01*
X2396Y4370D01*
X2398D01*
X2400Y4368D01*
X2361Y4322D02*
X2365Y4326D01*
X2369D01*
X2365Y4330D01*
X2369Y4334D01*
X2365D01*
X2361Y4338D01*
X2357Y4334D01*
X2353D01*
X2357Y4330D01*
X2353Y4326D01*
X2357D01*
X2361Y4322D01*
Y4326D02*
X2363Y4328D01*
X2365D01*
X2363Y4330D01*
X2365Y4332D01*
X2363D01*
X2361Y4334D01*
X2359Y4332D01*
X2357D01*
X2359Y4330D01*
X2357Y4328D01*
X2359D01*
X2361Y4326D01*
X2190Y4387D02*
X2194Y4391D01*
X2198D01*
X2194Y4395D01*
X2198Y4399D01*
X2194D01*
X2190Y4403D01*
X2186Y4399D01*
X2182D01*
X2186Y4395D01*
X2182Y4391D01*
X2186D01*
X2190Y4387D01*
Y4391D02*
X2192Y4393D01*
X2194D01*
X2192Y4395D01*
X2194Y4397D01*
X2192D01*
X2190Y4399D01*
X2188Y4397D01*
X2186D01*
X2188Y4395D01*
X2186Y4393D01*
X2188D01*
X2190Y4391D01*
X1922Y904D02*
X1914Y920D01*
X1930D01*
X1922Y904D01*
Y908D02*
X1918Y916D01*
X1926D01*
X1922Y908D01*
X1848Y844D02*
X1840Y860D01*
X1856D01*
X1848Y844D01*
Y848D02*
X1844Y856D01*
X1852D01*
X1848Y848D01*
X1604Y844D02*
X1596Y860D01*
X1612D01*
X1604Y844D01*
Y848D02*
X1600Y856D01*
X1608D01*
X1604Y848D01*
X2130Y1185D02*
X2122Y1201D01*
X2138D01*
X2130Y1185D01*
Y1189D02*
X2126Y1197D01*
X2134D01*
X2130Y1189D01*
X1784Y1192D02*
X1776Y1208D01*
X1792D01*
X1784Y1192D01*
Y1196D02*
X1780Y1204D01*
X1788D01*
X1784Y1196D01*
X1570Y475D02*
X1574Y479D01*
X1578D01*
X1574Y483D01*
X1578Y487D01*
X1574D01*
X1570Y491D01*
X1566Y487D01*
X1562D01*
X1566Y483D01*
X1562Y479D01*
X1566D01*
X1570Y475D01*
Y479D02*
X1572Y481D01*
X1574D01*
X1572Y483D01*
X1574Y485D01*
X1572D01*
X1570Y487D01*
X1568Y485D01*
X1566D01*
X1568Y483D01*
X1566Y481D01*
X1568D01*
X1570Y479D01*
Y514D02*
X1574Y518D01*
X1578D01*
X1574Y522D01*
X1578Y526D01*
X1574D01*
X1570Y530D01*
X1566Y526D01*
X1562D01*
X1566Y522D01*
X1562Y518D01*
X1566D01*
X1570Y514D01*
Y518D02*
X1572Y520D01*
X1574D01*
X1572Y522D01*
X1574Y524D01*
X1572D01*
X1570Y526D01*
X1568Y524D01*
X1566D01*
X1568Y522D01*
X1566Y520D01*
X1568D01*
X1570Y518D01*
X1888Y3239D02*
X1880Y3255D01*
X1896D01*
X1888Y3239D01*
Y3243D02*
X1884Y3251D01*
X1892D01*
X1888Y3243D01*
X2111Y3751D02*
X2103Y3767D01*
X2119D01*
X2111Y3751D01*
Y3755D02*
X2107Y3763D01*
X2115D01*
X2111Y3755D01*
X2099Y3714D02*
X2091Y3730D01*
X2107D01*
X2099Y3714D01*
Y3718D02*
X2095Y3726D01*
X2103D01*
X2099Y3718D01*
X2118Y3260D02*
X2111Y3276D01*
X2126D01*
X2118Y3260D01*
Y3263D02*
X2115Y3272D01*
X2122D01*
X2118Y3263D01*
X2083Y3260D02*
X2076Y3276D01*
X2092D01*
X2083Y3260D01*
Y3263D02*
X2079Y3272D01*
X2088D01*
X2083Y3263D01*
X2152Y3260D02*
X2144Y3276D01*
X2160D01*
X2152Y3260D01*
Y3263D02*
X2148Y3272D01*
X2156D01*
X2152Y3263D01*
X2208Y3260D02*
X2200Y3276D01*
X2216D01*
X2208Y3260D01*
Y3263D02*
X2204Y3272D01*
X2212D01*
X2208Y3263D01*
X2276Y3260D02*
X2268Y3276D01*
X2284D01*
X2276Y3260D01*
Y3263D02*
X2272Y3272D01*
X2280D01*
X2276Y3263D01*
X2241Y3260D02*
X2233Y3276D01*
X2249D01*
X2241Y3260D01*
Y3263D02*
X2237Y3272D01*
X2245D01*
X2241Y3263D01*
X2249Y3751D02*
X2241Y3767D01*
X2257D01*
X2249Y3751D01*
Y3755D02*
X2245Y3763D01*
X2253D01*
X2249Y3755D01*
X2237Y3714D02*
X2229Y3730D01*
X2245D01*
X2237Y3714D01*
Y3718D02*
X2233Y3726D01*
X2241D01*
X2237Y3718D01*
X1893Y3714D02*
X1885Y3730D01*
X1901D01*
X1893Y3714D01*
Y3718D02*
X1889Y3726D01*
X1897D01*
X1893Y3718D01*
X1881Y3751D02*
X1873Y3767D01*
X1889D01*
X1881Y3751D01*
Y3755D02*
X1877Y3763D01*
X1885D01*
X1881Y3755D01*
X1971Y1492D02*
X1963Y1508D01*
X1979D01*
X1971Y1492D01*
Y1496D02*
X1967Y1504D01*
X1975D01*
X1971Y1496D01*
X1673Y3867D02*
X1677Y3871D01*
X1681D01*
X1677Y3875D01*
X1681Y3879D01*
X1677D01*
X1673Y3883D01*
X1669Y3879D01*
X1665D01*
X1669Y3875D01*
X1665Y3871D01*
X1669D01*
X1673Y3867D01*
Y3871D02*
X1675Y3873D01*
X1677D01*
X1675Y3875D01*
X1677Y3877D01*
X1675D01*
X1673Y3879D01*
X1671Y3877D01*
X1669D01*
X1671Y3875D01*
X1669Y3873D01*
X1671D01*
X1673Y3871D01*
X1924Y4532D02*
X1928Y4536D01*
X1932D01*
X1928Y4540D01*
X1932Y4544D01*
X1928D01*
X1924Y4548D01*
X1920Y4544D01*
X1916D01*
X1920Y4540D01*
X1916Y4536D01*
X1920D01*
X1924Y4532D01*
Y4536D02*
X1926Y4538D01*
X1928D01*
X1926Y4540D01*
X1928Y4542D01*
X1926D01*
X1924Y4544D01*
X1922Y4542D01*
X1920D01*
X1922Y4540D01*
X1920Y4538D01*
X1922D01*
X1924Y4536D01*
X1960Y4506D02*
X1952Y4522D01*
X1968D01*
X1960Y4506D01*
Y4510D02*
X1956Y4518D01*
X1964D01*
X1960Y4510D01*
X1638Y4257D02*
X1630Y4273D01*
X1646D01*
X1638Y4257D01*
Y4261D02*
X1634Y4269D01*
X1642D01*
X1638Y4261D01*
X2148Y4513D02*
X2140Y4529D01*
X2156D01*
X2148Y4513D01*
Y4517D02*
X2144Y4525D01*
X2152D01*
X2148Y4517D01*
X2181Y4535D02*
X2185Y4539D01*
X2189D01*
X2185Y4543D01*
X2189Y4547D01*
X2185D01*
X2181Y4551D01*
X2177Y4547D01*
X2173D01*
X2177Y4543D01*
X2173Y4539D01*
X2177D01*
X2181Y4535D01*
Y4539D02*
X2183Y4541D01*
X2185D01*
X2183Y4543D01*
X2185Y4545D01*
X2183D01*
X2181Y4547D01*
X2179Y4545D01*
X2177D01*
X2179Y4543D01*
X2177Y4541D01*
X2179D01*
X2181Y4539D01*
X2316Y4404D02*
X2320Y4408D01*
X2324D01*
X2320Y4412D01*
X2324Y4416D01*
X2320D01*
X2316Y4420D01*
X2312Y4416D01*
X2308D01*
X2312Y4412D01*
X2308Y4408D01*
X2312D01*
X2316Y4404D01*
Y4408D02*
X2318Y4410D01*
X2320D01*
X2318Y4412D01*
X2320Y4414D01*
X2318D01*
X2316Y4416D01*
X2314Y4414D01*
X2312D01*
X2314Y4412D01*
X2312Y4410D01*
X2314D01*
X2316Y4408D01*
X2359Y4525D02*
X2351Y4541D01*
X2367D01*
X2359Y4525D01*
Y4529D02*
X2355Y4537D01*
X2363D01*
X2359Y4529D01*
X1788Y4402D02*
X1780Y4418D01*
X1796D01*
X1788Y4402D01*
Y4406D02*
X1784Y4414D01*
X1792D01*
X1788Y4406D01*
X1976Y4648D02*
X1968Y4664D01*
X1984D01*
X1976Y4648D01*
Y4652D02*
X1972Y4660D01*
X1980D01*
X1976Y4652D01*
X1942Y1533D02*
X1934Y1549D01*
X1950D01*
X1942Y1533D01*
Y1537D02*
X1938Y1545D01*
X1946D01*
X1942Y1537D01*
X1105Y3812D02*
X1097Y3828D01*
X1113D01*
X1105Y3812D01*
Y3816D02*
X1101Y3824D01*
X1109D01*
X1105Y3816D01*
X1164Y3722D02*
X1156Y3738D01*
X1172D01*
X1164Y3722D01*
Y3726D02*
X1160Y3734D01*
X1168D01*
X1164Y3726D01*
X860Y4482D02*
X852Y4498D01*
X868D01*
X860Y4482D01*
Y4486D02*
X856Y4494D01*
X864D01*
X860Y4486D01*
X1100Y4567D02*
X1092Y4583D01*
X1108D01*
X1100Y4567D01*
Y4571D02*
X1096Y4579D01*
X1104D01*
X1100Y4571D01*
X1130Y4307D02*
X1122Y4323D01*
X1138D01*
X1130Y4307D01*
Y4311D02*
X1126Y4319D01*
X1134D01*
X1130Y4311D01*
X1160Y4207D02*
X1152Y4223D01*
X1168D01*
X1160Y4207D01*
Y4211D02*
X1156Y4219D01*
X1164D01*
X1160Y4211D01*
X1120Y4357D02*
X1112Y4373D01*
X1128D01*
X1120Y4357D01*
Y4361D02*
X1116Y4369D01*
X1124D01*
X1120Y4361D01*
X1180Y4522D02*
X1172Y4538D01*
X1188D01*
X1180Y4522D01*
Y4526D02*
X1176Y4534D01*
X1184D01*
X1180Y4526D01*
X1395Y4521D02*
X1387Y4537D01*
X1403D01*
X1395Y4521D01*
Y4525D02*
X1391Y4533D01*
X1399D01*
X1395Y4525D01*
X290Y4294D02*
X294Y4298D01*
X298D01*
X294Y4302D01*
X298Y4306D01*
X294D01*
X290Y4310D01*
X286Y4306D01*
X282D01*
X286Y4302D01*
X282Y4298D01*
X286D01*
X290Y4294D01*
Y4298D02*
X292Y4300D01*
X294D01*
X292Y4302D01*
X294Y4304D01*
X292D01*
X290Y4306D01*
X288Y4304D01*
X286D01*
X288Y4302D01*
X286Y4300D01*
X288D01*
X290Y4298D01*
X625Y4602D02*
X617Y4618D01*
X633D01*
X625Y4602D01*
Y4606D02*
X621Y4614D01*
X629D01*
X625Y4606D01*
X570Y4492D02*
X562Y4508D01*
X578D01*
X570Y4492D01*
Y4496D02*
X566Y4504D01*
X574D01*
X570Y4496D01*
X865Y3932D02*
X857Y3948D01*
X873D01*
X865Y3932D01*
Y3936D02*
X861Y3944D01*
X869D01*
X865Y3936D01*
X870Y3717D02*
X862Y3733D01*
X878D01*
X870Y3717D01*
Y3721D02*
X866Y3729D01*
X874D01*
X870Y3721D01*
X1850Y3230D02*
X1842Y3246D01*
X1858D01*
X1850Y3230D01*
Y3234D02*
X1846Y3242D01*
X1854D01*
X1850Y3234D01*
X2180Y3230D02*
X2172Y3246D01*
X2188D01*
X2180Y3230D01*
Y3234D02*
X2176Y3242D01*
X2184D01*
X2180Y3234D01*
X1275Y1385D02*
X1279Y1389D01*
X1283D01*
X1279Y1393D01*
X1283Y1397D01*
X1279D01*
X1275Y1401D01*
X1271Y1397D01*
X1267D01*
X1271Y1393D01*
X1267Y1389D01*
X1271D01*
X1275Y1385D01*
Y1389D02*
X1277Y1391D01*
X1279D01*
X1277Y1393D01*
X1279Y1395D01*
X1277D01*
X1275Y1397D01*
X1273Y1395D01*
X1271D01*
X1273Y1393D01*
X1271Y1391D01*
X1273D01*
X1275Y1389D01*
X911Y3279D02*
X915Y3283D01*
X919D01*
X915Y3287D01*
X919Y3291D01*
X915D01*
X911Y3295D01*
X907Y3291D01*
X903D01*
X907Y3287D01*
X903Y3283D01*
X907D01*
X911Y3279D01*
Y3283D02*
X913Y3285D01*
X915D01*
X913Y3287D01*
X915Y3289D01*
X913D01*
X911Y3291D01*
X909Y3289D01*
X907D01*
X909Y3287D01*
X907Y3285D01*
X909D01*
X911Y3283D01*
X750Y4192D02*
X742Y4208D01*
X758D01*
X750Y4192D01*
Y4196D02*
X746Y4204D01*
X754D01*
X750Y4196D01*
X900Y4592D02*
X892Y4608D01*
X908D01*
X900Y4592D01*
Y4596D02*
X896Y4604D01*
X904D01*
X900Y4596D01*
X960Y4587D02*
X952Y4603D01*
X968D01*
X960Y4587D01*
Y4591D02*
X956Y4599D01*
X964D01*
X960Y4591D01*
X920Y3652D02*
X912Y3668D01*
X928D01*
X920Y3652D01*
Y3656D02*
X916Y3664D01*
X924D01*
X920Y3656D01*
X1015Y3802D02*
X1007Y3818D01*
X1023D01*
X1015Y3802D01*
Y3806D02*
X1011Y3814D01*
X1019D01*
X1015Y3806D01*
X1060Y3817D02*
X1052Y3833D01*
X1068D01*
X1060Y3817D01*
Y3821D02*
X1056Y3829D01*
X1064D01*
X1060Y3821D01*
X910Y3812D02*
X902Y3828D01*
X918D01*
X910Y3812D01*
Y3816D02*
X906Y3824D01*
X914D01*
X910Y3816D01*
X870Y4197D02*
X862Y4213D01*
X878D01*
X870Y4197D01*
Y4201D02*
X866Y4209D01*
X874D01*
X870Y4201D01*
X1155Y4447D02*
X1147Y4463D01*
X1163D01*
X1155Y4447D01*
Y4451D02*
X1151Y4459D01*
X1159D01*
X1155Y4451D01*
X843Y4313D02*
X835Y4329D01*
X851D01*
X843Y4313D01*
Y4317D02*
X839Y4325D01*
X847D01*
X843Y4317D01*
X1230Y4232D02*
X1222Y4248D01*
X1238D01*
X1230Y4232D01*
Y4236D02*
X1226Y4244D01*
X1234D01*
X1230Y4236D01*
X835Y4077D02*
X827Y4093D01*
X843D01*
X835Y4077D01*
Y4081D02*
X831Y4089D01*
X839D01*
X835Y4081D01*
X790Y4132D02*
X782Y4148D01*
X798D01*
X790Y4132D01*
Y4136D02*
X786Y4144D01*
X794D01*
X790Y4136D01*
X947Y4028D02*
X939Y4044D01*
X955D01*
X947Y4028D01*
Y4032D02*
X943Y4040D01*
X951D01*
X947Y4032D01*
X1026Y4028D02*
X1018Y4044D01*
X1034D01*
X1026Y4028D01*
Y4032D02*
X1022Y4040D01*
X1030D01*
X1026Y4032D01*
X697Y4101D02*
X689Y4117D01*
X705D01*
X697Y4101D01*
Y4105D02*
X693Y4113D01*
X701D01*
X697Y4105D01*
X50Y4077D02*
X54Y4081D01*
X58D01*
X54Y4085D01*
X58Y4089D01*
X54D01*
X50Y4093D01*
X46Y4089D01*
X42D01*
X46Y4085D01*
X42Y4081D01*
X46D01*
X50Y4077D01*
Y4081D02*
X52Y4083D01*
X54D01*
X52Y4085D01*
X54Y4087D01*
X52D01*
X50Y4089D01*
X48Y4087D01*
X46D01*
X48Y4085D01*
X46Y4083D01*
X48D01*
X50Y4081D01*
X100Y4077D02*
X104Y4081D01*
X108D01*
X104Y4085D01*
X108Y4089D01*
X104D01*
X100Y4093D01*
X96Y4089D01*
X92D01*
X96Y4085D01*
X92Y4081D01*
X96D01*
X100Y4077D01*
Y4081D02*
X102Y4083D01*
X104D01*
X102Y4085D01*
X104Y4087D01*
X102D01*
X100Y4089D01*
X98Y4087D01*
X96D01*
X98Y4085D01*
X96Y4083D01*
X98D01*
X100Y4081D01*
X150Y4077D02*
X154Y4081D01*
X158D01*
X154Y4085D01*
X158Y4089D01*
X154D01*
X150Y4093D01*
X146Y4089D01*
X142D01*
X146Y4085D01*
X142Y4081D01*
X146D01*
X150Y4077D01*
Y4081D02*
X152Y4083D01*
X154D01*
X152Y4085D01*
X154Y4087D01*
X152D01*
X150Y4089D01*
X148Y4087D01*
X146D01*
X148Y4085D01*
X146Y4083D01*
X148D01*
X150Y4081D01*
X200Y4077D02*
X204Y4081D01*
X208D01*
X204Y4085D01*
X208Y4089D01*
X204D01*
X200Y4093D01*
X196Y4089D01*
X192D01*
X196Y4085D01*
X192Y4081D01*
X196D01*
X200Y4077D01*
Y4081D02*
X202Y4083D01*
X204D01*
X202Y4085D01*
X204Y4087D01*
X202D01*
X200Y4089D01*
X198Y4087D01*
X196D01*
X198Y4085D01*
X196Y4083D01*
X198D01*
X200Y4081D01*
X250Y4077D02*
X254Y4081D01*
X258D01*
X254Y4085D01*
X258Y4089D01*
X254D01*
X250Y4093D01*
X246Y4089D01*
X242D01*
X246Y4085D01*
X242Y4081D01*
X246D01*
X250Y4077D01*
Y4081D02*
X252Y4083D01*
X254D01*
X252Y4085D01*
X254Y4087D01*
X252D01*
X250Y4089D01*
X248Y4087D01*
X246D01*
X248Y4085D01*
X246Y4083D01*
X248D01*
X250Y4081D01*
X300Y4077D02*
X304Y4081D01*
X308D01*
X304Y4085D01*
X308Y4089D01*
X304D01*
X300Y4093D01*
X296Y4089D01*
X292D01*
X296Y4085D01*
X292Y4081D01*
X296D01*
X300Y4077D01*
Y4081D02*
X302Y4083D01*
X304D01*
X302Y4085D01*
X304Y4087D01*
X302D01*
X300Y4089D01*
X298Y4087D01*
X296D01*
X298Y4085D01*
X296Y4083D01*
X298D01*
X300Y4081D01*
X350Y4077D02*
X354Y4081D01*
X358D01*
X354Y4085D01*
X358Y4089D01*
X354D01*
X350Y4093D01*
X346Y4089D01*
X342D01*
X346Y4085D01*
X342Y4081D01*
X346D01*
X350Y4077D01*
Y4081D02*
X352Y4083D01*
X354D01*
X352Y4085D01*
X354Y4087D01*
X352D01*
X350Y4089D01*
X348Y4087D01*
X346D01*
X348Y4085D01*
X346Y4083D01*
X348D01*
X350Y4081D01*
X400Y4077D02*
X404Y4081D01*
X408D01*
X404Y4085D01*
X408Y4089D01*
X404D01*
X400Y4093D01*
X396Y4089D01*
X392D01*
X396Y4085D01*
X392Y4081D01*
X396D01*
X400Y4077D01*
Y4081D02*
X402Y4083D01*
X404D01*
X402Y4085D01*
X404Y4087D01*
X402D01*
X400Y4089D01*
X398Y4087D01*
X396D01*
X398Y4085D01*
X396Y4083D01*
X398D01*
X400Y4081D01*
X450Y4077D02*
X454Y4081D01*
X458D01*
X454Y4085D01*
X458Y4089D01*
X454D01*
X450Y4093D01*
X446Y4089D01*
X442D01*
X446Y4085D01*
X442Y4081D01*
X446D01*
X450Y4077D01*
Y4081D02*
X452Y4083D01*
X454D01*
X452Y4085D01*
X454Y4087D01*
X452D01*
X450Y4089D01*
X448Y4087D01*
X446D01*
X448Y4085D01*
X446Y4083D01*
X448D01*
X450Y4081D01*
X500Y4077D02*
X504Y4081D01*
X508D01*
X504Y4085D01*
X508Y4089D01*
X504D01*
X500Y4093D01*
X496Y4089D01*
X492D01*
X496Y4085D01*
X492Y4081D01*
X496D01*
X500Y4077D01*
Y4081D02*
X502Y4083D01*
X504D01*
X502Y4085D01*
X504Y4087D01*
X502D01*
X500Y4089D01*
X498Y4087D01*
X496D01*
X498Y4085D01*
X496Y4083D01*
X498D01*
X500Y4081D01*
X550Y4077D02*
X554Y4081D01*
X558D01*
X554Y4085D01*
X558Y4089D01*
X554D01*
X550Y4093D01*
X546Y4089D01*
X542D01*
X546Y4085D01*
X542Y4081D01*
X546D01*
X550Y4077D01*
Y4081D02*
X552Y4083D01*
X554D01*
X552Y4085D01*
X554Y4087D01*
X552D01*
X550Y4089D01*
X548Y4087D01*
X546D01*
X548Y4085D01*
X546Y4083D01*
X548D01*
X550Y4081D01*
Y4027D02*
X554Y4031D01*
X558D01*
X554Y4035D01*
X558Y4039D01*
X554D01*
X550Y4043D01*
X546Y4039D01*
X542D01*
X546Y4035D01*
X542Y4031D01*
X546D01*
X550Y4027D01*
Y4031D02*
X552Y4033D01*
X554D01*
X552Y4035D01*
X554Y4037D01*
X552D01*
X550Y4039D01*
X548Y4037D01*
X546D01*
X548Y4035D01*
X546Y4033D01*
X548D01*
X550Y4031D01*
X500Y4027D02*
X504Y4031D01*
X508D01*
X504Y4035D01*
X508Y4039D01*
X504D01*
X500Y4043D01*
X496Y4039D01*
X492D01*
X496Y4035D01*
X492Y4031D01*
X496D01*
X500Y4027D01*
Y4031D02*
X502Y4033D01*
X504D01*
X502Y4035D01*
X504Y4037D01*
X502D01*
X500Y4039D01*
X498Y4037D01*
X496D01*
X498Y4035D01*
X496Y4033D01*
X498D01*
X500Y4031D01*
X450Y4027D02*
X454Y4031D01*
X458D01*
X454Y4035D01*
X458Y4039D01*
X454D01*
X450Y4043D01*
X446Y4039D01*
X442D01*
X446Y4035D01*
X442Y4031D01*
X446D01*
X450Y4027D01*
Y4031D02*
X452Y4033D01*
X454D01*
X452Y4035D01*
X454Y4037D01*
X452D01*
X450Y4039D01*
X448Y4037D01*
X446D01*
X448Y4035D01*
X446Y4033D01*
X448D01*
X450Y4031D01*
X400Y4027D02*
X404Y4031D01*
X408D01*
X404Y4035D01*
X408Y4039D01*
X404D01*
X400Y4043D01*
X396Y4039D01*
X392D01*
X396Y4035D01*
X392Y4031D01*
X396D01*
X400Y4027D01*
Y4031D02*
X402Y4033D01*
X404D01*
X402Y4035D01*
X404Y4037D01*
X402D01*
X400Y4039D01*
X398Y4037D01*
X396D01*
X398Y4035D01*
X396Y4033D01*
X398D01*
X400Y4031D01*
X350Y4027D02*
X354Y4031D01*
X358D01*
X354Y4035D01*
X358Y4039D01*
X354D01*
X350Y4043D01*
X346Y4039D01*
X342D01*
X346Y4035D01*
X342Y4031D01*
X346D01*
X350Y4027D01*
Y4031D02*
X352Y4033D01*
X354D01*
X352Y4035D01*
X354Y4037D01*
X352D01*
X350Y4039D01*
X348Y4037D01*
X346D01*
X348Y4035D01*
X346Y4033D01*
X348D01*
X350Y4031D01*
X300Y4027D02*
X304Y4031D01*
X308D01*
X304Y4035D01*
X308Y4039D01*
X304D01*
X300Y4043D01*
X296Y4039D01*
X292D01*
X296Y4035D01*
X292Y4031D01*
X296D01*
X300Y4027D01*
Y4031D02*
X302Y4033D01*
X304D01*
X302Y4035D01*
X304Y4037D01*
X302D01*
X300Y4039D01*
X298Y4037D01*
X296D01*
X298Y4035D01*
X296Y4033D01*
X298D01*
X300Y4031D01*
X250Y4027D02*
X254Y4031D01*
X258D01*
X254Y4035D01*
X258Y4039D01*
X254D01*
X250Y4043D01*
X246Y4039D01*
X242D01*
X246Y4035D01*
X242Y4031D01*
X246D01*
X250Y4027D01*
Y4031D02*
X252Y4033D01*
X254D01*
X252Y4035D01*
X254Y4037D01*
X252D01*
X250Y4039D01*
X248Y4037D01*
X246D01*
X248Y4035D01*
X246Y4033D01*
X248D01*
X250Y4031D01*
X200Y4027D02*
X204Y4031D01*
X208D01*
X204Y4035D01*
X208Y4039D01*
X204D01*
X200Y4043D01*
X196Y4039D01*
X192D01*
X196Y4035D01*
X192Y4031D01*
X196D01*
X200Y4027D01*
Y4031D02*
X202Y4033D01*
X204D01*
X202Y4035D01*
X204Y4037D01*
X202D01*
X200Y4039D01*
X198Y4037D01*
X196D01*
X198Y4035D01*
X196Y4033D01*
X198D01*
X200Y4031D01*
X150Y4027D02*
X154Y4031D01*
X158D01*
X154Y4035D01*
X158Y4039D01*
X154D01*
X150Y4043D01*
X146Y4039D01*
X142D01*
X146Y4035D01*
X142Y4031D01*
X146D01*
X150Y4027D01*
Y4031D02*
X152Y4033D01*
X154D01*
X152Y4035D01*
X154Y4037D01*
X152D01*
X150Y4039D01*
X148Y4037D01*
X146D01*
X148Y4035D01*
X146Y4033D01*
X148D01*
X150Y4031D01*
X100Y4027D02*
X104Y4031D01*
X108D01*
X104Y4035D01*
X108Y4039D01*
X104D01*
X100Y4043D01*
X96Y4039D01*
X92D01*
X96Y4035D01*
X92Y4031D01*
X96D01*
X100Y4027D01*
Y4031D02*
X102Y4033D01*
X104D01*
X102Y4035D01*
X104Y4037D01*
X102D01*
X100Y4039D01*
X98Y4037D01*
X96D01*
X98Y4035D01*
X96Y4033D01*
X98D01*
X100Y4031D01*
X50Y4027D02*
X54Y4031D01*
X58D01*
X54Y4035D01*
X58Y4039D01*
X54D01*
X50Y4043D01*
X46Y4039D01*
X42D01*
X46Y4035D01*
X42Y4031D01*
X46D01*
X50Y4027D01*
Y4031D02*
X52Y4033D01*
X54D01*
X52Y4035D01*
X54Y4037D01*
X52D01*
X50Y4039D01*
X48Y4037D01*
X46D01*
X48Y4035D01*
X46Y4033D01*
X48D01*
X50Y4031D01*
X550Y3977D02*
X554Y3981D01*
X558D01*
X554Y3985D01*
X558Y3989D01*
X554D01*
X550Y3993D01*
X546Y3989D01*
X542D01*
X546Y3985D01*
X542Y3981D01*
X546D01*
X550Y3977D01*
Y3981D02*
X552Y3983D01*
X554D01*
X552Y3985D01*
X554Y3987D01*
X552D01*
X550Y3989D01*
X548Y3987D01*
X546D01*
X548Y3985D01*
X546Y3983D01*
X548D01*
X550Y3981D01*
X500Y3977D02*
X504Y3981D01*
X508D01*
X504Y3985D01*
X508Y3989D01*
X504D01*
X500Y3993D01*
X496Y3989D01*
X492D01*
X496Y3985D01*
X492Y3981D01*
X496D01*
X500Y3977D01*
Y3981D02*
X502Y3983D01*
X504D01*
X502Y3985D01*
X504Y3987D01*
X502D01*
X500Y3989D01*
X498Y3987D01*
X496D01*
X498Y3985D01*
X496Y3983D01*
X498D01*
X500Y3981D01*
X450Y3977D02*
X454Y3981D01*
X458D01*
X454Y3985D01*
X458Y3989D01*
X454D01*
X450Y3993D01*
X446Y3989D01*
X442D01*
X446Y3985D01*
X442Y3981D01*
X446D01*
X450Y3977D01*
Y3981D02*
X452Y3983D01*
X454D01*
X452Y3985D01*
X454Y3987D01*
X452D01*
X450Y3989D01*
X448Y3987D01*
X446D01*
X448Y3985D01*
X446Y3983D01*
X448D01*
X450Y3981D01*
X400Y3977D02*
X404Y3981D01*
X408D01*
X404Y3985D01*
X408Y3989D01*
X404D01*
X400Y3993D01*
X396Y3989D01*
X392D01*
X396Y3985D01*
X392Y3981D01*
X396D01*
X400Y3977D01*
Y3981D02*
X402Y3983D01*
X404D01*
X402Y3985D01*
X404Y3987D01*
X402D01*
X400Y3989D01*
X398Y3987D01*
X396D01*
X398Y3985D01*
X396Y3983D01*
X398D01*
X400Y3981D01*
X350Y3977D02*
X354Y3981D01*
X358D01*
X354Y3985D01*
X358Y3989D01*
X354D01*
X350Y3993D01*
X346Y3989D01*
X342D01*
X346Y3985D01*
X342Y3981D01*
X346D01*
X350Y3977D01*
Y3981D02*
X352Y3983D01*
X354D01*
X352Y3985D01*
X354Y3987D01*
X352D01*
X350Y3989D01*
X348Y3987D01*
X346D01*
X348Y3985D01*
X346Y3983D01*
X348D01*
X350Y3981D01*
X300Y3977D02*
X304Y3981D01*
X308D01*
X304Y3985D01*
X308Y3989D01*
X304D01*
X300Y3993D01*
X296Y3989D01*
X292D01*
X296Y3985D01*
X292Y3981D01*
X296D01*
X300Y3977D01*
Y3981D02*
X302Y3983D01*
X304D01*
X302Y3985D01*
X304Y3987D01*
X302D01*
X300Y3989D01*
X298Y3987D01*
X296D01*
X298Y3985D01*
X296Y3983D01*
X298D01*
X300Y3981D01*
X250Y3977D02*
X254Y3981D01*
X258D01*
X254Y3985D01*
X258Y3989D01*
X254D01*
X250Y3993D01*
X246Y3989D01*
X242D01*
X246Y3985D01*
X242Y3981D01*
X246D01*
X250Y3977D01*
Y3981D02*
X252Y3983D01*
X254D01*
X252Y3985D01*
X254Y3987D01*
X252D01*
X250Y3989D01*
X248Y3987D01*
X246D01*
X248Y3985D01*
X246Y3983D01*
X248D01*
X250Y3981D01*
X200Y3977D02*
X204Y3981D01*
X208D01*
X204Y3985D01*
X208Y3989D01*
X204D01*
X200Y3993D01*
X196Y3989D01*
X192D01*
X196Y3985D01*
X192Y3981D01*
X196D01*
X200Y3977D01*
Y3981D02*
X202Y3983D01*
X204D01*
X202Y3985D01*
X204Y3987D01*
X202D01*
X200Y3989D01*
X198Y3987D01*
X196D01*
X198Y3985D01*
X196Y3983D01*
X198D01*
X200Y3981D01*
X150Y3977D02*
X154Y3981D01*
X158D01*
X154Y3985D01*
X158Y3989D01*
X154D01*
X150Y3993D01*
X146Y3989D01*
X142D01*
X146Y3985D01*
X142Y3981D01*
X146D01*
X150Y3977D01*
Y3981D02*
X152Y3983D01*
X154D01*
X152Y3985D01*
X154Y3987D01*
X152D01*
X150Y3989D01*
X148Y3987D01*
X146D01*
X148Y3985D01*
X146Y3983D01*
X148D01*
X150Y3981D01*
X100Y3977D02*
X104Y3981D01*
X108D01*
X104Y3985D01*
X108Y3989D01*
X104D01*
X100Y3993D01*
X96Y3989D01*
X92D01*
X96Y3985D01*
X92Y3981D01*
X96D01*
X100Y3977D01*
Y3981D02*
X102Y3983D01*
X104D01*
X102Y3985D01*
X104Y3987D01*
X102D01*
X100Y3989D01*
X98Y3987D01*
X96D01*
X98Y3985D01*
X96Y3983D01*
X98D01*
X100Y3981D01*
X50Y3977D02*
X54Y3981D01*
X58D01*
X54Y3985D01*
X58Y3989D01*
X54D01*
X50Y3993D01*
X46Y3989D01*
X42D01*
X46Y3985D01*
X42Y3981D01*
X46D01*
X50Y3977D01*
Y3981D02*
X52Y3983D01*
X54D01*
X52Y3985D01*
X54Y3987D01*
X52D01*
X50Y3989D01*
X48Y3987D01*
X46D01*
X48Y3985D01*
X46Y3983D01*
X48D01*
X50Y3981D01*
X550Y3927D02*
X554Y3931D01*
X558D01*
X554Y3935D01*
X558Y3939D01*
X554D01*
X550Y3943D01*
X546Y3939D01*
X542D01*
X546Y3935D01*
X542Y3931D01*
X546D01*
X550Y3927D01*
Y3931D02*
X552Y3933D01*
X554D01*
X552Y3935D01*
X554Y3937D01*
X552D01*
X550Y3939D01*
X548Y3937D01*
X546D01*
X548Y3935D01*
X546Y3933D01*
X548D01*
X550Y3931D01*
X500Y3927D02*
X504Y3931D01*
X508D01*
X504Y3935D01*
X508Y3939D01*
X504D01*
X500Y3943D01*
X496Y3939D01*
X492D01*
X496Y3935D01*
X492Y3931D01*
X496D01*
X500Y3927D01*
Y3931D02*
X502Y3933D01*
X504D01*
X502Y3935D01*
X504Y3937D01*
X502D01*
X500Y3939D01*
X498Y3937D01*
X496D01*
X498Y3935D01*
X496Y3933D01*
X498D01*
X500Y3931D01*
X450Y3927D02*
X454Y3931D01*
X458D01*
X454Y3935D01*
X458Y3939D01*
X454D01*
X450Y3943D01*
X446Y3939D01*
X442D01*
X446Y3935D01*
X442Y3931D01*
X446D01*
X450Y3927D01*
Y3931D02*
X452Y3933D01*
X454D01*
X452Y3935D01*
X454Y3937D01*
X452D01*
X450Y3939D01*
X448Y3937D01*
X446D01*
X448Y3935D01*
X446Y3933D01*
X448D01*
X450Y3931D01*
X400Y3927D02*
X404Y3931D01*
X408D01*
X404Y3935D01*
X408Y3939D01*
X404D01*
X400Y3943D01*
X396Y3939D01*
X392D01*
X396Y3935D01*
X392Y3931D01*
X396D01*
X400Y3927D01*
Y3931D02*
X402Y3933D01*
X404D01*
X402Y3935D01*
X404Y3937D01*
X402D01*
X400Y3939D01*
X398Y3937D01*
X396D01*
X398Y3935D01*
X396Y3933D01*
X398D01*
X400Y3931D01*
X350Y3927D02*
X354Y3931D01*
X358D01*
X354Y3935D01*
X358Y3939D01*
X354D01*
X350Y3943D01*
X346Y3939D01*
X342D01*
X346Y3935D01*
X342Y3931D01*
X346D01*
X350Y3927D01*
Y3931D02*
X352Y3933D01*
X354D01*
X352Y3935D01*
X354Y3937D01*
X352D01*
X350Y3939D01*
X348Y3937D01*
X346D01*
X348Y3935D01*
X346Y3933D01*
X348D01*
X350Y3931D01*
X300Y3927D02*
X304Y3931D01*
X308D01*
X304Y3935D01*
X308Y3939D01*
X304D01*
X300Y3943D01*
X296Y3939D01*
X292D01*
X296Y3935D01*
X292Y3931D01*
X296D01*
X300Y3927D01*
Y3931D02*
X302Y3933D01*
X304D01*
X302Y3935D01*
X304Y3937D01*
X302D01*
X300Y3939D01*
X298Y3937D01*
X296D01*
X298Y3935D01*
X296Y3933D01*
X298D01*
X300Y3931D01*
X250Y3927D02*
X254Y3931D01*
X258D01*
X254Y3935D01*
X258Y3939D01*
X254D01*
X250Y3943D01*
X246Y3939D01*
X242D01*
X246Y3935D01*
X242Y3931D01*
X246D01*
X250Y3927D01*
Y3931D02*
X252Y3933D01*
X254D01*
X252Y3935D01*
X254Y3937D01*
X252D01*
X250Y3939D01*
X248Y3937D01*
X246D01*
X248Y3935D01*
X246Y3933D01*
X248D01*
X250Y3931D01*
X200Y3927D02*
X204Y3931D01*
X208D01*
X204Y3935D01*
X208Y3939D01*
X204D01*
X200Y3943D01*
X196Y3939D01*
X192D01*
X196Y3935D01*
X192Y3931D01*
X196D01*
X200Y3927D01*
Y3931D02*
X202Y3933D01*
X204D01*
X202Y3935D01*
X204Y3937D01*
X202D01*
X200Y3939D01*
X198Y3937D01*
X196D01*
X198Y3935D01*
X196Y3933D01*
X198D01*
X200Y3931D01*
X150Y3927D02*
X154Y3931D01*
X158D01*
X154Y3935D01*
X158Y3939D01*
X154D01*
X150Y3943D01*
X146Y3939D01*
X142D01*
X146Y3935D01*
X142Y3931D01*
X146D01*
X150Y3927D01*
Y3931D02*
X152Y3933D01*
X154D01*
X152Y3935D01*
X154Y3937D01*
X152D01*
X150Y3939D01*
X148Y3937D01*
X146D01*
X148Y3935D01*
X146Y3933D01*
X148D01*
X150Y3931D01*
X100Y3927D02*
X104Y3931D01*
X108D01*
X104Y3935D01*
X108Y3939D01*
X104D01*
X100Y3943D01*
X96Y3939D01*
X92D01*
X96Y3935D01*
X92Y3931D01*
X96D01*
X100Y3927D01*
Y3931D02*
X102Y3933D01*
X104D01*
X102Y3935D01*
X104Y3937D01*
X102D01*
X100Y3939D01*
X98Y3937D01*
X96D01*
X98Y3935D01*
X96Y3933D01*
X98D01*
X100Y3931D01*
X50Y3927D02*
X54Y3931D01*
X58D01*
X54Y3935D01*
X58Y3939D01*
X54D01*
X50Y3943D01*
X46Y3939D01*
X42D01*
X46Y3935D01*
X42Y3931D01*
X46D01*
X50Y3927D01*
Y3931D02*
X52Y3933D01*
X54D01*
X52Y3935D01*
X54Y3937D01*
X52D01*
X50Y3939D01*
X48Y3937D01*
X46D01*
X48Y3935D01*
X46Y3933D01*
X48D01*
X50Y3931D01*
X550Y3877D02*
X554Y3881D01*
X558D01*
X554Y3885D01*
X558Y3889D01*
X554D01*
X550Y3893D01*
X546Y3889D01*
X542D01*
X546Y3885D01*
X542Y3881D01*
X546D01*
X550Y3877D01*
Y3881D02*
X552Y3883D01*
X554D01*
X552Y3885D01*
X554Y3887D01*
X552D01*
X550Y3889D01*
X548Y3887D01*
X546D01*
X548Y3885D01*
X546Y3883D01*
X548D01*
X550Y3881D01*
X500Y3877D02*
X504Y3881D01*
X508D01*
X504Y3885D01*
X508Y3889D01*
X504D01*
X500Y3893D01*
X496Y3889D01*
X492D01*
X496Y3885D01*
X492Y3881D01*
X496D01*
X500Y3877D01*
Y3881D02*
X502Y3883D01*
X504D01*
X502Y3885D01*
X504Y3887D01*
X502D01*
X500Y3889D01*
X498Y3887D01*
X496D01*
X498Y3885D01*
X496Y3883D01*
X498D01*
X500Y3881D01*
X450Y3877D02*
X454Y3881D01*
X458D01*
X454Y3885D01*
X458Y3889D01*
X454D01*
X450Y3893D01*
X446Y3889D01*
X442D01*
X446Y3885D01*
X442Y3881D01*
X446D01*
X450Y3877D01*
Y3881D02*
X452Y3883D01*
X454D01*
X452Y3885D01*
X454Y3887D01*
X452D01*
X450Y3889D01*
X448Y3887D01*
X446D01*
X448Y3885D01*
X446Y3883D01*
X448D01*
X450Y3881D01*
X400Y3877D02*
X404Y3881D01*
X408D01*
X404Y3885D01*
X408Y3889D01*
X404D01*
X400Y3893D01*
X396Y3889D01*
X392D01*
X396Y3885D01*
X392Y3881D01*
X396D01*
X400Y3877D01*
Y3881D02*
X402Y3883D01*
X404D01*
X402Y3885D01*
X404Y3887D01*
X402D01*
X400Y3889D01*
X398Y3887D01*
X396D01*
X398Y3885D01*
X396Y3883D01*
X398D01*
X400Y3881D01*
X350Y3877D02*
X354Y3881D01*
X358D01*
X354Y3885D01*
X358Y3889D01*
X354D01*
X350Y3893D01*
X346Y3889D01*
X342D01*
X346Y3885D01*
X342Y3881D01*
X346D01*
X350Y3877D01*
Y3881D02*
X352Y3883D01*
X354D01*
X352Y3885D01*
X354Y3887D01*
X352D01*
X350Y3889D01*
X348Y3887D01*
X346D01*
X348Y3885D01*
X346Y3883D01*
X348D01*
X350Y3881D01*
X300Y3877D02*
X304Y3881D01*
X308D01*
X304Y3885D01*
X308Y3889D01*
X304D01*
X300Y3893D01*
X296Y3889D01*
X292D01*
X296Y3885D01*
X292Y3881D01*
X296D01*
X300Y3877D01*
Y3881D02*
X302Y3883D01*
X304D01*
X302Y3885D01*
X304Y3887D01*
X302D01*
X300Y3889D01*
X298Y3887D01*
X296D01*
X298Y3885D01*
X296Y3883D01*
X298D01*
X300Y3881D01*
X250Y3877D02*
X254Y3881D01*
X258D01*
X254Y3885D01*
X258Y3889D01*
X254D01*
X250Y3893D01*
X246Y3889D01*
X242D01*
X246Y3885D01*
X242Y3881D01*
X246D01*
X250Y3877D01*
Y3881D02*
X252Y3883D01*
X254D01*
X252Y3885D01*
X254Y3887D01*
X252D01*
X250Y3889D01*
X248Y3887D01*
X246D01*
X248Y3885D01*
X246Y3883D01*
X248D01*
X250Y3881D01*
X200Y3877D02*
X204Y3881D01*
X208D01*
X204Y3885D01*
X208Y3889D01*
X204D01*
X200Y3893D01*
X196Y3889D01*
X192D01*
X196Y3885D01*
X192Y3881D01*
X196D01*
X200Y3877D01*
Y3881D02*
X202Y3883D01*
X204D01*
X202Y3885D01*
X204Y3887D01*
X202D01*
X200Y3889D01*
X198Y3887D01*
X196D01*
X198Y3885D01*
X196Y3883D01*
X198D01*
X200Y3881D01*
X150Y3877D02*
X154Y3881D01*
X158D01*
X154Y3885D01*
X158Y3889D01*
X154D01*
X150Y3893D01*
X146Y3889D01*
X142D01*
X146Y3885D01*
X142Y3881D01*
X146D01*
X150Y3877D01*
Y3881D02*
X152Y3883D01*
X154D01*
X152Y3885D01*
X154Y3887D01*
X152D01*
X150Y3889D01*
X148Y3887D01*
X146D01*
X148Y3885D01*
X146Y3883D01*
X148D01*
X150Y3881D01*
X100Y3877D02*
X104Y3881D01*
X108D01*
X104Y3885D01*
X108Y3889D01*
X104D01*
X100Y3893D01*
X96Y3889D01*
X92D01*
X96Y3885D01*
X92Y3881D01*
X96D01*
X100Y3877D01*
Y3881D02*
X102Y3883D01*
X104D01*
X102Y3885D01*
X104Y3887D01*
X102D01*
X100Y3889D01*
X98Y3887D01*
X96D01*
X98Y3885D01*
X96Y3883D01*
X98D01*
X100Y3881D01*
X50Y3877D02*
X54Y3881D01*
X58D01*
X54Y3885D01*
X58Y3889D01*
X54D01*
X50Y3893D01*
X46Y3889D01*
X42D01*
X46Y3885D01*
X42Y3881D01*
X46D01*
X50Y3877D01*
Y3881D02*
X52Y3883D01*
X54D01*
X52Y3885D01*
X54Y3887D01*
X52D01*
X50Y3889D01*
X48Y3887D01*
X46D01*
X48Y3885D01*
X46Y3883D01*
X48D01*
X50Y3881D01*
X550Y3827D02*
X554Y3831D01*
X558D01*
X554Y3835D01*
X558Y3839D01*
X554D01*
X550Y3843D01*
X546Y3839D01*
X542D01*
X546Y3835D01*
X542Y3831D01*
X546D01*
X550Y3827D01*
Y3831D02*
X552Y3833D01*
X554D01*
X552Y3835D01*
X554Y3837D01*
X552D01*
X550Y3839D01*
X548Y3837D01*
X546D01*
X548Y3835D01*
X546Y3833D01*
X548D01*
X550Y3831D01*
X500Y3827D02*
X504Y3831D01*
X508D01*
X504Y3835D01*
X508Y3839D01*
X504D01*
X500Y3843D01*
X496Y3839D01*
X492D01*
X496Y3835D01*
X492Y3831D01*
X496D01*
X500Y3827D01*
Y3831D02*
X502Y3833D01*
X504D01*
X502Y3835D01*
X504Y3837D01*
X502D01*
X500Y3839D01*
X498Y3837D01*
X496D01*
X498Y3835D01*
X496Y3833D01*
X498D01*
X500Y3831D01*
X450Y3827D02*
X454Y3831D01*
X458D01*
X454Y3835D01*
X458Y3839D01*
X454D01*
X450Y3843D01*
X446Y3839D01*
X442D01*
X446Y3835D01*
X442Y3831D01*
X446D01*
X450Y3827D01*
Y3831D02*
X452Y3833D01*
X454D01*
X452Y3835D01*
X454Y3837D01*
X452D01*
X450Y3839D01*
X448Y3837D01*
X446D01*
X448Y3835D01*
X446Y3833D01*
X448D01*
X450Y3831D01*
X400Y3827D02*
X404Y3831D01*
X408D01*
X404Y3835D01*
X408Y3839D01*
X404D01*
X400Y3843D01*
X396Y3839D01*
X392D01*
X396Y3835D01*
X392Y3831D01*
X396D01*
X400Y3827D01*
Y3831D02*
X402Y3833D01*
X404D01*
X402Y3835D01*
X404Y3837D01*
X402D01*
X400Y3839D01*
X398Y3837D01*
X396D01*
X398Y3835D01*
X396Y3833D01*
X398D01*
X400Y3831D01*
X350Y3827D02*
X354Y3831D01*
X358D01*
X354Y3835D01*
X358Y3839D01*
X354D01*
X350Y3843D01*
X346Y3839D01*
X342D01*
X346Y3835D01*
X342Y3831D01*
X346D01*
X350Y3827D01*
Y3831D02*
X352Y3833D01*
X354D01*
X352Y3835D01*
X354Y3837D01*
X352D01*
X350Y3839D01*
X348Y3837D01*
X346D01*
X348Y3835D01*
X346Y3833D01*
X348D01*
X350Y3831D01*
X300Y3827D02*
X304Y3831D01*
X308D01*
X304Y3835D01*
X308Y3839D01*
X304D01*
X300Y3843D01*
X296Y3839D01*
X292D01*
X296Y3835D01*
X292Y3831D01*
X296D01*
X300Y3827D01*
Y3831D02*
X302Y3833D01*
X304D01*
X302Y3835D01*
X304Y3837D01*
X302D01*
X300Y3839D01*
X298Y3837D01*
X296D01*
X298Y3835D01*
X296Y3833D01*
X298D01*
X300Y3831D01*
X250Y3827D02*
X254Y3831D01*
X258D01*
X254Y3835D01*
X258Y3839D01*
X254D01*
X250Y3843D01*
X246Y3839D01*
X242D01*
X246Y3835D01*
X242Y3831D01*
X246D01*
X250Y3827D01*
Y3831D02*
X252Y3833D01*
X254D01*
X252Y3835D01*
X254Y3837D01*
X252D01*
X250Y3839D01*
X248Y3837D01*
X246D01*
X248Y3835D01*
X246Y3833D01*
X248D01*
X250Y3831D01*
X200Y3827D02*
X204Y3831D01*
X208D01*
X204Y3835D01*
X208Y3839D01*
X204D01*
X200Y3843D01*
X196Y3839D01*
X192D01*
X196Y3835D01*
X192Y3831D01*
X196D01*
X200Y3827D01*
Y3831D02*
X202Y3833D01*
X204D01*
X202Y3835D01*
X204Y3837D01*
X202D01*
X200Y3839D01*
X198Y3837D01*
X196D01*
X198Y3835D01*
X196Y3833D01*
X198D01*
X200Y3831D01*
X150Y3827D02*
X154Y3831D01*
X158D01*
X154Y3835D01*
X158Y3839D01*
X154D01*
X150Y3843D01*
X146Y3839D01*
X142D01*
X146Y3835D01*
X142Y3831D01*
X146D01*
X150Y3827D01*
Y3831D02*
X152Y3833D01*
X154D01*
X152Y3835D01*
X154Y3837D01*
X152D01*
X150Y3839D01*
X148Y3837D01*
X146D01*
X148Y3835D01*
X146Y3833D01*
X148D01*
X150Y3831D01*
X100Y3827D02*
X104Y3831D01*
X108D01*
X104Y3835D01*
X108Y3839D01*
X104D01*
X100Y3843D01*
X96Y3839D01*
X92D01*
X96Y3835D01*
X92Y3831D01*
X96D01*
X100Y3827D01*
Y3831D02*
X102Y3833D01*
X104D01*
X102Y3835D01*
X104Y3837D01*
X102D01*
X100Y3839D01*
X98Y3837D01*
X96D01*
X98Y3835D01*
X96Y3833D01*
X98D01*
X100Y3831D01*
X50Y3827D02*
X54Y3831D01*
X58D01*
X54Y3835D01*
X58Y3839D01*
X54D01*
X50Y3843D01*
X46Y3839D01*
X42D01*
X46Y3835D01*
X42Y3831D01*
X46D01*
X50Y3827D01*
Y3831D02*
X52Y3833D01*
X54D01*
X52Y3835D01*
X54Y3837D01*
X52D01*
X50Y3839D01*
X48Y3837D01*
X46D01*
X48Y3835D01*
X46Y3833D01*
X48D01*
X50Y3831D01*
X550Y3777D02*
X554Y3781D01*
X558D01*
X554Y3785D01*
X558Y3789D01*
X554D01*
X550Y3793D01*
X546Y3789D01*
X542D01*
X546Y3785D01*
X542Y3781D01*
X546D01*
X550Y3777D01*
Y3781D02*
X552Y3783D01*
X554D01*
X552Y3785D01*
X554Y3787D01*
X552D01*
X550Y3789D01*
X548Y3787D01*
X546D01*
X548Y3785D01*
X546Y3783D01*
X548D01*
X550Y3781D01*
X500Y3777D02*
X504Y3781D01*
X508D01*
X504Y3785D01*
X508Y3789D01*
X504D01*
X500Y3793D01*
X496Y3789D01*
X492D01*
X496Y3785D01*
X492Y3781D01*
X496D01*
X500Y3777D01*
Y3781D02*
X502Y3783D01*
X504D01*
X502Y3785D01*
X504Y3787D01*
X502D01*
X500Y3789D01*
X498Y3787D01*
X496D01*
X498Y3785D01*
X496Y3783D01*
X498D01*
X500Y3781D01*
X450Y3777D02*
X454Y3781D01*
X458D01*
X454Y3785D01*
X458Y3789D01*
X454D01*
X450Y3793D01*
X446Y3789D01*
X442D01*
X446Y3785D01*
X442Y3781D01*
X446D01*
X450Y3777D01*
Y3781D02*
X452Y3783D01*
X454D01*
X452Y3785D01*
X454Y3787D01*
X452D01*
X450Y3789D01*
X448Y3787D01*
X446D01*
X448Y3785D01*
X446Y3783D01*
X448D01*
X450Y3781D01*
X400Y3777D02*
X404Y3781D01*
X408D01*
X404Y3785D01*
X408Y3789D01*
X404D01*
X400Y3793D01*
X396Y3789D01*
X392D01*
X396Y3785D01*
X392Y3781D01*
X396D01*
X400Y3777D01*
Y3781D02*
X402Y3783D01*
X404D01*
X402Y3785D01*
X404Y3787D01*
X402D01*
X400Y3789D01*
X398Y3787D01*
X396D01*
X398Y3785D01*
X396Y3783D01*
X398D01*
X400Y3781D01*
X350Y3777D02*
X354Y3781D01*
X358D01*
X354Y3785D01*
X358Y3789D01*
X354D01*
X350Y3793D01*
X346Y3789D01*
X342D01*
X346Y3785D01*
X342Y3781D01*
X346D01*
X350Y3777D01*
Y3781D02*
X352Y3783D01*
X354D01*
X352Y3785D01*
X354Y3787D01*
X352D01*
X350Y3789D01*
X348Y3787D01*
X346D01*
X348Y3785D01*
X346Y3783D01*
X348D01*
X350Y3781D01*
X300Y3777D02*
X304Y3781D01*
X308D01*
X304Y3785D01*
X308Y3789D01*
X304D01*
X300Y3793D01*
X296Y3789D01*
X292D01*
X296Y3785D01*
X292Y3781D01*
X296D01*
X300Y3777D01*
Y3781D02*
X302Y3783D01*
X304D01*
X302Y3785D01*
X304Y3787D01*
X302D01*
X300Y3789D01*
X298Y3787D01*
X296D01*
X298Y3785D01*
X296Y3783D01*
X298D01*
X300Y3781D01*
X250Y3777D02*
X254Y3781D01*
X258D01*
X254Y3785D01*
X258Y3789D01*
X254D01*
X250Y3793D01*
X246Y3789D01*
X242D01*
X246Y3785D01*
X242Y3781D01*
X246D01*
X250Y3777D01*
Y3781D02*
X252Y3783D01*
X254D01*
X252Y3785D01*
X254Y3787D01*
X252D01*
X250Y3789D01*
X248Y3787D01*
X246D01*
X248Y3785D01*
X246Y3783D01*
X248D01*
X250Y3781D01*
X200Y3777D02*
X204Y3781D01*
X208D01*
X204Y3785D01*
X208Y3789D01*
X204D01*
X200Y3793D01*
X196Y3789D01*
X192D01*
X196Y3785D01*
X192Y3781D01*
X196D01*
X200Y3777D01*
Y3781D02*
X202Y3783D01*
X204D01*
X202Y3785D01*
X204Y3787D01*
X202D01*
X200Y3789D01*
X198Y3787D01*
X196D01*
X198Y3785D01*
X196Y3783D01*
X198D01*
X200Y3781D01*
X150Y3777D02*
X154Y3781D01*
X158D01*
X154Y3785D01*
X158Y3789D01*
X154D01*
X150Y3793D01*
X146Y3789D01*
X142D01*
X146Y3785D01*
X142Y3781D01*
X146D01*
X150Y3777D01*
Y3781D02*
X152Y3783D01*
X154D01*
X152Y3785D01*
X154Y3787D01*
X152D01*
X150Y3789D01*
X148Y3787D01*
X146D01*
X148Y3785D01*
X146Y3783D01*
X148D01*
X150Y3781D01*
X100Y3777D02*
X104Y3781D01*
X108D01*
X104Y3785D01*
X108Y3789D01*
X104D01*
X100Y3793D01*
X96Y3789D01*
X92D01*
X96Y3785D01*
X92Y3781D01*
X96D01*
X100Y3777D01*
Y3781D02*
X102Y3783D01*
X104D01*
X102Y3785D01*
X104Y3787D01*
X102D01*
X100Y3789D01*
X98Y3787D01*
X96D01*
X98Y3785D01*
X96Y3783D01*
X98D01*
X100Y3781D01*
X50Y3777D02*
X54Y3781D01*
X58D01*
X54Y3785D01*
X58Y3789D01*
X54D01*
X50Y3793D01*
X46Y3789D01*
X42D01*
X46Y3785D01*
X42Y3781D01*
X46D01*
X50Y3777D01*
Y3781D02*
X52Y3783D01*
X54D01*
X52Y3785D01*
X54Y3787D01*
X52D01*
X50Y3789D01*
X48Y3787D01*
X46D01*
X48Y3785D01*
X46Y3783D01*
X48D01*
X50Y3781D01*
X550Y3727D02*
X554Y3731D01*
X558D01*
X554Y3735D01*
X558Y3739D01*
X554D01*
X550Y3743D01*
X546Y3739D01*
X542D01*
X546Y3735D01*
X542Y3731D01*
X546D01*
X550Y3727D01*
Y3731D02*
X552Y3733D01*
X554D01*
X552Y3735D01*
X554Y3737D01*
X552D01*
X550Y3739D01*
X548Y3737D01*
X546D01*
X548Y3735D01*
X546Y3733D01*
X548D01*
X550Y3731D01*
X500Y3727D02*
X504Y3731D01*
X508D01*
X504Y3735D01*
X508Y3739D01*
X504D01*
X500Y3743D01*
X496Y3739D01*
X492D01*
X496Y3735D01*
X492Y3731D01*
X496D01*
X500Y3727D01*
Y3731D02*
X502Y3733D01*
X504D01*
X502Y3735D01*
X504Y3737D01*
X502D01*
X500Y3739D01*
X498Y3737D01*
X496D01*
X498Y3735D01*
X496Y3733D01*
X498D01*
X500Y3731D01*
X450Y3727D02*
X454Y3731D01*
X458D01*
X454Y3735D01*
X458Y3739D01*
X454D01*
X450Y3743D01*
X446Y3739D01*
X442D01*
X446Y3735D01*
X442Y3731D01*
X446D01*
X450Y3727D01*
Y3731D02*
X452Y3733D01*
X454D01*
X452Y3735D01*
X454Y3737D01*
X452D01*
X450Y3739D01*
X448Y3737D01*
X446D01*
X448Y3735D01*
X446Y3733D01*
X448D01*
X450Y3731D01*
X400Y3727D02*
X404Y3731D01*
X408D01*
X404Y3735D01*
X408Y3739D01*
X404D01*
X400Y3743D01*
X396Y3739D01*
X392D01*
X396Y3735D01*
X392Y3731D01*
X396D01*
X400Y3727D01*
Y3731D02*
X402Y3733D01*
X404D01*
X402Y3735D01*
X404Y3737D01*
X402D01*
X400Y3739D01*
X398Y3737D01*
X396D01*
X398Y3735D01*
X396Y3733D01*
X398D01*
X400Y3731D01*
X350Y3727D02*
X354Y3731D01*
X358D01*
X354Y3735D01*
X358Y3739D01*
X354D01*
X350Y3743D01*
X346Y3739D01*
X342D01*
X346Y3735D01*
X342Y3731D01*
X346D01*
X350Y3727D01*
Y3731D02*
X352Y3733D01*
X354D01*
X352Y3735D01*
X354Y3737D01*
X352D01*
X350Y3739D01*
X348Y3737D01*
X346D01*
X348Y3735D01*
X346Y3733D01*
X348D01*
X350Y3731D01*
X300Y3727D02*
X304Y3731D01*
X308D01*
X304Y3735D01*
X308Y3739D01*
X304D01*
X300Y3743D01*
X296Y3739D01*
X292D01*
X296Y3735D01*
X292Y3731D01*
X296D01*
X300Y3727D01*
Y3731D02*
X302Y3733D01*
X304D01*
X302Y3735D01*
X304Y3737D01*
X302D01*
X300Y3739D01*
X298Y3737D01*
X296D01*
X298Y3735D01*
X296Y3733D01*
X298D01*
X300Y3731D01*
X250Y3727D02*
X254Y3731D01*
X258D01*
X254Y3735D01*
X258Y3739D01*
X254D01*
X250Y3743D01*
X246Y3739D01*
X242D01*
X246Y3735D01*
X242Y3731D01*
X246D01*
X250Y3727D01*
Y3731D02*
X252Y3733D01*
X254D01*
X252Y3735D01*
X254Y3737D01*
X252D01*
X250Y3739D01*
X248Y3737D01*
X246D01*
X248Y3735D01*
X246Y3733D01*
X248D01*
X250Y3731D01*
X200Y3727D02*
X204Y3731D01*
X208D01*
X204Y3735D01*
X208Y3739D01*
X204D01*
X200Y3743D01*
X196Y3739D01*
X192D01*
X196Y3735D01*
X192Y3731D01*
X196D01*
X200Y3727D01*
Y3731D02*
X202Y3733D01*
X204D01*
X202Y3735D01*
X204Y3737D01*
X202D01*
X200Y3739D01*
X198Y3737D01*
X196D01*
X198Y3735D01*
X196Y3733D01*
X198D01*
X200Y3731D01*
X150Y3727D02*
X154Y3731D01*
X158D01*
X154Y3735D01*
X158Y3739D01*
X154D01*
X150Y3743D01*
X146Y3739D01*
X142D01*
X146Y3735D01*
X142Y3731D01*
X146D01*
X150Y3727D01*
Y3731D02*
X152Y3733D01*
X154D01*
X152Y3735D01*
X154Y3737D01*
X152D01*
X150Y3739D01*
X148Y3737D01*
X146D01*
X148Y3735D01*
X146Y3733D01*
X148D01*
X150Y3731D01*
X100Y3727D02*
X104Y3731D01*
X108D01*
X104Y3735D01*
X108Y3739D01*
X104D01*
X100Y3743D01*
X96Y3739D01*
X92D01*
X96Y3735D01*
X92Y3731D01*
X96D01*
X100Y3727D01*
Y3731D02*
X102Y3733D01*
X104D01*
X102Y3735D01*
X104Y3737D01*
X102D01*
X100Y3739D01*
X98Y3737D01*
X96D01*
X98Y3735D01*
X96Y3733D01*
X98D01*
X100Y3731D01*
X50Y3727D02*
X54Y3731D01*
X58D01*
X54Y3735D01*
X58Y3739D01*
X54D01*
X50Y3743D01*
X46Y3739D01*
X42D01*
X46Y3735D01*
X42Y3731D01*
X46D01*
X50Y3727D01*
Y3731D02*
X52Y3733D01*
X54D01*
X52Y3735D01*
X54Y3737D01*
X52D01*
X50Y3739D01*
X48Y3737D01*
X46D01*
X48Y3735D01*
X46Y3733D01*
X48D01*
X50Y3731D01*
X550Y3677D02*
X554Y3681D01*
X558D01*
X554Y3685D01*
X558Y3689D01*
X554D01*
X550Y3693D01*
X546Y3689D01*
X542D01*
X546Y3685D01*
X542Y3681D01*
X546D01*
X550Y3677D01*
Y3681D02*
X552Y3683D01*
X554D01*
X552Y3685D01*
X554Y3687D01*
X552D01*
X550Y3689D01*
X548Y3687D01*
X546D01*
X548Y3685D01*
X546Y3683D01*
X548D01*
X550Y3681D01*
X500Y3677D02*
X504Y3681D01*
X508D01*
X504Y3685D01*
X508Y3689D01*
X504D01*
X500Y3693D01*
X496Y3689D01*
X492D01*
X496Y3685D01*
X492Y3681D01*
X496D01*
X500Y3677D01*
Y3681D02*
X502Y3683D01*
X504D01*
X502Y3685D01*
X504Y3687D01*
X502D01*
X500Y3689D01*
X498Y3687D01*
X496D01*
X498Y3685D01*
X496Y3683D01*
X498D01*
X500Y3681D01*
X450Y3677D02*
X454Y3681D01*
X458D01*
X454Y3685D01*
X458Y3689D01*
X454D01*
X450Y3693D01*
X446Y3689D01*
X442D01*
X446Y3685D01*
X442Y3681D01*
X446D01*
X450Y3677D01*
Y3681D02*
X452Y3683D01*
X454D01*
X452Y3685D01*
X454Y3687D01*
X452D01*
X450Y3689D01*
X448Y3687D01*
X446D01*
X448Y3685D01*
X446Y3683D01*
X448D01*
X450Y3681D01*
X400Y3677D02*
X404Y3681D01*
X408D01*
X404Y3685D01*
X408Y3689D01*
X404D01*
X400Y3693D01*
X396Y3689D01*
X392D01*
X396Y3685D01*
X392Y3681D01*
X396D01*
X400Y3677D01*
Y3681D02*
X402Y3683D01*
X404D01*
X402Y3685D01*
X404Y3687D01*
X402D01*
X400Y3689D01*
X398Y3687D01*
X396D01*
X398Y3685D01*
X396Y3683D01*
X398D01*
X400Y3681D01*
X350Y3677D02*
X354Y3681D01*
X358D01*
X354Y3685D01*
X358Y3689D01*
X354D01*
X350Y3693D01*
X346Y3689D01*
X342D01*
X346Y3685D01*
X342Y3681D01*
X346D01*
X350Y3677D01*
Y3681D02*
X352Y3683D01*
X354D01*
X352Y3685D01*
X354Y3687D01*
X352D01*
X350Y3689D01*
X348Y3687D01*
X346D01*
X348Y3685D01*
X346Y3683D01*
X348D01*
X350Y3681D01*
X300Y3677D02*
X304Y3681D01*
X308D01*
X304Y3685D01*
X308Y3689D01*
X304D01*
X300Y3693D01*
X296Y3689D01*
X292D01*
X296Y3685D01*
X292Y3681D01*
X296D01*
X300Y3677D01*
Y3681D02*
X302Y3683D01*
X304D01*
X302Y3685D01*
X304Y3687D01*
X302D01*
X300Y3689D01*
X298Y3687D01*
X296D01*
X298Y3685D01*
X296Y3683D01*
X298D01*
X300Y3681D01*
X250Y3677D02*
X254Y3681D01*
X258D01*
X254Y3685D01*
X258Y3689D01*
X254D01*
X250Y3693D01*
X246Y3689D01*
X242D01*
X246Y3685D01*
X242Y3681D01*
X246D01*
X250Y3677D01*
Y3681D02*
X252Y3683D01*
X254D01*
X252Y3685D01*
X254Y3687D01*
X252D01*
X250Y3689D01*
X248Y3687D01*
X246D01*
X248Y3685D01*
X246Y3683D01*
X248D01*
X250Y3681D01*
X200Y3677D02*
X204Y3681D01*
X208D01*
X204Y3685D01*
X208Y3689D01*
X204D01*
X200Y3693D01*
X196Y3689D01*
X192D01*
X196Y3685D01*
X192Y3681D01*
X196D01*
X200Y3677D01*
Y3681D02*
X202Y3683D01*
X204D01*
X202Y3685D01*
X204Y3687D01*
X202D01*
X200Y3689D01*
X198Y3687D01*
X196D01*
X198Y3685D01*
X196Y3683D01*
X198D01*
X200Y3681D01*
X150Y3677D02*
X154Y3681D01*
X158D01*
X154Y3685D01*
X158Y3689D01*
X154D01*
X150Y3693D01*
X146Y3689D01*
X142D01*
X146Y3685D01*
X142Y3681D01*
X146D01*
X150Y3677D01*
Y3681D02*
X152Y3683D01*
X154D01*
X152Y3685D01*
X154Y3687D01*
X152D01*
X150Y3689D01*
X148Y3687D01*
X146D01*
X148Y3685D01*
X146Y3683D01*
X148D01*
X150Y3681D01*
X100Y3677D02*
X104Y3681D01*
X108D01*
X104Y3685D01*
X108Y3689D01*
X104D01*
X100Y3693D01*
X96Y3689D01*
X92D01*
X96Y3685D01*
X92Y3681D01*
X96D01*
X100Y3677D01*
Y3681D02*
X102Y3683D01*
X104D01*
X102Y3685D01*
X104Y3687D01*
X102D01*
X100Y3689D01*
X98Y3687D01*
X96D01*
X98Y3685D01*
X96Y3683D01*
X98D01*
X100Y3681D01*
X50Y3677D02*
X54Y3681D01*
X58D01*
X54Y3685D01*
X58Y3689D01*
X54D01*
X50Y3693D01*
X46Y3689D01*
X42D01*
X46Y3685D01*
X42Y3681D01*
X46D01*
X50Y3677D01*
Y3681D02*
X52Y3683D01*
X54D01*
X52Y3685D01*
X54Y3687D01*
X52D01*
X50Y3689D01*
X48Y3687D01*
X46D01*
X48Y3685D01*
X46Y3683D01*
X48D01*
X50Y3681D01*
X550Y3627D02*
X554Y3631D01*
X558D01*
X554Y3635D01*
X558Y3639D01*
X554D01*
X550Y3643D01*
X546Y3639D01*
X542D01*
X546Y3635D01*
X542Y3631D01*
X546D01*
X550Y3627D01*
Y3631D02*
X552Y3633D01*
X554D01*
X552Y3635D01*
X554Y3637D01*
X552D01*
X550Y3639D01*
X548Y3637D01*
X546D01*
X548Y3635D01*
X546Y3633D01*
X548D01*
X550Y3631D01*
X500Y3627D02*
X504Y3631D01*
X508D01*
X504Y3635D01*
X508Y3639D01*
X504D01*
X500Y3643D01*
X496Y3639D01*
X492D01*
X496Y3635D01*
X492Y3631D01*
X496D01*
X500Y3627D01*
Y3631D02*
X502Y3633D01*
X504D01*
X502Y3635D01*
X504Y3637D01*
X502D01*
X500Y3639D01*
X498Y3637D01*
X496D01*
X498Y3635D01*
X496Y3633D01*
X498D01*
X500Y3631D01*
X450Y3627D02*
X454Y3631D01*
X458D01*
X454Y3635D01*
X458Y3639D01*
X454D01*
X450Y3643D01*
X446Y3639D01*
X442D01*
X446Y3635D01*
X442Y3631D01*
X446D01*
X450Y3627D01*
Y3631D02*
X452Y3633D01*
X454D01*
X452Y3635D01*
X454Y3637D01*
X452D01*
X450Y3639D01*
X448Y3637D01*
X446D01*
X448Y3635D01*
X446Y3633D01*
X448D01*
X450Y3631D01*
X400Y3627D02*
X404Y3631D01*
X408D01*
X404Y3635D01*
X408Y3639D01*
X404D01*
X400Y3643D01*
X396Y3639D01*
X392D01*
X396Y3635D01*
X392Y3631D01*
X396D01*
X400Y3627D01*
Y3631D02*
X402Y3633D01*
X404D01*
X402Y3635D01*
X404Y3637D01*
X402D01*
X400Y3639D01*
X398Y3637D01*
X396D01*
X398Y3635D01*
X396Y3633D01*
X398D01*
X400Y3631D01*
X350Y3627D02*
X354Y3631D01*
X358D01*
X354Y3635D01*
X358Y3639D01*
X354D01*
X350Y3643D01*
X346Y3639D01*
X342D01*
X346Y3635D01*
X342Y3631D01*
X346D01*
X350Y3627D01*
Y3631D02*
X352Y3633D01*
X354D01*
X352Y3635D01*
X354Y3637D01*
X352D01*
X350Y3639D01*
X348Y3637D01*
X346D01*
X348Y3635D01*
X346Y3633D01*
X348D01*
X350Y3631D01*
X300Y3627D02*
X304Y3631D01*
X308D01*
X304Y3635D01*
X308Y3639D01*
X304D01*
X300Y3643D01*
X296Y3639D01*
X292D01*
X296Y3635D01*
X292Y3631D01*
X296D01*
X300Y3627D01*
Y3631D02*
X302Y3633D01*
X304D01*
X302Y3635D01*
X304Y3637D01*
X302D01*
X300Y3639D01*
X298Y3637D01*
X296D01*
X298Y3635D01*
X296Y3633D01*
X298D01*
X300Y3631D01*
X250Y3627D02*
X254Y3631D01*
X258D01*
X254Y3635D01*
X258Y3639D01*
X254D01*
X250Y3643D01*
X246Y3639D01*
X242D01*
X246Y3635D01*
X242Y3631D01*
X246D01*
X250Y3627D01*
Y3631D02*
X252Y3633D01*
X254D01*
X252Y3635D01*
X254Y3637D01*
X252D01*
X250Y3639D01*
X248Y3637D01*
X246D01*
X248Y3635D01*
X246Y3633D01*
X248D01*
X250Y3631D01*
X200Y3627D02*
X204Y3631D01*
X208D01*
X204Y3635D01*
X208Y3639D01*
X204D01*
X200Y3643D01*
X196Y3639D01*
X192D01*
X196Y3635D01*
X192Y3631D01*
X196D01*
X200Y3627D01*
Y3631D02*
X202Y3633D01*
X204D01*
X202Y3635D01*
X204Y3637D01*
X202D01*
X200Y3639D01*
X198Y3637D01*
X196D01*
X198Y3635D01*
X196Y3633D01*
X198D01*
X200Y3631D01*
X150Y3627D02*
X154Y3631D01*
X158D01*
X154Y3635D01*
X158Y3639D01*
X154D01*
X150Y3643D01*
X146Y3639D01*
X142D01*
X146Y3635D01*
X142Y3631D01*
X146D01*
X150Y3627D01*
Y3631D02*
X152Y3633D01*
X154D01*
X152Y3635D01*
X154Y3637D01*
X152D01*
X150Y3639D01*
X148Y3637D01*
X146D01*
X148Y3635D01*
X146Y3633D01*
X148D01*
X150Y3631D01*
X100Y3627D02*
X104Y3631D01*
X108D01*
X104Y3635D01*
X108Y3639D01*
X104D01*
X100Y3643D01*
X96Y3639D01*
X92D01*
X96Y3635D01*
X92Y3631D01*
X96D01*
X100Y3627D01*
Y3631D02*
X102Y3633D01*
X104D01*
X102Y3635D01*
X104Y3637D01*
X102D01*
X100Y3639D01*
X98Y3637D01*
X96D01*
X98Y3635D01*
X96Y3633D01*
X98D01*
X100Y3631D01*
X50Y3627D02*
X54Y3631D01*
X58D01*
X54Y3635D01*
X58Y3639D01*
X54D01*
X50Y3643D01*
X46Y3639D01*
X42D01*
X46Y3635D01*
X42Y3631D01*
X46D01*
X50Y3627D01*
Y3631D02*
X52Y3633D01*
X54D01*
X52Y3635D01*
X54Y3637D01*
X52D01*
X50Y3639D01*
X48Y3637D01*
X46D01*
X48Y3635D01*
X46Y3633D01*
X48D01*
X50Y3631D01*
X1485Y1108D02*
X1489Y1112D01*
X1493D01*
X1489Y1116D01*
X1493Y1120D01*
X1489D01*
X1485Y1124D01*
X1481Y1120D01*
X1477D01*
X1481Y1116D01*
X1477Y1112D01*
X1481D01*
X1485Y1108D01*
Y1112D02*
X1487Y1114D01*
X1489D01*
X1487Y1116D01*
X1489Y1118D01*
X1487D01*
X1485Y1120D01*
X1483Y1118D01*
X1481D01*
X1483Y1116D01*
X1481Y1114D01*
X1483D01*
X1485Y1112D01*
X1630Y1327D02*
X1634Y1331D01*
X1638D01*
X1634Y1335D01*
X1638Y1339D01*
X1634D01*
X1630Y1343D01*
X1626Y1339D01*
X1622D01*
X1626Y1335D01*
X1622Y1331D01*
X1626D01*
X1630Y1327D01*
Y1331D02*
X1632Y1333D01*
X1634D01*
X1632Y1335D01*
X1634Y1337D01*
X1632D01*
X1630Y1339D01*
X1628Y1337D01*
X1626D01*
X1628Y1335D01*
X1626Y1333D01*
X1628D01*
X1630Y1331D01*
X1840Y897D02*
X1832Y913D01*
X1848D01*
X1840Y897D01*
Y901D02*
X1836Y909D01*
X1844D01*
X1840Y901D01*
X1648Y896D02*
X1640Y912D01*
X1656D01*
X1648Y896D01*
Y900D02*
X1644Y908D01*
X1652D01*
X1648Y900D01*
X2066Y897D02*
X2058Y913D01*
X2074D01*
X2066Y897D01*
Y901D02*
X2062Y909D01*
X2070D01*
X2066Y901D01*
X2276Y897D02*
X2268Y913D01*
X2284D01*
X2276Y897D01*
Y901D02*
X2272Y909D01*
X2280D01*
X2276Y901D01*
X1857Y797D02*
X1861Y801D01*
X1865D01*
X1861Y805D01*
X1865Y809D01*
X1861D01*
X1857Y813D01*
X1853Y809D01*
X1849D01*
X1853Y805D01*
X1849Y801D01*
X1853D01*
X1857Y797D01*
Y801D02*
X1859Y803D01*
X1861D01*
X1859Y805D01*
X1861Y807D01*
X1859D01*
X1857Y809D01*
X1855Y807D01*
X1853D01*
X1855Y805D01*
X1853Y803D01*
X1855D01*
X1857Y801D01*
X1965Y707D02*
X1969Y711D01*
X1973D01*
X1969Y715D01*
X1973Y719D01*
X1969D01*
X1965Y723D01*
X1961Y719D01*
X1957D01*
X1961Y715D01*
X1957Y711D01*
X1961D01*
X1965Y707D01*
Y711D02*
X1967Y713D01*
X1969D01*
X1967Y715D01*
X1969Y717D01*
X1967D01*
X1965Y719D01*
X1963Y717D01*
X1961D01*
X1963Y715D01*
X1961Y713D01*
X1963D01*
X1965Y711D01*
X2170Y372D02*
X2162Y388D01*
X2178D01*
X2170Y372D01*
Y376D02*
X2166Y384D01*
X2174D01*
X2170Y376D01*
X1518Y372D02*
X1510Y388D01*
X1526D01*
X1518Y372D01*
Y376D02*
X1514Y384D01*
X1522D01*
X1518Y376D01*
X2515Y706D02*
X2519Y710D01*
X2523D01*
X2519Y714D01*
X2523Y718D01*
X2519D01*
X2515Y722D01*
X2511Y718D01*
X2507D01*
X2511Y714D01*
X2507Y710D01*
X2511D01*
X2515Y706D01*
Y710D02*
X2517Y712D01*
X2519D01*
X2517Y714D01*
X2519Y716D01*
X2517D01*
X2515Y718D01*
X2513Y716D01*
X2511D01*
X2513Y714D01*
X2511Y712D01*
X2513D01*
X2515Y710D01*
X2685Y4227D02*
X2689Y4231D01*
X2693D01*
X2689Y4235D01*
X2693Y4239D01*
X2689D01*
X2685Y4243D01*
X2681Y4239D01*
X2677D01*
X2681Y4235D01*
X2677Y4231D01*
X2681D01*
X2685Y4227D01*
Y4231D02*
X2687Y4233D01*
X2689D01*
X2687Y4235D01*
X2689Y4237D01*
X2687D01*
X2685Y4239D01*
X2683Y4237D01*
X2681D01*
X2683Y4235D01*
X2681Y4233D01*
X2683D01*
X2685Y4231D01*
X2633Y4177D02*
X2637Y4181D01*
X2641D01*
X2637Y4185D01*
X2641Y4189D01*
X2637D01*
X2633Y4193D01*
X2629Y4189D01*
X2625D01*
X2629Y4185D01*
X2625Y4181D01*
X2629D01*
X2633Y4177D01*
Y4181D02*
X2635Y4183D01*
X2637D01*
X2635Y4185D01*
X2637Y4187D01*
X2635D01*
X2633Y4189D01*
X2631Y4187D01*
X2629D01*
X2631Y4185D01*
X2629Y4183D01*
X2631D01*
X2633Y4181D01*
X2049Y702D02*
X2041Y718D01*
X2057D01*
X2049Y702D01*
Y706D02*
X2045Y714D01*
X2053D01*
X2049Y706D01*
X1585Y712D02*
X1577Y728D01*
X1593D01*
X1585Y712D01*
Y716D02*
X1581Y724D01*
X1589D01*
X1585Y716D01*
X2010Y532D02*
X2002Y548D01*
X2018D01*
X2010Y532D01*
Y536D02*
X2006Y544D01*
X2014D01*
X2010Y536D01*
X1995Y466D02*
X1987Y482D01*
X2003D01*
X1995Y466D01*
Y470D02*
X1991Y478D01*
X1999D01*
X1995Y470D01*
X1445Y469D02*
X1437Y485D01*
X1453D01*
X1445Y469D01*
Y473D02*
X1441Y481D01*
X1449D01*
X1445Y473D01*
X2570Y462D02*
X2562Y478D01*
X2578D01*
X2570Y462D01*
Y466D02*
X2566Y474D01*
X2574D01*
X2570Y466D01*
X1880Y447D02*
X1872Y463D01*
X1888D01*
X1880Y447D01*
Y451D02*
X1876Y459D01*
X1884D01*
X1880Y451D01*
X2465Y452D02*
X2457Y468D01*
X2473D01*
X2465Y452D01*
Y456D02*
X2461Y464D01*
X2469D01*
X2465Y456D01*
X965Y1498D02*
X969Y1502D01*
X973D01*
X969Y1506D01*
X973Y1510D01*
X969D01*
X965Y1514D01*
X961Y1510D01*
X957D01*
X961Y1506D01*
X957Y1502D01*
X961D01*
X965Y1498D01*
Y1502D02*
X967Y1504D01*
X969D01*
X967Y1506D01*
X969Y1508D01*
X967D01*
X965Y1510D01*
X963Y1508D01*
X961D01*
X963Y1506D01*
X961Y1504D01*
X963D01*
X965Y1502D01*
X745Y1797D02*
X749Y1801D01*
X753D01*
X749Y1805D01*
X753Y1809D01*
X749D01*
X745Y1813D01*
X741Y1809D01*
X737D01*
X741Y1805D01*
X737Y1801D01*
X741D01*
X745Y1797D01*
Y1801D02*
X747Y1803D01*
X749D01*
X747Y1805D01*
X749Y1807D01*
X747D01*
X745Y1809D01*
X743Y1807D01*
X741D01*
X743Y1805D01*
X741Y1803D01*
X743D01*
X745Y1801D01*
X795Y1797D02*
X799Y1801D01*
X803D01*
X799Y1805D01*
X803Y1809D01*
X799D01*
X795Y1813D01*
X791Y1809D01*
X787D01*
X791Y1805D01*
X787Y1801D01*
X791D01*
X795Y1797D01*
Y1801D02*
X797Y1803D01*
X799D01*
X797Y1805D01*
X799Y1807D01*
X797D01*
X795Y1809D01*
X793Y1807D01*
X791D01*
X793Y1805D01*
X791Y1803D01*
X793D01*
X795Y1801D01*
X845Y1797D02*
X849Y1801D01*
X853D01*
X849Y1805D01*
X853Y1809D01*
X849D01*
X845Y1813D01*
X841Y1809D01*
X837D01*
X841Y1805D01*
X837Y1801D01*
X841D01*
X845Y1797D01*
Y1801D02*
X847Y1803D01*
X849D01*
X847Y1805D01*
X849Y1807D01*
X847D01*
X845Y1809D01*
X843Y1807D01*
X841D01*
X843Y1805D01*
X841Y1803D01*
X843D01*
X845Y1801D01*
X895Y1797D02*
X899Y1801D01*
X903D01*
X899Y1805D01*
X903Y1809D01*
X899D01*
X895Y1813D01*
X891Y1809D01*
X887D01*
X891Y1805D01*
X887Y1801D01*
X891D01*
X895Y1797D01*
Y1801D02*
X897Y1803D01*
X899D01*
X897Y1805D01*
X899Y1807D01*
X897D01*
X895Y1809D01*
X893Y1807D01*
X891D01*
X893Y1805D01*
X891Y1803D01*
X893D01*
X895Y1801D01*
X945Y1797D02*
X949Y1801D01*
X953D01*
X949Y1805D01*
X953Y1809D01*
X949D01*
X945Y1813D01*
X941Y1809D01*
X937D01*
X941Y1805D01*
X937Y1801D01*
X941D01*
X945Y1797D01*
Y1801D02*
X947Y1803D01*
X949D01*
X947Y1805D01*
X949Y1807D01*
X947D01*
X945Y1809D01*
X943Y1807D01*
X941D01*
X943Y1805D01*
X941Y1803D01*
X943D01*
X945Y1801D01*
X995Y1797D02*
X999Y1801D01*
X1003D01*
X999Y1805D01*
X1003Y1809D01*
X999D01*
X995Y1813D01*
X991Y1809D01*
X987D01*
X991Y1805D01*
X987Y1801D01*
X991D01*
X995Y1797D01*
Y1801D02*
X997Y1803D01*
X999D01*
X997Y1805D01*
X999Y1807D01*
X997D01*
X995Y1809D01*
X993Y1807D01*
X991D01*
X993Y1805D01*
X991Y1803D01*
X993D01*
X995Y1801D01*
X745Y1747D02*
X749Y1751D01*
X753D01*
X749Y1755D01*
X753Y1759D01*
X749D01*
X745Y1763D01*
X741Y1759D01*
X737D01*
X741Y1755D01*
X737Y1751D01*
X741D01*
X745Y1747D01*
Y1751D02*
X747Y1753D01*
X749D01*
X747Y1755D01*
X749Y1757D01*
X747D01*
X745Y1759D01*
X743Y1757D01*
X741D01*
X743Y1755D01*
X741Y1753D01*
X743D01*
X745Y1751D01*
X795Y1747D02*
X799Y1751D01*
X803D01*
X799Y1755D01*
X803Y1759D01*
X799D01*
X795Y1763D01*
X791Y1759D01*
X787D01*
X791Y1755D01*
X787Y1751D01*
X791D01*
X795Y1747D01*
Y1751D02*
X797Y1753D01*
X799D01*
X797Y1755D01*
X799Y1757D01*
X797D01*
X795Y1759D01*
X793Y1757D01*
X791D01*
X793Y1755D01*
X791Y1753D01*
X793D01*
X795Y1751D01*
X845Y1747D02*
X849Y1751D01*
X853D01*
X849Y1755D01*
X853Y1759D01*
X849D01*
X845Y1763D01*
X841Y1759D01*
X837D01*
X841Y1755D01*
X837Y1751D01*
X841D01*
X845Y1747D01*
Y1751D02*
X847Y1753D01*
X849D01*
X847Y1755D01*
X849Y1757D01*
X847D01*
X845Y1759D01*
X843Y1757D01*
X841D01*
X843Y1755D01*
X841Y1753D01*
X843D01*
X845Y1751D01*
X895Y1747D02*
X899Y1751D01*
X903D01*
X899Y1755D01*
X903Y1759D01*
X899D01*
X895Y1763D01*
X891Y1759D01*
X887D01*
X891Y1755D01*
X887Y1751D01*
X891D01*
X895Y1747D01*
Y1751D02*
X897Y1753D01*
X899D01*
X897Y1755D01*
X899Y1757D01*
X897D01*
X895Y1759D01*
X893Y1757D01*
X891D01*
X893Y1755D01*
X891Y1753D01*
X893D01*
X895Y1751D01*
X945Y1747D02*
X949Y1751D01*
X953D01*
X949Y1755D01*
X953Y1759D01*
X949D01*
X945Y1763D01*
X941Y1759D01*
X937D01*
X941Y1755D01*
X937Y1751D01*
X941D01*
X945Y1747D01*
Y1751D02*
X947Y1753D01*
X949D01*
X947Y1755D01*
X949Y1757D01*
X947D01*
X945Y1759D01*
X943Y1757D01*
X941D01*
X943Y1755D01*
X941Y1753D01*
X943D01*
X945Y1751D01*
X995Y1747D02*
X999Y1751D01*
X1003D01*
X999Y1755D01*
X1003Y1759D01*
X999D01*
X995Y1763D01*
X991Y1759D01*
X987D01*
X991Y1755D01*
X987Y1751D01*
X991D01*
X995Y1747D01*
Y1751D02*
X997Y1753D01*
X999D01*
X997Y1755D01*
X999Y1757D01*
X997D01*
X995Y1759D01*
X993Y1757D01*
X991D01*
X993Y1755D01*
X991Y1753D01*
X993D01*
X995Y1751D01*
X745Y1697D02*
X749Y1701D01*
X753D01*
X749Y1705D01*
X753Y1709D01*
X749D01*
X745Y1713D01*
X741Y1709D01*
X737D01*
X741Y1705D01*
X737Y1701D01*
X741D01*
X745Y1697D01*
Y1701D02*
X747Y1703D01*
X749D01*
X747Y1705D01*
X749Y1707D01*
X747D01*
X745Y1709D01*
X743Y1707D01*
X741D01*
X743Y1705D01*
X741Y1703D01*
X743D01*
X745Y1701D01*
X795Y1697D02*
X799Y1701D01*
X803D01*
X799Y1705D01*
X803Y1709D01*
X799D01*
X795Y1713D01*
X791Y1709D01*
X787D01*
X791Y1705D01*
X787Y1701D01*
X791D01*
X795Y1697D01*
Y1701D02*
X797Y1703D01*
X799D01*
X797Y1705D01*
X799Y1707D01*
X797D01*
X795Y1709D01*
X793Y1707D01*
X791D01*
X793Y1705D01*
X791Y1703D01*
X793D01*
X795Y1701D01*
X845Y1697D02*
X849Y1701D01*
X853D01*
X849Y1705D01*
X853Y1709D01*
X849D01*
X845Y1713D01*
X841Y1709D01*
X837D01*
X841Y1705D01*
X837Y1701D01*
X841D01*
X845Y1697D01*
Y1701D02*
X847Y1703D01*
X849D01*
X847Y1705D01*
X849Y1707D01*
X847D01*
X845Y1709D01*
X843Y1707D01*
X841D01*
X843Y1705D01*
X841Y1703D01*
X843D01*
X845Y1701D01*
X895Y1697D02*
X899Y1701D01*
X903D01*
X899Y1705D01*
X903Y1709D01*
X899D01*
X895Y1713D01*
X891Y1709D01*
X887D01*
X891Y1705D01*
X887Y1701D01*
X891D01*
X895Y1697D01*
Y1701D02*
X897Y1703D01*
X899D01*
X897Y1705D01*
X899Y1707D01*
X897D01*
X895Y1709D01*
X893Y1707D01*
X891D01*
X893Y1705D01*
X891Y1703D01*
X893D01*
X895Y1701D01*
X945Y1697D02*
X949Y1701D01*
X953D01*
X949Y1705D01*
X953Y1709D01*
X949D01*
X945Y1713D01*
X941Y1709D01*
X937D01*
X941Y1705D01*
X937Y1701D01*
X941D01*
X945Y1697D01*
Y1701D02*
X947Y1703D01*
X949D01*
X947Y1705D01*
X949Y1707D01*
X947D01*
X945Y1709D01*
X943Y1707D01*
X941D01*
X943Y1705D01*
X941Y1703D01*
X943D01*
X945Y1701D01*
X995Y1697D02*
X999Y1701D01*
X1003D01*
X999Y1705D01*
X1003Y1709D01*
X999D01*
X995Y1713D01*
X991Y1709D01*
X987D01*
X991Y1705D01*
X987Y1701D01*
X991D01*
X995Y1697D01*
Y1701D02*
X997Y1703D01*
X999D01*
X997Y1705D01*
X999Y1707D01*
X997D01*
X995Y1709D01*
X993Y1707D01*
X991D01*
X993Y1705D01*
X991Y1703D01*
X993D01*
X995Y1701D01*
X745Y1647D02*
X749Y1651D01*
X753D01*
X749Y1655D01*
X753Y1659D01*
X749D01*
X745Y1663D01*
X741Y1659D01*
X737D01*
X741Y1655D01*
X737Y1651D01*
X741D01*
X745Y1647D01*
Y1651D02*
X747Y1653D01*
X749D01*
X747Y1655D01*
X749Y1657D01*
X747D01*
X745Y1659D01*
X743Y1657D01*
X741D01*
X743Y1655D01*
X741Y1653D01*
X743D01*
X745Y1651D01*
X795Y1647D02*
X799Y1651D01*
X803D01*
X799Y1655D01*
X803Y1659D01*
X799D01*
X795Y1663D01*
X791Y1659D01*
X787D01*
X791Y1655D01*
X787Y1651D01*
X791D01*
X795Y1647D01*
Y1651D02*
X797Y1653D01*
X799D01*
X797Y1655D01*
X799Y1657D01*
X797D01*
X795Y1659D01*
X793Y1657D01*
X791D01*
X793Y1655D01*
X791Y1653D01*
X793D01*
X795Y1651D01*
X845Y1647D02*
X849Y1651D01*
X853D01*
X849Y1655D01*
X853Y1659D01*
X849D01*
X845Y1663D01*
X841Y1659D01*
X837D01*
X841Y1655D01*
X837Y1651D01*
X841D01*
X845Y1647D01*
Y1651D02*
X847Y1653D01*
X849D01*
X847Y1655D01*
X849Y1657D01*
X847D01*
X845Y1659D01*
X843Y1657D01*
X841D01*
X843Y1655D01*
X841Y1653D01*
X843D01*
X845Y1651D01*
X895Y1647D02*
X899Y1651D01*
X903D01*
X899Y1655D01*
X903Y1659D01*
X899D01*
X895Y1663D01*
X891Y1659D01*
X887D01*
X891Y1655D01*
X887Y1651D01*
X891D01*
X895Y1647D01*
Y1651D02*
X897Y1653D01*
X899D01*
X897Y1655D01*
X899Y1657D01*
X897D01*
X895Y1659D01*
X893Y1657D01*
X891D01*
X893Y1655D01*
X891Y1653D01*
X893D01*
X895Y1651D01*
X945Y1647D02*
X949Y1651D01*
X953D01*
X949Y1655D01*
X953Y1659D01*
X949D01*
X945Y1663D01*
X941Y1659D01*
X937D01*
X941Y1655D01*
X937Y1651D01*
X941D01*
X945Y1647D01*
Y1651D02*
X947Y1653D01*
X949D01*
X947Y1655D01*
X949Y1657D01*
X947D01*
X945Y1659D01*
X943Y1657D01*
X941D01*
X943Y1655D01*
X941Y1653D01*
X943D01*
X945Y1651D01*
X995Y1647D02*
X999Y1651D01*
X1003D01*
X999Y1655D01*
X1003Y1659D01*
X999D01*
X995Y1663D01*
X991Y1659D01*
X987D01*
X991Y1655D01*
X987Y1651D01*
X991D01*
X995Y1647D01*
Y1651D02*
X997Y1653D01*
X999D01*
X997Y1655D01*
X999Y1657D01*
X997D01*
X995Y1659D01*
X993Y1657D01*
X991D01*
X993Y1655D01*
X991Y1653D01*
X993D01*
X995Y1651D01*
X695Y1647D02*
X699Y1651D01*
X703D01*
X699Y1655D01*
X703Y1659D01*
X699D01*
X695Y1663D01*
X691Y1659D01*
X687D01*
X691Y1655D01*
X687Y1651D01*
X691D01*
X695Y1647D01*
Y1651D02*
X697Y1653D01*
X699D01*
X697Y1655D01*
X699Y1657D01*
X697D01*
X695Y1659D01*
X693Y1657D01*
X691D01*
X693Y1655D01*
X691Y1653D01*
X693D01*
X695Y1651D01*
Y1697D02*
X699Y1701D01*
X703D01*
X699Y1705D01*
X703Y1709D01*
X699D01*
X695Y1713D01*
X691Y1709D01*
X687D01*
X691Y1705D01*
X687Y1701D01*
X691D01*
X695Y1697D01*
Y1701D02*
X697Y1703D01*
X699D01*
X697Y1705D01*
X699Y1707D01*
X697D01*
X695Y1709D01*
X693Y1707D01*
X691D01*
X693Y1705D01*
X691Y1703D01*
X693D01*
X695Y1701D01*
Y1747D02*
X699Y1751D01*
X703D01*
X699Y1755D01*
X703Y1759D01*
X699D01*
X695Y1763D01*
X691Y1759D01*
X687D01*
X691Y1755D01*
X687Y1751D01*
X691D01*
X695Y1747D01*
Y1751D02*
X697Y1753D01*
X699D01*
X697Y1755D01*
X699Y1757D01*
X697D01*
X695Y1759D01*
X693Y1757D01*
X691D01*
X693Y1755D01*
X691Y1753D01*
X693D01*
X695Y1751D01*
Y1797D02*
X699Y1801D01*
X703D01*
X699Y1805D01*
X703Y1809D01*
X699D01*
X695Y1813D01*
X691Y1809D01*
X687D01*
X691Y1805D01*
X687Y1801D01*
X691D01*
X695Y1797D01*
Y1801D02*
X697Y1803D01*
X699D01*
X697Y1805D01*
X699Y1807D01*
X697D01*
X695Y1809D01*
X693Y1807D01*
X691D01*
X693Y1805D01*
X691Y1803D01*
X693D01*
X695Y1801D01*
X880Y1597D02*
X884Y1601D01*
X888D01*
X884Y1605D01*
X888Y1609D01*
X884D01*
X880Y1613D01*
X876Y1609D01*
X872D01*
X876Y1605D01*
X872Y1601D01*
X876D01*
X880Y1597D01*
Y1601D02*
X882Y1603D01*
X884D01*
X882Y1605D01*
X884Y1607D01*
X882D01*
X880Y1609D01*
X878Y1607D01*
X876D01*
X878Y1605D01*
X876Y1603D01*
X878D01*
X880Y1601D01*
X830Y1597D02*
X834Y1601D01*
X838D01*
X834Y1605D01*
X838Y1609D01*
X834D01*
X830Y1613D01*
X826Y1609D01*
X822D01*
X826Y1605D01*
X822Y1601D01*
X826D01*
X830Y1597D01*
Y1601D02*
X832Y1603D01*
X834D01*
X832Y1605D01*
X834Y1607D01*
X832D01*
X830Y1609D01*
X828Y1607D01*
X826D01*
X828Y1605D01*
X826Y1603D01*
X828D01*
X830Y1601D01*
X780Y1597D02*
X784Y1601D01*
X788D01*
X784Y1605D01*
X788Y1609D01*
X784D01*
X780Y1613D01*
X776Y1609D01*
X772D01*
X776Y1605D01*
X772Y1601D01*
X776D01*
X780Y1597D01*
Y1601D02*
X782Y1603D01*
X784D01*
X782Y1605D01*
X784Y1607D01*
X782D01*
X780Y1609D01*
X778Y1607D01*
X776D01*
X778Y1605D01*
X776Y1603D01*
X778D01*
X780Y1601D01*
X895Y1287D02*
X899Y1291D01*
X903D01*
X899Y1295D01*
X903Y1299D01*
X899D01*
X895Y1303D01*
X891Y1299D01*
X887D01*
X891Y1295D01*
X887Y1291D01*
X891D01*
X895Y1287D01*
Y1291D02*
X897Y1293D01*
X899D01*
X897Y1295D01*
X899Y1297D01*
X897D01*
X895Y1299D01*
X893Y1297D01*
X891D01*
X893Y1295D01*
X891Y1293D01*
X893D01*
X895Y1291D01*
X1080Y3102D02*
X1084Y3106D01*
X1088D01*
X1084Y3110D01*
X1088Y3114D01*
X1084D01*
X1080Y3118D01*
X1076Y3114D01*
X1072D01*
X1076Y3110D01*
X1072Y3106D01*
X1076D01*
X1080Y3102D01*
Y3106D02*
X1082Y3108D01*
X1084D01*
X1082Y3110D01*
X1084Y3112D01*
X1082D01*
X1080Y3114D01*
X1078Y3112D01*
X1076D01*
X1078Y3110D01*
X1076Y3108D01*
X1078D01*
X1080Y3106D01*
X569Y3226D02*
X573Y3230D01*
X577D01*
X573Y3234D01*
X577Y3238D01*
X573D01*
X569Y3242D01*
X565Y3238D01*
X561D01*
X565Y3234D01*
X561Y3230D01*
X565D01*
X569Y3226D01*
Y3230D02*
X571Y3232D01*
X573D01*
X571Y3234D01*
X573Y3236D01*
X571D01*
X569Y3238D01*
X567Y3236D01*
X565D01*
X567Y3234D01*
X565Y3232D01*
X567D01*
X569Y3230D01*
X730Y3152D02*
X722Y3168D01*
X738D01*
X730Y3152D01*
Y3156D02*
X726Y3164D01*
X734D01*
X730Y3156D01*
X1260Y2962D02*
X1252Y2978D01*
X1268D01*
X1260Y2962D01*
Y2966D02*
X1256Y2974D01*
X1264D01*
X1260Y2966D01*
X1600Y2435D02*
X1604Y2439D01*
X1608D01*
X1604Y2443D01*
X1608Y2447D01*
X1604D01*
X1600Y2451D01*
X1596Y2447D01*
X1592D01*
X1596Y2443D01*
X1592Y2439D01*
X1596D01*
X1600Y2435D01*
Y2439D02*
X1602Y2441D01*
X1604D01*
X1602Y2443D01*
X1604Y2445D01*
X1602D01*
X1600Y2447D01*
X1598Y2445D01*
X1596D01*
X1598Y2443D01*
X1596Y2441D01*
X1598D01*
X1600Y2439D01*
X1650Y2435D02*
X1654Y2439D01*
X1658D01*
X1654Y2443D01*
X1658Y2447D01*
X1654D01*
X1650Y2451D01*
X1646Y2447D01*
X1642D01*
X1646Y2443D01*
X1642Y2439D01*
X1646D01*
X1650Y2435D01*
Y2439D02*
X1652Y2441D01*
X1654D01*
X1652Y2443D01*
X1654Y2445D01*
X1652D01*
X1650Y2447D01*
X1648Y2445D01*
X1646D01*
X1648Y2443D01*
X1646Y2441D01*
X1648D01*
X1650Y2439D01*
X1700Y2435D02*
X1704Y2439D01*
X1708D01*
X1704Y2443D01*
X1708Y2447D01*
X1704D01*
X1700Y2451D01*
X1696Y2447D01*
X1692D01*
X1696Y2443D01*
X1692Y2439D01*
X1696D01*
X1700Y2435D01*
Y2439D02*
X1702Y2441D01*
X1704D01*
X1702Y2443D01*
X1704Y2445D01*
X1702D01*
X1700Y2447D01*
X1698Y2445D01*
X1696D01*
X1698Y2443D01*
X1696Y2441D01*
X1698D01*
X1700Y2439D01*
X1515Y2535D02*
X1519Y2539D01*
X1523D01*
X1519Y2543D01*
X1523Y2547D01*
X1519D01*
X1515Y2551D01*
X1511Y2547D01*
X1507D01*
X1511Y2543D01*
X1507Y2539D01*
X1511D01*
X1515Y2535D01*
Y2539D02*
X1517Y2541D01*
X1519D01*
X1517Y2543D01*
X1519Y2545D01*
X1517D01*
X1515Y2547D01*
X1513Y2545D01*
X1511D01*
X1513Y2543D01*
X1511Y2541D01*
X1513D01*
X1515Y2539D01*
Y2485D02*
X1519Y2489D01*
X1523D01*
X1519Y2493D01*
X1523Y2497D01*
X1519D01*
X1515Y2501D01*
X1511Y2497D01*
X1507D01*
X1511Y2493D01*
X1507Y2489D01*
X1511D01*
X1515Y2485D01*
Y2489D02*
X1517Y2491D01*
X1519D01*
X1517Y2493D01*
X1519Y2495D01*
X1517D01*
X1515Y2497D01*
X1513Y2495D01*
X1511D01*
X1513Y2493D01*
X1511Y2491D01*
X1513D01*
X1515Y2489D01*
X1715Y2485D02*
X1719Y2489D01*
X1723D01*
X1719Y2493D01*
X1723Y2497D01*
X1719D01*
X1715Y2501D01*
X1711Y2497D01*
X1707D01*
X1711Y2493D01*
X1707Y2489D01*
X1711D01*
X1715Y2485D01*
Y2489D02*
X1717Y2491D01*
X1719D01*
X1717Y2493D01*
X1719Y2495D01*
X1717D01*
X1715Y2497D01*
X1713Y2495D01*
X1711D01*
X1713Y2493D01*
X1711Y2491D01*
X1713D01*
X1715Y2489D01*
X1665Y2485D02*
X1669Y2489D01*
X1673D01*
X1669Y2493D01*
X1673Y2497D01*
X1669D01*
X1665Y2501D01*
X1661Y2497D01*
X1657D01*
X1661Y2493D01*
X1657Y2489D01*
X1661D01*
X1665Y2485D01*
Y2489D02*
X1667Y2491D01*
X1669D01*
X1667Y2493D01*
X1669Y2495D01*
X1667D01*
X1665Y2497D01*
X1663Y2495D01*
X1661D01*
X1663Y2493D01*
X1661Y2491D01*
X1663D01*
X1665Y2489D01*
X1615Y2485D02*
X1619Y2489D01*
X1623D01*
X1619Y2493D01*
X1623Y2497D01*
X1619D01*
X1615Y2501D01*
X1611Y2497D01*
X1607D01*
X1611Y2493D01*
X1607Y2489D01*
X1611D01*
X1615Y2485D01*
Y2489D02*
X1617Y2491D01*
X1619D01*
X1617Y2493D01*
X1619Y2495D01*
X1617D01*
X1615Y2497D01*
X1613Y2495D01*
X1611D01*
X1613Y2493D01*
X1611Y2491D01*
X1613D01*
X1615Y2489D01*
X1565Y2485D02*
X1569Y2489D01*
X1573D01*
X1569Y2493D01*
X1573Y2497D01*
X1569D01*
X1565Y2501D01*
X1561Y2497D01*
X1557D01*
X1561Y2493D01*
X1557Y2489D01*
X1561D01*
X1565Y2485D01*
Y2489D02*
X1567Y2491D01*
X1569D01*
X1567Y2493D01*
X1569Y2495D01*
X1567D01*
X1565Y2497D01*
X1563Y2495D01*
X1561D01*
X1563Y2493D01*
X1561Y2491D01*
X1563D01*
X1565Y2489D01*
X1715Y2535D02*
X1719Y2539D01*
X1723D01*
X1719Y2543D01*
X1723Y2547D01*
X1719D01*
X1715Y2551D01*
X1711Y2547D01*
X1707D01*
X1711Y2543D01*
X1707Y2539D01*
X1711D01*
X1715Y2535D01*
Y2539D02*
X1717Y2541D01*
X1719D01*
X1717Y2543D01*
X1719Y2545D01*
X1717D01*
X1715Y2547D01*
X1713Y2545D01*
X1711D01*
X1713Y2543D01*
X1711Y2541D01*
X1713D01*
X1715Y2539D01*
X1665Y2535D02*
X1669Y2539D01*
X1673D01*
X1669Y2543D01*
X1673Y2547D01*
X1669D01*
X1665Y2551D01*
X1661Y2547D01*
X1657D01*
X1661Y2543D01*
X1657Y2539D01*
X1661D01*
X1665Y2535D01*
Y2539D02*
X1667Y2541D01*
X1669D01*
X1667Y2543D01*
X1669Y2545D01*
X1667D01*
X1665Y2547D01*
X1663Y2545D01*
X1661D01*
X1663Y2543D01*
X1661Y2541D01*
X1663D01*
X1665Y2539D01*
X1615Y2535D02*
X1619Y2539D01*
X1623D01*
X1619Y2543D01*
X1623Y2547D01*
X1619D01*
X1615Y2551D01*
X1611Y2547D01*
X1607D01*
X1611Y2543D01*
X1607Y2539D01*
X1611D01*
X1615Y2535D01*
Y2539D02*
X1617Y2541D01*
X1619D01*
X1617Y2543D01*
X1619Y2545D01*
X1617D01*
X1615Y2547D01*
X1613Y2545D01*
X1611D01*
X1613Y2543D01*
X1611Y2541D01*
X1613D01*
X1615Y2539D01*
X1565Y2535D02*
X1569Y2539D01*
X1573D01*
X1569Y2543D01*
X1573Y2547D01*
X1569D01*
X1565Y2551D01*
X1561Y2547D01*
X1557D01*
X1561Y2543D01*
X1557Y2539D01*
X1561D01*
X1565Y2535D01*
Y2539D02*
X1567Y2541D01*
X1569D01*
X1567Y2543D01*
X1569Y2545D01*
X1567D01*
X1565Y2547D01*
X1563Y2545D01*
X1561D01*
X1563Y2543D01*
X1561Y2541D01*
X1563D01*
X1565Y2539D01*
X1020Y1582D02*
X1024Y1586D01*
X1028D01*
X1024Y1590D01*
X1028Y1594D01*
X1024D01*
X1020Y1598D01*
X1016Y1594D01*
X1012D01*
X1016Y1590D01*
X1012Y1586D01*
X1016D01*
X1020Y1582D01*
Y1586D02*
X1022Y1588D01*
X1024D01*
X1022Y1590D01*
X1024Y1592D01*
X1022D01*
X1020Y1594D01*
X1018Y1592D01*
X1016D01*
X1018Y1590D01*
X1016Y1588D01*
X1018D01*
X1020Y1586D01*
X1942Y847D02*
X1934Y863D01*
X1950D01*
X1942Y847D01*
Y851D02*
X1938Y859D01*
X1946D01*
X1942Y851D01*
X1835Y2232D02*
X1827Y2248D01*
X1843D01*
X1835Y2232D01*
Y2236D02*
X1831Y2244D01*
X1839D01*
X1835Y2236D01*
X2875Y3292D02*
X2867Y3308D01*
X2883D01*
X2875Y3292D01*
Y3296D02*
X2871Y3304D01*
X2879D01*
X2875Y3296D01*
Y3192D02*
X2867Y3208D01*
X2883D01*
X2875Y3192D01*
Y3196D02*
X2871Y3204D01*
X2879D01*
X2875Y3196D01*
Y3092D02*
X2867Y3108D01*
X2883D01*
X2875Y3092D01*
Y3096D02*
X2871Y3104D01*
X2879D01*
X2875Y3096D01*
Y2992D02*
X2867Y3008D01*
X2883D01*
X2875Y2992D01*
Y2996D02*
X2871Y3004D01*
X2879D01*
X2875Y2996D01*
Y2892D02*
X2867Y2908D01*
X2883D01*
X2875Y2892D01*
Y2896D02*
X2871Y2904D01*
X2879D01*
X2875Y2896D01*
Y2792D02*
X2867Y2808D01*
X2883D01*
X2875Y2792D01*
Y2796D02*
X2871Y2804D01*
X2879D01*
X2875Y2796D01*
Y2292D02*
X2867Y2308D01*
X2883D01*
X2875Y2292D01*
Y2296D02*
X2871Y2304D01*
X2879D01*
X2875Y2296D01*
Y2392D02*
X2867Y2408D01*
X2883D01*
X2875Y2392D01*
Y2396D02*
X2871Y2404D01*
X2879D01*
X2875Y2396D01*
Y2492D02*
X2867Y2508D01*
X2883D01*
X2875Y2492D01*
Y2496D02*
X2871Y2504D01*
X2879D01*
X2875Y2496D01*
Y2592D02*
X2867Y2608D01*
X2883D01*
X2875Y2592D01*
Y2596D02*
X2871Y2604D01*
X2879D01*
X2875Y2596D01*
Y2692D02*
X2867Y2708D01*
X2883D01*
X2875Y2692D01*
Y2696D02*
X2871Y2704D01*
X2879D01*
X2875Y2696D01*
Y2092D02*
X2867Y2108D01*
X2883D01*
X2875Y2092D01*
Y2096D02*
X2871Y2104D01*
X2879D01*
X2875Y2096D01*
Y2192D02*
X2867Y2208D01*
X2883D01*
X2875Y2192D01*
Y2196D02*
X2871Y2204D01*
X2879D01*
X2875Y2196D01*
X2825Y1967D02*
X2817Y1983D01*
X2833D01*
X2825Y1967D01*
Y1971D02*
X2821Y1979D01*
X2829D01*
X2825Y1971D01*
X2750Y1892D02*
X2742Y1908D01*
X2758D01*
X2750Y1892D01*
Y1896D02*
X2746Y1904D01*
X2754D01*
X2750Y1896D01*
Y2092D02*
X2742Y2108D01*
X2758D01*
X2750Y2092D01*
Y2096D02*
X2746Y2104D01*
X2754D01*
X2750Y2096D01*
Y2192D02*
X2742Y2208D01*
X2758D01*
X2750Y2192D01*
Y2196D02*
X2746Y2204D01*
X2754D01*
X2750Y2196D01*
Y2292D02*
X2742Y2308D01*
X2758D01*
X2750Y2292D01*
Y2296D02*
X2746Y2304D01*
X2754D01*
X2750Y2296D01*
Y2392D02*
X2742Y2408D01*
X2758D01*
X2750Y2392D01*
Y2396D02*
X2746Y2404D01*
X2754D01*
X2750Y2396D01*
Y2492D02*
X2742Y2508D01*
X2758D01*
X2750Y2492D01*
Y2496D02*
X2746Y2504D01*
X2754D01*
X2750Y2496D01*
Y2592D02*
X2742Y2608D01*
X2758D01*
X2750Y2592D01*
Y2596D02*
X2746Y2604D01*
X2754D01*
X2750Y2596D01*
Y2692D02*
X2742Y2708D01*
X2758D01*
X2750Y2692D01*
Y2696D02*
X2746Y2704D01*
X2754D01*
X2750Y2696D01*
Y3092D02*
X2742Y3108D01*
X2758D01*
X2750Y3092D01*
Y3096D02*
X2746Y3104D01*
X2754D01*
X2750Y3096D01*
Y2992D02*
X2742Y3008D01*
X2758D01*
X2750Y2992D01*
Y2996D02*
X2746Y3004D01*
X2754D01*
X2750Y2996D01*
Y2892D02*
X2742Y2908D01*
X2758D01*
X2750Y2892D01*
Y2896D02*
X2746Y2904D01*
X2754D01*
X2750Y2896D01*
Y2792D02*
X2742Y2808D01*
X2758D01*
X2750Y2792D01*
Y2796D02*
X2746Y2804D01*
X2754D01*
X2750Y2796D01*
Y3192D02*
X2742Y3208D01*
X2758D01*
X2750Y3192D01*
Y3196D02*
X2746Y3204D01*
X2754D01*
X2750Y3196D01*
Y3292D02*
X2742Y3308D01*
X2758D01*
X2750Y3292D01*
Y3296D02*
X2746Y3304D01*
X2754D01*
X2750Y3296D01*
X2675Y2017D02*
X2667Y2033D01*
X2683D01*
X2675Y2017D01*
Y2021D02*
X2671Y2029D01*
X2679D01*
X2675Y2021D01*
X2820Y3392D02*
X2812Y3408D01*
X2828D01*
X2820Y3392D01*
Y3396D02*
X2816Y3404D01*
X2824D01*
X2820Y3396D01*
X2523Y1558D02*
X2515Y1574D01*
X2531D01*
X2523Y1558D01*
Y1562D02*
X2519Y1570D01*
X2527D01*
X2523Y1562D01*
X2598Y1633D02*
X2590Y1649D01*
X2606D01*
X2598Y1633D01*
Y1637D02*
X2594Y1645D01*
X2602D01*
X2598Y1637D01*
X2708Y1586D02*
X2700Y1602D01*
X2716D01*
X2708Y1586D01*
Y1590D02*
X2704Y1598D01*
X2712D01*
X2708Y1590D01*
X2740Y1792D02*
X2732Y1808D01*
X2748D01*
X2740Y1792D01*
Y1796D02*
X2736Y1804D01*
X2744D01*
X2740Y1796D01*
Y1692D02*
X2732Y1708D01*
X2748D01*
X2740Y1692D01*
Y1696D02*
X2736Y1704D01*
X2744D01*
X2740Y1696D01*
X2622Y1497D02*
X2614Y1513D01*
X2630D01*
X2622Y1497D01*
Y1501D02*
X2618Y1509D01*
X2626D01*
X2622Y1501D01*
X2536Y1408D02*
X2528Y1424D01*
X2544D01*
X2536Y1408D01*
Y1412D02*
X2532Y1420D01*
X2540D01*
X2536Y1412D01*
X2437Y1469D02*
X2429Y1485D01*
X2445D01*
X2437Y1469D01*
Y1473D02*
X2433Y1481D01*
X2441D01*
X2437Y1473D01*
X2632Y1772D02*
X2624Y1788D01*
X2640D01*
X2632Y1772D01*
Y1776D02*
X2628Y1784D01*
X2636D01*
X2632Y1776D01*
X2635Y1892D02*
X2627Y1908D01*
X2643D01*
X2635Y1892D01*
Y1896D02*
X2631Y1904D01*
X2639D01*
X2635Y1896D01*
X2519Y1263D02*
X2511Y1279D01*
X2527D01*
X2519Y1263D01*
Y1267D02*
X2515Y1275D01*
X2523D01*
X2519Y1267D01*
X2439Y1128D02*
X2431Y1144D01*
X2447D01*
X2439Y1128D01*
Y1132D02*
X2435Y1140D01*
X2443D01*
X2439Y1132D01*
X2352Y1380D02*
X2344Y1396D01*
X2360D01*
X2352Y1380D01*
Y1384D02*
X2348Y1392D01*
X2356D01*
X2352Y1384D01*
X1967Y2069D02*
X1959Y2085D01*
X1975D01*
X1967Y2069D01*
Y2073D02*
X1963Y2081D01*
X1971D01*
X1967Y2073D01*
X1934Y2069D02*
X1926Y2085D01*
X1942D01*
X1934Y2069D01*
Y2073D02*
X1930Y2081D01*
X1938D01*
X1934Y2073D01*
X1900Y2069D02*
X1892Y2085D01*
X1908D01*
X1900Y2069D01*
Y2073D02*
X1896Y2081D01*
X1904D01*
X1900Y2073D01*
X2190Y1297D02*
X2182Y1313D01*
X2198D01*
X2190Y1297D01*
Y1301D02*
X2186Y1309D01*
X2194D01*
X2190Y1301D01*
X2150Y1307D02*
X2142Y1323D01*
X2158D01*
X2150Y1307D01*
Y1311D02*
X2146Y1319D01*
X2154D01*
X2150Y1311D01*
X2168Y1339D02*
X2160Y1355D01*
X2176D01*
X2168Y1339D01*
Y1343D02*
X2164Y1351D01*
X2172D01*
X2168Y1343D01*
X2312Y843D02*
X2316Y847D01*
X2320D01*
X2316Y851D01*
X2320Y855D01*
X2316D01*
X2312Y859D01*
X2308Y855D01*
X2304D01*
X2308Y851D01*
X2304Y847D01*
X2308D01*
X2312Y843D01*
Y847D02*
X2314Y849D01*
X2316D01*
X2314Y851D01*
X2316Y853D01*
X2314D01*
X2312Y855D01*
X2310Y853D01*
X2308D01*
X2310Y851D01*
X2308Y849D01*
X2310D01*
X2312Y847D01*
X2330Y747D02*
X2322Y763D01*
X2338D01*
X2330Y747D01*
Y751D02*
X2326Y759D01*
X2334D01*
X2330Y751D01*
X1620Y712D02*
X1612Y728D01*
X1628D01*
X1620Y712D01*
Y716D02*
X1616Y724D01*
X1624D01*
X1620Y716D01*
X1830Y712D02*
X1822Y728D01*
X1838D01*
X1830Y712D01*
Y716D02*
X1826Y724D01*
X1834D01*
X1830Y716D01*
X2140Y722D02*
X2132Y738D01*
X2148D01*
X2140Y722D01*
Y726D02*
X2136Y734D01*
X2144D01*
X2140Y726D01*
X1290Y2122D02*
X1282Y2138D01*
X1298D01*
X1290Y2122D01*
Y2126D02*
X1286Y2134D01*
X1294D01*
X1290Y2126D01*
X1250Y1632D02*
X1242Y1648D01*
X1258D01*
X1250Y1632D01*
Y1636D02*
X1246Y1644D01*
X1254D01*
X1250Y1636D01*
X1150Y1602D02*
X1142Y1618D01*
X1158D01*
X1150Y1602D01*
Y1606D02*
X1146Y1614D01*
X1154D01*
X1150Y1606D01*
D208*
X2513Y74D02*
G03*
X2513Y74I-8J0D01*
G01*
Y274D02*
G03*
X2513Y274I-8J0D01*
G01*
X2313D02*
G03*
X2313Y274I-8J0D01*
G01*
Y74D02*
G03*
X2313Y74I-8J0D01*
G01*
X1763D02*
G03*
X1763Y74I-8J0D01*
G01*
Y274D02*
G03*
X1763Y274I-8J0D01*
G01*
X1563D02*
G03*
X1563Y274I-8J0D01*
G01*
Y74D02*
G03*
X1563Y74I-8J0D01*
G01*
X600Y4780D02*
G03*
X600Y4780I-8J0D01*
G01*
Y4980D02*
G03*
X600Y4980I-8J0D01*
G01*
X400D02*
G03*
X400Y4980I-8J0D01*
G01*
Y4780D02*
G03*
X400Y4780I-8J0D01*
G01*
X2100Y4782D02*
G03*
X2100Y4782I-8J0D01*
G01*
Y4982D02*
G03*
X2100Y4982I-8J0D01*
G01*
X1900D02*
G03*
X1900Y4982I-8J0D01*
G01*
Y4782D02*
G03*
X1900Y4782I-8J0D01*
G01*
X2850D02*
G03*
X2850Y4782I-8J0D01*
G01*
Y4982D02*
G03*
X2850Y4982I-8J0D01*
G01*
X2650D02*
G03*
X2650Y4982I-8J0D01*
G01*
Y4782D02*
G03*
X2650Y4782I-8J0D01*
G01*
X1350Y4780D02*
G03*
X1350Y4780I-8J0D01*
G01*
Y4980D02*
G03*
X1350Y4980I-8J0D01*
G01*
X1150D02*
G03*
X1150Y4980I-8J0D01*
G01*
Y4780D02*
G03*
X1150Y4780I-8J0D01*
G01*
X126Y1799D02*
G03*
X126Y1799I-8J0D01*
G01*
X2843D02*
G03*
X2843Y1799I-8J0D01*
G01*
Y3531D02*
G03*
X2843Y3531I-8J0D01*
G01*
X126D02*
G03*
X126Y3531I-8J0D01*
G01*
D209*
X122Y1799D02*
G03*
X122Y1799I-4J0D01*
G01*
X2839D02*
G03*
X2839Y1799I-4J0D01*
G01*
Y3531D02*
G03*
X2839Y3531I-4J0D01*
G01*
X122D02*
G03*
X122Y3531I-4J0D01*
G01*
M02*
