G04 Layer_Color=255*
%FSLAX23Y23*%
%MOIN*%
G70*
G01*
G75*
D15*
X4000Y-0D02*
Y5500D01*
X1193D02*
X4000D01*
X0Y1681D02*
Y3650D01*
X753Y-0D02*
X4000D01*
X0D02*
Y1681D01*
Y-0D02*
X753D01*
X0Y5500D02*
X1193D01*
X0Y3650D02*
Y5500D01*
D26*
X2619Y3533D02*
D03*
X1262D02*
D03*
X2619Y1957D02*
D03*
X1262D02*
D03*
D41*
X714Y877D02*
D03*
Y1271D02*
D03*
D46*
X2242Y4541D02*
D03*
X2374Y4409D02*
D03*
X2360Y4395D02*
D03*
X2318Y4353D02*
D03*
X2346Y4381D02*
D03*
X2214Y4513D02*
D03*
X2200Y4499D02*
D03*
X2228Y4527D02*
D03*
X2332Y4367D02*
D03*
D52*
X289Y998D02*
D03*
Y898D02*
D03*
Y798D02*
D03*
X155Y4832D02*
D03*
X3780Y1666D02*
D03*
Y1766D02*
D03*
X3480Y1666D02*
D03*
Y1766D02*
D03*
X3180Y1666D02*
D03*
Y1766D02*
D03*
D54*
X2110Y785D02*
D03*
Y810D02*
D03*
X2280Y759D02*
D03*
Y785D02*
D03*
Y810D02*
D03*
X2110Y836D02*
D03*
X2280D02*
D03*
X1639Y785D02*
D03*
Y810D02*
D03*
X1809Y759D02*
D03*
Y785D02*
D03*
Y810D02*
D03*
X1639Y836D02*
D03*
X1809D02*
D03*
X1593Y2365D02*
D03*
X1763D02*
D03*
X1593Y2391D02*
D03*
Y2416D02*
D03*
Y2442D02*
D03*
X1763Y2391D02*
D03*
Y2416D02*
D03*
X773Y1527D02*
D03*
X943D02*
D03*
X773Y1553D02*
D03*
Y1578D02*
D03*
Y1604D02*
D03*
X943Y1553D02*
D03*
Y1578D02*
D03*
X1593Y2942D02*
D03*
X1763D02*
D03*
X1593Y2968D02*
D03*
Y2993D02*
D03*
Y3019D02*
D03*
X1763Y2968D02*
D03*
Y2993D02*
D03*
X2305Y2942D02*
D03*
X2475D02*
D03*
X2305Y2968D02*
D03*
Y2993D02*
D03*
Y3019D02*
D03*
X2475Y2968D02*
D03*
Y2993D02*
D03*
X304Y2942D02*
D03*
X474D02*
D03*
X304Y2968D02*
D03*
Y2993D02*
D03*
Y3019D02*
D03*
X474Y2968D02*
D03*
Y2993D02*
D03*
D66*
X2405Y174D02*
D03*
X1655D02*
D03*
X492Y4880D02*
D03*
X1992Y4882D02*
D03*
X2742D02*
D03*
X1242Y4880D02*
D03*
D69*
X3630Y3290D02*
D03*
X3130D02*
D03*
X3630Y240D02*
D03*
X3130D02*
D03*
D71*
X160Y5285D02*
D03*
Y585D02*
D03*
X2795D02*
D03*
Y5285D02*
D03*
D73*
X118Y1799D02*
D03*
X2835D02*
D03*
Y3531D02*
D03*
X118D02*
D03*
D95*
X1889Y4194D02*
D03*
X1934Y4148D02*
D03*
X2208Y1129D02*
D03*
X2162Y1175D02*
D03*
X2662Y4257D02*
D03*
X2616Y4303D02*
D03*
X2610Y4207D02*
D03*
X2564Y4252D02*
D03*
D96*
X290Y4520D02*
D03*
Y4585D02*
D03*
X1916Y4081D02*
D03*
Y4016D02*
D03*
X2189Y4081D02*
D03*
Y4016D02*
D03*
X1490Y831D02*
D03*
Y766D02*
D03*
X2026Y765D02*
D03*
Y830D02*
D03*
X1556Y766D02*
D03*
Y831D02*
D03*
X1900Y765D02*
D03*
Y830D02*
D03*
X1885Y552D02*
D03*
Y617D02*
D03*
X1820Y618D02*
D03*
Y683D02*
D03*
X2443Y551D02*
D03*
Y616D02*
D03*
X2372Y617D02*
D03*
Y682D02*
D03*
X2379Y765D02*
D03*
Y830D02*
D03*
X1962D02*
D03*
Y765D02*
D03*
X1260Y2920D02*
D03*
Y2855D02*
D03*
X730Y3110D02*
D03*
Y3045D02*
D03*
X903Y3788D02*
D03*
Y3723D02*
D03*
X1137D02*
D03*
Y3788D02*
D03*
X870Y4590D02*
D03*
Y4525D02*
D03*
X1096Y4386D02*
D03*
Y4321D02*
D03*
X887D02*
D03*
Y4256D02*
D03*
D97*
X3780Y1570D02*
D03*
X3715D02*
D03*
X3780Y1960D02*
D03*
X3715D02*
D03*
X1683Y2164D02*
D03*
X1618D02*
D03*
X3180Y1960D02*
D03*
X3115D02*
D03*
X3180Y1570D02*
D03*
X3115D02*
D03*
X3480Y1960D02*
D03*
X3415D02*
D03*
X3480Y1570D02*
D03*
X3415D02*
D03*
X1012Y4063D02*
D03*
X947D02*
D03*
X1783Y4212D02*
D03*
X1718D02*
D03*
X1791Y4054D02*
D03*
X1726D02*
D03*
X2022Y3885D02*
D03*
X2087D02*
D03*
X1544Y406D02*
D03*
X1609D02*
D03*
X1680D02*
D03*
X1745D02*
D03*
X1956Y686D02*
D03*
X1891D02*
D03*
X2332Y406D02*
D03*
X2397D02*
D03*
X2506Y685D02*
D03*
X2441D02*
D03*
X2196Y406D02*
D03*
X2261D02*
D03*
X1684Y2226D02*
D03*
X1619D02*
D03*
Y2291D02*
D03*
X1684D02*
D03*
X1354Y2236D02*
D03*
X1419D02*
D03*
X798Y1324D02*
D03*
X863D02*
D03*
X633Y1378D02*
D03*
X698D02*
D03*
X863Y1389D02*
D03*
X798D02*
D03*
Y1454D02*
D03*
X863D02*
D03*
X2170Y2796D02*
D03*
X2235D02*
D03*
X1521Y2795D02*
D03*
X1456D02*
D03*
X1616Y2747D02*
D03*
X1681D02*
D03*
X1616Y2867D02*
D03*
X1681D02*
D03*
Y2807D02*
D03*
X1616D02*
D03*
X1176Y1076D02*
D03*
X1111D02*
D03*
X1084Y226D02*
D03*
X1019D02*
D03*
X513Y225D02*
D03*
X448D02*
D03*
X1171Y626D02*
D03*
X1106D02*
D03*
X2395Y2807D02*
D03*
X2330D02*
D03*
Y2867D02*
D03*
X2395D02*
D03*
X2330Y2747D02*
D03*
X2395D02*
D03*
X309Y2869D02*
D03*
X374D02*
D03*
X169Y2798D02*
D03*
X234D02*
D03*
X309Y2739D02*
D03*
X374D02*
D03*
Y2804D02*
D03*
X309D02*
D03*
X2070Y2485D02*
D03*
X2135D02*
D03*
X684Y4145D02*
D03*
X749D02*
D03*
X999Y4595D02*
D03*
X1064D02*
D03*
X734Y4081D02*
D03*
X799D02*
D03*
X1058Y3790D02*
D03*
X993D02*
D03*
X1460Y507D02*
D03*
X1525D02*
D03*
X1970Y484D02*
D03*
X1905D02*
D03*
X2035Y528D02*
D03*
X2100D02*
D03*
X2545Y490D02*
D03*
X2480D02*
D03*
X787Y2302D02*
D03*
X722D02*
D03*
X284Y2306D02*
D03*
X219D02*
D03*
D98*
X2162Y4144D02*
D03*
X2208Y4190D02*
D03*
X1902Y4582D02*
D03*
X1948Y4628D02*
D03*
X1776Y4445D02*
D03*
X1822Y4491D02*
D03*
X1714Y1125D02*
D03*
X1760Y1171D02*
D03*
D109*
X2186Y4485D02*
D03*
D117*
X289Y1098D02*
D03*
X155Y4932D02*
D03*
X3780Y1866D02*
D03*
X3480D02*
D03*
X3180D02*
D03*
D119*
X2110Y759D02*
D03*
X1639D02*
D03*
X1763Y2442D02*
D03*
X943Y1604D02*
D03*
X1763Y3019D02*
D03*
X2475D02*
D03*
X474D02*
D03*
D121*
X1080Y2800D02*
D03*
X1170D02*
D03*
Y2905D02*
D03*
X1080D02*
D03*
X910Y2990D02*
D03*
X820D02*
D03*
Y3095D02*
D03*
X910D02*
D03*
X2024Y2398D02*
D03*
X2114D02*
D03*
X2111Y2290D02*
D03*
X2021D02*
D03*
D122*
X1301Y2415D02*
D03*
Y2325D02*
D03*
X1404D02*
D03*
Y2415D02*
D03*
X2127Y2973D02*
D03*
Y2883D02*
D03*
X2220Y2882D02*
D03*
Y2972D02*
D03*
X1413Y2973D02*
D03*
Y2883D02*
D03*
X1506Y2882D02*
D03*
Y2972D02*
D03*
X238Y4302D02*
D03*
Y4212D02*
D03*
X116Y2975D02*
D03*
Y2885D02*
D03*
X219D02*
D03*
Y2975D02*
D03*
D124*
X937Y3973D02*
D03*
X1072D02*
D03*
X825Y3995D02*
D03*
X690D02*
D03*
X1088Y1486D02*
D03*
X1223D02*
D03*
X618Y1724D02*
D03*
X483D02*
D03*
X2265Y3142D02*
D03*
X2130D02*
D03*
X1546Y3137D02*
D03*
X1411D02*
D03*
X1080Y3015D02*
D03*
X1215D02*
D03*
X910Y3205D02*
D03*
X775D02*
D03*
X1220Y4527D02*
D03*
X1355D02*
D03*
X259Y3139D02*
D03*
X124D02*
D03*
X2019Y2181D02*
D03*
X2154D02*
D03*
X974Y3635D02*
D03*
X1109D02*
D03*
X862Y3874D02*
D03*
X997D02*
D03*
D125*
X1505Y2415D02*
D03*
Y2280D02*
D03*
X1895Y2395D02*
D03*
Y2260D02*
D03*
X1861Y3067D02*
D03*
Y2932D02*
D03*
X1275Y1304D02*
D03*
Y1169D02*
D03*
X1187Y319D02*
D03*
Y454D02*
D03*
X616Y453D02*
D03*
Y318D02*
D03*
X1274Y854D02*
D03*
Y719D02*
D03*
X2565Y3102D02*
D03*
Y2967D02*
D03*
X569Y3094D02*
D03*
Y2959D02*
D03*
X1223Y3704D02*
D03*
Y3839D02*
D03*
X798Y4411D02*
D03*
Y4276D02*
D03*
X1186D02*
D03*
Y4411D02*
D03*
X887Y2401D02*
D03*
Y2536D02*
D03*
X387D02*
D03*
Y2401D02*
D03*
D126*
X500Y1470D02*
D03*
Y1605D02*
D03*
X658Y1604D02*
D03*
Y1469D02*
D03*
X984Y719D02*
D03*
Y854D02*
D03*
X1139D02*
D03*
Y719D02*
D03*
X326Y318D02*
D03*
Y453D02*
D03*
X481D02*
D03*
Y318D02*
D03*
X897Y319D02*
D03*
Y454D02*
D03*
X1052D02*
D03*
Y319D02*
D03*
X985Y1169D02*
D03*
Y1304D02*
D03*
X1140D02*
D03*
Y1169D02*
D03*
X597Y2401D02*
D03*
Y2536D02*
D03*
X752D02*
D03*
Y2401D02*
D03*
X97D02*
D03*
Y2536D02*
D03*
X252D02*
D03*
Y2401D02*
D03*
D143*
X2196Y798D02*
D03*
X1725D02*
D03*
D147*
X2505Y74D02*
D03*
Y274D02*
D03*
X2305D02*
D03*
Y74D02*
D03*
X1755D02*
D03*
Y274D02*
D03*
X1555D02*
D03*
Y74D02*
D03*
X592Y4780D02*
D03*
Y4980D02*
D03*
X392D02*
D03*
Y4780D02*
D03*
X2092Y4782D02*
D03*
Y4982D02*
D03*
X1892D02*
D03*
Y4782D02*
D03*
X2842D02*
D03*
Y4982D02*
D03*
X2642D02*
D03*
Y4782D02*
D03*
X1342Y4780D02*
D03*
Y4980D02*
D03*
X1142D02*
D03*
Y4780D02*
D03*
D156*
X500Y4560D02*
D03*
Y4270D02*
D03*
D162*
X3852Y5041D02*
D03*
Y5381D02*
D03*
Y4056D02*
D03*
Y4396D02*
D03*
Y3072D02*
D03*
Y3412D02*
D03*
Y2088D02*
D03*
Y2428D02*
D03*
Y1104D02*
D03*
Y1444D02*
D03*
Y119D02*
D03*
Y459D02*
D03*
D165*
X314Y3967D02*
D03*
D169*
X1961Y1323D02*
D03*
D175*
X2053Y4022D02*
D03*
D192*
X2378Y496D02*
D03*
X2191Y535D02*
D03*
Y496D02*
D03*
Y515D02*
D03*
X2378D02*
D03*
Y476D02*
D03*
Y535D02*
D03*
Y555D02*
D03*
X2191D02*
D03*
X1619D02*
D03*
X1806D02*
D03*
Y535D02*
D03*
Y476D02*
D03*
Y515D02*
D03*
X1619D02*
D03*
Y496D02*
D03*
Y535D02*
D03*
X1806Y496D02*
D03*
D193*
X2191Y476D02*
D03*
X1619D02*
D03*
M02*
